<svg width="153" height="153" viewBox="0 0 153 153" fill="none" xmlns="http://www.w3.org/2000/svg">
<path d="M76.3934 152.28C118.16 152.28 152.019 118.422 152.019 76.6546C152.019 34.8876 118.16 1.02881 76.3934 1.02881C34.6264 1.02881 0.767578 34.8876 0.767578 76.6546C0.767578 118.422 34.6264 152.28 76.3934 152.28Z" fill="#1EF99A" stroke="black" stroke-miterlimit="10"/>
<path d="M34.5569 99.56C34.3002 99.56 33.8786 99.5233 33.2919 99.45C32.7052 99.3767 32.1736 99.0833 31.6969 98.57C31.2569 98.0567 31.1286 97.1767 31.3119 95.93C31.3486 95.71 31.4952 95.16 31.7519 94.28C32.0086 93.4 32.3202 92.3917 32.6869 91.255C33.0536 90.1183 33.4019 89.055 33.7319 88.065C34.0986 87.075 34.3736 86.36 34.5569 85.92C34.7402 85.48 34.9786 84.875 35.2719 84.105C35.5652 83.2983 35.8586 82.455 36.1519 81.575C36.4452 80.695 36.7019 79.9067 36.9219 79.21C37.1786 78.4767 37.3436 77.9817 37.4169 77.725C37.7469 76.3317 37.8386 75.25 37.6919 74.48C37.5452 73.6733 37.3252 73.0317 37.0319 72.555C36.7019 72.115 36.3352 71.8583 35.9319 71.785C35.5652 71.675 35.2352 71.6017 34.9419 71.565C34.7586 71.5283 34.3186 71.4917 33.6219 71.455C32.9619 71.4183 32.3019 71.4 31.6419 71.4C30.9819 71.3633 30.5602 71.3633 30.3769 71.4C30.0102 71.4367 29.6436 71.5833 29.2769 71.84C28.9102 72.06 28.5802 72.4817 28.2869 73.105C28.1402 73.3617 27.8652 73.9117 27.4619 74.755C27.0586 75.5983 26.6552 76.5517 26.2519 77.615C25.8486 78.6783 25.5552 79.6683 25.3719 80.585C25.1886 81.5017 25.2252 82.125 25.4819 82.455C24.8586 83.445 23.9969 84.1783 22.8969 84.655C21.7969 85.1317 20.6602 85.2417 19.4869 84.985C18.7902 84.8383 18.1119 84.4717 17.4519 83.885C16.8286 83.2617 16.4252 82.6383 16.2419 82.015C16.0586 81.355 15.9486 80.64 15.9119 79.87C15.9119 79.0633 15.9486 78.3117 16.0219 77.615C16.1319 76.7717 16.2969 75.7817 16.5169 74.645C16.7369 73.5083 16.9936 72.39 17.2869 71.29C17.5802 70.1533 17.8369 69.145 18.0569 68.265C18.2769 67.385 18.4419 66.78 18.5519 66.45C18.6619 66.12 18.8269 65.6067 19.0469 64.91C19.2669 64.2133 19.4869 63.4617 19.7069 62.655C19.9636 61.8483 20.2019 61.1333 20.4219 60.51C20.6419 59.85 20.8069 59.4283 20.9169 59.245C21.1736 58.8417 21.4119 58.475 21.6319 58.145C21.8519 57.7783 22.2736 57.4667 22.8969 57.21C23.5202 56.9167 24.1436 56.8617 24.7669 57.045C25.4269 57.2283 26.1052 57.5217 26.8019 57.925C27.6086 58.4017 28.2869 58.915 28.8369 59.465C29.4236 60.015 29.9552 60.4917 30.4319 60.895C30.9086 61.2983 31.4219 61.5367 31.9719 61.61C34.0619 61.8667 36.0236 62.215 37.8569 62.655C39.7269 63.0583 41.3402 63.48 42.6969 63.92C44.0536 64.36 44.9886 64.745 45.5019 65.075C46.3086 65.5517 46.8952 66.1567 47.2619 66.89C47.6286 67.5867 47.8852 68.1733 48.0319 68.65C48.1786 69.1267 48.2702 69.7683 48.3069 70.575C48.3802 71.3817 48.3252 72.0783 48.1419 72.665C48.0319 72.9217 47.8486 73.4167 47.5919 74.15C47.3719 74.8467 47.0969 75.635 46.7669 76.515C46.4736 77.395 46.1619 78.2567 45.8319 79.1C45.5386 79.9067 45.2819 80.5483 45.0619 81.025C44.8419 81.5017 44.5486 82.1617 44.1819 83.005C43.8519 83.8117 43.5036 84.655 43.1369 85.535C42.8069 86.415 42.4952 87.2033 42.2019 87.9C41.9452 88.56 41.7619 89 41.6519 89.22C41.5786 89.44 41.4319 89.8433 41.2119 90.43C40.9919 90.98 40.7719 91.585 40.5519 92.245C40.3686 92.905 40.2402 93.5467 40.1669 94.17C40.1302 94.7567 40.2219 95.1967 40.4419 95.49C39.7086 97.1767 38.7736 98.2583 37.6369 98.735C36.5369 99.2117 35.5102 99.4867 34.5569 99.56ZM66.5089 101.43C65.8856 101.43 65.0239 101.393 63.9239 101.32C62.8606 101.283 61.6689 101.008 60.3489 100.495C59.0289 100.018 57.6539 99.1567 56.2239 97.91C55.5272 97.2867 54.9406 96.4617 54.4639 95.435C53.9872 94.4083 53.6022 93.3083 53.3089 92.135C53.0522 90.925 52.8872 89.7883 52.8139 88.725C52.7406 87.625 52.7222 86.7267 52.7589 86.03C52.8322 85.0767 52.9606 84.05 53.1439 82.95C53.3272 81.8133 53.5472 80.7317 53.8039 79.705C54.0606 78.6783 54.2989 77.835 54.5189 77.175C55.4356 74.7183 56.4439 72.5 57.5439 70.52C58.6806 68.5033 59.7622 66.78 60.7889 65.35C61.8156 63.92 62.6039 62.8383 63.1539 62.105C63.4106 61.8117 63.7589 61.4083 64.1989 60.895C64.6756 60.3817 65.1339 59.85 65.5739 59.3C66.0139 58.75 66.2889 58.2917 66.3989 57.925C67.6822 58.1817 68.8739 58.64 69.9739 59.3C71.1106 59.96 72.0089 60.675 72.6689 61.445C73.3656 62.1783 73.7139 62.8383 73.7139 63.425C73.7139 64.305 73.5489 64.9833 73.2189 65.46C72.8889 65.9367 72.5772 66.3767 72.2839 66.78C72.1006 67.0367 71.7706 67.385 71.2939 67.825C70.8539 68.2283 70.3956 68.65 69.9189 69.09C69.4789 69.4933 69.1489 69.86 68.9289 70.19C68.6356 70.6667 68.4156 71.0517 68.2689 71.345C68.1589 71.6017 68.1406 71.9317 68.2139 72.335C68.3239 72.665 68.7089 72.885 69.3689 72.995C70.0656 73.0683 70.5422 73.1233 70.7989 73.16C73.0722 73.4167 74.7589 73.875 75.8589 74.535C76.9956 75.195 77.8389 75.7817 78.3889 76.295C79.5622 77.3217 80.4239 78.2383 80.9739 79.045C81.5606 79.815 81.9456 80.6217 82.1289 81.465C82.4956 83.0783 82.5689 84.5633 82.3489 85.92C82.1289 87.24 81.7072 88.8167 81.0839 90.65C80.4972 92.2267 79.5989 93.7117 78.3889 95.105C77.2156 96.4983 75.8406 97.8367 74.2639 99.12C73.0539 100.073 71.7706 100.678 70.4139 100.935C69.0939 101.192 67.7922 101.357 66.5089 101.43ZM65.0789 91.31C66.1422 91.6033 67.1872 91.4383 68.2139 90.815C69.2772 90.1917 70.3222 89.3117 71.3489 88.175C72.1556 87.2217 72.7239 86.2317 73.0539 85.205C73.3839 84.1783 73.4939 83.4267 73.3839 82.95C73.2006 82.1433 72.7789 81.5017 72.1189 81.025C71.4956 80.5483 70.7989 80.2367 70.0289 80.09C69.2956 79.9433 68.6539 79.9983 68.1039 80.255C67.2972 80.6217 66.6006 81.025 66.0139 81.465C65.4272 81.905 64.8589 82.6017 64.3089 83.555C63.7589 84.545 63.4472 85.4617 63.3739 86.305C63.3006 87.1483 63.2822 87.8633 63.3189 88.45C63.3922 89.5133 63.6122 90.2283 63.9789 90.595C64.3456 90.9617 64.7122 91.2 65.0789 91.31ZM130.919 61.225C130.882 61.7017 130.387 62.6183 129.434 63.975C128.517 65.295 127.289 66.9083 125.749 68.815C124.246 70.685 122.596 72.7017 120.799 74.865C119.002 77.0283 117.187 79.1733 115.354 81.3C113.557 83.4267 111.871 85.3883 110.294 87.185C108.754 88.9817 107.471 90.485 106.444 91.695C105.454 92.8683 104.867 93.5833 104.684 93.84C103.987 94.94 103.584 95.5817 103.474 95.765C103.364 95.9483 103.309 96.04 103.309 96.04C103.346 97.0667 103.089 98.1483 102.539 99.285C102.026 100.422 101.384 101.247 100.614 101.76C100.614 101.76 100.504 101.742 100.284 101.705C100.101 101.705 99.4224 101.687 98.2491 101.65C97.5157 101.613 96.7641 101.393 95.9941 100.99C95.2241 100.623 94.6191 100.055 94.1791 99.285C93.7391 98.515 93.6657 97.5433 93.9591 96.37C94.0691 95.8567 94.6191 94.8483 95.6091 93.345C96.5991 91.8417 97.8641 90.0267 99.4041 87.9C100.944 85.7733 102.649 83.5 104.519 81.08C106.389 78.6233 108.277 76.2033 110.184 73.82C112.127 71.4 113.942 69.1817 115.629 67.165C117.352 65.1117 118.837 63.4067 120.084 62.05C121.331 60.6933 122.192 59.8683 122.669 59.575C123.512 59.025 124.429 58.6583 125.419 58.475C126.409 58.2917 127.326 58.2733 128.169 58.42C129.049 58.53 129.746 58.8233 130.259 59.3C130.809 59.7767 131.029 60.4183 130.919 61.225ZM100.119 80.75C99.4224 80.97 98.5241 81.025 97.4241 80.915C96.3607 80.7683 95.2241 80.475 94.0141 80.035C92.8041 79.5583 91.6674 78.935 90.6041 78.165C89.5407 77.3583 88.6607 76.405 87.9641 75.305C87.2674 74.1683 86.9007 72.8667 86.8641 71.4C86.8274 69.53 87.0291 67.7333 87.4691 66.01C87.9091 64.2867 88.7707 62.82 90.0541 61.61C91.3374 60.4 93.2257 59.6667 95.7191 59.41C98.2491 59.1167 100.467 59.3367 102.374 60.07C104.281 60.7667 105.766 61.9033 106.829 63.48C107.892 65.0567 108.424 67.0183 108.424 69.365C108.424 71.7117 107.966 73.6733 107.049 75.25C106.169 76.79 105.087 78.0183 103.804 78.935C102.521 79.815 101.292 80.42 100.119 80.75ZM94.8941 70.245C95.1874 70.7583 95.6641 71.18 96.3241 71.51C97.0207 71.8033 97.6991 71.9317 98.3591 71.895C99.0191 71.8217 99.4224 71.51 99.5691 70.96C99.7891 70.1167 99.6791 69.3833 99.2391 68.76C98.7991 68.1 98.0474 67.7333 96.9841 67.66C96.2141 67.5867 95.5541 67.8067 95.0041 68.32C94.4907 68.7967 94.4541 69.4383 94.8941 70.245ZM127.124 78.055C128.737 78.0917 130.149 78.4583 131.359 79.155C132.606 79.8517 133.632 80.75 134.439 81.85C135.282 82.95 135.924 84.1417 136.364 85.425C136.804 86.7083 137.042 87.955 137.079 89.165C137.116 90.375 136.841 91.6217 136.254 92.905C135.704 94.1517 134.916 95.325 133.889 96.425C132.862 97.525 131.634 98.4233 130.204 99.12C128.774 99.78 127.197 100.11 125.474 100.11C123.751 100.11 122.229 99.67 120.909 98.79C119.589 97.8733 118.507 96.7183 117.664 95.325C116.821 93.895 116.216 92.41 115.849 90.87C115.519 89.2933 115.464 87.845 115.684 86.525C115.904 85.205 116.417 84.0133 117.224 82.95C118.067 81.8867 119.076 80.9883 120.249 80.255C121.422 79.5217 122.614 78.9717 123.824 78.605C125.034 78.2017 126.134 78.0183 127.124 78.055ZM127.674 91.365C128.407 91.255 128.902 90.9433 129.159 90.43C129.416 89.9167 129.507 89.385 129.434 88.835C129.361 88.2483 129.177 87.8083 128.884 87.515C128.444 87.075 127.876 86.7633 127.179 86.58C126.519 86.36 125.951 86.2867 125.474 86.36C124.924 86.4333 124.466 86.69 124.099 87.13C123.769 87.5333 123.567 87.9917 123.494 88.505C123.457 88.9817 123.586 89.385 123.879 89.715C124.319 90.2283 124.777 90.6683 125.254 91.035C125.767 91.4017 126.574 91.5117 127.674 91.365Z" fill="white"/>
</svg>
