<svg width="355" height="104" viewBox="0 0 355 104" fill="none" xmlns="http://www.w3.org/2000/svg">
<path d="M51.5231 102.765C79.697 102.765 102.536 79.9255 102.536 51.7516C102.536 23.5777 79.697 0.738281 51.5231 0.738281C23.3492 0.738281 0.509766 23.5777 0.509766 51.7516C0.509766 79.9255 23.3492 102.765 51.5231 102.765Z" fill="#FFD313" stroke="black" stroke-miterlimit="10"/>
<path d="M19.56 69.2945C19.2567 69.1778 18.965 69.0262 18.685 68.8395C18.4283 68.6528 18.2767 68.3962 18.23 68.0695C18.2067 67.7428 18.3 67.3578 18.51 66.9145C18.7433 66.4478 18.965 66.1095 19.175 65.8995C19.385 65.6662 19.735 65.2812 20.225 64.7445C20.7383 64.2078 21.1467 63.7178 21.45 63.2745C21.7767 62.8078 22.08 62.3528 22.36 61.9095C22.64 61.4662 22.7917 60.9528 22.815 60.3695C22.8617 59.7628 22.6633 59.3078 22.22 59.0045C21.7767 58.6778 21.3567 58.4212 20.96 58.2345C20.82 58.1878 20.4583 58.0362 19.875 57.7795C19.2917 57.4995 18.6383 57.2195 17.915 56.9395C17.5417 56.7762 17.1683 56.5312 16.795 56.2045C16.445 55.8778 16.2467 55.4462 16.2 54.9095C16.13 54.1862 16.2583 53.5912 16.585 53.1245C16.935 52.6578 17.3783 52.3078 17.915 52.0745C18.0083 52.0278 18.2533 51.9345 18.65 51.7945C19.07 51.6545 19.5483 51.5028 20.085 51.3395C20.6217 51.1528 21.1233 50.9662 21.59 50.7795C22.08 50.5695 22.4417 50.3945 22.675 50.2545C23.0017 50.0445 23.3167 49.8112 23.62 49.5545C23.9467 49.2745 24.18 48.9245 24.32 48.5045C24.46 48.0845 24.4483 47.5712 24.285 46.9645C24.1917 46.5912 23.865 46.3345 23.305 46.1945C22.7683 46.0545 22.2667 45.9728 21.8 45.9495C21.5667 45.9262 21.1583 45.9262 20.575 45.9495C20.015 45.9495 19.2567 46.0428 18.3 46.2295C17.9033 46.2995 17.3783 46.2645 16.725 46.1245C16.095 45.9845 15.465 45.7045 14.835 45.2845C14.2283 44.8645 13.75 44.2812 13.4 43.5345C14.1233 43.0678 14.765 42.6478 15.325 42.2745C15.885 41.8778 16.4683 41.5512 17.075 41.2945C17.6817 41.0145 18.3933 40.8162 19.21 40.6995C21.1467 40.4195 22.8267 40.4545 24.25 40.8045C25.6967 41.1312 26.8867 41.6328 27.82 42.3095C28.73 42.9395 29.3717 43.6278 29.745 44.3745C30.1183 45.1212 30.3167 45.8678 30.34 46.6145C30.41 47.8512 30.235 48.9362 29.815 49.8695C29.4183 50.8028 28.8467 51.6078 28.1 52.2845C27.96 52.4012 27.7733 52.5762 27.54 52.8095C27.3067 53.0428 27.0967 53.2645 26.91 53.4745C26.7467 53.6612 26.6417 53.8362 26.595 53.9995C26.5717 54.1628 26.5717 54.3495 26.595 54.5595C26.6417 54.9562 26.805 55.2945 27.085 55.5745C27.365 55.8312 27.68 56.0995 28.03 56.3795C28.38 56.6595 28.6833 57.0095 28.94 57.4295C29.1967 57.8495 29.3017 58.4095 29.255 59.1095C29.2317 60.0895 29.045 61.0578 28.695 62.0145C28.345 62.9712 27.9017 63.8812 27.365 64.7445C26.8517 65.5845 26.315 66.3545 25.755 67.0545C25.2183 67.7312 24.7167 68.2795 24.25 68.6995C23.9467 68.9795 23.375 69.2362 22.535 69.4695C21.7183 69.7262 20.7267 69.6678 19.56 69.2945ZM43.7609 67.6145C42.5942 67.6378 41.4159 67.4862 40.2259 67.1595C39.0359 66.8328 38.1025 66.4128 37.4259 65.8995C36.7725 65.4095 36.0725 64.6978 35.3259 63.7645C34.5792 62.8312 34.0192 61.5828 33.6459 60.0195C33.2492 58.3162 33.0859 56.7295 33.1559 55.2595C33.2492 53.7662 33.4709 52.4362 33.8209 51.2695C34.1709 50.0795 34.5559 49.0878 34.9759 48.2945C35.5825 47.1045 36.4109 45.9378 37.4609 44.7945C38.5342 43.6512 39.9459 42.7995 41.6959 42.2395C42.8159 41.8662 43.9242 41.7262 45.0209 41.8195C46.1409 41.9128 47.1209 42.1228 47.9609 42.4495C48.8242 42.7762 49.4192 43.1028 49.7459 43.4295C50.8425 44.4095 51.6592 45.6112 52.1959 47.0345C52.7559 48.4578 53.0825 49.9978 53.1759 51.6545C53.2692 53.3112 53.1525 55.0028 52.8259 56.7295C52.3125 59.4362 51.4492 61.6645 50.2359 63.4145C49.0225 65.1412 47.6459 66.3195 46.1059 66.9495C45.4525 67.2295 44.9975 67.4045 44.7409 67.4745C44.4842 67.5212 44.1575 67.5678 43.7609 67.6145ZM42.2209 60.6495C43.2475 60.7428 44.0875 60.5445 44.7409 60.0545C45.3942 59.5412 45.9192 58.8178 46.3159 57.8845C46.7125 56.9278 47.0392 55.8662 47.2959 54.6995C47.5525 53.5095 47.5992 52.3895 47.4359 51.3395C47.2725 50.2895 46.8759 49.4378 46.2459 48.7845C45.6392 48.1078 44.7759 47.7695 43.6559 47.7695C42.5592 47.7928 41.6842 48.2595 41.0309 49.1695C40.3775 50.0795 39.9109 51.4795 39.6309 53.3695C39.5375 54.0695 39.4792 54.8278 39.4559 55.6445C39.4559 56.4378 39.5375 57.2078 39.7009 57.9545C39.8642 58.7012 40.1442 59.3195 40.5409 59.8095C40.9609 60.2995 41.5209 60.5795 42.2209 60.6495ZM84.0571 43.3245C84.0337 43.6278 83.7187 44.2112 83.1121 45.0745C82.5287 45.9145 81.7471 46.9412 80.7671 48.1545C79.8104 49.3445 78.7604 50.6278 77.6171 52.0045C76.4737 53.3812 75.3187 54.7462 74.1521 56.0995C73.0087 57.4528 71.9354 58.7012 70.9321 59.8445C69.9521 60.9878 69.1354 61.9445 68.4821 62.7145C67.8521 63.4612 67.4787 63.9162 67.3621 64.0795C66.9187 64.7795 66.6621 65.1878 66.5921 65.3045C66.5221 65.4212 66.4871 65.4795 66.4871 65.4795C66.5104 66.1328 66.3471 66.8212 65.9971 67.5445C65.6704 68.2678 65.2621 68.7928 64.7721 69.1195C64.7721 69.1195 64.7021 69.1078 64.5621 69.0845C64.4454 69.0845 64.0137 69.0728 63.2671 69.0495C62.8004 69.0262 62.3221 68.8862 61.8321 68.6295C61.3421 68.3962 60.9571 68.0345 60.6771 67.5445C60.3971 67.0545 60.3504 66.4362 60.5371 65.6895C60.6071 65.3628 60.9571 64.7212 61.5871 63.7645C62.2171 62.8078 63.0221 61.6528 64.0021 60.2995C64.9821 58.9462 66.0671 57.4995 67.2571 55.9595C68.4471 54.3962 69.6487 52.8562 70.8621 51.3395C72.0987 49.7995 73.2537 48.3878 74.3271 47.1045C75.4237 45.7978 76.3687 44.7128 77.1621 43.8495C77.9554 42.9862 78.5037 42.4612 78.8071 42.2745C79.3437 41.9245 79.9271 41.6912 80.5571 41.5745C81.1871 41.4578 81.7704 41.4462 82.3071 41.5395C82.8671 41.6095 83.3104 41.7962 83.6371 42.0995C83.9871 42.4028 84.1271 42.8112 84.0571 43.3245ZM64.4571 55.7495C64.0137 55.8895 63.4421 55.9245 62.7421 55.8545C62.0654 55.7612 61.3421 55.5745 60.5721 55.2945C59.8021 54.9912 59.0787 54.5945 58.4021 54.1045C57.7254 53.5912 57.1654 52.9845 56.7221 52.2845C56.2787 51.5612 56.0454 50.7328 56.0221 49.7995C55.9987 48.6095 56.1271 47.4662 56.4071 46.3695C56.6871 45.2728 57.2354 44.3395 58.0521 43.5695C58.8687 42.7995 60.0704 42.3328 61.6571 42.1695C63.2671 41.9828 64.6787 42.1228 65.8921 42.5895C67.1054 43.0328 68.0504 43.7562 68.7271 44.7595C69.4037 45.7628 69.7421 47.0112 69.7421 48.5045C69.7421 49.9978 69.4504 51.2462 68.8671 52.2495C68.3071 53.2295 67.6187 54.0112 66.8021 54.5945C65.9854 55.1545 65.2037 55.5395 64.4571 55.7495ZM61.1321 49.0645C61.3187 49.3912 61.6221 49.6595 62.0421 49.8695C62.4854 50.0562 62.9171 50.1378 63.3371 50.1145C63.7571 50.0678 64.0137 49.8695 64.1071 49.5195C64.2471 48.9828 64.1771 48.5162 63.8971 48.1195C63.6171 47.6995 63.1387 47.4662 62.4621 47.4195C61.9721 47.3728 61.5521 47.5128 61.2021 47.8395C60.8754 48.1428 60.8521 48.5512 61.1321 49.0645ZM81.6421 54.0345C82.6687 54.0578 83.5671 54.2912 84.3371 54.7345C85.1304 55.1778 85.7837 55.7495 86.2971 56.4495C86.8337 57.1495 87.2421 57.9078 87.5221 58.7245C87.8021 59.5412 87.9537 60.3345 87.9771 61.1045C88.0004 61.8745 87.8254 62.6678 87.4521 63.4845C87.1021 64.2778 86.6004 65.0245 85.9471 65.7245C85.2937 66.4245 84.5121 66.9962 83.6021 67.4395C82.6921 67.8595 81.6887 68.0695 80.5921 68.0695C79.4954 68.0695 78.5271 67.7895 77.6871 67.2295C76.8471 66.6462 76.1587 65.9112 75.6221 65.0245C75.0854 64.1145 74.7004 63.1695 74.4671 62.1895C74.2571 61.1862 74.2221 60.2645 74.3621 59.4245C74.5021 58.5845 74.8287 57.8262 75.3421 57.1495C75.8787 56.4728 76.5204 55.9012 77.2671 55.4345C78.0137 54.9678 78.7721 54.6178 79.5421 54.3845C80.3121 54.1278 81.0121 54.0112 81.6421 54.0345ZM81.9921 62.5045C82.4587 62.4345 82.7737 62.2362 82.9371 61.9095C83.1004 61.5828 83.1587 61.2445 83.1121 60.8945C83.0654 60.5212 82.9487 60.2412 82.7621 60.0545C82.4821 59.7745 82.1204 59.5762 81.6771 59.4595C81.2571 59.3195 80.8954 59.2728 80.5921 59.3195C80.2421 59.3662 79.9504 59.5295 79.7171 59.8095C79.5071 60.0662 79.3787 60.3578 79.3321 60.6845C79.3087 60.9878 79.3904 61.2445 79.5771 61.4545C79.8571 61.7812 80.1487 62.0612 80.4521 62.2945C80.7787 62.5278 81.2921 62.5978 81.9921 62.5045Z" fill="white"/>
<path d="M117.427 53.264C116.872 53.264 116.328 53.168 115.795 52.976C115.272 52.784 114.798 52.4853 114.371 52.08C113.955 51.6853 113.624 51.1893 113.379 50.592C113.134 49.984 113.011 49.2747 113.011 48.464C113.011 47.5467 113.15 46.7573 113.427 46.096C113.715 45.424 114.094 44.8747 114.563 44.448C115.032 44.0107 115.555 43.6853 116.131 43.472C116.707 43.2587 117.283 43.152 117.859 43.152C118.2 43.152 118.526 43.1787 118.835 43.232C119.144 43.2747 119.432 43.3387 119.699 43.424C119.731 42.6453 119.768 41.8613 119.811 41.072C119.864 40.2827 119.923 39.504 119.987 38.736L122.675 38.912C122.59 39.7973 122.515 40.752 122.451 41.776C122.387 42.7893 122.339 43.824 122.307 44.88C122.286 45.936 122.275 46.9653 122.275 47.968C122.275 48.9067 122.286 49.8027 122.307 50.656C122.339 51.4987 122.376 52.2667 122.419 52.96L119.651 53.168C119.64 52.9653 119.635 52.768 119.635 52.576C119.326 52.7787 118.984 52.944 118.611 53.072C118.248 53.2 117.854 53.264 117.427 53.264ZM115.587 48.32C115.587 48.8747 115.694 49.312 115.907 49.632C116.12 49.9413 116.382 50.16 116.691 50.288C117 50.416 117.299 50.48 117.587 50.48C117.928 50.48 118.27 50.4053 118.611 50.256C118.952 50.1067 119.272 49.8453 119.571 49.472C119.571 49.344 119.571 49.2213 119.571 49.104C119.571 48.24 119.582 47.3547 119.603 46.448C119.102 46.0107 118.558 45.792 117.971 45.792C117.726 45.792 117.464 45.8293 117.187 45.904C116.91 45.9787 116.648 46.112 116.403 46.304C116.168 46.4853 115.971 46.7413 115.811 47.072C115.662 47.392 115.587 47.808 115.587 48.32ZM128.789 53.28C127.765 53.28 126.864 53.0773 126.085 52.672C125.317 52.2773 124.715 51.7227 124.277 51.008C123.851 50.2933 123.637 49.4667 123.637 48.528C123.637 47.9627 123.733 47.3707 123.925 46.752C124.117 46.1227 124.427 45.536 124.853 44.992C125.28 44.448 125.84 44.0053 126.533 43.664C127.237 43.3227 128.091 43.152 129.093 43.152C129.819 43.152 130.427 43.232 130.917 43.392C131.419 43.552 131.824 43.76 132.133 44.016C132.453 44.272 132.693 44.544 132.853 44.832C133.024 45.12 133.136 45.3973 133.189 45.664C133.253 45.92 133.285 46.1333 133.285 46.304C133.285 47.3387 132.848 48.1387 131.973 48.704C131.109 49.2587 129.883 49.536 128.293 49.536C127.931 49.536 127.584 49.52 127.253 49.488C126.933 49.456 126.635 49.4187 126.357 49.376C126.56 49.9093 126.896 50.304 127.365 50.56C127.835 50.8053 128.32 50.928 128.821 50.928C129.547 50.928 130.187 50.8 130.741 50.544C131.296 50.2773 131.819 49.872 132.309 49.328L133.733 51.376C133.392 51.6533 133.008 51.9413 132.581 52.24C132.165 52.5387 131.653 52.784 131.045 52.976C130.437 53.1787 129.685 53.28 128.789 53.28ZM129.141 45.552C128.512 45.552 127.957 45.712 127.477 46.032C126.997 46.352 126.645 46.7733 126.421 47.296C126.688 47.3387 126.949 47.376 127.205 47.408C127.472 47.4293 127.733 47.44 127.989 47.44C128.224 47.44 128.491 47.4187 128.789 47.376C129.099 47.3333 129.397 47.2693 129.685 47.184C129.984 47.0987 130.229 46.992 130.421 46.864C130.613 46.7253 130.709 46.5653 130.709 46.384C130.709 46.2987 130.667 46.192 130.581 46.064C130.496 45.936 130.341 45.8187 130.117 45.712C129.893 45.6053 129.568 45.552 129.141 45.552ZM139.677 53.328C138.952 53.328 138.28 53.2427 137.661 53.072C137.042 52.9013 136.482 52.6827 135.981 52.416C135.48 52.1493 135.032 51.8667 134.637 51.568L136.077 49.248C136.525 49.664 136.957 49.984 137.373 50.208C137.789 50.432 138.221 50.5867 138.669 50.672C139.128 50.7573 139.624 50.8 140.157 50.8C140.616 50.8 140.984 50.7413 141.261 50.624C141.538 50.496 141.677 50.336 141.677 50.144C141.677 49.984 141.544 49.8613 141.277 49.776C141.01 49.68 140.669 49.6 140.253 49.536C139.837 49.4613 139.4 49.3707 138.941 49.264C138.29 49.0933 137.682 48.896 137.117 48.672C136.552 48.448 136.093 48.144 135.741 47.76C135.4 47.376 135.229 46.864 135.229 46.224C135.229 45.712 135.352 45.264 135.597 44.88C135.842 44.4853 136.168 44.16 136.573 43.904C136.989 43.6373 137.458 43.44 137.981 43.312C138.504 43.184 139.042 43.12 139.597 43.12C140.557 43.12 141.384 43.2373 142.077 43.472C142.781 43.696 143.453 43.9947 144.093 44.368L142.637 46.576C142.317 46.352 141.949 46.16 141.533 46C141.128 45.8293 140.717 45.7013 140.301 45.616C139.896 45.52 139.517 45.472 139.165 45.472C138.781 45.472 138.477 45.5307 138.253 45.648C138.04 45.7653 137.933 45.9307 137.933 46.144C137.933 46.272 138.066 46.3947 138.333 46.512C138.61 46.6187 139.133 46.7627 139.901 46.944C140.36 47.0507 140.845 47.1627 141.357 47.28C141.869 47.3867 142.349 47.5413 142.797 47.744C143.256 47.936 143.624 48.2187 143.901 48.592C144.189 48.9547 144.333 49.44 144.333 50.048C144.333 51.072 143.922 51.872 143.101 52.448C142.28 53.0347 141.138 53.328 139.677 53.328ZM151.479 53.152C151.468 52.5547 151.463 51.9467 151.463 51.328C151.463 50.6987 151.463 50.0907 151.463 49.504V45.712C151.015 45.744 150.583 45.792 150.167 45.856C149.762 45.92 149.383 46 149.031 46.096L148.695 43.536C149.079 43.4507 149.516 43.376 150.007 43.312C150.508 43.248 151.026 43.2 151.559 43.168C151.623 42.5813 151.73 42.0107 151.879 41.456C152.039 40.9013 152.263 40.4053 152.551 39.968C152.839 39.52 153.218 39.1627 153.687 38.896C154.156 38.6293 154.738 38.496 155.431 38.496C156.316 38.496 157.17 38.6773 157.991 39.04L157.447 41.584C156.743 41.264 156.162 41.104 155.703 41.104C155.212 41.104 154.871 41.28 154.679 41.632C154.487 41.9733 154.364 42.4587 154.311 43.088C154.887 43.0987 155.431 43.1253 155.943 43.168C156.466 43.2 156.919 43.2427 157.303 43.296L157.047 45.808C156.674 45.744 156.236 45.696 155.735 45.664C155.244 45.6213 154.727 45.6 154.183 45.6C154.162 46.144 154.146 46.6773 154.135 47.2C154.124 47.712 154.119 48.224 154.119 48.736C154.119 49.4187 154.124 50.1227 154.135 50.848C154.156 51.5627 154.178 52.3307 154.199 53.152H151.479ZM158.143 53.248C158.186 52.3627 158.218 51.4773 158.239 50.592C158.261 49.7067 158.271 48.832 158.271 47.968C158.261 47.1787 158.245 46.4 158.223 45.632C158.213 44.8533 158.186 44.1013 158.143 43.376L160.831 43.296C160.842 43.6907 160.858 44.096 160.879 44.512C161.221 44.0853 161.615 43.744 162.063 43.488C162.522 43.2213 163.045 43.088 163.631 43.088C163.855 43.088 164.143 43.12 164.495 43.184C164.847 43.248 165.205 43.3707 165.567 43.552L165.263 46.256C164.997 46.096 164.709 45.984 164.399 45.92C164.101 45.8453 163.85 45.808 163.647 45.808C162.965 45.808 162.383 46.1173 161.903 46.736C161.434 47.344 161.114 48.192 160.943 49.28C160.943 50.0267 160.933 50.7413 160.911 51.424C160.901 52.096 160.874 52.704 160.831 53.248H158.143ZM170.239 53.264C169.439 53.264 168.714 53.056 168.063 52.64C167.412 52.2347 166.895 51.6853 166.511 50.992C166.138 50.288 165.951 49.504 165.951 48.64C165.951 47.8293 166.1 47.0987 166.399 46.448C166.698 45.7867 167.103 45.2213 167.615 44.752C168.138 44.2827 168.73 43.9253 169.391 43.68C170.052 43.424 170.746 43.296 171.471 43.296C172.079 43.296 172.676 43.3813 173.263 43.552C173.306 43.328 173.343 43.104 173.375 42.88L176.111 43.344C176.036 43.5467 175.962 43.8507 175.887 44.256C175.812 44.6613 175.748 45.1147 175.695 45.616C175.652 46.1173 175.615 46.6187 175.583 47.12C175.551 47.6213 175.535 48.0747 175.535 48.48C175.535 48.8107 175.556 49.136 175.599 49.456C175.652 49.7653 175.759 50.0213 175.919 50.224C176.079 50.416 176.324 50.512 176.655 50.512H176.879L176.479 53.296C175.775 53.296 175.194 53.1733 174.735 52.928C174.276 52.6933 173.908 52.3733 173.631 51.968C173.172 52.48 172.65 52.8213 172.063 52.992C171.476 53.1733 170.868 53.264 170.239 53.264ZM168.575 48.96C168.628 49.472 168.836 49.8827 169.199 50.192C169.572 50.4907 170.042 50.64 170.607 50.64C171.151 50.64 171.604 50.496 171.967 50.208C172.33 49.9093 172.628 49.504 172.863 48.992C172.852 48.8213 172.847 48.6453 172.847 48.464C172.847 48.0907 172.858 47.7067 172.879 47.312C172.9 46.9173 172.927 46.528 172.959 46.144C172.511 45.9733 172.042 45.888 171.551 45.888C170.975 45.888 170.458 46.0053 169.999 46.24C169.551 46.464 169.199 46.7787 168.943 47.184C168.687 47.5893 168.559 48.0587 168.559 48.592C168.559 48.656 168.559 48.72 168.559 48.784C168.559 48.848 168.564 48.9067 168.575 48.96ZM178.007 53.152C177.975 52.2133 177.949 51.344 177.927 50.544C177.917 49.744 177.911 48.9547 177.911 48.176C177.911 47.3973 177.917 46.6187 177.927 45.84C177.949 45.0507 177.981 44.208 178.023 43.312H180.727C180.685 43.792 180.647 44.2773 180.615 44.768C180.978 44.3093 181.41 43.9307 181.911 43.632C182.413 43.3227 183.005 43.168 183.687 43.168C184.359 43.168 184.909 43.28 185.335 43.504C185.773 43.728 186.114 44.0373 186.359 44.432C186.615 44.8267 186.797 45.28 186.903 45.792C187.021 46.2933 187.095 46.8373 187.127 47.424C187.159 48 187.175 48.5813 187.175 49.168C187.175 49.808 187.165 50.4213 187.143 51.008C187.122 51.5947 187.101 52.0853 187.079 52.48C187.058 52.8747 187.042 53.1093 187.031 53.184H184.343C184.365 52.7467 184.386 52.2827 184.407 51.792C184.429 51.2907 184.45 50.8 184.471 50.32C184.493 49.8293 184.503 49.3867 184.503 48.992C184.503 46.72 184.135 45.584 183.399 45.584C182.791 45.584 182.237 45.8507 181.735 46.384C181.245 46.9067 180.834 47.568 180.503 48.368C180.503 48.4747 180.503 48.5813 180.503 48.688C180.503 49.2 180.503 49.7333 180.503 50.288C180.514 50.832 180.525 51.3547 180.535 51.856C180.557 52.3467 180.573 52.7733 180.583 53.136L178.007 53.152ZM193.443 53.296C192.547 53.296 191.72 53.1093 190.963 52.736C190.205 52.3627 189.597 51.8293 189.139 51.136C188.68 50.432 188.451 49.5947 188.451 48.624C188.451 47.536 188.664 46.5813 189.091 45.76C189.517 44.9387 190.115 44.304 190.883 43.856C191.651 43.3973 192.547 43.168 193.571 43.168C194.552 43.168 195.384 43.3707 196.067 43.776C196.749 44.1707 197.357 44.8 197.891 45.664L195.667 47.2C195.368 46.72 195.064 46.3573 194.755 46.112C194.445 45.856 194.024 45.728 193.491 45.728C192.765 45.728 192.179 45.984 191.731 46.496C191.283 46.9973 191.059 47.6693 191.059 48.512C191.059 49.0027 191.176 49.4027 191.411 49.712C191.656 50.0213 191.955 50.2507 192.307 50.4C192.659 50.5493 192.989 50.624 193.299 50.624C193.619 50.624 193.928 50.5867 194.227 50.512C194.525 50.4267 194.808 50.2453 195.075 49.968C195.341 49.6907 195.581 49.2693 195.795 48.704L198.195 49.984C197.875 50.5707 197.517 51.1147 197.123 51.616C196.728 52.1173 196.237 52.5227 195.651 52.832C195.075 53.1413 194.339 53.296 193.443 53.296ZM192.371 52.224L193.827 52.56C193.784 52.6667 193.731 52.8053 193.667 52.976C193.613 53.1467 193.555 53.312 193.491 53.472C193.651 53.4507 193.821 53.44 194.003 53.44C194.312 53.44 194.627 53.4773 194.947 53.552C195.267 53.6267 195.539 53.76 195.763 53.952C195.987 54.1547 196.099 54.4373 196.099 54.8C196.099 55.1413 196.003 55.4187 195.811 55.632C195.629 55.856 195.389 56.0267 195.091 56.144C194.792 56.2613 194.461 56.3413 194.099 56.384C193.736 56.4373 193.384 56.464 193.043 56.464C192.776 56.464 192.531 56.4533 192.307 56.432C192.083 56.4107 191.88 56.3893 191.699 56.368L192.003 55.136C192.397 55.2 192.749 55.232 193.059 55.232C193.272 55.232 193.496 55.2053 193.731 55.152C193.965 55.1093 194.163 55.0507 194.323 54.976C194.493 54.912 194.579 54.8533 194.579 54.8C194.579 54.7573 194.525 54.72 194.419 54.688C194.312 54.6667 194.195 54.6453 194.067 54.624C193.939 54.6133 193.837 54.608 193.763 54.608C193.56 54.608 193.325 54.624 193.059 54.656C192.803 54.6987 192.541 54.7787 192.275 54.896L191.283 54.144C191.517 53.856 191.731 53.536 191.923 53.184C192.125 52.832 192.275 52.512 192.371 52.224ZM203.27 53.264C202.47 53.264 201.745 53.056 201.094 52.64C200.444 52.2347 199.926 51.6853 199.542 50.992C199.169 50.288 198.982 49.504 198.982 48.64C198.982 47.8293 199.132 47.0987 199.43 46.448C199.729 45.7867 200.134 45.2213 200.646 44.752C201.169 44.2827 201.761 43.9253 202.422 43.68C203.084 43.424 203.777 43.296 204.502 43.296C205.11 43.296 205.708 43.3813 206.294 43.552C206.337 43.328 206.374 43.104 206.406 42.88L209.142 43.344C209.068 43.5467 208.993 43.8507 208.918 44.256C208.844 44.6613 208.78 45.1147 208.726 45.616C208.684 46.1173 208.646 46.6187 208.614 47.12C208.582 47.6213 208.566 48.0747 208.566 48.48C208.566 48.8107 208.588 49.136 208.63 49.456C208.684 49.7653 208.79 50.0213 208.95 50.224C209.11 50.416 209.356 50.512 209.686 50.512H209.91L209.51 53.296C208.806 53.296 208.225 53.1733 207.766 52.928C207.308 52.6933 206.94 52.3733 206.662 51.968C206.204 52.48 205.681 52.8213 205.094 52.992C204.508 53.1733 203.9 53.264 203.27 53.264ZM201.606 48.96C201.66 49.472 201.868 49.8827 202.23 50.192C202.604 50.4907 203.073 50.64 203.638 50.64C204.182 50.64 204.636 50.496 204.998 50.208C205.361 49.9093 205.66 49.504 205.894 48.992C205.884 48.8213 205.878 48.6453 205.878 48.464C205.878 48.0907 205.889 47.7067 205.91 47.312C205.932 46.9173 205.958 46.528 205.99 46.144C205.542 45.9733 205.073 45.888 204.582 45.888C204.006 45.888 203.489 46.0053 203.03 46.24C202.582 46.464 202.23 46.7787 201.974 47.184C201.718 47.5893 201.59 48.0587 201.59 48.592C201.59 48.656 201.59 48.72 201.59 48.784C201.59 48.848 201.596 48.9067 201.606 48.96ZM210.863 41.664C210.863 41.568 210.857 41.472 210.847 41.376C210.847 41.2693 210.847 41.152 210.847 41.024C210.847 40.6827 210.857 40.32 210.879 39.936C210.9 39.552 210.921 39.2267 210.943 38.96L213.791 39.008C213.759 39.3707 213.721 39.7813 213.679 40.24C213.647 40.6987 213.625 41.1733 213.615 41.664H210.863ZM210.799 53.12C210.767 52.4587 210.745 51.7547 210.735 51.008C210.724 50.2507 210.719 49.4933 210.719 48.736C210.719 47.744 210.729 46.7787 210.751 45.84C210.772 44.9013 210.799 44.048 210.831 43.28L213.583 43.264C213.54 43.7547 213.513 44.3627 213.503 45.088C213.492 45.8027 213.487 46.5547 213.487 47.344C213.487 48.1227 213.492 48.8907 213.503 49.648C213.513 50.4053 213.524 51.0933 213.535 51.712C213.556 52.32 213.572 52.7893 213.583 53.12H210.799ZM219.833 53.328C219.108 53.328 218.436 53.2427 217.817 53.072C217.199 52.9013 216.639 52.6827 216.137 52.416C215.636 52.1493 215.188 51.8667 214.793 51.568L216.233 49.248C216.681 49.664 217.113 49.984 217.529 50.208C217.945 50.432 218.377 50.5867 218.825 50.672C219.284 50.7573 219.78 50.8 220.313 50.8C220.772 50.8 221.14 50.7413 221.417 50.624C221.695 50.496 221.833 50.336 221.833 50.144C221.833 49.984 221.7 49.8613 221.433 49.776C221.167 49.68 220.825 49.6 220.409 49.536C219.993 49.4613 219.556 49.3707 219.097 49.264C218.447 49.0933 217.839 48.896 217.273 48.672C216.708 48.448 216.249 48.144 215.897 47.76C215.556 47.376 215.385 46.864 215.385 46.224C215.385 45.712 215.508 45.264 215.753 44.88C215.999 44.4853 216.324 44.16 216.729 43.904C217.145 43.6373 217.615 43.44 218.137 43.312C218.66 43.184 219.199 43.12 219.753 43.12C220.713 43.12 221.54 43.2373 222.233 43.472C222.937 43.696 223.609 43.9947 224.249 44.368L222.793 46.576C222.473 46.352 222.105 46.16 221.689 46C221.284 45.8293 220.873 45.7013 220.457 45.616C220.052 45.52 219.673 45.472 219.321 45.472C218.937 45.472 218.633 45.5307 218.409 45.648C218.196 45.7653 218.089 45.9307 218.089 46.144C218.089 46.272 218.223 46.3947 218.489 46.512C218.767 46.6187 219.289 46.7627 220.057 46.944C220.516 47.0507 221.001 47.1627 221.513 47.28C222.025 47.3867 222.505 47.5413 222.953 47.744C223.412 47.936 223.78 48.2187 224.057 48.592C224.345 48.9547 224.489 49.44 224.489 50.048C224.489 51.072 224.079 51.872 223.257 52.448C222.436 53.0347 221.295 53.328 219.833 53.328ZM233.411 53.264C232.857 53.264 232.313 53.168 231.779 52.976C231.257 52.784 230.782 52.4853 230.355 52.08C229.939 51.6853 229.609 51.1893 229.363 50.592C229.118 49.984 228.995 49.2747 228.995 48.464C228.995 47.5467 229.134 46.7573 229.411 46.096C229.699 45.424 230.078 44.8747 230.547 44.448C231.017 44.0107 231.539 43.6853 232.115 43.472C232.691 43.2587 233.267 43.152 233.843 43.152C234.185 43.152 234.51 43.1787 234.819 43.232C235.129 43.2747 235.417 43.3387 235.683 43.424C235.715 42.6453 235.753 41.8613 235.795 41.072C235.849 40.2827 235.907 39.504 235.971 38.736L238.659 38.912C238.574 39.7973 238.499 40.752 238.435 41.776C238.371 42.7893 238.323 43.824 238.291 44.88C238.27 45.936 238.259 46.9653 238.259 47.968C238.259 48.9067 238.27 49.8027 238.291 50.656C238.323 51.4987 238.361 52.2667 238.403 52.96L235.635 53.168C235.625 52.9653 235.619 52.768 235.619 52.576C235.31 52.7787 234.969 52.944 234.595 53.072C234.233 53.2 233.838 53.264 233.411 53.264ZM231.571 48.32C231.571 48.8747 231.678 49.312 231.891 49.632C232.105 49.9413 232.366 50.16 232.675 50.288C232.985 50.416 233.283 50.48 233.571 50.48C233.913 50.48 234.254 50.4053 234.595 50.256C234.937 50.1067 235.257 49.8453 235.555 49.472C235.555 49.344 235.555 49.2213 235.555 49.104C235.555 48.24 235.566 47.3547 235.587 46.448C235.086 46.0107 234.542 45.792 233.955 45.792C233.71 45.792 233.449 45.8293 233.171 45.904C232.894 45.9787 232.633 46.112 232.387 46.304C232.153 46.4853 231.955 46.7413 231.795 47.072C231.646 47.392 231.571 47.808 231.571 48.32ZM244.774 53.28C243.75 53.28 242.848 53.0773 242.07 52.672C241.302 52.2773 240.699 51.7227 240.262 51.008C239.835 50.2933 239.622 49.4667 239.622 48.528C239.622 47.9627 239.718 47.3707 239.91 46.752C240.102 46.1227 240.411 45.536 240.838 44.992C241.264 44.448 241.824 44.0053 242.518 43.664C243.222 43.3227 244.075 43.152 245.078 43.152C245.803 43.152 246.411 43.232 246.902 43.392C247.403 43.552 247.808 43.76 248.118 44.016C248.438 44.272 248.678 44.544 248.838 44.832C249.008 45.12 249.12 45.3973 249.174 45.664C249.238 45.92 249.27 46.1333 249.27 46.304C249.27 47.3387 248.832 48.1387 247.958 48.704C247.094 49.2587 245.867 49.536 244.278 49.536C243.915 49.536 243.568 49.52 243.238 49.488C242.918 49.456 242.619 49.4187 242.342 49.376C242.544 49.9093 242.88 50.304 243.35 50.56C243.819 50.8053 244.304 50.928 244.806 50.928C245.531 50.928 246.171 50.8 246.726 50.544C247.28 50.2773 247.803 49.872 248.294 49.328L249.718 51.376C249.376 51.6533 248.992 51.9413 248.566 52.24C248.15 52.5387 247.638 52.784 247.03 52.976C246.422 53.1787 245.67 53.28 244.774 53.28ZM245.126 45.552C244.496 45.552 243.942 45.712 243.462 46.032C242.982 46.352 242.63 46.7733 242.406 47.296C242.672 47.3387 242.934 47.376 243.19 47.408C243.456 47.4293 243.718 47.44 243.974 47.44C244.208 47.44 244.475 47.4187 244.774 47.376C245.083 47.3333 245.382 47.2693 245.67 47.184C245.968 47.0987 246.214 46.992 246.406 46.864C246.598 46.7253 246.694 46.5653 246.694 46.384C246.694 46.2987 246.651 46.192 246.566 46.064C246.48 45.936 246.326 45.8187 246.102 45.712C245.878 45.6053 245.552 45.552 245.126 45.552ZM243.334 41.952L242.502 40.752C242.747 40.5707 243.024 40.3627 243.334 40.128C243.643 39.8933 243.952 39.6533 244.262 39.408C244.571 39.152 244.854 38.9227 245.11 38.72C245.376 38.5067 245.584 38.336 245.734 38.208L247.062 39.76C246.902 39.8987 246.667 40.064 246.358 40.256C246.059 40.4373 245.723 40.6347 245.35 40.848C244.987 41.0613 244.63 41.264 244.278 41.456C243.926 41.6373 243.611 41.8027 243.334 41.952ZM255.661 53.296C254.765 53.296 253.939 53.1093 253.181 52.736C252.424 52.3627 251.816 51.8293 251.357 51.136C250.899 50.432 250.669 49.5947 250.669 48.624C250.669 47.536 250.883 46.5813 251.309 45.76C251.736 44.9387 252.333 44.304 253.101 43.856C253.869 43.3973 254.765 43.168 255.789 43.168C256.771 43.168 257.603 43.3707 258.285 43.776C258.968 44.1707 259.576 44.8 260.109 45.664L257.885 47.2C257.587 46.72 257.283 46.3573 256.973 46.112C256.664 45.856 256.243 45.728 255.709 45.728C254.984 45.728 254.397 45.984 253.949 46.496C253.501 46.9973 253.277 47.6693 253.277 48.512C253.277 49.0027 253.395 49.4027 253.629 49.712C253.875 50.0213 254.173 50.2507 254.525 50.4C254.877 50.5493 255.208 50.624 255.517 50.624C255.837 50.624 256.147 50.5867 256.445 50.512C256.744 50.4267 257.027 50.2453 257.293 49.968C257.56 49.6907 257.8 49.2693 258.013 48.704L260.413 49.984C260.093 50.5707 259.736 51.1147 259.341 51.616C258.947 52.1173 258.456 52.5227 257.869 52.832C257.293 53.1413 256.557 53.296 255.661 53.296ZM264.593 53.264C264.006 53.264 263.521 53.136 263.137 52.88C262.764 52.6347 262.465 52.2933 262.241 51.856C262.028 51.4187 261.868 50.9173 261.761 50.352C261.665 49.7867 261.601 49.184 261.569 48.544C261.548 47.8933 261.537 47.2427 261.537 46.592C261.537 46.0267 261.553 45.408 261.585 44.736C261.617 44.0533 261.654 43.3653 261.697 42.672C261.75 41.968 261.804 41.3067 261.857 40.688C261.921 40.0693 261.98 39.5307 262.033 39.072L264.929 39.104C264.844 39.648 264.764 40.2667 264.689 40.96C264.614 41.6427 264.55 42.336 264.497 43.04C264.454 43.744 264.417 44.3947 264.385 44.992C264.364 45.5893 264.353 46.064 264.353 46.416C264.353 47.3867 264.369 48.1493 264.401 48.704C264.444 49.2587 264.502 49.6533 264.577 49.888C264.662 50.112 264.774 50.224 264.913 50.224C265.094 50.224 265.292 50.112 265.505 49.888C265.718 49.6533 265.926 49.392 266.129 49.104L267.489 51.808C267.158 52.1707 266.764 52.5013 266.305 52.8C265.846 53.1093 265.276 53.264 264.593 53.264ZM272.88 53.264C272.08 53.264 271.354 53.056 270.704 52.64C270.053 52.2347 269.536 51.6853 269.152 50.992C268.778 50.288 268.592 49.504 268.592 48.64C268.592 47.8293 268.741 47.0987 269.04 46.448C269.338 45.7867 269.744 45.2213 270.256 44.752C270.778 44.2827 271.37 43.9253 272.032 43.68C272.693 43.424 273.386 43.296 274.112 43.296C274.72 43.296 275.317 43.3813 275.904 43.552C275.946 43.328 275.984 43.104 276.016 42.88L278.752 43.344C278.677 43.5467 278.602 43.8507 278.528 44.256C278.453 44.6613 278.389 45.1147 278.336 45.616C278.293 46.1173 278.256 46.6187 278.224 47.12C278.192 47.6213 278.176 48.0747 278.176 48.48C278.176 48.8107 278.197 49.136 278.24 49.456C278.293 49.7653 278.4 50.0213 278.56 50.224C278.72 50.416 278.965 50.512 279.296 50.512H279.52L279.12 53.296C278.416 53.296 277.834 53.1733 277.376 52.928C276.917 52.6933 276.549 52.3733 276.272 51.968C275.813 52.48 275.29 52.8213 274.704 52.992C274.117 53.1733 273.509 53.264 272.88 53.264ZM271.216 48.96C271.269 49.472 271.477 49.8827 271.84 50.192C272.213 50.4907 272.682 50.64 273.248 50.64C273.792 50.64 274.245 50.496 274.608 50.208C274.97 49.9093 275.269 49.504 275.504 48.992C275.493 48.8213 275.488 48.6453 275.488 48.464C275.488 48.0907 275.498 47.7067 275.52 47.312C275.541 46.9173 275.568 46.528 275.6 46.144C275.152 45.9733 274.682 45.888 274.192 45.888C273.616 45.888 273.098 46.0053 272.64 46.24C272.192 46.464 271.84 46.7787 271.584 47.184C271.328 47.5893 271.2 48.0587 271.2 48.592C271.2 48.656 271.2 48.72 271.2 48.784C271.2 48.848 271.205 48.9067 271.216 48.96ZM280.456 53.248C280.499 52.3627 280.531 51.4773 280.552 50.592C280.573 49.7067 280.584 48.832 280.584 47.968C280.573 47.1787 280.557 46.4 280.536 45.632C280.525 44.8533 280.499 44.1013 280.456 43.376L283.144 43.296C283.155 43.6907 283.171 44.096 283.192 44.512C283.533 44.0853 283.928 43.744 284.376 43.488C284.835 43.2213 285.357 43.088 285.944 43.088C286.168 43.088 286.456 43.12 286.808 43.184C287.16 43.248 287.517 43.3707 287.88 43.552L287.576 46.256C287.309 46.096 287.021 45.984 286.712 45.92C286.413 45.8453 286.163 45.808 285.96 45.808C285.277 45.808 284.696 46.1173 284.216 46.736C283.747 47.344 283.427 48.192 283.256 49.28C283.256 50.0267 283.245 50.7413 283.224 51.424C283.213 52.096 283.187 52.704 283.144 53.248H280.456ZM293.368 53.28C292.344 53.28 291.442 53.0773 290.664 52.672C289.896 52.2773 289.293 51.7227 288.856 51.008C288.429 50.2933 288.216 49.4667 288.216 48.528C288.216 47.9627 288.312 47.3707 288.504 46.752C288.696 46.1227 289.005 45.536 289.432 44.992C289.858 44.448 290.418 44.0053 291.112 43.664C291.816 43.3227 292.669 43.152 293.672 43.152C294.397 43.152 295.005 43.232 295.496 43.392C295.997 43.552 296.402 43.76 296.712 44.016C297.032 44.272 297.272 44.544 297.432 44.832C297.602 45.12 297.714 45.3973 297.768 45.664C297.832 45.92 297.864 46.1333 297.864 46.304C297.864 47.3387 297.426 48.1387 296.552 48.704C295.688 49.2587 294.461 49.536 292.872 49.536C292.509 49.536 292.162 49.52 291.832 49.488C291.512 49.456 291.213 49.4187 290.936 49.376C291.138 49.9093 291.474 50.304 291.944 50.56C292.413 50.8053 292.898 50.928 293.4 50.928C294.125 50.928 294.765 50.8 295.32 50.544C295.874 50.2773 296.397 49.872 296.888 49.328L298.312 51.376C297.97 51.6533 297.586 51.9413 297.16 52.24C296.744 52.5387 296.232 52.784 295.624 52.976C295.016 53.1787 294.264 53.28 293.368 53.28ZM293.72 45.552C293.09 45.552 292.536 45.712 292.056 46.032C291.576 46.352 291.224 46.7733 291 47.296C291.266 47.3387 291.528 47.376 291.784 47.408C292.05 47.4293 292.312 47.44 292.568 47.44C292.802 47.44 293.069 47.4187 293.368 47.376C293.677 47.3333 293.976 47.2693 294.264 47.184C294.562 47.0987 294.808 46.992 295 46.864C295.192 46.7253 295.288 46.5653 295.288 46.384C295.288 46.2987 295.245 46.192 295.16 46.064C295.074 45.936 294.92 45.8187 294.696 45.712C294.472 45.6053 294.146 45.552 293.72 45.552ZM299.679 53.152C299.647 52.2133 299.621 51.344 299.599 50.544C299.589 49.744 299.583 48.9547 299.583 48.176C299.583 47.3973 299.589 46.6187 299.599 45.84C299.621 45.0507 299.653 44.208 299.695 43.312H302.399C302.357 43.792 302.319 44.2773 302.287 44.768C302.65 44.3093 303.082 43.9307 303.583 43.632C304.085 43.3227 304.677 43.168 305.359 43.168C306.031 43.168 306.581 43.28 307.007 43.504C307.445 43.728 307.786 44.0373 308.031 44.432C308.287 44.8267 308.469 45.28 308.575 45.792C308.693 46.2933 308.767 46.8373 308.799 47.424C308.831 48 308.847 48.5813 308.847 49.168C308.847 49.808 308.837 50.4213 308.815 51.008C308.794 51.5947 308.773 52.0853 308.751 52.48C308.73 52.8747 308.714 53.1093 308.703 53.184H306.015C306.037 52.7467 306.058 52.2827 306.079 51.792C306.101 51.2907 306.122 50.8 306.143 50.32C306.165 49.8293 306.175 49.3867 306.175 48.992C306.175 46.72 305.807 45.584 305.071 45.584C304.463 45.584 303.909 45.8507 303.407 46.384C302.917 46.9067 302.506 47.568 302.175 48.368C302.175 48.4747 302.175 48.5813 302.175 48.688C302.175 49.2 302.175 49.7333 302.175 50.288C302.186 50.832 302.197 51.3547 302.207 51.856C302.229 52.3467 302.245 52.7733 302.255 53.136L299.679 53.152ZM315.211 53.264C314.571 53.264 314.064 53.1253 313.691 52.848C313.317 52.5813 313.045 52.208 312.875 51.728C312.704 51.248 312.592 50.6987 312.539 50.08C312.496 49.4613 312.475 48.8107 312.475 48.128C312.475 47.424 312.501 46.6933 312.555 45.936C311.84 46.032 311.152 46.1547 310.491 46.304L309.995 43.792C310.88 43.5573 311.824 43.3867 312.827 43.28C312.901 42.736 312.981 42.1653 313.067 41.568C313.152 40.96 313.248 40.32 313.355 39.648L316.107 39.888C315.979 40.4427 315.867 40.9973 315.771 41.552C315.675 42.096 315.589 42.624 315.515 43.136C316.112 43.136 316.672 43.152 317.195 43.184C317.728 43.2053 318.219 43.248 318.667 43.312L318.347 45.824C317.973 45.7813 317.584 45.7547 317.179 45.744C316.784 45.7227 316.384 45.712 315.979 45.712C315.733 45.712 315.488 45.7173 315.243 45.728C315.179 46.5067 315.136 47.1733 315.115 47.728C315.104 48.2827 315.099 48.6773 315.099 48.912C315.099 49.4987 315.131 49.92 315.195 50.176C315.269 50.432 315.387 50.56 315.547 50.56C315.728 50.56 315.931 50.5013 316.155 50.384C316.379 50.256 316.597 50.0853 316.811 49.872C317.035 49.6587 317.221 49.4293 317.371 49.184L318.603 51.76C317.547 52.7627 316.416 53.264 315.211 53.264ZM117.411 76.264C116.611 76.264 115.886 76.056 115.235 75.64C114.584 75.2347 114.067 74.6853 113.683 73.992C113.31 73.288 113.123 72.504 113.123 71.64C113.123 70.8293 113.272 70.0987 113.571 69.448C113.87 68.7867 114.275 68.2213 114.787 67.752C115.31 67.2827 115.902 66.9253 116.563 66.68C117.224 66.424 117.918 66.296 118.643 66.296C119.251 66.296 119.848 66.3813 120.435 66.552C120.478 66.328 120.515 66.104 120.547 65.88L123.283 66.344C123.208 66.5467 123.134 66.8507 123.059 67.256C122.984 67.6613 122.92 68.1147 122.867 68.616C122.824 69.1173 122.787 69.6187 122.755 70.12C122.723 70.6213 122.707 71.0747 122.707 71.48C122.707 71.8107 122.728 72.136 122.771 72.456C122.824 72.7653 122.931 73.0213 123.091 73.224C123.251 73.416 123.496 73.512 123.827 73.512H124.051L123.651 76.296C122.947 76.296 122.366 76.1733 121.907 75.928C121.448 75.6933 121.08 75.3733 120.803 74.968C120.344 75.48 119.822 75.8213 119.235 75.992C118.648 76.1733 118.04 76.264 117.411 76.264ZM115.747 71.96C115.8 72.472 116.008 72.8827 116.371 73.192C116.744 73.4907 117.214 73.64 117.779 73.64C118.323 73.64 118.776 73.496 119.139 73.208C119.502 72.9093 119.8 72.504 120.035 71.992C120.024 71.8213 120.019 71.6453 120.019 71.464C120.019 71.0907 120.03 70.7067 120.051 70.312C120.072 69.9173 120.099 69.528 120.131 69.144C119.683 68.9733 119.214 68.888 118.723 68.888C118.147 68.888 117.63 69.0053 117.171 69.24C116.723 69.464 116.371 69.7787 116.115 70.184C115.859 70.5893 115.731 71.0587 115.731 71.592C115.731 71.656 115.731 71.72 115.731 71.784C115.731 71.848 115.736 71.9067 115.747 71.96ZM129.643 76.248C129.206 76.248 128.827 76.12 128.507 75.864C128.187 75.608 127.91 75.2933 127.675 74.92C127.441 74.5467 127.233 74.184 127.051 73.832C126.721 73.16 126.406 72.424 126.107 71.624C125.809 70.824 125.547 69.992 125.323 69.128C125.099 68.264 124.929 67.4107 124.811 66.568L127.707 66.152C127.793 67.144 127.926 68.0773 128.107 68.952C128.289 69.8267 128.502 70.6053 128.747 71.288C128.993 71.9707 129.243 72.5253 129.499 72.952C129.553 73.0267 129.601 73.1013 129.643 73.176C129.697 73.2507 129.723 73.288 129.723 73.288C129.745 73.288 129.83 73.176 129.979 72.952C130.449 72.1307 130.886 71.1707 131.291 70.072C131.697 68.9733 132.049 67.6453 132.347 66.088L135.163 66.648C134.886 67.6507 134.63 68.5253 134.395 69.272C134.161 70.008 133.931 70.6533 133.707 71.208C133.483 71.7627 133.259 72.264 133.035 72.712C132.811 73.1493 132.577 73.576 132.331 73.992C132.171 74.28 131.963 74.6 131.707 74.952C131.462 75.304 131.169 75.608 130.827 75.864C130.486 76.12 130.091 76.248 129.643 76.248ZM141.209 76.312C140.356 76.312 139.609 76.1733 138.969 75.896C138.34 75.6187 137.817 75.24 137.401 74.76C136.985 74.2693 136.676 73.7093 136.473 73.08C136.271 72.4507 136.169 71.7893 136.169 71.096C136.169 70.392 136.292 69.7413 136.537 69.144C136.793 68.536 137.14 68.008 137.577 67.56C138.025 67.112 138.548 66.7653 139.145 66.52C139.743 66.264 140.393 66.136 141.097 66.136C141.833 66.136 142.516 66.264 143.145 66.52C143.775 66.776 144.324 67.1333 144.793 67.592C145.263 68.0507 145.625 68.5893 145.881 69.208C146.148 69.8267 146.281 70.4987 146.281 71.224C146.281 72.8347 145.839 74.088 144.953 74.984C144.068 75.8693 142.82 76.312 141.209 76.312ZM141.193 73.72C141.972 73.72 142.564 73.5013 142.969 73.064C143.385 72.6267 143.593 71.9973 143.593 71.176C143.593 70.44 143.369 69.848 142.921 69.4C142.473 68.952 141.887 68.728 141.161 68.728C140.724 68.728 140.324 68.8453 139.961 69.08C139.599 69.304 139.305 69.608 139.081 69.992C138.868 70.3653 138.761 70.7813 138.761 71.24C138.761 71.6453 138.841 72.04 139.001 72.424C139.172 72.808 139.439 73.1227 139.801 73.368C140.164 73.6027 140.628 73.72 141.193 73.72ZM147.488 64.664C147.488 64.568 147.482 64.472 147.472 64.376C147.472 64.2693 147.472 64.152 147.472 64.024C147.472 63.6827 147.482 63.32 147.504 62.936C147.525 62.552 147.546 62.2267 147.568 61.96L150.416 62.008C150.384 62.3707 150.346 62.7813 150.304 63.24C150.272 63.6987 150.25 64.1733 150.24 64.664H147.488ZM147.424 76.12C147.392 75.4587 147.37 74.7547 147.36 74.008C147.349 73.2507 147.344 72.4933 147.344 71.736C147.344 70.744 147.354 69.7787 147.376 68.84C147.397 67.9013 147.424 67.048 147.456 66.28L150.208 66.264C150.165 66.7547 150.138 67.3627 150.128 68.088C150.117 68.8027 150.112 69.5547 150.112 70.344C150.112 71.1227 150.117 71.8907 150.128 72.648C150.138 73.4053 150.149 74.0933 150.16 74.712C150.181 75.32 150.197 75.7893 150.208 76.12H147.424ZM151.69 76.248C151.733 75.3627 151.765 74.4773 151.786 73.592C151.808 72.7067 151.818 71.832 151.818 70.968C151.808 70.1787 151.792 69.4 151.77 68.632C151.76 67.8533 151.733 67.1013 151.69 66.376L154.378 66.296C154.389 66.6907 154.405 67.096 154.426 67.512C154.768 67.0853 155.162 66.744 155.61 66.488C156.069 66.2213 156.592 66.088 157.178 66.088C157.402 66.088 157.69 66.12 158.042 66.184C158.394 66.248 158.752 66.3707 159.114 66.552L158.81 69.256C158.544 69.096 158.256 68.984 157.946 68.92C157.648 68.8453 157.397 68.808 157.194 68.808C156.512 68.808 155.93 69.1173 155.45 69.736C154.981 70.344 154.661 71.192 154.49 72.28C154.49 73.0267 154.48 73.7413 154.458 74.424C154.448 75.096 154.421 75.704 154.378 76.248H151.69ZM167.458 76.264C166.904 76.264 166.36 76.168 165.826 75.976C165.304 75.784 164.829 75.4853 164.402 75.08C163.986 74.6853 163.656 74.1893 163.41 73.592C163.165 72.984 163.042 72.2747 163.042 71.464C163.042 70.5467 163.181 69.7573 163.458 69.096C163.746 68.424 164.125 67.8747 164.594 67.448C165.064 67.0107 165.586 66.6853 166.162 66.472C166.738 66.2587 167.314 66.152 167.89 66.152C168.232 66.152 168.557 66.1787 168.866 66.232C169.176 66.2747 169.464 66.3387 169.73 66.424C169.762 65.6453 169.8 64.8613 169.842 64.072C169.896 63.2827 169.954 62.504 170.018 61.736L172.706 61.912C172.621 62.7973 172.546 63.752 172.482 64.776C172.418 65.7893 172.37 66.824 172.338 67.88C172.317 68.936 172.306 69.9653 172.306 70.968C172.306 71.9067 172.317 72.8027 172.338 73.656C172.37 74.4987 172.408 75.2667 172.45 75.96L169.682 76.168C169.672 75.9653 169.666 75.768 169.666 75.576C169.357 75.7787 169.016 75.944 168.642 76.072C168.28 76.2 167.885 76.264 167.458 76.264ZM165.618 71.32C165.618 71.8747 165.725 72.312 165.938 72.632C166.152 72.9413 166.413 73.16 166.722 73.288C167.032 73.416 167.33 73.48 167.618 73.48C167.96 73.48 168.301 73.4053 168.642 73.256C168.984 73.1067 169.304 72.8453 169.602 72.472C169.602 72.344 169.602 72.2213 169.602 72.104C169.602 71.24 169.613 70.3547 169.634 69.448C169.133 69.0107 168.589 68.792 168.002 68.792C167.757 68.792 167.496 68.8293 167.218 68.904C166.941 68.9787 166.68 69.112 166.434 69.304C166.2 69.4853 166.002 69.7413 165.842 70.072C165.693 70.392 165.618 70.808 165.618 71.32ZM178.821 76.28C177.797 76.28 176.895 76.0773 176.117 75.672C175.349 75.2773 174.746 74.7227 174.309 74.008C173.882 73.2933 173.669 72.4667 173.669 71.528C173.669 70.9627 173.765 70.3707 173.957 69.752C174.149 69.1227 174.458 68.536 174.885 67.992C175.311 67.448 175.871 67.0053 176.565 66.664C177.269 66.3227 178.122 66.152 179.125 66.152C179.85 66.152 180.458 66.232 180.949 66.392C181.45 66.552 181.855 66.76 182.165 67.016C182.485 67.272 182.725 67.544 182.885 67.832C183.055 68.12 183.167 68.3973 183.221 68.664C183.285 68.92 183.317 69.1333 183.317 69.304C183.317 70.3387 182.879 71.1387 182.005 71.704C181.141 72.2587 179.914 72.536 178.325 72.536C177.962 72.536 177.615 72.52 177.285 72.488C176.965 72.456 176.666 72.4187 176.389 72.376C176.591 72.9093 176.927 73.304 177.397 73.56C177.866 73.8053 178.351 73.928 178.853 73.928C179.578 73.928 180.218 73.8 180.773 73.544C181.327 73.2773 181.85 72.872 182.341 72.328L183.765 74.376C183.423 74.6533 183.039 74.9413 182.613 75.24C182.197 75.5387 181.685 75.784 181.077 75.976C180.469 76.1787 179.717 76.28 178.821 76.28ZM179.173 68.552C178.543 68.552 177.989 68.712 177.509 69.032C177.029 69.352 176.677 69.7733 176.453 70.296C176.719 70.3387 176.981 70.376 177.237 70.408C177.503 70.4293 177.765 70.44 178.021 70.44C178.255 70.44 178.522 70.4187 178.821 70.376C179.13 70.3333 179.429 70.2693 179.717 70.184C180.015 70.0987 180.261 69.992 180.453 69.864C180.645 69.7253 180.741 69.5653 180.741 69.384C180.741 69.2987 180.698 69.192 180.613 69.064C180.527 68.936 180.373 68.8187 180.149 68.712C179.925 68.6053 179.599 68.552 179.173 68.552ZM189.948 64.744C189.927 64.4773 189.9 64.1573 189.868 63.784C189.847 63.4107 189.836 63.0533 189.836 62.712C189.836 62.5947 189.836 62.4773 189.836 62.36C189.847 62.232 189.858 62.1253 189.868 62.04L192.636 61.96C192.636 62.0453 192.636 62.216 192.636 62.472C192.647 62.728 192.652 63.0107 192.652 63.32C192.663 63.6293 192.674 63.912 192.684 64.168C192.695 64.4133 192.7 64.5787 192.7 64.664L189.948 64.744ZM188.94 76.264C187.746 76.264 186.764 75.8693 185.996 75.08C185.228 74.2907 184.711 73.16 184.444 71.688L187.148 70.888C187.148 71.176 187.18 71.48 187.244 71.8C187.319 72.12 187.431 72.424 187.58 72.712C187.73 73 187.916 73.2347 188.14 73.416C188.364 73.5867 188.62 73.672 188.908 73.672C189.303 73.672 189.591 73.576 189.772 73.384C189.964 73.192 190.082 72.8667 190.124 72.408C190.146 72.1627 190.162 71.8853 190.172 71.576C190.183 71.256 190.188 70.9253 190.188 70.584C190.188 70.04 190.178 69.496 190.156 68.952C190.135 68.3973 190.108 67.8907 190.076 67.432C190.044 66.9733 190.002 66.6213 189.948 66.376L192.748 66.296C192.759 66.4987 192.77 66.8293 192.78 67.288C192.791 67.736 192.802 68.2587 192.812 68.856C192.823 69.4533 192.828 70.072 192.828 70.712C192.828 71.1067 192.823 71.5013 192.812 71.896C192.802 72.2907 192.78 72.6587 192.748 73C192.716 73.352 192.626 73.72 192.476 74.104C192.338 74.488 192.119 74.84 191.82 75.16C191.522 75.4907 191.138 75.7573 190.668 75.96C190.199 76.1627 189.623 76.264 188.94 76.264ZM198.239 76.264C197.439 76.264 196.714 76.056 196.063 75.64C195.412 75.2347 194.895 74.6853 194.511 73.992C194.138 73.288 193.951 72.504 193.951 71.64C193.951 70.8293 194.1 70.0987 194.399 69.448C194.698 68.7867 195.103 68.2213 195.615 67.752C196.138 67.2827 196.73 66.9253 197.391 66.68C198.052 66.424 198.746 66.296 199.471 66.296C200.079 66.296 200.676 66.3813 201.263 66.552C201.306 66.328 201.343 66.104 201.375 65.88L204.111 66.344C204.036 66.5467 203.962 66.8507 203.887 67.256C203.812 67.6613 203.748 68.1147 203.695 68.616C203.652 69.1173 203.615 69.6187 203.583 70.12C203.551 70.6213 203.535 71.0747 203.535 71.48C203.535 71.8107 203.556 72.136 203.599 72.456C203.652 72.7653 203.759 73.0213 203.919 73.224C204.079 73.416 204.324 73.512 204.655 73.512H204.879L204.479 76.296C203.775 76.296 203.194 76.1733 202.735 75.928C202.276 75.6933 201.908 75.3733 201.631 74.968C201.172 75.48 200.65 75.8213 200.063 75.992C199.476 76.1733 198.868 76.264 198.239 76.264ZM196.575 71.96C196.628 72.472 196.836 72.8827 197.199 73.192C197.572 73.4907 198.042 73.64 198.607 73.64C199.151 73.64 199.604 73.496 199.967 73.208C200.33 72.9093 200.628 72.504 200.863 71.992C200.852 71.8213 200.847 71.6453 200.847 71.464C200.847 71.0907 200.858 70.7067 200.879 70.312C200.9 69.9173 200.927 69.528 200.959 69.144C200.511 68.9733 200.042 68.888 199.551 68.888C198.975 68.888 198.458 69.0053 197.999 69.24C197.551 69.464 197.199 69.7787 196.943 70.184C196.687 70.5893 196.559 71.0587 196.559 71.592C196.559 71.656 196.559 71.72 196.559 71.784C196.559 71.848 196.564 71.9067 196.575 71.96ZM209.472 76.248C209.514 75.3627 209.546 74.4773 209.568 73.592C209.589 72.7067 209.6 71.832 209.6 70.968C209.589 70.1787 209.573 69.4 209.552 68.632C209.541 67.8533 209.514 67.1013 209.472 66.376L212.16 66.296C212.17 66.6907 212.186 67.096 212.208 67.512C212.549 67.0853 212.944 66.744 213.392 66.488C213.85 66.2213 214.373 66.088 214.96 66.088C215.184 66.088 215.472 66.12 215.824 66.184C216.176 66.248 216.533 66.3707 216.896 66.552L216.592 69.256C216.325 69.096 216.037 68.984 215.728 68.92C215.429 68.8453 215.178 68.808 214.976 68.808C214.293 68.808 213.712 69.1173 213.232 69.736C212.762 70.344 212.442 71.192 212.272 72.28C212.272 73.0267 212.261 73.7413 212.24 74.424C212.229 75.096 212.202 75.704 212.16 76.248H209.472ZM222.383 76.28C221.359 76.28 220.458 76.0773 219.679 75.672C218.911 75.2773 218.309 74.7227 217.871 74.008C217.445 73.2933 217.231 72.4667 217.231 71.528C217.231 70.9627 217.327 70.3707 217.519 69.752C217.711 69.1227 218.021 68.536 218.447 67.992C218.874 67.448 219.434 67.0053 220.127 66.664C220.831 66.3227 221.685 66.152 222.687 66.152C223.413 66.152 224.021 66.232 224.511 66.392C225.013 66.552 225.418 66.76 225.727 67.016C226.047 67.272 226.287 67.544 226.447 67.832C226.618 68.12 226.73 68.3973 226.783 68.664C226.847 68.92 226.879 69.1333 226.879 69.304C226.879 70.3387 226.442 71.1387 225.567 71.704C224.703 72.2587 223.477 72.536 221.887 72.536C221.525 72.536 221.178 72.52 220.847 72.488C220.527 72.456 220.229 72.4187 219.951 72.376C220.154 72.9093 220.49 73.304 220.959 73.56C221.429 73.8053 221.914 73.928 222.415 73.928C223.141 73.928 223.781 73.8 224.335 73.544C224.89 73.2773 225.413 72.872 225.903 72.328L227.327 74.376C226.986 74.6533 226.602 74.9413 226.175 75.24C225.759 75.5387 225.247 75.784 224.639 75.976C224.031 76.1787 223.279 76.28 222.383 76.28ZM222.735 68.552C222.106 68.552 221.551 68.712 221.071 69.032C220.591 69.352 220.239 69.7733 220.015 70.296C220.282 70.3387 220.543 70.376 220.799 70.408C221.066 70.4293 221.327 70.44 221.583 70.44C221.818 70.44 222.085 70.4187 222.383 70.376C222.693 70.3333 222.991 70.2693 223.279 70.184C223.578 70.0987 223.823 69.992 224.015 69.864C224.207 69.7253 224.303 69.5653 224.303 69.384C224.303 69.2987 224.261 69.192 224.175 69.064C224.09 68.936 223.935 68.8187 223.711 68.712C223.487 68.6053 223.162 68.552 222.735 68.552ZM231.687 76.264C231.1 76.264 230.615 76.136 230.231 75.88C229.857 75.6347 229.559 75.2933 229.335 74.856C229.121 74.4187 228.961 73.9173 228.855 73.352C228.759 72.7867 228.695 72.184 228.663 71.544C228.641 70.8933 228.631 70.2427 228.631 69.592C228.631 69.0267 228.647 68.408 228.679 67.736C228.711 67.0533 228.748 66.3653 228.791 65.672C228.844 64.968 228.897 64.3067 228.951 63.688C229.015 63.0693 229.073 62.5307 229.127 62.072L232.023 62.104C231.937 62.648 231.857 63.2667 231.783 63.96C231.708 64.6427 231.644 65.336 231.591 66.04C231.548 66.744 231.511 67.3947 231.479 67.992C231.457 68.5893 231.447 69.064 231.447 69.416C231.447 70.3867 231.463 71.1493 231.495 71.704C231.537 72.2587 231.596 72.6533 231.671 72.888C231.756 73.112 231.868 73.224 232.007 73.224C232.188 73.224 232.385 73.112 232.599 72.888C232.812 72.6533 233.02 72.392 233.223 72.104L234.583 74.808C234.252 75.1707 233.857 75.5013 233.399 75.8C232.94 76.1093 232.369 76.264 231.687 76.264ZM239.973 76.264C239.173 76.264 238.448 76.056 237.797 75.64C237.147 75.2347 236.629 74.6853 236.245 73.992C235.872 73.288 235.685 72.504 235.685 71.64C235.685 70.8293 235.835 70.0987 236.133 69.448C236.432 68.7867 236.837 68.2213 237.349 67.752C237.872 67.2827 238.464 66.9253 239.125 66.68C239.787 66.424 240.48 66.296 241.205 66.296C241.813 66.296 242.411 66.3813 242.997 66.552C243.04 66.328 243.077 66.104 243.109 65.88L245.845 66.344C245.771 66.5467 245.696 66.8507 245.621 67.256C245.547 67.6613 245.483 68.1147 245.429 68.616C245.387 69.1173 245.349 69.6187 245.317 70.12C245.285 70.6213 245.269 71.0747 245.269 71.48C245.269 71.8107 245.291 72.136 245.333 72.456C245.387 72.7653 245.493 73.0213 245.653 73.224C245.813 73.416 246.059 73.512 246.389 73.512H246.613L246.213 76.296C245.509 76.296 244.928 76.1733 244.469 75.928C244.011 75.6933 243.643 75.3733 243.365 74.968C242.907 75.48 242.384 75.8213 241.797 75.992C241.211 76.1733 240.603 76.264 239.973 76.264ZM238.309 71.96C238.363 72.472 238.571 72.8827 238.933 73.192C239.307 73.4907 239.776 73.64 240.341 73.64C240.885 73.64 241.339 73.496 241.701 73.208C242.064 72.9093 242.363 72.504 242.597 71.992C242.587 71.8213 242.581 71.6453 242.581 71.464C242.581 71.0907 242.592 70.7067 242.613 70.312C242.635 69.9173 242.661 69.528 242.693 69.144C242.245 68.9733 241.776 68.888 241.285 68.888C240.709 68.888 240.192 69.0053 239.733 69.24C239.285 69.464 238.933 69.7787 238.677 70.184C238.421 70.5893 238.293 71.0587 238.293 71.592C238.293 71.656 238.293 71.72 238.293 71.784C238.293 71.848 238.299 71.9067 238.309 71.96ZM250.174 79.336L247.774 78.056C248.371 77.3947 248.952 76.712 249.518 76.008C250.083 75.3147 250.622 74.6 251.134 73.864C250.632 73.192 250.131 72.472 249.63 71.704C249.128 70.9253 248.664 70.1627 248.238 69.416C247.811 68.6693 247.464 68.0027 247.198 67.416L249.758 66.296C249.95 66.808 250.195 67.3627 250.494 67.96C250.803 68.5573 251.139 69.1653 251.502 69.784C251.875 70.4027 252.259 70.9947 252.654 71.56C253.806 69.6933 254.755 67.8533 255.502 66.04L258.158 67.096C257.678 68.0133 257.134 69 256.526 70.056C255.928 71.1013 255.283 72.168 254.59 73.256C253.907 74.3333 253.192 75.3893 252.446 76.424C251.699 77.4693 250.942 78.44 250.174 79.336ZM264.086 76.28C263.062 76.28 262.161 76.0773 261.382 75.672C260.614 75.2773 260.012 74.7227 259.574 74.008C259.148 73.2933 258.934 72.4667 258.934 71.528C258.934 70.9627 259.03 70.3707 259.222 69.752C259.414 69.1227 259.724 68.536 260.15 67.992C260.577 67.448 261.137 67.0053 261.83 66.664C262.534 66.3227 263.388 66.152 264.39 66.152C265.116 66.152 265.724 66.232 266.214 66.392C266.716 66.552 267.121 66.76 267.43 67.016C267.75 67.272 267.99 67.544 268.15 67.832C268.321 68.12 268.433 68.3973 268.486 68.664C268.55 68.92 268.582 69.1333 268.582 69.304C268.582 70.3387 268.145 71.1387 267.27 71.704C266.406 72.2587 265.18 72.536 263.59 72.536C263.228 72.536 262.881 72.52 262.55 72.488C262.23 72.456 261.932 72.4187 261.654 72.376C261.857 72.9093 262.193 73.304 262.662 73.56C263.132 73.8053 263.617 73.928 264.118 73.928C264.844 73.928 265.484 73.8 266.038 73.544C266.593 73.2773 267.116 72.872 267.606 72.328L269.03 74.376C268.689 74.6533 268.305 74.9413 267.878 75.24C267.462 75.5387 266.95 75.784 266.342 75.976C265.734 76.1787 264.982 76.28 264.086 76.28ZM264.438 68.552C263.809 68.552 263.254 68.712 262.774 69.032C262.294 69.352 261.942 69.7733 261.718 70.296C261.985 70.3387 262.246 70.376 262.502 70.408C262.769 70.4293 263.03 70.44 263.286 70.44C263.521 70.44 263.788 70.4187 264.086 70.376C264.396 70.3333 264.694 70.2693 264.982 70.184C265.281 70.0987 265.526 69.992 265.718 69.864C265.91 69.7253 266.006 69.5653 266.006 69.384C266.006 69.2987 265.964 69.192 265.878 69.064C265.793 68.936 265.638 68.8187 265.414 68.712C265.19 68.6053 264.865 68.552 264.438 68.552ZM262.646 64.952L261.814 63.752C262.06 63.5707 262.337 63.3627 262.646 63.128C262.956 62.8933 263.265 62.6533 263.574 62.408C263.884 62.152 264.166 61.9227 264.422 61.72C264.689 61.5067 264.897 61.336 265.046 61.208L266.374 62.76C266.214 62.8987 265.98 63.064 265.67 63.256C265.372 63.4373 265.036 63.6347 264.662 63.848C264.3 64.0613 263.942 64.264 263.59 64.456C263.238 64.6373 262.924 64.8027 262.646 64.952ZM277.478 76.312C276.796 76.312 276.23 76.1893 275.782 75.944C275.345 75.7093 274.993 75.384 274.726 74.968C274.47 74.552 274.278 74.088 274.15 73.576C274.033 73.0533 273.953 72.5147 273.91 71.96C273.878 71.3947 273.862 70.8507 273.862 70.328C273.862 69.7307 273.878 69.1227 273.91 68.504C273.953 67.8853 273.996 67.208 274.038 66.472L276.966 66.296C276.934 66.52 276.886 66.856 276.822 67.304C276.758 67.752 276.7 68.264 276.646 68.84C276.593 69.416 276.566 70.0187 276.566 70.648C276.566 71.6827 276.657 72.4507 276.838 72.952C277.02 73.4427 277.292 73.688 277.654 73.688C278.38 73.688 278.913 73.16 279.254 72.104C279.596 71.048 279.766 69.3787 279.766 67.096V66.36L281.126 66.328L282.774 66.296C282.625 67.2987 282.513 68.2213 282.438 69.064C282.364 69.9067 282.316 70.616 282.294 71.192C282.273 71.7573 282.262 72.136 282.262 72.328C282.262 72.8187 282.305 73.1707 282.39 73.384C282.476 73.5867 282.625 73.688 282.838 73.688C282.945 73.688 283.062 73.6667 283.19 73.624C283.318 73.5813 283.468 73.5067 283.638 73.4L283.526 76.152C283.121 76.216 282.769 76.248 282.47 76.248C281.958 76.248 281.537 76.152 281.206 75.96C280.886 75.768 280.63 75.512 280.438 75.192C280.108 75.544 279.697 75.816 279.206 76.008C278.726 76.2107 278.15 76.312 277.478 76.312ZM285.085 76.152C285.053 75.2133 285.027 74.344 285.005 73.544C284.995 72.744 284.989 71.9547 284.989 71.176C284.989 70.3973 284.995 69.6187 285.005 68.84C285.027 68.0507 285.059 67.208 285.101 66.312H287.805C287.763 66.792 287.725 67.2773 287.693 67.768C288.056 67.3093 288.488 66.9307 288.989 66.632C289.491 66.3227 290.083 66.168 290.765 66.168C291.437 66.168 291.987 66.28 292.413 66.504C292.851 66.728 293.192 67.0373 293.437 67.432C293.693 67.8267 293.875 68.28 293.981 68.792C294.099 69.2933 294.173 69.8373 294.205 70.424C294.237 71 294.253 71.5813 294.253 72.168C294.253 72.808 294.243 73.4213 294.221 74.008C294.2 74.5947 294.179 75.0853 294.157 75.48C294.136 75.8747 294.12 76.1093 294.109 76.184H291.421C291.443 75.7467 291.464 75.2827 291.485 74.792C291.507 74.2907 291.528 73.8 291.549 73.32C291.571 72.8293 291.581 72.3867 291.581 71.992C291.581 69.72 291.213 68.584 290.477 68.584C289.869 68.584 289.315 68.8507 288.813 69.384C288.323 69.9067 287.912 70.568 287.581 71.368C287.581 71.4747 287.581 71.5813 287.581 71.688C287.581 72.2 287.581 72.7333 287.581 73.288C287.592 73.832 287.603 74.3547 287.613 74.856C287.635 75.3467 287.651 75.7733 287.661 76.136L285.085 76.152ZM300.649 76.28C299.625 76.28 298.723 76.0773 297.945 75.672C297.177 75.2773 296.574 74.7227 296.137 74.008C295.71 73.2933 295.497 72.4667 295.497 71.528C295.497 70.9627 295.593 70.3707 295.785 69.752C295.977 69.1227 296.286 68.536 296.713 67.992C297.139 67.448 297.699 67.0053 298.393 66.664C299.097 66.3227 299.95 66.152 300.953 66.152C301.678 66.152 302.286 66.232 302.777 66.392C303.278 66.552 303.683 66.76 303.993 67.016C304.313 67.272 304.553 67.544 304.713 67.832C304.883 68.12 304.995 68.3973 305.049 68.664C305.113 68.92 305.145 69.1333 305.145 69.304C305.145 70.3387 304.707 71.1387 303.833 71.704C302.969 72.2587 301.742 72.536 300.153 72.536C299.79 72.536 299.443 72.52 299.113 72.488C298.793 72.456 298.494 72.4187 298.217 72.376C298.419 72.9093 298.755 73.304 299.225 73.56C299.694 73.8053 300.179 73.928 300.681 73.928C301.406 73.928 302.046 73.8 302.601 73.544C303.155 73.2773 303.678 72.872 304.169 72.328L305.593 74.376C305.251 74.6533 304.867 74.9413 304.441 75.24C304.025 75.5387 303.513 75.784 302.905 75.976C302.297 76.1787 301.545 76.28 300.649 76.28ZM301.001 68.552C300.371 68.552 299.817 68.712 299.337 69.032C298.857 69.352 298.505 69.7733 298.281 70.296C298.547 70.3387 298.809 70.376 299.065 70.408C299.331 70.4293 299.593 70.44 299.849 70.44C300.083 70.44 300.35 70.4187 300.649 70.376C300.958 70.3333 301.257 70.2693 301.545 70.184C301.843 70.0987 302.089 69.992 302.281 69.864C302.473 69.7253 302.569 69.5653 302.569 69.384C302.569 69.2987 302.526 69.192 302.441 69.064C302.355 68.936 302.201 68.8187 301.977 68.712C301.753 68.6053 301.427 68.552 301.001 68.552ZM312.745 76.152C312.734 75.5547 312.729 74.9467 312.729 74.328C312.729 73.6987 312.729 73.0907 312.729 72.504V68.712C312.281 68.744 311.849 68.792 311.433 68.856C311.027 68.92 310.649 69 310.297 69.096L309.961 66.536C310.345 66.4507 310.782 66.376 311.273 66.312C311.774 66.248 312.291 66.2 312.825 66.168C312.889 65.5813 312.995 65.0107 313.145 64.456C313.305 63.9013 313.529 63.4053 313.817 62.968C314.105 62.52 314.483 62.1627 314.953 61.896C315.422 61.6293 316.003 61.496 316.697 61.496C317.582 61.496 318.435 61.6773 319.257 62.04L318.713 64.584C318.009 64.264 317.427 64.104 316.969 64.104C316.478 64.104 316.137 64.28 315.945 64.632C315.753 64.9733 315.63 65.4587 315.577 66.088C316.153 66.0987 316.697 66.1253 317.209 66.168C317.731 66.2 318.185 66.2427 318.569 66.296L318.313 68.808C317.939 68.744 317.502 68.696 317.001 68.664C316.51 68.6213 315.993 68.6 315.449 68.6C315.427 69.144 315.411 69.6773 315.401 70.2C315.39 70.712 315.385 71.224 315.385 71.736C315.385 72.4187 315.39 73.1227 315.401 73.848C315.422 74.5627 315.443 75.3307 315.465 76.152H312.745ZM323.489 76.264C322.689 76.264 321.964 76.056 321.313 75.64C320.662 75.2347 320.145 74.6853 319.761 73.992C319.388 73.288 319.201 72.504 319.201 71.64C319.201 70.8293 319.35 70.0987 319.649 69.448C319.948 68.7867 320.353 68.2213 320.865 67.752C321.388 67.2827 321.98 66.9253 322.641 66.68C323.302 66.424 323.996 66.296 324.721 66.296C325.329 66.296 325.926 66.3813 326.513 66.552C326.556 66.328 326.593 66.104 326.625 65.88L329.361 66.344C329.286 66.5467 329.212 66.8507 329.137 67.256C329.062 67.6613 328.998 68.1147 328.945 68.616C328.902 69.1173 328.865 69.6187 328.833 70.12C328.801 70.6213 328.785 71.0747 328.785 71.48C328.785 71.8107 328.806 72.136 328.849 72.456C328.902 72.7653 329.009 73.0213 329.169 73.224C329.329 73.416 329.574 73.512 329.905 73.512H330.129L329.729 76.296C329.025 76.296 328.444 76.1733 327.985 75.928C327.526 75.6933 327.158 75.3733 326.881 74.968C326.422 75.48 325.9 75.8213 325.313 75.992C324.726 76.1733 324.118 76.264 323.489 76.264ZM321.825 71.96C321.878 72.472 322.086 72.8827 322.449 73.192C322.822 73.4907 323.292 73.64 323.857 73.64C324.401 73.64 324.854 73.496 325.217 73.208C325.58 72.9093 325.878 72.504 326.113 71.992C326.102 71.8213 326.097 71.6453 326.097 71.464C326.097 71.0907 326.108 70.7067 326.129 70.312C326.15 69.9173 326.177 69.528 326.209 69.144C325.761 68.9733 325.292 68.888 324.801 68.888C324.225 68.888 323.708 69.0053 323.249 69.24C322.801 69.464 322.449 69.7787 322.193 70.184C321.937 70.5893 321.809 71.0587 321.809 71.592C321.809 71.656 321.809 71.72 321.809 71.784C321.809 71.848 321.814 71.9067 321.825 71.96ZM331.241 76.168C331.199 75.656 331.161 75 331.129 74.2C331.108 73.4 331.097 72.5307 331.097 71.592C331.097 70.76 331.103 69.9013 331.113 69.016C331.135 68.1307 331.161 67.2613 331.193 66.408C331.236 65.544 331.279 64.7387 331.321 63.992C331.375 63.2347 331.433 62.5733 331.497 62.008L334.281 62.2C334.132 63.288 334.015 64.392 333.929 65.512C333.855 66.6213 333.807 67.752 333.785 68.904C334.383 68.488 335.076 68.0507 335.865 67.592C336.665 67.1227 337.625 66.5947 338.745 66.008L340.249 68.52C339.097 68.8827 338.079 69.2987 337.193 69.768C336.308 70.2267 335.583 70.6907 335.017 71.16C334.911 71.2347 334.841 71.288 334.809 71.32C334.777 71.352 334.761 71.3733 334.761 71.384C334.761 71.448 334.937 71.5653 335.289 71.736C335.759 71.9813 336.244 72.2213 336.745 72.456C337.247 72.6907 337.807 72.9307 338.425 73.176C339.044 73.4107 339.753 73.6613 340.553 73.928L339.449 76.296C338.479 76.008 337.508 75.6453 336.537 75.208C335.567 74.7707 334.687 74.328 333.897 73.88C333.908 74.2427 333.924 74.6107 333.945 74.984C333.977 75.3573 334.004 75.7307 334.025 76.104L331.241 76.168ZM346.055 76.28C345.031 76.28 344.13 76.0773 343.351 75.672C342.583 75.2773 341.98 74.7227 341.543 74.008C341.116 73.2933 340.903 72.4667 340.903 71.528C340.903 70.9627 340.999 70.3707 341.191 69.752C341.383 69.1227 341.692 68.536 342.119 67.992C342.546 67.448 343.106 67.0053 343.799 66.664C344.503 66.3227 345.356 66.152 346.359 66.152C347.084 66.152 347.692 66.232 348.183 66.392C348.684 66.552 349.09 66.76 349.399 67.016C349.719 67.272 349.959 67.544 350.119 67.832C350.29 68.12 350.402 68.3973 350.455 68.664C350.519 68.92 350.551 69.1333 350.551 69.304C350.551 70.3387 350.114 71.1387 349.239 71.704C348.375 72.2587 347.148 72.536 345.559 72.536C345.196 72.536 344.85 72.52 344.519 72.488C344.199 72.456 343.9 72.4187 343.623 72.376C343.826 72.9093 344.162 73.304 344.631 73.56C345.1 73.8053 345.586 73.928 346.087 73.928C346.812 73.928 347.452 73.8 348.007 73.544C348.562 73.2773 349.084 72.872 349.575 72.328L350.999 74.376C350.658 74.6533 350.274 74.9413 349.847 75.24C349.431 75.5387 348.919 75.784 348.311 75.976C347.703 76.1787 346.951 76.28 346.055 76.28ZM346.407 68.552C345.778 68.552 345.223 68.712 344.743 69.032C344.263 69.352 343.911 69.7733 343.687 70.296C343.954 70.3387 344.215 70.376 344.471 70.408C344.738 70.4293 344.999 70.44 345.255 70.44C345.49 70.44 345.756 70.4187 346.055 70.376C346.364 70.3333 346.663 70.2693 346.951 70.184C347.25 70.0987 347.495 69.992 347.687 69.864C347.879 69.7253 347.975 69.5653 347.975 69.384C347.975 69.2987 347.932 69.192 347.847 69.064C347.762 68.936 347.607 68.8187 347.383 68.712C347.159 68.6053 346.834 68.552 346.407 68.552ZM113.523 99.152C113.491 98.2133 113.464 97.344 113.443 96.544C113.432 95.744 113.427 94.9547 113.427 94.176C113.427 93.3973 113.432 92.6187 113.443 91.84C113.464 91.0507 113.496 90.208 113.539 89.312H116.243C116.2 89.792 116.163 90.2773 116.131 90.768C116.494 90.3093 116.926 89.9307 117.427 89.632C117.928 89.3227 118.52 89.168 119.203 89.168C119.875 89.168 120.424 89.28 120.851 89.504C121.288 89.728 121.63 90.0373 121.875 90.432C122.131 90.8267 122.312 91.28 122.419 91.792C122.536 92.2933 122.611 92.8373 122.643 93.424C122.675 94 122.691 94.5813 122.691 95.168C122.691 95.808 122.68 96.4213 122.659 97.008C122.638 97.5947 122.616 98.0853 122.595 98.48C122.574 98.8747 122.558 99.1093 122.547 99.184H119.859C119.88 98.7467 119.902 98.2827 119.923 97.792C119.944 97.2907 119.966 96.8 119.987 96.32C120.008 95.8293 120.019 95.3867 120.019 94.992C120.019 92.72 119.651 91.584 118.915 91.584C118.307 91.584 117.752 91.8507 117.251 92.384C116.76 92.9067 116.35 93.568 116.019 94.368C116.019 94.4747 116.019 94.5813 116.019 94.688C116.019 95.2 116.019 95.7333 116.019 96.288C116.03 96.832 116.04 97.3547 116.051 97.856C116.072 98.3467 116.088 98.7733 116.099 99.136L113.523 99.152ZM129.086 99.28C128.062 99.28 127.161 99.0773 126.382 98.672C125.614 98.2773 125.012 97.7227 124.574 97.008C124.148 96.2933 123.934 95.4667 123.934 94.528C123.934 93.9627 124.03 93.3707 124.222 92.752C124.414 92.1227 124.724 91.536 125.15 90.992C125.577 90.448 126.137 90.0053 126.83 89.664C127.534 89.3227 128.388 89.152 129.39 89.152C130.116 89.152 130.724 89.232 131.214 89.392C131.716 89.552 132.121 89.76 132.43 90.016C132.75 90.272 132.99 90.544 133.15 90.832C133.321 91.12 133.433 91.3973 133.486 91.664C133.55 91.92 133.582 92.1333 133.582 92.304C133.582 93.3387 133.145 94.1387 132.27 94.704C131.406 95.2587 130.18 95.536 128.59 95.536C128.228 95.536 127.881 95.52 127.55 95.488C127.23 95.456 126.932 95.4187 126.654 95.376C126.857 95.9093 127.193 96.304 127.662 96.56C128.132 96.8053 128.617 96.928 129.118 96.928C129.844 96.928 130.484 96.8 131.038 96.544C131.593 96.2773 132.116 95.872 132.606 95.328L134.03 97.376C133.689 97.6533 133.305 97.9413 132.878 98.24C132.462 98.5387 131.95 98.784 131.342 98.976C130.734 99.1787 129.982 99.28 129.086 99.28ZM129.438 91.552C128.809 91.552 128.254 91.712 127.774 92.032C127.294 92.352 126.942 92.7733 126.718 93.296C126.985 93.3387 127.246 93.376 127.502 93.408C127.769 93.4293 128.03 93.44 128.286 93.44C128.521 93.44 128.788 93.4187 129.086 93.376C129.396 93.3333 129.694 93.2693 129.982 93.184C130.281 93.0987 130.526 92.992 130.718 92.864C130.91 92.7253 131.006 92.5653 131.006 92.384C131.006 92.2987 130.964 92.192 130.878 92.064C130.793 91.936 130.638 91.8187 130.414 91.712C130.19 91.6053 129.865 91.552 129.438 91.552ZM138.822 99.312C137.937 99.312 137.185 98.624 136.566 97.248C136.353 96.7573 136.166 96.2187 136.006 95.632C135.846 95.0453 135.707 94.448 135.59 93.84C135.483 93.232 135.393 92.6507 135.318 92.096C135.254 91.5307 135.201 91.0347 135.158 90.608C135.126 90.1707 135.099 89.84 135.078 89.616L137.702 89.008C137.83 91.4293 138.022 93.2693 138.278 94.528C138.545 95.7867 138.747 96.416 138.886 96.416C138.961 96.416 139.051 96.2667 139.158 95.968C139.275 95.6693 139.403 95.2747 139.542 94.784C139.681 94.2827 139.814 93.7333 139.942 93.136C140.07 92.5387 140.182 91.936 140.278 91.328C140.15 90.5493 140.065 89.9307 140.022 89.472L142.726 89.376V89.568C142.726 90.0053 142.758 90.5173 142.822 91.104C142.886 91.6907 142.966 92.2987 143.062 92.928C143.158 93.5467 143.259 94.1227 143.366 94.656C143.483 95.1893 143.595 95.6213 143.702 95.952C143.809 96.2827 143.899 96.448 143.974 96.448C144.038 96.448 144.129 96.304 144.246 96.016C144.363 95.728 144.491 95.3333 144.63 94.832C144.779 94.3307 144.929 93.76 145.078 93.12C145.227 92.4693 145.371 91.7867 145.51 91.072C145.649 90.3467 145.761 89.6267 145.846 88.912L148.486 89.472C148.305 90.4853 148.086 91.4933 147.83 92.496C147.585 93.488 147.323 94.4107 147.046 95.264C146.769 96.1067 146.497 96.816 146.23 97.392C145.633 98.6613 144.891 99.296 144.006 99.296C143.718 99.296 143.387 99.2053 143.014 99.024C142.651 98.8533 142.315 98.4907 142.006 97.936C141.899 97.7333 141.793 97.488 141.686 97.2C141.579 96.912 141.478 96.592 141.382 96.24C141.254 96.6347 141.126 96.9867 140.998 97.296C140.433 98.64 139.707 99.312 138.822 99.312ZM154.521 99.328C153.795 99.328 153.123 99.2427 152.505 99.072C151.886 98.9013 151.326 98.6827 150.825 98.416C150.323 98.1493 149.875 97.8667 149.481 97.568L150.921 95.248C151.369 95.664 151.801 95.984 152.217 96.208C152.633 96.432 153.065 96.5867 153.513 96.672C153.971 96.7573 154.467 96.8 155.001 96.8C155.459 96.8 155.827 96.7413 156.105 96.624C156.382 96.496 156.521 96.336 156.521 96.144C156.521 95.984 156.387 95.8613 156.121 95.776C155.854 95.68 155.513 95.6 155.097 95.536C154.681 95.4613 154.243 95.3707 153.785 95.264C153.134 95.0933 152.526 94.896 151.961 94.672C151.395 94.448 150.937 94.144 150.585 93.76C150.243 93.376 150.073 92.864 150.073 92.224C150.073 91.712 150.195 91.264 150.441 90.88C150.686 90.4853 151.011 90.16 151.417 89.904C151.833 89.6373 152.302 89.44 152.825 89.312C153.347 89.184 153.886 89.12 154.441 89.12C155.401 89.12 156.227 89.2373 156.921 89.472C157.625 89.696 158.297 89.9947 158.937 90.368L157.481 92.576C157.161 92.352 156.793 92.16 156.377 92C155.971 91.8293 155.561 91.7013 155.145 91.616C154.739 91.52 154.361 91.472 154.009 91.472C153.625 91.472 153.321 91.5307 153.097 91.648C152.883 91.7653 152.777 91.9307 152.777 92.144C152.777 92.272 152.91 92.3947 153.177 92.512C153.454 92.6187 153.977 92.7627 154.745 92.944C155.203 93.0507 155.689 93.1627 156.201 93.28C156.713 93.3867 157.193 93.5413 157.641 93.744C158.099 93.936 158.467 94.2187 158.745 94.592C159.033 94.9547 159.177 95.44 159.177 96.048C159.177 97.072 158.766 97.872 157.945 98.448C157.123 99.0347 155.982 99.328 154.521 99.328Z" fill="white"/>
</svg>
