<svg width="103" height="103" viewBox="0 0 103 103" fill="none" xmlns="http://www.w3.org/2000/svg">
<path d="M51.7064 102.413C79.7107 102.413 102.413 79.7107 102.413 51.7063C102.413 23.702 79.7107 1 51.7064 1C23.702 1 1 23.702 1 51.7063C1 79.7107 23.702 102.413 51.7064 102.413Z" fill="#F187FF" stroke="black" stroke-miterlimit="10"/>
<path d="M29.8653 66.9476C29.422 67.181 28.8036 67.286 28.0103 67.2626C27.2403 67.2626 26.4353 67.146 25.5953 66.9126C25.4553 66.866 25.1053 66.761 24.5453 66.5976C24.0086 66.4343 23.3786 66.2476 22.6553 66.0376C21.9553 65.8276 21.267 65.6176 20.5903 65.4076C19.937 65.1743 19.412 64.9876 19.0153 64.8476C17.8953 64.4276 17.0553 64.0426 16.4953 63.6926C15.9586 63.3426 15.6086 62.9926 15.4453 62.6426C15.3053 62.2693 15.2353 61.861 15.2353 61.4176C15.2586 61.021 15.3753 60.6126 15.5853 60.1926C15.8186 59.7493 16.227 59.166 16.8103 58.4426C16.9503 58.256 17.2186 57.9526 17.6153 57.5326C18.012 57.1126 18.4436 56.6459 18.9103 56.1326C19.4003 55.596 19.867 55.071 20.3103 54.5576C20.7536 54.0209 21.092 53.5659 21.3253 53.1926C21.582 52.8193 21.897 52.3759 22.2703 51.8626C22.6436 51.3493 22.9936 50.8126 23.3203 50.2526C23.647 49.6926 23.8803 49.1443 24.0203 48.6076C24.1603 48.0709 24.1253 47.5926 23.9153 47.1726C23.752 46.8459 23.367 46.6943 22.7603 46.7176C22.1536 46.7176 21.5586 46.916 20.9753 47.3126C20.4153 47.6859 19.937 48.0009 19.5403 48.2576C19.1436 48.4909 18.6303 48.6309 18.0003 48.6776C17.2303 48.7476 16.507 48.6659 15.8303 48.4326C15.177 48.1759 14.6403 47.931 14.2203 47.6976C14.5936 46.2276 15.142 45.0376 15.8653 44.1276C16.612 43.2176 17.4403 42.5176 18.3503 42.0276C19.2603 41.5376 20.147 41.2226 21.0103 41.0826C22.6903 40.7793 24.2303 40.8493 25.6303 41.2926C27.0303 41.7359 28.1036 42.2959 28.8503 42.9726C29.6203 43.6959 30.2153 44.5593 30.6353 45.5626C31.0786 46.5426 31.2653 47.5226 31.1953 48.5026C31.102 49.506 30.7403 50.5909 30.1103 51.7576C29.5036 52.901 28.6986 54.126 27.6953 55.4326C27.5786 55.5726 27.392 55.8176 27.1353 56.1676C26.8786 56.4943 26.5986 56.8559 26.2953 57.2526C26.0153 57.6493 25.7586 58.0226 25.5253 58.3726C25.292 58.6993 25.1403 58.921 25.0703 59.0376C24.557 59.9943 24.6853 60.636 25.4553 60.9626C25.6653 61.0326 26.0036 61.126 26.4703 61.2426C26.937 61.3593 27.4503 61.476 28.0103 61.5926C28.5703 61.686 29.107 61.7793 29.6203 61.8726C30.157 61.9426 30.5886 61.9893 30.9153 62.0126C31.312 62.036 31.6386 62.246 31.8953 62.6426C32.152 63.0393 32.257 63.4476 32.2103 63.8676C32.187 64.2876 31.9886 64.8126 31.6153 65.4426C31.242 66.0726 30.6586 66.5743 29.8653 66.9476ZM50.6466 66.9476C50.2032 67.181 49.5849 67.286 48.7916 67.2626C48.0216 67.2626 47.2166 67.146 46.3766 66.9126C46.2366 66.866 45.8866 66.761 45.3266 66.5976C44.7899 66.4343 44.1599 66.2476 43.4366 66.0376C42.7366 65.8276 42.0482 65.6176 41.3716 65.4076C40.7182 65.1743 40.1932 64.9876 39.7966 64.8476C38.6766 64.4276 37.8366 64.0426 37.2766 63.6926C36.7399 63.3426 36.3899 62.9926 36.2266 62.6426C36.0866 62.2693 36.0166 61.861 36.0166 61.4176C36.0399 61.021 36.1566 60.6126 36.3666 60.1926C36.5999 59.7493 37.0082 59.166 37.5916 58.4426C37.7316 58.256 37.9999 57.9526 38.3966 57.5326C38.7932 57.1126 39.2249 56.6459 39.6916 56.1326C40.1816 55.596 40.6482 55.071 41.0916 54.5576C41.5349 54.0209 41.8732 53.5659 42.1066 53.1926C42.3632 52.8193 42.6782 52.3759 43.0516 51.8626C43.4249 51.3493 43.7749 50.8126 44.1016 50.2526C44.4282 49.6926 44.6616 49.1443 44.8016 48.6076C44.9416 48.0709 44.9066 47.5926 44.6966 47.1726C44.5332 46.8459 44.1482 46.6943 43.5416 46.7176C42.9349 46.7176 42.3399 46.916 41.7566 47.3126C41.1966 47.6859 40.7182 48.0009 40.3216 48.2576C39.9249 48.4909 39.4116 48.6309 38.7816 48.6776C38.0116 48.7476 37.2882 48.6659 36.6116 48.4326C35.9582 48.1759 35.4216 47.931 35.0016 47.6976C35.3749 46.2276 35.9232 45.0376 36.6466 44.1276C37.3932 43.2176 38.2216 42.5176 39.1316 42.0276C40.0416 41.5376 40.9282 41.2226 41.7916 41.0826C43.4716 40.7793 45.0116 40.8493 46.4116 41.2926C47.8116 41.7359 48.8849 42.2959 49.6316 42.9726C50.4016 43.6959 50.9966 44.5593 51.4166 45.5626C51.8599 46.5426 52.0466 47.5226 51.9766 48.5026C51.8832 49.506 51.5216 50.5909 50.8916 51.7576C50.2849 52.901 49.4799 54.126 48.4766 55.4326C48.3599 55.5726 48.1732 55.8176 47.9166 56.1676C47.6599 56.4943 47.3799 56.8559 47.0766 57.2526C46.7966 57.6493 46.5399 58.0226 46.3066 58.3726C46.0732 58.6993 45.9216 58.921 45.8516 59.0376C45.3382 59.9943 45.4666 60.636 46.2366 60.9626C46.4466 61.0326 46.7849 61.126 47.2516 61.2426C47.7182 61.3593 48.2316 61.476 48.7916 61.5926C49.3516 61.686 49.8882 61.7793 50.4016 61.8726C50.9382 61.9426 51.3699 61.9893 51.6966 62.0126C52.0932 62.036 52.4199 62.246 52.6766 62.6426C52.9332 63.0393 53.0382 63.4476 52.9916 63.8676C52.9682 64.2876 52.7699 64.8126 52.3966 65.4426C52.0232 66.0726 51.4399 66.5743 50.6466 66.9476ZM83.8178 42.1326C83.7945 42.4359 83.4795 43.0193 82.8728 43.8826C82.2895 44.7226 81.5078 45.7493 80.5278 46.9626C79.5711 48.1526 78.5211 49.4359 77.3778 50.8126C76.2345 52.1893 75.0795 53.5543 73.9128 54.9076C72.7695 56.261 71.6961 57.5093 70.6928 58.6526C69.7128 59.796 68.8961 60.7526 68.2428 61.5226C67.6128 62.2693 67.2395 62.7243 67.1228 62.8876C66.6795 63.5876 66.4228 63.996 66.3528 64.1126C66.2828 64.2293 66.2478 64.2876 66.2478 64.2876C66.2711 64.941 66.1078 65.6293 65.7578 66.3526C65.4311 67.076 65.0228 67.601 64.5328 67.9276C64.5328 67.9276 64.4628 67.916 64.3228 67.8926C64.2061 67.8926 63.7745 67.881 63.0278 67.8576C62.5611 67.8343 62.0828 67.6943 61.5928 67.4376C61.1028 67.2043 60.7178 66.8426 60.4378 66.3526C60.1578 65.8626 60.1111 65.2443 60.2978 64.4976C60.3678 64.171 60.7178 63.5293 61.3478 62.5726C61.9778 61.616 62.7828 60.461 63.7628 59.1076C64.7428 57.7543 65.8278 56.3076 67.0178 54.7676C68.2078 53.2043 69.4095 51.6643 70.6228 50.1476C71.8595 48.6076 73.0145 47.1959 74.0878 45.9126C75.1845 44.6059 76.1295 43.5209 76.9228 42.6576C77.7161 41.7943 78.2645 41.2693 78.5678 41.0826C79.1045 40.7326 79.6878 40.4993 80.3178 40.3826C80.9478 40.2659 81.5311 40.2543 82.0678 40.3476C82.6278 40.4176 83.0711 40.6043 83.3978 40.9076C83.7478 41.2109 83.8878 41.6193 83.8178 42.1326ZM64.2178 54.5576C63.7745 54.6976 63.2028 54.7326 62.5028 54.6626C61.8261 54.5693 61.1028 54.3826 60.3328 54.1026C59.5628 53.7993 58.8395 53.4026 58.1628 52.9126C57.4861 52.3993 56.9261 51.7926 56.4828 51.0926C56.0395 50.3693 55.8061 49.5409 55.7828 48.6076C55.7595 47.4176 55.8878 46.2743 56.1678 45.1776C56.4478 44.0809 56.9961 43.1476 57.8128 42.3776C58.6295 41.6076 59.8311 41.1409 61.4178 40.9776C63.0278 40.7909 64.4395 40.9309 65.6528 41.3976C66.8661 41.8409 67.8111 42.5643 68.4878 43.5676C69.1645 44.5709 69.5028 45.8193 69.5028 47.3126C69.5028 48.8059 69.2111 50.0543 68.6278 51.0576C68.0678 52.0376 67.3795 52.8193 66.5628 53.4026C65.7461 53.9626 64.9645 54.3476 64.2178 54.5576ZM60.8928 47.8726C61.0795 48.1993 61.3828 48.4676 61.8028 48.6776C62.2461 48.8643 62.6778 48.9459 63.0978 48.9226C63.5178 48.8759 63.7745 48.6776 63.8678 48.3276C64.0078 47.791 63.9378 47.3243 63.6578 46.9276C63.3778 46.5076 62.8995 46.2743 62.2228 46.2276C61.7328 46.1809 61.3128 46.3209 60.9628 46.6476C60.6361 46.9509 60.6128 47.3593 60.8928 47.8726ZM81.4028 52.8426C82.4295 52.8659 83.3278 53.0993 84.0978 53.5426C84.8911 53.986 85.5445 54.5576 86.0578 55.2576C86.5945 55.9576 87.0028 56.716 87.2828 57.5326C87.5628 58.3493 87.7145 59.1426 87.7378 59.9126C87.7611 60.6826 87.5861 61.476 87.2128 62.2926C86.8628 63.086 86.3611 63.8326 85.7078 64.5326C85.0545 65.2326 84.2728 65.8043 83.3628 66.2476C82.4528 66.6676 81.4495 66.8776 80.3528 66.8776C79.2561 66.8776 78.2878 66.5976 77.4478 66.0376C76.6078 65.4543 75.9195 64.7193 75.3828 63.8326C74.8461 62.9226 74.4611 61.9776 74.2278 60.9976C74.0178 59.9943 73.9828 59.0726 74.1228 58.2326C74.2628 57.3926 74.5895 56.6343 75.1028 55.9576C75.6395 55.281 76.2811 54.7093 77.0278 54.2426C77.7745 53.776 78.5328 53.426 79.3028 53.1926C80.0728 52.936 80.7728 52.8193 81.4028 52.8426ZM81.7528 61.3126C82.2195 61.2426 82.5345 61.0443 82.6978 60.7176C82.8611 60.391 82.9195 60.0526 82.8728 59.7026C82.8261 59.3293 82.7095 59.0493 82.5228 58.8626C82.2428 58.5826 81.8811 58.3843 81.4378 58.2676C81.0178 58.1276 80.6561 58.081 80.3528 58.1276C80.0028 58.1743 79.7111 58.3376 79.4778 58.6176C79.2678 58.8743 79.1395 59.166 79.0928 59.4926C79.0695 59.796 79.1511 60.0526 79.3378 60.2626C79.6178 60.5893 79.9095 60.8693 80.2128 61.1026C80.5395 61.336 81.0528 61.406 81.7528 61.3126Z" fill="white"/>
</svg>
