<svg width="113" height="104" viewBox="0 0 113 104" fill="none" xmlns="http://www.w3.org/2000/svg">
<path d="M51.5231 102.765C79.697 102.765 102.536 79.9255 102.536 51.7516C102.536 23.5777 79.697 0.738281 51.5231 0.738281C23.3492 0.738281 0.509766 23.5777 0.509766 51.7516C0.509766 79.9255 23.3492 102.765 51.5231 102.765Z" fill="#FFD313" stroke="black" stroke-miterlimit="10"/>
<path d="M19.56 69.2945C19.2567 69.1778 18.965 69.0262 18.685 68.8395C18.4283 68.6528 18.2767 68.3962 18.23 68.0695C18.2067 67.7428 18.3 67.3578 18.51 66.9145C18.7433 66.4478 18.965 66.1095 19.175 65.8995C19.385 65.6662 19.735 65.2812 20.225 64.7445C20.7383 64.2078 21.1467 63.7178 21.45 63.2745C21.7767 62.8078 22.08 62.3528 22.36 61.9095C22.64 61.4662 22.7917 60.9528 22.815 60.3695C22.8617 59.7628 22.6633 59.3078 22.22 59.0045C21.7767 58.6778 21.3567 58.4212 20.96 58.2345C20.82 58.1878 20.4583 58.0362 19.875 57.7795C19.2917 57.4995 18.6383 57.2195 17.915 56.9395C17.5417 56.7762 17.1683 56.5312 16.795 56.2045C16.445 55.8778 16.2467 55.4462 16.2 54.9095C16.13 54.1862 16.2583 53.5912 16.585 53.1245C16.935 52.6578 17.3783 52.3078 17.915 52.0745C18.0083 52.0278 18.2533 51.9345 18.65 51.7945C19.07 51.6545 19.5483 51.5028 20.085 51.3395C20.6217 51.1528 21.1233 50.9662 21.59 50.7795C22.08 50.5695 22.4417 50.3945 22.675 50.2545C23.0017 50.0445 23.3167 49.8112 23.62 49.5545C23.9467 49.2745 24.18 48.9245 24.32 48.5045C24.46 48.0845 24.4483 47.5712 24.285 46.9645C24.1917 46.5912 23.865 46.3345 23.305 46.1945C22.7683 46.0545 22.2667 45.9728 21.8 45.9495C21.5667 45.9262 21.1583 45.9262 20.575 45.9495C20.015 45.9495 19.2567 46.0428 18.3 46.2295C17.9033 46.2995 17.3783 46.2645 16.725 46.1245C16.095 45.9845 15.465 45.7045 14.835 45.2845C14.2283 44.8645 13.75 44.2812 13.4 43.5345C14.1233 43.0678 14.765 42.6478 15.325 42.2745C15.885 41.8778 16.4683 41.5512 17.075 41.2945C17.6817 41.0145 18.3933 40.8162 19.21 40.6995C21.1467 40.4195 22.8267 40.4545 24.25 40.8045C25.6967 41.1312 26.8867 41.6328 27.82 42.3095C28.73 42.9395 29.3717 43.6278 29.745 44.3745C30.1183 45.1212 30.3167 45.8678 30.34 46.6145C30.41 47.8512 30.235 48.9362 29.815 49.8695C29.4183 50.8028 28.8467 51.6078 28.1 52.2845C27.96 52.4012 27.7733 52.5762 27.54 52.8095C27.3067 53.0428 27.0967 53.2645 26.91 53.4745C26.7467 53.6612 26.6417 53.8362 26.595 53.9995C26.5717 54.1628 26.5717 54.3495 26.595 54.5595C26.6417 54.9562 26.805 55.2945 27.085 55.5745C27.365 55.8312 27.68 56.0995 28.03 56.3795C28.38 56.6595 28.6833 57.0095 28.94 57.4295C29.1967 57.8495 29.3017 58.4095 29.255 59.1095C29.2317 60.0895 29.045 61.0578 28.695 62.0145C28.345 62.9712 27.9017 63.8812 27.365 64.7445C26.8517 65.5845 26.315 66.3545 25.755 67.0545C25.2183 67.7312 24.7167 68.2795 24.25 68.6995C23.9467 68.9795 23.375 69.2362 22.535 69.4695C21.7183 69.7262 20.7267 69.6678 19.56 69.2945ZM43.7609 67.6145C42.5942 67.6378 41.4159 67.4862 40.2259 67.1595C39.0359 66.8328 38.1025 66.4128 37.4259 65.8995C36.7725 65.4095 36.0725 64.6978 35.3259 63.7645C34.5792 62.8312 34.0192 61.5828 33.6459 60.0195C33.2492 58.3162 33.0859 56.7295 33.1559 55.2595C33.2492 53.7662 33.4709 52.4362 33.8209 51.2695C34.1709 50.0795 34.5559 49.0878 34.9759 48.2945C35.5825 47.1045 36.4109 45.9378 37.4609 44.7945C38.5342 43.6512 39.9459 42.7995 41.6959 42.2395C42.8159 41.8662 43.9242 41.7262 45.0209 41.8195C46.1409 41.9128 47.1209 42.1228 47.9609 42.4495C48.8242 42.7762 49.4192 43.1028 49.7459 43.4295C50.8425 44.4095 51.6592 45.6112 52.1959 47.0345C52.7559 48.4578 53.0825 49.9978 53.1759 51.6545C53.2692 53.3112 53.1525 55.0028 52.8259 56.7295C52.3125 59.4362 51.4492 61.6645 50.2359 63.4145C49.0225 65.1412 47.6459 66.3195 46.1059 66.9495C45.4525 67.2295 44.9975 67.4045 44.7409 67.4745C44.4842 67.5212 44.1575 67.5678 43.7609 67.6145ZM42.2209 60.6495C43.2475 60.7428 44.0875 60.5445 44.7409 60.0545C45.3942 59.5412 45.9192 58.8178 46.3159 57.8845C46.7125 56.9278 47.0392 55.8662 47.2959 54.6995C47.5525 53.5095 47.5992 52.3895 47.4359 51.3395C47.2725 50.2895 46.8759 49.4378 46.2459 48.7845C45.6392 48.1078 44.7759 47.7695 43.6559 47.7695C42.5592 47.7928 41.6842 48.2595 41.0309 49.1695C40.3775 50.0795 39.9109 51.4795 39.6309 53.3695C39.5375 54.0695 39.4792 54.8278 39.4559 55.6445C39.4559 56.4378 39.5375 57.2078 39.7009 57.9545C39.8642 58.7012 40.1442 59.3195 40.5409 59.8095C40.9609 60.2995 41.5209 60.5795 42.2209 60.6495ZM84.0571 43.3245C84.0337 43.6278 83.7187 44.2112 83.1121 45.0745C82.5287 45.9145 81.7471 46.9412 80.7671 48.1545C79.8104 49.3445 78.7604 50.6278 77.6171 52.0045C76.4737 53.3812 75.3187 54.7462 74.1521 56.0995C73.0087 57.4528 71.9354 58.7012 70.9321 59.8445C69.9521 60.9878 69.1354 61.9445 68.4821 62.7145C67.8521 63.4612 67.4787 63.9162 67.3621 64.0795C66.9187 64.7795 66.6621 65.1878 66.5921 65.3045C66.5221 65.4212 66.4871 65.4795 66.4871 65.4795C66.5104 66.1328 66.3471 66.8212 65.9971 67.5445C65.6704 68.2678 65.2621 68.7928 64.7721 69.1195C64.7721 69.1195 64.7021 69.1078 64.5621 69.0845C64.4454 69.0845 64.0137 69.0728 63.2671 69.0495C62.8004 69.0262 62.3221 68.8862 61.8321 68.6295C61.3421 68.3962 60.9571 68.0345 60.6771 67.5445C60.3971 67.0545 60.3504 66.4362 60.5371 65.6895C60.6071 65.3628 60.9571 64.7212 61.5871 63.7645C62.2171 62.8078 63.0221 61.6528 64.0021 60.2995C64.9821 58.9462 66.0671 57.4995 67.2571 55.9595C68.4471 54.3962 69.6487 52.8562 70.8621 51.3395C72.0987 49.7995 73.2537 48.3878 74.3271 47.1045C75.4237 45.7978 76.3687 44.7128 77.1621 43.8495C77.9554 42.9862 78.5037 42.4612 78.8071 42.2745C79.3437 41.9245 79.9271 41.6912 80.5571 41.5745C81.1871 41.4578 81.7704 41.4462 82.3071 41.5395C82.8671 41.6095 83.3104 41.7962 83.6371 42.0995C83.9871 42.4028 84.1271 42.8112 84.0571 43.3245ZM64.4571 55.7495C64.0137 55.8895 63.4421 55.9245 62.7421 55.8545C62.0654 55.7612 61.3421 55.5745 60.5721 55.2945C59.8021 54.9912 59.0787 54.5945 58.4021 54.1045C57.7254 53.5912 57.1654 52.9845 56.7221 52.2845C56.2787 51.5612 56.0454 50.7328 56.0221 49.7995C55.9987 48.6095 56.1271 47.4662 56.4071 46.3695C56.6871 45.2728 57.2354 44.3395 58.0521 43.5695C58.8687 42.7995 60.0704 42.3328 61.6571 42.1695C63.2671 41.9828 64.6787 42.1228 65.8921 42.5895C67.1054 43.0328 68.0504 43.7562 68.7271 44.7595C69.4037 45.7628 69.7421 47.0112 69.7421 48.5045C69.7421 49.9978 69.4504 51.2462 68.8671 52.2495C68.3071 53.2295 67.6187 54.0112 66.8021 54.5945C65.9854 55.1545 65.2037 55.5395 64.4571 55.7495ZM61.1321 49.0645C61.3187 49.3912 61.6221 49.6595 62.0421 49.8695C62.4854 50.0562 62.9171 50.1378 63.3371 50.1145C63.7571 50.0678 64.0137 49.8695 64.1071 49.5195C64.2471 48.9828 64.1771 48.5162 63.8971 48.1195C63.6171 47.6995 63.1387 47.4662 62.4621 47.4195C61.9721 47.3728 61.5521 47.5128 61.2021 47.8395C60.8754 48.1428 60.8521 48.5512 61.1321 49.0645ZM81.6421 54.0345C82.6687 54.0578 83.5671 54.2912 84.3371 54.7345C85.1304 55.1778 85.7837 55.7495 86.2971 56.4495C86.8337 57.1495 87.2421 57.9078 87.5221 58.7245C87.8021 59.5412 87.9537 60.3345 87.9771 61.1045C88.0004 61.8745 87.8254 62.6678 87.4521 63.4845C87.1021 64.2778 86.6004 65.0245 85.9471 65.7245C85.2937 66.4245 84.5121 66.9962 83.6021 67.4395C82.6921 67.8595 81.6887 68.0695 80.5921 68.0695C79.4954 68.0695 78.5271 67.7895 77.6871 67.2295C76.8471 66.6462 76.1587 65.9112 75.6221 65.0245C75.0854 64.1145 74.7004 63.1695 74.4671 62.1895C74.2571 61.1862 74.2221 60.2645 74.3621 59.4245C74.5021 58.5845 74.8287 57.8262 75.3421 57.1495C75.8787 56.4728 76.5204 55.9012 77.2671 55.4345C78.0137 54.9678 78.7721 54.6178 79.5421 54.3845C80.3121 54.1278 81.0121 54.0112 81.6421 54.0345ZM81.9921 62.5045C82.4587 62.4345 82.7737 62.2362 82.9371 61.9095C83.1004 61.5828 83.1587 61.2445 83.1121 60.8945C83.0654 60.5212 82.9487 60.2412 82.7621 60.0545C82.4821 59.7745 82.1204 59.5762 81.6771 59.4595C81.2571 59.3195 80.8954 59.2728 80.5921 59.3195C80.2421 59.3662 79.9504 59.5295 79.7171 59.8095C79.5071 60.0662 79.3787 60.3578 79.3321 60.6845C79.3087 60.9878 79.3904 61.2445 79.5771 61.4545C79.8571 61.7812 80.1487 62.0612 80.4521 62.2945C80.7787 62.5278 81.2921 62.5978 81.9921 62.5045Z" fill="white"/>
</svg>
