<svg width="414" height="153" viewBox="0 0 414 153" fill="none" xmlns="http://www.w3.org/2000/svg">
<path d="M76.3934 152.28C118.16 152.28 152.019 118.422 152.019 76.6546C152.019 34.8876 118.16 1.02881 76.3934 1.02881C34.6264 1.02881 0.767578 34.8876 0.767578 76.6546C0.767578 118.422 34.6264 152.28 76.3934 152.28Z" fill="#1EF99A" stroke="black" stroke-miterlimit="10"/>
<path d="M34.5569 99.56C34.3002 99.56 33.8786 99.5233 33.2919 99.45C32.7052 99.3767 32.1736 99.0833 31.6969 98.57C31.2569 98.0567 31.1286 97.1767 31.3119 95.93C31.3486 95.71 31.4952 95.16 31.7519 94.28C32.0086 93.4 32.3202 92.3917 32.6869 91.255C33.0536 90.1183 33.4019 89.055 33.7319 88.065C34.0986 87.075 34.3736 86.36 34.5569 85.92C34.7402 85.48 34.9786 84.875 35.2719 84.105C35.5652 83.2983 35.8586 82.455 36.1519 81.575C36.4452 80.695 36.7019 79.9067 36.9219 79.21C37.1786 78.4767 37.3436 77.9817 37.4169 77.725C37.7469 76.3317 37.8386 75.25 37.6919 74.48C37.5452 73.6733 37.3252 73.0317 37.0319 72.555C36.7019 72.115 36.3352 71.8583 35.9319 71.785C35.5652 71.675 35.2352 71.6017 34.9419 71.565C34.7586 71.5283 34.3186 71.4917 33.6219 71.455C32.9619 71.4183 32.3019 71.4 31.6419 71.4C30.9819 71.3633 30.5602 71.3633 30.3769 71.4C30.0102 71.4367 29.6436 71.5833 29.2769 71.84C28.9102 72.06 28.5802 72.4817 28.2869 73.105C28.1402 73.3617 27.8652 73.9117 27.4619 74.755C27.0586 75.5983 26.6552 76.5517 26.2519 77.615C25.8486 78.6783 25.5552 79.6683 25.3719 80.585C25.1886 81.5017 25.2252 82.125 25.4819 82.455C24.8586 83.445 23.9969 84.1783 22.8969 84.655C21.7969 85.1317 20.6602 85.2417 19.4869 84.985C18.7902 84.8383 18.1119 84.4717 17.4519 83.885C16.8286 83.2617 16.4252 82.6383 16.2419 82.015C16.0586 81.355 15.9486 80.64 15.9119 79.87C15.9119 79.0633 15.9486 78.3117 16.0219 77.615C16.1319 76.7717 16.2969 75.7817 16.5169 74.645C16.7369 73.5083 16.9936 72.39 17.2869 71.29C17.5802 70.1533 17.8369 69.145 18.0569 68.265C18.2769 67.385 18.4419 66.78 18.5519 66.45C18.6619 66.12 18.8269 65.6067 19.0469 64.91C19.2669 64.2133 19.4869 63.4617 19.7069 62.655C19.9636 61.8483 20.2019 61.1333 20.4219 60.51C20.6419 59.85 20.8069 59.4283 20.9169 59.245C21.1736 58.8417 21.4119 58.475 21.6319 58.145C21.8519 57.7783 22.2736 57.4667 22.8969 57.21C23.5202 56.9167 24.1436 56.8617 24.7669 57.045C25.4269 57.2283 26.1052 57.5217 26.8019 57.925C27.6086 58.4017 28.2869 58.915 28.8369 59.465C29.4236 60.015 29.9552 60.4917 30.4319 60.895C30.9086 61.2983 31.4219 61.5367 31.9719 61.61C34.0619 61.8667 36.0236 62.215 37.8569 62.655C39.7269 63.0583 41.3402 63.48 42.6969 63.92C44.0536 64.36 44.9886 64.745 45.5019 65.075C46.3086 65.5517 46.8952 66.1567 47.2619 66.89C47.6286 67.5867 47.8852 68.1733 48.0319 68.65C48.1786 69.1267 48.2702 69.7683 48.3069 70.575C48.3802 71.3817 48.3252 72.0783 48.1419 72.665C48.0319 72.9217 47.8486 73.4167 47.5919 74.15C47.3719 74.8467 47.0969 75.635 46.7669 76.515C46.4736 77.395 46.1619 78.2567 45.8319 79.1C45.5386 79.9067 45.2819 80.5483 45.0619 81.025C44.8419 81.5017 44.5486 82.1617 44.1819 83.005C43.8519 83.8117 43.5036 84.655 43.1369 85.535C42.8069 86.415 42.4952 87.2033 42.2019 87.9C41.9452 88.56 41.7619 89 41.6519 89.22C41.5786 89.44 41.4319 89.8433 41.2119 90.43C40.9919 90.98 40.7719 91.585 40.5519 92.245C40.3686 92.905 40.2402 93.5467 40.1669 94.17C40.1302 94.7567 40.2219 95.1967 40.4419 95.49C39.7086 97.1767 38.7736 98.2583 37.6369 98.735C36.5369 99.2117 35.5102 99.4867 34.5569 99.56ZM66.5089 101.43C65.8856 101.43 65.0239 101.393 63.9239 101.32C62.8606 101.283 61.6689 101.008 60.3489 100.495C59.0289 100.018 57.6539 99.1567 56.2239 97.91C55.5272 97.2867 54.9406 96.4617 54.4639 95.435C53.9872 94.4083 53.6022 93.3083 53.3089 92.135C53.0522 90.925 52.8872 89.7883 52.8139 88.725C52.7406 87.625 52.7222 86.7267 52.7589 86.03C52.8322 85.0767 52.9606 84.05 53.1439 82.95C53.3272 81.8133 53.5472 80.7317 53.8039 79.705C54.0606 78.6783 54.2989 77.835 54.5189 77.175C55.4356 74.7183 56.4439 72.5 57.5439 70.52C58.6806 68.5033 59.7622 66.78 60.7889 65.35C61.8156 63.92 62.6039 62.8383 63.1539 62.105C63.4106 61.8117 63.7589 61.4083 64.1989 60.895C64.6756 60.3817 65.1339 59.85 65.5739 59.3C66.0139 58.75 66.2889 58.2917 66.3989 57.925C67.6822 58.1817 68.8739 58.64 69.9739 59.3C71.1106 59.96 72.0089 60.675 72.6689 61.445C73.3656 62.1783 73.7139 62.8383 73.7139 63.425C73.7139 64.305 73.5489 64.9833 73.2189 65.46C72.8889 65.9367 72.5772 66.3767 72.2839 66.78C72.1006 67.0367 71.7706 67.385 71.2939 67.825C70.8539 68.2283 70.3956 68.65 69.9189 69.09C69.4789 69.4933 69.1489 69.86 68.9289 70.19C68.6356 70.6667 68.4156 71.0517 68.2689 71.345C68.1589 71.6017 68.1406 71.9317 68.2139 72.335C68.3239 72.665 68.7089 72.885 69.3689 72.995C70.0656 73.0683 70.5422 73.1233 70.7989 73.16C73.0722 73.4167 74.7589 73.875 75.8589 74.535C76.9956 75.195 77.8389 75.7817 78.3889 76.295C79.5622 77.3217 80.4239 78.2383 80.9739 79.045C81.5606 79.815 81.9456 80.6217 82.1289 81.465C82.4956 83.0783 82.5689 84.5633 82.3489 85.92C82.1289 87.24 81.7072 88.8167 81.0839 90.65C80.4972 92.2267 79.5989 93.7117 78.3889 95.105C77.2156 96.4983 75.8406 97.8367 74.2639 99.12C73.0539 100.073 71.7706 100.678 70.4139 100.935C69.0939 101.192 67.7922 101.357 66.5089 101.43ZM65.0789 91.31C66.1422 91.6033 67.1872 91.4383 68.2139 90.815C69.2772 90.1917 70.3222 89.3117 71.3489 88.175C72.1556 87.2217 72.7239 86.2317 73.0539 85.205C73.3839 84.1783 73.4939 83.4267 73.3839 82.95C73.2006 82.1433 72.7789 81.5017 72.1189 81.025C71.4956 80.5483 70.7989 80.2367 70.0289 80.09C69.2956 79.9433 68.6539 79.9983 68.1039 80.255C67.2972 80.6217 66.6006 81.025 66.0139 81.465C65.4272 81.905 64.8589 82.6017 64.3089 83.555C63.7589 84.545 63.4472 85.4617 63.3739 86.305C63.3006 87.1483 63.2822 87.8633 63.3189 88.45C63.3922 89.5133 63.6122 90.2283 63.9789 90.595C64.3456 90.9617 64.7122 91.2 65.0789 91.31ZM130.919 61.225C130.882 61.7017 130.387 62.6183 129.434 63.975C128.517 65.295 127.289 66.9083 125.749 68.815C124.246 70.685 122.596 72.7017 120.799 74.865C119.002 77.0283 117.187 79.1733 115.354 81.3C113.557 83.4267 111.871 85.3883 110.294 87.185C108.754 88.9817 107.471 90.485 106.444 91.695C105.454 92.8683 104.867 93.5833 104.684 93.84C103.987 94.94 103.584 95.5817 103.474 95.765C103.364 95.9483 103.309 96.04 103.309 96.04C103.346 97.0667 103.089 98.1483 102.539 99.285C102.026 100.422 101.384 101.247 100.614 101.76C100.614 101.76 100.504 101.742 100.284 101.705C100.101 101.705 99.4224 101.687 98.2491 101.65C97.5157 101.613 96.7641 101.393 95.9941 100.99C95.2241 100.623 94.6191 100.055 94.1791 99.285C93.7391 98.515 93.6657 97.5433 93.9591 96.37C94.0691 95.8567 94.6191 94.8483 95.6091 93.345C96.5991 91.8417 97.8641 90.0267 99.4041 87.9C100.944 85.7733 102.649 83.5 104.519 81.08C106.389 78.6233 108.277 76.2033 110.184 73.82C112.127 71.4 113.942 69.1817 115.629 67.165C117.352 65.1117 118.837 63.4067 120.084 62.05C121.331 60.6933 122.192 59.8683 122.669 59.575C123.512 59.025 124.429 58.6583 125.419 58.475C126.409 58.2917 127.326 58.2733 128.169 58.42C129.049 58.53 129.746 58.8233 130.259 59.3C130.809 59.7767 131.029 60.4183 130.919 61.225ZM100.119 80.75C99.4224 80.97 98.5241 81.025 97.4241 80.915C96.3607 80.7683 95.2241 80.475 94.0141 80.035C92.8041 79.5583 91.6674 78.935 90.6041 78.165C89.5407 77.3583 88.6607 76.405 87.9641 75.305C87.2674 74.1683 86.9007 72.8667 86.8641 71.4C86.8274 69.53 87.0291 67.7333 87.4691 66.01C87.9091 64.2867 88.7707 62.82 90.0541 61.61C91.3374 60.4 93.2257 59.6667 95.7191 59.41C98.2491 59.1167 100.467 59.3367 102.374 60.07C104.281 60.7667 105.766 61.9033 106.829 63.48C107.892 65.0567 108.424 67.0183 108.424 69.365C108.424 71.7117 107.966 73.6733 107.049 75.25C106.169 76.79 105.087 78.0183 103.804 78.935C102.521 79.815 101.292 80.42 100.119 80.75ZM94.8941 70.245C95.1874 70.7583 95.6641 71.18 96.3241 71.51C97.0207 71.8033 97.6991 71.9317 98.3591 71.895C99.0191 71.8217 99.4224 71.51 99.5691 70.96C99.7891 70.1167 99.6791 69.3833 99.2391 68.76C98.7991 68.1 98.0474 67.7333 96.9841 67.66C96.2141 67.5867 95.5541 67.8067 95.0041 68.32C94.4907 68.7967 94.4541 69.4383 94.8941 70.245ZM127.124 78.055C128.737 78.0917 130.149 78.4583 131.359 79.155C132.606 79.8517 133.632 80.75 134.439 81.85C135.282 82.95 135.924 84.1417 136.364 85.425C136.804 86.7083 137.042 87.955 137.079 89.165C137.116 90.375 136.841 91.6217 136.254 92.905C135.704 94.1517 134.916 95.325 133.889 96.425C132.862 97.525 131.634 98.4233 130.204 99.12C128.774 99.78 127.197 100.11 125.474 100.11C123.751 100.11 122.229 99.67 120.909 98.79C119.589 97.8733 118.507 96.7183 117.664 95.325C116.821 93.895 116.216 92.41 115.849 90.87C115.519 89.2933 115.464 87.845 115.684 86.525C115.904 85.205 116.417 84.0133 117.224 82.95C118.067 81.8867 119.076 80.9883 120.249 80.255C121.422 79.5217 122.614 78.9717 123.824 78.605C125.034 78.2017 126.134 78.0183 127.124 78.055ZM127.674 91.365C128.407 91.255 128.902 90.9433 129.159 90.43C129.416 89.9167 129.507 89.385 129.434 88.835C129.361 88.2483 129.177 87.8083 128.884 87.515C128.444 87.075 127.876 86.7633 127.179 86.58C126.519 86.36 125.951 86.2867 125.474 86.36C124.924 86.4333 124.466 86.69 124.099 87.13C123.769 87.5333 123.567 87.9917 123.494 88.505C123.457 88.9817 123.586 89.385 123.879 89.715C124.319 90.2283 124.777 90.6683 125.254 91.035C125.767 91.4017 126.574 91.5117 127.674 91.365Z" fill="white"/>
<path d="M177.427 76.432C176.872 76.432 176.328 76.336 175.795 76.144C175.272 75.952 174.798 75.6533 174.371 75.248C173.955 74.8533 173.624 74.3573 173.379 73.76C173.134 73.152 173.011 72.4426 173.011 71.632C173.011 70.7146 173.15 69.9253 173.427 69.264C173.715 68.592 174.094 68.0426 174.563 67.616C175.032 67.1786 175.555 66.8533 176.131 66.64C176.707 66.4266 177.283 66.32 177.859 66.32C178.2 66.32 178.526 66.3466 178.835 66.4C179.144 66.4426 179.432 66.5066 179.699 66.592C179.731 65.8133 179.768 65.0293 179.811 64.24C179.864 63.4506 179.923 62.672 179.987 61.904L182.675 62.08C182.59 62.9653 182.515 63.92 182.451 64.944C182.387 65.9573 182.339 66.992 182.307 68.048C182.286 69.104 182.275 70.1333 182.275 71.136C182.275 72.0746 182.286 72.9706 182.307 73.824C182.339 74.6666 182.376 75.4346 182.419 76.128L179.651 76.336C179.64 76.1333 179.635 75.936 179.635 75.744C179.326 75.9466 178.984 76.112 178.611 76.24C178.248 76.368 177.854 76.432 177.427 76.432ZM175.587 71.488C175.587 72.0426 175.694 72.48 175.907 72.8C176.12 73.1093 176.382 73.328 176.691 73.456C177 73.584 177.299 73.648 177.587 73.648C177.928 73.648 178.27 73.5733 178.611 73.424C178.952 73.2746 179.272 73.0133 179.571 72.64C179.571 72.512 179.571 72.3893 179.571 72.272C179.571 71.408 179.582 70.5226 179.603 69.616C179.102 69.1786 178.558 68.96 177.971 68.96C177.726 68.96 177.464 68.9973 177.187 69.072C176.91 69.1466 176.648 69.28 176.403 69.472C176.168 69.6533 175.971 69.9093 175.811 70.24C175.662 70.56 175.587 70.976 175.587 71.488ZM188.789 76.448C187.765 76.448 186.864 76.2453 186.085 75.84C185.317 75.4453 184.715 74.8906 184.277 74.176C183.851 73.4613 183.637 72.6346 183.637 71.696C183.637 71.1306 183.733 70.5386 183.925 69.92C184.117 69.2906 184.427 68.704 184.853 68.16C185.28 67.616 185.84 67.1733 186.533 66.832C187.237 66.4906 188.091 66.32 189.093 66.32C189.819 66.32 190.427 66.4 190.917 66.56C191.419 66.72 191.824 66.928 192.133 67.184C192.453 67.44 192.693 67.712 192.853 68C193.024 68.288 193.136 68.5653 193.189 68.832C193.253 69.088 193.285 69.3013 193.285 69.472C193.285 70.5066 192.848 71.3066 191.973 71.872C191.109 72.4266 189.883 72.704 188.293 72.704C187.931 72.704 187.584 72.688 187.253 72.656C186.933 72.624 186.635 72.5866 186.357 72.544C186.56 73.0773 186.896 73.472 187.365 73.728C187.835 73.9733 188.32 74.096 188.821 74.096C189.547 74.096 190.187 73.968 190.741 73.712C191.296 73.4453 191.819 73.04 192.309 72.496L193.733 74.544C193.392 74.8213 193.008 75.1093 192.581 75.408C192.165 75.7066 191.653 75.952 191.045 76.144C190.437 76.3466 189.685 76.448 188.789 76.448ZM189.141 68.72C188.512 68.72 187.957 68.88 187.477 69.2C186.997 69.52 186.645 69.9413 186.421 70.464C186.688 70.5066 186.949 70.544 187.205 70.576C187.472 70.5973 187.733 70.608 187.989 70.608C188.224 70.608 188.491 70.5866 188.789 70.544C189.099 70.5013 189.397 70.4373 189.685 70.352C189.984 70.2666 190.229 70.16 190.421 70.032C190.613 69.8933 190.709 69.7333 190.709 69.552C190.709 69.4666 190.667 69.36 190.581 69.232C190.496 69.104 190.341 68.9866 190.117 68.88C189.893 68.7733 189.568 68.72 189.141 68.72ZM199.677 76.496C198.952 76.496 198.28 76.4106 197.661 76.24C197.042 76.0693 196.482 75.8506 195.981 75.584C195.48 75.3173 195.032 75.0346 194.637 74.736L196.077 72.416C196.525 72.832 196.957 73.152 197.373 73.376C197.789 73.6 198.221 73.7546 198.669 73.84C199.128 73.9253 199.624 73.968 200.157 73.968C200.616 73.968 200.984 73.9093 201.261 73.792C201.538 73.664 201.677 73.504 201.677 73.312C201.677 73.152 201.544 73.0293 201.277 72.944C201.01 72.848 200.669 72.768 200.253 72.704C199.837 72.6293 199.4 72.5386 198.941 72.432C198.29 72.2613 197.682 72.064 197.117 71.84C196.552 71.616 196.093 71.312 195.741 70.928C195.4 70.544 195.229 70.032 195.229 69.392C195.229 68.88 195.352 68.432 195.597 68.048C195.842 67.6533 196.168 67.328 196.573 67.072C196.989 66.8053 197.458 66.608 197.981 66.48C198.504 66.352 199.042 66.288 199.597 66.288C200.557 66.288 201.384 66.4053 202.077 66.64C202.781 66.864 203.453 67.1626 204.093 67.536L202.637 69.744C202.317 69.52 201.949 69.328 201.533 69.168C201.128 68.9973 200.717 68.8693 200.301 68.784C199.896 68.688 199.517 68.64 199.165 68.64C198.781 68.64 198.477 68.6986 198.253 68.816C198.04 68.9333 197.933 69.0986 197.933 69.312C197.933 69.44 198.066 69.5626 198.333 69.68C198.61 69.7866 199.133 69.9306 199.901 70.112C200.36 70.2186 200.845 70.3306 201.357 70.448C201.869 70.5546 202.349 70.7093 202.797 70.912C203.256 71.104 203.624 71.3866 203.901 71.76C204.189 72.1226 204.333 72.608 204.333 73.216C204.333 74.24 203.922 75.04 203.101 75.616C202.28 76.2026 201.138 76.496 199.677 76.496ZM211.479 76.32C211.468 75.7226 211.463 75.1146 211.463 74.496C211.463 73.8666 211.463 73.2586 211.463 72.672V68.88C211.015 68.912 210.583 68.96 210.167 69.024C209.762 69.088 209.383 69.168 209.031 69.264L208.695 66.704C209.079 66.6186 209.516 66.544 210.007 66.48C210.508 66.416 211.026 66.368 211.559 66.336C211.623 65.7493 211.73 65.1786 211.879 64.624C212.039 64.0693 212.263 63.5733 212.551 63.136C212.839 62.688 213.218 62.3306 213.687 62.064C214.156 61.7973 214.738 61.664 215.431 61.664C216.316 61.664 217.17 61.8453 217.991 62.208L217.447 64.752C216.743 64.432 216.162 64.272 215.703 64.272C215.212 64.272 214.871 64.448 214.679 64.8C214.487 65.1413 214.364 65.6266 214.311 66.256C214.887 66.2666 215.431 66.2933 215.943 66.336C216.466 66.368 216.919 66.4106 217.303 66.464L217.047 68.976C216.674 68.912 216.236 68.864 215.735 68.832C215.244 68.7893 214.727 68.768 214.183 68.768C214.162 69.312 214.146 69.8453 214.135 70.368C214.124 70.88 214.119 71.392 214.119 71.904C214.119 72.5866 214.124 73.2906 214.135 74.016C214.156 74.7306 214.178 75.4986 214.199 76.32H211.479ZM218.143 76.416C218.186 75.5306 218.218 74.6453 218.239 73.76C218.261 72.8746 218.271 72 218.271 71.136C218.261 70.3466 218.245 69.568 218.223 68.8C218.213 68.0213 218.186 67.2693 218.143 66.544L220.831 66.464C220.842 66.8586 220.858 67.264 220.879 67.68C221.221 67.2533 221.615 66.912 222.063 66.656C222.522 66.3893 223.045 66.256 223.631 66.256C223.855 66.256 224.143 66.288 224.495 66.352C224.847 66.416 225.205 66.5386 225.567 66.72L225.263 69.424C224.997 69.264 224.709 69.152 224.399 69.088C224.101 69.0133 223.85 68.976 223.647 68.976C222.965 68.976 222.383 69.2853 221.903 69.904C221.434 70.512 221.114 71.36 220.943 72.448C220.943 73.1946 220.933 73.9093 220.911 74.592C220.901 75.264 220.874 75.872 220.831 76.416H218.143ZM230.239 76.432C229.439 76.432 228.714 76.224 228.063 75.808C227.412 75.4026 226.895 74.8533 226.511 74.16C226.138 73.456 225.951 72.672 225.951 71.808C225.951 70.9973 226.1 70.2666 226.399 69.616C226.698 68.9546 227.103 68.3893 227.615 67.92C228.138 67.4506 228.73 67.0933 229.391 66.848C230.052 66.592 230.746 66.464 231.471 66.464C232.079 66.464 232.676 66.5493 233.263 66.72C233.306 66.496 233.343 66.272 233.375 66.048L236.111 66.512C236.036 66.7146 235.962 67.0186 235.887 67.424C235.812 67.8293 235.748 68.2826 235.695 68.784C235.652 69.2853 235.615 69.7866 235.583 70.288C235.551 70.7893 235.535 71.2426 235.535 71.648C235.535 71.9786 235.556 72.304 235.599 72.624C235.652 72.9333 235.759 73.1893 235.919 73.392C236.079 73.584 236.324 73.68 236.655 73.68H236.879L236.479 76.464C235.775 76.464 235.194 76.3413 234.735 76.096C234.276 75.8613 233.908 75.5413 233.631 75.136C233.172 75.648 232.65 75.9893 232.063 76.16C231.476 76.3413 230.868 76.432 230.239 76.432ZM228.575 72.128C228.628 72.64 228.836 73.0506 229.199 73.36C229.572 73.6586 230.042 73.808 230.607 73.808C231.151 73.808 231.604 73.664 231.967 73.376C232.33 73.0773 232.628 72.672 232.863 72.16C232.852 71.9893 232.847 71.8133 232.847 71.632C232.847 71.2586 232.858 70.8746 232.879 70.48C232.9 70.0853 232.927 69.696 232.959 69.312C232.511 69.1413 232.042 69.056 231.551 69.056C230.975 69.056 230.458 69.1733 229.999 69.408C229.551 69.632 229.199 69.9466 228.943 70.352C228.687 70.7573 228.559 71.2266 228.559 71.76C228.559 71.824 228.559 71.888 228.559 71.952C228.559 72.016 228.564 72.0746 228.575 72.128ZM238.007 76.32C237.975 75.3813 237.949 74.512 237.927 73.712C237.917 72.912 237.911 72.1226 237.911 71.344C237.911 70.5653 237.917 69.7866 237.927 69.008C237.949 68.2186 237.981 67.376 238.023 66.48H240.727C240.685 66.96 240.647 67.4453 240.615 67.936C240.978 67.4773 241.41 67.0986 241.911 66.8C242.413 66.4906 243.005 66.336 243.687 66.336C244.359 66.336 244.909 66.448 245.335 66.672C245.773 66.896 246.114 67.2053 246.359 67.6C246.615 67.9946 246.797 68.448 246.903 68.96C247.021 69.4613 247.095 70.0053 247.127 70.592C247.159 71.168 247.175 71.7493 247.175 72.336C247.175 72.976 247.165 73.5893 247.143 74.176C247.122 74.7626 247.101 75.2533 247.079 75.648C247.058 76.0426 247.042 76.2773 247.031 76.352H244.343C244.365 75.9146 244.386 75.4506 244.407 74.96C244.429 74.4586 244.45 73.968 244.471 73.488C244.493 72.9973 244.503 72.5546 244.503 72.16C244.503 69.888 244.135 68.752 243.399 68.752C242.791 68.752 242.237 69.0186 241.735 69.552C241.245 70.0746 240.834 70.736 240.503 71.536C240.503 71.6426 240.503 71.7493 240.503 71.856C240.503 72.368 240.503 72.9013 240.503 73.456C240.514 74 240.525 74.5226 240.535 75.024C240.557 75.5146 240.573 75.9413 240.583 76.304L238.007 76.32ZM253.443 76.464C252.547 76.464 251.72 76.2773 250.963 75.904C250.205 75.5306 249.597 74.9973 249.139 74.304C248.68 73.6 248.451 72.7626 248.451 71.792C248.451 70.704 248.664 69.7493 249.091 68.928C249.517 68.1066 250.115 67.472 250.883 67.024C251.651 66.5653 252.547 66.336 253.571 66.336C254.552 66.336 255.384 66.5386 256.067 66.944C256.749 67.3386 257.357 67.968 257.891 68.832L255.667 70.368C255.368 69.888 255.064 69.5253 254.755 69.28C254.445 69.024 254.024 68.896 253.491 68.896C252.765 68.896 252.179 69.152 251.731 69.664C251.283 70.1653 251.059 70.8373 251.059 71.68C251.059 72.1706 251.176 72.5706 251.411 72.88C251.656 73.1893 251.955 73.4186 252.307 73.568C252.659 73.7173 252.989 73.792 253.299 73.792C253.619 73.792 253.928 73.7546 254.227 73.68C254.525 73.5946 254.808 73.4133 255.075 73.136C255.341 72.8586 255.581 72.4373 255.795 71.872L258.195 73.152C257.875 73.7386 257.517 74.2826 257.123 74.784C256.728 75.2853 256.237 75.6906 255.651 76C255.075 76.3093 254.339 76.464 253.443 76.464ZM252.371 75.392L253.827 75.728C253.784 75.8346 253.731 75.9733 253.667 76.144C253.613 76.3146 253.555 76.48 253.491 76.64C253.651 76.6186 253.821 76.608 254.003 76.608C254.312 76.608 254.627 76.6453 254.947 76.72C255.267 76.7946 255.539 76.928 255.763 77.12C255.987 77.3226 256.099 77.6053 256.099 77.968C256.099 78.3093 256.003 78.5866 255.811 78.8C255.629 79.024 255.389 79.1946 255.091 79.312C254.792 79.4293 254.461 79.5093 254.099 79.552C253.736 79.6053 253.384 79.632 253.043 79.632C252.776 79.632 252.531 79.6213 252.307 79.6C252.083 79.5786 251.88 79.5573 251.699 79.536L252.003 78.304C252.397 78.368 252.749 78.4 253.059 78.4C253.272 78.4 253.496 78.3733 253.731 78.32C253.965 78.2773 254.163 78.2186 254.323 78.144C254.493 78.08 254.579 78.0213 254.579 77.968C254.579 77.9253 254.525 77.888 254.419 77.856C254.312 77.8346 254.195 77.8133 254.067 77.792C253.939 77.7813 253.837 77.776 253.763 77.776C253.56 77.776 253.325 77.792 253.059 77.824C252.803 77.8666 252.541 77.9466 252.275 78.064L251.283 77.312C251.517 77.024 251.731 76.704 251.923 76.352C252.125 76 252.275 75.68 252.371 75.392ZM263.27 76.432C262.47 76.432 261.745 76.224 261.094 75.808C260.444 75.4026 259.926 74.8533 259.542 74.16C259.169 73.456 258.982 72.672 258.982 71.808C258.982 70.9973 259.132 70.2666 259.43 69.616C259.729 68.9546 260.134 68.3893 260.646 67.92C261.169 67.4506 261.761 67.0933 262.422 66.848C263.084 66.592 263.777 66.464 264.502 66.464C265.11 66.464 265.708 66.5493 266.294 66.72C266.337 66.496 266.374 66.272 266.406 66.048L269.142 66.512C269.068 66.7146 268.993 67.0186 268.918 67.424C268.844 67.8293 268.78 68.2826 268.726 68.784C268.684 69.2853 268.646 69.7866 268.614 70.288C268.582 70.7893 268.566 71.2426 268.566 71.648C268.566 71.9786 268.588 72.304 268.63 72.624C268.684 72.9333 268.79 73.1893 268.95 73.392C269.11 73.584 269.356 73.68 269.686 73.68H269.91L269.51 76.464C268.806 76.464 268.225 76.3413 267.766 76.096C267.308 75.8613 266.94 75.5413 266.662 75.136C266.204 75.648 265.681 75.9893 265.094 76.16C264.508 76.3413 263.9 76.432 263.27 76.432ZM261.606 72.128C261.66 72.64 261.868 73.0506 262.23 73.36C262.604 73.6586 263.073 73.808 263.638 73.808C264.182 73.808 264.636 73.664 264.998 73.376C265.361 73.0773 265.66 72.672 265.894 72.16C265.884 71.9893 265.878 71.8133 265.878 71.632C265.878 71.2586 265.889 70.8746 265.91 70.48C265.932 70.0853 265.958 69.696 265.99 69.312C265.542 69.1413 265.073 69.056 264.582 69.056C264.006 69.056 263.489 69.1733 263.03 69.408C262.582 69.632 262.23 69.9466 261.974 70.352C261.718 70.7573 261.59 71.2266 261.59 71.76C261.59 71.824 261.59 71.888 261.59 71.952C261.59 72.016 261.596 72.0746 261.606 72.128ZM270.863 64.832C270.863 64.736 270.857 64.64 270.847 64.544C270.847 64.4373 270.847 64.32 270.847 64.192C270.847 63.8506 270.857 63.488 270.879 63.104C270.9 62.72 270.921 62.3946 270.943 62.128L273.791 62.176C273.759 62.5386 273.721 62.9493 273.679 63.408C273.647 63.8666 273.625 64.3413 273.615 64.832H270.863ZM270.799 76.288C270.767 75.6266 270.745 74.9226 270.735 74.176C270.724 73.4186 270.719 72.6613 270.719 71.904C270.719 70.912 270.729 69.9466 270.751 69.008C270.772 68.0693 270.799 67.216 270.831 66.448L273.583 66.432C273.54 66.9226 273.513 67.5306 273.503 68.256C273.492 68.9706 273.487 69.7226 273.487 70.512C273.487 71.2906 273.492 72.0586 273.503 72.816C273.513 73.5733 273.524 74.2613 273.535 74.88C273.556 75.488 273.572 75.9573 273.583 76.288H270.799ZM279.833 76.496C279.108 76.496 278.436 76.4106 277.817 76.24C277.199 76.0693 276.639 75.8506 276.137 75.584C275.636 75.3173 275.188 75.0346 274.793 74.736L276.233 72.416C276.681 72.832 277.113 73.152 277.529 73.376C277.945 73.6 278.377 73.7546 278.825 73.84C279.284 73.9253 279.78 73.968 280.313 73.968C280.772 73.968 281.14 73.9093 281.417 73.792C281.695 73.664 281.833 73.504 281.833 73.312C281.833 73.152 281.7 73.0293 281.433 72.944C281.167 72.848 280.825 72.768 280.409 72.704C279.993 72.6293 279.556 72.5386 279.097 72.432C278.447 72.2613 277.839 72.064 277.273 71.84C276.708 71.616 276.249 71.312 275.897 70.928C275.556 70.544 275.385 70.032 275.385 69.392C275.385 68.88 275.508 68.432 275.753 68.048C275.999 67.6533 276.324 67.328 276.729 67.072C277.145 66.8053 277.615 66.608 278.137 66.48C278.66 66.352 279.199 66.288 279.753 66.288C280.713 66.288 281.54 66.4053 282.233 66.64C282.937 66.864 283.609 67.1626 284.249 67.536L282.793 69.744C282.473 69.52 282.105 69.328 281.689 69.168C281.284 68.9973 280.873 68.8693 280.457 68.784C280.052 68.688 279.673 68.64 279.321 68.64C278.937 68.64 278.633 68.6986 278.409 68.816C278.196 68.9333 278.089 69.0986 278.089 69.312C278.089 69.44 278.223 69.5626 278.489 69.68C278.767 69.7866 279.289 69.9306 280.057 70.112C280.516 70.2186 281.001 70.3306 281.513 70.448C282.025 70.5546 282.505 70.7093 282.953 70.912C283.412 71.104 283.78 71.3866 284.057 71.76C284.345 72.1226 284.489 72.608 284.489 73.216C284.489 74.24 284.079 75.04 283.257 75.616C282.436 76.2026 281.295 76.496 279.833 76.496ZM294.083 76.496C293.358 76.496 292.686 76.4106 292.067 76.24C291.449 76.0693 290.889 75.8506 290.387 75.584C289.886 75.3173 289.438 75.0346 289.043 74.736L290.483 72.416C290.931 72.832 291.363 73.152 291.779 73.376C292.195 73.6 292.627 73.7546 293.075 73.84C293.534 73.9253 294.03 73.968 294.563 73.968C295.022 73.968 295.39 73.9093 295.667 73.792C295.945 73.664 296.083 73.504 296.083 73.312C296.083 73.152 295.95 73.0293 295.683 72.944C295.417 72.848 295.075 72.768 294.659 72.704C294.243 72.6293 293.806 72.5386 293.347 72.432C292.697 72.2613 292.089 72.064 291.523 71.84C290.958 71.616 290.499 71.312 290.147 70.928C289.806 70.544 289.635 70.032 289.635 69.392C289.635 68.88 289.758 68.432 290.003 68.048C290.249 67.6533 290.574 67.328 290.979 67.072C291.395 66.8053 291.865 66.608 292.387 66.48C292.91 66.352 293.449 66.288 294.003 66.288C294.963 66.288 295.79 66.4053 296.483 66.64C297.187 66.864 297.859 67.1626 298.499 67.536L297.043 69.744C296.723 69.52 296.355 69.328 295.939 69.168C295.534 68.9973 295.123 68.8693 294.707 68.784C294.302 68.688 293.923 68.64 293.571 68.64C293.187 68.64 292.883 68.6986 292.659 68.816C292.446 68.9333 292.339 69.0986 292.339 69.312C292.339 69.44 292.473 69.5626 292.739 69.68C293.017 69.7866 293.539 69.9306 294.307 70.112C294.766 70.2186 295.251 70.3306 295.763 70.448C296.275 70.5546 296.755 70.7093 297.203 70.912C297.662 71.104 298.03 71.3866 298.307 71.76C298.595 72.1226 298.739 72.608 298.739 73.216C298.739 74.24 298.329 75.04 297.507 75.616C296.686 76.2026 295.545 76.496 294.083 76.496ZM304.725 76.48C303.872 76.48 303.125 76.3413 302.485 76.064C301.856 75.7866 301.333 75.408 300.917 74.928C300.501 74.4373 300.192 73.8773 299.989 73.248C299.786 72.6186 299.685 71.9573 299.685 71.264C299.685 70.56 299.808 69.9093 300.053 69.312C300.309 68.704 300.656 68.176 301.093 67.728C301.541 67.28 302.064 66.9333 302.661 66.688C303.258 66.432 303.909 66.304 304.613 66.304C305.349 66.304 306.032 66.432 306.661 66.688C307.29 66.944 307.84 67.3013 308.309 67.76C308.778 68.2186 309.141 68.7573 309.397 69.376C309.664 69.9946 309.797 70.6666 309.797 71.392C309.797 73.0026 309.354 74.256 308.469 75.152C307.584 76.0373 306.336 76.48 304.725 76.48ZM304.709 73.888C305.488 73.888 306.08 73.6693 306.485 73.232C306.901 72.7946 307.109 72.1653 307.109 71.344C307.109 70.608 306.885 70.016 306.437 69.568C305.989 69.12 305.402 68.896 304.677 68.896C304.24 68.896 303.84 69.0133 303.477 69.248C303.114 69.472 302.821 69.776 302.597 70.16C302.384 70.5333 302.277 70.9493 302.277 71.408C302.277 71.8133 302.357 72.208 302.517 72.592C302.688 72.976 302.954 73.2906 303.317 73.536C303.68 73.7706 304.144 73.888 304.709 73.888ZM311.179 76.32C311.147 75.3813 311.121 74.512 311.099 73.712C311.089 72.912 311.083 72.1226 311.083 71.344C311.083 70.5653 311.089 69.7866 311.099 69.008C311.121 68.2186 311.153 67.376 311.195 66.48H313.899C313.857 66.96 313.819 67.4453 313.787 67.936C314.15 67.4773 314.582 67.0986 315.083 66.8C315.585 66.4906 316.177 66.336 316.859 66.336C317.531 66.336 318.081 66.448 318.507 66.672C318.945 66.896 319.286 67.2053 319.531 67.6C319.787 67.9946 319.969 68.448 320.075 68.96C320.193 69.4613 320.267 70.0053 320.299 70.592C320.331 71.168 320.347 71.7493 320.347 72.336C320.347 72.976 320.337 73.5893 320.315 74.176C320.294 74.7626 320.273 75.2533 320.251 75.648C320.23 76.0426 320.214 76.2773 320.203 76.352H317.515C317.537 75.9146 317.558 75.4506 317.579 74.96C317.601 74.4586 317.622 73.968 317.643 73.488C317.665 72.9973 317.675 72.5546 317.675 72.16C317.675 69.888 317.307 68.752 316.571 68.752C315.963 68.752 315.409 69.0186 314.907 69.552C314.417 70.0746 314.006 70.736 313.675 71.536C313.675 71.6426 313.675 71.7493 313.675 71.856C313.675 72.368 313.675 72.9013 313.675 73.456C313.686 74 313.697 74.5226 313.707 75.024C313.729 75.5146 313.745 75.9413 313.755 76.304L311.179 76.32ZM326.711 76.432C326.071 76.432 325.564 76.2933 325.191 76.016C324.817 75.7493 324.545 75.376 324.375 74.896C324.204 74.416 324.092 73.8666 324.039 73.248C323.996 72.6293 323.975 71.9786 323.975 71.296C323.975 70.592 324.001 69.8613 324.055 69.104C323.34 69.2 322.652 69.3226 321.991 69.472L321.495 66.96C322.38 66.7253 323.324 66.5546 324.327 66.448C324.401 65.904 324.481 65.3333 324.567 64.736C324.652 64.128 324.748 63.488 324.855 62.816L327.607 63.056C327.479 63.6106 327.367 64.1653 327.271 64.72C327.175 65.264 327.089 65.792 327.015 66.304C327.612 66.304 328.172 66.32 328.695 66.352C329.228 66.3733 329.719 66.416 330.167 66.48L329.847 68.992C329.473 68.9493 329.084 68.9226 328.679 68.912C328.284 68.8906 327.884 68.88 327.479 68.88C327.233 68.88 326.988 68.8853 326.743 68.896C326.679 69.6746 326.636 70.3413 326.615 70.896C326.604 71.4506 326.599 71.8453 326.599 72.08C326.599 72.6666 326.631 73.088 326.695 73.344C326.769 73.6 326.887 73.728 327.047 73.728C327.228 73.728 327.431 73.6693 327.655 73.552C327.879 73.424 328.097 73.2533 328.311 73.04C328.535 72.8266 328.721 72.5973 328.871 72.352L330.103 74.928C329.047 75.9306 327.916 76.432 326.711 76.432ZM339.789 76.448C338.765 76.448 337.864 76.2453 337.085 75.84C336.317 75.4453 335.715 74.8906 335.277 74.176C334.851 73.4613 334.637 72.6346 334.637 71.696C334.637 71.1306 334.733 70.5386 334.925 69.92C335.117 69.2906 335.427 68.704 335.853 68.16C336.28 67.616 336.84 67.1733 337.533 66.832C338.237 66.4906 339.091 66.32 340.093 66.32C340.819 66.32 341.427 66.4 341.917 66.56C342.419 66.72 342.824 66.928 343.133 67.184C343.453 67.44 343.693 67.712 343.853 68C344.024 68.288 344.136 68.5653 344.189 68.832C344.253 69.088 344.285 69.3013 344.285 69.472C344.285 70.5066 343.848 71.3066 342.973 71.872C342.109 72.4266 340.883 72.704 339.293 72.704C338.931 72.704 338.584 72.688 338.253 72.656C337.933 72.624 337.635 72.5866 337.357 72.544C337.56 73.0773 337.896 73.472 338.365 73.728C338.835 73.9733 339.32 74.096 339.821 74.096C340.547 74.096 341.187 73.968 341.741 73.712C342.296 73.4453 342.819 73.04 343.309 72.496L344.733 74.544C344.392 74.8213 344.008 75.1093 343.581 75.408C343.165 75.7066 342.653 75.952 342.045 76.144C341.437 76.3466 340.685 76.448 339.789 76.448ZM340.141 68.72C339.512 68.72 338.957 68.88 338.477 69.2C337.997 69.52 337.645 69.9413 337.421 70.464C337.688 70.5066 337.949 70.544 338.205 70.576C338.472 70.5973 338.733 70.608 338.989 70.608C339.224 70.608 339.491 70.5866 339.789 70.544C340.099 70.5013 340.397 70.4373 340.685 70.352C340.984 70.2666 341.229 70.16 341.421 70.032C341.613 69.8933 341.709 69.7333 341.709 69.552C341.709 69.4666 341.667 69.36 341.581 69.232C341.496 69.104 341.341 68.9866 341.117 68.88C340.893 68.7733 340.568 68.72 340.141 68.72ZM347.845 76.528L345.829 74.784C346.341 74.1866 346.89 73.584 347.477 72.976C348.064 72.3573 348.666 71.744 349.285 71.136C348.538 70.4853 347.84 69.904 347.189 69.392C346.549 68.8693 346.053 68.5013 345.701 68.288L347.301 66.176C347.877 66.592 348.501 67.0666 349.173 67.6C349.845 68.1333 350.522 68.6986 351.205 69.296C351.834 68.72 352.453 68.16 353.061 67.616C353.669 67.0613 354.25 66.5386 354.805 66.048L356.661 67.968C356.32 68.2133 355.834 68.6186 355.205 69.184C354.576 69.7386 353.893 70.3573 353.157 71.04C353.861 71.68 354.522 72.3146 355.141 72.944C355.77 73.5626 356.325 74.1386 356.805 74.672L354.853 76.448C354.661 76.2133 354.384 75.9093 354.021 75.536C353.658 75.1626 353.237 74.7466 352.757 74.288C352.288 73.8293 351.786 73.36 351.253 72.88C350.741 73.3813 350.256 73.8666 349.797 74.336C349.349 74.8053 348.954 75.2266 348.613 75.6C348.272 75.984 348.016 76.2933 347.845 76.528ZM358.195 79.712C358.12 78.8586 358.067 78 358.035 77.136C358.003 76.272 357.987 75.2746 357.987 74.144C357.987 72.768 358.008 71.3973 358.051 70.032C358.093 68.6666 358.157 67.4186 358.243 66.288L360.995 66.368C360.963 66.6133 360.936 66.8746 360.915 67.152C361.299 66.896 361.709 66.7093 362.147 66.592C362.595 66.4746 363.048 66.416 363.507 66.416C364.093 66.416 364.664 66.512 365.219 66.704C365.773 66.8853 366.275 67.1786 366.723 67.584C367.171 67.9786 367.523 68.4906 367.779 69.12C368.045 69.7493 368.179 70.5066 368.179 71.392C368.179 72.2666 368.045 73.0293 367.779 73.68C367.512 74.3306 367.155 74.864 366.707 75.28C366.259 75.7066 365.757 76.0213 365.203 76.224C364.648 76.4373 364.077 76.544 363.491 76.544C362.413 76.544 361.464 76.224 360.643 75.584C360.664 76.2666 360.696 76.9226 360.739 77.552C360.781 78.192 360.835 78.8426 360.899 79.504L358.195 79.712ZM363.075 69.072C362.019 69.072 361.224 69.5893 360.691 70.624C360.659 71.264 360.637 71.9146 360.627 72.576C360.883 72.9173 361.213 73.216 361.619 73.472C362.024 73.7173 362.541 73.84 363.171 73.84C364.675 73.84 365.427 72.9813 365.427 71.264C365.427 70.8053 365.341 70.432 365.171 70.144C365 69.856 364.787 69.6373 364.531 69.488C364.275 69.328 364.013 69.2213 363.747 69.168C363.48 69.104 363.256 69.072 363.075 69.072ZM374.1 76.48C373.247 76.48 372.5 76.3413 371.86 76.064C371.231 75.7866 370.708 75.408 370.292 74.928C369.876 74.4373 369.567 73.8773 369.364 73.248C369.161 72.6186 369.06 71.9573 369.06 71.264C369.06 70.56 369.183 69.9093 369.428 69.312C369.684 68.704 370.031 68.176 370.468 67.728C370.916 67.28 371.439 66.9333 372.036 66.688C372.633 66.432 373.284 66.304 373.988 66.304C374.724 66.304 375.407 66.432 376.036 66.688C376.665 66.944 377.215 67.3013 377.684 67.76C378.153 68.2186 378.516 68.7573 378.772 69.376C379.039 69.9946 379.172 70.6666 379.172 71.392C379.172 73.0026 378.729 74.256 377.844 75.152C376.959 76.0373 375.711 76.48 374.1 76.48ZM374.084 73.888C374.863 73.888 375.455 73.6693 375.86 73.232C376.276 72.7946 376.484 72.1653 376.484 71.344C376.484 70.608 376.26 70.016 375.812 69.568C375.364 69.12 374.777 68.896 374.052 68.896C373.615 68.896 373.215 69.0133 372.852 69.248C372.489 69.472 372.196 69.776 371.972 70.16C371.759 70.5333 371.652 70.9493 371.652 71.408C371.652 71.8133 371.732 72.208 371.892 72.592C372.063 72.976 372.329 73.2906 372.692 73.536C373.055 73.7706 373.519 73.888 374.084 73.888ZM385.13 76.496C384.405 76.496 383.733 76.4106 383.114 76.24C382.496 76.0693 381.936 75.8506 381.434 75.584C380.933 75.3173 380.485 75.0346 380.09 74.736L381.53 72.416C381.978 72.832 382.41 73.152 382.826 73.376C383.242 73.6 383.674 73.7546 384.122 73.84C384.581 73.9253 385.077 73.968 385.61 73.968C386.069 73.968 386.437 73.9093 386.714 73.792C386.992 73.664 387.13 73.504 387.13 73.312C387.13 73.152 386.997 73.0293 386.73 72.944C386.464 72.848 386.122 72.768 385.706 72.704C385.29 72.6293 384.853 72.5386 384.394 72.432C383.744 72.2613 383.136 72.064 382.57 71.84C382.005 71.616 381.546 71.312 381.194 70.928C380.853 70.544 380.682 70.032 380.682 69.392C380.682 68.88 380.805 68.432 381.05 68.048C381.296 67.6533 381.621 67.328 382.026 67.072C382.442 66.8053 382.912 66.608 383.434 66.48C383.957 66.352 384.496 66.288 385.05 66.288C386.01 66.288 386.837 66.4053 387.53 66.64C388.234 66.864 388.906 67.1626 389.546 67.536L388.09 69.744C387.77 69.52 387.402 69.328 386.986 69.168C386.581 68.9973 386.17 68.8693 385.754 68.784C385.349 68.688 384.97 68.64 384.618 68.64C384.234 68.64 383.93 68.6986 383.706 68.816C383.493 68.9333 383.386 69.0986 383.386 69.312C383.386 69.44 383.52 69.5626 383.786 69.68C384.064 69.7866 384.586 69.9306 385.354 70.112C385.813 70.2186 386.298 70.3306 386.81 70.448C387.322 70.5546 387.802 70.7093 388.25 70.912C388.709 71.104 389.077 71.3866 389.354 71.76C389.642 72.1226 389.786 72.608 389.786 73.216C389.786 74.24 389.376 75.04 388.554 75.616C387.733 76.2026 386.592 76.496 385.13 76.496ZM395.852 76.448C394.828 76.448 393.927 76.2453 393.148 75.84C392.38 75.4453 391.777 74.8906 391.34 74.176C390.913 73.4613 390.7 72.6346 390.7 71.696C390.7 71.1306 390.796 70.5386 390.988 69.92C391.18 69.2906 391.489 68.704 391.916 68.16C392.343 67.616 392.903 67.1733 393.596 66.832C394.3 66.4906 395.153 66.32 396.156 66.32C396.881 66.32 397.489 66.4 397.98 66.56C398.481 66.72 398.887 66.928 399.196 67.184C399.516 67.44 399.756 67.712 399.916 68C400.087 68.288 400.199 68.5653 400.252 68.832C400.316 69.088 400.348 69.3013 400.348 69.472C400.348 70.5066 399.911 71.3066 399.036 71.872C398.172 72.4266 396.945 72.704 395.356 72.704C394.993 72.704 394.647 72.688 394.316 72.656C393.996 72.624 393.697 72.5866 393.42 72.544C393.623 73.0773 393.959 73.472 394.428 73.728C394.897 73.9733 395.383 74.096 395.884 74.096C396.609 74.096 397.249 73.968 397.804 73.712C398.359 73.4453 398.881 73.04 399.372 72.496L400.796 74.544C400.455 74.8213 400.071 75.1093 399.644 75.408C399.228 75.7066 398.716 75.952 398.108 76.144C397.5 76.3466 396.748 76.448 395.852 76.448ZM396.204 68.72C395.575 68.72 395.02 68.88 394.54 69.2C394.06 69.52 393.708 69.9413 393.484 70.464C393.751 70.5066 394.012 70.544 394.268 70.576C394.535 70.5973 394.796 70.608 395.052 70.608C395.287 70.608 395.553 70.5866 395.852 70.544C396.161 70.5013 396.46 70.4373 396.748 70.352C397.047 70.2666 397.292 70.16 397.484 70.032C397.676 69.8933 397.772 69.7333 397.772 69.552C397.772 69.4666 397.729 69.36 397.644 69.232C397.559 69.104 397.404 68.9866 397.18 68.88C396.956 68.7733 396.631 68.72 396.204 68.72ZM394.412 65.12L393.58 63.92C393.825 63.7386 394.103 63.5306 394.412 63.296C394.721 63.0613 395.031 62.8213 395.34 62.576C395.649 62.32 395.932 62.0906 396.188 61.888C396.455 61.6746 396.663 61.504 396.812 61.376L398.14 62.928C397.98 63.0666 397.745 63.232 397.436 63.424C397.137 63.6053 396.801 63.8026 396.428 64.016C396.065 64.2293 395.708 64.432 395.356 64.624C395.004 64.8053 394.689 64.9706 394.412 65.12ZM177.411 99.432C176.611 99.432 175.886 99.224 175.235 98.808C174.584 98.4026 174.067 97.8533 173.683 97.16C173.31 96.456 173.123 95.672 173.123 94.808C173.123 93.9973 173.272 93.2666 173.571 92.616C173.87 91.9546 174.275 91.3893 174.787 90.92C175.31 90.4506 175.902 90.0933 176.563 89.848C177.224 89.592 177.918 89.464 178.643 89.464C179.251 89.464 179.848 89.5493 180.435 89.72C180.478 89.496 180.515 89.272 180.547 89.048L183.283 89.512C183.208 89.7146 183.134 90.0186 183.059 90.424C182.984 90.8293 182.92 91.2826 182.867 91.784C182.824 92.2853 182.787 92.7866 182.755 93.288C182.723 93.7893 182.707 94.2426 182.707 94.648C182.707 94.9786 182.728 95.304 182.771 95.624C182.824 95.9333 182.931 96.1893 183.091 96.392C183.251 96.584 183.496 96.68 183.827 96.68H184.051L183.651 99.464C182.947 99.464 182.366 99.3413 181.907 99.096C181.448 98.8613 181.08 98.5413 180.803 98.136C180.344 98.648 179.822 98.9893 179.235 99.16C178.648 99.3413 178.04 99.432 177.411 99.432ZM175.747 95.128C175.8 95.64 176.008 96.0506 176.371 96.36C176.744 96.6586 177.214 96.808 177.779 96.808C178.323 96.808 178.776 96.664 179.139 96.376C179.502 96.0773 179.8 95.672 180.035 95.16C180.024 94.9893 180.019 94.8133 180.019 94.632C180.019 94.2586 180.03 93.8746 180.051 93.48C180.072 93.0853 180.099 92.696 180.131 92.312C179.683 92.1413 179.214 92.056 178.723 92.056C178.147 92.056 177.63 92.1733 177.171 92.408C176.723 92.632 176.371 92.9466 176.115 93.352C175.859 93.7573 175.731 94.2266 175.731 94.76C175.731 94.824 175.731 94.888 175.731 94.952C175.731 95.016 175.736 95.0746 175.747 95.128ZM188.603 99.48C187.921 99.48 187.355 99.3573 186.907 99.112C186.47 98.8773 186.118 98.552 185.851 98.136C185.595 97.72 185.403 97.256 185.275 96.744C185.158 96.2213 185.078 95.6826 185.035 95.128C185.003 94.5626 184.987 94.0186 184.987 93.496C184.987 92.8986 185.003 92.2906 185.035 91.672C185.078 91.0533 185.121 90.376 185.163 89.64L188.091 89.464C188.059 89.688 188.011 90.024 187.947 90.472C187.883 90.92 187.825 91.432 187.771 92.008C187.718 92.584 187.691 93.1866 187.691 93.816C187.691 94.8506 187.782 95.6186 187.963 96.12C188.145 96.6106 188.417 96.856 188.779 96.856C189.505 96.856 190.038 96.328 190.379 95.272C190.721 94.216 190.891 92.5466 190.891 90.264V89.528L192.251 89.496L193.899 89.464C193.75 90.4666 193.638 91.3893 193.563 92.232C193.489 93.0746 193.441 93.784 193.419 94.36C193.398 94.9253 193.387 95.304 193.387 95.496C193.387 95.9866 193.43 96.3386 193.515 96.552C193.601 96.7546 193.75 96.856 193.963 96.856C194.07 96.856 194.187 96.8346 194.315 96.792C194.443 96.7493 194.593 96.6746 194.763 96.568L194.651 99.32C194.246 99.384 193.894 99.416 193.595 99.416C193.083 99.416 192.662 99.32 192.331 99.128C192.011 98.936 191.755 98.68 191.563 98.36C191.233 98.712 190.822 98.984 190.331 99.176C189.851 99.3786 189.275 99.48 188.603 99.48ZM199.739 99.416C199.728 99.256 199.717 98.9893 199.707 98.616C199.696 98.2533 199.685 97.816 199.675 97.304C199.664 96.792 199.659 96.2426 199.659 95.656C199.659 95.0586 199.659 94.4613 199.659 93.864C199.659 93.2026 199.659 92.5733 199.659 91.976C199.669 91.3786 199.675 90.8613 199.675 90.424C199.685 89.9866 199.691 89.672 199.691 89.48L202.395 89.432C202.373 89.7306 202.357 90.0933 202.347 90.52C202.624 90.1466 202.944 89.8533 203.307 89.64C203.669 89.4266 204.085 89.32 204.555 89.32C205.12 89.32 205.584 89.4853 205.947 89.816C206.32 90.1466 206.624 90.5786 206.859 91.112C207.627 89.9173 208.571 89.32 209.691 89.32C210.32 89.32 210.837 89.4586 211.243 89.736C211.659 90.0026 211.984 90.3653 212.219 90.824C212.453 91.2826 212.624 91.8 212.731 92.376C212.848 92.952 212.923 93.544 212.955 94.152C212.987 94.76 213.003 95.3466 213.003 95.912C213.003 96.584 212.992 97.1973 212.971 97.752C212.949 98.3066 212.944 98.8346 212.955 99.336H210.187C210.187 99.08 210.187 98.7546 210.187 98.36C210.187 97.976 210.187 97.5866 210.187 97.192C210.197 96.7866 210.203 96.44 210.203 96.152C210.203 95.8533 210.203 95.6773 210.203 95.624C210.203 94.984 210.187 94.3813 210.155 93.816C210.123 93.2506 210.043 92.792 209.915 92.44C209.787 92.088 209.579 91.912 209.291 91.912C209.013 91.912 208.768 92.0453 208.555 92.312C208.341 92.5786 208.149 92.9253 207.979 93.352C207.819 93.7786 207.68 94.232 207.563 94.712C207.584 95.128 207.6 95.544 207.611 95.96C207.621 96.3653 207.627 96.76 207.627 97.144C207.627 97.5813 207.621 97.96 207.611 98.28C207.611 98.6106 207.611 98.9626 207.611 99.336H204.923C204.923 98.472 204.917 97.7093 204.907 97.048C204.896 96.3866 204.875 95.7466 204.843 95.128C204.789 94.0186 204.672 93.208 204.491 92.696C204.32 92.1733 204.08 91.912 203.771 91.912C203.429 91.912 203.141 92.12 202.907 92.536C202.672 92.9413 202.48 93.4373 202.331 94.024C202.341 94.8773 202.363 95.768 202.395 96.696C202.427 97.624 202.469 98.52 202.523 99.384L199.739 99.416ZM219.147 99.48C218.294 99.48 217.547 99.3413 216.907 99.064C216.278 98.7866 215.755 98.408 215.339 97.928C214.923 97.4373 214.614 96.8773 214.411 96.248C214.208 95.6186 214.107 94.9573 214.107 94.264C214.107 93.56 214.23 92.9093 214.475 92.312C214.731 91.704 215.078 91.176 215.515 90.728C215.963 90.28 216.486 89.9333 217.083 89.688C217.68 89.432 218.331 89.304 219.035 89.304C219.771 89.304 220.454 89.432 221.083 89.688C221.712 89.944 222.262 90.3013 222.731 90.76C223.2 91.2186 223.563 91.7573 223.819 92.376C224.086 92.9946 224.219 93.6666 224.219 94.392C224.219 96.0026 223.776 97.256 222.891 98.152C222.006 99.0373 220.758 99.48 219.147 99.48ZM219.131 96.888C219.91 96.888 220.502 96.6693 220.907 96.232C221.323 95.7946 221.531 95.1653 221.531 94.344C221.531 93.608 221.307 93.016 220.859 92.568C220.411 92.12 219.824 91.896 219.099 91.896C218.662 91.896 218.262 92.0133 217.899 92.248C217.536 92.472 217.243 92.776 217.019 93.16C216.806 93.5333 216.699 93.9493 216.699 94.408C216.699 94.8133 216.779 95.208 216.939 95.592C217.11 95.976 217.376 96.2906 217.739 96.536C218.102 96.7706 218.566 96.888 219.131 96.888ZM225.425 87.832C225.425 87.736 225.42 87.64 225.409 87.544C225.409 87.4373 225.409 87.32 225.409 87.192C225.409 86.8506 225.42 86.488 225.441 86.104C225.462 85.72 225.484 85.3946 225.505 85.128L228.353 85.176C228.321 85.5386 228.284 85.9493 228.241 86.408C228.209 86.8666 228.188 87.3413 228.177 87.832H225.425ZM225.361 99.288C225.329 98.6266 225.308 97.9226 225.297 97.176C225.286 96.4186 225.281 95.6613 225.281 94.904C225.281 93.912 225.292 92.9466 225.313 92.008C225.334 91.0693 225.361 90.216 225.393 89.448L228.145 89.432C228.102 89.9226 228.076 90.5306 228.065 91.256C228.054 91.9706 228.049 92.7226 228.049 93.512C228.049 94.2906 228.054 95.0586 228.065 95.816C228.076 96.5733 228.086 97.2613 228.097 97.88C228.118 98.488 228.134 98.9573 228.145 99.288H225.361ZM229.82 99.32C229.788 98.3813 229.761 97.512 229.74 96.712C229.729 95.912 229.724 95.1226 229.724 94.344C229.724 93.5653 229.729 92.7866 229.74 92.008C229.761 91.2186 229.793 90.376 229.836 89.48H232.54C232.497 89.96 232.46 90.4453 232.428 90.936C232.79 90.4773 233.222 90.0986 233.724 89.8C234.225 89.4906 234.817 89.336 235.5 89.336C236.172 89.336 236.721 89.448 237.148 89.672C237.585 89.896 237.926 90.2053 238.172 90.6C238.428 90.9946 238.609 91.448 238.716 91.96C238.833 92.4613 238.908 93.0053 238.94 93.592C238.972 94.168 238.988 94.7493 238.988 95.336C238.988 95.976 238.977 96.5893 238.956 97.176C238.934 97.7626 238.913 98.2533 238.892 98.648C238.87 99.0426 238.854 99.2773 238.844 99.352H236.156C236.177 98.9146 236.198 98.4506 236.22 97.96C236.241 97.4586 236.262 96.968 236.284 96.488C236.305 95.9973 236.316 95.5546 236.316 95.16C236.316 92.888 235.948 91.752 235.212 91.752C234.604 91.752 234.049 92.0186 233.548 92.552C233.057 93.0746 232.646 93.736 232.316 94.536C232.316 94.6426 232.316 94.7493 232.316 94.856C232.316 95.368 232.316 95.9013 232.316 96.456C232.326 97 232.337 97.5226 232.348 98.024C232.369 98.5146 232.385 98.9413 232.396 99.304L229.82 99.32ZM245.255 99.496C244.53 99.496 243.858 99.4106 243.239 99.24C242.621 99.0693 242.061 98.8506 241.559 98.584C241.058 98.3173 240.61 98.0346 240.215 97.736L241.655 95.416C242.103 95.832 242.535 96.152 242.951 96.376C243.367 96.6 243.799 96.7546 244.247 96.84C244.706 96.9253 245.202 96.968 245.735 96.968C246.194 96.968 246.562 96.9093 246.839 96.792C247.117 96.664 247.255 96.504 247.255 96.312C247.255 96.152 247.122 96.0293 246.855 95.944C246.589 95.848 246.247 95.768 245.831 95.704C245.415 95.6293 244.978 95.5386 244.519 95.432C243.869 95.2613 243.261 95.064 242.695 94.84C242.13 94.616 241.671 94.312 241.319 93.928C240.978 93.544 240.807 93.032 240.807 92.392C240.807 91.88 240.93 91.432 241.175 91.048C241.421 90.6533 241.746 90.328 242.151 90.072C242.567 89.8053 243.037 89.608 243.559 89.48C244.082 89.352 244.621 89.288 245.175 89.288C246.135 89.288 246.962 89.4053 247.655 89.64C248.359 89.864 249.031 90.1626 249.671 90.536L248.215 92.744C247.895 92.52 247.527 92.328 247.111 92.168C246.706 91.9973 246.295 91.8693 245.879 91.784C245.474 91.688 245.095 91.64 244.743 91.64C244.359 91.64 244.055 91.6986 243.831 91.816C243.618 91.9333 243.511 92.0986 243.511 92.312C243.511 92.44 243.645 92.5626 243.911 92.68C244.189 92.7866 244.711 92.9306 245.479 93.112C245.938 93.2186 246.423 93.3306 246.935 93.448C247.447 93.5546 247.927 93.7093 248.375 93.912C248.834 94.104 249.202 94.3866 249.479 94.76C249.767 95.1226 249.911 95.608 249.911 96.216C249.911 97.24 249.501 98.04 248.679 98.616C247.858 99.2026 246.717 99.496 245.255 99.496ZM260.929 99.352L258.321 99.112C258.375 98.4933 258.423 97.8 258.465 97.032C258.519 96.264 258.561 95.4746 258.593 94.664C258.625 93.8533 258.647 93.0746 258.657 92.328C258.679 91.5813 258.695 90.92 258.705 90.344C258.716 89.768 258.721 89.3306 258.721 89.032C258.721 88.9253 258.711 88.872 258.689 88.872C258.657 88.872 258.604 88.9306 258.529 89.048C258.423 89.2186 258.311 89.4213 258.193 89.656C258.076 89.88 257.975 90.0826 257.889 90.264L256.033 88.424C256.663 87.3893 257.281 86.5893 257.889 86.024C258.508 85.448 259.063 85.16 259.553 85.16C259.959 85.16 260.273 85.256 260.497 85.448C260.721 85.64 260.887 85.896 260.993 86.216C261.111 86.536 261.18 86.888 261.201 87.272C261.233 87.656 261.249 88.04 261.249 88.424C261.249 88.5946 261.244 88.9466 261.233 89.48C261.233 90.0026 261.228 90.648 261.217 91.416C261.207 92.184 261.191 93.0213 261.169 93.928C261.148 94.824 261.116 95.7413 261.073 96.68C261.031 97.608 260.983 98.4986 260.929 99.352ZM271.401 99.32C271.39 98.7226 271.385 98.1146 271.385 97.496C271.385 96.8666 271.385 96.2586 271.385 95.672V91.88C270.937 91.912 270.505 91.96 270.089 92.024C269.684 92.088 269.305 92.168 268.953 92.264L268.617 89.704C269.001 89.6186 269.438 89.544 269.929 89.48C270.43 89.416 270.948 89.368 271.481 89.336C271.545 88.7493 271.652 88.1786 271.801 87.624C271.961 87.0693 272.185 86.5733 272.473 86.136C272.761 85.688 273.14 85.3306 273.609 85.064C274.078 84.7973 274.66 84.664 275.353 84.664C276.238 84.664 277.092 84.8453 277.913 85.208L277.369 87.752C276.665 87.432 276.084 87.272 275.625 87.272C275.134 87.272 274.793 87.448 274.601 87.8C274.409 88.1413 274.286 88.6266 274.233 89.256C274.809 89.2666 275.353 89.2933 275.865 89.336C276.388 89.368 276.841 89.4106 277.225 89.464L276.969 91.976C276.596 91.912 276.158 91.864 275.657 91.832C275.166 91.7893 274.649 91.768 274.105 91.768C274.084 92.312 274.068 92.8453 274.057 93.368C274.046 93.88 274.041 94.392 274.041 94.904C274.041 95.5866 274.046 96.2906 274.057 97.016C274.078 97.7306 274.1 98.4986 274.121 99.32H271.401ZM282.881 99.48C282.028 99.48 281.281 99.3413 280.641 99.064C280.012 98.7866 279.489 98.408 279.073 97.928C278.657 97.4373 278.348 96.8773 278.145 96.248C277.943 95.6186 277.841 94.9573 277.841 94.264C277.841 93.56 277.964 92.9093 278.209 92.312C278.465 91.704 278.812 91.176 279.249 90.728C279.697 90.28 280.22 89.9333 280.817 89.688C281.415 89.432 282.065 89.304 282.769 89.304C283.505 89.304 284.188 89.432 284.817 89.688C285.447 89.944 285.996 90.3013 286.465 90.76C286.935 91.2186 287.297 91.7573 287.553 92.376C287.82 92.9946 287.953 93.6666 287.953 94.392C287.953 96.0026 287.511 97.256 286.625 98.152C285.74 99.0373 284.492 99.48 282.881 99.48ZM282.865 96.888C283.644 96.888 284.236 96.6693 284.641 96.232C285.057 95.7946 285.265 95.1653 285.265 94.344C285.265 93.608 285.041 93.016 284.593 92.568C284.145 92.12 283.559 91.896 282.833 91.896C282.396 91.896 281.996 92.0133 281.633 92.248C281.271 92.472 280.977 92.776 280.753 93.16C280.54 93.5333 280.433 93.9493 280.433 94.408C280.433 94.8133 280.513 95.208 280.673 95.592C280.844 95.976 281.111 96.2906 281.473 96.536C281.836 96.7706 282.3 96.888 282.865 96.888ZM289.159 87.832C289.159 87.736 289.154 87.64 289.143 87.544C289.143 87.4373 289.143 87.32 289.143 87.192C289.143 86.8506 289.154 86.488 289.175 86.104C289.197 85.72 289.218 85.3946 289.239 85.128L292.087 85.176C292.055 85.5386 292.018 85.9493 291.975 86.408C291.943 86.8666 291.922 87.3413 291.911 87.832H289.159ZM289.095 99.288C289.063 98.6266 289.042 97.9226 289.031 97.176C289.021 96.4186 289.015 95.6613 289.015 94.904C289.015 93.912 289.026 92.9466 289.047 92.008C289.069 91.0693 289.095 90.216 289.127 89.448L291.879 89.432C291.837 89.9226 291.81 90.5306 291.799 91.256C291.789 91.9706 291.783 92.7226 291.783 93.512C291.783 94.2906 291.789 95.0586 291.799 95.816C291.81 96.5733 291.821 97.2613 291.831 97.88C291.853 98.488 291.869 98.9573 291.879 99.288H289.095ZM298.13 99.496C297.405 99.496 296.733 99.4106 296.114 99.24C295.496 99.0693 294.936 98.8506 294.434 98.584C293.933 98.3173 293.485 98.0346 293.09 97.736L294.53 95.416C294.978 95.832 295.41 96.152 295.826 96.376C296.242 96.6 296.674 96.7546 297.122 96.84C297.581 96.9253 298.077 96.968 298.61 96.968C299.069 96.968 299.437 96.9093 299.714 96.792C299.992 96.664 300.13 96.504 300.13 96.312C300.13 96.152 299.997 96.0293 299.73 95.944C299.464 95.848 299.122 95.768 298.706 95.704C298.29 95.6293 297.853 95.5386 297.394 95.432C296.744 95.2613 296.136 95.064 295.57 94.84C295.005 94.616 294.546 94.312 294.194 93.928C293.853 93.544 293.682 93.032 293.682 92.392C293.682 91.88 293.805 91.432 294.05 91.048C294.296 90.6533 294.621 90.328 295.026 90.072C295.442 89.8053 295.912 89.608 296.434 89.48C296.957 89.352 297.496 89.288 298.05 89.288C299.01 89.288 299.837 89.4053 300.53 89.64C301.234 89.864 301.906 90.1626 302.546 90.536L301.09 92.744C300.77 92.52 300.402 92.328 299.986 92.168C299.581 91.9973 299.17 91.8693 298.754 91.784C298.349 91.688 297.97 91.64 297.618 91.64C297.234 91.64 296.93 91.6986 296.706 91.816C296.493 91.9333 296.386 92.0986 296.386 92.312C296.386 92.44 296.52 92.5626 296.786 92.68C297.064 92.7866 297.586 92.9306 298.354 93.112C298.813 93.2186 299.298 93.3306 299.81 93.448C300.322 93.5546 300.802 93.7093 301.25 93.912C301.709 94.104 302.077 94.3866 302.354 94.76C302.642 95.1226 302.786 95.608 302.786 96.216C302.786 97.24 302.376 98.04 301.554 98.616C300.733 99.2026 299.592 99.496 298.13 99.496ZM307.804 102.712C307.73 101.859 307.676 101 307.644 100.136C307.612 99.272 307.596 98.2746 307.596 97.144C307.596 95.768 307.618 94.3973 307.66 93.032C307.703 91.6666 307.767 90.4186 307.852 89.288L310.604 89.368C310.572 89.6133 310.546 89.8746 310.524 90.152C310.908 89.896 311.319 89.7093 311.756 89.592C312.204 89.4746 312.658 89.416 313.116 89.416C313.703 89.416 314.274 89.512 314.828 89.704C315.383 89.8853 315.884 90.1786 316.332 90.584C316.78 90.9786 317.132 91.4906 317.388 92.12C317.655 92.7493 317.788 93.5066 317.788 94.392C317.788 95.2666 317.655 96.0293 317.388 96.68C317.122 97.3306 316.764 97.864 316.316 98.28C315.868 98.7066 315.367 99.0213 314.812 99.224C314.258 99.4373 313.687 99.544 313.1 99.544C312.023 99.544 311.074 99.224 310.252 98.584C310.274 99.2666 310.306 99.9226 310.348 100.552C310.391 101.192 310.444 101.843 310.508 102.504L307.804 102.712ZM312.684 92.072C311.628 92.072 310.834 92.5893 310.3 93.624C310.268 94.264 310.247 94.9146 310.236 95.576C310.492 95.9173 310.823 96.216 311.228 96.472C311.634 96.7173 312.151 96.84 312.78 96.84C314.284 96.84 315.036 95.9813 315.036 94.264C315.036 93.8053 314.951 93.432 314.78 93.144C314.61 92.856 314.396 92.6373 314.14 92.488C313.884 92.328 313.623 92.2213 313.356 92.168C313.09 92.104 312.866 92.072 312.684 92.072ZM322.973 99.432C322.173 99.432 321.448 99.224 320.797 98.808C320.147 98.4026 319.629 97.8533 319.245 97.16C318.872 96.456 318.685 95.672 318.685 94.808C318.685 93.9973 318.835 93.2666 319.133 92.616C319.432 91.9546 319.837 91.3893 320.349 90.92C320.872 90.4506 321.464 90.0933 322.125 89.848C322.787 89.592 323.48 89.464 324.205 89.464C324.813 89.464 325.411 89.5493 325.997 89.72C326.04 89.496 326.077 89.272 326.109 89.048L328.845 89.512C328.771 89.7146 328.696 90.0186 328.621 90.424C328.547 90.8293 328.483 91.2826 328.429 91.784C328.387 92.2853 328.349 92.7866 328.317 93.288C328.285 93.7893 328.269 94.2426 328.269 94.648C328.269 94.9786 328.291 95.304 328.333 95.624C328.387 95.9333 328.493 96.1893 328.653 96.392C328.813 96.584 329.059 96.68 329.389 96.68H329.613L329.213 99.464C328.509 99.464 327.928 99.3413 327.469 99.096C327.011 98.8613 326.643 98.5413 326.365 98.136C325.907 98.648 325.384 98.9893 324.797 99.16C324.211 99.3413 323.603 99.432 322.973 99.432ZM321.309 95.128C321.363 95.64 321.571 96.0506 321.933 96.36C322.307 96.6586 322.776 96.808 323.341 96.808C323.885 96.808 324.339 96.664 324.701 96.376C325.064 96.0773 325.363 95.672 325.597 95.16C325.587 94.9893 325.581 94.8133 325.581 94.632C325.581 94.2586 325.592 93.8746 325.613 93.48C325.635 93.0853 325.661 92.696 325.693 92.312C325.245 92.1413 324.776 92.056 324.285 92.056C323.709 92.056 323.192 92.1733 322.733 92.408C322.285 92.632 321.933 92.9466 321.677 93.352C321.421 93.7573 321.293 94.2266 321.293 94.76C321.293 94.824 321.293 94.888 321.293 94.952C321.293 95.016 321.299 95.0746 321.309 95.128ZM330.55 99.416C330.592 98.5306 330.624 97.6453 330.646 96.76C330.667 95.8746 330.678 95 330.678 94.136C330.667 93.3466 330.651 92.568 330.63 91.8C330.619 91.0213 330.592 90.2693 330.55 89.544L333.238 89.464C333.248 89.8586 333.264 90.264 333.286 90.68C333.627 90.2533 334.022 89.912 334.47 89.656C334.928 89.3893 335.451 89.256 336.038 89.256C336.262 89.256 336.55 89.288 336.902 89.352C337.254 89.416 337.611 89.5386 337.974 89.72L337.67 92.424C337.403 92.264 337.115 92.152 336.806 92.088C336.507 92.0133 336.256 91.976 336.054 91.976C335.371 91.976 334.79 92.2853 334.31 92.904C333.84 93.512 333.52 94.36 333.35 95.448C333.35 96.1946 333.339 96.9093 333.318 97.592C333.307 98.264 333.28 98.872 333.238 99.416H330.55ZM342.286 99.416C342.275 99.256 342.264 98.9893 342.254 98.616C342.243 98.2533 342.232 97.816 342.222 97.304C342.211 96.792 342.206 96.2426 342.206 95.656C342.206 95.0586 342.206 94.4613 342.206 93.864C342.206 93.2026 342.206 92.5733 342.206 91.976C342.216 91.3786 342.222 90.8613 342.222 90.424C342.232 89.9866 342.238 89.672 342.238 89.48L344.942 89.432C344.92 89.7306 344.904 90.0933 344.894 90.52C345.171 90.1466 345.491 89.8533 345.854 89.64C346.216 89.4266 346.632 89.32 347.102 89.32C347.667 89.32 348.131 89.4853 348.494 89.816C348.867 90.1466 349.171 90.5786 349.406 91.112C350.174 89.9173 351.118 89.32 352.238 89.32C352.867 89.32 353.384 89.4586 353.79 89.736C354.206 90.0026 354.531 90.3653 354.766 90.824C355 91.2826 355.171 91.8 355.278 92.376C355.395 92.952 355.47 93.544 355.502 94.152C355.534 94.76 355.55 95.3466 355.55 95.912C355.55 96.584 355.539 97.1973 355.518 97.752C355.496 98.3066 355.491 98.8346 355.502 99.336H352.734C352.734 99.08 352.734 98.7546 352.734 98.36C352.734 97.976 352.734 97.5866 352.734 97.192C352.744 96.7866 352.75 96.44 352.75 96.152C352.75 95.8533 352.75 95.6773 352.75 95.624C352.75 94.984 352.734 94.3813 352.702 93.816C352.67 93.2506 352.59 92.792 352.462 92.44C352.334 92.088 352.126 91.912 351.838 91.912C351.56 91.912 351.315 92.0453 351.102 92.312C350.888 92.5786 350.696 92.9253 350.526 93.352C350.366 93.7786 350.227 94.232 350.11 94.712C350.131 95.128 350.147 95.544 350.158 95.96C350.168 96.3653 350.174 96.76 350.174 97.144C350.174 97.5813 350.168 97.96 350.158 98.28C350.158 98.6106 350.158 98.9626 350.158 99.336H347.47C347.47 98.472 347.464 97.7093 347.454 97.048C347.443 96.3866 347.422 95.7466 347.39 95.128C347.336 94.0186 347.219 93.208 347.038 92.696C346.867 92.1733 346.627 91.912 346.318 91.912C345.976 91.912 345.688 92.12 345.454 92.536C345.219 92.9413 345.027 93.4373 344.878 94.024C344.888 94.8773 344.91 95.768 344.942 96.696C344.974 97.624 345.016 98.52 345.07 99.384L342.286 99.416ZM361.694 99.48C360.84 99.48 360.094 99.3413 359.454 99.064C358.824 98.7866 358.302 98.408 357.886 97.928C357.47 97.4373 357.16 96.8773 356.958 96.248C356.755 95.6186 356.654 94.9573 356.654 94.264C356.654 93.56 356.776 92.9093 357.022 92.312C357.278 91.704 357.624 91.176 358.062 90.728C358.51 90.28 359.032 89.9333 359.63 89.688C360.227 89.432 360.878 89.304 361.582 89.304C362.318 89.304 363 89.432 363.63 89.688C364.259 89.944 364.808 90.3013 365.278 90.76C365.747 91.2186 366.11 91.7573 366.366 92.376C366.632 92.9946 366.766 93.6666 366.766 94.392C366.766 96.0026 366.323 97.256 365.438 98.152C364.552 99.0373 363.304 99.48 361.694 99.48ZM361.678 96.888C362.456 96.888 363.048 96.6693 363.454 96.232C363.87 95.7946 364.078 95.1653 364.078 94.344C364.078 93.608 363.854 93.016 363.406 92.568C362.958 92.12 362.371 91.896 361.646 91.896C361.208 91.896 360.808 92.0133 360.446 92.248C360.083 92.472 359.79 92.776 359.566 93.16C359.352 93.5333 359.246 93.9493 359.246 94.408C359.246 94.8133 359.326 95.208 359.486 95.592C359.656 95.976 359.923 96.2906 360.286 96.536C360.648 96.7706 361.112 96.888 361.678 96.888ZM367.972 87.832C367.972 87.736 367.967 87.64 367.956 87.544C367.956 87.4373 367.956 87.32 367.956 87.192C367.956 86.8506 367.967 86.488 367.988 86.104C368.009 85.72 368.031 85.3946 368.052 85.128L370.9 85.176C370.868 85.5386 370.831 85.9493 370.788 86.408C370.756 86.8666 370.735 87.3413 370.724 87.832H367.972ZM367.908 99.288C367.876 98.6266 367.855 97.9226 367.844 97.176C367.833 96.4186 367.828 95.6613 367.828 94.904C367.828 93.912 367.839 92.9466 367.86 92.008C367.881 91.0693 367.908 90.216 367.94 89.448L370.692 89.432C370.649 89.9226 370.623 90.5306 370.612 91.256C370.601 91.9706 370.596 92.7226 370.596 93.512C370.596 94.2906 370.601 95.0586 370.612 95.816C370.623 96.5733 370.633 97.2613 370.644 97.88C370.665 98.488 370.681 98.9573 370.692 99.288H367.908ZM376.943 99.496C376.217 99.496 375.545 99.4106 374.927 99.24C374.308 99.0693 373.748 98.8506 373.247 98.584C372.745 98.3173 372.297 98.0346 371.903 97.736L373.343 95.416C373.791 95.832 374.223 96.152 374.639 96.376C375.055 96.6 375.487 96.7546 375.935 96.84C376.393 96.9253 376.889 96.968 377.423 96.968C377.881 96.968 378.249 96.9093 378.527 96.792C378.804 96.664 378.943 96.504 378.943 96.312C378.943 96.152 378.809 96.0293 378.543 95.944C378.276 95.848 377.935 95.768 377.519 95.704C377.103 95.6293 376.665 95.5386 376.207 95.432C375.556 95.2613 374.948 95.064 374.383 94.84C373.817 94.616 373.359 94.312 373.007 93.928C372.665 93.544 372.495 93.032 372.495 92.392C372.495 91.88 372.617 91.432 372.863 91.048C373.108 90.6533 373.433 90.328 373.839 90.072C374.255 89.8053 374.724 89.608 375.247 89.48C375.769 89.352 376.308 89.288 376.863 89.288C377.823 89.288 378.649 89.4053 379.343 89.64C380.047 89.864 380.719 90.1626 381.359 90.536L379.903 92.744C379.583 92.52 379.215 92.328 378.799 92.168C378.393 91.9973 377.983 91.8693 377.567 91.784C377.161 91.688 376.783 91.64 376.431 91.64C376.047 91.64 375.743 91.6986 375.519 91.816C375.305 91.9333 375.199 92.0986 375.199 92.312C375.199 92.44 375.332 92.5626 375.599 92.68C375.876 92.7866 376.399 92.9306 377.167 93.112C377.625 93.2186 378.111 93.3306 378.623 93.448C379.135 93.5546 379.615 93.7093 380.063 93.912C380.521 94.104 380.889 94.3866 381.167 94.76C381.455 95.1226 381.599 95.608 381.599 96.216C381.599 97.24 381.188 98.04 380.367 98.616C379.545 99.2026 378.404 99.496 376.943 99.496ZM177.411 122.432C176.611 122.432 175.886 122.224 175.235 121.808C174.584 121.403 174.067 120.853 173.683 120.16C173.31 119.456 173.123 118.672 173.123 117.808C173.123 116.997 173.272 116.267 173.571 115.616C173.87 114.955 174.275 114.389 174.787 113.92C175.31 113.451 175.902 113.093 176.563 112.848C177.224 112.592 177.918 112.464 178.643 112.464C179.251 112.464 179.848 112.549 180.435 112.72C180.478 112.496 180.515 112.272 180.547 112.048L183.283 112.512C183.208 112.715 183.134 113.019 183.059 113.424C182.984 113.829 182.92 114.283 182.867 114.784C182.824 115.285 182.787 115.787 182.755 116.288C182.723 116.789 182.707 117.243 182.707 117.648C182.707 117.979 182.728 118.304 182.771 118.624C182.824 118.933 182.931 119.189 183.091 119.392C183.251 119.584 183.496 119.68 183.827 119.68H184.051L183.651 122.464C182.947 122.464 182.366 122.341 181.907 122.096C181.448 121.861 181.08 121.541 180.803 121.136C180.344 121.648 179.822 121.989 179.235 122.16C178.648 122.341 178.04 122.432 177.411 122.432ZM175.747 118.128C175.8 118.64 176.008 119.051 176.371 119.36C176.744 119.659 177.214 119.808 177.779 119.808C178.323 119.808 178.776 119.664 179.139 119.376C179.502 119.077 179.8 118.672 180.035 118.16C180.024 117.989 180.019 117.813 180.019 117.632C180.019 117.259 180.03 116.875 180.051 116.48C180.072 116.085 180.099 115.696 180.131 115.312C179.683 115.141 179.214 115.056 178.723 115.056C178.147 115.056 177.63 115.173 177.171 115.408C176.723 115.632 176.371 115.947 176.115 116.352C175.859 116.757 175.731 117.227 175.731 117.76C175.731 117.824 175.731 117.888 175.731 117.952C175.731 118.016 175.736 118.075 175.747 118.128ZM188.603 122.48C187.921 122.48 187.355 122.357 186.907 122.112C186.47 121.877 186.118 121.552 185.851 121.136C185.595 120.72 185.403 120.256 185.275 119.744C185.158 119.221 185.078 118.683 185.035 118.128C185.003 117.563 184.987 117.019 184.987 116.496C184.987 115.899 185.003 115.291 185.035 114.672C185.078 114.053 185.121 113.376 185.163 112.64L188.091 112.464C188.059 112.688 188.011 113.024 187.947 113.472C187.883 113.92 187.825 114.432 187.771 115.008C187.718 115.584 187.691 116.187 187.691 116.816C187.691 117.851 187.782 118.619 187.963 119.12C188.145 119.611 188.417 119.856 188.779 119.856C189.505 119.856 190.038 119.328 190.379 118.272C190.721 117.216 190.891 115.547 190.891 113.264V112.528L192.251 112.496L193.899 112.464C193.75 113.467 193.638 114.389 193.563 115.232C193.489 116.075 193.441 116.784 193.419 117.36C193.398 117.925 193.387 118.304 193.387 118.496C193.387 118.987 193.43 119.339 193.515 119.552C193.601 119.755 193.75 119.856 193.963 119.856C194.07 119.856 194.187 119.835 194.315 119.792C194.443 119.749 194.593 119.675 194.763 119.568L194.651 122.32C194.246 122.384 193.894 122.416 193.595 122.416C193.083 122.416 192.662 122.32 192.331 122.128C192.011 121.936 191.755 121.68 191.563 121.36C191.233 121.712 190.822 121.984 190.331 122.176C189.851 122.379 189.275 122.48 188.603 122.48ZM197.954 122.528L195.938 120.784C196.45 120.187 197 119.584 197.586 118.976C198.173 118.357 198.776 117.744 199.394 117.136C198.648 116.485 197.949 115.904 197.298 115.392C196.658 114.869 196.162 114.501 195.81 114.288L197.41 112.176C197.986 112.592 198.61 113.067 199.282 113.6C199.954 114.133 200.632 114.699 201.314 115.296C201.944 114.72 202.562 114.16 203.17 113.616C203.778 113.061 204.36 112.539 204.914 112.048L206.77 113.968C206.429 114.213 205.944 114.619 205.314 115.184C204.685 115.739 204.002 116.357 203.266 117.04C203.97 117.68 204.632 118.315 205.25 118.944C205.88 119.563 206.434 120.139 206.914 120.672L204.962 122.448C204.77 122.213 204.493 121.909 204.13 121.536C203.768 121.163 203.346 120.747 202.866 120.288C202.397 119.829 201.896 119.36 201.362 118.88C200.85 119.381 200.365 119.867 199.906 120.336C199.458 120.805 199.064 121.227 198.722 121.6C198.381 121.984 198.125 122.293 197.954 122.528ZM214.088 122.32C214.078 121.723 214.072 121.115 214.072 120.496C214.072 119.867 214.072 119.259 214.072 118.672V114.88C213.624 114.912 213.192 114.96 212.776 115.024C212.371 115.088 211.992 115.168 211.64 115.264L211.304 112.704C211.688 112.619 212.126 112.544 212.616 112.48C213.118 112.416 213.635 112.368 214.168 112.336C214.232 111.749 214.339 111.179 214.488 110.624C214.648 110.069 214.872 109.573 215.16 109.136C215.448 108.688 215.827 108.331 216.296 108.064C216.766 107.797 217.347 107.664 218.04 107.664C218.926 107.664 219.779 107.845 220.6 108.208L220.056 110.752C219.352 110.432 218.771 110.272 218.312 110.272C217.822 110.272 217.48 110.448 217.288 110.8C217.096 111.141 216.974 111.627 216.92 112.256C217.496 112.267 218.04 112.293 218.552 112.336C219.075 112.368 219.528 112.411 219.912 112.464L219.656 114.976C219.283 114.912 218.846 114.864 218.344 114.832C217.854 114.789 217.336 114.768 216.792 114.768C216.771 115.312 216.755 115.845 216.744 116.368C216.734 116.88 216.728 117.392 216.728 117.904C216.728 118.587 216.734 119.291 216.744 120.016C216.766 120.731 216.787 121.499 216.808 122.32H214.088ZM224.833 122.432C224.033 122.432 223.307 122.224 222.657 121.808C222.006 121.403 221.489 120.853 221.105 120.16C220.731 119.456 220.545 118.672 220.545 117.808C220.545 116.997 220.694 116.267 220.993 115.616C221.291 114.955 221.697 114.389 222.209 113.92C222.731 113.451 223.323 113.093 223.985 112.848C224.646 112.592 225.339 112.464 226.065 112.464C226.673 112.464 227.27 112.549 227.857 112.72C227.899 112.496 227.937 112.272 227.969 112.048L230.705 112.512C230.63 112.715 230.555 113.019 230.481 113.424C230.406 113.829 230.342 114.283 230.289 114.784C230.246 115.285 230.209 115.787 230.177 116.288C230.145 116.789 230.129 117.243 230.129 117.648C230.129 117.979 230.15 118.304 230.193 118.624C230.246 118.933 230.353 119.189 230.513 119.392C230.673 119.584 230.918 119.68 231.249 119.68H231.473L231.073 122.464C230.369 122.464 229.787 122.341 229.329 122.096C228.87 121.861 228.502 121.541 228.225 121.136C227.766 121.648 227.243 121.989 226.657 122.16C226.07 122.341 225.462 122.432 224.833 122.432ZM223.169 118.128C223.222 118.64 223.43 119.051 223.793 119.36C224.166 119.659 224.635 119.808 225.201 119.808C225.745 119.808 226.198 119.664 226.561 119.376C226.923 119.077 227.222 118.672 227.457 118.16C227.446 117.989 227.441 117.813 227.441 117.632C227.441 117.259 227.451 116.875 227.473 116.48C227.494 116.085 227.521 115.696 227.553 115.312C227.105 115.141 226.635 115.056 226.145 115.056C225.569 115.056 225.051 115.173 224.593 115.408C224.145 115.632 223.793 115.947 223.537 116.352C223.281 116.757 223.153 117.227 223.153 117.76C223.153 117.824 223.153 117.888 223.153 117.952C223.153 118.016 223.158 118.075 223.169 118.128ZM232.585 122.336C232.542 121.824 232.505 121.168 232.473 120.368C232.452 119.568 232.441 118.699 232.441 117.76C232.441 116.928 232.446 116.069 232.457 115.184C232.478 114.299 232.505 113.429 232.537 112.576C232.58 111.712 232.622 110.907 232.665 110.16C232.718 109.403 232.777 108.741 232.841 108.176L235.625 108.368C235.476 109.456 235.358 110.56 235.273 111.68C235.198 112.789 235.15 113.92 235.129 115.072C235.726 114.656 236.42 114.219 237.209 113.76C238.009 113.291 238.969 112.763 240.089 112.176L241.593 114.688C240.441 115.051 239.422 115.467 238.537 115.936C237.652 116.395 236.926 116.859 236.361 117.328C236.254 117.403 236.185 117.456 236.153 117.488C236.121 117.52 236.105 117.541 236.105 117.552C236.105 117.616 236.281 117.733 236.633 117.904C237.102 118.149 237.588 118.389 238.089 118.624C238.59 118.859 239.15 119.099 239.769 119.344C240.388 119.579 241.097 119.829 241.897 120.096L240.793 122.464C239.822 122.176 238.852 121.813 237.881 121.376C236.91 120.939 236.03 120.496 235.241 120.048C235.252 120.411 235.268 120.779 235.289 121.152C235.321 121.525 235.348 121.899 235.369 122.272L232.585 122.336ZM247.399 122.448C246.375 122.448 245.473 122.245 244.695 121.84C243.927 121.445 243.324 120.891 242.887 120.176C242.46 119.461 242.247 118.635 242.247 117.696C242.247 117.131 242.343 116.539 242.535 115.92C242.727 115.291 243.036 114.704 243.463 114.16C243.889 113.616 244.449 113.173 245.143 112.832C245.847 112.491 246.7 112.32 247.703 112.32C248.428 112.32 249.036 112.4 249.527 112.56C250.028 112.72 250.433 112.928 250.743 113.184C251.063 113.44 251.303 113.712 251.463 114C251.633 114.288 251.745 114.565 251.799 114.832C251.863 115.088 251.895 115.301 251.895 115.472C251.895 116.507 251.457 117.307 250.583 117.872C249.719 118.427 248.492 118.704 246.903 118.704C246.54 118.704 246.193 118.688 245.863 118.656C245.543 118.624 245.244 118.587 244.967 118.544C245.169 119.077 245.505 119.472 245.975 119.728C246.444 119.973 246.929 120.096 247.431 120.096C248.156 120.096 248.796 119.968 249.351 119.712C249.905 119.445 250.428 119.04 250.919 118.496L252.343 120.544C252.001 120.821 251.617 121.109 251.191 121.408C250.775 121.707 250.263 121.952 249.655 122.144C249.047 122.347 248.295 122.448 247.399 122.448ZM247.751 114.72C247.121 114.72 246.567 114.88 246.087 115.2C245.607 115.52 245.255 115.941 245.031 116.464C245.297 116.507 245.559 116.544 245.815 116.576C246.081 116.597 246.343 116.608 246.599 116.608C246.833 116.608 247.1 116.587 247.399 116.544C247.708 116.501 248.007 116.437 248.295 116.352C248.593 116.267 248.839 116.16 249.031 116.032C249.223 115.893 249.319 115.733 249.319 115.552C249.319 115.467 249.276 115.36 249.191 115.232C249.105 115.104 248.951 114.987 248.727 114.88C248.503 114.773 248.177 114.72 247.751 114.72ZM257.367 122.32C257.335 121.381 257.308 120.512 257.287 119.712C257.276 118.912 257.271 118.123 257.271 117.344C257.271 116.565 257.276 115.787 257.287 115.008C257.308 114.219 257.34 113.376 257.383 112.48H260.087C260.044 112.96 260.007 113.445 259.975 113.936C260.337 113.477 260.769 113.099 261.271 112.8C261.772 112.491 262.364 112.336 263.047 112.336C263.719 112.336 264.268 112.448 264.695 112.672C265.132 112.896 265.473 113.205 265.719 113.6C265.975 113.995 266.156 114.448 266.263 114.96C266.38 115.461 266.455 116.005 266.487 116.592C266.519 117.168 266.535 117.749 266.535 118.336C266.535 118.976 266.524 119.589 266.503 120.176C266.481 120.763 266.46 121.253 266.439 121.648C266.417 122.043 266.401 122.277 266.391 122.352H263.703C263.724 121.915 263.745 121.451 263.767 120.96C263.788 120.459 263.809 119.968 263.831 119.488C263.852 118.997 263.863 118.555 263.863 118.16C263.863 115.888 263.495 114.752 262.759 114.752C262.151 114.752 261.596 115.019 261.095 115.552C260.604 116.075 260.193 116.736 259.863 117.536C259.863 117.643 259.863 117.749 259.863 117.856C259.863 118.368 259.863 118.901 259.863 119.456C259.873 120 259.884 120.523 259.895 121.024C259.916 121.515 259.932 121.941 259.943 122.304L257.367 122.32ZM272.93 122.448C271.906 122.448 271.005 122.245 270.226 121.84C269.458 121.445 268.855 120.891 268.418 120.176C267.991 119.461 267.778 118.635 267.778 117.696C267.778 117.131 267.874 116.539 268.066 115.92C268.258 115.291 268.567 114.704 268.994 114.16C269.421 113.616 269.981 113.173 270.674 112.832C271.378 112.491 272.231 112.32 273.234 112.32C273.959 112.32 274.567 112.4 275.058 112.56C275.559 112.72 275.965 112.928 276.274 113.184C276.594 113.44 276.834 113.712 276.994 114C277.165 114.288 277.277 114.565 277.33 114.832C277.394 115.088 277.426 115.301 277.426 115.472C277.426 116.507 276.989 117.307 276.114 117.872C275.25 118.427 274.023 118.704 272.434 118.704C272.071 118.704 271.725 118.688 271.394 118.656C271.074 118.624 270.775 118.587 270.498 118.544C270.701 119.077 271.037 119.472 271.506 119.728C271.975 119.973 272.461 120.096 272.962 120.096C273.687 120.096 274.327 119.968 274.882 119.712C275.437 119.445 275.959 119.04 276.45 118.496L277.874 120.544C277.533 120.821 277.149 121.109 276.722 121.408C276.306 121.707 275.794 121.952 275.186 122.144C274.578 122.347 273.826 122.448 272.93 122.448ZM273.282 114.72C272.653 114.72 272.098 114.88 271.618 115.2C271.138 115.52 270.786 115.941 270.562 116.464C270.829 116.507 271.09 116.544 271.346 116.576C271.613 116.597 271.874 116.608 272.13 116.608C272.365 116.608 272.631 116.587 272.93 116.544C273.239 116.501 273.538 116.437 273.826 116.352C274.125 116.267 274.37 116.16 274.562 116.032C274.754 115.893 274.85 115.733 274.85 115.552C274.85 115.467 274.807 115.36 274.722 115.232C274.637 115.104 274.482 114.987 274.258 114.88C274.034 114.773 273.709 114.72 273.282 114.72ZM282.666 122.48C281.78 122.48 281.028 121.792 280.41 120.416C280.196 119.925 280.01 119.387 279.85 118.8C279.69 118.213 279.551 117.616 279.434 117.008C279.327 116.4 279.236 115.819 279.162 115.264C279.098 114.699 279.044 114.203 279.002 113.776C278.97 113.339 278.943 113.008 278.922 112.784L281.546 112.176C281.674 114.597 281.866 116.437 282.122 117.696C282.388 118.955 282.591 119.584 282.73 119.584C282.804 119.584 282.895 119.435 283.002 119.136C283.119 118.837 283.247 118.443 283.386 117.952C283.524 117.451 283.658 116.901 283.786 116.304C283.914 115.707 284.026 115.104 284.122 114.496C283.994 113.717 283.908 113.099 283.866 112.64L286.57 112.544V112.736C286.57 113.173 286.602 113.685 286.666 114.272C286.73 114.859 286.81 115.467 286.906 116.096C287.002 116.715 287.103 117.291 287.21 117.824C287.327 118.357 287.439 118.789 287.546 119.12C287.652 119.451 287.743 119.616 287.818 119.616C287.882 119.616 287.972 119.472 288.09 119.184C288.207 118.896 288.335 118.501 288.474 118C288.623 117.499 288.772 116.928 288.922 116.288C289.071 115.637 289.215 114.955 289.354 114.24C289.492 113.515 289.604 112.795 289.69 112.08L292.33 112.64C292.148 113.653 291.93 114.661 291.674 115.664C291.428 116.656 291.167 117.579 290.89 118.432C290.612 119.275 290.34 119.984 290.074 120.56C289.476 121.829 288.735 122.464 287.85 122.464C287.562 122.464 287.231 122.373 286.858 122.192C286.495 122.021 286.159 121.659 285.85 121.104C285.743 120.901 285.636 120.656 285.53 120.368C285.423 120.08 285.322 119.76 285.226 119.408C285.098 119.803 284.97 120.155 284.842 120.464C284.276 121.808 283.551 122.48 282.666 122.48ZM298.365 122.496C297.639 122.496 296.967 122.411 296.349 122.24C295.73 122.069 295.17 121.851 294.669 121.584C294.167 121.317 293.719 121.035 293.325 120.736L294.765 118.416C295.213 118.832 295.645 119.152 296.061 119.376C296.477 119.6 296.909 119.755 297.357 119.84C297.815 119.925 298.311 119.968 298.845 119.968C299.303 119.968 299.671 119.909 299.949 119.792C300.226 119.664 300.365 119.504 300.365 119.312C300.365 119.152 300.231 119.029 299.965 118.944C299.698 118.848 299.357 118.768 298.941 118.704C298.525 118.629 298.087 118.539 297.629 118.432C296.978 118.261 296.37 118.064 295.805 117.84C295.239 117.616 294.781 117.312 294.429 116.928C294.087 116.544 293.917 116.032 293.917 115.392C293.917 114.88 294.039 114.432 294.285 114.048C294.53 113.653 294.855 113.328 295.261 113.072C295.677 112.805 296.146 112.608 296.669 112.48C297.191 112.352 297.73 112.288 298.285 112.288C299.245 112.288 300.071 112.405 300.765 112.64C301.469 112.864 302.141 113.163 302.781 113.536L301.325 115.744C301.005 115.52 300.637 115.328 300.221 115.168C299.815 114.997 299.405 114.869 298.989 114.784C298.583 114.688 298.205 114.64 297.853 114.64C297.469 114.64 297.165 114.699 296.941 114.816C296.727 114.933 296.621 115.099 296.621 115.312C296.621 115.44 296.754 115.563 297.021 115.68C297.298 115.787 297.821 115.931 298.589 116.112C299.047 116.219 299.533 116.331 300.045 116.448C300.557 116.555 301.037 116.709 301.485 116.912C301.943 117.104 302.311 117.387 302.589 117.76C302.877 118.123 303.021 118.608 303.021 119.216C303.021 120.24 302.61 121.04 301.789 121.616C300.967 122.203 299.826 122.496 298.365 122.496Z" fill="white"/>
</svg>
