<svg width="154" height="142" viewBox="0 0 154 142" fill="none" xmlns="http://www.w3.org/2000/svg">
<path d="M70.472 140.533C108.9 140.533 140.051 109.381 140.051 70.9534C140.051 32.5258 108.9 1.37402 70.472 1.37402C32.0443 1.37402 0.892578 32.5258 0.892578 70.9534C0.892578 109.381 32.0443 140.533 70.472 140.533Z" fill="#9B44FC" stroke="black" stroke-miterlimit="10"/>
<path d="M33.95 94.6C33.7167 94.6 33.3333 94.5667 32.8 94.5C32.2667 94.4333 31.7833 94.1667 31.35 93.7C30.95 93.2333 30.8333 92.4333 31 91.3C31.0333 91.1 31.1667 90.6 31.4 89.8C31.6333 89 31.9167 88.0833 32.25 87.05C32.5833 86.0167 32.9 85.05 33.2 84.15C33.5333 83.25 33.7833 82.6 33.95 82.2C34.1167 81.8 34.3333 81.25 34.6 80.55C34.8667 79.8167 35.1333 79.05 35.4 78.25C35.6667 77.45 35.9 76.7333 36.1 76.1C36.3333 75.4333 36.4833 74.9833 36.55 74.75C36.85 73.4833 36.9333 72.5 36.8 71.8C36.6667 71.0667 36.4667 70.4833 36.2 70.05C35.9 69.65 35.5667 69.4167 35.2 69.35C34.8667 69.25 34.5667 69.1833 34.3 69.15C34.1333 69.1167 33.7333 69.0833 33.1 69.05C32.5 69.0167 31.9 69 31.3 69C30.7 68.9667 30.3167 68.9667 30.15 69C29.8167 69.0333 29.4833 69.1667 29.15 69.4C28.8167 69.6 28.5167 69.9833 28.25 70.55C28.1167 70.7833 27.8667 71.2833 27.5 72.05C27.1333 72.8167 26.7667 73.6833 26.4 74.65C26.0333 75.6167 25.7667 76.5167 25.6 77.35C25.4333 78.1833 25.4667 78.75 25.7 79.05C25.1333 79.95 24.35 80.6167 23.35 81.05C22.35 81.4833 21.3167 81.5833 20.25 81.35C19.6167 81.2167 19 80.8833 18.4 80.35C17.8333 79.7833 17.4667 79.2167 17.3 78.65C17.1333 78.05 17.0333 77.4 17 76.7C17 75.9667 17.0333 75.2833 17.1 74.65C17.2 73.8833 17.35 72.9833 17.55 71.95C17.75 70.9167 17.9833 69.9 18.25 68.9C18.5167 67.8667 18.75 66.95 18.95 66.15C19.15 65.35 19.3 64.8 19.4 64.5C19.5 64.2 19.65 63.7333 19.85 63.1C20.05 62.4667 20.25 61.7833 20.45 61.05C20.6833 60.3167 20.9 59.6667 21.1 59.1C21.3 58.5 21.45 58.1167 21.55 57.95C21.7833 57.5833 22 57.25 22.2 56.95C22.4 56.6167 22.7833 56.3333 23.35 56.1C23.9167 55.8333 24.4833 55.7833 25.05 55.95C25.65 56.1167 26.2667 56.3833 26.9 56.75C27.6333 57.1833 28.25 57.65 28.75 58.15C29.2833 58.65 29.7667 59.0833 30.2 59.45C30.6333 59.8167 31.1 60.0333 31.6 60.1C33.5 60.3333 35.2833 60.65 36.95 61.05C38.65 61.4167 40.1167 61.8 41.35 62.2C42.5833 62.6 43.4333 62.95 43.9 63.25C44.6333 63.6833 45.1667 64.2333 45.5 64.9C45.8333 65.5333 46.0667 66.0667 46.2 66.5C46.3333 66.9333 46.4167 67.5167 46.45 68.25C46.5167 68.9833 46.4667 69.6167 46.3 70.15C46.2 70.3833 46.0333 70.8333 45.8 71.5C45.6 72.1333 45.35 72.85 45.05 73.65C44.7833 74.45 44.5 75.2333 44.2 76C43.9333 76.7333 43.7 77.3167 43.5 77.75C43.3 78.1833 43.0333 78.7833 42.7 79.55C42.4 80.2833 42.0833 81.05 41.75 81.85C41.45 82.65 41.1667 83.3667 40.9 84C40.6667 84.6 40.5 85 40.4 85.2C40.3333 85.4 40.2 85.7667 40 86.3C39.8 86.8 39.6 87.35 39.4 87.95C39.2333 88.55 39.1167 89.1333 39.05 89.7C39.0167 90.2333 39.1 90.6333 39.3 90.9C38.6333 92.4333 37.7833 93.4167 36.75 93.85C35.75 94.2833 34.8167 94.5333 33.95 94.6ZM72.7973 95.2C72.1639 95.5333 71.2806 95.6833 70.1473 95.65C69.0473 95.65 67.8973 95.4833 66.6973 95.15C66.4973 95.0833 65.9973 94.9333 65.1973 94.7C64.4306 94.4667 63.5306 94.2 62.4973 93.9C61.4973 93.6 60.5139 93.3 59.5473 93C58.6139 92.6667 57.8639 92.4 57.2973 92.2C55.6973 91.6 54.4973 91.05 53.6973 90.55C52.9306 90.05 52.4306 89.55 52.1973 89.05C51.9973 88.5167 51.8973 87.9333 51.8973 87.3C51.9306 86.7333 52.0973 86.15 52.3973 85.55C52.7306 84.9167 53.3139 84.0833 54.1473 83.05C54.3473 82.7833 54.7306 82.35 55.2973 81.75C55.8639 81.15 56.4806 80.4833 57.1473 79.75C57.8473 78.9833 58.5139 78.2333 59.1473 77.5C59.7806 76.7333 60.2639 76.0833 60.5973 75.55C60.9639 75.0167 61.4139 74.3833 61.9473 73.65C62.4806 72.9167 62.9806 72.15 63.4473 71.35C63.9139 70.55 64.2473 69.7667 64.4473 69C64.6473 68.2333 64.5973 67.55 64.2973 66.95C64.0639 66.4833 63.5139 66.2667 62.6473 66.3C61.7806 66.3 60.9306 66.5833 60.0973 67.15C59.2973 67.6833 58.6139 68.1333 58.0473 68.5C57.4806 68.8333 56.7473 69.0333 55.8473 69.1C54.7473 69.2 53.7139 69.0833 52.7473 68.75C51.8139 68.3833 51.0473 68.0333 50.4473 67.7C50.9806 65.6 51.7639 63.9 52.7973 62.6C53.8639 61.3 55.0473 60.3 56.3473 59.6C57.6473 58.9 58.9139 58.45 60.1473 58.25C62.5473 57.8167 64.7473 57.9167 66.7473 58.55C68.7473 59.1833 70.2806 59.9833 71.3473 60.95C72.4473 61.9833 73.2973 63.2167 73.8973 64.65C74.5306 66.05 74.7973 67.45 74.6973 68.85C74.5639 70.2833 74.0473 71.8333 73.1473 73.5C72.2806 75.1333 71.1306 76.8833 69.6973 78.75C69.5306 78.95 69.2639 79.3 68.8973 79.8C68.5306 80.2667 68.1306 80.7833 67.6973 81.35C67.2973 81.9167 66.9306 82.45 66.5973 82.95C66.2639 83.4167 66.0473 83.7333 65.9473 83.9C65.2139 85.2667 65.3973 86.1833 66.4973 86.65C66.7973 86.75 67.2806 86.8833 67.9473 87.05C68.6139 87.2167 69.3473 87.3833 70.1473 87.55C70.9473 87.6833 71.7139 87.8167 72.4473 87.95C73.2139 88.05 73.8306 88.1167 74.2973 88.15C74.8639 88.1833 75.3306 88.4833 75.6973 89.05C76.0639 89.6167 76.2139 90.2 76.1473 90.8C76.1139 91.4 75.8306 92.15 75.2973 93.05C74.7639 93.95 73.9306 94.6667 72.7973 95.2ZM120.185 59.75C120.151 60.1833 119.701 61.0167 118.835 62.25C118.001 63.45 116.885 64.9167 115.485 66.65C114.118 68.35 112.618 70.1833 110.985 72.15C109.351 74.1167 107.701 76.0667 106.035 78C104.401 79.9333 102.868 81.7167 101.435 83.35C100.035 84.9833 98.8681 86.35 97.9348 87.45C97.0348 88.5167 96.5014 89.1667 96.3348 89.4C95.7014 90.4 95.3348 90.9833 95.2348 91.15C95.1348 91.3167 95.0848 91.4 95.0848 91.4C95.1181 92.3333 94.8848 93.3167 94.3848 94.35C93.9181 95.3833 93.3348 96.1333 92.6348 96.6C92.6348 96.6 92.5348 96.5833 92.3348 96.55C92.1681 96.55 91.5514 96.5333 90.4848 96.5C89.8181 96.4667 89.1348 96.2667 88.4348 95.9C87.7348 95.5667 87.1848 95.05 86.7848 94.35C86.3848 93.65 86.3181 92.7667 86.5848 91.7C86.6848 91.2333 87.1848 90.3167 88.0848 88.95C88.9848 87.5833 90.1348 85.9333 91.5348 84C92.9348 82.0667 94.4848 80 96.1848 77.8C97.8848 75.5667 99.6014 73.3667 101.335 71.2C103.101 69 104.751 66.9833 106.285 65.15C107.851 63.2833 109.201 61.7333 110.335 60.5C111.468 59.2667 112.251 58.5167 112.685 58.25C113.451 57.75 114.285 57.4167 115.185 57.25C116.085 57.0833 116.918 57.0667 117.685 57.2C118.485 57.3 119.118 57.5667 119.585 58C120.085 58.4333 120.285 59.0167 120.185 59.75ZM92.1848 77.5C91.5514 77.7 90.7348 77.75 89.7348 77.65C88.7681 77.5167 87.7348 77.25 86.6348 76.85C85.5348 76.4167 84.5014 75.85 83.5348 75.15C82.5681 74.4167 81.7681 73.55 81.1348 72.55C80.5014 71.5167 80.1681 70.3333 80.1348 69C80.1014 67.3 80.2848 65.6667 80.6848 64.1C81.0848 62.5333 81.8681 61.2 83.0348 60.1C84.2014 59 85.9181 58.3333 88.1848 58.1C90.4848 57.8333 92.5014 58.0333 94.2348 58.7C95.9681 59.3333 97.3181 60.3667 98.2848 61.8C99.2514 63.2333 99.7348 65.0167 99.7348 67.15C99.7348 69.2833 99.3181 71.0667 98.4848 72.5C97.6848 73.9 96.7014 75.0167 95.5348 75.85C94.3681 76.65 93.2514 77.2 92.1848 77.5ZM87.4348 67.95C87.7014 68.4167 88.1348 68.8 88.7348 69.1C89.3681 69.3667 89.9848 69.4833 90.5848 69.45C91.1848 69.3833 91.5514 69.1 91.6848 68.6C91.8848 67.8333 91.7848 67.1667 91.3848 66.6C90.9848 66 90.3014 65.6667 89.3348 65.6C88.6348 65.5333 88.0348 65.7333 87.5348 66.2C87.0681 66.6333 87.0348 67.2167 87.4348 67.95ZM116.735 75.05C118.201 75.0833 119.485 75.4167 120.585 76.05C121.718 76.6833 122.651 77.5 123.385 78.5C124.151 79.5 124.735 80.5833 125.135 81.75C125.535 82.9167 125.751 84.05 125.785 85.15C125.818 86.25 125.568 87.3833 125.035 88.55C124.535 89.6833 123.818 90.75 122.885 91.75C121.951 92.75 120.835 93.5667 119.535 94.2C118.235 94.8 116.801 95.1 115.235 95.1C113.668 95.1 112.285 94.7 111.085 93.9C109.885 93.0667 108.901 92.0167 108.135 90.75C107.368 89.45 106.818 88.1 106.485 86.7C106.185 85.2667 106.135 83.95 106.335 82.75C106.535 81.55 107.001 80.4667 107.735 79.5C108.501 78.5333 109.418 77.7167 110.485 77.05C111.551 76.3833 112.635 75.8833 113.735 75.55C114.835 75.1833 115.835 75.0167 116.735 75.05ZM117.235 87.15C117.901 87.05 118.351 86.7667 118.585 86.3C118.818 85.8333 118.901 85.35 118.835 84.85C118.768 84.3167 118.601 83.9167 118.335 83.65C117.935 83.25 117.418 82.9667 116.785 82.8C116.185 82.6 115.668 82.5333 115.235 82.6C114.735 82.6667 114.318 82.9 113.985 83.3C113.685 83.6667 113.501 84.0833 113.435 84.55C113.401 84.9833 113.518 85.35 113.785 85.65C114.185 86.1167 114.601 86.5167 115.035 86.85C115.501 87.1833 116.235 87.2833 117.235 87.15Z" fill="white"/>
</svg>
