<svg width="1440" height="1226" viewBox="0 0 1440 1226" fill="none" xmlns="http://www.w3.org/2000/svg">
<path d="M1288.91 61.127C1384.63 83.6287 1480.86 51.7514 1517 33C1517 100.505 1514.76 234.39 1505.79 229.889C1494.58 224.264 1462.79 183.011 1395.48 153.009C1328.18 123.007 1288.91 214.888 1236.57 214.888C1184.23 214.888 1144.96 239.265 1103.83 214.888C1070.93 195.387 1108.81 165.51 1131.87 153.009C1092.61 121.131 1025.31 199.887 956.13 132.382C897.705 75.3713 1169.26 33 1288.91 61.127Z" fill="#302F2B" stroke="black"/>
<path d="M-62.0139 925.368C-62.0139 925.368 -15.789 879.961 17.2193 878.496C50.2276 877.031 88.1505 879.029 90.9399 881.625C93.7294 884.222 135.504 916.18 135.305 932.559C135.106 948.937 140.087 959.59 133.844 974.304C127.601 989.018 119.565 1000.2 103.227 1000.94C86.8887 1001.67 -36.3113 1003 -36.3113 1003C-36.3113 1003 -72.7732 954.663 -62.0139 924.503" fill="#694E9B"/>
<path d="M-62.0139 925.368C-62.0139 925.368 -15.789 879.961 17.2193 878.496C50.2276 877.031 88.1505 879.029 90.9399 881.625C93.7294 884.222 135.504 916.18 135.305 932.559C135.106 948.937 140.087 959.59 133.844 974.304C127.601 989.018 119.565 1000.2 103.227 1000.94C86.8887 1001.67 -36.3113 1003 -36.3113 1003C-36.3113 1003 -72.7732 954.663 -62.0139 924.503" stroke="black" stroke-miterlimit="10"/>
<path d="M939.896 774.368C939.896 774.368 986.12 728.961 1019.13 727.496C1052.14 726.031 1090.06 728.029 1092.85 730.625C1095.64 733.222 1137.41 765.18 1137.21 781.559C1137.02 797.937 1142 808.59 1135.75 823.304C1129.51 838.018 1121.47 849.204 1105.14 849.936C1088.8 850.668 965.598 852 965.598 852C965.598 852 909.836 831.503 939.896 773.503" fill="#694E9B"/>
<path d="M939.896 774.368C939.896 774.368 986.12 728.961 1019.13 727.496C1052.14 726.031 1090.06 728.029 1092.85 730.625C1095.64 733.222 1137.41 765.18 1137.21 781.559C1137.02 797.937 1142 808.59 1135.75 823.304C1129.51 838.018 1121.47 849.204 1105.14 849.936C1088.8 850.668 965.598 852 965.598 852C965.598 852 909.836 831.503 939.896 773.503" stroke="black" stroke-miterlimit="10"/>
<path d="M1318.9 1091.37C1318.9 1091.37 1365.12 1045.96 1398.13 1044.5C1431.14 1043.03 1469.06 1045.03 1471.85 1047.63C1474.64 1050.22 1516.41 1082.18 1516.21 1098.56C1516.02 1114.94 1521 1125.59 1514.75 1140.3C1508.51 1155.02 1500.47 1166.2 1484.14 1166.94C1467.8 1167.67 1344.6 1169 1344.6 1169C1344.6 1169 1288.84 1148.5 1318.9 1090.5" fill="#694E9B"/>
<path d="M1318.9 1091.37C1318.9 1091.37 1365.12 1045.96 1398.13 1044.5C1431.14 1043.03 1469.06 1045.03 1471.85 1047.63C1474.64 1050.22 1516.41 1082.18 1516.21 1098.56C1516.02 1114.94 1521 1125.59 1514.75 1140.3C1508.51 1155.02 1500.47 1166.2 1484.14 1166.94C1467.8 1167.67 1344.6 1169 1344.6 1169C1344.6 1169 1288.84 1148.5 1318.9 1090.5" stroke="black" stroke-miterlimit="10"/>
<path d="M1225 87L1230.4 101.598L1245 107L1230.4 112.402L1225 127L1219.6 112.402L1205 107L1219.6 101.598L1225 87Z" fill="#FED511"/>
<path d="M439.5 74L444.767 88.2332L459 93.5L444.767 98.7668L439.5 113L434.233 98.7668L420 93.5L434.233 88.2332L439.5 74Z" fill="#FED511"/>
<path d="M947.5 0L958.439 24.087L988 33L958.439 41.913L947.5 66L936.561 41.913L907 33L936.561 24.087L947.5 0Z" fill="#FED511"/>
<path d="M1130.5 269L1142.25 300.751L1174 312.5L1142.25 324.249L1130.5 356L1118.75 324.249L1087 312.5L1118.75 300.751L1130.5 269Z" fill="#FED511"/>
<path d="M169 382L173.321 392.949L185 397L173.321 401.051L169 412L164.679 401.051L153 397L164.679 392.949L169 382Z" fill="#FED511"/>
<path d="M260.5 215L273.599 250.401L309 263.5L273.599 276.599L260.5 312L247.401 276.599L212 263.5L247.401 250.401L260.5 215Z" fill="#FED511"/>
<path d="M92.4091 218.209C155.577 292.382 10.7838 288.537 -69.5089 277.343L-87 281.724L-83.002 139.364C-37.0253 125.25 194.5 110.53 207.351 172.946C274 218.209 181.864 215.289 92.4091 218.209Z" fill="#302F2B" stroke="black"/>
<path d="M270.986 788.368C270.986 788.368 317.211 742.961 350.219 741.496C383.228 740.031 421.15 742.029 423.94 744.625C426.729 747.222 468.504 779.18 468.305 795.559C468.106 811.937 473.087 822.59 466.844 837.304C460.601 852.018 452.565 863.204 436.227 863.936C419.889 864.668 296.689 866 296.689 866C296.689 866 260.227 817.663 270.986 787.503" fill="#694E9B"/>
<path d="M270.986 788.368C270.986 788.368 317.211 742.961 350.219 741.496C383.228 740.031 421.15 742.029 423.94 744.625C426.729 747.222 468.504 779.18 468.305 795.559C468.106 811.937 473.087 822.59 466.844 837.304C460.601 852.018 452.565 863.204 436.227 863.936C419.889 864.668 296.689 866 296.689 866C296.689 866 260.227 817.663 270.986 787.503" stroke="black" stroke-miterlimit="10"/>
<path d="M27 53L35.1027 74.8973L57 83L35.1027 91.1027L27 113L18.8973 91.1027L-3 83L18.8973 74.8973L27 53Z" fill="#FED511"/>
<path d="M559.771 1046.01C531.977 1038.78 546.885 1044.42 525.792 1028.78C517.226 1024.97 496.794 1017.17 483.601 1016.5C467.11 1015.65 469.968 1028.16 482.758 1036.55C495.549 1044.94 493.757 1049.21 478.497 1053.24C463.237 1057.28 478.147 1059.75 489.145 1072.42C500.144 1085.08 537.874 1078.69 557.178 1085.94C576.483 1093.18 561.387 1091.65 597.205 1104.37C633.022 1117.09 624.468 1096.88 634.169 1090.76C643.87 1084.65 648.267 1083.09 655.875 1074.86C663.484 1066.62 639.85 1071.67 629.871 1069.69C619.893 1067.7 613.518 1074.48 605.077 1064.76C596.636 1055.04 587.565 1053.24 559.771 1046.01Z" fill="#2C2C2C" fill-opacity="0.8" stroke="black"/>
<path d="M669.41 1149.39C623.451 1148.78 648.694 1150.83 610.412 1140.48C595.716 1138.75 561.1 1135.89 540.209 1138.29C514.096 1141.29 522.762 1152.8 545.608 1158.01C568.455 1163.21 567.079 1167.78 544.527 1175.24C521.975 1182.7 546.158 1181.66 567.629 1191.43C589.1 1201.21 646.06 1186.26 678.726 1188.85C711.393 1191.44 687.232 1193.43 747.599 1197.52C807.966 1201.62 787.793 1183.92 800.941 1175.73C814.089 1167.53 820.453 1165 829.612 1155.22C838.771 1145.45 803.442 1155.83 787.148 1156.21C770.854 1156.59 763.137 1164.66 746.659 1157.15C730.182 1149.65 715.369 1149.99 669.41 1149.39Z" fill="#2C2C2C" fill-opacity="0.8" stroke="black"/>
<path d="M740.429 1019.68C726.706 1019.56 734.246 1020.13 722.803 1017.12C718.413 1016.63 708.074 1015.83 701.84 1016.57C694.047 1017.5 696.649 1020.9 703.477 1022.41C710.305 1023.92 709.901 1025.27 703.177 1027.51C696.454 1029.75 703.672 1029.41 710.096 1032.28C716.519 1035.14 733.506 1030.63 743.262 1031.35C753.018 1032.07 745.807 1032.7 763.836 1033.83C781.865 1034.95 775.819 1029.74 779.734 1027.29C783.648 1024.85 785.545 1024.09 788.267 1021.18C790.989 1018.27 780.454 1021.39 775.59 1021.53C770.726 1021.67 768.432 1024.07 763.503 1021.87C758.573 1019.67 754.151 1019.79 740.429 1019.68Z" fill="#2C2C2C" fill-opacity="0.8" stroke="black"/>
<path d="M914.208 1031.52C901.147 1035.73 908.482 1033.89 896.673 1034.64C892.352 1035.55 882.287 1038.05 876.602 1040.71C869.495 1044.04 873.034 1046.44 879.991 1045.73C886.947 1045.02 886.989 1046.43 881.312 1050.67C875.634 1054.92 882.379 1052.32 889.378 1053.02C896.377 1053.72 911.083 1044.1 920.57 1041.71C930.058 1039.33 923.41 1042.19 940.878 1037.59C958.346 1032.99 950.967 1029.94 953.914 1026.38C956.861 1022.83 958.422 1021.51 960.09 1017.9C961.759 1014.28 952.743 1020.56 948.168 1022.22C943.593 1023.88 942.171 1026.88 936.8 1026.34C931.429 1025.8 927.27 1027.31 914.208 1031.52Z" fill="#2C2C2C" fill-opacity="0.8" stroke="black"/>
<path d="M1032.21 1051.52C1019.15 1055.73 1026.48 1053.89 1014.67 1054.64C1010.35 1055.55 1000.29 1058.05 994.602 1060.71C987.495 1064.04 991.034 1066.44 997.991 1065.73C1004.95 1065.02 1004.99 1066.43 999.312 1070.67C993.634 1074.92 1000.38 1072.32 1007.38 1073.02C1014.38 1073.72 1029.08 1064.1 1038.57 1061.71C1048.06 1059.33 1041.41 1062.19 1058.88 1057.59C1076.35 1052.99 1068.97 1049.94 1071.91 1046.38C1074.86 1042.83 1076.42 1041.51 1078.09 1037.9C1079.76 1034.28 1070.74 1040.56 1066.17 1042.22C1061.59 1043.88 1060.17 1046.88 1054.8 1046.34C1049.43 1045.8 1045.27 1047.31 1032.21 1051.52Z" fill="#2C2C2C" fill-opacity="0.8" stroke="black"/>
<path d="M433.238 1116.5C422.853 1107.53 428.231 1112.84 421.458 1103.14C418.43 1099.92 411.066 1092.62 405.835 1089.15C399.297 1084.81 399.081 1089.09 403.308 1094.66C407.535 1100.23 406.348 1101 399.773 1098.35C393.197 1095.71 398.921 1100.12 401.961 1106.47C405.002 1112.81 420.868 1120.37 427.838 1127.23C434.809 1134.1 428.907 1129.9 441.919 1142.43C454.931 1154.96 453.698 1147.08 458.266 1147.75C462.833 1148.42 464.771 1149.06 468.729 1148.61C472.686 1148.15 462.633 1143.72 458.838 1140.67C455.043 1137.63 451.74 1137.97 449.407 1133.1C447.074 1128.24 443.624 1125.47 433.238 1116.5Z" fill="#2C2C2C" fill-opacity="0.8" stroke="black"/>
<path d="M611.587 1025.52C597.986 1023.7 605.396 1025.2 594.418 1020.79C590.124 1019.75 579.965 1017.67 573.688 1017.63C565.84 1017.57 567.998 1021.27 574.584 1023.62C581.171 1025.97 580.599 1027.26 573.649 1028.65C566.698 1030.03 573.903 1030.59 579.919 1034.24C585.934 1037.89 603.351 1035.53 612.941 1037.46C622.531 1039.39 615.298 1039.12 633.045 1042.48C650.792 1045.85 645.445 1039.92 649.634 1037.99C653.824 1036.05 655.8 1035.53 658.864 1032.98C661.928 1030.44 651.086 1032.22 646.242 1031.75C641.399 1031.28 638.824 1033.37 634.208 1030.58C629.591 1027.78 625.188 1027.35 611.587 1025.52Z" fill="#2C2C2C" fill-opacity="0.8" stroke="black"/>
<path d="M961.606 1112.97C934.21 1121.86 950.343 1119.55 921.279 1112.16C911.544 1112.69 889.384 1115.77 878.627 1123.83C865.182 1133.89 877.58 1149.34 894.311 1152.3C911.042 1155.25 913.135 1162.42 904.612 1178.43C896.089 1194.43 909.642 1187.72 928.467 1197.84C947.292 1207.96 971.283 1173.36 992.123 1170.28C1012.96 1167.21 1000.03 1175.36 1038.11 1168.65C1076.19 1161.93 1053.1 1139.64 1055.63 1124.53C1058.16 1109.41 1060.28 1104.24 1059.47 1087.61C1058.65 1070.97 1044.47 1094.1 1035.13 1098.14C1025.8 1102.18 1026.38 1115.95 1011.94 1108.18C997.489 1100.41 989.001 1104.09 961.606 1112.97Z" fill="#2C2C2C" fill-opacity="0.8" stroke="black"/>
<path d="M765.941 1076.43C744.475 1079.04 756.636 1079.46 736.623 1070.94C729.426 1070.11 712.737 1069.46 703.559 1073.55C692.086 1078.66 698.604 1090.55 710.338 1094.58C722.072 1098.62 722.425 1103.69 713.572 1113.39C704.719 1123.09 715.72 1120.25 727.806 1129.35C739.893 1138.45 763.094 1118.16 778.819 1118.65C794.544 1119.14 783.76 1123.02 812.671 1123.18C841.581 1123.35 828.381 1105.55 832.709 1095.71C837.036 1085.87 839.44 1082.66 841.573 1071.39C843.707 1060.12 829.557 1073.91 822.075 1075.48C814.593 1077.05 812.76 1086.36 803.484 1079.38C794.208 1072.39 787.407 1073.82 765.941 1076.43Z" fill="#2C2C2C" fill-opacity="0.8" stroke="black"/>
</svg>
