<svg width="1440" height="664" viewBox="0 0 1440 664" fill="none" xmlns="http://www.w3.org/2000/svg">
<path d="M98.384 181.195C186.189 328.59 -15.0777 320.95 -126.687 298.705L-151 307.41L-145.443 24.5158C-81.5337 -3.53179 88.6586 -29.4516 258.156 91.2497C428.766 149.279 222.729 175.393 98.384 181.195Z" fill="#302F2B" stroke="black"/>
<path d="M153.5 1L166.599 36.4006L202 49.5L166.599 62.5994L153.5 98L140.401 62.5994L105 49.5L140.401 36.4006L153.5 1Z" fill="#FED511"/>
<path d="M322 553L330.103 574.897L352 583L330.103 591.103L322 613L313.897 591.103L292 583L313.897 574.897L322 553Z" fill="#FED511"/>
<circle cx="1375" cy="438" r="226" fill="#E2BB11"/>
<path d="M83 359L92.4532 384.182L118 393.5L92.4532 402.818L83 428L73.5468 402.818L48 393.5L73.5468 384.182L83 359Z" fill="#FED511"/>
<path d="M1116 29L1125.45 54.1819L1151 63.5L1125.45 72.8181L1116 98L1106.55 72.8181L1081 63.5L1106.55 54.1819L1116 29Z" fill="#FED511"/>
<path d="M1123.09 584.151C1157.51 636.849 1349.37 632.41 1441 623.604V393.931C1436.38 393.931 1421.31 391.254 1397.98 380.545C1368.82 367.16 1384.49 393.931 1327.98 393.931C1271.48 393.931 1290.8 376.671 1220.44 356.24C1150.07 335.808 1181.43 361.876 1093.93 393.931C1006.43 425.987 1060.28 411.5 1011.9 423.873C952.911 438.961 990.391 455.929 928.049 465.44C865.708 474.951 896.696 514.404 928.049 584.151C959.402 653.898 1080.08 518.279 1123.09 584.151Z" fill="#3E3E3E" fill-opacity="0.7"/>
<path d="M788 145L794.482 163.613L812 170.5L794.482 177.387L788 196L781.518 177.387L764 170.5L781.518 163.613L788 145Z" fill="#FED511"/>
<path d="M964.5 349L978.95 385.131L1018 398.5L978.95 411.869L964.5 448L950.05 411.869L911 398.5L950.05 385.131L964.5 349Z" fill="#FED511"/>
</svg>
