<svg width="1440" height="1526" viewBox="0 0 1440 1526" fill="none" xmlns="http://www.w3.org/2000/svg">
<path d="M799.094 188.875L799.165 189.118L799.26 189.353C822.939 247.862 847.593 316.867 866.317 383.321C885.069 449.871 897.763 513.489 897.754 561.368C897.749 585.343 894.552 604.856 887.743 618.735C881.066 632.343 870.995 640.464 856.564 642.406C841.71 644.404 821.535 639.953 794.823 626.392C768.206 612.879 735.639 590.6 696.225 557.772C536.963 425.12 404.138 411.009 302.617 448.682C201.585 486.174 132.897 574.481 100.473 644.285C43.3744 759.665 28.8523 853.96 40.9554 931.407C53.0649 1008.9 91.7375 1068.94 139.943 1115.93C188.096 1162.88 245.85 1196.9 296.39 1222.46C317.768 1233.28 337.919 1242.61 355.506 1250.75C358.71 1252.24 361.828 1253.68 364.854 1255.09C384.636 1264.29 400.153 1271.75 409.829 1278.16C420.466 1285.21 435.071 1291.21 452.334 1296.66C469.655 1302.13 489.971 1307.15 512.211 1312.13C528.232 1315.72 545.227 1319.28 562.875 1322.98C594.425 1329.6 628.058 1336.65 661.93 1345.06C714.65 1358.14 767.357 1374.39 812.35 1397C857.359 1419.62 894.245 1448.41 915.854 1486.38C927.98 1507.68 948.294 1518.22 973.102 1520.51C997.712 1522.78 1027.01 1517.01 1058.18 1505.68C1120.6 1483 1192.18 1437.45 1252.28 1385.31C1312.25 1333.28 1361.59 1274 1378.61 1223.51C1387.14 1198.17 1387.78 1174.28 1376.54 1154.66C1365.3 1135.04 1342.9 1120.94 1308.19 1113.58C1254.74 1102.24 1216.57 1079.61 1189.86 1050.58C1163.12 1021.52 1147.59 985.756 1139.91 947.784C1124.56 871.846 1140.78 787.752 1160.64 733.346C1204.5 652.733 1252.65 522.793 1254.57 394.36C1256.5 265.518 1211.84 137.614 1069.25 63.405C998.756 26.7191 944.703 9.30345 903.655 5.71239C862.479 2.11011 833.971 12.4137 815.486 31.5778C797.158 50.5802 789.496 77.4697 788.123 105.465C786.747 133.519 791.647 163.299 799.094 188.875Z" fill="#9B44FC" stroke="black" stroke-width="10"/>
<path d="M755.804 640.704C521.509 410.894 346.24 568.698 287.892 676.327C82.9255 1033.18 434.185 1151.22 494.503 1198.59C554.82 1245.96 821.035 1264.74 882.333 1395.77C943.631 1526.79 1418.55 1184.59 1207.82 1123.09C1039.24 1073.89 1072.91 889.203 1110.82 803.01C1188.69 678.867 1291.2 397.264 1078.31 263.991C865.418 130.717 846.973 262.923 864.362 345.685C925.799 539.779 990.099 870.515 755.804 640.704Z" fill="#F187FF" stroke="black" stroke-width="10"/>
<path d="M-2 312.04L42.0143 287.08L64.439 326.622L112.19 299.543L167.718 397.458L119.967 424.538L98.6098 386.878L54.5955 411.839L-2 312.04Z" fill="#1FD0EF" stroke="black" stroke-width="3"/>
<rect x="1426.64" y="560.124" width="90.9815" height="90.9815" transform="rotate(-129.222 1426.64 560.124)" fill="#1EF99A" stroke="black" stroke-width="3"/>
</svg>
