<svg width="1440" height="1170" viewBox="0 0 1440 1170" fill="none" xmlns="http://www.w3.org/2000/svg">
<path d="M1372 117.04L1416.01 92.0796L1438.44 131.622L1486.19 104.543L1541.72 202.458L1493.97 229.538L1472.61 191.878L1428.6 216.839L1372 117.04Z" fill="#9B44FC" stroke="black" stroke-width="3"/>
<path d="M-61.1353 265.647C-44.4664 337.76 -70.9017 408.176 -86.2029 434.37C156.068 403.069 231.876 238.875 239.495 160.69C248.416 134.562 248.252 73.9173 176.232 40.3576C104.212 6.79806 79.3635 77.6058 75.9416 117.205C80.2967 183.32 31.973 160.541 7.26671 140.888C-49.8508 126.777 -62.1336 218.181 -61.1353 265.647Z" fill="url(#paint0_linear_224_42)" stroke="black"/>
<path d="M-13.3269 295.337C-3.60768 338.796 -9.65559 366.327 -19.086 382.231C128.119 361.994 175.03 262.415 180.085 215.155C185.642 199.327 185.877 162.703 142.353 142.832C98.8296 122.961 76.1912 190.122 73.8965 214.056C76.1755 253.96 34.4333 224.093 19.5474 212.36C-15.039 204.153 -13.6714 266.677 -13.3269 295.337Z" fill="url(#paint1_linear_224_42)"/>
<path d="M-19.086 382.231L-19.5161 381.975C-19.614 382.141 -19.6087 382.347 -19.5026 382.507C-19.3964 382.667 -19.2081 382.752 -19.0179 382.726L-19.086 382.231ZM-13.3269 295.337L-13.8268 295.343L-13.8262 295.395L-13.8148 295.446L-13.3269 295.337ZM19.5474 212.36L19.857 211.968L19.7703 211.899L19.6629 211.874L19.5474 212.36ZM73.8965 214.056L73.3988 214.008L73.3951 214.046L73.3973 214.084L73.8965 214.056ZM142.353 142.832L142.561 142.377L142.353 142.832ZM180.085 215.155L179.613 214.99L179.594 215.044L179.587 215.102L180.085 215.155ZM-18.656 382.486C-9.14189 366.441 -3.1011 338.77 -12.8389 295.228L-13.8148 295.446C-4.11426 338.822 -10.1693 366.213 -19.5161 381.975L-18.656 382.486ZM-12.8269 295.331C-12.9994 280.984 -13.4241 258.25 -9.50016 240.129C-7.5372 231.064 -4.50019 223.227 0.139624 218.17C2.453 215.649 5.16066 213.823 8.33411 212.873C11.5082 211.922 15.1791 211.837 19.432 212.847L19.6629 211.874C15.2692 210.831 11.417 210.905 8.04716 211.915C4.67668 212.924 1.81954 214.86 -0.597211 217.494C-5.41764 222.748 -8.50215 230.795 -10.4775 239.917C-14.4303 258.171 -13.9989 281.029 -13.8268 295.343L-12.8269 295.331ZM19.2379 212.753C26.6766 218.616 40.8969 229.071 53.0028 233.047C59.0393 235.03 64.7127 235.456 68.7424 232.688C72.792 229.905 74.9682 224.052 74.3957 214.027L73.3973 214.084C73.9643 224.012 71.7774 229.389 68.1761 231.863C64.555 234.351 59.2897 234.06 53.3148 232.097C41.3979 228.183 27.3041 217.837 19.857 211.968L19.2379 212.753ZM74.3942 214.103C75.5349 202.206 81.7456 179.513 93.0817 162.292C98.7481 153.684 105.667 146.486 113.83 142.665C121.97 138.853 131.392 138.377 142.146 143.287L142.561 142.377C131.552 137.351 121.823 137.818 113.406 141.759C105.012 145.689 97.9669 153.052 92.2464 161.742C80.8087 179.117 74.5528 201.971 73.3988 214.008L74.3942 214.103ZM142.146 143.287C163.79 153.169 174.512 167.191 179.152 180.672C183.798 194.173 182.359 207.17 179.613 214.99L180.556 215.321C183.368 207.313 184.825 194.083 180.097 180.347C175.363 166.591 164.44 152.366 142.561 142.377L142.146 143.287ZM179.587 215.102C174.555 262.155 127.802 361.532 -19.1541 381.735L-19.0179 382.726C128.435 362.455 175.505 262.675 180.582 215.208L179.587 215.102Z" fill="black"/>
<rect x="1301.18" y="105.768" width="122.554" height="51.8398" transform="rotate(-31.8052 1301.18 105.768)" fill="#1FD0EF" stroke="black" stroke-width="3"/>
<rect x="1410.64" y="1167.12" width="90.9815" height="90.9815" transform="rotate(-129.222 1410.64 1167.12)" fill="#FFD313" stroke="black" stroke-width="3"/>
<defs>
<linearGradient id="paint0_linear_224_42" x1="174.439" y1="50.6078" x2="-19.6956" y2="382.664" gradientUnits="userSpaceOnUse">
<stop stop-color="#F18AFA"/>
<stop offset="1" stop-color="#F3AD85"/>
</linearGradient>
<linearGradient id="paint1_linear_224_42" x1="141.209" y1="149.032" x2="24.2416" y2="352.181" gradientUnits="userSpaceOnUse">
<stop stop-color="#F59FB7"/>
<stop offset="1" stop-color="#FED717"/>
</linearGradient>
</defs>
</svg>
