<svg width="426" height="651" viewBox="0 0 426 651" fill="none" xmlns="http://www.w3.org/2000/svg">
<g clip-path="url(#clip0_83_2)">
<path d="M284.216 105.748C275.793 156.07 239.945 226.706 202.762 220.506C165.578 214.305 142.296 168.436 150.719 118.115C159.141 67.7925 196.085 32.0293 233.234 38.2639C270.383 44.4985 292.604 55.4604 284.182 105.782L284.216 105.748Z" fill="#C590C0"/>
<path d="M366.938 64.538L368.171 66.0452V70.3957H408.333V68.3404C408.333 66.5591 408.367 64.7778 408.47 63.0307L409.531 43.8474C409.531 43.8474 409.531 43.7104 409.6 43.6418L412.784 40.1477C412.784 40.1477 418.331 35.1121 422.542 30.2478C426.753 25.3834 421.72 21.1699 421.72 21.1699L415.146 20.0395C415.146 20.0395 414.907 19.834 415.009 19.6969L421.652 10.6876C422.473 0.924684 414.53 2.74025 414.53 2.74025L407.922 9.18037C407.99 8.94058 408.059 8.73504 408.059 8.49525C408.641 -1.33621 399.294 2.39769 396.281 2.4662C392.138 2.56897 380.668 18.8405 378.031 19.971C377.894 20.0395 375.943 21.9236 375.84 22.0606C372.553 25.8288 367.383 27.1305 363.72 23.7734C362.898 23.0198 362.042 22.2319 361.117 21.4097C349.408 10.8247 348.209 25.9658 349.031 28.9803C349.613 31.2069 357.659 47.2045 361.665 58.2006L363.993 61.3522L366.87 64.5722L366.938 64.538Z" fill="#C38EBF" stroke="black" stroke-miterlimit="10"/>
<path d="M27.0149 336.77L26.7067 337.387C22.872 339.716 -2.43057 355.371 0.205823 360.818C1.23299 362.976 2.36287 363.592 3.45852 363.524C2.26015 364.963 -2.87568 371.334 2.19168 371.54C4.31449 371.608 6.64273 370.82 8.7313 369.896L9.24488 370.512C5.92371 374.212 -0.718627 382.433 5.92371 382.262C10.2378 382.159 29.754 366.264 29.754 366.264L34.5474 362.154C34.5474 362.154 23.6252 371.54 24.4812 374.623C25.3372 377.706 61.6304 354.96 61.6304 354.96L27.0149 336.804V336.77ZM26.0562 338.723L25.6453 339.031L26.2958 338.243L26.0562 338.723Z" fill="#C38EBF"/>
<path d="M364.438 68.5463L413.091 68.1694V108.557C413.091 112.223 412.406 115.854 411.037 119.279C406.449 130.755 393.952 156.481 371.765 165.114C342.833 176.384 316.366 183.543 312.6 188.648C308.834 193.752 276.101 212.764 271.753 236.777C267.405 260.791 233.645 375.24 237.925 387.058L126.375 391.203C126.375 391.203 138.29 282.646 135.071 276.377C131.853 270.108 66.0117 357.906 66.0117 357.906L21.3984 333.961L105.831 232.564L145.275 212.455L199.167 204.337C199.167 204.337 223.921 224.377 236.042 201.322C248.162 178.268 290.858 147.609 290.858 147.609C290.858 147.609 358.069 124.452 359.096 115.922C360.124 107.392 367.245 84.0642 364.438 68.5463Z" fill="#FECF2A" stroke="black" stroke-width="0.7" stroke-miterlimit="10" stroke-linecap="round"/>
<path d="M137.468 156.173C137.468 156.173 93.9848 193.752 102.921 222.492C111.858 251.233 155.341 239.004 155.341 239.004C155.341 239.004 195.811 224.239 203.857 190.703C211.904 157.166 204.474 139.011 183.554 132.057C162.634 125.103 172.152 103.693 177.014 102.665C181.465 101.74 200.468 103.419 201.324 98.6228C202.18 93.827 217.587 82.6253 219.333 54.741C219.333 54.741 230.564 37.8528 240.63 40.7303C250.696 43.6078 261.31 48.5406 268.466 63.442C275.656 78.3091 271.239 88.4146 271.239 88.4146C271.239 88.4146 281.717 85.0232 283.086 86.9758C283.086 86.9758 288.051 91.3948 283.839 98.0747C279.628 104.755 273.705 105.954 273.705 105.954C273.705 105.954 287.366 113.25 272.506 145.142C272.506 145.142 267.644 159.975 255.832 164.805C244.02 169.635 232.96 190.703 237.583 197.143C242.205 203.583 282.949 211.702 291.372 192.998C299.795 174.294 304.896 157.92 299.966 136.441C295.035 114.963 286.921 113.73 287.126 101.466C287.332 89.1682 292.125 69.8821 288.736 63.2707C285.346 56.6593 278.258 52.8569 281.169 47.2732C284.079 41.6895 310.34 21.2044 281.374 14.456C278.943 13.8736 276.375 14.0449 274.013 14.8671C268.672 16.7511 258.4 20.6563 252.134 24.6985C249.669 26.3085 246.793 27.1307 243.848 27.0622C229.126 26.7881 186.259 27.1992 177.288 41.0043C166.434 57.7555 154.759 45.8687 151.403 77.3842C148.048 108.9 145.24 112.222 144.761 112.599C144.282 112.976 119.664 123.458 137.434 156.139L137.468 156.173Z" fill="#010102"/>
<path d="M126.204 392.436L124.561 597.972C124.561 598.931 125.143 599.821 126.067 600.13C133.6 602.665 166.914 613.318 173.317 605.234C173.591 604.891 173.693 604.48 173.728 604.069C174.618 594.169 185.506 469.923 182.595 439.88C182.39 437.894 184.752 436.66 186.293 437.962C201.461 450.602 244.773 487.154 246.759 493.422C249.567 502.192 238.987 549.91 227.003 569.162C226.318 570.224 226.627 571.629 227.688 572.314L269.322 598.417C270.35 599.068 271.719 598.794 272.404 597.766C280.45 585.605 325.132 515.449 304.452 486.468C283.771 457.488 244.02 395.93 238.371 387.16C237.925 386.475 237.206 386.133 236.419 386.133L128.327 390.175C127.128 390.209 126.17 391.203 126.17 392.402L126.204 392.436Z" fill="#49C0E3" stroke="black" stroke-miterlimit="10"/>
<path d="M238.885 90.0931C238.885 97.972 229.401 102.699 221.492 102.699C213.583 102.699 209.098 98.8626 209.098 90.9495C209.098 83.0364 215.5 78.1035 223.375 78.1035C231.25 78.1035 238.851 82.18 238.851 90.0931H238.885Z" fill="white" stroke="black" stroke-width="0.5" stroke-miterlimit="10"/>
<path d="M230.736 94.4438C233.27 94.4438 235.324 92.3886 235.324 89.8535C235.324 87.3183 233.27 85.2632 230.736 85.2632C228.203 85.2632 226.148 87.3183 226.148 89.8535C226.148 92.3886 228.203 94.4438 230.736 94.4438Z" fill="black" stroke="black" stroke-width="0.5" stroke-miterlimit="10"/>
<path d="M272.507 77.7269C273.055 81.8033 273.911 84.9549 272.13 85.1947C270.35 85.4344 266.344 83.8587 265.796 79.8165C265.248 75.7743 269.186 71.9033 270.966 71.6636C272.746 71.4238 271.959 73.6504 272.507 77.7269Z" fill="white" stroke="black" stroke-width="0.3" stroke-miterlimit="10"/>
<path d="M271.24 78.3433C271.171 77.5896 271.034 76.836 271.514 76.8017C271.993 76.7675 272.438 77.3498 272.507 78.0692C272.575 78.7886 272.233 79.4394 271.719 79.5079C271.206 79.5765 271.274 79.0969 271.24 78.3433Z" fill="black" stroke="black" stroke-width="0.5" stroke-miterlimit="10"/>
<path d="M266.892 151.103C251.964 157.748 235.016 153.124 226.148 149.733C222.039 148.157 218.547 145.279 216.219 141.545C204.783 123.424 212.007 116.778 217.314 114.415C219.54 113.421 222.108 113.524 224.333 114.552C259.257 130.378 279.492 120.512 279.492 120.512C279.492 120.512 280.006 145.279 266.892 151.103Z" fill="#593278"/>
<path d="M233.92 155.111C233.92 155.111 245.185 159.427 255.285 156.926" stroke="black" stroke-width="0.5" stroke-miterlimit="10" stroke-linecap="round"/>
<path d="M211.905 114.655C211.905 114.655 203.551 120.341 208.481 126.644" stroke="black" stroke-width="0.5" stroke-miterlimit="10" stroke-linecap="round"/>
<path d="M233.407 73.5819C233.407 73.5819 219.78 67.8612 209.68 75.0207" stroke="black" stroke-width="0.5" stroke-miterlimit="10" stroke-linecap="round"/>
<path d="M279.491 63.0993C279.491 63.0993 268.398 60.7014 264.871 69.1969" stroke="black" stroke-width="0.5" stroke-miterlimit="10" stroke-linecap="round"/>
<path d="M250.697 73.0337C250.697 73.0337 256.792 92.5596 265.18 89.408L274.048 86.8046" stroke="black" stroke-width="0.5" stroke-miterlimit="10" stroke-linecap="round"/>
<path d="M180.474 127.912C182.384 127.912 183.932 126.363 183.932 124.452C183.932 122.541 182.384 120.992 180.474 120.992C178.564 120.992 177.016 122.541 177.016 124.452C177.016 126.363 178.564 127.912 180.474 127.912Z" fill="black"/>
<path d="M277.609 106.296L267.988 109.379" stroke="#010102" stroke-width="0.7" stroke-miterlimit="10" stroke-linecap="round"/>
<path d="M124.458 597.389C124.458 597.389 135.346 598.931 138.633 594.957C141.92 590.983 154.212 577.487 176.707 592.525C199.202 607.563 215.979 624.897 215.979 624.897C215.979 624.897 230.873 647.232 214.78 648.945C198.688 650.657 122.917 645.998 116.344 632.33C109.77 618.662 124.458 597.355 124.458 597.355V597.389Z" fill="#6EBC82" stroke="black" stroke-miterlimit="10"/>
<path d="M229.366 565.463C229.366 565.463 240.254 567.005 243.541 563.031C246.828 559.057 259.12 545.56 281.615 560.599C304.11 575.637 320.887 592.971 320.887 592.971C320.887 592.971 335.781 615.305 319.689 617.018C303.596 618.731 227.826 614.072 221.252 600.404C214.678 586.736 229.366 565.429 229.366 565.429V565.463Z" fill="#6EBC82" stroke="black" stroke-miterlimit="10"/>
<path d="M191.293 144.731C191.293 144.731 213.72 163.093 187.801 209.749" stroke="white" stroke-width="0.7" stroke-miterlimit="10" stroke-linecap="round"/>
<path d="M211.938 52.5831C211.938 52.5831 221.696 52.2748 195.777 98.9314" stroke="white" stroke-width="0.7" stroke-miterlimit="10" stroke-linecap="round"/>
<path d="M290.277 133.358C290.277 133.358 308.355 154.186 282.402 196.115" stroke="white" stroke-width="0.7" stroke-miterlimit="10" stroke-linecap="round"/>
<path d="M278.842 18.4297C278.842 18.4297 301.268 24.5615 280.006 42.2033" stroke="white" stroke-width="0.7" stroke-miterlimit="10" stroke-linecap="round"/>
<path d="M256.826 433.44C256.826 433.44 312.122 498.595 302.946 517.196" stroke="white" stroke-width="0.7" stroke-miterlimit="10" stroke-linecap="round"/>
<path d="M172.633 444.505L167.977 564.607" stroke="white" stroke-width="0.7" stroke-miterlimit="10" stroke-linecap="round"/>
<path d="M407.511 10.6538L394.5 26.7884" stroke="black" stroke-width="0.7" stroke-miterlimit="10" stroke-linecap="round"/>
<path d="M413.913 20.4507L400.902 36.551" stroke="black" stroke-width="0.7" stroke-miterlimit="10" stroke-linecap="round"/>
<path d="M367.35 25.1782C367.35 25.1782 385.12 35.0782 381.182 44.2588L367.35 25.1782Z" fill="#C38EBF"/>
<path d="M367.35 25.1782C367.35 25.1782 385.12 35.0782 381.182 44.2588" stroke="black" stroke-width="0.7" stroke-miterlimit="10" stroke-linecap="round"/>
<path d="M215.295 123.87C215.295 123.87 216.014 140.244 223.786 143.396C231.079 146.376 245.733 154.871 273.193 145.896C273.193 145.896 277.986 139.559 277.575 135.517C277.165 131.474 215.329 123.87 215.329 123.87H215.295Z" fill="black"/>
<path d="M279.218 126.473C279.218 126.473 263.434 132.057 219.574 119.964C219.574 119.964 209.61 122.671 220.224 129.796C230.838 136.921 273.363 138.805 275.623 137.161C280.724 133.427 279.218 126.473 279.218 126.473Z" fill="white"/>
</g>
<defs>
<clipPath id="clip0_83_2">
<rect width="426" height="651" fill="white"/>
</clipPath>
</defs>
</svg>
