<svg width="506" height="937" viewBox="0 0 506 937" fill="none" xmlns="http://www.w3.org/2000/svg">
<path d="M394.761 904.189C394.761 904.189 412.469 886.753 425.114 886.191C437.759 885.628 452.287 886.395 453.355 887.392C454.424 888.389 470.427 900.661 470.351 906.951C470.274 913.24 472.183 917.331 469.791 922.981C467.399 928.631 464.321 932.926 458.062 933.207C451.803 933.489 404.607 934 404.607 934C404.607 934 390.639 915.439 394.761 903.857" fill="#694E9B"/>
<path d="M394.761 904.189C394.761 904.189 412.469 886.753 425.114 886.191C437.759 885.628 452.287 886.395 453.355 887.392C454.424 888.389 470.427 900.661 470.351 906.951C470.274 913.24 472.183 917.331 469.791 922.981C467.399 928.631 464.321 932.926 458.062 933.207C451.803 933.489 404.607 934 404.607 934C404.607 934 390.639 915.439 394.761 903.857" stroke="black" stroke-miterlimit="10"/>
<path d="M383.67 805.206C381.514 807.745 380.703 811.35 382.123 814.371C383.163 816.58 385.242 818.51 389.299 819.017C389.299 819.017 427.386 821.734 432.61 841.69C432.762 842.274 432.939 842.832 433.218 843.366C435.627 848.215 448.179 875.889 431.443 894.499C414.707 913.11 398.808 917.299 394.32 918.619C393.458 918.873 392.57 919 391.657 919H167.319C166.457 919 165.595 918.873 164.758 918.645C155.883 916.131 107.323 899.273 123.146 835.47C123.171 835.317 123.222 835.19 123.273 835.063C124.211 832.067 135.952 796.954 174.292 783.574C176.549 782.787 178.476 781.238 179.592 779.106C180.86 776.719 182.052 773.418 181.468 770.245C180.353 764.253 168.333 738.102 181.621 710.428C181.621 710.428 186.185 694.839 208.423 692.224C209.184 692.148 209.945 692.148 210.68 692.224C214.433 692.706 225.667 694.661 229.521 701.491C231.271 704.588 234.643 706.442 238.193 706.264C243.569 706.01 249.604 702.964 248.083 689.99C247.88 688.289 247.246 686.664 246.206 685.318C241.439 679.098 226.96 657.618 237.001 636.901C248.894 612.375 266.264 602.829 266.264 602.829C266.264 602.829 286.195 590.921 300.294 604.504C300.294 604.504 316.675 615.472 303.388 645.178C302.779 646.523 302.449 647.996 302.551 649.469C302.855 652.998 304.934 659.066 315.128 662.468C319.591 663.966 323.826 666.048 327.908 668.383C337.519 673.893 352.252 683.287 358.642 692.402C358.642 692.402 358.414 692.122 358.464 692.173C365.64 700.628 366.325 712.84 360.214 722.107C357.475 726.245 355.041 729.952 355.041 729.952C354.914 730.663 347.535 742.901 358.16 743.916C368.785 744.932 401.293 733.075 405.021 749.908C408.748 766.741 400.33 785.402 383.695 805.155L383.67 805.206Z" fill="url(#paint0_linear_158_42)" stroke="black" stroke-miterlimit="10"/>
<path d="M199.468 806.561C199.468 806.561 222.802 823.025 236.064 806.967C242.771 798.824 242.469 786.977 236.215 778.479C231.066 771.503 223.304 763.639 213.659 762.142C195.625 759.352 187.913 798.418 199.468 806.536V806.561Z" fill="#FFD611" stroke="black" stroke-miterlimit="10"/>
<path d="M356.006 792.397C356.006 792.397 356.763 805.723 366.983 805.995C372.146 806.144 376.63 802.633 377.986 797.911C379.107 794.004 379.759 788.911 377.413 784.93C373.006 777.488 355.615 785.796 356.006 792.397Z" fill="#FFD611" stroke="black" stroke-miterlimit="10"/>
<path d="M179.73 918.975C179.73 918.975 159.809 902.055 163.443 869.813C167.076 837.596 203.715 831.179 207.095 830.544C210.474 829.91 256.438 832.98 257.251 800.992C258.064 769.003 259.106 732.322 259.106 732.322C259.106 732.322 261.241 705.256 284.337 705.002C307.433 704.748 304.943 730.978 304.943 730.978L307.205 772.377C307.205 772.377 309.39 782.955 319.071 785.213C328.751 787.471 335.23 789.551 337.695 789.855C339.245 790.058 358.708 800.51 350.45 823.974C350.45 823.974 339.499 840.717 338.483 843.609C338.483 843.609 334.367 851.98 340.617 855.48C346.868 858.981 356.447 860.427 359.877 861.112C362.9 861.721 375.452 869.686 376.062 877.322C376.062 877.322 382.033 897.641 373.013 909.259C363.968 920.877 364.018 918.772 364.018 918.772L179.704 919L179.73 918.975Z" fill="url(#paint1_linear_158_42)" stroke="black" stroke-miterlimit="10"/>
<path d="M154 889.991C154 889.991 137.061 870.982 107.297 880.831C77.5324 890.68 91.0733 930 91.0733 930H154C154 930 140.74 912.113 154 889.991Z" fill="#694E9B" stroke="black" stroke-miterlimit="10"/>
<path d="M159.283 883.604C159.283 883.604 149.081 888.784 148.804 898.144C148.527 907.503 147.142 917.221 148.804 921.939C150.467 926.658 152.155 930.632 159.283 932.042C166.412 933.453 209.259 932.889 209.259 932.889C209.259 932.889 204.725 916.375 228 906.093C228 906.093 189.511 878.527 159.283 883.63V883.604Z" fill="#694E9B" stroke="black" stroke-miterlimit="10"/>
<path d="M224.782 900.166C224.782 900.166 209.523 906.788 205.754 918.734C201.985 930.68 213.525 934.195 214.455 933.992C215.384 933.788 276.881 933.992 276.881 933.992C276.881 933.992 274.816 911.908 283 901.21C283 901.21 278.508 882.718 261.468 886.513C244.429 890.309 224.756 900.166 224.756 900.166H224.782Z" fill="#694E9B" stroke="black" stroke-miterlimit="10"/>
<path d="M367.676 886.174C367.676 886.174 349.597 890.517 347 899.991C347 899.991 356.268 912.131 354.18 916.83C352.093 921.529 350.794 934 350.794 934L413.075 933.568C413.075 933.568 427.003 929.784 421.86 916.119C416.717 902.454 376.587 884.015 367.65 886.174H367.676Z" fill="#694E9B" stroke="black" stroke-miterlimit="10"/>
<path d="M298.611 885.025C298.611 885.025 282.368 890.164 279.552 902.856C279.552 902.856 264.366 935.542 277.063 935.618C289.761 935.695 344.623 936 344.623 936C344.623 936 354.907 934.041 355.184 925.037C355.46 916.032 359.986 904.535 344.347 895.251C328.708 885.992 298.636 885 298.636 885L298.611 885.025Z" fill="#694E9B" stroke="black" stroke-miterlimit="10"/>
<path d="M485.546 177.786C486.019 177.245 484.06 176.097 484.431 175.455C487.742 170.083 483.756 164.339 478.993 157.245C474.231 150.116 477.237 143.258 474.13 138.156C471.022 133.055 463.253 144.711 461.362 140.42C454.606 124.913 445.689 130.521 442.244 138.528C442.143 138.764 442.075 138.967 442.041 139.204C441.433 144.271 438.292 176.637 437.313 172.482L435.86 173.664C435.86 173.664 435.725 173.765 435.658 173.799L319.397 237.585C309.636 242.923 302.002 238.429 309.467 230.659L357.464 171.029C358.14 170.319 358.342 169.306 357.869 168.495C357.194 167.346 356.822 166.096 356.822 164.711C356.822 160.116 358.072 160.387 363.206 160.387C364.355 160.387 366.922 158.528 368.779 157.718C370.401 157.008 371.819 156.062 372.968 154.846L395.328 131.534L417.148 108.797C420.897 104.878 420.424 98.8646 416.101 95.5199C401.914 84.5399 367.327 90.4522 371.448 79.2019C372.765 77.3438 371.076 67.6138 372.427 65.4853C386.039 43.9644 384.283 45.8902 343.075 45.3496C301.833 44.8428 336.86 29.1329 314.871 5.88902C298.929 -10.9696 268.901 19.6732 251.776 38.694C248.77 42.0387 243.737 43.3901 239.211 42.0049H239.143C201.55 30.4843 85.087 83.4588 31.179 157.954C30.0306 159.542 27.4636 159.373 26.5178 157.684C24.3561 153.866 23.7143 148.359 25.1667 142.008C27.4973 131.771 14.8648 125.352 9.42669 121.027C3.9886 116.703 -4.59074 132.649 6.11655 144.778C16.8238 156.907 14.0203 187.144 14.0203 187.144C11.7235 227.855 -1.4157 246.808 13.5812 277.755C44.2169 341.034 28.3418 392.792 77.7912 432.557C81.3377 435.394 85.9314 437.016 90.6939 437.016C101.503 437.016 110.251 444.82 110.251 454.449C110.251 454.584 138.015 476.004 140.245 477.828C140.346 477.896 140.447 477.997 140.582 478.065C178.379 500.633 193.173 493.876 243.602 503.775C384.587 531.411 486.559 448.807 504.968 270.626C505.441 266.065 500.78 212.077 485.614 177.921L485.546 177.786Z" fill="#302F2B" stroke="black" stroke-miterlimit="10"/>
<path d="M238.262 507.858C235.171 526.998 260.159 538.55 273.04 541.933C271.107 541.933 265.311 546.428 257.582 564.408C247.922 586.884 278.191 583.258 282.699 578.183C287.207 573.108 288.495 571.658 306.528 557.883C324.561 544.108 303.952 541.933 306.528 507.858C309.104 473.783 302.02 475.958 282.699 448.408C263.379 420.858 258.87 449.133 262.09 470.883C265.311 492.633 242.127 483.933 238.262 507.858Z" fill="#302F2B"/>
<defs>
<linearGradient id="paint0_linear_158_42" x1="279.78" y1="977.243" x2="280.415" y2="656.831" gradientUnits="userSpaceOnUse">
<stop stop-color="#F6AC8B"/>
<stop offset="1" stop-color="#C38EBF"/>
</linearGradient>
<linearGradient id="paint1_linear_158_42" x1="269.143" y1="862.482" x2="154.156" y2="681.672" gradientUnits="userSpaceOnUse">
<stop stop-color="#FFD60E"/>
<stop offset="1" stop-color="#C38EBF"/>
</linearGradient>
</defs>
</svg>
