<svg width="89" height="256" viewBox="0 0 89 256" fill="none" xmlns="http://www.w3.org/2000/svg">
<path d="M30.0065 12.9298C37.4465 6.44981 45.4266 1.21977 55.6866 0.259766C59.5266 -0.100234 63.2166 -0.200212 66.9266 0.719788C69.1766 -0.330212 79.99 1.95981 80.5 4.48981C78.57 6.67981 66.5766 4.53981 64.1566 4.48981C45.2066 4.12981 32.5766 12.9098 26.0366 30.6298C25.5766 31.8698 25.1865 33.1798 23.8465 33.8298C20.5665 32.0998 21.9666 29.2598 22.5566 26.9698C23.3666 23.8498 24.8265 20.8898 26.0165 17.8698C28.0065 16.7598 28.9865 14.8298 30.0065 12.9398V12.9298Z" fill="white"/>
<path d="M20.0874 159.659C18.1074 156.409 15.9476 153.259 14.2076 149.889C12.8876 147.349 12.6474 144.489 13.5974 141.669C13.8974 138.039 16.0875 135.469 18.8875 133.689C24.8975 129.879 31.3974 127.549 38.7174 128.699C42.9674 131.259 46.2775 134.689 48.3975 139.219C50.2275 145.399 49.0475 147.099 42.7975 147.209C40.6675 147.249 38.5174 147.119 36.4774 147.869C33.9874 148.499 34.0275 150.049 34.9275 151.999C35.7275 153.749 37.0775 155.359 36.5575 157.529C36.3575 158.039 36.0475 158.459 35.6275 158.809C30.5575 161.189 25.4674 163.089 20.0974 159.659H20.0874Z" fill="url(#paint0_linear_201_332)"/>
<path d="M68.9467 170.929C69.2767 180.529 69.08 197.809 68.5 207.409C66.42 209.609 63.67 209.229 61.09 209.219C57.62 209.199 54.45 209.349 53.78 213.799C53.67 214.549 53.2967 209.399 52.2667 209.219C52.1067 204.389 51.9567 197.739 51.7967 192.909C50.3767 191.239 51.2366 189.539 51.7466 187.859C51.4266 183.729 51.2466 179.779 50.8566 176.109C50.6566 175.589 50.5567 175.049 50.5167 174.499C50.3567 171.179 50.1767 167.849 52.2667 164.949C58.5467 164.919 64.8167 164.949 68.9467 170.939V170.929Z" fill="#F39DBF"/>
<path d="M36.9569 59.7391C35.9669 55.0391 34.7669 50.3691 34.0769 45.6191C33.6169 42.4691 32.0469 42.7491 29.9269 43.4991C29.9669 43.3091 29.9269 43.1391 29.7969 42.9991C31.7069 40.8591 34.4669 40.3891 36.9369 39.3291C40.5269 41.6191 40.5768 46.1391 43.1068 49.1091C43.9068 50.5491 44.8369 51.9491 44.9069 53.6791C44.9069 53.8391 44.8468 54.0091 44.8668 54.1691C45.1968 56.1091 41.8969 55.6591 42.5369 57.0491C43.4669 59.0591 45.7269 57.9491 47.4469 58.0591C48.4569 58.2091 49.2968 58.7191 50.1268 59.2591C62.3468 67.1591 75.5069 62.0291 79.3269 47.8991C79.5369 47.1091 79.5668 46.2691 79.8668 45.4891C80.3268 44.4991 80.9868 43.7391 82.0968 43.4691C86.3668 46.6591 86.4569 51.6091 87.3969 56.1791C87.6969 57.6091 87.1969 59.1491 87.7069 60.5991C87.8569 62.0291 87.6469 63.3791 86.8169 64.5891C86.2169 65.5691 85.3169 65.6391 84.3169 65.4491C82.2769 65.0591 82.3368 61.4591 79.4868 62.3191C75.7268 65.1391 72.6769 68.9091 68.1569 70.6591C67.1369 71.6491 65.6068 72.1191 65.1068 73.6491C64.3868 74.9591 63.7369 76.3291 62.2969 77.0391C61.3469 77.3691 60.3268 76.7891 59.3868 77.2591C58.0168 78.0691 57.9168 80.4491 55.7268 80.2491C53.9168 79.6391 53.4869 77.8891 52.6969 76.4891C49.8969 71.5491 47.0968 66.7291 41.4868 64.2891C39.5668 63.4491 38.1268 61.6191 36.9668 59.7491L36.9569 59.7391Z" fill="black"/>
<path d="M21.1156 251.939C20.7456 251.249 20.3856 250.569 20.0156 249.879C22.5156 245.419 26.4357 243.319 31.4357 243.259C33.1557 243.239 34.6856 242.759 36.2156 242.159C37.5056 241.029 40.2656 244.869 40.7156 240.839C40.7156 240.529 40.7556 240.229 40.8656 239.939C41.9056 238.559 43.2957 239.929 44.4557 239.519C43.6957 238.789 42.0356 238.929 42.3456 237.239C43.8456 237.159 45.3456 237.069 46.8456 236.989C53.1356 235.869 59.5057 236.119 65.8257 236.389C68.2957 236.499 69.1957 241.069 66.6857 243.339C61.4757 248.049 56.3956 253.519 48.1656 252.119C44.5356 251.499 40.8856 251.479 37.2556 252.219C31.8756 252.089 26.4856 252.569 21.1056 251.969L21.1156 251.939Z" fill="#1FD0EF"/>
<path d="M16.0065 182.09C16.6965 181.74 17.3965 181.39 18.0865 181.04C20.3565 179.57 21.4066 181.97 22.9166 182.54C21.6566 181.43 19.7565 180.25 21.2765 178.23C22.6965 176.34 24.5265 177.65 26.0065 178.27C24.7265 177.32 22.2965 177.09 23.0265 174.37C23.7565 173.66 22.86 182.88 24.5 182.54C20.62 181.15 21.9465 169.1 22.7565 165.96C22.8165 165.8 22.8666 165.63 22.9266 165.47C27.1466 163.31 31.6465 162.29 36.3765 162.18C37.5365 162.71 38.1065 163.68 38.3665 164.88C38.5165 169.46 39.3065 174.02 38.7465 178.62C37.2565 186.24 32.5465 191.27 25.7165 194.47C23.2265 195.63 21.2066 195.71 21.2066 191.85C21.2066 189.66 19.3565 188.05 18.0165 186.4C16.9765 185.12 15.5665 184.06 16.0065 182.11V182.09Z" fill="#1FD0EF"/>
<path d="M38.2161 251.579C42.4761 249.599 46.9861 251.089 51.3561 250.609C57.5961 249.929 61.8761 245.649 66.0061 241.699C68.3961 239.419 66.7161 236.829 63.2161 236.709C60.1261 236.599 57.0061 236.039 54.2861 238.559C51.2961 241.329 49.3761 237.349 46.8461 236.959C44.0561 233.609 40.07 250.095 36 247.445C40.21 246.665 39.12 241.175 43.25 240.435C47.2 239.725 49.5762 224.829 52.8162 225.879C56.0662 226.569 58.2361 228.029 57.0861 231.869C56.1561 235.219 56.19 225.065 59.5 224.945C67.69 224.665 68.9861 235.829 68.8861 244.099C68.8561 246.579 68.8661 249.069 68.8661 251.549C67.4461 253.159 65.5661 253.539 63.5261 253.699C54.9661 254.379 46.6162 252.619 38.2062 251.569L38.2161 251.579Z" fill="#1FD0EF"/>
<path d="M48.7661 93.579C51.0461 88.899 54.4862 84.819 55.9362 79.709C57.3362 78.539 57.1361 76.149 59.1661 75.459C61.6761 76.799 60.7861 78.809 60.2161 80.759C55.5561 89.899 51.1961 99.2289 45.3661 107.729C44.8061 108.539 44.3461 109.439 44.4161 110.469C48.0561 112.529 51.2361 109.909 54.6061 109.539C60.9561 107.599 65.3461 103.329 68.7961 97.839C72.3861 92.109 77.1762 87.209 80.3162 81.149C81.0462 79.739 82.0762 78.279 84.0562 78.269C84.8562 78.459 85.76 76.1653 86 76.9453C82.89 88.3853 74.1761 99.309 67.1761 108.199C63.0161 113.489 56.3762 114.299 50.3262 115.949C49.1962 116.259 48.0261 116.179 46.8661 116.069C45.5161 115.879 44.1761 115.709 42.8961 116.409C40.8661 117.309 38.7262 117.269 36.5762 117.159C35.8162 117.129 35.1261 116.909 34.4961 116.489C34.3261 116.309 34.1661 116.119 33.9961 115.939C38.1461 112.109 40.7961 107.229 43.5861 102.429C45.3061 99.469 47.0361 96.529 48.7661 93.579Z" fill="white"/>
<path d="M2.24705 200.569C-0.812952 199.419 0.137073 196.849 0.147073 194.609C6.76707 194.239 13.3171 195.879 19.9371 195.249C23.9571 195.599 27.167 193.649 30.367 191.599C31.777 190.699 32.8071 188.679 35.0271 189.799C34.8771 194.889 33.2471 198.979 27.8071 200.479C19.2971 202.209 10.7871 203.229 2.26707 200.559L2.24705 200.569Z" fill="white"/>
<path d="M57.0866 231.87C56.7266 229.12 54.5267 227.67 52.8167 225.88C52.6167 224.71 51.6066 223.46 53.1366 222.45C58.1366 219.93 63.0566 219.44 67.8466 222.95C67.8666 224.92 67.9766 226.9 67.8766 228.86C67.7666 231.02 68.7266 233.99 65.4666 234.47C62.4366 234.91 58.8166 236.09 57.0866 231.86V231.87Z" fill="#9B44FC"/>
<path d="M49.0973 176.759C49.2173 177.159 48.9773 176.619 49.0973 177.019C51.2873 185.859 33.8273 196.299 27.7373 200.169C24.9673 198.549 34.3874 191.869 33.9474 188.599C33.4174 188.079 41.1773 184.389 41.2273 183.649C41.9773 181.229 44.1974 179.589 44.7074 177.039C45.6074 175.339 42.7373 170.089 44.7573 169.109C47.0973 168.459 48.4073 174.959 49.0973 176.769V176.759Z" fill="white"/>
<path d="M41.6471 183.919C41.7471 184.459 41.8371 184.989 41.9371 185.529C37.7871 183.979 36.9271 187.739 35.0171 189.809C30.8471 192.949 26.5572 195.849 21.2072 196.559C20.8072 196.339 20.4271 196.089 20.0771 195.789C18.5971 191.209 14.9171 187.979 12.7871 183.789C13.3471 182.249 14.5371 181.909 16.0171 182.089C19.4871 185.309 23.2471 188.369 22.7471 193.919C30.0971 191.779 34.8271 187.139 37.1371 179.989C40.1271 179.599 40.6171 182.079 41.6571 183.929L41.6471 183.919Z" fill="#1FD0EF"/>
<path d="M68.8276 211.769C68.8276 213.829 68.8276 215.89 68.8176 217.95C63.9476 220.63 59.0475 220.539 54.1175 218.099C49.6975 217.239 50.4876 214.47 51.7076 211.54C57.4276 210.56 63.1776 207.779 68.8276 211.759V211.769Z" fill="#F39DBF"/>
<path d="M1 192.843C1.01038 191.021 2.57806 190.072 3.29443 188.65C6.36758 184.394 10.5828 185.058 14.3515 186.754C18.0061 188.397 20.612 191.431 19.8748 196.12C14.175 196.994 8.62057 195.962 3.08684 194.75C2.03823 194.518 1.10382 194.15 1 192.843Z" fill="#1FD0EF"/>
<path d="M19.7958 130.049C18.4158 128.559 19.3458 127.169 19.9758 125.769C22.3858 122.039 26.4558 120.519 29.9958 118.329C31.4458 117.429 33.0958 117.479 34.6058 118.469C37.2958 121.299 38.5158 124.239 35.1758 127.459C30.0758 128.479 25.2858 131.379 19.7958 130.049Z" fill="url(#paint1_linear_201_332)"/>
<path d="M19.797 130.049C24.697 128.359 29.517 126.189 34.927 127.259C36.677 126.429 38.127 126.709 39.167 128.429C39.287 128.919 39.1469 129.319 38.7369 129.629C28.8469 130.489 19.2569 131.959 13.5869 141.659C12.1269 135.899 17.307 133.699 19.787 130.049H19.797Z" fill="white"/>
<path d="M36.056 162.579C32.016 165.069 27.636 165.999 22.926 165.459C21.336 163.839 20.8059 161.699 20.0859 159.659C25.4159 160.169 30.586 159.359 35.646 157.699C37.626 159.169 37.496 160.819 36.056 162.569V162.579Z" fill="#9B44FC"/>
<path d="M25.0661 49.7092C17.0461 54.1492 10.5961 59.7692 9.9261 69.7592C7.6161 63.2392 10.4561 57.9292 13.8861 52.7492C16.1861 47.2092 21.3361 47.4092 26.0361 46.6992C26.4561 46.7392 26.8761 46.7792 27.3061 46.8292C26.5561 47.7892 25.8161 48.7592 25.0661 49.7192V49.7092Z" fill="white"/>
<path d="M54.1166 218.1C59.0066 217.37 63.9167 217.83 68.8167 217.95C68.7467 219.67 68.7966 221.41 67.8566 222.96C62.9566 222.79 58.0466 222.63 53.1466 222.46C52.4266 220.77 52.7066 219.31 54.1166 218.1Z" fill="#F39DBF"/>
<path d="M19.2974 195.689C14.7874 187.459 10.7173 185.749 3.02734 188.849C4.34734 184.749 6.26735 183.749 12.7874 183.779C17.3474 186.369 19.6073 190.559 20.8773 195.439C20.4973 196.419 19.9274 196.249 19.2974 195.689Z" fill="#1FD0EF"/>
<path d="M23.0071 175.199C25.5871 177.169 29.5671 177.319 31.1471 181.389C27.3271 181.849 25.0171 177.959 21.1671 178.519C22.7271 182.099 27.3071 182.409 28.1371 186.849C23.9271 185.609 21.447 182.519 18.097 181.039C16.167 177.559 20.5971 177.789 21.1671 175.769C21.6471 175.139 21.8671 173.659 23.0071 175.199Z" fill="black"/>
<path d="M52.9465 163.579C58.5965 163.849 64.2564 163.989 69.7264 165.669C70.0964 167.519 69.3465 169.199 68.9465 170.929C64.3065 167.049 58.0864 167.379 52.9064 164.959C52.6664 164.489 52.6865 164.029 52.9465 163.579Z" fill="url(#paint2_linear_201_332)"/>
<path d="M68.827 211.769C63.117 211.699 57.417 211.619 51.707 211.549C51.877 210.689 52.047 209.819 52.207 208.959C57.797 209.549 63.087 207.469 68.567 207.079C68.647 208.649 68.737 210.209 68.817 211.769H68.827Z" fill="#F39DBF"/>
<path d="M37.1056 242.989C35.7356 243.849 34.4356 244.849 32.6656 244.739C27.6256 244.409 23.4256 246.189 20.0156 249.879C22.3556 243.169 27.6156 241.47 34.0056 241.69C35.3156 241.48 36.4956 241.569 37.1056 242.999V242.989Z" fill="#1FD0EF"/>
<path d="M33.7866 118.68C28.4666 119.65 24.5366 123.32 19.9766 125.77C22.6766 119.67 27.8066 117.04 33.9966 115.94L34.0865 115.93C34.8265 116.94 34.8166 117.87 33.7866 118.68Z" fill="white"/>
<path d="M19.2965 195.689C19.8265 195.609 20.3465 195.529 20.8765 195.439C20.9865 195.809 21.0965 196.179 21.1965 196.549C14.0865 196.939 6.96648 197.369 0.146484 194.609C0.366484 194.009 0.596528 193.419 0.816528 192.829C6.78653 194.989 12.9265 196.089 19.2965 195.689Z" fill="#1FD0EF"/>
<path d="M20.0258 76.7493C20.3358 75.0693 20.6458 73.3793 20.9658 71.6993L20.9359 71.7493C24.4859 70.8193 23.3858 73.1294 23.1158 74.8694C23.4258 77.2194 23.7258 79.5694 24.0358 81.9194C20.9158 78.6094 22.5258 84.2094 20.8558 83.6194C19.1058 81.5094 18.2158 79.2893 20.0358 76.7593L20.0258 76.7493Z" fill="white"/>
<path d="M42.3558 237.219C42.5158 237.249 42.6757 237.299 42.8357 237.319C44.9657 237.609 47.2558 237.719 48.1358 240.149C48.3458 240.729 47.9158 242.039 47.4058 242.299C45.0858 243.509 43.9958 240.989 42.2458 240.349C41.7958 240.189 41.3258 240.059 40.8658 239.919C38.6358 237.519 41.4358 237.879 42.3558 237.209V237.219Z" fill="black"/>
<path d="M37.1058 242.989C36.0758 242.549 35.0359 242.119 34.0059 241.679C35.9759 239.309 38.4158 240.559 40.7158 240.829C41.2858 241.419 41.8459 242.029 42.4359 242.599C43.1759 243.319 43.9259 244.069 43.0159 245.119C42.1959 246.069 41.2558 245.779 40.3558 245.169C39.2758 244.439 38.1858 243.719 37.0958 242.989H37.1058Z" fill="black"/>
<path d="M83.6362 78.7697C78.6962 87.4297 72.4662 95.1996 66.6462 103.25C63.8162 107.15 59.6062 109.2 55.2362 110.89C52.1762 110.85 53.9062 108.43 53.3662 107.14C54.3662 98.0997 55.8062 89.1497 58.8662 80.5297C59.1362 78.8497 60.5763 77.2397 59.1763 75.4697C61.6163 72.4797 60.7063 77.1897 62.0463 76.7197C63.7163 78.3597 63.3263 80.3397 62.8163 82.2297C61.6163 86.6597 60.9463 91.1697 60.5563 95.7197C60.7663 98.5097 59.6263 101.24 60.0763 104.8C64.6363 102.08 66.0663 97.4397 68.9163 94.0597C73.6763 88.5497 76.3563 81.6896 80.6563 75.8796C83.1763 73.7996 82.6563 68.6497 87.5663 68.9897C88.1063 70.7897 87.1462 72.1997 86.3462 73.6497C86.8762 76.1197 85.7462 77.7097 83.6262 78.7897L83.6362 78.7697Z" fill="#9B44FC"/>
<path d="M87.5767 68.9696C83.7267 70.0596 84.8967 74.9896 81.7367 76.5996C80.9967 76.4196 80.1267 76.5596 79.6467 75.7496C79.3467 74.7496 79.4267 73.7296 79.4967 72.7096C80.6867 69.8796 81.4667 66.8096 84.1167 64.8396C85.0267 64.7596 85.9366 64.6796 86.8366 64.5996C88.2866 65.8496 87.7666 67.4496 87.5866 68.9796L87.5767 68.9696Z" fill="#9B44FC"/>
<path d="M35.9865 156.18C40.5065 161.3 44.6864 166.67 47.9764 172.68C47.2564 174.29 46.5465 175.9 45.8265 177.51C42.9265 177.21 43.7665 174.74 43.3165 173.07C42.8965 171.5 42.8164 168.91 41.0964 169.14C37.0364 169.69 37.6365 166.83 37.0365 164.7C36.7065 163.99 36.3765 163.28 36.0565 162.58C35.9165 160.95 35.7865 159.33 35.6465 157.71C35.7565 157.2 35.8665 156.69 35.9865 156.19V156.18Z" fill="#1FD0EF"/>
<path d="M23.846 33.8287C26.246 17.4787 40.906 3.98874 57.586 2.89874C62.066 2.60874 66.556 2.66872 71.046 2.56872C73.496 0.698724 76.57 1.12881 78.5 2.56881C82.54 3.95526 85.47 8.0518 87.046 12.4453C88.096 14.1253 87.836 15.4453 87.836 16.7687C87.916 19.0787 88.336 21.4387 87.046 23.5887C85.786 25.7587 83.496 26.1087 81.386 26.7787C75.806 26.0187 70.486 24.6087 66.226 20.5787C64.406 18.8587 62.016 18.0688 59.886 16.8588C58.506 16.0788 57.736 16.5787 57.406 18.0287C57.296 18.4787 57.1261 18.8987 56.9461 19.3187C53.9061 27.1787 47.7661 31.7188 40.3061 34.8588C39.2261 35.3188 37.4061 35.5488 39.3161 37.2888C39.3861 38.0488 39.096 38.6787 38.646 39.2487C38.326 39.6087 37.9561 39.9088 37.5561 40.1588C35.1961 41.6988 32.7661 43.0788 29.8061 43.0388C26.6661 40.7288 23.146 38.6688 23.856 33.8588L23.846 33.8287Z" fill="#FFD313"/>
<path d="M41.0867 90.6596C40.1867 93.0696 38.7267 93.5495 36.2167 92.7095C30.5567 90.8195 26.8067 86.9696 24.0267 81.9196C23.4267 79.7596 21.3167 78.1396 21.7667 75.6096C22.6267 72.4996 23.3867 69.3396 25.2467 66.8696C23.9667 68.2296 23.4568 70.4496 21.6868 71.7396C21.2768 71.9996 20.8367 72.0796 20.3667 72.0296C18.0167 70.3996 18.8667 68.2896 19.6267 66.2996C20.9067 62.9396 23.3768 60.5596 26.3268 58.6496C28.8668 56.9996 30.0667 55.3396 26.7167 53.2296C25.4567 52.4396 24.3867 51.3895 24.3467 49.6995C24.5067 47.8895 26.1667 47.6196 27.3067 46.8096C28.1867 45.7096 29.0568 44.5995 29.9368 43.4995C33.2768 40.6295 34.7667 42.5895 35.8367 45.7495C37.3167 50.0895 36.9668 54.8095 38.7068 59.0795C39.0668 60.5295 39.6867 61.8396 40.6267 63.0296C43.1567 66.2396 43.6767 69.7695 42.5167 73.6995C41.3867 77.5395 41.8367 81.5195 41.8767 85.4495C41.8967 87.2195 42.3967 89.0796 41.0867 90.6496V90.6596Z" fill="#FFD313"/>
<path d="M36.957 59.7395C40.177 63.7795 46.277 63.3095 49.317 68.2495C51.637 72.0195 53.987 75.7295 55.947 79.6995C56.377 85.7895 53.047 89.9195 48.777 93.5695C45.467 94.5595 42.5769 94.4495 41.0969 90.6395C39.4769 84.3095 39.0769 77.8995 41.2269 71.6795C42.3469 68.4295 40.747 66.2795 39.407 63.8895C38.617 62.4895 36.9469 61.6095 36.9769 59.7295L36.957 59.7395Z" fill="#FFD313"/>
<path d="M25.0668 49.709C25.4568 50.239 25.7367 50.919 26.2467 51.279C32.6467 55.829 32.5467 55.669 26.1067 60.729C22.6867 63.409 20.85 67.9753 23 73.4453C24.49 75.3853 21.4668 75.469 20.7068 77.309C19.1168 79.459 17.1268 80.119 14.6468 78.919C12.3368 76.249 10.3668 73.399 9.91678 69.769C8.30678 60.359 16.6968 50.169 25.0668 49.719V49.709Z" fill="#FFD313"/>
<path d="M20.0262 76.749C20.2962 79.039 20.5762 81.3291 20.8462 83.6091C17.6062 83.5791 16.2563 81.079 14.6562 78.899C16.7963 79.059 18.3562 77.759 20.0262 76.749Z" fill="#FFD313"/>
<path d="M81.9863 44.0893C82.5763 39.7993 86.0264 42.7893 87.8964 41.7693C87.8364 48.0493 87.7763 54.3293 87.7263 60.5993C87.0863 54.6493 83.9163 49.5793 81.9863 44.0793V44.0893Z" fill="#FFD313"/>
<path d="M81.0164 26.2595C80.9264 26.5795 80.8963 26.9295 80.7463 27.2095C79.4863 29.4395 80.4163 33.5295 77.6263 33.9195C75.1463 34.2695 75.9564 30.1295 74.4464 28.4995C70.1764 23.8595 65.0564 20.2995 59.7064 17.0495C58.3564 16.2295 57.1863 16.8295 56.2363 17.9495C56.2663 16.2895 56.5564 14.6995 57.4364 13.2295C64.9464 18.3095 72.3464 23.4295 81.0164 26.2695V26.2595Z" fill="#FFD313"/>
<path d="M55.9569 18.9495C54.9869 24.7195 51.7269 29.0695 47.3269 32.6595C46.3369 33.4695 44.9368 33.8295 44.9768 35.4595C43.2268 36.9595 41.5269 38.6195 38.8969 37.5495C37.4969 37.1695 36.0868 36.7995 33.9668 36.2295C42.8568 31.8695 52.0469 28.6295 55.9569 18.9395V18.9495Z" fill="#FFD313"/>
<path d="M23.1057 74.8695C22.8057 73.5295 23.0258 71.8295 20.9258 71.7495C22.1258 68.0595 24.5157 65.3195 28.3457 63.4795C26.5957 67.2795 24.8457 71.0695 23.1057 74.8695Z" fill="#FFD313"/>
<path fill-rule="evenodd" clip-rule="evenodd" d="M42.0012 49.2983C39.6327 47.0963 38.7177 44.1949 37.8022 41.2927C37.5455 40.479 37.2888 39.6651 37 38.8665C37.46 38.7065 37.92 38.5465 38.37 38.3866C41.3 38.6765 43.65 38.1065 43.99 34.5765C44.3 33.2566 44.89 32.0965 46.08 31.3866C51.11 28.4065 53.92 23.7265 56.01 18.4865C56.0551 18.3163 56.1027 18.1485 56.1503 17.9808C56.1976 17.8136 56.245 17.6463 56.2899 17.4765C57.1 14.9865 58.77 15.0865 60.5898 16.1765L60.9856 16.4127C67.0857 20.0532 73.2034 23.7042 77.51 30.0665C78.146 29.6032 78.5034 28.872 78.8618 28.139C79.3542 27.1317 79.8486 26.1207 81.0698 25.7965C82.6099 23.8565 84.6799 23.0965 87.1001 23.1165C88.1252 24.3094 87.9778 25.7022 87.8315 27.0844C87.8208 27.1853 87.8101 27.286 87.7998 27.3866C86.78 28.8665 85.6199 30.2365 84.4099 31.6566C84.9155 31.8194 85.3057 31.4709 85.6807 31.1361C86.2034 30.6694 86.6963 30.2292 87.4299 31.2365C88.2239 33.4019 88.1138 35.6147 88.0034 37.8297C87.9456 38.9902 87.8877 40.1513 87.96 41.3065C87.1924 42.5747 85.97 42.6795 84.7471 42.7845C83.7715 42.8683 82.7954 42.952 82.0498 43.6266C81.8511 43.9148 81.6523 44.2005 81.4536 44.4863C81.2524 44.7755 81.0513 45.0648 80.8501 45.3565C80.96 53.8761 76.21 59.1961 69 62.5061C62.0801 65.6961 55.2599 65.6461 49.1799 60.2461C48.4399 59.586 47.71 58.9261 46.98 58.2561C44.8705 57.6607 44.6566 56.0016 44.4429 54.3436C44.4053 54.0525 44.3678 53.7613 44.3199 53.476C43.9319 52.7756 43.5413 52.0725 43.1508 51.3695C42.7667 50.6782 42.3828 49.987 42.0012 49.2983ZM70.7446 42.3028C69.751 40.4815 68.4985 40.9757 67.2471 41.4692C66.5229 41.7549 65.7991 42.0404 65.1262 41.8767C64.9102 45.2942 62.4695 47.3131 60.0269 49.3338L59.71 49.5962C59.3179 49.9232 58.8369 50.2309 58.3484 50.5437C56.7307 51.5788 55.028 52.6686 56.1799 54.6961C57.49 57.0161 60.6899 56.0061 62.99 55.2561C67.9299 53.6661 69.3999 49.3561 70.45 44.9161C70.5596 44.4537 70.5911 43.9693 70.6226 43.4862C70.6487 43.0865 70.6746 42.6877 70.7446 42.3028ZM50.8247 47.0371C50.6001 46.7184 50.3927 46.3672 50.1865 46.0179C49.4615 44.7901 48.7506 43.586 47.35 43.8966C45.9496 44.2053 46.1541 45.2618 46.3749 46.4023C46.4875 46.9843 46.6044 47.5884 46.5144 48.1261C46.9221 48.0061 47.3247 47.8584 47.7272 47.7109C48.7346 47.3415 49.7413 46.9725 50.8247 47.0371Z" fill="url(#paint3_linear_201_332)"/>
<path d="M79.6674 75.5892C80.3574 75.9292 81.0373 76.2592 81.7273 76.5992C77.9373 82.7492 75.1073 89.5192 69.8773 94.7192C66.5573 96.8292 63.2873 99.2592 59.1073 96.6892C58.1573 89.7492 61.3374 83.4092 62.0374 76.7092C62.7274 75.3892 63.4173 74.0592 64.1073 72.7392C66.8773 71.5092 66.9573 74.3692 68.2373 75.4192C69.6173 77.5992 71.4773 77.0592 73.4873 76.5192C75.4973 75.9792 77.4274 74.6392 79.6674 75.5892Z" fill="#9B44FC"/>
<path d="M84.0956 64.8294C83.7256 68.1594 81.8556 70.7795 80.0256 73.4195C78.3656 76.7495 74.8956 76.6895 72.0056 77.4895C69.9856 78.0395 68.9956 76.4694 68.9756 74.5694C68.9456 72.3494 69.5957 70.2494 71.2957 68.7794C74.1557 66.2894 76.5556 63.3494 79.3856 60.8494C80.2956 60.1694 80.9956 57.6695 82.3356 60.4295C83.0256 61.8495 83.5156 63.3594 84.0956 64.8294Z" fill="url(#paint4_linear_201_332)"/>
<path d="M79.3974 60.8489C77.6574 65.0989 72.5174 66.7189 71.2574 71.3289C70.8374 72.8689 69.2074 74.5589 70.4974 75.9589C71.9374 77.5189 73.9574 76.3789 75.6074 75.6989C77.1374 75.0689 78.5574 74.1889 80.0274 73.4189C80.7474 74.2789 79.7674 74.8589 79.6674 75.5889C75.5274 77.2789 71.5374 80.5589 66.8674 76.8289C65.8674 74.4589 66.6173 72.1488 67.0873 69.8188C71.9273 67.8388 75.0774 63.5389 79.3974 60.8389V60.8489Z" fill="black"/>
<path d="M44.4711 53.1131C45.3611 54.7031 46.2411 56.2932 47.1311 57.8932C45.2211 60.3232 43.2611 59.9732 41.3511 57.9432C40.0511 56.5632 38.8711 54.6432 40.0111 53.0732C41.2811 51.3232 42.341 53.7532 43.581 54.0732C43.781 54.1232 44.1711 53.4531 44.4711 53.1131Z" fill="url(#paint5_linear_201_332)"/>
<path d="M67.0856 69.8193C68.8056 72.2093 66.1856 74.4693 66.8656 76.8293C65.3856 75.8493 66.5656 73.0594 64.1056 72.7394C63.7556 70.3894 66.4356 71.1393 67.0856 69.8293V69.8193Z" fill="#9B44FC"/>
<path d="M37.0469 164.699C38.2069 165.299 37.0468 169.429 40.8668 166.529C42.7668 165.089 44.1969 169.149 44.9169 171.379C45.5569 173.349 44.2769 175.639 45.8269 177.509C45.9669 180.639 43.6269 182.159 41.6469 183.919C39.5969 183.229 38.6368 181.289 37.1268 179.979C37.0968 174.889 37.0669 169.789 37.0469 164.699Z" fill="#1FD0EF"/>
<path d="M59.116 96.6897C62.706 96.0297 66.296 95.3797 69.886 94.7197C67.616 98.9697 65.156 103.09 61.596 106.41C60.776 107.18 59.656 108.04 58.486 107.3C57.566 106.72 57.776 105.51 57.906 104.55C58.266 101.93 58.716 99.3097 59.126 96.6997L59.116 96.6897Z" fill="#9B44FC"/>
<path d="M87.5111 31.3153C86.1611 31.8953 85.5212 32.9753 85.3012 34.3853C85.1412 35.3853 84.8812 36.5553 83.5412 36.1353C82.4712 35.7953 82.2912 34.6253 82.4512 33.6053C82.9512 30.4253 84.2411 27.8953 87.8711 27.4453C87.7411 28.7253 87.6211 30.0153 87.4911 31.2953L87.5111 31.3153Z" fill="black"/>
<path d="M38.58 37.3649C40.64 36.7649 42.1799 34.6249 44.6599 35.2749C47.2299 38.8449 43.22 39.0849 41.85 40.3249C39.97 42.0349 38.77 40.4349 38 38.6549C38.19 38.2249 38.39 37.7949 38.58 37.3649Z" fill="black"/>
<path d="M71.5197 40.6446C71.6897 43.6346 71.5896 46.5646 70.6096 49.4646C68.5596 55.5446 63.4696 58.6746 57.0996 57.7246C55.2696 57.4546 53.9396 56.7246 53.5996 54.8146C53.2796 53.0346 53.7696 51.6046 55.4896 50.6446C59.4896 48.4146 62.4796 45.1446 64.7496 41.1946C66.8896 39.6646 69.0396 38.1646 71.5096 40.6346L71.5197 40.6446Z" fill="black"/>
<path d="M62.3298 36.445C59.6898 36.465 59.7097 34.505 59.6897 32.705C59.6697 30.435 60.6598 28.5751 63.1098 28.7951C65.6598 29.0251 67.4798 31.0151 67.5998 33.4251C67.7898 37.2351 64.1098 35.285 62.3298 36.445Z" fill="black"/>
<path d="M51.4903 47.5145C49.7303 49.5245 47.8303 50.7145 45.3503 48.5945C44.5703 46.5545 42.6303 44.6745 44.2603 42.2645C45.0103 41.1645 46.2303 41.1145 47.3603 41.5245C50.1303 42.5245 51.4103 44.6245 51.4903 47.5145Z" fill="black"/>
<path d="M59.8695 23.4453C60.7995 23.6653 62.9295 23.2353 62.3895 24.5853C61.3895 27.0853 58.2794 27.3853 56.0694 28.5853C54.9794 29.1753 54.4095 27.7853 54.5895 26.7753C55.1095 23.8453 57.4495 23.6053 59.8695 23.4453Z" fill="black"/>
<path d="M58.1193 54.9252C57.7693 54.8252 56.7093 54.8452 56.2793 54.3352C55.6493 53.5952 56.3093 52.8252 57.0693 52.3352C60.8093 49.9652 63.3894 46.4852 66.0094 43.0352C66.5994 42.2552 67.2493 41.2352 68.4093 41.8552C68.8093 42.0752 68.9593 42.9952 68.9793 43.6052C69.1293 48.3352 63.1993 54.7652 58.1293 54.9152L58.1193 54.9252Z" fill="white"/>
<path d="M35.0161 146.609C37.0761 144.979 39.4761 145.749 41.7161 145.759C49.2161 145.769 49.3561 145.609 46.6361 138.759C47.9961 136.219 49.6161 137.879 50.2261 138.999C55.2761 148.299 64.3161 153.789 71.2261 161.309C71.7861 162.719 70.5561 163.51 70.1161 164.58C69.9861 164.94 69.8461 165.299 69.7161 165.669C63.9061 167.629 58.5661 164.719 53.0061 164.059C50.7661 162.239 51.1661 159.599 51.0461 157.219C50.8461 153.179 48.9461 151.04 44.9661 150.09C41.5661 149.28 37.6261 149.729 34.9961 146.609H35.0161Z" fill="black"/>
<path d="M87.7657 152.719C81.4557 154.379 76.3558 150.879 70.9458 148.749C68.8558 148.339 67.8758 146.649 67.3158 144.969C65.8258 140.549 62.5658 139.229 58.3158 138.379C51.4058 136.999 46.3457 132.699 42.8457 126.579C43.3957 125.989 44.0857 125.689 44.8657 125.569C47.8557 125.449 50.2457 127.099 52.7657 128.329C64.3157 133.959 71.5158 132.819 80.8258 124.079C82.7058 122.319 84.1958 119.179 87.7758 120.759C87.7758 121.819 87.7557 122.869 87.7557 123.929C87.3457 127.709 85.6958 130.739 82.4058 132.779C78.6958 134.519 75.8558 137.609 72.1958 139.429C71.5058 139.699 69.8757 139.119 70.8557 140.909C72.4257 143.779 74.6257 145.799 77.9657 146.429C79.7357 146.769 81.4957 147.159 83.2357 147.639C84.5557 148.199 85.9657 148.619 86.9857 149.719C88.1357 150.489 87.7258 151.669 87.7858 152.719H87.7657Z" fill="black"/>
<path d="M70.1272 164.579C70.3672 163.649 70.6072 162.729 70.8372 161.799C74.3372 159.769 76.0872 163.699 79.5972 164.159C76.5872 161.179 74.1273 158.319 72.1873 155.109C70.9573 153.079 69.0572 150.989 71.0272 148.339C76.7872 149.109 82.2272 151.099 87.7672 152.719C87.4972 158.019 88.9373 163.419 86.8273 168.609C82.4673 169.479 78.6973 167.969 74.9573 165.929C73.5173 165.139 72.2272 163.179 70.1172 164.589L70.1272 164.579Z" fill="#1FD0EF"/>
<path d="M46.1659 114.889C55.8359 113.759 64.6659 111.168 70.3059 102.228C75.0759 94.6685 81.3359 88.0885 84.9359 79.7585C85.4559 78.5685 86.1659 71.0749 87.7859 71.4449C87.8259 83.8149 87.7459 102.579 87.7859 114.949C83.1259 123.969 70.0858 130.519 60.1258 128.809C57.8358 128.419 55.5559 127.949 53.3159 127.339C46.1859 125.379 44.5059 122.458 46.1659 114.878V114.889Z" fill="#1FD0EF"/>
<path d="M87.7772 120.759C85.0572 120.939 84.0772 123.379 82.5072 124.949C73.1672 134.319 64.2272 135.859 52.4272 130.039C49.9072 128.799 47.3272 127.689 44.7772 126.529C43.5972 122.669 41.9372 118.869 43.0872 114.679C44.1872 113.649 45.2072 113.879 46.1572 114.899C46.1972 115.059 46.1972 115.249 46.2772 115.379C48.1072 118.099 45.7872 122.819 49.2772 124.199C54.9072 126.429 60.8672 128.309 67.1472 127.219C75.5572 125.759 81.5572 120.169 87.7772 114.969C87.7772 116.899 87.7772 118.829 87.7772 120.759Z" fill="#1FD0EF"/>
<path d="M82.0274 131.748C84.0474 129.218 86.3673 126.908 87.7573 123.918C87.7573 130.528 87.7573 137.138 87.7573 143.748C83.1273 144.478 77.3673 142.678 76.4873 139.848C74.9873 135.038 79.9873 134.338 82.0173 131.748H82.0274Z" fill="#1FD0EF"/>
<path d="M82.0257 131.748C81.4657 132.738 81.0457 133.858 80.3157 134.698C76.1557 139.438 76.3857 140.238 82.6757 142.148C84.3757 142.668 86.0656 143.218 87.7556 143.758C86.6756 145.638 86.7556 147.668 86.9656 149.718C85.5556 149.658 84.0457 150.038 82.9357 148.748C81.9957 145.758 79.0756 145.608 76.8356 144.458C74.4456 143.228 71.4457 142.488 71.9557 138.758C74.4657 135.208 78.1556 133.358 82.0156 131.758L82.0257 131.748Z" fill="#1FD0EF"/>
<path d="M42.9264 126.498C49.2764 131.258 54.4064 138.288 63.6864 137.608C65.4564 137.478 66.2263 138.668 66.8763 140.188C68.1163 143.088 69.5764 145.888 70.9464 148.738C72.3664 154.418 76.3564 158.358 80.1364 162.478C81.2664 163.708 83.7863 164.918 82.3463 166.778C81.1163 168.368 79.6064 165.948 78.1664 165.568C75.4064 164.848 73.7863 162.058 70.8463 161.798C63.1063 156.318 55.7863 150.418 50.7263 142.168C49.7863 140.638 49.3764 138.238 46.6464 138.758C44.0064 135.718 41.3763 132.668 38.7363 129.628C38.7663 129.418 38.8563 129.238 38.9963 129.068C39.0463 127.668 38.9464 126.208 40.2764 125.228C41.4964 124.938 42.7064 124.678 42.9264 126.488V126.498Z" fill="#1FD0EF"/>
<path d="M58.866 80.5283C58.256 89.5983 56.396 98.4883 54.926 107.428C51.986 113.218 46.616 112.008 41.666 112.048C44.516 104.258 50.276 98.0983 53.616 90.5683C55.136 87.1283 57.106 83.8783 58.866 80.5383V80.5283Z" fill="#1FD0EF"/>
<path d="M42.9275 126.498C42.2775 125.398 41.1775 125.688 40.1875 125.628C36.7675 123.298 36.7674 119.428 35.8574 115.968C38.3274 115.888 40.8174 115.868 43.0874 114.668C44.0274 118.568 46.3075 122.268 44.7775 126.518C44.1575 126.518 43.5375 126.498 42.9175 126.488L42.9275 126.498Z" fill="#1FD0EF"/>
<path d="M35.8571 115.968C40.2371 117.868 38.2471 122.628 40.1871 125.628C40.7371 127.108 40.0871 128.168 38.9971 129.078C37.6371 128.478 36.2871 127.868 34.9271 127.268C36.6971 124.128 35.2171 121.408 33.7871 118.688C33.8871 117.768 33.987 116.858 34.087 115.938C34.677 115.948 35.2671 115.968 35.8571 115.978V115.968Z" fill="black"/>
<path d="M41.666 112.039C46.326 111.199 51.476 111.779 54.926 107.429C55.486 108.539 53.566 109.879 55.236 110.889C50.806 112.329 46.376 113.849 41.666 112.049V112.039Z" fill="#1FD0EF"/>
<path d="M71.9655 138.758C73.8155 142.348 77.4255 143.038 80.7855 144.268C84.1755 145.518 84.5856 146.608 82.9456 148.748C75.5956 148.578 69.7455 146.318 68.1855 137.998C69.7155 136.688 70.7355 138.368 71.9755 138.758H71.9655Z" fill="#1FD0EF"/>
<path d="M19.3257 250.735C19.1627 250.09 19.6642 249.468 20.3295 249.491L68.0343 251.126C68.5729 251.145 69 251.587 69 252.126V254.445C69 254.998 68.5523 255.445 68 255.445H21.294C20.836 255.445 20.4366 255.134 20.3245 254.69L19.3257 250.735Z" fill="white"/>
<defs>
<linearGradient id="paint0_linear_201_332" x1="31.1015" y1="128.404" x2="31.1015" y2="161.528" gradientUnits="userSpaceOnUse">
<stop stop-color="#F187FF"/>
<stop offset="1" stop-color="#F3A6A2"/>
</linearGradient>
<linearGradient id="paint1_linear_201_332" x1="28.1404" y1="117.688" x2="28.1404" y2="130.392" gradientUnits="userSpaceOnUse">
<stop stop-color="#F187FF"/>
<stop offset="1" stop-color="#F3A6A2"/>
</linearGradient>
<linearGradient id="paint2_linear_201_332" x1="61.2822" y1="163.579" x2="61.2822" y2="170.929" gradientUnits="userSpaceOnUse">
<stop stop-color="#F187FF"/>
<stop offset="1" stop-color="#F3A6A2"/>
</linearGradient>
<linearGradient id="paint3_linear_201_332" x1="61.4259" y1="38.3086" x2="61.4259" y2="64.6563" gradientUnits="userSpaceOnUse">
<stop stop-color="#F187FF"/>
<stop offset="1" stop-color="#F3A6A2"/>
</linearGradient>
<linearGradient id="paint4_linear_201_332" x1="76.5351" y1="59.1602" x2="76.5351" y2="77.6007" gradientUnits="userSpaceOnUse">
<stop stop-color="#F187FF"/>
<stop offset="1" stop-color="#F3A6A2"/>
</linearGradient>
<linearGradient id="paint5_linear_201_332" x1="43.3409" y1="52.4453" x2="43.3409" y2="59.5926" gradientUnits="userSpaceOnUse">
<stop stop-color="#F187FF"/>
<stop offset="1" stop-color="#F3A6A2"/>
</linearGradient>
</defs>
</svg>
