<svg width="146" height="245" viewBox="0 0 146 245" fill="none" xmlns="http://www.w3.org/2000/svg">
<path d="M99.7263 43.6858C100.156 44.8958 99.6563 46.3858 100.786 47.3958C103.446 50.1058 101.766 52.4858 100.246 54.8858C99.7463 55.4758 99.1463 55.9558 98.4563 56.3258C96.7963 56.8558 95.4163 57.3958 96.8563 59.5858C98.3263 61.8158 98.6264 64.3558 98.1364 66.9858C97.6364 68.7758 96.8763 70.7058 95.2063 71.3758C88.5063 74.0758 84.8863 80.3558 79.4863 84.5358C76.4263 85.9458 73.8363 88.4458 70.2263 88.6158C69.5063 88.5158 68.8662 88.2358 68.2762 87.8058C66.7762 86.0258 64.7563 85.2558 62.5363 84.8658C58.9963 83.7858 56.4462 81.0958 53.3962 79.2758C51.9262 81.7958 51.3063 85.7058 46.8563 83.2958C38.4963 83.9558 35.6463 86.7158 33.9663 94.7158C33.2863 97.9658 34.8363 101.736 31.8263 104.466C26.3063 107.316 20.1563 103.536 17.9363 95.9158C14.5263 91.8458 13.4563 86.9858 13.1562 81.8558C15.8663 76.5258 20.5563 73.4758 25.7163 70.9458C33.6463 67.0658 33.7263 66.2358 32.5063 59.2658C32.0963 56.9158 31.7563 54.1958 34.3063 52.4558C37.9063 53.5358 38.5962 58.0258 42.1462 59.1658C49.1462 58.7358 52.5563 62.9358 56.2163 68.3258C60.1863 74.1758 66.8763 76.8358 74.1963 75.4558C81.7563 74.0358 86.3763 69.2058 88.2163 61.6858C88.9663 58.6458 89.2963 55.4658 90.8063 52.6258C93.9863 49.8558 95.0163 44.9458 99.7063 43.6758L99.7263 43.6858Z" fill="black"/>
<path d="M39.0225 20.6249C38.9425 19.9749 38.8626 19.3349 38.7826 18.6849C36.4926 9.77494 45.0926 0.374939 53.6226 3.68494C60.3326 6.28494 67.4526 6.57492 73.9926 9.29492C76.8326 10.4749 79.3726 11.835 80.6826 14.785C82.9726 17.505 84.2225 20.6449 84.7725 24.1749C85.1825 26.7849 84.3626 28.6049 81.8026 28.9849C79.0826 29.3949 75.8226 31.205 73.9626 27.325C72.7526 24.815 72.4726 21.995 71.8526 20.595C74.1426 28.695 74.0026 29.715 69.8726 31.035C64.2926 32.825 63.4426 32.1049 60.2226 23.1249C60.3126 26.2649 64.7426 29.565 60.6526 33.335C59.1726 34.445 57.5626 35.2349 55.6726 35.3049C50.5326 33.2149 49.4526 28.9149 49.5526 23.9849C49.7226 23.6949 49.9426 23.455 50.2326 23.335C50.8326 23.075 51.4526 22.855 52.1026 22.725C51.5626 22.755 51.0526 22.945 50.5326 23.035C48.8126 22.285 49.3626 24.545 48.3326 24.705C45.6526 26.415 42.8326 27.9449 41.1226 30.8049C40.4826 31.5749 39.8126 32.255 38.6926 31.715C36.9226 27.965 38.3726 24.3049 38.9926 20.6149L39.0225 20.6249Z" fill="#1FD0EF"/>
<path d="M98.9615 54.8446C100.362 52.5546 100.862 50.0445 100.792 47.3845C103.122 45.9945 103.872 43.5045 105.052 41.3145C106.242 40.9345 107.371 41.0145 108.401 41.7945C109.841 42.9245 110.831 44.5145 112.271 45.6645C115.571 48.4045 120.241 49.8546 121.021 54.9546C121.121 65.2646 115.752 73.4346 110.462 81.5946C109.042 83.7846 107.162 85.6846 105.492 87.7146C102.942 89.7846 101.062 92.5945 98.1715 94.3045C97.6915 94.5345 97.1915 94.6345 96.6615 94.6245C94.2615 94.2645 93.6516 92.5945 93.6016 90.4945C95.0516 86.2745 96.9816 82.2246 98.0916 77.8946C98.8016 75.1246 98.6215 72.2945 98.0415 69.4945C98.6315 64.6245 96.0115 59.5646 98.9515 54.8446H98.9615Z" fill="#FFD313"/>
<path d="M123.525 42.5856C122.725 43.6756 121.925 44.7656 121.125 45.8556C119.335 46.8356 118.095 45.7656 116.835 44.7356C116.125 43.8956 115.405 43.0556 114.505 42.3856C113.675 41.6056 112.885 40.7956 113.155 39.4956C116.535 31.9056 112.415 25.5956 109.665 19.0456C108.955 17.3656 105.835 15.8557 107.465 14.2857C109.575 12.2457 111.975 14.2756 113.795 16.0756C114.025 16.3056 114.305 16.4856 114.565 16.6956C115.275 18.1656 117.145 18.6556 117.645 20.3156C118.995 23.4056 123.105 24.6956 122.995 28.3556C123.285 24.6556 118.695 23.5256 117.915 20.0856C118.615 17.6456 119.055 15.1456 119.545 12.6656C120.065 9.2156 120.575 5.76564 121.135 2.32564C121.325 1.15564 121.655 -0.0943696 123.195 0.0056304C124.835 0.11563 125.395 1.31566 125.455 2.78566C125.575 5.28566 125.335 7.74564 124.755 10.2056C124.435 11.5556 123.735 13.5656 125.535 14.1156C127.245 14.6356 127.815 12.6156 128.555 11.3756C129.585 9.66563 130.375 7.79565 131.575 6.21565C132.715 4.71565 134.075 2.48562 136.385 4.30562C138.395 5.89562 136.965 7.54563 135.775 9.00563C135.355 9.51563 135.015 10.0856 134.635 10.6356C133.775 11.5756 133.905 12.7457 134.605 13.4757C134.975 13.8557 136.005 13.2457 136.385 12.4657C136.805 12.2157 137.195 11.7956 137.635 11.7356C139.345 11.4956 141.535 9.72565 142.655 11.7157C143.875 13.8857 140.945 14.4556 139.885 15.7456C138.085 17.9556 135.315 19.4556 134.445 23.3756C137.395 22.2256 139.625 21.2956 141.895 20.4856C143.065 20.0656 144.585 19.0656 145.355 20.8156C146.065 22.4256 144.615 23.2056 143.395 23.7356C135.945 26.9456 131.545 33.6856 125.805 38.8756C124.705 39.8656 123.505 40.8556 123.515 42.5656L123.525 42.5856Z" fill="url(#paint0_linear_327_211)"/>
<path d="M34.835 52.8344C33.275 55.8444 33.8449 58.9445 34.6549 61.9745C35.7149 65.9545 34.685 68.7844 30.715 70.3544C24.305 72.8844 18.8149 76.7744 14.0649 81.7344C13.0649 82.6244 11.925 83.2044 10.585 83.4244C5.65496 84.2344 3.6349 82.5944 3.5249 77.6244C3.5049 76.6444 3.58493 75.6544 3.30493 74.6944L2.875 74.7344C2.915 67.6344 7.30492 63.4044 12.6649 59.7744C15.4349 57.8944 18.945 57.6244 21.575 55.5644C21.515 54.3344 20.5649 54.2545 19.6749 54.0945C14.9049 52.3545 9.855 53.3744 4.995 52.5744C2.745 48.9044 5.93498 47.9744 8.10498 46.9544C9.50498 46.3044 11.335 46.5644 12.975 46.4144C14.565 45.3844 16.085 45.8244 17.635 46.5744C22.355 48.8444 27.0049 51.3544 32.5349 49.1344C33.8549 48.6044 35.1349 49.1344 35.6649 50.6944C35.7649 51.5544 35.585 52.3045 34.855 52.8445L34.835 52.8344Z" fill="black"/>
<path d="M76.7941 189.535C79.5241 187.185 76.8541 186.805 75.4841 186.125C68.6041 182.685 61.3841 179.885 55.0641 175.395C56.3641 172.265 58.5841 173.955 60.4241 174.495C62.7741 175.185 64.4741 177.165 66.7941 177.975C60.6441 175.115 55.674 170.395 49.774 167.055C49.504 168.725 52.7641 170.025 50.0541 171.725C45.1141 169.905 42.9541 165.195 39.6641 161.665C40.6741 158.055 43.794 158.385 46.524 157.975C48.204 158.195 50.9 151.599 52.5 150.999C57.88 148.989 70.02 152.454 72 159.5C72.53 160.18 69.4441 163.545 69.3041 164.405C67.0141 166.735 64.6041 164.135 62.2441 164.555C60.4641 164.875 58.6441 165.035 56.7141 165.265C62.6341 170.215 69.3141 173.805 75.7141 177.825C78.9241 179.835 82.1441 181.995 84.4741 185.155C84.6841 185.425 84.8641 185.705 85.1041 185.925C87.2641 187.905 89.4441 190.155 87.1141 193.065C84.8841 195.835 82.0941 194.535 79.5841 193.005C78.6641 191.855 77.3841 190.995 76.7941 189.565V189.535Z" fill="#9B44FC"/>
<path d="M33.8828 108.254C33.9128 108.074 33.9128 107.894 33.8828 107.704C33.9028 106.874 34.2427 106.174 34.7827 105.554C37.8627 103.014 41.4128 101.214 44.9528 99.4744C47.9828 97.9744 51.2028 97.2444 54.3228 99.4744C55.9028 101.864 57.1727 104.444 58.6527 106.894C58.8427 107.354 58.9527 107.824 59.0127 108.324C59.0727 109.634 58.6527 110.744 57.6627 111.614C52.7427 114.114 46.9727 115.004 43.0627 119.404C42.2027 120.294 41.3027 121.114 39.9327 121.044C37.5427 120.284 36.6928 118.234 35.8328 116.184C35.5328 113.904 34.5527 111.804 34.0127 109.584C33.9527 109.134 33.9128 108.684 33.8828 108.234V108.254Z" fill="#FFD313"/>
<path d="M29.8862 129.345C29.7962 126.095 29.9262 122.875 31.0062 119.765C32.6662 118.245 29.5162 114.385 33.7562 114.115C35.9862 114.775 36.0162 117.015 36.9862 118.575C37.8162 120.585 38.4362 122.645 38.5062 124.845C39.0962 131.135 40.1462 137.325 42.3462 143.275C42.9762 146.795 41.2162 148.095 37.9562 148.115C32.8962 148.145 29.6762 146.465 29.5962 143.135C29.4862 138.545 29.0462 133.925 29.8862 129.345Z" fill="#FFD313"/>
<path d="M59.554 32.5156C61.884 31.0056 61.464 29.0455 60.614 26.8655C59.614 24.3255 57.8139 21.8855 59.1439 18.3655C61.4239 21.3855 61.914 24.7756 63.004 27.8156C64.444 31.8456 67.1039 29.9355 69.5239 29.6255C72.5939 29.2355 72.534 27.3955 72.054 24.9355C71.414 21.5955 69.2539 18.6455 69.4039 13.9355C72.5039 17.8755 73.304 21.7056 74.224 25.3256C75.654 30.9256 79.644 27.7055 82.204 27.5555C85.894 27.3355 83.104 24.5656 82.974 23.0156C82.734 20.1756 81.324 17.6656 80.084 15.1356C80.504 14.2456 81.094 14.1955 81.814 14.7955L83.074 15.9155C84.324 16.4355 85.594 17.2056 85.814 18.5356C86.644 23.4956 89.584 26.9655 93.374 29.9155C93.674 32.4555 91.814 32.8856 90.004 33.3256C88.254 33.7456 86.344 33.5656 84.834 34.8156C84.344 35.0756 83.8239 35.1756 83.2739 35.1556C79.1739 33.1156 74.914 33.8855 70.584 34.1055C66.924 34.2955 62.664 36.8356 59.574 32.5256L59.554 32.5156Z" fill="black"/>
<path d="M3.29325 74.6953C4.45325 79.2953 8.04327 81.642 14.0633 81.7353C15.1633 86.5153 17.7033 90.9053 17.9533 95.9153C15.7433 97.0853 18.5732 98.8853 17.4132 100.185C7.25324 97.0653 1.43325 86.5553 3.29325 74.6953Z" fill="black"/>
<path d="M84.0959 34.1049C85.0659 31.9249 87.0259 31.7849 89.0259 31.6849C90.5859 31.6049 92.4359 32.1049 93.0559 29.8749C93.4059 29.5249 93.6859 29.5549 93.8959 30.0249C93.4159 33.5449 97.336 34.6849 97.976 37.5949C98.436 39.6649 99.996 41.4149 99.726 43.6949C97.166 46.7049 95.4359 50.4349 92.0559 52.7649C90.2759 51.5749 90.3759 49.7449 90.3959 47.9349C90.4459 45.3149 87.9759 44.2049 86.9359 42.2449C85.4959 39.7049 84.7959 36.9149 84.0859 34.1149L84.0959 34.1049Z" fill="black"/>
<path d="M81.8052 14.7961C81.2252 14.9161 80.6452 15.0261 80.0752 15.1461C75.9252 11.0861 70.9452 9.00611 65.1652 8.42611C61.8652 8.09611 58.7152 7.52612 55.5952 5.56612C49.7252 1.88612 40.5952 6.99611 39.1852 14.2361C38.9052 15.6861 38.9152 17.2061 38.7852 18.6861C35.5152 13.9461 38.6653 5.86613 44.9953 2.88613C47.7853 1.56613 51.1952 0.656125 53.7152 2.00612C60.6152 5.70612 68.5152 5.56614 75.5552 8.45614C78.5052 9.66614 81.5752 10.8562 81.8152 14.7862L81.8052 14.7961Z" fill="white"/>
<path d="M76.7915 189.535C78.2015 189.705 79.7515 189.665 79.9415 191.645C77.2015 194.465 73.3415 194.325 69.9415 195.335C62.6815 197.475 62.3115 198.065 64.7815 205.325C65.4215 207.195 66.3416 208.945 67.1016 210.765C67.4116 211.735 67.5515 212.705 66.9315 213.625C64.9415 214.615 62.9415 215.385 60.9115 213.715C58.2715 208.645 55.6116 203.575 56.8816 197.535C57.1716 195.475 58.9715 195.135 60.4515 194.645C65.8715 192.865 71.3415 191.225 76.7915 189.525V189.535Z" fill="#9B44FC"/>
<path d="M35.0759 106.976C34.6759 107.226 34.276 107.466 33.876 107.716C31.876 107.466 32.1859 105.766 31.8359 104.476C31.8859 101.816 31.7659 99.1458 32.0159 96.5058C33.0759 85.4358 36.7559 82.0558 47.9259 81.6758C48.5159 82.3158 48.6659 83.0658 48.4259 83.8858C47.9059 84.9958 47.0159 85.8258 45.9159 86.2058C39.4359 88.4558 37.2559 93.5058 36.9559 99.7958C36.8359 102.326 36.2759 104.726 35.0759 106.966V106.976Z" fill="white"/>
<path d="M46.5938 159.545C44.2037 159.985 41.7237 160.125 39.6637 161.655C35.7737 160.915 35.2437 157.626 34.3438 154.616C38.2738 151.396 43.6437 152.815 47.8237 150.415C48.9337 150.285 50.0137 150.355 51.0537 150.815C52.9237 151.995 54.9037 153.475 54.3037 155.845C53.7737 157.935 51.2737 158.085 49.4637 158.775C48.5337 159.125 47.5238 159.165 46.5938 159.535V159.545Z" fill="black"/>
<path d="M29.8832 129.346C29.9232 133.306 29.9532 137.256 29.9932 141.216C30.0132 142.896 29.9832 145.026 31.9332 145.276C34.8332 145.656 37.7232 147.226 40.6032 146.306C42.1032 145.826 40.6232 143.946 40.9332 142.736C45.8932 144.686 47.2732 148.216 44.5532 151.986C40.1832 152.676 35.7832 154.346 31.5032 151.646C27.7432 144.446 28.6732 136.906 29.8832 129.356V129.346Z" fill="#649139"/>
<path d="M50.0453 171.716C50.6253 169.336 48.1452 168.936 47.2752 167.496C46.6552 166.476 45.7553 165.596 46.9353 164.476C47.8953 163.566 48.6953 164.286 49.5653 164.816C56.8353 169.236 62.9653 175.256 70.1053 180.066C66.9553 178.746 63.8553 177.266 60.6353 176.156C58.8953 175.556 57.1453 173.886 55.0653 175.396C53.0853 174.596 51.2653 173.586 50.0553 171.726L50.0453 171.716Z" fill="#9B44FC"/>
<path d="M23.945 55.5259C23.795 58.0559 21.495 57.6759 20.075 58.1159C11.495 60.7659 5.83508 66.3358 2.86508 74.7358C1.26508 76.2958 2.38504 78.4958 1.57504 80.2958C-0.744957 74.5758 3.39508 69.9059 3.98508 64.6859C4.56508 59.2259 9.30505 58.2659 13.0851 56.2659C16.6251 54.9059 20.175 53.5659 23.945 55.5259Z" fill="white"/>
<path d="M35.0156 50.2342C26.6956 54.5442 20.2557 48.0142 12.9657 46.4142C12.4157 46.0642 11.6557 45.8342 11.3657 45.3342C11.0157 44.7442 11.7456 44.7142 12.1456 44.7142C14.6156 44.6842 16.9057 44.8642 19.3057 46.0842C26.2857 49.6242 33.3357 48.6242 37.9957 43.9442C38.5957 42.3342 40.0257 42.0142 41.4657 41.6942C42.1957 41.6142 42.9057 41.7142 43.5757 42.0342C43.9857 42.3042 44.2357 42.6742 44.3457 43.1542C43.5857 46.8042 39.1957 46.7942 37.7357 49.7342C36.8857 50.1642 36.2356 51.7542 35.0256 50.2342H35.0156Z" fill="white"/>
<path d="M34.1657 237.185C36.1348 236.5 40.9948 237 42.1348 239.5C42.6948 240.73 39.1348 244 34.1657 244.5C27.1348 239.5 28.6158 237.695 28.1358 232.345C27.4058 224.355 29.6322 203.5 34.4863 203C42.1324 209 40.8848 224.42 32.9157 232.345C32.9157 234.975 32.6348 234 32.9157 234.985C33.6357 235.015 34.1358 235.385 34.4858 235.995C34.6058 236.445 34.4857 236.845 34.1657 237.175V237.185Z" fill="white"/>
<path d="M93.8925 30.0162L93.4926 29.8062L93.0525 29.8662C88.3325 29.2562 85.5225 26.8862 85.0225 21.8562C84.8225 19.8262 83.7425 17.8863 83.0625 15.9062C90.3925 16.8462 94.8825 22.6862 93.8925 30.0162Z" fill="#1FD0EF"/>
<path d="M4.97374 52.5661C10.2637 49.6761 15.4737 51.6261 20.6937 52.8461C20.4737 55.8661 17.7437 54.3161 16.3237 55.1961C14.6737 56.2161 12.5837 56.0261 10.7837 56.7261C7.68367 57.1161 5.48375 60.1261 2.11375 59.7361C-0.66625 55.8561 4.69374 55.2261 4.97374 52.5761V52.5661Z" fill="white"/>
<path d="M2.11397 59.7256C4.46397 57.9456 6.61387 55.8156 9.76387 55.4756C11.3139 55.3856 12.8339 55.3556 12.9039 57.5256C9.91388 59.8856 6.31396 61.4956 3.98396 64.6856C2.58396 64.8956 2.07395 67.0056 0.223951 66.3856C-0.636049 63.7456 1.19397 61.8656 2.11397 59.7256Z" fill="black"/>
<path d="M41.8951 42.4946C40.5951 42.9746 39.2952 43.4546 37.9952 43.9346C36.3252 41.8046 34.8252 39.6146 34.9752 36.7146C35.5352 34.3246 36.2552 32.1046 39.3852 32.2446C44.1252 35.9446 44.9551 39.3246 41.9051 42.4846L41.8951 42.4946Z" fill="#1FD0EF"/>
<path d="M114.493 37.5039C115.423 38.1839 116.353 38.8639 117.283 39.5439C116.963 43.5139 115.253 46.2039 110.923 46.4839C109.933 45.3939 108.953 44.3139 107.963 43.2239C107.003 39.7039 108.283 37.7939 111.993 37.6639L111.933 37.6139C112.763 38.4539 112.613 39.2839 111.933 40.1239C112.703 39.4139 113.103 38.3939 113.913 37.7239C114.093 37.6039 114.283 37.5339 114.493 37.5039Z" fill="#FFD313"/>
<path d="M31.4922 151.646C36.0422 151.696 40.6321 152.336 45.0621 150.656C45.8521 150.196 46.4222 149.296 47.5022 149.376C48.4622 149.986 48.8321 150.706 47.9021 151.646C43.8221 154.636 38.9222 153.896 34.3422 154.616C33.2722 153.746 31.9122 153.136 31.5022 151.636L31.4922 151.646Z" fill="#493F3E"/>
<path d="M39.0365 32.695C37.6865 34.035 36.3266 35.385 34.9766 36.725C36.3366 31.365 36.2465 25.635 39.0365 20.625C40.1565 20.705 40.9665 20.975 40.1865 22.345C38.5765 25.155 38.6466 28.145 39.2266 31.195C39.6166 31.755 39.5565 32.255 39.0465 32.705L39.0365 32.695Z" fill="white"/>
<path d="M33.9745 114.736C30.8045 115.126 32.7745 118.556 31.0045 119.776C30.9845 115.696 30.0345 111.386 33.8845 108.266C33.9945 108.426 34.0944 108.596 34.1744 108.776C34.9144 110.796 35.7545 112.806 33.9845 114.746L33.9745 114.736Z" fill="#FFD313"/>
<path d="M112.003 37.6665C109.443 38.6365 107.883 40.3366 107.973 43.2266C107.003 42.5966 106.033 41.9566 105.062 41.3266C106.403 40.0266 107.693 38.6565 109.103 37.4365C110.053 36.6165 111.203 35.6265 112.003 37.6665Z" fill="#FFD313"/>
<path d="M113.913 37.7253C113.493 39.9953 111.943 41.4553 110.313 43.1353C109.333 40.5753 112.293 39.6452 111.943 37.6152C112.603 37.6552 113.263 37.6853 113.923 37.7253H113.913Z" fill="#FFD313"/>
<path d="M66.0039 211.516C65.7139 211.116 65.3938 210.736 65.1438 210.306C58.6638 199.306 59.7839 196.346 71.7539 193.236C74.4439 192.536 77.2139 192.176 79.9439 191.656C80.7539 192.686 82.0139 192.536 83.0939 192.866C84.4239 193.276 85.7439 193.686 86.4939 192.056C87.1039 190.726 86.8539 189.556 85.6639 188.516C84.6839 187.666 83.9139 186.586 83.0539 185.606C84.5839 183.906 84.9039 180.16 86.4939 178.5C89.5339 177.5 92.5 178.301 95.5 177.501C99.03 176.541 101.924 180.836 102.844 185.556C103.974 195.976 101.954 200.256 93.8938 204.506C86.8938 206.646 79.9639 209.066 72.8739 210.906C70.6639 211.486 68.4639 213.426 66.0039 211.516Z" fill="#9B44FC"/>
<path d="M87.9658 137.705C97.7558 137.895 107.436 139.235 117.076 140.785C119.336 141.145 121.586 141.915 123.716 142.775C134.156 147.015 136.676 156.385 129.936 165.645C126.836 166.285 124.986 164.405 123.226 162.335C120.766 159.445 118.536 156.325 115.246 154.265C112.356 151.895 109.076 152.735 105.826 153.035C100.026 153.575 94.2358 155.465 88.3558 153.445C84.2258 148.345 84.0958 142.745 87.9558 137.705H87.9658Z" fill="#9B44FC"/>
<path d="M88.9553 152.665C94.9453 152.915 100.805 151.835 106.715 151.055C110.305 150.575 114.455 149.255 116.955 153.665C119.045 156.535 117.505 158.955 116.015 161.385C114.365 164.085 112.055 166.215 109.965 168.545C108.625 170.045 107.295 171.665 108.635 173.815C109.975 175.945 111.875 175.445 113.905 174.925C115.615 174.485 117.795 172.285 119.005 175.675C114.175 179.885 108.285 182.365 102.835 185.575C100.775 182.555 98.0253 182.305 94.8953 183.605C94.3653 182.985 94.2753 182.295 94.5253 181.545C95.5253 180.055 96.9953 179.235 98.6553 178.695C102.115 178.185 102.215 176.105 101.295 173.355C100.525 171.065 98.3854 169.365 98.5054 166.715C99.2354 164.655 101.195 163.905 102.785 162.815C104.525 161.625 103.675 160.715 102.665 159.715C101.005 155.795 97.7053 157.615 95.0453 157.675C90.2053 157.775 89.2053 157.105 88.9453 152.685L88.9553 152.665Z" fill="#9B44FC"/>
<path d="M79.9438 111.955C80.6138 114.125 81.2838 116.305 81.9538 118.475C77.7338 121.845 72.6538 120.445 67.9338 121.035C62.7938 119.555 61.4138 114.805 59.1838 110.825C58.6338 109.855 58.7638 108.535 57.9438 107.605L58.0039 107.705C57.6639 105.835 55.3938 104.265 57.1438 102.075C63.4738 99.5953 70.0338 100.845 76.5238 100.885C80.6738 103.635 79.3538 108.085 79.9438 111.935V111.955Z" fill="#FFD313"/>
<path d="M119.004 175.656C116.784 173.816 115.353 176.116 113.763 176.846C111.053 178.076 108.994 177.756 107.234 175.376C105.384 172.876 105.444 170.576 107.714 168.296C111.874 164.116 116.873 160.426 116.943 153.656C119.583 155.446 121.934 157.636 123.614 160.286C125.224 162.816 127.453 164.306 129.933 165.636C127.093 169.856 123.384 173.126 118.994 175.656H119.004Z" fill="#9B44FC"/>
<path d="M88.9545 152.666C90.0645 155.766 91.7645 157.126 95.3645 155.926C97.6245 155.176 100.304 155.296 102.694 156.146C103.634 156.486 105.394 156.246 105.174 157.856C105.084 158.516 103.714 158.996 102.934 159.566C100.304 163.276 95.9344 162.776 92.2644 163.986C86.1344 163.906 82.0345 160.676 79.1845 155.516C78.8445 154.866 78.6345 154.176 78.4845 153.466C77.7945 151.226 76.5045 149.466 74.3345 148.426C73.8345 147.896 73.5545 147.296 73.7045 146.546C75.8245 144.586 75.7944 141.726 76.7744 139.276C77.2944 138.746 77.9346 138.416 78.6346 138.196C81.3946 137.506 83.7645 135.056 86.9645 136.376C87.3045 136.826 87.6345 137.276 87.9745 137.716C87.5645 142.756 85.7445 147.876 88.9645 152.676L88.9545 152.666Z" fill="#9B44FC"/>
<path d="M86.955 136.365C84.165 137.285 81.785 139.275 78.735 139.525C76.695 138.625 75.075 137.335 74.085 135.245C71.815 130.465 67.865 126.615 66.375 121.395C66.445 120.905 66.6549 120.495 67.0249 120.175C71.8949 118.705 76.8749 118.145 81.9449 118.495C82.7249 124.705 87.5749 129.776 86.9449 136.376L86.955 136.365Z" fill="#FFD313"/>
<path d="M79.9452 111.955C77.1952 109.035 78.4352 104.925 76.8352 101.655C76.5452 101.285 76.3052 100.885 76.1052 100.465C75.8752 99.2551 76.0252 97.7351 77.3052 97.7051C79.5352 97.6551 79.3851 100.285 80.8951 101.745C82.8451 100.205 83.8952 97.5151 86.4352 96.6251C87.7552 96.2451 89.0952 95.9651 90.4552 95.7551C93.0952 95.6751 95.4252 94.4751 97.8752 93.7151L98.0251 93.6951C98.7851 93.0551 99.5752 93.0851 100.365 93.6351C94.8452 99.3051 89.7052 105.405 82.6052 109.295C81.5352 109.885 80.0652 110.305 79.9552 111.955H79.9452Z" fill="#FFD313"/>
<path d="M66.0039 211.514C73.2939 209.424 80.5738 207.274 87.9038 205.274C89.8338 204.744 91.6538 202.734 93.9038 204.514C85.6638 209.754 76.0238 210.874 66.9438 213.644C66.6338 212.934 66.3238 212.224 66.0138 211.524L66.0039 211.514Z" fill="#9B44FC"/>
<path d="M110.922 46.4849C113.912 44.9649 115.332 42.0149 117.282 39.5449C118.022 40.2749 119.242 40.6349 119.182 41.9849C118.702 42.6449 118.542 43.4349 118.262 44.1749C117.902 45.1049 117.682 46.085 118.492 46.835C119.582 47.845 120.542 47.1249 121.432 46.3849C122.052 45.8749 122.682 45.395 123.522 45.325C125.182 47.395 123.012 48.4749 122.292 49.8849C121.472 51.4949 121.102 53.1749 121.032 54.9449C118.362 51.2949 114.452 49.105 110.932 46.475L110.922 46.4849Z" fill="#FFD313"/>
<path d="M123.511 45.3344C121.701 46.5044 122.752 52.1544 118.182 48.9144C114.152 46.0444 114.352 45.1744 119.182 41.9844C120.272 42.6144 121.372 43.2344 122.462 43.8644C122.812 44.3544 123.161 44.8444 123.511 45.3344Z" fill="#FFD313"/>
<path d="M100.364 93.6348C99.5835 93.6548 98.8034 93.6748 98.0234 93.6948C100.253 91.3848 102.634 89.2448 105.494 87.7148C103.874 89.7648 102.704 92.2048 100.364 93.6348Z" fill="#FFD313"/>
<path d="M36.8359 48.6255C38.2559 45.5355 42.3059 45.6455 43.9259 42.7955C49.1359 42.1955 48.9759 47.4555 51.6859 50.0255C53.7959 46.1055 53.036 41.0155 57.006 38.1455C59.166 37.3255 61.3259 38.1155 63.3259 38.5455C70.7459 40.1555 77.176 37.2155 83.726 34.6455C84.006 34.5755 84.1359 34.3955 84.0959 34.1055C87.0059 35.8855 87.326 38.9255 87.876 41.8555C85.756 46.1155 90.6059 45.0055 91.6759 46.8155C91.8059 48.7955 91.9359 50.7755 92.0559 52.7555C91.3559 55.8255 90.7759 58.9355 89.9359 61.9655C87.2859 71.4255 81.7359 76.5055 73.2059 77.4355C64.9159 78.3455 55.5459 73.3955 52.0359 65.3455C50.4759 61.7655 48.916 60.4255 45.236 61.5355C43.686 62.0055 42.3459 61.0855 41.0459 60.3555C41.2859 57.9955 43.9459 57.6455 44.7959 55.7955C45.1459 50.3255 44.106 49.3055 38.606 49.7255C37.876 49.5955 37.2359 49.2955 36.8359 48.6355V48.6255Z" fill="url(#paint1_linear_327_211)"/>
<path d="M76.8743 100.986C76.9043 101.216 76.8942 101.436 76.8342 101.666C70.1142 103.146 63.3043 102.996 56.4943 102.776C54.8843 102.656 54.4642 101.366 53.9342 100.186C50.3242 98.6456 47.1342 100.096 44.0642 101.726C40.9942 103.346 38.0642 105.216 35.0742 106.976C35.0842 104.986 35.0643 102.996 35.1243 101.006C35.3643 93.2456 36.9342 86.3556 46.0742 84.4456C46.8142 84.2956 47.4142 83.5056 48.0842 83.0156C50.3342 84.0856 52.3342 85.4656 54.1542 87.2256C57.1342 90.1056 60.6442 90.2056 63.1442 87.1356C65.2342 84.5856 66.8742 84.9556 68.9042 86.8056L69.9642 87.7956C75.8242 90.3256 76.5843 95.5356 76.8643 100.996L76.8743 100.986Z" fill="#FACE0F"/>
<path d="M98.965 54.8457C99.235 59.8957 98.255 65.0157 99.775 70.0057C98.395 77.5057 96.9151 84.9657 92.3851 91.3857C91.0351 93.3057 89.895 95.3457 87.475 96.1157C80.665 98.2957 78.3249 96.7257 78.0149 89.7457C77.9249 87.6157 77.825 85.4857 78.815 83.4957C83.645 79.1157 86.7651 72.7657 93.7451 70.8157C95.5651 70.3057 96.275 68.2757 97.025 66.5957C97.845 64.6857 97.515 62.7657 97.055 60.8557C96.625 59.0757 96.255 57.3257 97.525 55.7157C98.005 55.4257 98.495 55.1357 98.975 54.8457H98.965Z" fill="#FFD313"/>
<path d="M78.8021 83.4965C80.1621 85.5465 79.9221 87.8665 79.9521 90.1465C80.0221 95.9365 80.6721 96.4365 86.2021 95.0765C86.8321 94.9165 87.4722 94.8065 88.1122 94.6665C88.9322 96.3365 88.0921 97.0965 86.5721 97.4865C84.7121 98.9565 83.6221 101.007 82.4121 102.977C81.8321 103.927 81.2621 105.307 79.9421 105.047C78.4521 104.757 79.0322 103.167 78.7422 102.137C78.4222 101.037 78.1522 99.9266 77.7122 98.2766C77.3322 99.5266 77.1121 100.247 76.8921 100.967C75.5421 96.0666 72.7222 91.9365 69.9922 87.7665C72.9322 86.3365 75.8821 84.9066 78.8221 83.4766L78.8021 83.4965Z" fill="#FFD313"/>
<path d="M36.8359 48.6259C37.5959 48.6159 38.346 48.5959 39.106 48.5859C43.426 49.6159 44.886 53.0459 45.996 56.7759C45.026 58.9059 42.9359 59.4859 41.0459 60.3559C37.6159 58.9759 36.0759 56.0359 34.8359 52.8459C34.8959 51.9859 34.9559 51.1159 35.0159 50.2459C35.6259 49.7059 36.2259 49.1759 36.8359 48.6359V48.6259Z" fill="#AE3BA3"/>
<path d="M68.9119 86.796C67.4019 86.776 65.7419 84.196 64.5919 87.956C63.4519 91.666 57.5019 92.126 53.9419 89.116C51.8019 87.306 50.0319 85.056 48.0919 83.006C48.0319 82.566 47.9819 82.116 47.9219 81.676C49.6019 82.716 51.0319 83.726 51.0419 80.306C51.0419 78.746 49.3519 74.866 53.9819 76.526C52.9719 77.706 53.5419 79.046 53.7419 80.276C54.5519 85.386 57.1119 86.406 62.5219 83.876C65.2219 83.606 67.5419 84.166 68.9119 86.806V86.796Z" fill="#372437"/>
<path d="M62.5229 83.8654C62.2729 85.9654 61.7229 87.7954 59.0529 87.7054C55.5129 87.5954 53.0428 85.5354 52.0128 82.5154C51.3628 80.5954 50.5629 77.5954 53.9729 76.5254C55.9229 80.0254 59.5528 81.5554 62.5128 83.8654H62.5229Z" fill="#EE967A"/>
<path d="M97.5041 55.7142C97.8841 59.3642 98.5041 63.0242 97.0041 66.5942C97.0041 63.9842 96.9641 61.4241 95.2341 59.1941C94.3141 58.0041 91.9441 57.0641 93.0641 55.3741C94.1141 53.7841 95.9541 55.8242 97.5041 55.7242V55.7142Z" fill="#FFD313"/>
<path d="M83.7268 34.6456C78.9968 38.7856 74.1167 41.8555 67.1967 40.4255C63.9367 39.7555 60.3768 40.4055 57.1268 39.0055C55.3168 37.8655 55.4567 36.1755 55.8167 34.4255C57.0567 33.7955 58.3067 33.1556 59.5467 32.5256C63.9567 33.7156 68.2568 32.4055 72.6168 32.0655C76.4968 31.7655 80.9268 29.9556 83.7168 34.6456H83.7268Z" fill="black"/>
<path d="M55.8249 34.4139C57.2649 35.6539 56.775 37.4439 57.135 38.9939C55.415 42.4139 54.4449 46.0339 54.0549 49.8339C53.9149 51.1839 54.385 53.2339 52.335 53.3639C50.665 53.4639 49.965 51.7639 49.465 50.3639C48.365 47.2739 47.6849 43.9239 43.9349 42.7839L43.9249 42.4639C42.6749 40.0439 44.315 38.8739 45.975 37.7039C49.395 36.1739 50.7449 34.0739 48.3049 30.5239C47.3049 29.0739 46.6449 27.3139 46.9349 25.4139C47.1149 24.6839 47.555 24.1439 48.125 23.6839C48.885 23.5939 49.0149 22.2839 50.0349 22.7039C50.3849 22.9339 50.5049 23.1739 50.4049 23.4239C50.3049 23.6839 50.195 23.8039 50.085 23.8039C51.395 27.6739 51.955 31.9539 55.845 34.4139H55.8249Z" fill="black"/>
<path d="M46.9635 38.7653C45.8635 39.9353 43.5335 40.0853 43.9135 42.4753C43.2435 42.4753 42.5734 42.4952 41.8934 42.4952C44.6534 38.1352 40.2734 35.8752 39.0234 32.6852C39.0834 32.1852 39.1435 31.6852 39.2035 31.1852C39.5035 30.5852 39.8035 29.9953 40.1035 29.4053C40.8035 29.1553 41.4935 28.9853 42.2035 29.3853C44.3635 32.2153 45.3435 35.6453 46.9635 38.7553V38.7653Z" fill="black"/>
<path d="M41.7815 29.9155C41.2215 29.7455 40.6616 29.5855 40.1016 29.4155C42.4416 27.0455 44.7816 24.6955 48.0916 23.6855C48.0316 24.3855 47.9715 25.0855 47.9015 25.7955C46.6315 28.3055 45.4015 30.8855 41.7815 29.9155Z" fill="white"/>
<path d="M50.0657 23.8041C50.0457 23.4341 50.0356 23.0641 50.0156 22.6941C52.5256 21.9241 54.5457 19.5441 58.3157 20.2741C55.5957 22.7041 53.0857 23.8141 50.0657 23.8041Z" fill="white"/>
<path d="M86.5647 97.4946C87.0747 96.5546 87.5947 95.6146 88.1047 94.6746C93.2347 87.7946 97.3847 80.4946 97.9747 71.6746C98.0547 70.4946 98.4146 69.7446 99.7646 70.0046C100.855 77.5146 97.6347 84.0346 94.9747 90.6746C93.6247 92.6046 94.7747 96.0646 91.2847 96.6846C89.7547 97.2346 88.2347 97.8346 86.5547 97.4946H86.5647Z" fill="#FFD313"/>
<path d="M91.2969 96.6858C92.5269 94.6858 93.7569 92.6758 94.9869 90.6758C95.0069 92.5858 95.697 93.8658 97.877 93.7258C95.957 95.3258 94.5069 97.9658 91.2969 96.6958V96.6858Z" fill="#FFD313"/>
<path d="M12.9056 57.5252C11.8556 56.8452 10.8156 56.1552 9.76562 55.4752C13.1556 53.5652 17.2957 54.7352 20.6957 52.8452C22.8857 52.3952 22.4757 55.1051 23.9457 55.5151C20.0357 54.9351 16.5856 56.8452 12.9056 57.5252Z" fill="black"/>
<path d="M72 160.001C77.99 165.261 86.61 168.795 90.5 177.001C91.51 180.471 86.3035 185.527 83.0535 185.617C75.6435 178.107 65.4835 174.567 57.4735 167.907C56.1235 166.787 54.3334 166.147 53.7734 163.957C59.0134 163.567 67.13 156.461 72 160.001Z" fill="#9B44FC"/>
<path d="M49.9528 140.907C45.8128 134.547 42.9528 127.577 40.3828 120.477C40.7528 119.897 41.1228 119.307 41.4928 118.727C46.3728 115.757 51.5128 113.347 56.8828 111.397C59.1828 110.377 60.2127 112.107 61.1927 113.557C62.9327 116.127 64.7028 118.677 66.3628 121.287C69.9228 127.377 74.4428 132.927 76.5828 139.797C75.998 143.001 76.5828 144.001 74.0127 146.867C73.4227 148.377 72.5027 149.567 70.8927 150.087C69.2227 150.787 67.7328 151.857 65.8628 152.157C60.1228 153.097 57.6228 151.957 54.2528 146.987C52.8628 144.937 51.6128 142.767 49.9528 140.897V140.907Z" fill="#FFD313"/>
<path d="M65.8523 121.835C64.1423 119.415 62.4723 116.975 60.7223 114.585C59.7823 113.305 59.1023 111.565 56.9623 111.965C56.7023 111.705 56.6123 111.435 56.6923 111.165C56.7723 110.895 56.8523 110.755 56.9423 110.755C58.0923 109.975 57.6823 108.695 57.9523 107.625C61.8623 111.165 63.3823 116.435 67.0323 120.165C67.1623 120.425 67.1823 120.695 67.0723 120.975C66.7123 121.335 66.4323 121.795 65.8523 121.835Z" fill="#FFD313"/>
<path d="M56.9343 110.754C56.9343 111.154 56.9543 111.564 56.9543 111.964C51.7943 114.214 46.6444 116.474 41.4844 118.724C45.6944 114.244 51.2843 112.444 56.9243 110.754H56.9343Z" fill="#FFD313"/>
<path d="M37.0365 115.626C35.9065 116.526 36.2265 117.906 35.9065 119.066C35.2665 117.626 34.6166 116.176 33.9766 114.736C34.0366 112.746 34.1065 110.756 34.1665 108.766C36.4065 110.516 36.6965 113.076 37.0265 115.626H37.0365Z" fill="#FFD313"/>
<path d="M53.9336 100.186C54.7836 101.046 55.6437 101.916 56.4937 102.776C56.9437 104.436 58.2737 105.836 58.0037 107.726C55.8437 105.646 54.3636 103.196 53.9336 100.186Z" fill="#FFD313"/>
<path d="M39.0025 111C46.0454 118.685 53.1179 126.37 60.1608 134.055C59.5714 137.135 62.9013 139.482 65.9365 141.916C68.0582 143.618 72.3902 145.187 68.3236 147.577C36.0013 161 32.5019 154 43.5019 152.5C43.5039 154.771 31.618 162 29.0017 145C24.9999 119 36.5018 120 39.0025 111Z" fill="#FFD313"/>
<path d="M91.6743 46.8154C90.0443 47.8454 88.4743 46.9455 86.9743 46.5255C85.6043 46.1455 84.9342 44.8955 85.0142 43.4755C85.1242 41.5755 86.4943 41.6454 87.8743 41.8554C89.3743 43.3354 92.0743 43.8854 91.6743 46.8154Z" fill="#291E38"/>
<path d="M47.0046 149.685C46.8346 146.385 41.3546 144.685 44.2246 140.465C46.6846 144.115 49.1646 147.745 50.7346 151.885C49.7846 151.805 48.8445 151.715 47.8945 151.635C47.9645 150.815 47.6946 150.145 47.0046 149.675V149.685Z" fill="#FFD313"/>
<path d="M99.2015 166.794C101.112 169.484 103.071 172.144 103.771 175.464C104.151 177.274 103.352 178.644 102.202 179.924C100.802 181.484 99.9016 180.064 98.8716 179.404C95.3416 177.144 91.5516 175.144 90.3516 170.614C91.2016 167.734 89.9915 163.134 95.6515 164.254C97.1615 164.644 98.5615 165.184 99.2015 166.784V166.794Z" fill="url(#paint2_linear_327_211)"/>
<path d="M90.6358 170.886C93.3658 173.746 97.1558 175.586 98.8858 179.406C97.6258 180.236 96.6457 181.586 94.9257 181.576C94.5957 181.296 94.2657 181.016 93.9357 180.736C93.9157 177.076 90.6657 175.606 88.8257 173.176C88.2557 172.416 87.3257 171.576 88.2057 170.596C88.9757 169.736 89.9457 169.816 90.6457 170.896L90.6358 170.886Z" fill="#AE3BA3"/>
<path d="M90.6365 170.885C90.1465 170.825 89.6264 170.645 89.1764 170.745C88.0164 170.985 88.4964 171.285 89.0964 171.825C91.0564 173.585 92.9364 175.435 94.8364 177.255C96.5964 178.945 96.0964 180.055 93.9264 180.735C84.1264 176.375 76.2564 169.825 70.9064 160.415C70.7064 159.965 70.7164 159.525 70.9564 159.085C73.6564 157.015 75.8565 153.975 79.8765 154.435C82.8365 158.965 86.5164 162.395 92.2964 162.695C93.2164 163.665 94.1264 164.635 95.0364 165.615C94.2664 166.165 91.9164 163.945 92.5964 166.875C93.0764 168.945 92.2265 170.015 90.6365 170.895V170.885Z" fill="url(#paint3_linear_327_211)"/>
<path d="M79.8748 154.434C76.9148 156.244 73.9648 158.055 71.0048 159.875C69.5448 159.245 69.3647 156.214 66.8147 157.644C65.8447 157.004 65.4847 155.574 64.0547 155.524C64.3847 151.374 69.0246 151.405 70.7646 148.625C71.9146 148.155 72.5747 146.765 74.0247 146.865C74.4347 147.225 74.8546 147.594 75.2646 147.954C76.8446 149.434 77.1747 152.084 79.7047 152.664L79.8748 154.444V154.434Z" fill="#FFD313"/>
<path d="M65.8516 121.835C66.2616 121.545 66.6615 121.255 67.0715 120.965C70.9615 127.145 74.8516 133.335 78.7416 139.515C78.0216 139.605 77.3015 139.695 76.5815 139.795C73.0015 133.805 69.4216 127.825 65.8516 121.835Z" fill="#FFD313"/>
<path d="M72.9342 71.755C66.3342 71.825 59.4443 65.525 59.5043 59.955C59.5243 57.985 59.7343 55.835 61.7343 54.715C63.6143 53.655 65.3643 54.575 66.7543 55.795C70.2243 58.845 74.3542 60.425 78.6942 61.695C82.7842 62.895 83.2943 64.715 80.6343 68.065C78.4943 70.775 75.4742 71.515 72.9342 71.755Z" fill="#251E36"/>
<path d="M70.1836 47.2941C70.0536 48.5241 70.4035 49.9241 69.0335 50.4341C67.6635 50.9441 67.4036 49.7641 67.1836 48.7841C66.4936 45.7841 65.1036 47.8741 63.9936 48.3741C63.1236 48.7641 62.2936 49.7441 61.3536 48.7441C60.3836 47.7141 60.8036 46.4841 61.5636 45.5641C62.9236 43.9041 64.4236 41.8641 66.8036 42.3941C69.1136 42.9141 70.0336 45.0541 70.1836 47.2841V47.2941Z" fill="#321E34"/>
<path d="M80.7437 51.6466C81.5037 49.6866 83.1036 48.9966 85.0336 48.7966C87.2236 48.5666 87.8337 50.0866 88.3837 51.7466C88.8637 53.2166 89.3836 54.8066 87.9136 55.8466C86.0736 57.1566 85.3436 55.1966 84.4336 54.2066C83.4636 53.1466 82.5536 52.2766 81.0636 53.2666C80.5936 52.7966 80.4937 52.2566 80.7537 51.6566L80.7437 51.6466Z" fill="#311F36"/>
<path d="M45.9916 56.7749C42.3016 55.2249 42.7916 50.1449 39.1016 48.5849C41.2316 46.7449 43.3115 47.0549 45.0515 49.0349C47.0715 51.3349 48.3816 53.8649 45.9916 56.7649V56.7749Z" fill="#2F1728"/>
<path d="M80.7461 51.6445C80.8461 52.1845 80.956 52.7245 81.056 53.2545C80.906 53.7045 80.8561 54.2445 80.5761 54.5945C79.5061 55.9245 79.236 58.0745 77.056 58.3145C76.196 58.4145 75.766 57.4345 76.046 57.0445C77.156 55.4945 76.176 52.1145 79.776 52.6245C80.046 52.6645 80.4161 51.9845 80.7461 51.6445Z" fill="#030303"/>
<path d="M41.7852 29.9149C43.8252 28.5449 45.8652 27.1649 47.9052 25.7949C48.4052 27.0049 48.6552 28.415 49.4352 29.405C52.8252 33.715 52.3552 36.855 46.9552 38.765C42.3852 37.475 43.0252 33.1449 41.7852 29.9149Z" fill="#1FD0EF"/>
<path d="M70.7532 148.626C68.8732 151.266 66.5531 153.486 64.0431 155.526C59.9631 157.606 57.8031 155.256 56.0831 152.016C54.0931 148.286 51.1731 145.066 49.9531 140.906C51.6831 141.446 52.5032 142.916 53.3632 144.306C58.3432 152.366 62.9231 152.226 70.7631 148.636L70.7532 148.626Z" fill="#FFD313"/>
<path d="M63.0257 55.5156C68.1057 59.9256 73.8357 62.0656 79.6557 64.0956C77.0157 67.8156 73.4958 68.4456 68.4458 66.2156C63.3058 63.9456 61.7857 61.2356 63.0257 55.5156Z" fill="white"/>
<path d="M34.7569 202.756C37.8669 200.716 41.6268 201.786 44.9268 200.656C46.3968 206.436 46.1368 212.416 46.9468 218.266C47.1268 219.586 45.7169 220.496 44.3569 220.906C43.8169 221.026 43.2569 221.096 42.7069 221.136C42.1569 221.206 41.6168 221.306 41.0768 221.446C38.5268 221.856 35.8668 224.176 33.5268 221.006C33.2868 214.876 33.6169 208.796 34.7569 202.766V202.756Z" fill="#1EF99A"/>
<path d="M42.9766 219.645C45.3066 219.615 46.4366 218.525 45.6266 216.205C43.8266 211.065 44.2765 205.865 44.9265 200.645C45.3065 200.565 45.6865 200.475 46.0665 200.395C46.9965 200.435 47.5766 200.975 48.0066 201.735C49.2566 205.575 48.6766 209.605 49.1366 213.515C48.5766 215.725 48.8865 217.555 51.0265 218.925C52.1965 219.675 53.6665 220.305 53.9565 221.975C53.0165 222.815 52.0666 223.655 51.1266 224.495C47.6466 224.175 44.1066 223.945 42.9866 219.655L42.9766 219.645Z" fill="#1EF99A"/>
<path d="M32.9252 235.576C32.5452 235.216 32.1652 234.856 31.7852 234.496C32.3852 225.956 33.3052 217.436 33.2252 208.846C33.2052 206.736 33.3951 204.566 34.7651 202.756C35.8551 209.066 32.8652 215.246 34.1852 221.556C36.9652 226.906 36.5552 231.486 32.9252 235.576Z" fill="#1EF99A"/>
<path d="M56.8714 197.545C58.0314 202.985 60.3313 208.135 60.9013 213.725C60.2813 213.305 59.6513 212.875 59.0313 212.455C53.6913 209.615 54.2413 204.725 54.6513 199.875C54.8713 199.005 55.2814 198.285 56.1214 197.875C56.3814 197.775 56.6314 197.665 56.8814 197.545H56.8714Z" fill="#9B44FC"/>
<path d="M56.1243 197.875C55.9343 198.485 55.7342 199.095 55.5442 199.705C53.0142 201.815 50.2142 202.745 46.9542 201.625C46.6642 201.215 46.3642 200.805 46.0742 200.385C48.9342 197.575 52.0143 195.665 56.1243 197.865V197.875Z" fill="white"/>
<path d="M46.9522 201.636C49.7222 200.606 52.4521 199.336 55.5421 199.706C55.6421 204.246 56.6121 208.556 59.0421 212.456C58.5621 214.736 55.4522 214.086 54.8522 216.226C52.1022 217.686 49.6721 217.806 48.0521 214.596C46.6021 210.366 46.7322 206.006 46.9622 201.636H46.9522Z" fill="white"/>
<path d="M32.9219 235.575C34.2019 230.975 34.1119 226.255 34.1819 221.555C36.4919 220.965 38.8119 220.385 41.1219 219.795C42.4119 221.205 42.2919 222.805 41.7919 224.465C41.4819 225.565 41.7919 226.685 41.6619 227.795C41.6019 228.805 40.9219 229.785 41.6019 230.815C43.0719 231.855 44.6119 232.825 44.8319 234.855C44.2219 236.365 43.6719 237.895 42.9919 239.375C42.2019 241.105 41.2319 241.265 39.5619 240.105C37.5519 238.715 35.2219 237.805 33.0319 236.685C32.9919 236.315 32.9619 235.945 32.9219 235.575Z" fill="#1EF99A"/>
<path d="M48.0345 214.596C49.9345 216.686 52.6145 215.506 54.8445 216.226C56.1845 218.386 56.9145 220.466 53.9545 221.966C48.4445 220.486 46.8245 218.456 48.0345 214.596Z" fill="#1EF99A"/>
<path d="M40.9946 227.584C39.8946 226.924 40.2645 225.815 40.1445 224.855C43.4245 222.305 45.5646 224.964 47.9346 226.564C48.2046 227.854 47.1846 228.654 46.7446 229.674C44.0946 231.004 42.6046 229.114 40.9946 227.594V227.584Z" fill="black"/>
<path d="M47.9346 226.565C45.1046 227.085 43.0545 224.005 40.1445 224.855C40.4645 223.165 40.7946 221.475 41.1146 219.795C41.4446 219.795 41.7846 219.805 42.1146 219.815C42.9846 221.555 44.9445 221.895 46.2845 223.025C47.1645 223.765 48.9345 224.025 48.0345 225.875C48.1845 226.135 48.1546 226.365 47.9246 226.575L47.9346 226.565Z" fill="black"/>
<path d="M48.0332 225.866C46.6332 223.286 42.5233 223.356 42.1133 219.816C42.3933 219.716 42.6733 219.666 42.9733 219.656C45.6833 221.276 48.4033 222.886 51.1133 224.496C50.7133 226.356 49.1632 225.656 48.0332 225.866Z" fill="black"/>
<path d="M44.8344 234.855C43.1344 233.765 41.4344 232.675 39.7344 231.585C41.0044 228.125 41.2644 228.085 45.8844 230.655C46.3044 232.245 45.1344 233.445 44.8344 234.855Z" fill="black"/>
<path d="M45.8744 230.655C43.9544 231.785 41.1644 227.235 39.7244 231.585C37.8544 229.525 40.2344 228.815 40.9844 227.595C43.3444 227.075 44.7444 229.195 46.7344 229.675C46.4444 230.005 46.1544 230.335 45.8644 230.665L45.8744 230.655Z" fill="black"/>
<defs>
<linearGradient id="paint0_linear_327_211" x1="145.543" y1="8.7144" x2="102.214" y2="22.706" gradientUnits="userSpaceOnUse">
<stop stop-color="#EF4FE0"/>
<stop offset="1" stop-color="#E78AE0"/>
</linearGradient>
<linearGradient id="paint1_linear_327_211" x1="92.0559" y1="42.2912" x2="36.8878" y2="69.4623" gradientUnits="userSpaceOnUse">
<stop stop-color="#EF4FE0"/>
<stop offset="1" stop-color="#E78AE0"/>
</linearGradient>
<linearGradient id="paint2_linear_327_211" x1="103.867" y1="167.2" x2="88.616" y2="172.026" gradientUnits="userSpaceOnUse">
<stop stop-color="#EF4FE0"/>
<stop offset="1" stop-color="#E78AE0"/>
</linearGradient>
<linearGradient id="paint3_linear_327_211" x1="95.9022" y1="159.354" x2="68.4484" y2="169.501" gradientUnits="userSpaceOnUse">
<stop stop-color="#EF4FE0"/>
<stop offset="1" stop-color="#E78AE0"/>
</linearGradient>
</defs>
</svg>
