<svg width="468" height="690" viewBox="0 0 468 690" fill="none" xmlns="http://www.w3.org/2000/svg">
<path d="M318.294 120.569C307.299 172.237 267.059 243.667 228.948 235.558C190.838 227.45 168.893 178.942 179.888 127.274C190.883 75.6057 230.663 40.2971 268.736 48.4398C306.809 56.5824 329.253 68.9344 318.258 120.603L318.294 120.569Z" fill="url(#paint0_linear_163_42)"/>
<path d="M405.59 81.7134L406.794 83.3287L406.595 87.8287L448.064 89.6598L448.158 87.5338C448.239 85.6912 448.356 83.8502 448.542 82.0478L450.514 62.2532C450.514 62.2532 450.52 62.1115 450.594 62.0438L454.041 58.5747C454.041 58.5747 459.999 53.6188 464.569 48.7792C469.14 43.9396 464.135 39.3518 464.135 39.3518L457.399 37.8827C457.399 37.8827 457.161 37.6592 457.273 37.5221L464.543 28.5059C465.838 18.4447 457.553 19.9605 457.553 19.9605L450.436 26.3208C450.517 26.0759 450.597 25.8664 450.608 25.6184C451.658 15.4754 441.836 18.9115 438.722 18.845C434.44 18.7625 421.853 35.0706 419.08 36.1197C418.935 36.1843 416.834 38.0442 416.721 38.1813C413.156 41.9291 407.758 43.0399 404.128 39.4004C403.314 38.5834 402.466 37.7294 401.549 36.8368C389.942 25.3539 388.013 40.961 388.724 44.1166C389.223 46.4464 396.801 63.3608 400.435 74.9177L402.695 78.2838L405.517 81.7457L405.59 81.7134Z" fill="url(#paint1_linear_163_42)" stroke="black" stroke-miterlimit="10"/>
<path d="M42.1694 347.808L41.823 348.432C37.7571 350.667 10.9162 365.707 13.3896 371.461C14.3517 373.74 15.4901 374.429 16.6246 374.408C15.3215 375.842 9.72754 382.198 14.9504 382.642C17.1392 382.81 19.5791 382.101 21.7779 381.239L22.2801 381.901C18.6818 385.576 11.4479 393.777 18.3142 393.903C22.7733 393.993 43.6505 378.442 43.6505 378.442L48.7877 374.408C48.7877 374.408 37.0814 383.619 37.8244 386.847C38.5674 390.075 77.0805 368.202 77.0805 368.202L42.1678 347.844L42.1694 347.808ZM41.0903 349.784L40.652 350.085L41.3597 349.299L41.0903 349.784Z" fill="#C38EBF"/>
<path d="M402.825 85.7449L453.079 87.5733L451.234 129.35C451.067 133.141 450.194 136.866 448.624 140.347C443.362 152.008 429.283 178.049 405.98 185.967C375.592 196.306 347.937 202.505 343.815 207.613C339.693 212.72 305.028 230.894 299.441 255.535C293.854 280.176 253.769 397.021 257.648 409.441L142.279 408.642C142.279 408.642 159.54 296.896 156.503 290.265C153.466 283.634 81.4724 371.449 81.4724 371.449L36.501 344.646L128.313 243.612L169.958 224.61L225.974 218.67C225.974 218.67 250.619 240.527 264.187 217.233C277.755 193.938 323.241 164.172 323.241 164.172C323.241 164.172 393.696 143.283 395.146 134.506C396.597 125.73 405.015 101.924 402.825 85.7449Z" fill="#FECF2A" stroke="black" stroke-width="0.7" stroke-miterlimit="10" stroke-linecap="round"/>
<path d="M164.778 166.429L165.199 166.096L164.852 165.716C156.52 148.568 158.807 137.696 163.117 131.079C165.286 127.749 167.99 125.463 170.188 123.985C171.286 123.246 172.256 122.711 172.966 122.35C173.321 122.169 173.612 122.032 173.823 121.933C173.868 121.912 173.91 121.892 173.949 121.874C174 121.85 174.045 121.829 174.083 121.811L174.091 121.808C174.137 121.786 174.222 121.745 174.28 121.704C174.504 121.543 174.835 121.183 175.285 120.285C175.738 119.379 176.33 117.885 177.054 115.406C178.503 110.445 180.496 101.481 182.949 85.2492C184.171 77.1644 185.799 71.9465 187.716 68.3954C189.623 64.8627 191.827 62.9609 194.253 61.5242C195.422 60.8321 196.661 60.2428 197.952 59.6283C202.033 57.6867 206.642 55.4941 211.251 49.0136C213.627 45.682 218.119 43.2186 223.867 41.4362C229.599 39.6588 236.497 38.5835 243.582 37.9689C257.75 36.74 272.587 37.359 280.174 37.8358C283.311 38.0475 286.418 37.3043 289.123 35.7006C295.72 31.839 306.45 28.2827 312.054 26.5762C314.445 25.8596 317.006 25.8037 319.391 26.4887L319.394 26.4895C326.75 28.5525 330.369 31.303 331.756 34.2331C333.135 37.1459 332.389 40.4137 330.558 43.7314C328.731 47.0423 325.883 50.2906 323.259 53.0863C322.663 53.7209 322.074 54.3379 321.512 54.9259C320.849 55.6191 320.225 56.2722 319.675 56.8667C318.658 57.9646 317.825 58.9331 317.385 59.6942C316.509 61.2101 316.324 62.658 316.609 64.0794C316.89 65.479 317.622 66.8245 318.523 68.1634C319.083 68.9962 319.731 69.8578 320.395 70.7399C320.79 71.2648 321.191 71.797 321.582 72.3346C322.643 73.7952 323.667 75.3412 324.446 77.0449C325.194 78.6813 325.435 81.1261 325.327 84.1435C325.219 87.1445 324.769 90.6397 324.193 94.3332C323.873 96.3834 323.513 98.4963 323.152 100.616C322.218 106.103 321.276 111.635 320.995 116.242C320.603 122.676 322.518 126.356 324.991 131.108L325.05 131.223C327.537 136.003 330.62 141.975 332.662 153.126C336.743 175.408 330.784 191.993 321.251 210.92C318.944 215.501 314.684 218.347 309.447 219.919C304.205 221.493 298.026 221.776 291.974 221.253C285.926 220.73 280.036 219.405 275.387 217.787C273.062 216.978 271.058 216.099 269.504 215.217C267.935 214.327 266.88 213.463 266.388 212.707C265.383 211.166 265.279 208.721 265.994 205.728C266.704 202.759 268.195 199.363 270.22 196.025C274.282 189.33 280.405 183.006 286.458 180.833C292.808 178.554 297.412 173.561 300.415 169.185C301.92 166.991 303.032 164.94 303.769 163.436C304.137 162.684 304.411 162.068 304.595 161.638C304.686 161.424 304.755 161.256 304.801 161.141C304.824 161.083 304.841 161.039 304.853 161.008L304.86 160.989C313.278 144.791 314.083 134.554 312.706 128.318C312.016 125.198 310.784 123.097 309.709 121.769C309.283 121.243 308.883 120.839 308.552 120.542C308.572 120.536 308.592 120.53 308.612 120.524C309.288 120.321 310.233 119.979 311.325 119.423C313.511 118.309 316.285 116.337 318.666 112.899C321.086 109.406 321.035 106.365 320.341 104.186C319.998 103.108 319.501 102.253 319.091 101.667C318.885 101.374 318.7 101.146 318.564 100.991C318.522 100.942 318.484 100.9 318.452 100.866C318.433 100.845 318.416 100.826 318.401 100.811C318.391 100.8 318.381 100.79 318.373 100.782C318.105 100.398 317.663 100.184 317.207 100.06C316.721 99.9276 316.136 99.8738 315.508 99.8693C314.248 99.8603 312.718 100.05 311.254 100.3C309.785 100.551 308.361 100.867 307.305 101.121C307.015 101.19 306.753 101.255 306.524 101.312C306.621 101.044 306.731 100.721 306.844 100.345C307.219 99.1099 307.643 97.3043 307.852 95.004C308.272 90.4004 307.831 83.827 304.423 75.8927C297.639 59.9748 286.757 54.3153 276.418 50.8541C273.698 49.9435 270.869 50.3959 268.198 51.5315C265.528 52.6666 262.975 54.5008 260.767 56.4237C258.556 58.3492 256.673 60.3803 255.343 61.928C254.677 62.7025 254.15 63.3573 253.787 63.8193C253.606 64.0504 253.466 64.2333 253.372 64.359C253.324 64.4218 253.288 64.4703 253.264 64.5034L253.236 64.5412L253.228 64.5512L253.226 64.5539L253.226 64.5547C253.226 64.5549 253.225 64.5551 253.629 64.8497L253.225 64.5551L253.146 64.6633L253.132 64.7965C251.604 79.084 246.765 88.9202 242.173 95.7976C240.096 98.9097 238.069 101.416 236.409 103.469C236.232 103.688 236.06 103.902 235.892 104.11C235.022 105.19 234.265 106.146 233.692 106.99C233.123 107.827 232.701 108.599 232.542 109.31C232.443 109.752 232.131 110.151 231.554 110.508C230.972 110.868 230.161 111.158 229.157 111.382C227.151 111.83 224.503 111.989 221.707 112.019C219.433 112.043 217.087 111.98 214.939 111.923C214.451 111.91 213.973 111.898 213.509 111.886C211.027 111.826 208.88 111.801 207.664 111.999L207.662 111.999C206.887 112.128 206.076 112.635 205.308 113.353C204.529 114.081 203.747 115.068 203.032 116.238C201.604 118.577 200.416 121.696 200.071 125.052C199.725 128.412 200.222 132.028 202.188 135.333C204.156 138.64 207.569 141.59 212.976 143.66C223.497 147.687 230.402 154.4 233.491 164.319C236.59 174.273 235.868 187.522 230.959 204.643C226.088 221.637 213.128 233.489 201.328 241.107C195.434 244.912 189.844 247.651 185.728 249.438C183.67 250.331 181.982 250.986 180.81 251.418C180.224 251.633 179.767 251.793 179.457 251.898C179.302 251.951 179.184 251.99 179.105 252.016L179.052 252.033L179.016 252.045L179.006 252.048L178.994 252.051C178.973 252.056 178.941 252.063 178.899 252.072C178.815 252.091 178.688 252.119 178.523 252.154C178.192 252.224 177.704 252.323 177.079 252.439C175.829 252.67 174.033 252.967 171.853 253.23C167.489 253.757 161.596 254.145 155.465 253.599C143.179 252.505 130.126 247.688 126.251 232.935C124.31 225.545 125.704 217.707 128.936 210.07C132.167 202.434 137.22 195.04 142.536 188.565C147.85 182.094 153.412 176.558 157.647 172.639C159.765 170.68 161.549 169.126 162.803 168.062C163.431 167.53 163.925 167.121 164.263 166.846C164.431 166.708 164.561 166.603 164.647 166.533L164.746 166.455L164.77 166.435L164.776 166.43L164.778 166.429C164.778 166.429 164.778 166.429 164.468 166.037L164.778 166.429Z" fill="#010102" stroke="#5E5E5E"/>
<path d="M142.046 409.911L130.961 622.439C130.918 623.431 131.478 624.379 132.418 624.74C140.08 627.705 173.992 640.244 180.972 632.174C181.271 631.832 181.396 631.411 181.45 630.988C182.821 620.788 199.738 492.766 198.105 461.558C197.984 459.493 200.48 458.325 202.011 459.742C217.095 473.508 260.147 513.291 261.911 519.866C264.41 529.065 251.306 577.942 238.053 597.309C237.298 598.377 237.552 599.844 238.616 600.601L280.414 629.499C281.444 630.219 282.871 629.998 283.625 628.967C292.488 616.754 341.828 546.223 321.799 515.303C301.769 484.383 263.536 418.896 258.103 409.568C257.675 408.839 256.948 408.452 256.135 408.416L144.341 407.669C143.102 407.65 142.067 408.633 142.012 409.874L142.046 409.911Z" fill="#49C0E3" stroke="black" stroke-miterlimit="10"/>
<path d="M272.202 102.309C271.842 110.459 261.833 114.916 253.667 114.555C245.5 114.195 241.044 110.022 241.405 101.837C241.767 93.6513 248.603 88.8407 256.734 89.1998C264.866 89.5588 272.528 94.122 272.166 102.307L272.202 102.309Z" fill="white" stroke="black" stroke-width="0.5" stroke-miterlimit="10"/>
<path d="M263.589 106.437C266.206 106.553 268.421 104.521 268.536 101.898C268.652 99.2761 266.625 97.0566 264.009 96.9411C261.392 96.8256 259.178 98.8577 259.062 101.48C258.946 104.102 260.973 106.322 263.589 106.437Z" fill="black" stroke="black" stroke-width="0.5" stroke-miterlimit="10"/>
<path d="M307.482 91.0499C307.862 95.2915 308.602 98.5905 306.752 98.7573C304.903 98.9242 300.839 97.1116 300.458 92.9054C300.077 88.6993 304.319 84.8748 306.168 84.7079C308.018 84.541 307.103 86.8083 307.482 91.0499Z" fill="white" stroke="black" stroke-width="0.3" stroke-miterlimit="10"/>
<path d="M306.146 91.6301C306.11 90.8474 306.003 90.0616 306.5 90.048C306.996 90.0344 307.429 90.6571 307.467 91.4043C307.505 92.1516 307.121 92.8092 306.588 92.8566C306.055 92.9041 306.147 92.4112 306.146 91.6301Z" fill="black" stroke="black" stroke-width="0.5" stroke-miterlimit="10"/>
<path d="M298.333 166.693C282.615 172.887 265.327 167.33 256.325 163.418C252.155 161.601 248.68 158.465 246.447 154.497C235.467 135.231 243.23 128.686 248.817 126.483C251.161 125.557 253.807 125.78 256.058 126.945C291.396 144.908 312.74 135.625 312.74 135.625C312.74 135.625 312.139 161.267 298.333 166.693Z" fill="#593278"/>
<path d="M264.105 169.336C264.105 169.336 275.539 174.314 286.083 172.188" stroke="black" stroke-width="0.5" stroke-miterlimit="10" stroke-linecap="round"/>
<path d="M243.221 126.485C243.221 126.485 234.335 131.986 239.138 138.731" stroke="black" stroke-width="0.5" stroke-miterlimit="10" stroke-linecap="round"/>
<path d="M267.299 84.9798C267.299 84.9798 253.49 78.4411 242.734 85.3863" stroke="black" stroke-width="0.5" stroke-miterlimit="10" stroke-linecap="round"/>
<path d="M315.363 76.238C315.363 76.238 304.018 73.2519 299.988 81.8787" stroke="black" stroke-width="0.5" stroke-miterlimit="10" stroke-linecap="round"/>
<path d="M285.178 85.2012C285.178 85.2012 290.579 105.676 299.384 102.799L308.66 100.51" stroke="black" stroke-width="0.5" stroke-miterlimit="10" stroke-linecap="round"/>
<path d="M210.161 138.765C212.133 138.852 213.802 137.32 213.89 135.343C213.977 133.367 212.449 131.694 210.477 131.607C208.505 131.52 206.836 133.052 206.748 135.028C206.661 137.005 208.189 138.677 210.161 138.765Z" fill="black"/>
<path d="M311.446 120.835L301.371 123.585" stroke="#010102" stroke-width="0.7" stroke-miterlimit="10" stroke-linecap="round"/>
<path d="M130.881 621.832C130.881 621.832 142.053 623.923 145.628 619.962C149.203 616.002 162.512 602.601 185.052 619.182C207.592 635.763 224.123 654.458 224.123 654.458C224.123 654.458 238.482 678.24 221.787 679.278C205.093 680.316 127.07 672.042 120.906 657.604C114.743 643.166 130.882 621.796 130.882 621.796L130.881 621.832Z" fill="#1EF99A" stroke="black" stroke-miterlimit="10"/>
<path d="M240.662 593.59C240.662 593.59 251.834 595.681 255.409 591.72C258.985 587.76 272.293 574.359 294.833 590.94C317.373 607.522 333.904 626.216 333.904 626.216C333.904 626.216 348.263 649.998 331.569 651.036C314.875 652.074 236.851 643.8 230.688 629.363C224.524 614.925 240.664 593.555 240.664 593.555L240.662 593.59Z" fill="#1EF99A" stroke="black" stroke-miterlimit="10"/>
<path d="M220.565 156.656C220.565 156.656 242.883 176.671 213.989 223.75" stroke="white" stroke-width="0.7" stroke-miterlimit="10" stroke-linecap="round"/>
<path d="M246.091 62.2803C246.091 62.2803 256.181 62.4063 227.287 109.485" stroke="white" stroke-width="0.7" stroke-miterlimit="10" stroke-linecap="round"/>
<path d="M323.289 149.405C323.289 149.405 341.005 171.773 312.292 213.961" stroke="white" stroke-width="0.7" stroke-miterlimit="10" stroke-linecap="round"/>
<path d="M275.045 458.28C275.045 458.28 329.164 528.196 318.84 547.018" stroke="white" stroke-width="0.7" stroke-miterlimit="10" stroke-linecap="round"/>
<path d="M187.607 465.887L177.313 589.905" stroke="white" stroke-width="0.7" stroke-miterlimit="10" stroke-linecap="round"/>
<path d="M449.944 27.8256L435.773 43.9218" stroke="black" stroke-width="0.7" stroke-miterlimit="10" stroke-linecap="round"/>
<path d="M456.106 38.2519L441.937 54.3126" stroke="black" stroke-width="0.7" stroke-miterlimit="10" stroke-linecap="round"/>
<path d="M407.811 41.0186C407.811 41.0186 425.707 52.0691 421.222 61.3859L407.811 41.0186Z" fill="#C38EBF"/>
<path d="M407.811 41.0186C407.811 41.0186 425.707 52.0691 421.222 61.3859" stroke="black" stroke-width="0.7" stroke-miterlimit="10" stroke-linecap="round"/>
<path d="M246.301 136.171C246.301 136.171 246.295 153.141 254.177 156.755C261.571 160.171 276.314 169.626 305.077 161.595C305.077 161.595 310.316 155.258 310.076 151.058C309.836 146.858 246.336 136.172 246.336 136.172L246.301 136.171Z" fill="black"/>
<path d="M312.185 141.778C312.185 141.778 295.632 146.834 250.897 132.327C250.897 132.327 240.486 134.672 251.12 142.526C261.754 150.38 305.576 154.268 307.985 152.67C313.423 149.04 312.185 141.778 312.185 141.778Z" fill="white"/>
<defs>
<linearGradient id="paint0_linear_163_42" x1="292.87" y1="118.355" x2="235.44" y2="141.538" gradientUnits="userSpaceOnUse">
<stop stop-color="#DC9DA5"/>
<stop offset="1" stop-color="#C38EBF"/>
</linearGradient>
<linearGradient id="paint1_linear_163_42" x1="408.926" y1="75.7266" x2="504.148" y2="36.6887" gradientUnits="userSpaceOnUse">
<stop stop-color="#C38EBF"/>
<stop offset="1" stop-color="#E8A894"/>
</linearGradient>
</defs>
</svg>
