<svg width="1440" height="1633" viewBox="0 0 1440 1633" fill="none" xmlns="http://www.w3.org/2000/svg">
<circle cx="309" cy="274.001" r="40.4887" transform="rotate(-179.984 309 274.001)" fill="#F187FF" stroke="black" stroke-width="3"/>
<path d="M1304.23 755.671L1409.31 756C1412.2 756 1414.89 754.468 1416.39 751.934L1473.79 654.815C1477.13 649.173 1473.14 641.986 1466.72 642L1369.05 642.329C1366.35 642.329 1363.82 643.704 1362.29 645.98L1297.47 742.441C1293.71 748.025 1297.6 755.642 1304.23 755.671Z" fill="#69509C" stroke="#000100" stroke-miterlimit="10"/>
<path d="M-28.7745 121.671L76.3144 122C79.2027 122 81.8887 120.468 83.3906 117.934L140.795 20.8146C144.13 15.1733 140.145 7.9857 133.718 8.00002L36.0522 8.32934C33.3517 8.32934 30.8245 9.70386 29.2937 11.9804L-35.533 108.441C-39.2878 114.025 -35.4031 121.642 -28.7745 121.671Z" fill="#1EF99A" stroke="#000100" stroke-miterlimit="10"/>
<path d="M877.414 40.9123L905.806 97.6061C906.591 99.1618 908.149 100.191 909.927 100.309L978.01 104.741C981.965 104.999 984.765 100.892 983.011 97.4343L956.28 44.9183C955.546 43.4637 954.116 42.4774 952.47 42.2738L882.725 33.6638C878.687 33.1644 875.627 37.3342 877.414 40.9123Z" fill="#FFD313" stroke="#000100" stroke-miterlimit="10"/>
<path d="M51.4137 681.912L79.8061 738.606C80.5913 740.162 82.1494 741.191 83.9271 741.309L152.01 745.741C155.965 745.999 158.765 741.892 157.011 738.434L130.28 685.918C129.546 684.464 128.116 683.477 126.47 683.274L56.7248 674.664C52.6867 674.164 49.627 678.334 51.4137 681.912Z" fill="#1FD0EF" stroke="#000100" stroke-miterlimit="10"/>
<path d="M1297.48 743.684L1404.32 744C1406.59 744 1408.71 742.821 1409.89 740.881L1468.05 644.832C1470.67 640.505 1467.55 634.971 1462.49 635L1363.16 635.316C1361.04 635.316 1359.05 636.366 1357.84 638.119L1292.16 733.536C1289.2 737.833 1292.26 743.669 1297.48 743.698V743.684Z" fill="#69509C" stroke="#000100" stroke-miterlimit="10"/>
<path d="M-35.5231 109.684L71.3229 110C73.5944 110 75.7077 108.821 76.8866 106.881L135.054 10.8321C137.67 6.50545 134.551 0.971363 129.49 1.00011L30.163 1.31634C28.0353 1.31634 26.0514 2.36566 24.8437 4.11932L-40.8424 99.5356C-43.804 103.833 -40.7418 109.669 -35.5231 109.698V109.684Z" fill="#1EF99A" stroke="#000100" stroke-miterlimit="10"/>
<path d="M1362.48 1504.68L1469.32 1505C1471.59 1505 1473.71 1503.82 1474.89 1501.88L1533.05 1405.83C1535.67 1401.51 1532.55 1395.97 1527.49 1396L1428.16 1396.32C1426.04 1396.32 1424.05 1397.37 1422.84 1399.12L1357.16 1494.54C1354.2 1498.83 1357.26 1504.67 1362.48 1504.7V1504.68Z" fill="#1EF99A" stroke="#000100" stroke-miterlimit="10"/>
<path d="M881.822 34.1289L910.592 91.553C911.207 92.7719 912.416 93.5844 913.785 93.6876L981.459 98.6966C984.507 98.9203 986.653 95.7362 985.267 93.0284L958.192 39.8118C957.615 38.67 956.511 37.8916 955.236 37.7221L885.867 28.5055C882.741 28.0889 880.416 31.3244 881.814 34.1328L881.822 34.1289Z" fill="#FFD313" stroke="#000100" stroke-miterlimit="10"/>
<path d="M55.8217 675.129L84.5916 732.553C85.2068 733.772 86.4164 734.584 87.7847 734.688L155.459 739.697C158.507 739.92 160.653 736.736 159.267 734.028L132.192 680.812C131.615 679.67 130.511 678.892 129.236 678.722L59.8665 669.506C56.7411 669.089 54.4159 672.324 55.8139 675.133L55.8217 675.129Z" fill="#1FD0EF" stroke="#000100" stroke-miterlimit="10"/>
<path d="M1035.93 1401.13L1064.7 1458.55C1065.31 1459.77 1066.52 1460.58 1067.89 1460.69L1135.56 1465.7C1138.61 1465.92 1140.76 1462.74 1139.37 1460.03L1112.3 1406.81C1111.72 1405.67 1110.61 1404.89 1109.34 1404.72L1039.97 1395.51C1036.84 1395.09 1034.52 1398.32 1035.92 1401.13L1035.93 1401.13Z" fill="#F187FF" stroke="#000100" stroke-miterlimit="10"/>
<circle cx="1410.52" cy="1045.52" r="53.0027" transform="rotate(-179.984 1410.52 1045.52)" fill="#FFD313" stroke="black" stroke-width="3"/>
<path d="M1290 69.04L1334.01 44.0796L1356.44 83.6225L1404.19 56.5428L1459.72 154.458L1411.97 181.538L1390.61 143.878L1346.6 168.839L1290 69.04Z" fill="#F187FF" stroke="black" stroke-width="3"/>
<rect x="1238.79" y="482.112" width="86.2605" height="35.9873" transform="rotate(50.2681 1238.79 482.112)" fill="#1FD0EF" stroke="black" stroke-width="3"/>
<path d="M-66.0152 1631.72L23.2223 1632C25.6749 1632 27.9558 1630.7 29.2311 1628.54L77.9764 1545.9C80.8091 1541.1 77.4245 1534.99 71.9675 1535L-10.9668 1535.28C-13.26 1535.28 -15.406 1536.45 -16.7059 1538.39L-71.7543 1620.46C-74.9427 1625.21 -71.6439 1631.7 -66.0152 1631.72Z" fill="#1FD0EF" stroke="#000100" stroke-miterlimit="10"/>
<path d="M-71.5056 1621.73L19.1335 1622C21.0604 1622 22.8532 1620.99 23.8532 1619.34L73.1973 1537.39C75.417 1533.7 72.7705 1528.98 68.4776 1529L-15.7831 1529.27C-17.588 1529.27 -19.271 1530.17 -20.2955 1531.66L-76.018 1613.07C-78.5303 1616.74 -75.9326 1621.72 -71.5056 1621.74V1621.73Z" fill="#1FD0EF" stroke="#000100" stroke-miterlimit="10"/>
</svg>
