<svg width="460" height="308" viewBox="0 0 460 308" fill="none" xmlns="http://www.w3.org/2000/svg">
<path d="M235.199 89.2446C270.55 5.15285 352.399 19.1569 360.765 75.0945C446.542 101.373 494.715 216.162 427.03 236.147H340.496C368.857 301.027 258.254 337.853 114.158 273.167C-28.4947 320.043 45.0794 176.377 95.0312 142.013C72.2676 108.748 51.7884 64.3939 67.718 27.1989C74.9517 10.3085 92.6485 -0.722517 110.885 1.5201C155.046 6.95058 205.713 53.7906 235.199 89.2446Z" fill="#9B44FC" stroke="black"/>
<path d="M77 138.664C52.2627 152.163 2.43059 168.182 1 124.265C6.66275 109.265 29.7906 91.1464 77 138.664Z" fill="#9B44FC" stroke="black"/>
</svg>
