<svg width="543" height="189" viewBox="0 0 543 189" fill="none" xmlns="http://www.w3.org/2000/svg">
<path d="M290.569 150.814C68.3696 139.732 29.7787 83.2235 4.84418 39.1976C91.7866 82.4802 213.5 43.7238 283.695 30.9755C409.369 8.15136 483.698 26.4195 516.979 43.4222C531.923 51.0564 540.965 66.8936 539.377 83.599C532.27 158.358 383.718 155.459 290.569 150.814Z" fill="#F187FF" stroke="black"/>
<path d="M76.0579 161.732C25.5428 129.132 23.8938 111.076 23.8091 97.7031C38.4914 119.302 74.1149 130.627 90.0914 133.59C105.866 136.208 116.631 139.714 123.797 143.237C134.659 148.576 136.758 163.531 126.605 170.118C113.953 178.327 93.1627 172.77 76.0579 161.732Z" fill="#F187FF" stroke="black"/>
</svg>
