<svg width="475" height="252" viewBox="0 0 475 252" fill="none" xmlns="http://www.w3.org/2000/svg">
<path d="M113.571 47.7231C103.29 34.3864 89.1734 6.47473 114.959 1.52166C124.342 3.46048 137.199 15.4151 113.571 47.7231Z" fill="#9B44FC" stroke="black"/>
<path d="M367.5 90.7757C322.137 13.5965 251.754 65.2385 227.655 90.7757L186.544 62.4012C153.656 39.7016 120.862 58.6179 108.577 70.9134C50.7387 14.164 1 45.3258 1 70.9134C3.26816 99.2882 16.6201 141.85 54 141.85C62.2667 191.859 133.566 216.377 176.5 196C259.288 255.019 298.535 209.004 305.623 184.412C352.12 232.082 376.975 204.275 383.59 184.412C467.512 195.762 478.097 160.767 472.899 141.85C455.888 83.9658 399.16 77.0613 367.5 90.7757Z" fill="#9B44FC" stroke="black"/>
<path d="M312.678 204.128C327.988 211.141 353.479 229.266 332.968 245.659C323.762 248.313 306.817 243.722 312.678 204.128Z" fill="#9B44FC" stroke="black"/>
</svg>
