<svg width="145" height="269" viewBox="0 0 145 269" fill="none" xmlns="http://www.w3.org/2000/svg">
<path d="M70.2019 104.999C69.6219 104.849 59.0702 100.499 59.6387 101.525C56.5053 97.8319 65.9149 95.1361 70.2216 92.4628C70.9116 92.0328 71.6915 91.7428 72.4215 91.3828C72.7715 92.7528 73.1216 94.1228 73.4716 95.4928C72.0216 97.6528 68.5719 101.399 70.2019 104.999Z" fill="#1EF99A"/>
<path d="M103.262 14.5953C103.572 13.6953 103.632 12.4553 105.152 13.1753C107.052 14.0753 108.552 15.5953 109.082 17.4853C110.012 20.7853 110.302 24.2353 115.302 22.4153C116.312 22.0453 117.532 23.0854 117.422 24.5654C117.322 25.9854 116.322 26.5453 115.042 26.5953C113.562 26.6553 112.082 26.6053 110.522 26.6053C114.852 33.6253 114.182 43.6954 109.112 49.2654C106.322 51.3054 103.682 53.5354 101.002 55.7054C99.8317 56.6554 98.5016 57.5854 96.9316 56.9254C95.1316 56.1654 94.9017 54.3753 94.9017 52.7153C94.9017 48.5553 95.8717 44.5054 96.3617 40.3954C96.5917 38.4954 97.4017 36.3354 94.6917 35.3754C93.4617 34.8854 92.0717 35.0454 90.9017 34.3854C85.3717 30.1654 78.9117 31.2453 72.8217 31.7853C67.8017 32.2253 62.9516 31.8754 58.0416 31.3054C54.7616 30.9254 51.9617 29.7854 50.3717 26.6354C49.325 23.122 51.9584 21.772 58.2717 22.5853C54.8617 18.2453 51.5117 14.1454 54.4817 8.64538C57.1417 7.74538 58.5216 10.2154 60.5616 10.9354C61.0316 11.0954 61.5617 12.0253 61.9917 11.2753C62.1617 10.9853 61.5717 10.1354 61.6917 9.45538C61.1217 7.70538 62.1817 6.21534 62.4817 4.60534C64.3117 3.08534 66.0417 4.14536 67.5317 5.06536C77.9017 11.5054 90.1517 12.5853 101.232 16.9753C104.412 18.2353 102.412 15.2254 103.252 14.5654L103.262 14.5953Z" fill="black"/>
<path d="M39.4535 167.384C40.7835 164.774 42.1835 162.194 43.4335 159.554C44.1535 158.024 45.9135 156.674 44.5535 154.644C43.5635 152.204 45.6736 151.274 46.8836 149.954C48.1936 148.524 49.3235 146.984 50.3335 145.334C52.9235 142.064 52.7636 136.854 57.5336 135.134C68.8736 133.714 80.1836 135.494 91.5136 135.304C92.3936 135.504 93.1535 135.894 93.6835 136.664C95.6235 150.024 88.1135 158.704 78.8435 166.494C78.3335 166.614 77.8036 166.644 77.2736 166.594C75.9736 166.244 74.2036 165.904 73.5336 166.874C69.9336 171.994 64.1035 170.484 59.3135 171.994C54.5635 172.864 49.8336 173.864 45.1436 175.014C43.2136 175.484 41.2436 176.014 39.2836 175.014C36.1836 172.404 37.8135 169.894 39.4635 167.394L39.4535 167.384Z" fill="#1EF99A"/>
<path d="M95.7848 33.7943C98.2448 33.5943 99.2747 34.2543 98.7247 37.1243C97.6847 42.4743 97.0748 47.9143 96.3848 53.3243C96.2748 54.2243 96.3648 55.6443 96.9048 56.0243C98.0648 56.8243 98.9547 55.6343 99.7947 54.8443C102.495 52.3043 104.565 48.6943 109.125 49.2843C108.555 51.6343 110.745 52.2643 111.885 53.4043C114.345 55.8843 115.275 58.4843 113.565 61.7243C111.235 60.7443 112.465 57.1343 109.685 56.4943C106.075 56.4943 103.755 58.1343 102.935 61.7143C102.715 63.9543 103.155 66.2443 102.395 68.4343C98.5148 67.2143 95.3348 68.1343 92.9948 71.5543C89.9248 75.3743 85.7647 77.1443 81.0847 77.9543C79.0647 78.3043 77.1247 78.2543 75.4147 76.9043C63.3347 75.3643 56.8848 68.0943 57.6248 56.0843C57.9648 50.6043 58.1747 45.1843 57.5547 39.7343C58.1547 38.8443 58.0047 37.8243 57.9547 36.8543C57.8647 35.1743 58.2847 33.9043 60.1047 33.5143C61.8047 33.1543 63.7448 33.1343 64.4948 34.8343C66.2148 38.7643 68.7347 37.4643 70.7047 35.6943C74.8847 31.9343 79.3747 32.4743 84.1047 33.8943C85.1647 34.6443 84.8547 36.0443 85.4847 36.9443C86.2047 37.9843 88.2647 38.3643 88.3647 37.6043C89.0247 32.4543 93.1747 34.6943 95.8047 33.7843L95.7848 33.7943Z" fill="url(#paint0_linear_331_51)"/>
<path d="M120.503 146.625C120.803 148.465 121.103 150.305 121.403 152.145C115.333 158.145 105.423 158.595 99.5632 153.155C96.2932 146.585 95.7833 139.275 94.0333 132.285C93.5433 128.815 93.0032 125.365 90.9232 122.385C90.5032 121.695 90.2032 120.965 90.0532 120.175C88.1132 113.025 85.9132 105.905 87.1932 98.3452C89.2732 94.7452 91.6432 91.4052 95.5632 89.5352C95.8032 89.6152 96.0432 89.6752 96.2932 89.7052C102.793 92.0352 106.433 97.6452 108.493 103.295C113.623 117.375 118.043 131.755 120.503 146.615V146.625Z" fill="#1EF99A"/>
<path d="M75.1654 191.553C71.3254 198.073 67.4555 204.573 63.6455 211.123C63.0155 212.213 61.7454 213.373 62.5454 214.703C63.3554 216.043 64.9554 215.333 66.1854 215.273C68.8254 215.153 71.4655 214.913 74.0855 214.533C76.9655 214.113 78.5555 215.083 78.5955 218.123C79.2655 219.453 80.0755 220.713 80.7155 222.053C81.4455 223.713 81.7855 225.483 82.0055 227.283C82.7255 233.073 83.4455 233.533 89.2055 231.973C90.1555 231.713 91.0555 231.303 92.0355 231.143C95.5855 233.623 98.8355 236.463 101.776 239.653C103.386 241.633 102.596 244.683 104.786 246.413C104.706 247.163 104.345 247.773 103.825 248.313C103.045 248.983 102.145 249.343 101.105 249.243C97.8955 248.143 96.6655 245.803 96.4055 242.093C97.4455 246.753 96.6555 250.873 95.8155 254.963C95.3855 257.043 95.0754 259.303 92.5554 260.103C92.0754 260.103 91.6255 260.003 91.2055 259.773C90.4455 259.073 90.0855 258.143 89.9555 257.173C89.4155 253.153 86.9955 252.603 83.5655 253.463C81.5955 253.953 79.5455 255.223 77.5055 253.543C77.4655 252.903 77.4255 252.263 77.3955 251.623C76.9055 247.753 80.4155 247.533 82.5055 245.963C81.8555 240.703 77.7655 239.053 73.5055 237.573C69.2655 237.613 65.0255 237.643 60.7855 237.683C59.3555 238.053 57.9255 238.443 56.4955 237.523C56.3255 235.673 57.8955 235.453 58.9555 234.893C61.7355 233.423 61.4255 231.233 60.4055 228.933C59.5255 226.933 58.3055 226.373 56.8355 228.483C55.7855 229.983 55.1455 231.723 54.1155 233.243C53.1155 234.713 51.8555 235.873 49.9655 234.993C48.1455 234.143 48.1155 232.393 48.3755 230.673C48.6355 228.983 49.7555 227.673 50.4955 226.193C52.4755 222.203 54.8655 218.313 54.0655 213.523C57.5355 203.703 63.5655 195.213 68.3455 186.083C68.8755 185.073 69.8555 184.343 71.0955 184.203C74.6055 185.463 74.4055 188.773 75.1555 191.563L75.1654 191.553Z" fill="#1FD0EF"/>
<path d="M31.4637 230.354C25.0337 231.054 18.6136 231.944 12.1636 232.414C5.34362 232.914 2.81366 230.834 0.453656 223.544C-0.996344 220.354 1.3737 218.014 2.7437 215.884C8.4537 206.964 14.9637 198.604 21.7537 190.474C22.8137 189.214 23.9937 187.974 25.8837 188.004C30.6637 188.914 32.0937 192.184 32.2037 196.614C32.3337 201.864 30.0836 206.434 28.4436 211.184C28.3636 212.334 27.7937 213.344 27.3937 214.464C28.9537 215.534 30.6536 214.564 32.1636 215.064C37.2736 215.944 37.9337 216.734 35.7837 221.004C34.2337 224.084 34.3837 227.944 31.4637 230.364V230.354Z" fill="#1FD0EF"/>
<path d="M142.495 213.565C141.915 214.145 141.075 214.625 140.805 215.325C138.125 222.125 133.305 223.495 127.285 219.105C122.625 215.705 118.995 211.445 117.045 205.965C113.315 195.505 110.585 184.765 108.445 173.865C112.345 170.825 116.635 170.255 121.275 171.765C122.395 176.775 123.255 181.865 124.705 186.785C127.725 197.045 133.755 201.765 144.315 202.675C144.325 202.835 144.375 203.005 144.355 203.165C143.895 206.315 142.245 209.355 143.455 212.675C141.445 212.135 139.365 211.885 137.505 211.065C139.025 212.065 141.425 211.515 142.495 213.575V213.565Z" fill="url(#paint1_linear_331_51)"/>
<path d="M31.4619 230.354C31.6619 225.694 33.0719 221.414 35.9619 217.764C34.4419 215.874 32.6119 216.934 31.1719 216.394C31.1919 215.884 31.392 215.174 31.762 215.154C36.912 214.884 39.7119 210.894 43.2219 208.024C44.3519 208.004 45.1819 208.624 45.5519 209.554C47.4819 214.354 50.7019 215.774 55.4319 213.544C57.0819 219.104 53.6119 223.274 51.5519 227.824C51.0819 228.854 50.0319 229.644 49.7019 230.694C49.3319 231.884 48.9719 233.514 50.6119 234.124C52.0919 234.674 52.5219 233.234 53.0419 232.244C53.9619 230.504 54.782 228.704 55.762 226.994C56.372 225.914 56.562 224.194 58.262 224.284C60.112 224.384 61.0619 225.774 61.8319 227.344C64.5719 232.914 63.3019 235.964 57.7219 236.924C58.5719 238.014 59.822 237.284 60.782 237.694C54.582 239.134 48.2319 238.874 41.9519 239.144C36.1219 239.394 34.4019 233.984 31.4619 230.364V230.354Z" fill="#1FD0EF"/>
<path d="M84.3034 34.8438C81.9934 34.8238 79.6635 34.6638 77.3635 34.8338C75.4335 34.9738 73.3135 33.8339 72.3335 37.5139C71.7135 39.8339 67.3834 39.2538 64.6634 39.1538C62.2434 39.0638 62.3235 37.4038 63.3135 35.6038C63.7535 34.7938 63.1235 34.4739 62.3735 34.4539C61.0635 34.4239 59.5235 34.1138 58.8135 35.5238C58.1635 36.8138 57.9435 38.3238 57.5335 39.7338C58.0435 36.5338 57.4334 34.1638 54.0534 32.5538C51.9934 31.5738 49.9635 29.6438 50.3735 26.6738C56.6135 30.4038 63.4834 30.7438 70.4134 30.0638C75.7034 29.5438 80.9635 29.2938 86.2135 30.1038C88.3635 30.4338 90.3635 31.3338 91.3735 33.5438C89.0435 34.1238 87.1234 36.9638 84.2934 34.8438H84.3034Z" fill="black"/>
<path d="M121.272 171.753C116.992 172.453 112.712 173.153 108.442 173.853C102.992 172.263 104.722 167.123 103.342 163.523C102.532 161.923 103.412 160.883 104.742 160.453C109.422 158.933 114.232 157.943 119.192 158.093C120.042 158.123 120.712 158.663 120.532 159.713C120.312 162.053 121.322 164.113 122.072 166.223C122.782 168.213 122.572 170.063 121.282 171.763L121.272 171.753Z" fill="#1EF99A"/>
<path d="M76.3613 88.8744C77.1113 88.3144 77.3813 87.5644 77.2613 86.6544C77.3813 86.3444 77.4713 86.0344 77.5113 85.7044C82.1013 82.4244 87.1913 80.4144 92.8013 79.7344C94.0213 82.1944 93.1514 84.8844 93.6514 87.4244C92.1714 93.8444 85.9313 97.6844 79.8413 95.9244C76.1913 94.8744 75.2213 92.9044 76.3713 88.8744H76.3613Z" fill="url(#paint2_linear_331_51)"/>
<path d="M92.7922 79.7344C88.1822 82.9644 83.1423 85.1145 77.5023 85.7045C76.8023 82.7745 76.1023 79.8344 75.4023 76.9044C81.8223 76.9744 87.3123 73.9845 92.9823 71.5645C92.1123 74.2745 92.6422 77.0044 92.7922 79.7344Z" fill="black"/>
<path d="M25.375 144.554C25.875 141.384 26.945 138.484 29.395 136.254C30.335 136.844 30.655 137.814 30.525 138.774C29.845 143.884 32.6949 146.584 36.9349 148.364C39.7749 149.824 42.525 151.394 43.605 154.694C40.095 156.864 36.265 157.694 32.275 156.734C27.465 155.584 25.725 152.294 25.375 144.554Z" fill="#1EF99A"/>
<path d="M103.261 14.594C104.101 16.694 105.891 18.394 105.961 20.844C92.1613 13.454 75.9113 12.8441 62.5013 4.63406C61.0713 3.15406 61.0213 1.55404 62.6613 0.36404C64.1513 -0.72596 65.0613 0.904057 66.0013 1.69406C75.9813 10.0941 88.9413 10.964 100.501 15.344C101.221 15.614 102.331 14.864 103.261 14.584V14.594Z" fill="white"/>
<path d="M120.522 159.714C114.642 160.304 108.512 159.735 103.342 163.525C102.672 162.935 102.002 162.345 101.332 161.755C100.692 158.725 98.7122 155.824 100.442 152.564C105.022 157.084 110.192 155.245 115.292 153.925C117.352 153.395 119.372 152.735 121.412 152.145C122.962 154.885 123.462 157.504 120.522 159.714Z" fill="#1EF99A"/>
<path d="M43.6116 154.694C40.4016 154.234 39.5916 150.224 36.3516 149.804C36.8116 148.404 37.9415 147.504 39.1915 147.244C45.6415 145.904 46.9115 140.764 47.9515 135.504C48.2715 133.874 48.8916 132.344 49.1516 130.704C49.5316 128.354 51.1115 127.184 53.4415 127.754C55.8715 128.354 56.2816 130.224 55.7216 132.444C54.5016 137.234 52.2115 141.684 51.1915 146.544C50.1115 150.174 46.5715 151.784 44.5415 154.634C44.2315 154.674 43.9216 154.694 43.6016 154.684L43.6116 154.694Z" fill="#1EF99A"/>
<path d="M76.3619 88.8738C77.4019 95.3538 82.9119 97.1238 88.4819 92.6339C90.3719 91.1139 91.9319 89.1738 93.6419 87.4238C94.6419 87.8038 95.3918 88.4138 95.5618 89.5438C93.8218 92.9538 91.2319 95.5938 88.1419 97.7938C82.9819 102.534 77.3919 101.924 72.3519 96.0938C71.3219 94.5038 71.2018 92.9338 72.4218 91.3738C73.4818 90.1438 74.4819 88.8038 76.3619 88.8638V88.8738Z" fill="#1EF99A"/>
<path d="M110.133 54.8145C113.973 55.7845 113.333 58.9744 113.563 61.7244C111.453 66.6544 107.583 68.6445 102.393 68.4445C99.3834 66.3945 102.073 63.6645 101.543 61.3245C104.313 59.0345 107.563 57.3645 110.133 54.8145Z" fill="#AE3BA4"/>
<path d="M61.71 9.49319C63.07 10.8632 64.42 12.2232 66.04 13.8532C60.91 14.2332 57.8701 11.0832 54.4901 8.68319C53.9501 7.50319 53.1401 6.23318 54.6401 5.23318C55.9001 4.39318 56.72 5.4632 57.57 6.1932C58.92 7.3332 59.86 8.97319 61.71 9.49319Z" fill="white"/>
<path d="M25.5 188.715C29.73 183.555 32.5499 177.025 39.4299 174.465C46.0899 173.255 52.5299 170.975 59.3199 170.365C63.2499 169.605 67.26 170.385 71.23 169.675C73.19 169.325 75.0599 170.575 76.5599 172.005C79.3299 173.795 81.77 175.945 83.11 179.015C83.66 180.285 85.1099 182.055 82.4099 182.875C79.2399 182.135 79.44 185.285 78.2 186.675C76.94 188.085 76.1499 189.915 75.1599 191.565C72.2099 190.135 72.9999 186.725 71.4299 184.565C68.4199 183.075 66.7999 180.435 65.5699 177.475C64.9499 175.985 63.5599 174.975 62.7999 176.795C60.5999 182.035 56.02 183.005 51.35 184.055C44.09 190.845 38.54 199.045 32.49 206.825C31.02 208.715 30.19 211.345 27.23 211.585C26.04 207.535 29.86 205.015 30.28 201.225C31.06 194.175 30.78 192.155 25.51 188.725L25.5 188.715Z" fill="#1FD0EF"/>
<path d="M82.421 182.875C82.961 178.195 78.6811 176.505 76.5811 173.455C75.9311 171.405 75.2611 169.345 75.1411 167.185C75.0511 165.495 75.6811 164.585 77.5211 165.515C77.8211 165.515 78.121 165.555 78.411 165.615C79.821 165.975 81.2811 165.685 82.7311 166.325C86.9511 168.175 88.3611 167.745 89.2711 163.255C90.6111 156.645 92.6411 150.145 92.9611 143.335C93.0111 142.305 92.3611 140.935 93.9511 140.375C97.8711 144.365 96.2311 149.325 96.3211 153.985C94.9811 164.355 88.4311 172.645 84.9911 182.185C84.6611 183.115 83.741 184.385 82.411 182.875H82.421Z" fill="#1EF99A"/>
<path d="M96.3248 153.983C92.9648 150.013 95.4047 144.883 93.6647 140.583C92.5047 139.773 92.9548 138.743 93.2748 137.733C93.3748 137.103 93.1548 136.663 92.5148 136.473C92.1448 136.233 91.9748 135.883 91.9848 135.443C92.0848 134.813 92.3248 134.243 92.6348 133.683C93.3748 132.773 93.5847 131.203 95.3147 131.523C97.0247 138.533 98.7348 145.553 100.445 152.563C101.225 155.583 101.705 158.623 101.335 161.753C98.0248 160.213 99.8148 155.403 96.3348 153.973L96.3248 153.983Z" fill="#1EF99A"/>
<path d="M142.493 213.564C138.503 213.084 135.153 211.474 132.723 208.064C136.143 210.034 140.463 209.745 143.443 212.675C143.123 212.975 142.803 213.274 142.493 213.574V213.564Z" fill="#AE3BA3"/>
<path d="M84.3031 34.843C86.6631 34.413 89.0232 33.973 91.3832 33.543C92.8532 33.623 94.3132 33.713 95.7832 33.803C94.0332 34.133 92.2832 34.463 90.2632 34.843C90.4232 36.483 93.3032 38.7029 91.1332 39.5829C89.0632 40.4229 85.9231 39.803 83.7131 38.803C81.4531 37.783 83.3331 36.103 84.2931 34.843H84.3031Z" fill="black"/>
<path d="M51.1942 146.554C50.1842 141.404 53.3242 137.114 54.1842 132.354C54.4442 130.904 55.5643 129.374 53.2843 128.794C51.3943 128.314 50.6342 129.434 50.4142 131.234C50.2442 132.704 49.6343 134.124 49.5143 135.594C48.8243 143.784 44.9843 149.004 36.3543 149.804C29.1743 146.774 28.5443 145.554 29.3943 136.254C30.2743 134.044 31.4543 132.174 34.0843 131.814C35.1043 133.184 35.0643 134.984 35.8943 136.404C37.0443 138.374 38.7643 139.664 41.0843 139.794C43.7743 139.934 44.1443 137.604 44.7743 135.814C46.2743 131.604 47.7842 127.394 49.4242 123.234C50.5442 120.394 52.3542 118.454 55.5642 118.184C56.8442 118.114 58.1143 118.124 59.3943 118.164C60.2143 118.284 60.9443 118.594 61.5843 119.114C62.1543 119.734 62.4143 120.484 62.4543 121.314C62.4543 122.384 62.1142 123.374 61.6742 124.344C58.9642 127.934 60.1542 133.274 56.3042 136.354C54.5242 139.714 53.6743 143.544 51.2043 146.554H51.1942Z" fill="#1EF99A"/>
<path d="M93.2742 137.734C93.4042 138.684 93.5341 139.634 93.6641 140.584C93.3241 147.974 93.1041 155.374 91.4341 162.624C91.0641 164.224 90.7341 165.934 89.8741 167.284C88.1141 170.054 86.0141 171.924 82.8441 168.594C81.6541 167.334 79.9041 166.594 78.4141 165.624C86.0841 157.784 93.0142 149.544 93.2742 137.744V137.734Z" fill="#1EF99A"/>
<path d="M56.293 136.355C57.353 132.015 58.013 127.535 60.623 123.725C61.913 130.025 66.9231 130.115 71.8831 130.845C78.8031 131.855 85.843 132.605 92.303 135.655C92.433 135.915 92.4931 136.195 92.5031 136.485C80.4331 137.085 68.363 136.815 56.293 136.355Z" fill="#1EF99A"/>
<path d="M54.293 159.114C59.883 155.094 66.123 154.294 72.623 154.594C73.683 154.644 74.7631 155.054 74.8931 156.124C75.0731 157.594 73.813 158.144 72.613 158.194C66.513 158.414 60.423 158.704 54.293 159.124V159.114Z" fill="#1EF99A"/>
<path d="M77.5204 165.514C75.6104 165.954 76.5403 166.874 76.9603 167.954C77.6803 169.784 77.9103 171.704 76.5703 173.454C71.3003 169.754 65.2303 170.534 59.3203 170.364C61.5303 168.704 64.1004 169.564 66.5104 169.404C68.0404 169.304 69.6404 169.384 70.1504 167.574C71.5004 162.784 74.5704 164.454 77.5104 165.514H77.5204Z" fill="#1EF99A"/>
<path d="M50.8309 164.866C47.5009 167.246 45.0709 168.206 41.4609 168.456C44.1709 165.796 46.4409 164.336 50.8309 164.866Z" fill="#1EF99A"/>
<path d="M72.0515 56.8648C76.3715 57.2248 80.0715 56.2748 83.7115 55.1748C86.9715 54.1848 88.3615 55.5848 87.7115 58.5348C86.6715 63.2748 83.2915 66.1648 78.8715 67.8548C74.9415 69.3548 71.6614 67.7348 68.7914 65.3348C66.7414 63.6148 64.8315 61.0548 65.8115 58.4048C66.9615 55.2948 70.2515 57.6148 72.0515 56.8548V56.8648Z" fill="black"/>
<path d="M69.5699 45.9537C69.5599 48.6337 68.8498 50.5836 66.0598 50.7136C62.8598 50.8636 62.6999 48.3637 62.8499 46.2537C63.0099 44.0037 63.3298 41.1837 66.5398 41.3637C69.4198 41.5237 69.4399 44.0437 69.5699 45.9537Z" fill="black"/>
<path d="M90.6903 47.0249C90.1603 49.1049 90.0804 51.9049 86.9004 51.7549C84.1404 51.6149 83.6603 49.1749 83.6803 46.9649C83.7003 44.6949 84.4603 42.4949 87.2003 42.4049C90.1203 42.3149 90.4803 44.6249 90.6803 47.0249H90.6903Z" fill="black"/>
<path d="M110.133 54.8154C110.153 58.4454 105.573 61.9154 101.543 61.3254C102.263 56.7154 105.013 54.6354 110.133 54.8154Z" fill="black"/>
<path d="M74.8921 42.7053C76.4321 46.7553 72.0022 49.3253 73.2822 52.9153C73.3022 52.9753 72.5821 53.4853 72.2321 53.4653C71.4021 53.4153 71.3122 52.6853 71.2722 52.0253C71.0722 48.5853 72.2221 45.6453 74.8921 42.6953V42.7053Z" fill="black"/>
<path d="M73.4722 95.4844C77.6422 100.864 82.8922 99.3344 88.1522 97.7844C88.4222 105.374 90.0322 112.774 91.2322 120.234C91.0422 120.504 90.8522 120.954 90.6122 120.974C81.9722 121.624 73.3122 122.734 64.7722 120.184C62.8922 118.174 64.1921 116.304 64.9221 114.314C66.3821 110.364 69.6521 107.174 69.8121 102.684C68.1421 98.3144 68.8422 96.9544 73.4822 95.4944L73.4722 95.4844Z" fill="#1EF99A"/>
<path d="M63.8811 119.244C72.9911 119.574 82.1011 119.904 91.2111 120.234C91.5111 120.644 91.8111 121.044 92.1111 121.454C93.4311 125.764 95.181 130.034 93.311 134.634C92.971 134.974 92.631 135.304 92.291 135.644C82.331 135.734 72.9411 131.704 63.0011 131.634C61.0711 131.624 60.491 130.404 60.551 128.664C60.611 127.014 60.5911 125.364 60.6111 123.724C60.9411 123.004 61.2611 122.294 61.5911 121.574C62.3211 120.604 62.1711 119.024 63.7111 118.604C64.3511 118.434 64.611 118.684 63.951 118.794C63.901 118.794 63.9011 119.094 63.8711 119.244H63.8811Z" fill="#1EF99A"/>
<path d="M93.325 134.633C92.925 130.243 92.525 125.843 92.125 121.453C94.885 124.273 94.6549 128.043 95.3149 131.523C94.6549 132.563 93.995 133.593 93.335 134.633H93.325Z" fill="#1EF99A"/>
<path d="M50.4434 182.374C51.5134 181.304 52.9134 181.284 54.1934 181.484C57.4634 181.984 59.2335 180.264 60.2335 177.544C60.9035 175.724 61.9735 174.314 63.5035 173.264C64.6035 172.514 66.0835 172.454 66.2135 174.024C66.5635 178.284 70.0734 180.864 71.4334 184.554C65.2834 193.774 60.3434 203.654 55.4334 213.554C51.3834 218.474 47.9335 218.004 44.8635 212.084C44.2635 210.934 44.6535 209.384 43.4035 208.504C42.3935 206.384 43.6935 204.684 44.5135 202.964C46.7835 198.234 48.9535 193.434 51.6035 188.914C53.2735 186.074 52.9334 184.174 50.4234 182.374H50.4434Z" fill="#1FD0EF"/>
<path d="M79.2717 222.605C81.4717 218.965 85.4417 222.065 88.1317 220.285C91.0717 223.565 91.5317 227.805 92.6217 231.805C89.6017 235.545 85.4017 234.305 81.5817 234.215C80.3517 234.185 80.6117 232.365 80.5117 231.275C80.2517 228.365 80.5317 225.375 79.2617 222.605H79.2717Z" fill="url(#paint3_linear_331_51)"/>
<path d="M96.01 239.32C98.21 235.68 102.18 238.78 104.87 237C107.81 240.28 108.27 244.52 109.36 248.52C106.34 252.26 102.14 251.02 98.3199 250.93C97.0899 250.9 97.35 249.08 97.25 247.99C96.99 245.08 97.27 242.09 96 239.32H96.01Z" fill="black"/>
<path d="M121.834 263.195C119.664 265.375 116.354 265.255 113.994 267.055C111.424 264.135 107.484 262.035 108.114 257.205C109.844 256.675 111.584 256.145 113.314 255.615C120.954 253.265 123.074 255.155 121.824 263.195H121.834Z" fill="#F187FF"/>
<path d="M103.77 243.959C102.58 244.729 100.73 245.449 100.87 243.409C101.22 238.549 98.76 239.669 96.01 240.789C95.95 238.879 96.41 236.999 95.03 235.489C91.59 232.819 91.7 228.359 89.71 224.959C89.9 222.679 87.3 221.849 87 219.819C92.83 218.489 98.76 218.019 104.73 217.869C108.14 224.719 109.27 232.259 111.26 239.539C111.29 240.519 111.36 241.519 111.21 242.499C110.58 246.509 109.42 246.919 106.1 244.319C105.35 243.729 104.59 243.809 103.78 243.949L103.77 243.959Z" fill="#F187FF"/>
<path d="M105.781 218.229C107.431 217.079 109.151 216.489 111.081 217.569C115.631 229.969 118.931 242.699 121.101 255.719C121.511 258.189 121.561 260.659 120.641 263.059C117.171 265.829 116.541 262.549 115.951 260.549C114.361 255.159 112.951 249.679 111.811 244.189C110.261 236.739 108.321 229.409 106.131 222.139C105.751 220.889 105.481 219.569 105.791 218.229H105.781Z" fill="#F187FF"/>
<path d="M105.782 218.229C110.422 231.409 113.602 244.989 117.032 258.509C117.462 260.219 116.182 264.199 120.592 263.389L120.562 263.339C121.362 265.149 120.402 266.609 119.612 268.099C117.192 268.299 114.912 268.159 113.762 265.499C114.572 262.609 113.572 259.849 113.182 257.039C112.492 253.469 110.502 250.239 110.442 246.509C110.982 244.289 110.412 242.149 109.992 239.999C108.282 233.849 106.522 227.719 104.902 221.549C104.602 220.399 103.542 219.149 104.732 217.879C105.082 217.999 105.432 218.109 105.782 218.229Z" fill="#F187FF"/>
<path d="M120.561 263.33L120.591 263.38C119.881 248.56 115.241 234.6 111.211 220.51C110.951 219.59 111.121 218.55 111.081 217.57C113.141 218.03 113.261 219.96 113.741 221.42C117.531 232.75 120.311 244.35 122.411 256.09C122.851 258.53 123.991 261.67 120.551 263.33H120.561Z" fill="white"/>
<path d="M109.989 239.988C111.269 241.898 111.759 244.028 111.769 246.288C110.549 248.068 110.159 250.868 106.959 250.248C101.769 250.248 104.189 246.368 103.769 243.948C106.829 239.348 107.499 243.128 108.559 245.468C110.719 243.968 109.469 241.758 109.989 239.988Z" fill="#F187FF"/>
<path d="M106.962 250.259C108.562 248.939 110.162 247.619 111.772 246.299C112.012 250.109 114.852 253.249 114.582 257.199C113.702 256.479 112.722 256.129 111.582 256.359C109.332 254.989 105.302 255.629 105.772 251.189C106.172 250.879 106.572 250.569 106.972 250.259H106.962Z" fill="#F187FF"/>
<path d="M105.769 251.189C106.609 254.149 111.289 252.779 111.589 256.359C110.599 257.429 109.609 258.489 108.339 259.869C106.619 257.299 106.049 254.289 103.859 252.319C104.499 251.949 105.129 251.569 105.769 251.199V251.189Z" fill="#F187FF"/>
<path d="M92.4971 238.245C94.2677 234.378 98.5653 237.005 101.035 234.93C104.33 237.853 105.27 242.013 106.809 245.863C104.235 249.923 99.9213 249.17 96.1159 249.516C94.8905 249.626 94.9414 247.789 94.7177 246.717C94.1276 243.856 94.0648 240.853 92.4872 238.246L92.4971 238.245Z" fill="black"/>
<path d="M120.876 259.021C118.969 261.434 115.666 261.692 113.527 263.75C110.641 261.142 106.487 259.505 106.562 254.634C108.221 253.911 109.889 253.186 111.547 252.462C118.869 249.256 121.191 250.892 120.866 259.022L120.876 259.021Z" fill="#F187FF"/>
<path d="M100.733 241.97C99.639 242.871 97.8831 243.797 97.7896 241.755C97.5831 236.886 95.2669 238.28 92.6625 239.706C92.3851 237.815 92.6277 235.895 91.0846 234.552C87.3625 232.292 86.9632 227.849 84.5984 224.698C84.5272 222.411 81.8496 221.883 81.32 219.9C86.9603 217.914 92.798 216.771 98.712 215.941C102.881 222.358 104.863 229.72 107.671 236.725C107.812 237.695 107.996 238.681 107.958 239.672C107.79 243.727 106.684 244.267 103.089 242.062C102.277 241.562 101.531 241.728 100.742 241.959L100.733 241.97Z" fill="#F187FF"/>
<path d="M99.7996 216.179C101.308 214.849 102.949 214.067 104.99 214.92C110.924 226.72 115.654 238.99 119.295 251.678C119.984 254.085 120.315 256.533 119.675 259.023C116.543 262.17 115.543 258.983 114.729 257.064C112.535 251.89 110.509 246.607 108.751 241.283C106.361 234.058 103.598 226.997 100.593 220.024C100.073 218.826 99.6544 217.545 99.8096 216.178L99.7996 216.179Z" fill="#F187FF"/>
<path d="M99.7993 216.179C105.912 228.744 110.62 241.872 115.569 254.913C116.191 256.563 115.373 260.663 119.662 259.355L119.627 259.309C120.628 261.016 119.841 262.576 119.226 264.146C116.844 264.621 114.563 264.742 113.118 262.23C113.593 259.267 112.285 256.639 111.577 253.892C110.484 250.424 108.139 247.442 107.654 243.743C107.937 241.476 107.127 239.415 106.464 237.327C104.064 231.412 101.617 225.522 99.3036 219.577C98.8745 218.469 97.6788 217.348 98.7162 215.951C99.0776 216.03 99.4379 216.099 99.7993 216.179Z" fill="#F187FF"/>
<path d="M119.623 259.298L119.659 259.345C117.263 244.702 111.062 231.362 105.451 217.824C105.088 216.939 105.138 215.887 104.987 214.918C107.086 215.14 107.425 217.044 108.068 218.439C113.126 229.263 117.21 240.471 120.635 251.895C121.351 254.269 122.841 257.258 119.613 259.299L119.623 259.298Z" fill="white"/>
<path d="M106.462 237.316C107.952 239.068 108.682 241.128 108.949 243.372C107.94 245.28 107.872 248.106 104.622 247.855C99.466 248.446 101.428 244.316 100.735 241.96C103.25 237.041 104.347 240.72 105.667 242.923C107.642 241.187 106.148 239.134 106.462 237.316Z" fill="#F187FF"/>
<path d="M104.624 247.864C106.063 246.371 107.503 244.877 108.952 243.382C109.624 247.14 112.804 249.935 112.986 253.89C112.03 253.275 111.016 253.039 109.91 253.398C107.518 252.293 103.588 253.389 103.548 248.924C103.91 248.571 104.272 248.217 104.634 247.863L104.624 247.864Z" fill="#F187FF"/>
<path d="M103.546 248.925C104.718 251.77 109.211 249.875 109.918 253.397C109.056 254.573 108.193 255.739 107.089 257.255C105.087 254.898 104.178 251.973 101.777 250.265C102.371 249.825 102.954 249.375 103.547 248.935L103.546 248.925Z" fill="#F187FF"/>
<path d="M137.523 216.704C132.773 216.764 129.153 214.884 125.703 210.004C130.423 212.684 133.973 214.694 137.523 216.704Z" fill="#AE3BA3"/>
<path d="M61.3033 119.325C60.7333 119.385 60.1633 119.445 59.5833 119.515C58.1933 119.565 56.8032 117.175 55.4132 119.515C52.6532 119.725 51.5634 121.635 50.7834 123.965C49.2534 128.515 47.7633 133.085 46.0033 137.545C45.2233 139.515 44.9733 142.715 41.7233 142.035C38.3633 141.325 34.7533 140.345 33.8433 136.245C33.5333 134.855 33.9733 133.295 34.0733 131.815C40.6233 122.135 47.1833 112.455 53.6933 102.755C55.4433 100.155 57.1633 97.735 60.8433 99.575C61.4133 101.725 63.6633 101.585 65.0433 102.625C66.5133 103.725 68.1133 104.675 68.4233 106.675C68.6033 107.845 68.4533 109.035 67.3733 109.795C66.3933 110.475 65.5533 109.985 64.6833 109.385C63.2033 108.355 61.6133 107.495 60.0733 106.555C61.2933 107.325 62.5333 108.055 63.7633 108.815C64.6433 109.355 65.3533 110.075 65.3833 111.155C65.4233 112.785 65.0633 114.105 62.9633 114.175C62.7633 114.175 63.9833 115.265 63.8333 116.185C63.5733 117.715 63.1533 119.085 61.3133 119.345L61.3033 119.325Z" fill="url(#paint4_linear_331_51)"/>
<path d="M61.3032 119.324C64.8932 114.814 60.1732 113.604 57.9432 111.314C59.6132 110.474 60.3433 111.914 61.3933 112.364C62.3233 112.764 63.2633 114.334 64.2733 112.764C65.1333 111.424 64.3732 110.164 63.1632 109.394C60.5332 107.724 57.8433 106.164 55.3633 104.164C59.7733 104.444 62.8633 107.764 66.8433 109.294C68.1733 106.804 66.6933 105.284 64.9733 103.984C63.3933 102.794 61.5133 101.984 60.0333 100.704C58.6133 99.4645 60.4833 99.9145 60.8333 99.5645C63.2533 100.754 65.6632 101.934 68.0732 103.104C68.1432 103.134 68.3933 103.004 68.4033 102.924C68.4533 102.624 68.4432 102.314 68.4532 102.004C69.0732 102.004 69.6532 102.164 70.2032 102.464C71.3732 103.824 71.6533 105.114 70.6333 106.844C68.2633 110.904 66.1233 115.094 63.8833 119.234C63.1233 120.014 62.3533 120.784 61.5933 121.564C61.4933 120.814 61.3932 120.064 61.2932 119.314L61.3032 119.324Z" fill="#AE3BA3"/>
<path d="M55.4225 119.513C56.1925 118.063 53.9426 117.713 54.2426 115.953C56.1826 117.243 57.8825 118.373 59.5825 119.513C58.1925 119.513 56.8025 119.513 55.4125 119.513H55.4225Z" fill="#AE3BA3"/>
<path d="M67.4141 59.2738C73.7341 58.5538 79.7641 58.9238 85.3141 55.9238C84.7641 60.0038 83.5741 61.3238 79.6741 62.6138C74.9341 64.1838 71.3041 63.3538 67.4141 59.2738Z" fill="white"/>
<defs>
<linearGradient id="paint0_linear_331_51" x1="114.438" y1="41.362" x2="57.3293" y2="69.1347" gradientUnits="userSpaceOnUse">
<stop stop-color="#BE5CB5"/>
<stop offset="1" stop-color="#E78AE0"/>
</linearGradient>
<linearGradient id="paint1_linear_331_51" x1="144.36" y1="180.51" x2="102.901" y2="191.894" gradientUnits="userSpaceOnUse">
<stop stop-color="#BE5CB5"/>
<stop offset="1" stop-color="#E78AE0"/>
</linearGradient>
<linearGradient id="paint2_linear_331_51" x1="93.6514" y1="82.8659" x2="74.8478" y2="90.6418" gradientUnits="userSpaceOnUse">
<stop stop-color="#BE5CB5"/>
<stop offset="1" stop-color="#E78AE0"/>
</linearGradient>
<linearGradient id="paint3_linear_331_51" x1="92.6217" y1="222.961" x2="77.9822" y2="228.298" gradientUnits="userSpaceOnUse">
<stop stop-color="#BE5CB5"/>
<stop offset="1" stop-color="#E78AE0"/>
</linearGradient>
<linearGradient id="paint4_linear_331_51" x1="68.4878" y1="107.07" x2="29.1649" y2="119.327" gradientUnits="userSpaceOnUse">
<stop stop-color="#BE5CB5"/>
<stop offset="1" stop-color="#E78AE0"/>
</linearGradient>
</defs>
</svg>
