<svg width="336" height="645" viewBox="0 0 336 645" fill="none" xmlns="http://www.w3.org/2000/svg">
<path d="M109.225 29.1969C109.225 29.1969 107.147 15.2585 115.623 15.4452C124.099 15.6318 126.86 22.3237 126.846 26.6478C126.846 26.6478 135.77 50.4118 133.9 56.8849C133.9 56.8849 136.208 38.6828 132.645 30.2005C129.082 21.7181 140.661 21.8924 141.554 23.5283C141.554 23.5283 148.892 32.8772 147.15 60.0894C145.407 87.2769 153.235 103.951 153.235 103.951C153.235 103.951 174.462 108.117 174.723 116.177C174.983 124.236 150.004 117.115 158.326 177.141C158.326 177.141 124.24 150.242 126.313 123.582C126.313 123.582 94.9562 104.097 84.6202 102.705C84.6202 102.705 65.3403 100.782 69.0314 89.0809C72.7226 77.3801 93.7193 80.194 93.7193 80.194C93.7193 80.194 103.997 75.651 102.518 61.3537C101.038 47.0563 101.206 39.5177 90.2651 29.292C90.2651 29.292 85.3645 20.4428 92.4772 18.177C99.5898 15.9112 102.171 20.0298 102.171 20.0298C102.171 20.0298 105.471 23.7325 109.251 29.2202C115.071 37.6663 122.035 50.2925 119.864 60.0137" fill="#FFD412"/>
<path d="M109.225 29.1969C109.225 29.1969 107.147 15.2585 115.623 15.4452C124.099 15.6318 126.86 22.3237 126.846 26.6478C126.846 26.6478 135.77 50.4118 133.9 56.8849C133.9 56.8849 136.208 38.6828 132.645 30.2005C129.082 21.7181 140.661 21.8924 141.554 23.5283C141.554 23.5283 148.892 32.8772 147.15 60.0894C145.407 87.2769 153.235 103.951 153.235 103.951C153.235 103.951 174.462 108.117 174.723 116.177C174.983 124.236 150.004 117.115 158.326 177.141C158.326 177.141 124.24 150.242 126.313 123.582C126.313 123.582 94.9562 104.097 84.6202 102.705C84.6202 102.705 65.3403 100.782 69.0314 89.0809C72.7226 77.3801 93.7193 80.194 93.7193 80.194C93.7193 80.194 103.997 75.651 102.518 61.3537C101.038 47.0563 101.206 39.5177 90.2651 29.292C90.2651 29.292 85.3645 20.4428 92.4772 18.177C99.5898 15.9112 102.171 20.0298 102.171 20.0298C102.171 20.0298 105.471 23.7325 109.251 29.2202C115.071 37.6663 122.035 50.2925 119.864 60.0137" stroke="black" stroke-miterlimit="10"/>
<path d="M223.415 307.733C223.415 307.733 157.718 311.029 158.378 236.149C158.378 236.149 143.941 236.291 143.922 228.065C143.904 219.839 156.462 218.835 156.462 218.835L154.445 177.323C154.445 177.323 131.804 175.532 152.255 157.125C152.255 157.125 150.369 105.703 214.656 98.9414C278.944 92.1799 301.843 141.215 301.815 152.844C301.788 164.473 305.22 181.195 284.879 197.67L287.78 248.481C287.78 248.481 292.632 264.643 279.69 275.097C279.69 275.097 285.327 276.834 286.515 278.688C286.68 278.929 287.008 278.984 287.196 278.772C291.529 274.211 325.269 241.554 370.77 276.729L395.441 431.979C395.441 431.979 396.668 444.483 387.397 443.114L363.962 446.022C363.962 446.022 369.896 484.374 368.403 487.864C366.91 491.354 368.462 500.938 355.103 512.368C355.103 512.368 360.741 527.032 341.379 535.221C321.992 543.412 255.18 540.248 255.068 540.88C254.956 541.512 221.892 543.748 221.892 543.748L224.642 629.975L198.074 631.571L198.276 634.934L39.8734 643.722C39.8734 643.722 27.1287 625.359 52.5492 608.829C77.9698 592.299 113.944 549.731 113.944 549.731L110.914 456.344C110.914 456.344 101.551 409.246 152.024 402.564C152.024 402.564 175.054 398.756 193.585 404.669C193.585 404.669 213.326 364.851 213.559 357.885C213.791 350.92 211.329 338.265 212.594 324.311C213.859 310.357 223.44 307.732 223.44 307.732L223.415 307.733Z" fill="#FFD60E" stroke="black" stroke-miterlimit="10"/>
<path d="M193.877 300.861C193.877 300.861 213.554 290.638 213.75 277.702C213.946 264.765 212.452 234.473 212.452 234.473C212.452 234.473 232.18 219.713 231.296 210.398C230.412 201.084 223.421 197.295 212.341 200.215C212.341 200.215 211.567 155.327 182.309 150.622C182.309 150.622 162.41 146.332 154.537 154.87C154.537 154.87 126.541 176.589 155.263 177.769L156.349 217.454C156.349 217.454 140.179 221.656 142.196 228.648C143.834 234.311 152.244 236.386 155.375 236.974C156.056 237.109 156.54 237.681 156.532 238.382C156.4 247.407 157.015 303.351 193.877 300.861Z" fill="url(#paint0_linear_126_69)" stroke="black" stroke-miterlimit="10"/>
<path d="M287.562 288.479C289.446 288.516 288.522 283.572 287.914 280.97C287.643 279.806 287.873 278.611 288.592 277.638C291.375 273.853 300.499 264.938 326.604 260.582C360.262 254.992 376.475 278.491 376.475 278.491C376.475 278.491 398.784 431.47 398.574 436.332C398.364 441.194 393.332 443.456 393.332 443.456C381.03 448.742 320.632 453.978 314.698 452.073C308.763 450.168 306.488 436.511 306.488 436.511C281.669 443.504 252.115 439.299 250.028 434.223C247.942 429.148 253.705 425.259 253.705 425.259C270.624 426.68 303.356 419.036 303.356 419.036L289.181 309.587C273.315 303.982 227.754 309.382 227.754 309.382C225.531 300.772 242.841 293.652 242.841 293.652C242.841 293.652 243.511 287.682 287.611 288.451L287.562 288.479Z" fill="#B679B2" stroke="black" stroke-miterlimit="10"/>
<path d="M292.322 335.417C292.322 335.417 313.265 318.323 334.187 327.974C335.527 328.594 336.525 329.785 337.01 331.182C338.157 334.44 340.212 340.696 340.893 345.784C341.306 348.912 344.337 350.981 347.459 350.418C358.806 348.311 381.018 344.825 386.074 348.5C392.543 353.19 398.686 437.956 398.686 437.956C398.686 437.956 396.898 443.217 389.956 444.834C383.013 446.452 330.782 452.741 318.433 452.757C306.083 452.774 305.058 436.123 305.058 436.123C305.058 436.123 289.564 344.564 292.323 335.442L292.322 335.417Z" fill="#4F4E9C" stroke="black" stroke-miterlimit="10"/>
<path d="M150.393 106.223C152.305 105.067 153.179 102.734 152.506 100.594C152.295 99.962 152.168 99.4987 152.168 99.4987C152.168 99.4987 145.187 87.1295 146.923 59.9858C148.662 32.8668 141.342 23.5167 141.342 23.5167C140.451 21.8849 128.88 21.7124 132.458 30.1719C135.229 36.7468 134.464 49.1599 133.985 54.3686C133.893 45.8236 126.699 26.6267 126.699 26.6267C126.713 22.3135 123.96 15.6384 115.507 15.4521C107.054 15.2658 109.126 29.1691 109.126 29.1691C105.357 23.6952 102.065 20.0018 102.065 20.0018C102.065 20.0018 99.5158 15.892 92.398 18.1535C85.2802 20.415 90.1921 29.2405 90.1921 29.2405C101.103 39.4406 100.935 46.9355 102.411 61.2216C103.888 75.5076 93.6376 80.0143 93.6376 80.0143C93.6376 80.0143 72.6984 77.2073 69.0175 88.8786C65.3366 100.55 84.5637 102.468 84.5637 102.468C92.7002 103.566 113.839 115.878 122.442 121.037C123.547 121.714 124.933 121.705 126.055 121.018L150.415 106.172L150.393 106.223Z" fill="url(#paint1_linear_126_69)" stroke="black" stroke-miterlimit="10"/>
<path d="M108.807 26.3979C108.807 26.3979 115.93 41.7503 115.906 49.0292L108.807 26.3979Z" fill="#C590C0"/>
<path d="M108.807 26.3979C108.807 26.3979 115.93 41.7503 115.906 49.0292" stroke="black" stroke-miterlimit="10" stroke-linecap="round"/>
<path d="M134.033 47.9402C134.033 47.9402 134.983 55.648 133.678 56.6082L134.033 47.9402Z" fill="#C590C0"/>
<path d="M134.033 47.9402C134.033 47.9402 134.983 55.648 133.678 56.6082" stroke="black" stroke-miterlimit="10" stroke-linecap="round"/>
<path d="M207.198 172.926C207.479 173.696 207.298 174.591 206.682 175.193C203.46 178.434 192.719 188.074 182.703 183.294C170.754 177.597 176.58 165.598 176.58 165.598C176.58 165.598 151.11 187.108 142.531 174.549C135.268 163.926 151.23 154.784 156.32 152.241C157.281 151.741 158.304 151.41 159.386 151.173C164.074 150.203 178.197 147.782 186.856 151.686C186.856 151.686 201.333 157.353 207.201 172.975L207.198 172.926Z" fill="black" stroke="black" stroke-miterlimit="10"/>
<path d="M218.444 524.214C218.444 524.214 346.193 521.32 354.442 512.299C354.535 512.193 356.019 512.028 356.053 512.177C356.386 514.823 356.111 531.387 338.73 535.55C334.836 535.381 255.329 548.757 237.103 537.604C236.431 537.192 234.457 536.254 233.718 535.972C230.713 534.869 223.249 529.584 218.47 524.237L218.444 524.214Z" fill="#1EF99A" stroke="black" stroke-miterlimit="10"/>
<path d="M217.03 524.284C217.03 524.284 198.137 503.856 196.804 489.969C196.801 489.919 196.847 489.866 196.9 489.913C198.022 491.12 208.628 501.302 229.918 483.832C252.493 465.311 234.417 452.654 234.417 452.654C241.961 449.303 258.582 404.854 258.582 404.854C278.716 381.882 271.118 333.166 269.95 324.541C268.782 315.916 260.347 294.86 230.159 305.618C199.971 316.376 210.176 329.031 212.265 347.994C214.353 366.958 193.679 391.337 179.017 437.192C164.355 483.047 196.768 489.796 196.768 489.796" fill="#FFD60B"/>
<path d="M217.03 524.284C217.03 524.284 198.137 503.856 196.804 489.969C196.801 489.919 196.847 489.866 196.9 489.913C198.022 491.12 208.628 501.302 229.918 483.832C252.493 465.311 234.417 452.654 234.417 452.654C241.961 449.303 258.582 404.854 258.582 404.854C278.716 381.882 271.118 333.166 269.95 324.541C268.782 315.916 260.347 294.86 230.159 305.618C199.971 316.376 210.176 329.031 212.265 347.994C214.353 366.958 193.679 391.337 179.017 437.192C164.355 483.047 196.768 489.796 196.768 489.796" stroke="black" stroke-miterlimit="10"/>
<path d="M224.094 622.808L197.504 623.452L198.232 632.688C198.232 632.688 224.892 631.564 224.88 631.368C224.868 631.172 224.069 622.81 224.069 622.81L224.094 622.808Z" fill="white" stroke="black" stroke-miterlimit="10"/>
<path d="M196.324 593.74L197.509 623.554L224.643 622.783L223.554 593.317L196.324 593.74Z" fill="#49C0E3" stroke="black" stroke-miterlimit="10"/>
<path d="M245.996 542.285L222.219 547.143C222 547.181 221.815 547.392 221.83 547.642L223.321 601.174C223.333 601.373 223.229 601.705 223.076 601.614C214.933 598.098 195.914 610.806 196.789 593.38C197.768 573.995 190.428 494.028 190.405 487.496C190.39 487.246 190.619 488.184 190.866 488.194C191.97 488.128 195.956 488.865 198.248 492.983C210.787 515.536 225.12 538.432 245.989 541.359C246.511 541.428 246.557 542.201 246.022 542.309L245.996 542.285Z" fill="#1EF99A" stroke="black" stroke-miterlimit="10"/>
<path d="M188.911 403.432C190.236 404.104 192.676 404.057 191.921 405.33C187.361 413.266 172.676 443.022 176.443 464.232C179.685 482.568 185.677 483.36 188.951 485.868C189.927 486.611 189.906 488.365 189.93 489.591L195.647 571.36C195.663 571.634 195.425 574.378 195.366 574.657C194.509 577.589 184.507 592.213 156.473 590.917C126.067 589.537 117.516 584.291 111.583 566.868C111.493 566.623 111.451 566.35 111.435 566.075L106.559 449.246C106.361 444.275 107.145 439.295 109.007 434.65C113.476 423.514 122.443 408.426 145.2 403.202C145.2 403.202 175.84 396.729 188.909 403.407L188.911 403.432Z" fill="#1EF99A" stroke="black" stroke-miterlimit="10"/>
<path d="M205.69 503.829C205.69 503.829 239.385 500.97 244.804 483.226" stroke="black" stroke-miterlimit="10" stroke-linecap="round"/>
<path d="M50.6919 610.172C50.6919 610.172 28.307 623.998 40.0865 643.711L198.193 634.939L196.523 618.364C196.523 618.364 42.7648 621.732 50.6919 610.172Z" fill="white" stroke="black" stroke-miterlimit="10" stroke-linecap="round"/>
<path d="M195.588 575.968C193.657 576.737 198.92 614.781 196.794 619.383C193.736 625.976 64.6227 628.376 64.6227 628.376C64.6227 628.376 36.8573 621.095 51.495 610.639C59.9664 604.6 112.352 555.126 111.698 551.746C111.698 551.746 128.253 615.707 195.614 575.991L195.588 575.968Z" fill="#49C0E2" stroke="black" stroke-miterlimit="10"/>
<path d="M56.3743 609.099C56.3743 609.099 67.8776 615.818 102.841 581.371L102.595 562.861L56.3989 609.098L56.3743 609.099Z" fill="#C28EBF" stroke="black" stroke-miterlimit="10"/>
<path d="M155.493 238.456C155.493 238.456 175.703 233.613 183.273 228.112C189.616 223.505 210.096 225.606 200.878 250.796C191.661 275.986 170.204 278.915 162.922 278.557C155.641 278.199 155.493 238.456 155.493 238.456Z" fill="#68509C" stroke="black" stroke-width="0.5" stroke-miterlimit="10"/>
<path d="M155.585 242.955C155.585 242.955 173.644 238.985 180.078 234.147C187.492 228.579 205.5 228.318 195.499 251.177C186.485 271.739 167.558 275.412 161.096 274.781C155.513 274.221 156.007 242.905 155.61 242.953L155.585 242.955Z" fill="white" stroke="black" stroke-width="0.5" stroke-miterlimit="10"/>
<path d="M198.265 236.23C198.265 236.23 194.548 253.907 156.51 260.834" stroke="black" stroke-width="0.5" stroke-miterlimit="10" stroke-linecap="round"/>
<path d="M179.006 235.465L191.088 260.679" stroke="black" stroke-width="0.5" stroke-miterlimit="10"/>
<path d="M162.004 240.329L165.988 274.676" stroke="black" stroke-width="0.5" stroke-miterlimit="10"/>
<path d="M222.332 205.002L216.493 219.764" stroke="black" stroke-width="0.5" stroke-miterlimit="10" stroke-linecap="round"/>
<path d="M214.787 207.376L225.05 218.289" stroke="black" stroke-width="0.5" stroke-miterlimit="10" stroke-linecap="round"/>
<path d="M155.752 200.186C155.752 200.186 165.7 198.333 174.9 199.203C174.9 199.203 175.371 191.449 155.244 191.737L155.75 200.158L155.752 200.186Z" fill="black" stroke="black" stroke-width="0.5" stroke-miterlimit="10" stroke-linecap="round"/>
<path d="M156.645 217.867C156.645 217.867 165.204 213.711 176.252 216.43C176.252 216.43 182.97 213.763 176.681 207.506C176.347 207.161 175.898 206.928 175.458 206.825C172.913 206.249 163.832 204.531 156.171 207.567L156.645 217.867Z" fill="white" stroke="black" stroke-width="0.5" stroke-miterlimit="10" stroke-linecap="round"/>
<path d="M165.789 206.241C165.789 206.241 169.652 209.698 166.633 215.513C166.633 215.513 157.229 217.598 156.755 217.103C156.282 216.608 156.583 207.717 156.583 207.717C156.583 207.717 164.426 205.725 165.789 206.241Z" fill="black" stroke="black" stroke-width="0.5" stroke-miterlimit="10" stroke-linecap="round"/>
<path d="M163.684 284.31C163.684 284.31 179.215 285.011 188.12 275.268" stroke="black" stroke-width="0.5" stroke-miterlimit="10" stroke-linecap="round"/>
<path d="M284.344 197.768C284.344 197.768 262.116 205.035 247.66 194.834" stroke="black" stroke-miterlimit="10" stroke-linecap="round"/>
<defs>
<linearGradient id="paint0_linear_126_69" x1="138.371" y1="177.006" x2="200.904" y2="242.173" gradientUnits="userSpaceOnUse">
<stop stop-color="#F8B47F"/>
<stop offset="1" stop-color="#C590C0"/>
</linearGradient>
<linearGradient id="paint1_linear_126_69" x1="72.621" y1="37.5823" x2="141.669" y2="84.5181" gradientUnits="userSpaceOnUse">
<stop stop-color="#F8B47F"/>
<stop offset="1" stop-color="#C590C0"/>
</linearGradient>
</defs>
</svg>
