<svg width="113" height="274" viewBox="0 0 113 274" fill="none" xmlns="http://www.w3.org/2000/svg">
<path d="M70.266 194.162C71.2023 192.229 73.2866 191.685 74.7932 190.443C79.5621 191.841 80.8017 197.004 84.4936 199.544C84.9077 203.562 85.9702 207.023 90.8044 207.677C91.5629 207.785 92.0373 208.661 92.2421 209.485C89.175 214.239 91.8953 218.72 92.9481 223.285C93.5107 226.04 93.1191 228.402 90.335 229.8C89.7442 229.993 89.1504 230.003 88.5538 229.858C82.2394 224.448 75.3125 219.628 71.2248 212.059C74.6843 206.668 70.7005 201.912 69.8947 196.891C69.624 195.933 69.9485 195.051 70.259 194.169L70.266 194.162Z" fill="#1EF99A"/>
<path d="M85.5749 200.714C86.9693 198.682 88.0904 196.386 90.5553 195.348C97.1444 194.388 99.075 195.643 102.539 203.138C102.565 204.651 102.576 206.164 102.601 207.677C101.4 208.977 99.8079 208.94 98.503 208.304C94.9874 206.574 91.792 205.376 87.4561 206.178C84.1566 206.785 84.6615 203.17 85.5752 200.729L85.5749 200.714Z" fill="#1EF99A"/>
<path d="M100.021 227.02C107.928 229.199 109.98 234.285 105.48 240.478C99.3835 238.756 95.8768 234.197 92.8767 229.056C94.3911 225.332 96.8075 224.775 100.028 227.012L100.021 227.02Z" fill="#FBFAEA"/>
<path d="M103.758 244.432C89.6354 231.014 76.0617 216.999 60.9458 204.637C61.7639 203.661 62.582 202.686 63.3999 201.696C63.6453 201.571 63.8907 201.447 64.1361 201.323C66.7236 200.848 68.2224 202.506 69.7422 204.142C71.6377 205.836 73.456 207.566 72.5931 210.502C71.8602 212.338 72.7092 213.618 74.0167 214.827C79.3397 219.737 84.6208 224.677 89.923 229.609C96.1261 232.602 100.745 237.262 104.098 243.217C103.985 243.622 103.878 244.02 103.765 244.425L103.758 244.432Z" fill="#FBFAEA"/>
<path d="M85.5738 200.714C86.2461 206.205 86.3546 206.352 90.906 203.227C92.8846 201.871 93.8745 202.703 94.9507 204.036C96.9367 206.485 99.4331 207.744 102.6 207.676C103.726 208.167 104.844 208.65 106.397 209.317C103.993 211.415 101.501 210.453 99.2357 210.725C97.6336 210.914 95.7529 209.263 94.4309 211.392C93.2059 211.724 92.5793 211.049 92.1732 210.03C91.4148 209.088 90.38 208.533 89.226 208.46C84.0649 208.13 83.1644 205.047 84.0958 200.718C84.5907 200.709 85.0859 200.715 85.5808 200.707L85.5738 200.714Z" fill="#030303"/>
<path d="M92.168 210.039C92.9253 210.493 93.6684 210.947 94.4257 211.401C93.9947 213.53 95.4437 213.902 96.9839 214.654C98.0891 215.194 100.479 216.42 97.701 218.185C97.0989 218.549 96.3631 218.533 95.739 218.847C96.7384 218.979 97.3119 219.853 98.1878 220.214C100.045 221.328 102.274 222.245 100.731 225.121C97.3125 225.78 94.277 224.848 91.4862 222.901C89.5961 221.532 89.9727 219.531 90.068 217.634C90.1161 216.707 90.7171 215.856 89.9507 214.864C87.0736 211.15 87.1086 211.128 92.1752 210.046L92.168 210.039Z" fill="#030303"/>
<path d="M104.089 243.224C99.1095 238.952 94.2062 234.6 89.9072 229.609L89.9981 229.126C91.3919 229.167 91.8757 226.393 93.7473 227.925C96.0354 233.615 101.485 236.352 105.479 240.464C105.463 241.603 104.997 242.516 104.096 243.217L104.089 243.224Z" fill="#FBFAEA"/>
<path d="M93.7476 227.939C92.3312 227.822 91.5341 229.624 90.0053 229.134C91.6298 227.324 92.4942 225.322 91.4844 222.885C94.6522 223.278 97.9255 223.215 100.73 225.106C100.493 225.739 100.249 226.38 100.012 227.013C97.8599 226.88 95.7719 227.198 93.7404 227.932L93.7476 227.939Z" fill="#1EF99A"/>
<path d="M96.0497 194.053C96.7535 194.275 97.4504 194.504 98.1543 194.725C100.513 197.062 103.419 199.12 102.539 203.152C99.3283 199.352 96.2343 195.358 90.5554 195.362C91.976 193.202 94.089 193.952 96.0568 194.06L96.0497 194.053Z" fill="#F3F3E9"/>
<path d="M98.0593 220.468C97.57 220.471 97.0446 220.583 96.6059 220.447C94.9374 219.944 92.8205 221.299 91.5351 219.422C91.3843 219.204 91.6372 218.367 91.9036 218.221C93.8547 217.181 95.7608 217.51 97.6015 218.411C97.7517 219.089 97.9019 219.782 98.0593 220.468Z" fill="#030303"/>
<path d="M70.2672 194.162C70.4162 194.612 70.5649 195.048 70.7139 195.498C70.0863 197.284 68.7429 198.558 67.5068 199.908C66.5842 200.978 65.2372 201.205 64 201.65C63.8023 201.668 63.5976 201.693 63.3997 201.696C64.7719 198.349 67.1568 195.926 70.26 194.155L70.2672 194.162Z" fill="#B49686"/>
<path d="M66.5652 198.609C67.6443 197.176 68.4628 195.381 70.7137 195.498C73.4684 198.663 70.8619 204.308 75.785 206.467C74.7186 207.814 73.6591 209.154 72.5927 210.502C71.8752 208.208 69.8308 206.913 68.5127 205.068C69.7188 202.354 66.7873 200.883 66.565 198.595L66.5652 198.609Z" fill="#030303"/>
<path d="M66.5639 198.608C68.5507 198.581 69.858 199.359 70.2045 201.46C70.4725 203.096 70.9388 204.743 68.5116 205.081C67.0072 203.933 65.5029 202.798 64.0057 201.656C64.8585 200.645 65.7183 199.626 66.5711 198.615L66.5639 198.608Z" fill="#030303"/>
<rect x="49.5254" y="201.584" width="15.8967" height="32.1875" rx="3" transform="rotate(-127.085 49.5254 201.584)" fill="#030303"/>
<rect x="49.834" y="199.37" width="5.05483" height="2.21149" rx="1.10574" transform="rotate(-127.085 49.834 199.37)" fill="#838383"/>
<circle cx="50.0657" cy="197.711" r="0.868799" transform="rotate(-127.085 50.0657 197.711)" fill="black"/>
<circle cx="50.0647" cy="197.711" r="0.552872" transform="rotate(-127.085 50.0647 197.711)" fill="#262626"/>
<circle cx="49.4448" cy="196.497" r="0.157963" transform="rotate(-127.085 49.4448 196.497)" fill="black"/>
<path d="M47.6715 195.956C47.5718 196.348 47.9157 196.497 48.1001 196.523L49.2973 195.618C49.258 195.252 48.9951 195.087 48.8686 195.051L47.6715 195.956Z" fill="url(#paint0_linear_201_333)"/>
<path d="M61.6171 35.0952C59.0071 32.1852 55.2371 32.6853 51.9771 32.2253C46.9171 31.5153 41.7471 31.5052 36.6171 31.3852C33.7271 31.3152 31.9271 32.7152 31.9271 35.8952C31.9271 40.3852 31.8771 44.8852 31.7571 49.3752C31.7171 50.9552 32.097 53.1452 30.2771 53.6752C28.6671 54.1452 28.0471 52.0552 27.1071 50.9552C24.7671 48.2152 22.8571 44.7952 18.4071 45.3152C18.2171 45.1952 18.0171 45.1152 17.7971 45.0752C17.3071 41.8952 20.2371 40.2152 21.0671 37.6152C23.3571 33.9052 26.2971 30.8152 29.8771 28.3252C32.2071 27.4852 34.2471 26.2453 36.2171 24.6653C43.3971 18.8753 50.9671 13.6252 59.4171 9.80521C62.4271 8.42521 65.517 7.19523 68.827 6.89523C71.877 6.61523 74.8671 7.33523 74.9971 10.9552C75.1371 14.7452 77.2671 14.6552 79.8571 14.4352C82.0371 14.1752 83.5871 14.2752 82.3871 17.2652C81.1571 20.3152 78.3171 21.8353 76.1971 23.9853C76.6071 24.4353 76.767 24.7352 77.017 24.8652C78.787 25.7452 82.1671 23.8952 82.3671 26.6452C82.5371 29.0152 79.8471 30.7552 77.4471 31.6552C75.2971 32.4652 73.037 32.9752 70.827 33.6252C68.957 35.0752 66.4871 34.9952 64.4871 36.1252C63.3671 36.2452 62.3371 36.1153 61.6271 35.1053L61.6171 35.0952Z" fill="#030303"/>
<path d="M54.1886 199.916C54.3386 197.776 54.5986 195.636 54.5886 193.496C54.5886 192.006 54.5087 192.976 50.9987 193.496C49.8187 193.666 49.96 191.746 51 189.416C53.9 182.876 56.8686 174.036 57.2786 166.856C56.2286 165.316 56.6986 163.806 57.3886 162.306C58.3986 160.626 60.0286 159.396 61.8386 159.746C66.1886 160.586 68.4686 158.356 70.2286 154.936C72.7586 155.676 72.4586 157.806 72.4986 159.696C72.5486 161.506 73.3686 163.146 73.4486 164.926C74.1786 169.096 73.6986 173.376 74.6086 177.526C74.2986 179.726 75.7086 181.856 74.8886 184.076C73.8686 185.816 73.6486 187.556 74.1386 189.616C74.7486 192.156 74.7186 194.786 72.5086 196.806C71.5986 197.466 70.6086 197.906 69.4686 197.896C67.3286 197.526 66.8886 196.116 67.3086 194.246C67.7186 192.386 67.2786 190.496 67.4986 189.416C67.5886 192.106 67.3386 195.536 66.5786 198.906C61.6086 201.126 61.0386 200.486 60.9886 192.516C60.9886 194.286 61.0586 196.056 60.9286 197.826C60.6286 199.426 59.8586 200.726 58.4886 201.636C57.7586 202.026 56.9886 202.166 56.1686 202.066C55.0586 201.756 54.2286 201.196 54.1986 199.906L54.1886 199.916Z" fill="url(#paint1_linear_201_333)"/>
<path d="M37.0568 255.205C32.3268 256.675 27.7967 255.175 23.2267 254.275C23.1367 250.885 23.0467 247.495 22.9667 244.105C22.0867 240.635 24.6468 240.475 26.8868 240.005C29.8068 240.325 32.6967 240.015 35.6067 239.645C37.5467 239.395 39.5267 239.415 41.0467 241.005C42.1667 243.485 39.0868 244.865 39.4468 247.145C38.7268 249.375 39.5167 251.765 38.7267 253.995C38.3567 254.655 37.8168 255.075 37.0568 255.195V255.205Z" fill="#1FD0EF"/>
<path d="M86.7584 199.885C82.3784 205.255 80.8984 205.055 77.2784 198.485C76.6584 197.355 76.2884 196.075 75.7984 194.865C74.4084 191.515 75.6484 188.505 77.0184 185.515C77.3184 185.085 77.6984 184.755 78.1584 184.505C80.6884 183.465 82.4584 185.305 84.4984 186.155C87.3284 188.065 90.3684 189.585 93.4484 191.035C94.7584 191.645 96.8584 191.575 96.7084 193.925C92.8184 194.945 88.2384 194.825 86.7584 199.885Z" fill="#1FD0EF"/>
<path d="M79.9583 148.915C80.0183 151.595 77.6484 152.735 76.3584 154.545C74.0984 157.715 73.0184 161.215 73.0484 165.085C72.8384 165.415 72.5684 165.475 72.2384 165.275C69.9684 162.315 72.0984 158.465 70.2384 155.425C68.8084 156.135 69.5783 157.435 69.5183 158.445C69.3683 160.945 67.9384 161.055 66.1784 160.305C60.8584 158.015 60.3284 158.175 58.1384 163.255C57.8484 164.465 57.5484 165.665 57.2584 166.875C56.5684 166.975 55.8884 167.085 55.1984 167.195C53.0584 167.615 51.7883 166.225 51.7783 164.565C51.7283 159.055 50.3384 153.425 52.8084 148.065C58.3684 153.775 65.7284 152.775 72.6684 153.475C76.3884 153.855 77.5483 150.465 79.9583 148.925V148.915Z" fill="#030303"/>
<path fill-rule="evenodd" clip-rule="evenodd" d="M22.8371 231.066C22.7842 226.113 22.774 221.16 22.7638 216.208C22.7376 203.415 22.7113 190.625 21.9473 177.845C22.0173 177.175 22.2872 176.805 23.0172 177.095C23.396 177.999 23.1833 179.121 22.9707 180.243C22.5604 182.407 22.1505 184.569 25.9896 185.164L26.0084 185.145V185.165C26.418 185.165 26.8316 185.16 27.2441 185.155C29.8908 180.42 37.3571 176.249 42.0071 177.262C42.1034 181.404 42.2516 185.546 42.3997 189.686L42.3998 189.687C42.8982 203.616 43.3965 217.54 41.9179 231.465L41.9184 231.465C42.5684 232.285 43.1184 233.135 42.5684 234.245L42.5675 234.245C42.6375 235.39 42.705 236.532 42.7725 237.675L42.7725 237.675L42.7725 237.675C42.84 238.818 42.9075 239.96 42.9775 241.105C42.6175 242.045 42.0775 242.605 40.9975 242.085C38.7659 240.666 36.4673 241.182 34.1109 241.711L33.9575 241.745C31.6075 242.265 29.1675 242.765 26.9075 241.305C26.9072 241.305 26.907 241.304 26.9067 241.304C26.9067 241.304 26.9067 241.305 26.9067 241.305C25.0767 241.515 23.3667 241.885 22.9567 244.105C21.352 241.686 21.6203 239.109 21.8888 236.531C21.9766 235.687 22.0645 234.843 22.0867 234.005C22.0867 234.005 22.0868 234.005 22.0868 234.005C22.084 234.001 22.0812 233.998 22.0784 233.995C21.7485 232.865 21.8283 231.845 22.8371 231.066ZM42.0071 177.262L42.0069 177.255L42.0168 177.265L42.0071 177.262Z" fill="#1FD0EF"/>
<path fill-rule="evenodd" clip-rule="evenodd" d="M13.1784 52.1814C13.1783 52.1827 13.1781 52.1841 13.178 52.1854L13.168 52.1754C13.1715 52.1774 13.1749 52.1794 13.1784 52.1814ZM65.4261 41.82C65.4531 41.8094 65.5126 41.7511 65.618 41.6255C66.198 40.8155 66.598 39.9755 66.118 38.9755C65.6616 38.5467 65.0044 38.2848 64.3474 38.0231C62.8593 37.4302 61.3716 36.8375 62.218 34.3054C61.2182 32.3849 59.4033 31.9179 57.5758 31.4476C57.3193 31.3816 57.0627 31.3156 56.808 31.2454C53.167 30.2493 49.4669 30.1783 45.763 30.1073C44.1872 30.0771 42.6108 30.0469 41.038 29.9455C32.518 29.3855 30.428 31.1955 30.198 39.8155C30.1731 40.7351 30.2078 41.6632 30.2427 42.5993C30.3343 45.0525 30.4279 47.5604 29.4579 50.1154C28.1934 49.374 27.2923 48.4772 26.447 47.636C25.8216 47.0136 25.2268 46.4217 24.538 45.9455C24.4337 45.8734 24.3294 45.8006 24.225 45.7277C22.4162 44.4655 20.5724 43.1788 18.3979 45.3155C15.5291 46.7449 13.5496 48.8437 13.1784 52.1814C13.1827 52.1838 13.187 52.1862 13.1913 52.1886C13.1869 52.1906 13.1825 52.1927 13.1781 52.1948C11.9972 55.4751 13.3838 58.106 14.7724 60.7406C15.1829 61.5194 15.5935 62.2985 15.9381 63.0948C16.1181 63.0698 16.2956 63.0448 16.4731 63.0198C16.5957 63.0025 16.7184 62.9852 16.8418 62.968C16.8245 63.0712 16.8099 63.177 16.798 63.2855C17.278 64.2755 18.098 64.8655 19.088 65.2655C19.838 65.5355 20.618 65.6055 21.408 65.6355C22.6796 65.8937 24.0035 65.8421 25.3288 65.7904C28.0579 65.6839 30.7926 65.5772 33.088 68.1754C39.258 75.1654 47.328 76.8354 56.238 75.6154C56.748 75.6054 57.248 75.5455 57.738 75.3855C58.0894 75.2529 58.4437 75.1298 58.7976 75.0069C59.5917 74.7311 60.384 74.4559 61.138 74.0755C62.498 73.4355 63.258 72.2655 63.928 71.0055C64.4971 70.1766 65.0479 69.4382 65.5874 68.7148C67.1051 66.68 68.5345 64.7635 70.038 61.2855C70.1402 60.9718 70.2452 60.658 70.3501 60.3441C71.6204 56.5452 72.8926 52.7409 69.438 49.1754C68.238 48.4154 66.948 48.5755 65.668 48.8255C65.0826 48.9384 65.429 48.6002 65.9813 48.0609C66.7498 47.3106 67.9172 46.1708 67.5273 45.3155C67.3277 44.8775 66.9653 44.383 66.5957 43.8787C66.0751 43.1682 65.5402 42.4384 65.4261 41.82ZM65.4169 41.7642C65.4437 41.6775 65.5288 41.505 65.6151 41.33C65.801 40.953 65.9925 40.5648 65.618 41C65.4284 41.2211 65.3759 41.4802 65.4169 41.7642ZM22.9668 57.1749C23.8086 56.2262 22.9275 55.2259 22.1648 54.3601C22.1458 54.3385 22.1268 54.3169 22.108 54.2955C21.2673 53.3427 20.3186 52.4979 19.1484 52.0568C19.2581 52.1527 19.3682 52.2484 19.4784 52.3441C21.0394 53.7003 22.6015 55.0575 22.9668 57.1749Z" fill="url(#paint2_linear_201_333)"/>
<path d="M8.93689 117.075C11.8469 115.445 14.7469 113.805 17.6569 112.175C18.6869 111.415 19.1969 112.135 19.6769 112.905C20.4369 116.245 19.8269 119.555 19.3769 122.855C18.9069 125.095 18.0368 127.245 17.8969 129.585C17.7069 132.785 17.7269 135.595 22.2869 135.305C24.4169 135.175 26.4669 135.875 24.9469 138.865C22.4269 141.355 19.1169 142.685 16.1969 144.565C12.4169 146.995 11.3869 150.115 12.1169 154.355C12.7269 157.905 14.2769 161.425 13.0069 165.155C12.5969 165.885 12.0369 166.375 11.1369 166.305C7.2969 166.305 3.72688 164.955 0.046875 164.175V144.185C0.406875 143.855 0.75687 143.285 1.16687 143.265C9.48687 142.775 10.3668 137.315 9.57684 130.735C9.55684 128.755 10.1969 126.885 10.7569 125.035C11.4069 122.895 10.5969 121.635 8.74689 120.765C7.60689 119.475 7.18689 118.215 8.93689 117.085V117.075Z" fill="#030303"/>
<path d="M4.01709 94.165C2.68709 95.175 1.36711 96.1749 0.0371094 97.1849V85.1849C0.357109 85.1549 0.687141 85.125 1.00714 85.085C5.15714 87.065 4.64709 90.595 4.01709 94.165Z" fill="#030303"/>
<path d="M24.727 139.995C24.537 139.495 25.69 139.372 25.5 138.872C27.01 137.122 24.4171 136.795 23.0471 136.675C20.8271 136.495 17.947 138.435 16.537 136.235C14.927 133.715 15.567 130.415 16.337 127.525C16.737 126.025 16.4671 124.095 18.2471 123.155C20.3971 123.125 22.647 123.495 24.657 122.975C28.357 122.005 30.457 119.435 30.337 115.405C32.707 124.575 29.947 132.565 24.727 140.005V139.995Z" fill="url(#paint3_linear_201_333)"/>
<path d="M20.7866 64.5254C27.4866 62.5654 32.5266 64.2953 37.3766 69.7453C42.3066 75.2953 49.8766 74.2054 56.6766 74.2954C58.3766 78.4754 57.9566 82.3953 54.2966 85.1853C52.6266 86.4553 53.2965 89.0854 51.0265 89.6654C49.5965 89.6054 48.8166 88.6854 48.1666 87.5754C47.4666 85.2254 46.0565 83.6954 43.5765 83.0454C41.6965 82.5554 39.8966 81.7454 38.3766 80.4454C36.9366 78.2754 35.0065 77.4554 32.4565 78.2354C29.1565 78.0554 26.4966 76.3153 23.8666 74.6153C19.6266 71.8753 19.0665 69.8254 20.7765 64.5254H20.7866Z" fill="#1F1D3A"/>
<path d="M65.0377 41.085C68.0477 42.975 68.3177 45.845 67.8477 48.985C66.4377 50.715 64.9277 52.375 62.4477 51.075C60.6177 50.115 60.1777 48.2049 60.2977 46.3749C60.4877 43.4949 61.6777 41.255 65.0377 41.085Z" fill="#030303"/>
<path d="M39.5273 46.8055C40.0173 44.5555 40.1874 41.6655 43.1074 41.7055C45.8474 41.7455 46.7574 44.3755 46.6674 46.7455C46.5774 49.0255 45.7774 51.8555 43.1374 51.8455C40.5674 51.8455 39.6473 49.2755 39.5273 46.8055Z" fill="#030303"/>
<path d="M62.718 59.2356C56.498 63.7256 47.968 62.8855 43.228 57.7755C42.578 57.0755 41.488 56.4155 42.568 55.3755C43.358 54.6155 44.118 55.3456 44.698 55.9056C49.958 60.9756 56.078 61.3056 62.728 59.2356H62.718Z" fill="#030303"/>
<path d="M41.3182 39.8152C39.6382 40.1152 38.4382 39.7652 38.5682 38.2752C38.8782 34.8552 41.6982 34.9752 44.1182 34.8052C45.9382 34.6752 48.5282 34.7352 48.1782 37.0852C47.5182 41.5052 42.9382 37.7052 41.3082 39.8252L41.3182 39.8152Z" fill="#030303"/>
<path d="M22.9679 59.1249C20.9579 56.8849 20.1179 53.6749 17.0879 52.2349C15.8979 51.6649 17.228 50.9649 17.388 50.3149C21.118 50.1449 23.2979 52.3449 25.0879 55.2449C26.7179 57.8849 26.1279 59.1649 22.9679 59.1249Z" fill="#030303"/>
<path d="M65.1573 35.1252C66.8873 35.2452 67.7773 36.3552 67.9673 37.8952C68.1473 39.2952 66.7773 39.1051 65.9573 39.4251C64.4873 39.3751 63.0273 39.3552 61.5573 39.2852C60.4373 39.2252 59.1673 39.3652 59.0473 37.6952C58.9273 35.8552 59.6873 34.9052 61.6173 35.0952C62.7973 35.1052 63.9773 35.1152 65.1573 35.1352V35.1252Z" fill="#030303"/>
<path d="M56.127 44.4951C60.177 48.5551 60.4169 51.4551 56.6469 54.9451C57.9169 51.1051 56.657 48.0451 56.127 44.4951Z" fill="#030303"/>
<path d="M54.9571 6.75464C59.5371 4.03464 64.2571 1.84467 69.7871 2.09467C74.2571 2.29467 78.2271 3.50465 80.9871 7.32465C81.3671 9.54465 81.0871 11.4346 79.0671 12.9446C77.1071 14.4146 79.4371 13.9946 79.8571 14.4246C77.5571 15.3046 75.2571 16.1846 73.1171 17.0046C72.1271 16.4546 72.3071 15.8647 72.5371 15.2147C73.2471 13.2147 74.7871 11.0246 72.9871 9.13465C71.1271 7.18465 68.6571 8.21465 66.4371 8.88465C64.2171 9.55465 62.0071 10.2946 59.7971 11.0046C57.2871 10.5946 54.3871 10.6446 54.9471 6.74463L54.9571 6.75464Z" fill="#1FD0EF"/>
<path d="M16.8881 19.2652C18.2181 17.5952 19.118 14.8452 22.038 17.2452C26.168 19.7952 27.658 24.3052 30.088 28.1252C30.198 28.5752 30.248 29.0352 30.248 29.4952C27.528 32.4052 24.808 35.3152 22.088 38.2252C19.708 41.3752 17.558 40.1752 15.848 37.6652C14.518 35.7152 13.458 35.2552 11.968 37.3252C10.208 34.5952 11.178 31.7652 11.648 28.9552C12.058 25.0052 14.4481 22.1152 16.8881 19.2652Z" fill="#1FD0EF"/>
<path d="M11.9669 37.3251C12.5069 35.9251 10.9069 33.5251 13.2269 33.1451C14.8369 32.8851 16.3169 34.4851 16.7969 36.1551C17.7069 39.3051 19.5369 39.5351 22.0869 38.2251C21.3769 40.9651 19.3769 42.8951 17.7869 45.0851C12.9169 44.6951 13.2369 40.4151 11.9669 37.3351V37.3251Z" fill="#1FD0EF"/>
<path d="M54.9569 6.75488C55.9669 8.86488 58.3969 9.36489 59.8069 11.0149C51.1969 15.2549 43.6769 21.1649 35.9069 26.6949C34.1769 27.9249 32.5469 29.3949 30.2469 29.4949C30.1269 29.3249 29.9969 29.1549 29.8769 28.9949C29.5069 26.6549 31.1569 25.3149 32.5869 24.0549C36.3569 20.7349 38.9369 16.0049 44.0569 14.2649C47.9469 12.1349 50.8269 8.54489 54.9569 6.76489V6.75488Z" fill="#1FD0EF"/>
<path d="M73.087 178.245C75.607 179.975 76.537 182.765 77.787 185.345C78.097 188.725 76.297 191.675 75.797 194.885C75.467 194.875 75.197 194.735 74.987 194.465C72.727 191.365 72.667 187.995 73.767 184.485L73.087 178.255V178.245Z" fill="url(#paint4_linear_201_333)"/>
<path d="M58.1367 163.245C57.6867 161.115 59.0067 159.435 59.5967 157.575C59.9167 156.565 59.4467 154.845 60.9867 154.745C63.1267 154.615 62.5767 156.825 63.2767 158.085C64.8167 157.465 64.0167 154.835 66.1467 154.755C68.3067 156.015 65.9067 158.475 67.4067 159.975C70.1967 159.535 67.9567 156.065 70.2467 155.425C70.8067 159.745 69.5767 162.015 64.5967 161.115C62.3367 160.705 59.5167 160.215 58.1467 163.245H58.1367Z" fill="url(#paint5_linear_201_333)"/>
<path d="M64.7572 200.186C62.6272 200.666 61.2372 199.416 59.8672 198.106C60.0872 194.246 60.2972 190.376 60.5172 186.516C62.8172 189.456 62.2872 192.676 62.0372 195.746C61.7772 198.926 63.1472 199.506 65.7872 198.976C65.9472 199.146 66.0972 199.316 66.2572 199.496C65.9772 200.196 65.6172 200.736 64.7672 200.186H64.7572Z" fill="url(#paint6_linear_201_333)"/>
<path d="M69.8571 196.935C69.4371 198.365 67.7571 197.945 66.9971 198.875C66.8771 199.585 66.5571 199.695 66.0271 199.195L65.7871 198.975C66.2771 194.945 66.7771 190.925 67.2671 186.895C67.5471 186.895 67.8271 186.885 68.1071 186.875C68.1071 189.335 68.0671 191.795 68.1271 194.255C68.1471 195.455 67.6471 197.095 69.8571 196.915V196.935Z" fill="url(#paint7_linear_201_333)"/>
<path d="M73.7665 184.475C74.1765 187.805 74.5766 191.125 74.9866 194.455C74.3266 195.035 73.6666 195.615 73.0066 196.195C72.5766 196.145 72.1566 196.085 71.7266 196.035C73.3566 193.795 72.6466 191.355 72.4366 188.915C72.3066 187.325 70.9566 185.235 73.7566 184.465L73.7665 184.475Z" fill="url(#paint8_linear_201_333)"/>
<path d="M55.1078 97.1655C55.7578 96.4455 56.4178 95.7255 57.0678 95.0055C57.8978 94.8855 58.2578 95.2555 58.1778 96.0755C58.4378 104.626 58.6877 113.176 58.9677 121.726C58.9977 122.646 58.6877 123.765 60.0177 124.145C60.9477 123.755 61.0778 124.156 60.8178 124.956C58.9278 125.756 57.0978 126.656 55.7378 128.266C54.4978 127.116 54.5977 125.576 54.5277 124.096C54.5177 123.516 54.5078 122.936 54.4878 122.356C54.1078 120.086 54.0078 117.816 54.4278 115.546C54.4278 114.426 54.2677 113.306 54.4677 112.186C54.5777 111.056 54.2478 109.936 54.3678 108.806C55.6178 104.996 52.6578 100.905 55.1178 97.1755L55.1078 97.1655Z" fill="#2A2F2C"/>
<path d="M58.1783 96.065C57.8083 95.715 57.4384 95.355 57.0684 94.995C59.2184 92.315 61.1583 89.325 65.1783 89.335C62.8483 91.575 60.5183 93.815 58.1783 96.065Z" fill="#427351"/>
<path fill-rule="evenodd" clip-rule="evenodd" d="M15.9876 18.2153C15.964 18.2658 15.9433 18.3144 15.9256 18.3611C15.4674 19.1176 14.9431 19.847 14.4189 20.5764C12.6564 23.0286 10.8946 25.48 11.6473 28.9546C12.1961 27.34 13.1676 25.9556 14.1387 24.5717C15.2287 23.0182 16.3184 21.4653 16.8094 19.5882C16.832 19.594 16.8548 19.5997 16.8776 19.6054C17.7222 19.4271 18.5397 19.1534 19.357 18.8798C20.3759 18.5386 21.3945 18.1976 22.4645 18.0419C22.6292 18.3552 22.7932 18.669 22.9572 18.9828C24.845 22.5962 26.7348 26.2133 29.8771 28.9855C32.2421 26.5305 34.6046 24.0755 36.9671 21.6204C39.3296 19.1654 41.6921 16.7104 44.0571 14.2554C44.052 14.2183 44.0468 14.1815 44.0413 14.145C45.0847 14.4605 46.1346 14.527 47.1428 14.0451C48.5837 13.3565 49.8284 12.3189 51.0724 11.2818C52.519 10.0759 53.9648 8.87057 55.7176 8.21535C63.6776 3.50535 71.7276 1.96531 80.0176 7.42531C80.2676 7.58531 80.6576 7.45534 80.9776 7.33534C81.0376 1.78534 76.4976 0.995329 72.8176 0.385329C65.7476 -0.784671 58.9776 0.705358 52.9776 4.91536C52.7419 5.07942 52.526 5.26911 52.3119 5.45717C51.5995 6.08294 50.9078 6.69056 49.5776 6.27534C39.3276 3.07534 30.4876 6.80535 22.0176 12.1553C21.3451 12.8656 20.4842 13.3886 19.6237 13.9115L19.6237 13.9115C17.9762 14.9126 16.3297 15.913 16.0077 18.225L16.0073 18.2246L16.0071 18.2251L15.9876 18.2153Z" fill="#1FD0EF"/>
<path fill-rule="evenodd" clip-rule="evenodd" d="M112.029 159.155C111.04 161.099 110.351 163.168 109.662 165.237C108.734 168.022 107.807 170.806 106.149 173.285L106.144 173.289L106.158 173.285C104.883 176.858 103.602 180.424 102.319 183.994L101.309 186.805L101.304 186.802L101.308 186.815C101.208 187.085 101.106 187.358 101.003 187.63C100.901 187.903 100.798 188.175 100.698 188.445L100.68 188.453C100.314 189.028 100.045 189.673 99.7756 190.317C99.1519 191.809 98.529 193.299 96.7078 193.925C95.4566 193.341 94.1575 192.849 92.8584 192.357C89.5994 191.124 86.3403 189.891 83.8378 187.195C83.8368 187.193 83.8357 187.192 83.8346 187.19C83.8362 187.195 83.8378 187.2 83.8393 187.205C83.062 187.028 82.3725 186.609 81.6831 186.191C80.6165 185.543 79.5503 184.896 78.1594 185.145C78.3015 184.598 78.4349 184.049 78.5682 183.499C79.1923 180.928 79.8158 178.359 81.3303 176.135C81.3073 176.041 81.2802 175.948 81.2484 175.855C81.4084 175.415 81.6884 175.045 82.0384 174.735C82.1028 174.723 82.1669 174.71 82.2306 174.696C83.2184 172.61 84.2108 170.519 85.2338 168.364C86.1513 166.431 87.0935 164.446 88.0789 162.366C86.5104 162.641 85.0625 162.895 83.6797 163.136L83.6794 163.137L83.6743 163.137L83.6702 163.138C82.0962 163.413 80.6064 163.674 79.1191 163.936C79.022 164.354 78.8533 164.743 78.5183 165.065C76.6783 166.205 74.8083 166.845 72.8283 165.375C71.5583 160.535 72.0984 156.275 76.5084 153.075C77.9584 152.025 79.2183 150.645 79.9583 148.925V148.915L82.7784 144.085L83.1384 143.955C83.6384 143.845 84.0783 143.955 84.4583 144.295L84.4603 144.315C89.4081 143.874 94.3633 143.672 99.3123 144.2C99.9914 143.832 100.71 143.526 101.479 143.305C109.529 145.105 113.209 150.635 112.029 159.155ZM52.8097 148.062L52.8095 148.045C52.7042 147.913 48.577 148.593 45.6945 149.068L45.6944 149.068L45.6943 149.068C44.1956 149.315 43.0335 149.507 42.948 149.5C42.3838 151.645 42.5753 153.167 42.7688 154.706C42.891 155.677 43.0141 156.655 42.9483 157.8C42.83 159.838 42.9759 160.311 43.0897 160.68C43.149 160.872 43.1996 161.036 43.1995 161.378C43.1995 161.744 43.2918 162.146 43.3863 162.557C43.5817 163.407 43.7861 164.297 43.1995 164.985C43.1795 166.06 43.157 167.135 43.1345 168.21C43.112 169.285 43.0895 170.36 43.0695 171.435C47.3295 170.605 51.3895 169.215 55.2095 167.175C53.039 166.251 53.0254 164.367 53.0118 162.489C53.0112 162.394 53.0105 162.299 53.0095 162.205C52.9496 157.491 52.8797 152.778 52.8098 148.064L52.8098 148.063L52.8098 148.063L52.8098 148.062L52.8097 148.062Z" fill="#1FD0EF"/>
<path d="M43.4373 122.995C43.2073 129.385 42.9673 135.785 42.7373 142.175C41.8173 146.445 41.0373 150.725 40.9573 155.125C40.9273 156.795 41.7173 158.805 39.6473 159.955C39.6873 157.745 39.7273 155.535 39.7673 153.325C36.5373 147.335 38.0373 140.955 38.4473 134.745C39.1473 123.955 39.6173 113.165 39.4873 102.345C39.4573 99.8352 38.4173 97.5052 37.7873 95.1052C37.3873 93.6152 36.9273 92.2252 37.9073 90.8252C38.8873 91.6752 39.8673 92.5252 40.8373 93.3752C43.6973 94.6552 43.2173 97.6352 44.1673 99.8852C44.4373 100.875 44.5973 101.885 44.6473 102.905C44.5373 104.205 45.1073 105.455 44.9173 106.765C44.4073 109.195 44.0373 111.735 44.6873 114.075C45.5873 117.345 45.0473 120.185 43.4473 122.995H43.4373Z" fill="#030303"/>
<path d="M21.8682 111.106C20.8882 111.816 19.8982 112.525 18.9182 113.245C18.4982 112.885 18.0782 112.535 17.6582 112.175C18.8382 111.035 19.9482 109.806 21.2282 108.796C21.9582 108.216 21.4882 105.795 23.3382 107.075C24.7582 108.055 23.4382 109.065 22.7482 109.935C22.4482 110.325 22.1582 110.715 21.8582 111.115L21.8682 111.106Z" fill="#FFD313"/>
<path d="M60.8273 124.945C60.5573 124.675 60.2873 124.405 60.0273 124.135C64.7573 121.365 69.7173 121.485 74.7673 123.005C74.8673 123.335 74.9773 123.655 75.0773 123.985C70.3173 124.205 65.4873 123.375 60.8273 124.945Z" fill="#FFD313"/>
<path d="M48.9672 86.7953C47.6972 88.1553 46.4172 89.5253 45.1472 90.8853C42.9372 90.6853 43.3873 88.0753 41.8673 87.2453C41.0073 85.0853 39.8272 83.1353 38.1472 81.5153C37.5072 80.5553 36.9273 79.6154 38.8173 79.4854C41.6473 80.5554 44.2072 82.1853 47.4672 82.3153C50.8972 82.4553 48.6573 85.2053 48.9773 86.7953H48.9672Z" fill="url(#paint9_linear_201_333)"/>
<path d="M38.8177 79.4949C37.9777 79.9649 38.0876 80.7549 38.1476 81.5249C36.4676 80.2049 34.7777 78.8849 33.0977 77.5749C36.7077 73.1549 37.2977 77.7049 38.8177 79.5049V79.4949Z" fill="url(#paint10_linear_201_333)"/>
<path d="M23.0475 86.4754C24.3477 85.6329 25.7512 84.8978 27.2918 84.7334C31.2093 84.3152 34.6936 86.0322 37.5075 89.7954C37.1075 91.8954 37.2075 93.8554 37.8275 96.0254C40.5675 105.525 40.6675 115.035 36.7575 124.325C32.6175 134.145 28.7775 144.175 19.7675 150.895C18.2975 151.625 16.4675 152.725 15.2975 151.155C13.9075 149.305 15.8475 147.845 16.9675 146.555C19.2275 143.955 21.7875 141.625 24.2575 139.215C27.9875 131.655 30.4875 123.855 29.0975 115.255C29.1575 114.435 29.5075 113.755 30.0975 113.195C30.3475 103.605 29.0575 94.4154 23.0475 86.4754Z" fill="#030303"/>
<path d="M66.0579 89.2249C65.7779 89.3249 65.4879 89.3649 65.1879 89.3349C62.0379 90.9449 59.2578 92.9749 57.2978 95.9949C56.5778 97.2349 55.6578 98.0349 54.1078 97.4049C51.4178 94.9149 52.36 91.9 52 89C52.01 87.99 52.5978 86.6249 53.2978 85.9549C56.7178 82.6249 57.7679 78.3949 58.1979 73.8849C59.1579 73.5249 60.1278 73.1549 61.0878 72.7949C65.5078 75.0249 67.7679 78.9649 67.1279 83.3349C66.8879 85.3249 67.2679 87.4149 66.0579 89.2249Z" fill="#1EF99A"/>
<path d="M50.9265 89.0755C51.0865 88.2955 50.9965 87.0355 51.4365 86.7955C56.6865 84.0455 55.7265 78.7755 56.6765 74.2955C57.1765 74.1655 57.6765 74.0255 58.1765 73.8955C60.0965 77.7055 59.1665 81.1055 56.6665 84.2655C55.6765 85.5155 54.1465 86.3955 53.9665 88.1955C52.7565 89.6855 54.3365 91.8555 52.7565 93.2555C51.0465 93.1155 50.6965 91.8455 50.3965 90.5155C50.3965 89.9755 50.5665 89.4855 50.9065 89.0655L50.9265 89.0755Z" fill="#1EF99A"/>
<path d="M0.0277448 92.5C0.0277448 89.5 0.0277448 88.2548 0.0273438 85C0.377344 84.4 1.71781 83.8948 2.06781 83.2948C4.32781 79.2448 4.34781 73.8648 9.18781 71.3548C10.5178 70.9448 11.8278 71.1148 13.0178 71.7848C17.8078 74.4748 22.9678 76.1648 28.1978 77.7448C29.7978 78.2248 32.2778 78.6748 31.8178 80.9848C31.4678 82.7848 29.2078 82.6248 27.5978 82.8248C26.1378 83.0048 24.6778 82.6048 22.9478 82.7548C24.1478 83.2648 25.0378 83.6948 25.2878 84.8148C25.0278 86.0348 24.0478 86.2648 23.0478 86.4748C20.0878 86.1348 17.3478 86.8248 14.7578 88.2548C10.6478 89.2748 0.0273437 92.5 0.0273438 95L0.0277448 92.5Z" fill="#1EF99A"/>
<path d="M20.7865 64.5248C20.3665 73.1448 27.1665 74.9448 33.1065 77.5648C35.5965 77.6848 37.2665 79.2348 38.8865 80.8748C41.2465 82.3948 42.3365 84.8048 43.3365 87.2748C44.1465 89.8448 44.8665 92.3848 41.5365 93.8148C39.7665 94.0548 38.5365 93.2448 37.6265 91.8048C37.4665 91.3148 37.3465 90.8148 37.2865 90.3048C33.8165 87.0948 29.4165 86.1548 25.0065 85.2048C24.5965 84.9448 24.2065 84.5948 23.7565 84.4348C22.0865 83.8148 18.8765 85.0548 19.1565 82.1948C19.3565 80.1648 22.2465 81.3448 23.9065 81.1948C26.1765 80.9848 28.4765 81.1448 31.2665 81.1448C28.9565 79.0648 26.4465 78.5948 24.1365 78.3048C18.5665 77.5948 14.5365 73.2748 9.14648 72.3048C13.3465 70.6048 15.1165 65.8148 19.3965 64.2148C19.8565 64.3248 20.3165 64.4249 20.7765 64.5349L20.7865 64.5248Z" fill="#1EF99A"/>
<path d="M21.7345 259.989C21.0645 257.949 22.1845 256.109 22.4045 254.169C26.8045 251.859 31.2844 254.709 35.7044 253.969C38.7944 256.569 41.9644 258.319 45.8944 255.429C46.5144 254.979 47.4645 255.279 48.1845 255.729C49.2845 261.279 54.3545 262.609 58.2845 265.159C60.6045 266.749 61.9645 268.719 60.9345 271.659C60.6445 272.209 60.2245 272.629 59.6945 272.939C51.3945 273.439 43.0645 274.789 34.8645 272.189C33.6045 265.909 27.4345 265.259 23.3645 262.209C22.5045 261.709 22.1245 260.849 21.7345 259.999V259.989Z" fill="#1EF99A"/>
<path d="M37.2954 254.058C36.8854 251.628 36.0953 249.198 37.1453 246.738C41.2153 241.468 43.4754 241.028 51.1754 244.008C52.2454 245.078 53.3054 246.158 54.3754 247.228C54.4154 248.998 53.2454 250.078 51.8654 250.528C48.1354 251.728 45.0054 253.088 42.4454 256.678C40.4954 259.408 38.3454 256.458 37.3054 254.068L37.2954 254.058Z" fill="#1EF99A"/>
<path d="M65.9647 262.928C73.1647 258.998 78.1748 261.228 79.2448 268.808C73.6648 271.808 67.9748 270.968 62.2448 269.358C60.7448 265.628 62.0947 263.548 65.9647 262.918V262.928Z" fill="#FBFAEA"/>
<path d="M80.7552 272.848C61.2752 273.018 41.7752 272.378 22.3152 273.998C22.2252 272.728 22.1352 271.458 22.0352 270.178C22.1252 269.918 22.2152 269.658 22.3052 269.398C23.8352 267.258 26.0652 267.408 28.2952 267.528C30.8352 267.428 33.3451 267.408 34.7651 270.118C35.5151 271.948 37.0152 272.278 38.7952 272.238C46.0352 272.068 53.2652 271.948 60.5052 271.808C67.0452 269.648 73.6052 269.788 80.1552 271.738C80.3552 272.108 80.5552 272.468 80.7552 272.838V272.848Z" fill="#FBFAEA"/>
<path fill-rule="evenodd" clip-rule="evenodd" d="M42.8744 252.159C41.7744 257.569 41.5944 257.538 37.2944 254.058V254.048C37.1194 254.223 36.9419 254.396 36.7644 254.568C36.5869 254.741 36.4094 254.914 36.2344 255.089C38.5744 258.849 41.3644 260.439 45.3044 257.089C46.1844 256.339 47.3143 256.018 48.5143 256.168C48.5196 256.171 48.5248 256.173 48.53 256.175C48.5252 256.177 48.5204 256.178 48.5156 256.179H48.5257C45.6356 260.479 45.6256 260.519 50.2757 261.189C51.1566 261.317 51.4925 261.874 51.8319 262.437C51.9702 262.666 52.109 262.896 52.2857 263.099C52.4229 263.256 52.5585 263.416 52.6943 263.576C53.7959 264.878 54.9092 266.193 56.9657 265.899C60.3257 265.359 63.1557 263.919 65.1557 261.069C64.3462 258.213 62.4201 258.691 60.4907 259.169C60.2987 259.217 60.1066 259.264 59.9157 259.309C59.554 259.453 59.1686 259.499 58.7839 259.544C58.2327 259.61 57.6827 259.676 57.2056 260.029C57.3125 259.722 57.4863 259.45 57.6598 259.178C57.8597 258.865 58.0593 258.553 58.1557 258.189C58.9257 254.989 56.3557 255.769 55.1857 256.149C54.9999 256.209 54.8185 256.272 54.641 256.334C53.2611 256.814 52.1223 257.21 51.0856 255.589C51.0827 255.59 51.0798 255.59 51.0769 255.591C51.0794 255.587 51.0819 255.583 51.0844 255.578C50.7278 253.93 51.7425 253.337 52.7555 252.744C53.2482 252.456 53.7406 252.168 54.0744 251.759C54.4865 251.252 54.9822 250.805 55.4861 250.351C56.7431 249.218 58.0517 248.038 58.2444 245.769C56.6644 246.369 55.5244 246.799 54.3744 247.229C52.1444 249.479 49.4744 250.308 46.3444 249.928C44.6444 249.718 43.3544 249.809 42.8744 252.159Z" fill="#030303"/>
<path d="M80.1546 271.749C73.6046 272.139 67.0546 272.418 60.4946 271.818L60.2246 271.409C61.2546 270.469 59.6746 268.138 62.0846 267.938C67.6846 270.438 73.5046 268.618 79.2346 268.798C80.0146 269.628 80.3146 270.609 80.1546 271.739V271.749Z" fill="#FBFAEA"/>
<path d="M62.0951 267.949C60.9951 268.849 61.6751 270.699 60.2351 271.409C60.1451 268.979 59.3751 266.939 56.9551 265.889C59.5051 263.969 61.8151 261.649 65.1451 261.059C65.4151 261.679 65.6851 262.309 65.9551 262.929C64.3151 264.329 63.0351 266.009 62.0851 267.949H62.0951Z" fill="#1EF99A"/>
<path d="M40.1955 241.989C40.8555 241.659 41.5155 241.339 42.1755 241.009C45.4955 241.049 49.0155 240.509 51.1855 244.019C46.2355 243.519 41.2355 242.799 37.1555 246.749C36.6755 244.209 38.7155 243.279 40.2055 241.989H40.1955Z" fill="#F3F3E9"/>
<path d="M60 259.582C59.6502 259.924 59.3503 260.369 58.9405 260.577C57.3913 261.375 56.8116 263.821 54.5827 263.365C54.3228 263.313 53.923 262.536 54.0129 262.245C54.6926 260.141 56.2918 259.053 58.2408 258.421C58.8206 258.804 59.4103 259.198 60 259.582Z" fill="#030303"/>
<path d="M21.7357 259.988C22.1557 260.208 22.5657 260.418 22.9857 260.638C23.7757 262.358 23.6957 264.208 23.7457 266.038C23.8257 267.448 23.0157 268.548 22.4357 269.728C22.3057 269.878 22.1757 270.038 22.0357 270.178C20.6957 266.818 20.7257 263.418 21.7257 259.988H21.7357Z" fill="#B49686"/>
<path d="M22.1648 265.759C21.9448 263.979 21.2848 262.119 22.9848 260.639C27.1648 260.999 29.2148 266.869 34.2548 264.999C34.4248 266.709 34.5948 268.409 34.7648 270.119C32.6548 268.969 30.2848 269.459 28.0548 269.049C27.0348 266.259 23.9048 267.239 22.1548 265.749L22.1648 265.759Z" fill="#030303"/>
<path d="M22.1641 265.758C23.5741 264.358 25.054 264.008 26.764 265.278C28.094 266.268 29.5741 267.128 28.0641 269.058C26.1841 269.278 24.3141 269.508 22.4441 269.728C22.3541 268.408 22.2641 267.078 22.1741 265.758H22.1641Z" fill="#030303"/>
<path d="M41.6362 176.994C36.7462 179.274 31.8162 181.464 27.5662 184.884C26.9162 185.494 26.1962 185.964 25.2762 186.054C23.0062 186.074 22.0662 184.914 22.1362 182.684C22.1962 181.054 22.2362 179.414 22.0562 177.794C21.8862 176.934 22.1062 176.184 22.6562 175.524C23.0262 175.154 23.4562 174.874 23.9462 174.684C25.3662 174.374 26.6762 173.674 28.1462 173.544C29.2562 173.494 30.3362 173.304 31.3262 172.774C32.3062 172.384 33.3062 172.024 34.3162 171.704C35.3262 171.484 36.3262 171.224 37.0462 170.384C38.4962 167.284 38.2062 164.184 37.1362 161.064C37.0762 160.574 37.1162 160.094 37.2562 159.614C37.5262 158.904 37.8762 158.234 38.2262 157.554C39.7762 153.644 38.9862 149.374 40.1662 145.414C40.6362 143.814 40.2262 141.594 43.0462 142.064C44.9262 144.074 44.1662 146.534 44.2262 148.854C44.9762 151.524 44.1962 154.224 44.3562 156.904C45.0462 159.634 44.1062 162.334 44.2562 165.054C44.7662 167.364 44.2162 169.394 42.6862 171.174C41.1462 172.894 42.0262 175.064 41.6362 176.994Z" fill="#1FD0EF"/>
<path d="M55.1051 97.1656C55.7551 101.176 56.5151 105.176 55.8751 109.266C53.4251 108.846 53.6451 106.736 53.1851 105.056C48.1251 99.5255 47.6151 95.8855 51.0651 90.1855C53.0602 92.8746 50.511 92.0154 55.1051 97.1556V97.1656Z" fill="#9B44FC"/>
<path d="M51.0766 90.1853C50.9666 92.3253 51.0266 94.4954 50.7066 96.6054C50.2766 99.4854 48.4366 102.965 54.2166 101.515C55.4666 101.205 55.0366 102.915 54.9466 103.825C50.8766 106.955 47.5766 106.905 43.3466 103.645L39.501 93.9999C38.5 91.5 37.9241 94.7246 43.5002 90.5001C44.9389 89.4102 45.9366 86.7554 48.9666 86.7954C49.6166 87.5554 50.2766 88.3153 50.9266 89.0753C50.9766 89.4453 51.0266 89.8153 51.0766 90.1853Z" fill="#9B44FC"/>
<path d="M40.0004 92.9995C42.0004 92.9995 45.6857 108.684 45.6257 110.404C45.4557 112.884 47.0456 113.194 49.0156 113.334C51.3756 113.504 55.5504 113.089 57.5004 114.999C57.5004 117.469 53.4902 147.029 53.5002 149.499C47.9762 149.142 49.4186 150.999 41.4988 149.499C36.4186 149.999 36.5 89.999 40.0004 92.9995Z" fill="#9B44FC"/>
<path d="M44.2955 111.586C44.1455 109.726 44.0055 107.866 43.8555 106.016C43.6855 105.226 43.5255 104.436 43.3555 103.646C47.1955 105.446 51.0854 103.616 54.9554 103.836C55.2454 105.646 54.7655 107.596 55.8755 109.276C55.8855 110.176 55.9055 111.076 55.9155 111.976C51.9655 114.026 48.1055 113.556 44.2855 111.586H44.2955Z" fill="#9B44FC"/>
<path d="M44.2961 111.585C48.1861 111.205 52.0661 111.385 55.9261 111.975C55.9061 112.975 55.8861 113.985 55.8661 114.985C53.0461 115.045 50.2161 114.955 47.4161 115.225C44.4161 115.515 43.3961 114.465 44.2961 111.585Z" fill="#9B44FC"/>
<path fill-rule="evenodd" clip-rule="evenodd" d="M0.0364252 100.185L0.0364252 112.175V136.161L0.0266596 136.184V144.184C11.0367 144.184 11.4567 143.775 11.1467 133.255C11.1266 132.592 11.0707 131.934 11.015 131.278L11.0149 131.277C10.9874 130.953 10.9599 130.629 10.9367 130.304V130.314L10.9132 130.303L10.9372 130.295C11.0811 129.691 11.1908 129.069 11.3005 128.446C11.5414 127.079 11.7825 125.71 12.3872 124.535C14.4654 120.528 12.5406 119.886 9.14611 120.124C8.45259 119.376 8.48811 118.573 8.71274 117.758C8.79677 117.781 8.88132 117.803 8.96642 117.825C11.4841 117.352 13.6338 116.089 15.7802 114.828L15.7803 114.828L15.7803 114.827L15.7804 114.827L15.7804 114.827L15.7805 114.827L15.7805 114.827L15.7806 114.827L15.7806 114.827C16.6776 114.3 17.574 113.773 18.4964 113.305C18.7966 113.076 19.0876 112.836 19.375 112.592C19.2259 112.816 19.0751 113.037 18.9076 113.235C17.8967 115.178 18.0657 117.202 18.2345 119.224C18.3446 120.543 18.4547 121.861 18.2376 123.155C21.1676 125.895 24.3076 125.035 27.3376 123.505C30.7376 121.785 30.8176 118.655 30.3276 115.405C30.2684 114.779 30.202 114.153 30.1345 113.527C30.3097 113.415 30.4902 113.297 30.6764 113.175C33.3764 105.145 29.6564 90.6948 23.5364 85.4948C21.463 84.6403 19.7228 85.2798 17.8832 85.9558C16.9458 86.3003 15.9826 86.6543 14.9365 86.8248C11.2696 87.4226 8.49754 87.6621 6.40344 87.843C3.43701 88.0993 1.83105 88.2381 0.969317 89.1113C-0.0479171 90.1421 -0.0280754 92.1963 0.0151885 96.6755C0.025182 97.7101 0.0364252 98.8741 0.0364252 100.185ZM20.6105 111.242C20.7935 111.147 20.9988 111.083 21.2344 111.062C20.8822 110.817 20.7291 110.994 20.6105 111.242ZM81.8111 140.11C81.7136 139.087 81.6161 138.065 81.5161 137.045C80.9266 132.919 80.1088 128.901 77.5953 125.721C77.4125 124.565 76.8473 122.917 76.4168 121.662L76.4167 121.662L76.4167 121.662L76.4165 121.661C76.1639 120.924 75.9577 120.323 75.9023 120.036C73.9775 110.145 71.1531 100.528 66.6863 91.4063C66.5555 90.9159 66.4222 90.4279 66.2888 89.94L66.2888 89.9399C66.1554 89.452 66.022 88.9641 65.8913 88.4737L65.8808 88.4635C65.4519 88.0489 64.9393 87.9174 64.3535 88.0489C63.5502 88.6087 62.6285 89.1466 61.677 89.702C58.589 91.5044 55.1869 93.4901 54.4991 96.9999C55.517 102.976 55.5055 107.886 55.4926 113.437V113.437C55.4891 114.903 55.4856 116.413 55.5009 118C55.5035 118.421 55.4289 119.067 55.3425 119.814C55.0887 122.01 54.7332 125.086 55.9333 125.94C55.7509 126.112 55.5749 126.297 55.4061 126.495C54.2714 128.305 53.3052 130.207 52.3405 132.105L52.3404 132.105C52.1063 132.566 51.8724 133.026 51.6361 133.485C50.5761 136.105 49.6461 138.725 51.8061 141.275C51.8546 141.267 51.9029 141.26 51.9511 141.253C50.0114 143.172 50.6326 145.317 51.2539 147.463C51.3516 147.801 51.4494 148.138 51.5371 148.475C51.8471 148.945 52.2171 149.335 52.6771 149.655C60.5271 156.625 73.3671 156.875 80.7271 150.195C82.1771 148.415 83.3971 146.565 82.7771 144.095L82.6348 143.903C82.4552 143.66 82.2793 143.423 82.0971 143.185L82.0803 143.185L82.1061 143.175C82.0061 142.155 81.9086 141.132 81.8111 140.11ZM29.8255 135.88C35.1982 126.921 38.1888 116.938 37.9565 105.555C37.8665 101.145 36.8865 96.9545 35.0265 93.0545C33.6684 90.1996 35.1272 90.2385 36.8555 90.2846C36.9978 90.2884 37.142 90.2923 37.2865 90.2946C37.5665 90.3846 37.7765 90.5645 37.9065 90.8245V90.8345C40.7772 95.7283 40.8325 101.112 40.8878 106.501C40.8932 107.026 40.8986 107.55 40.9065 108.075C41.0898 120.656 40.5789 133.217 40.0679 145.78C39.9793 147.956 39.8908 150.133 39.8058 152.31C39.966 153.156 40.0534 154.311 40.1416 155.475C40.2713 157.187 40.4025 158.919 40.7687 159.714C40.6913 160.769 40.7874 161.852 40.8835 162.936C41.0783 165.131 41.2731 167.327 40.0252 169.288C39.6588 169.487 39.2924 169.692 38.9284 169.895L38.9257 169.897C38.7038 170.02 38.4828 170.144 38.2633 170.265C37.0005 172.786 35.4422 174.01 33.2933 172.538C32.0864 173.064 30.8841 173.623 29.6818 174.182C26.8864 175.482 24.0905 176.782 21.2348 177.668C20.8251 177.795 20.4106 177.939 19.9929 178.084C17.3476 179.003 14.5714 179.968 12.0382 176.998C11.8789 175.536 11.7163 174.074 11.5537 172.611L11.5537 172.611L11.5536 172.611C11.1343 168.84 10.7145 165.064 10.3476 161.273C9.69576 154.599 9.52267 148.682 15.0325 145.009C16.2223 144.22 17.3338 143.166 18.4533 142.104C20.247 140.402 22.061 138.682 24.2494 138C24.497 138.275 25.9032 137.591 27.2663 136.928L27.2663 136.928L27.2664 136.928C28.345 136.404 29.3966 135.892 29.8255 135.88Z" fill="#FFD313"/>
<defs>
<linearGradient id="paint0_linear_201_333" x1="47.7466" y1="196.344" x2="49.1664" y2="195.271" gradientUnits="userSpaceOnUse">
<stop stop-color="#B4B4B4"/>
<stop offset="0.5" stop-color="white"/>
<stop offset="1" stop-color="#B4B4B4"/>
</linearGradient>
<linearGradient id="paint1_linear_201_333" x1="75.1481" y1="163.823" x2="46.6057" y2="169.421" gradientUnits="userSpaceOnUse">
<stop stop-color="#E2AADD"/>
<stop offset="1" stop-color="#EC78E3"/>
</linearGradient>
<linearGradient id="paint2_linear_201_333" x1="71.6684" y1="38.5455" x2="12.9032" y2="67.6335" gradientUnits="userSpaceOnUse">
<stop stop-color="#FFBCF9"/>
<stop offset="1" stop-color="#E78AE0"/>
</linearGradient>
<linearGradient id="paint3_linear_201_333" x1="31.1945" y1="120.041" x2="12.8715" y2="124.559" gradientUnits="userSpaceOnUse">
<stop stop-color="#E2AADD"/>
<stop offset="1" stop-color="#EC78E3"/>
</linearGradient>
<linearGradient id="paint4_linear_201_333" x1="77.8226" y1="181.381" x2="71.9944" y2="182.026" gradientUnits="userSpaceOnUse">
<stop stop-color="#FFBCF9"/>
<stop offset="1" stop-color="#E78AE0"/>
</linearGradient>
<linearGradient id="paint5_linear_201_333" x1="70.3714" y1="156.342" x2="58.737" y2="162.874" gradientUnits="userSpaceOnUse">
<stop stop-color="#E88DDF"/>
<stop offset="1" stop-color="#A5569D"/>
</linearGradient>
<linearGradient id="paint6_linear_201_333" x1="66.2572" y1="189.134" x2="58.5686" y2="190.504" gradientUnits="userSpaceOnUse">
<stop stop-color="#E88DDF"/>
<stop offset="1" stop-color="#A5569D"/>
</linearGradient>
<linearGradient id="paint7_linear_201_333" x1="69.8571" y1="189.255" x2="64.8822" y2="189.876" gradientUnits="userSpaceOnUse">
<stop stop-color="#E88DDF"/>
<stop offset="1" stop-color="#A5569D"/>
</linearGradient>
<linearGradient id="paint8_linear_201_333" x1="74.9866" y1="186.675" x2="70.986" y2="187.106" gradientUnits="userSpaceOnUse">
<stop stop-color="#E88DDF"/>
<stop offset="1" stop-color="#A5569D"/>
</linearGradient>
<linearGradient id="paint9_linear_201_333" x1="49.4032" y1="81.6337" x2="36.73" y2="86.746" gradientUnits="userSpaceOnUse">
<stop stop-color="#FFBCF9"/>
<stop offset="1" stop-color="#E78AE0"/>
</linearGradient>
<linearGradient id="paint10_linear_201_333" x1="38.8177" y1="76.7987" x2="32.615" y2="79.1589" gradientUnits="userSpaceOnUse">
<stop stop-color="#CF50C3"/>
<stop offset="1" stop-color="#E78AE0"/>
</linearGradient>
</defs>
</svg>
