<svg width="1368" height="498" viewBox="0 0 1368 498" fill="none" xmlns="http://www.w3.org/2000/svg">
<rect width="1368" height="498" fill="black"/>
<line x1="117" y1="451.5" x2="1311" y2="451.5" stroke="#5A5A5A" stroke-width="3"/>
<line x1="117" y1="416.5" x2="1311" y2="416.5" stroke="#5A5A5A" stroke-width="3"/>
<line x1="117" y1="380.5" x2="1311" y2="380.5" stroke="#5A5A5A" stroke-width="3"/>
<line x1="117" y1="348.5" x2="1311" y2="348.5" stroke="#5A5A5A" stroke-width="3"/>
<line x1="113" y1="318.5" x2="1306" y2="318.5" stroke="#5A5A5A" stroke-width="3"/>
<line x1="113" y1="286.5" x2="1306" y2="286.5" stroke="#5A5A5A" stroke-width="3"/>
<line x1="113" y1="255.5" x2="1306" y2="255.5" stroke="#5A5A5A" stroke-width="3"/>
<line x1="113" y1="221.5" x2="1306" y2="221.5" stroke="#5A5A5A" stroke-width="3"/>
<line x1="113" y1="186.5" x2="1306" y2="186.5" stroke="#5A5A5A" stroke-width="3"/>
<line x1="113" y1="151.5" x2="1306" y2="151.5" stroke="#5A5A5A" stroke-width="3"/>
<line x1="113" y1="116.5" x2="1306" y2="116.5" stroke="#5A5A5A" stroke-width="3"/>
<line x1="113" y1="82.5" x2="1306" y2="82.5" stroke="#5A5A5A" stroke-width="3"/>
<path d="M135.984 446.473C141.981 439.953 135.797 421.576 131.955 413.202C140.022 421.402 155.676 421.413 162.495 420.394C157.596 428.034 163.011 441.139 167.203 448.305C167.758 448.871 168.169 449.52 168.409 450.259C168.027 449.674 167.621 449.019 167.203 448.305C162.103 443.098 144.814 444.783 135.984 446.473Z" fill="#FFD313" stroke="black" stroke-width="3"/>
<path d="M297.781 402.048C303.778 395.528 297.594 377.151 293.752 368.777C301.819 376.977 317.473 376.988 324.292 375.968C319.393 383.609 324.808 396.713 329 403.879C329.555 404.446 329.966 405.095 330.206 405.834C329.824 405.249 329.418 404.594 329 403.879C323.9 398.673 306.611 400.357 297.781 402.048Z" fill="#9B44FC" stroke="black" stroke-width="3"/>
<path d="M453.542 406.984C459.54 400.464 453.356 382.087 449.514 373.713C457.58 381.913 473.235 381.924 480.054 380.905C475.155 388.545 480.57 401.649 484.762 408.815C485.317 409.382 485.728 410.031 485.967 410.77C485.585 410.185 485.18 409.53 484.762 408.815C479.662 403.609 462.372 405.293 453.542 406.984Z" fill="#FFD313" stroke="black" stroke-width="3"/>
<path d="M747.515 406.984C753.512 400.464 747.328 382.087 743.487 373.713C751.553 381.913 767.207 381.924 774.026 380.905C769.127 388.545 774.542 401.649 778.734 408.815C779.29 409.382 779.7 410.031 779.94 410.77C779.558 410.185 779.152 409.53 778.734 408.815C773.635 403.609 756.345 405.293 747.515 406.984Z" fill="#FFD313" stroke="black" stroke-width="3"/>
<path d="M559.301 311.498C553.345 318.056 559.646 336.394 563.54 344.743C555.422 336.594 539.768 336.683 532.956 337.745C537.806 330.074 532.308 317.004 528.07 309.865C527.511 309.302 527.097 308.656 526.852 307.918C527.238 308.501 527.648 309.153 528.07 309.865C533.203 315.039 550.482 313.245 559.301 311.498Z" fill="#1EF99A" stroke="black" stroke-width="3"/>
<path d="M231.926 190.903C225.927 197.422 232.106 215.801 235.945 224.176C227.881 215.974 212.226 215.958 205.407 216.975C210.308 209.336 204.897 196.231 200.707 189.063C200.152 188.496 199.741 187.848 199.502 187.109C199.884 187.694 200.289 188.349 200.707 189.063C205.805 194.272 223.095 192.591 231.926 190.903Z" fill="#1EF99A" stroke="black" stroke-width="3"/>
<path d="M401.399 323.63C395.399 330.148 401.578 348.527 405.418 356.902C397.354 348.7 381.699 348.685 374.88 349.702C379.781 342.063 374.37 328.957 370.18 321.79C369.625 321.223 369.214 320.574 368.975 319.835C369.356 320.42 369.762 321.076 370.18 321.79C375.278 326.998 392.568 325.318 401.399 323.63Z" fill="#1FD0EF" stroke="black" stroke-width="3"/>
<path d="M623.817 329.007C627.24 335.607 643.507 335.998 651.213 335.369C642.433 339.38 637.936 351.724 636.785 357.394C632.164 351.34 620.276 351.854 613.422 353.105C612.816 353.381 612.187 353.519 611.535 353.496C612.106 353.362 612.739 353.23 613.422 353.105C618.991 350.576 622.619 336.456 623.817 329.007Z" fill="#1FD0EF" stroke="black" stroke-width="3"/>
<path d="M1241.83 433.109C1243.59 436.505 1251.96 436.706 1255.93 436.383C1251.41 438.447 1249.1 444.799 1248.5 447.716C1246.12 444.601 1240.01 444.865 1236.48 445.51C1236.17 445.651 1235.84 445.722 1235.51 445.71C1235.8 445.642 1236.13 445.574 1236.48 445.51C1239.35 444.208 1241.21 436.942 1241.83 433.109Z" fill="#9B44FC" stroke="black" stroke-width="3"/>
<circle cx="148" cy="338" r="14.5" fill="#FFD313" stroke="black" stroke-width="3"/>
<circle cx="219.522" cy="297.055" r="14.6795" transform="rotate(-179.984 219.522 297.055)" fill="#1EF99A" stroke="black" stroke-width="3"/>
<circle cx="388.587" cy="433.012" r="14.6795" transform="rotate(-179.984 388.587 433.012)" fill="#1FD0EF" stroke="black" stroke-width="3"/>
<circle cx="630.866" cy="434.169" r="14.6795" transform="rotate(-179.984 630.866 434.169)" fill="#1FD0EF" stroke="black" stroke-width="3"/>
<circle cx="1130.65" cy="437.4" r="7.55166" transform="rotate(-179.984 1130.65 437.4)" fill="#1FD0EF" stroke="black" stroke-width="3"/>
<circle cx="310.157" cy="240.503" r="14.6795" transform="rotate(-179.984 310.157 240.503)" fill="#9B44FC" stroke="black" stroke-width="3"/>
<circle cx="383.651" cy="215.823" r="14.6795" transform="rotate(-179.984 383.651 215.823)" fill="#1FD0EF" stroke="black" stroke-width="3"/>
<circle cx="465.921" cy="352.389" r="14.6795" transform="rotate(-179.984 465.921 352.389)" fill="#FFD313" stroke="black" stroke-width="3"/>
<circle cx="547.272" cy="366.171" r="14.6795" transform="rotate(-0.348015 547.272 366.171)" fill="#1EF99A" stroke="black" stroke-width="3"/>
<circle cx="218.016" cy="167.01" r="14.6795" transform="rotate(-179.984 218.016 167.01)" fill="#1EF99A" stroke="black" stroke-width="3"/>
<circle cx="387.491" cy="299.737" r="14.6795" transform="rotate(-179.984 387.491 299.737)" fill="#1FD0EF" stroke="black" stroke-width="3"/>
<rect x="139.449" y="407.992" width="44.7159" height="17.8414" transform="rotate(-91.0367 139.449 407.992)" fill="#FFD313" stroke="black" stroke-width="3"/>
<rect x="227.9" y="226.642" width="44.7159" height="17.8414" transform="rotate(88.9794 227.9 226.642)" fill="#1EF99A" stroke="black" stroke-width="3"/>
<rect x="397.375" y="359.368" width="44.7159" height="17.8414" transform="rotate(88.9794 397.375 359.368)" fill="#1FD0EF" stroke="black" stroke-width="3"/>
<rect x="639.244" y="363.756" width="44.7159" height="17.8414" transform="rotate(88.9794 639.244 363.756)" fill="#1FD0EF" stroke="black" stroke-width="3"/>
<rect x="674.023" y="351.425" width="44.7159" height="17.8414" transform="rotate(0.332565 674.023 351.425)" fill="#9B44FC" stroke="black" stroke-width="3"/>
<rect x="318.824" y="130.962" width="44.7159" height="17.8414" transform="rotate(88.9794 318.824 130.962)" fill="#9B44FC" stroke="black" stroke-width="3"/>
<rect x="443.995" y="307.573" width="44.7159" height="17.8414" transform="rotate(1.29878 443.995 307.573)" fill="#FFD313" stroke="black" stroke-width="3"/>
<rect x="569.48" y="410.846" width="44.7159" height="17.8414" transform="rotate(-179.065 569.48 410.846)" fill="#1EF99A" stroke="black" stroke-width="3"/>
<rect x="856.308" y="414.434" width="44.7159" height="17.8414" transform="rotate(-179.065 856.308 414.434)" fill="#9B44FC" stroke="black" stroke-width="3"/>
<rect x="887.967" y="447.205" width="44.7159" height="17.8414" transform="rotate(-90.1972 887.967 447.205)" fill="#FFD313" stroke="black" stroke-width="3"/>
<rect x="567.818" y="304.194" width="44.7159" height="17.8414" transform="rotate(-179.065 567.818 304.194)" fill="#1EF99A" stroke="black" stroke-width="3"/>
<rect x="1207.27" y="446.24" width="26.013" height="20.8853" transform="rotate(-179.065 1207.27 446.24)" fill="#1FD0EF" stroke="black" stroke-width="3"/>
<rect x="361.727" y="174.297" width="44.7159" height="17.8414" transform="rotate(1.29878 361.727 174.297)" fill="#1FD0EF" stroke="black" stroke-width="3"/>
<path d="M164 223H129V207.953H147.544V188H164V223Z" fill="#FFD313" stroke="black" stroke-width="3"/>
<path d="M712 410H676V394.953H695.073V375H712V410Z" fill="#9B44FC" stroke="black" stroke-width="3"/>
<path d="M326.838 332.887H290.838V317.84H309.911V297.887H326.838V332.887Z" fill="#9B44FC" stroke="black" stroke-width="3"/>
<path d="M1018 447H995V437.112H1007.19V424H1018V447Z" fill="#FFD313" stroke="black" stroke-width="3"/>
<path d="M203.488 414.634L238.59 414.643L238.586 429.498L219.988 429.493L219.983 449.191L203.479 449.186L203.488 414.634Z" fill="#1EF99A" stroke="black" stroke-width="3"/>
<rect x="134.5" y="232.5" width="30" height="30" fill="#FFD313" stroke="black" stroke-width="3"/>
<rect x="680.5" y="419.5" width="31" height="30" fill="#9B44FC" stroke="black" stroke-width="3"/>
<rect x="233.623" y="402.234" width="30.4559" height="30.4559" transform="rotate(-179.984 233.623 402.234)" fill="#1EF99A" stroke="black" stroke-width="3"/>
<rect x="329.221" y="447.696" width="30.4559" height="30.4559" transform="rotate(-179.984 329.221 447.696)" fill="#9B44FC" stroke="black" stroke-width="3"/>
<rect x="484.983" y="449.341" width="30.4559" height="30.4559" transform="rotate(-179.984 484.983 449.341)" fill="#FFD313" stroke="black" stroke-width="3"/>
<rect x="778.955" y="449.341" width="30.4559" height="30.4559" transform="rotate(-179.984 778.955 449.341)" fill="#FFD313" stroke="black" stroke-width="3"/>
<path d="M132.18 276.971H147.311V287.463H163.727V313.444H147.311V303.451H132.18V276.971Z" fill="#FFD313" stroke="black" stroke-width="3"/>
<path d="M287.939 270.047L301.102 262.583L306.277 271.709L320.557 263.611L333.373 286.211L319.093 294.309L314.164 285.617L301.002 293.081L287.939 270.047Z" fill="#9B44FC" stroke="black" stroke-width="3"/>
<path d="M443.703 274.983L456.865 267.519L462.041 276.645L476.321 268.547L489.137 291.147L474.857 299.245L469.928 290.553L456.766 298.017L443.703 274.983Z" fill="#FFD313" stroke="black" stroke-width="3"/>
<path d="M569.979 443.434L556.864 450.982L551.63 441.888L537.402 450.077L524.443 427.559L538.671 419.371L543.655 428.031L556.77 420.484L569.979 443.434Z" fill="#1EF99A" stroke="black" stroke-width="3"/>
<path d="M859.994 443.503L846.88 451.051L841.646 441.957L827.418 450.146L814.459 427.628L828.687 419.44L833.671 428.1L846.786 420.552L859.994 443.503Z" fill="#9B44FC" stroke="black" stroke-width="3"/>
<path d="M334.373 360.498L321.258 368.045L316.025 358.952L301.797 367.14L288.837 344.623L303.066 336.434L308.05 345.095L321.164 337.547L334.373 360.498Z" fill="#9B44FC" stroke="black" stroke-width="3"/>
<path d="M1080.98 441.754L1072.46 446.658L1069.06 440.75L1059.82 446.07L1051.4 431.44L1060.64 426.119L1063.88 431.746L1072.4 426.842L1080.98 441.754Z" fill="#1EF99A" stroke="black" stroke-width="3"/>
<path d="M235.137 357.664L220.005 357.66L220.008 347.168L203.592 347.163L203.599 321.183L220.015 321.187L220.013 331.18L235.144 331.184L235.137 357.664Z" fill="#1EF99A" stroke="black" stroke-width="3"/>
<path d="M610.982 323.718L611.088 312.082L621.579 312.177L621.694 299.553L647.673 299.788L647.559 312.412L637.567 312.322L637.461 323.957L610.982 323.718Z" fill="#1FD0EF" stroke="black" stroke-width="3"/>
<path d="M933.477 448.456L933.645 429.866L944.136 429.961L944.319 409.793L970.298 410.028L970.116 430.196L960.124 430.106L959.955 448.696L933.477 448.456Z" fill="#1EF99A" stroke="black" stroke-width="3"/>
<path d="M291.779 215.276L292.047 200.147L302.537 200.332L302.828 183.919L328.804 184.379L328.514 200.792L318.523 200.615L318.255 215.744L291.779 215.276Z" fill="#9B44FC" stroke="black" stroke-width="3"/>
<path d="M233.379 142.882L218.247 142.878L218.25 132.386L201.834 132.381L201.841 106.401L218.258 106.405L218.255 116.398L233.386 116.402L233.379 142.882Z" fill="#1EF99A" stroke="black" stroke-width="3"/>
<path d="M402.854 275.608L387.722 275.604L387.725 265.112L371.309 265.108L371.316 239.127L387.732 239.132L387.729 249.124L402.861 249.128L402.854 275.608Z" fill="#1FD0EF" stroke="black" stroke-width="3"/>
<path d="M67.5057 457V455.722L72.3068 450.466C72.8703 449.85 73.3343 449.315 73.6989 448.861C74.0634 448.402 74.3333 447.971 74.5085 447.568C74.6884 447.161 74.7784 446.735 74.7784 446.29C74.7784 445.778 74.6553 445.336 74.4091 444.962C74.1676 444.588 73.8362 444.299 73.4148 444.095C72.9934 443.892 72.5199 443.79 71.9943 443.79C71.4356 443.79 70.9479 443.906 70.5312 444.138C70.1193 444.365 69.7997 444.685 69.5724 445.097C69.3499 445.509 69.2386 445.991 69.2386 446.545H67.5625C67.5625 445.693 67.759 444.945 68.152 444.301C68.545 443.657 69.08 443.155 69.7571 442.795C70.4389 442.436 71.2036 442.256 72.0511 442.256C72.9034 442.256 73.6586 442.436 74.3168 442.795C74.9749 443.155 75.491 443.641 75.8651 444.251C76.2391 444.862 76.4261 445.542 76.4261 446.29C76.4261 446.825 76.3291 447.348 76.1349 447.859C75.9455 448.366 75.6141 448.932 75.1406 449.557C74.6719 450.177 74.0208 450.935 73.1875 451.83L69.9205 455.324V455.438H76.6818V457H67.5057ZM87.0298 454.273V453.506C87.0298 452.975 87.1387 452.49 87.3565 452.05C87.5791 451.605 87.901 451.25 88.3224 450.984C88.7486 450.714 89.2647 450.58 89.8707 450.58C90.4863 450.58 91.0024 450.714 91.419 450.984C91.8357 451.25 92.1506 451.605 92.3636 452.05C92.5767 452.49 92.6832 452.975 92.6832 453.506V454.273C92.6832 454.803 92.5743 455.291 92.3565 455.736C92.1435 456.176 91.8262 456.531 91.4048 456.801C90.9882 457.066 90.4768 457.199 89.8707 457.199C89.2552 457.199 88.7367 457.066 88.3153 456.801C87.8939 456.531 87.5743 456.176 87.3565 455.736C87.1387 455.291 87.0298 454.803 87.0298 454.273ZM88.4787 453.506V454.273C88.4787 454.713 88.5829 455.108 88.7912 455.459C88.9995 455.804 89.3594 455.977 89.8707 455.977C90.3679 455.977 90.7183 455.804 90.9219 455.459C91.1302 455.108 91.2344 454.713 91.2344 454.273V453.506C91.2344 453.065 91.1349 452.672 90.9361 452.327C90.7372 451.976 90.3821 451.801 89.8707 451.801C89.3736 451.801 89.0161 451.976 88.7983 452.327C88.5852 452.672 88.4787 453.065 88.4787 453.506ZM79.7855 445.949V445.182C79.7855 444.652 79.8944 444.166 80.1122 443.726C80.3348 443.281 80.6567 442.926 81.0781 442.661C81.5043 442.391 82.0204 442.256 82.6264 442.256C83.242 442.256 83.758 442.391 84.1747 442.661C84.5914 442.926 84.9063 443.281 85.1193 443.726C85.3324 444.166 85.4389 444.652 85.4389 445.182V445.949C85.4389 446.479 85.33 446.967 85.1122 447.412C84.8991 447.852 84.5819 448.207 84.1605 448.477C83.7438 448.742 83.2325 448.875 82.6264 448.875C82.0109 448.875 81.4924 448.742 81.071 448.477C80.6496 448.207 80.33 447.852 80.1122 447.412C79.8944 446.967 79.7855 446.479 79.7855 445.949ZM81.2344 445.182V445.949C81.2344 446.389 81.3385 446.785 81.5469 447.135C81.7552 447.481 82.1151 447.653 82.6264 447.653C83.1236 447.653 83.474 447.481 83.6776 447.135C83.8859 446.785 83.9901 446.389 83.9901 445.949V445.182C83.9901 444.741 83.8906 444.348 83.6918 444.003C83.4929 443.652 83.1378 443.477 82.6264 443.477C82.1293 443.477 81.7718 443.652 81.554 444.003C81.3409 444.348 81.2344 444.741 81.2344 445.182ZM80.3253 457L90.3253 442.455H91.9446L81.9446 457H80.3253Z" fill="#B1B1B1"/>
<path d="M152.25 479.199C151.18 479.199 150.268 478.908 149.516 478.325C148.763 477.738 148.188 476.888 147.79 475.776C147.392 474.658 147.193 473.309 147.193 471.727C147.193 470.155 147.392 468.813 147.79 467.7C148.192 466.583 148.77 465.731 149.523 465.143C150.28 464.552 151.189 464.256 152.25 464.256C153.311 464.256 154.217 464.552 154.97 465.143C155.728 465.731 156.305 466.583 156.703 467.7C157.106 468.813 157.307 470.155 157.307 471.727C157.307 473.309 157.108 474.658 156.71 475.776C156.312 476.888 155.737 477.738 154.984 478.325C154.232 478.908 153.32 479.199 152.25 479.199ZM152.25 477.636C153.311 477.636 154.134 477.125 154.722 476.102C155.309 475.08 155.602 473.621 155.602 471.727C155.602 470.468 155.467 469.395 155.197 468.51C154.932 467.625 154.549 466.95 154.047 466.486C153.55 466.022 152.951 465.79 152.25 465.79C151.199 465.79 150.377 466.308 149.786 467.345C149.194 468.377 148.898 469.838 148.898 471.727C148.898 472.987 149.03 474.057 149.295 474.938C149.561 475.818 149.942 476.488 150.439 476.947C150.941 477.407 151.545 477.636 152.25 477.636Z" fill="#B1B1B1"/>
<path d="M207.506 480V478.722L212.307 473.466C212.87 472.85 213.334 472.315 213.699 471.861C214.063 471.402 214.333 470.971 214.509 470.568C214.688 470.161 214.778 469.735 214.778 469.29C214.778 468.778 214.655 468.336 214.409 467.962C214.168 467.588 213.836 467.299 213.415 467.095C212.993 466.892 212.52 466.79 211.994 466.79C211.436 466.79 210.948 466.906 210.531 467.138C210.119 467.365 209.8 467.685 209.572 468.097C209.35 468.509 209.239 468.991 209.239 469.545H207.562C207.562 468.693 207.759 467.945 208.152 467.301C208.545 466.657 209.08 466.155 209.757 465.795C210.439 465.436 211.204 465.256 212.051 465.256C212.903 465.256 213.659 465.436 214.317 465.795C214.975 466.155 215.491 466.641 215.865 467.251C216.239 467.862 216.426 468.542 216.426 469.29C216.426 469.825 216.329 470.348 216.135 470.859C215.946 471.366 215.614 471.932 215.141 472.557C214.672 473.177 214.021 473.935 213.188 474.83L209.92 478.324V478.438H216.682V480H207.506Z" fill="#B1B1B1"/>
<path d="M306.165 477.017V475.568L312.557 465.455H313.608V467.699H312.898L308.068 475.341V475.455H316.676V477.017H306.165ZM313.011 480V476.577V475.902V465.455H314.688V480H313.011Z" fill="#B1B1B1"/>
<path d="M388.335 480.199C387.739 480.189 387.142 480.076 386.545 479.858C385.949 479.64 385.404 479.273 384.912 478.757C384.42 478.236 384.024 477.533 383.726 476.648C383.428 475.758 383.278 474.64 383.278 473.295C383.278 472.008 383.399 470.866 383.641 469.872C383.882 468.873 384.232 468.033 384.692 467.351C385.151 466.664 385.705 466.143 386.354 465.788C387.007 465.433 387.743 465.256 388.562 465.256C389.377 465.256 390.101 465.419 390.736 465.746C391.375 466.068 391.896 466.518 392.298 467.095C392.701 467.673 392.961 468.338 393.08 469.091H391.347C391.186 468.437 390.873 467.895 390.409 467.464C389.945 467.034 389.33 466.818 388.562 466.818C387.436 466.818 386.548 467.308 385.899 468.288C385.255 469.268 384.931 470.644 384.926 472.415H385.04C385.305 472.012 385.62 471.669 385.984 471.385C386.354 471.096 386.761 470.874 387.206 470.717C387.651 470.561 388.122 470.483 388.619 470.483C389.453 470.483 390.215 470.691 390.906 471.108C391.598 471.52 392.152 472.09 392.568 472.82C392.985 473.544 393.193 474.375 393.193 475.312C393.193 476.212 392.992 477.036 392.589 477.784C392.187 478.527 391.621 479.119 390.892 479.56C390.168 479.995 389.315 480.208 388.335 480.199ZM388.335 478.636C388.932 478.636 389.467 478.487 389.94 478.189C390.419 477.891 390.795 477.491 391.07 476.989C391.349 476.487 391.489 475.928 391.489 475.312C391.489 474.711 391.354 474.164 391.084 473.672C390.819 473.175 390.452 472.779 389.983 472.486C389.519 472.192 388.989 472.045 388.392 472.045C387.942 472.045 387.523 472.135 387.135 472.315C386.747 472.491 386.406 472.732 386.112 473.04C385.823 473.348 385.596 473.7 385.43 474.098C385.265 474.491 385.182 474.905 385.182 475.341C385.182 475.919 385.317 476.458 385.587 476.96C385.861 477.462 386.235 477.867 386.709 478.175C387.187 478.482 387.729 478.636 388.335 478.636Z" fill="#1FD0EF"/>
<path d="M462.165 482.199C461.189 482.199 460.328 482.026 459.58 481.68C458.836 481.33 458.256 480.849 457.839 480.239C457.423 479.623 457.217 478.922 457.222 478.136C457.217 477.521 457.338 476.953 457.584 476.432C457.83 475.906 458.166 475.468 458.592 475.118C459.023 474.763 459.504 474.538 460.034 474.443V474.358C459.338 474.178 458.784 473.787 458.372 473.186C457.96 472.58 457.757 471.891 457.761 471.119C457.757 470.381 457.944 469.72 458.322 469.138C458.701 468.555 459.222 468.096 459.885 467.76C460.553 467.424 461.313 467.256 462.165 467.256C463.008 467.256 463.76 467.424 464.423 467.76C465.086 468.096 465.607 468.555 465.986 469.138C466.369 469.72 466.563 470.381 466.568 471.119C466.563 471.891 466.353 472.58 465.936 473.186C465.524 473.787 464.977 474.178 464.295 474.358V474.443C464.821 474.538 465.295 474.763 465.716 475.118C466.137 475.468 466.473 475.906 466.724 476.432C466.975 476.953 467.103 477.521 467.108 478.136C467.103 478.922 466.89 479.623 466.469 480.239C466.052 480.849 465.472 481.33 464.729 481.68C463.99 482.026 463.135 482.199 462.165 482.199ZM462.165 480.636C462.823 480.636 463.391 480.53 463.869 480.317C464.348 480.104 464.717 479.803 464.977 479.415C465.238 479.027 465.37 478.572 465.375 478.051C465.37 477.502 465.228 477.017 464.949 476.595C464.67 476.174 464.288 475.842 463.805 475.601C463.327 475.359 462.78 475.239 462.165 475.239C461.545 475.239 460.991 475.359 460.503 475.601C460.02 475.842 459.639 476.174 459.359 476.595C459.085 477.017 458.95 477.502 458.955 478.051C458.95 478.572 459.075 479.027 459.331 479.415C459.591 479.803 459.963 480.104 460.446 480.317C460.929 480.53 461.502 480.636 462.165 480.636ZM462.165 473.733C462.686 473.733 463.147 473.629 463.55 473.42C463.957 473.212 464.277 472.921 464.509 472.547C464.741 472.173 464.859 471.735 464.864 471.233C464.859 470.741 464.743 470.312 464.516 469.947C464.288 469.578 463.973 469.294 463.571 469.095C463.169 468.892 462.7 468.79 462.165 468.79C461.62 468.79 461.144 468.892 460.737 469.095C460.33 469.294 460.015 469.578 459.793 469.947C459.57 470.312 459.461 470.741 459.466 471.233C459.461 471.735 459.572 472.173 459.8 472.547C460.032 472.921 460.351 473.212 460.759 473.42C461.166 473.629 461.634 473.733 462.165 473.733Z" fill="#B1B1B1"/>
<path d="M542.619 468.455V483H540.858V470.301H540.773L537.222 472.659V470.869L540.858 468.455H542.619ZM551.547 483.199C550.477 483.199 549.565 482.908 548.812 482.325C548.06 481.738 547.484 480.888 547.087 479.776C546.689 478.658 546.49 477.309 546.49 475.727C546.49 474.155 546.689 472.813 547.087 471.7C547.489 470.583 548.067 469.731 548.82 469.143C549.577 468.552 550.486 468.256 551.547 468.256C552.607 468.256 553.514 468.552 554.267 469.143C555.025 469.731 555.602 470.583 556 471.7C556.402 472.813 556.604 474.155 556.604 475.727C556.604 477.309 556.405 478.658 556.007 479.776C555.609 480.888 555.034 481.738 554.281 482.325C553.528 482.908 552.617 483.199 551.547 483.199ZM551.547 481.636C552.607 481.636 553.431 481.125 554.018 480.102C554.606 479.08 554.899 477.621 554.899 475.727C554.899 474.468 554.764 473.395 554.494 472.51C554.229 471.625 553.846 470.95 553.344 470.486C552.847 470.022 552.248 469.79 551.547 469.79C550.496 469.79 549.674 470.308 549.082 471.345C548.491 472.377 548.195 473.838 548.195 475.727C548.195 476.987 548.327 478.057 548.592 478.938C548.857 479.818 549.239 480.488 549.736 480.947C550.238 481.407 550.841 481.636 551.547 481.636Z" fill="#B1B1B1"/>
<path d="M624.619 468.455V483H622.858V470.301H622.773L619.222 472.659V470.869L622.858 468.455H624.619ZM628.803 483V481.722L633.604 476.466C634.167 475.85 634.631 475.315 634.996 474.861C635.36 474.402 635.63 473.971 635.805 473.568C635.985 473.161 636.075 472.735 636.075 472.29C636.075 471.778 635.952 471.336 635.706 470.962C635.464 470.588 635.133 470.299 634.712 470.095C634.29 469.892 633.817 469.79 633.291 469.79C632.732 469.79 632.245 469.906 631.828 470.138C631.416 470.365 631.097 470.685 630.869 471.097C630.647 471.509 630.536 471.991 630.536 472.545H628.859C628.859 471.693 629.056 470.945 629.449 470.301C629.842 469.657 630.377 469.155 631.054 468.795C631.736 468.436 632.5 468.256 633.348 468.256C634.2 468.256 634.955 468.436 635.614 468.795C636.272 469.155 636.788 469.641 637.162 470.251C637.536 470.862 637.723 471.542 637.723 472.29C637.723 472.825 637.626 473.348 637.432 473.859C637.242 474.366 636.911 474.932 636.438 475.557C635.969 476.177 635.318 476.935 634.484 477.83L631.217 481.324V481.438H637.979V483H628.803Z" fill="#B1B1B1"/>
<path d="M683.619 468.455V483H681.858V470.301H681.773L678.222 472.659V470.869L681.858 468.455H683.619ZM687.462 480.017V478.568L693.854 468.455H694.905V470.699H694.195L689.365 478.341V478.455H697.973V480.017H687.462ZM694.308 483V479.577V478.902V468.455H695.984V483H694.308Z" fill="#B1B1B1"/>
<path d="M750.619 468.455V483H748.858V470.301H748.773L745.222 472.659V470.869L748.858 468.455H750.619ZM759.632 483.199C759.036 483.189 758.439 483.076 757.842 482.858C757.246 482.64 756.701 482.273 756.209 481.757C755.716 481.236 755.321 480.533 755.023 479.648C754.724 478.758 754.575 477.64 754.575 476.295C754.575 475.008 754.696 473.866 754.938 472.872C755.179 471.873 755.529 471.033 755.989 470.351C756.448 469.664 757.002 469.143 757.651 468.788C758.304 468.433 759.04 468.256 759.859 468.256C760.674 468.256 761.398 468.419 762.033 468.746C762.672 469.068 763.193 469.518 763.595 470.095C763.998 470.673 764.258 471.338 764.376 472.091H762.643C762.482 471.437 762.17 470.895 761.706 470.464C761.242 470.034 760.626 469.818 759.859 469.818C758.732 469.818 757.845 470.308 757.196 471.288C756.552 472.268 756.228 473.644 756.223 475.415H756.337C756.602 475.012 756.917 474.669 757.281 474.385C757.651 474.096 758.058 473.874 758.503 473.717C758.948 473.561 759.419 473.483 759.916 473.483C760.75 473.483 761.512 473.691 762.203 474.108C762.894 474.52 763.448 475.09 763.865 475.82C764.282 476.544 764.49 477.375 764.49 478.312C764.49 479.212 764.289 480.036 763.886 480.784C763.484 481.527 762.918 482.119 762.189 482.56C761.464 482.995 760.612 483.208 759.632 483.199ZM759.632 481.636C760.229 481.636 760.764 481.487 761.237 481.189C761.715 480.891 762.092 480.491 762.366 479.989C762.646 479.487 762.786 478.928 762.786 478.312C762.786 477.711 762.651 477.164 762.381 476.672C762.116 476.175 761.749 475.779 761.28 475.486C760.816 475.192 760.286 475.045 759.689 475.045C759.239 475.045 758.82 475.135 758.432 475.315C758.044 475.491 757.703 475.732 757.409 476.04C757.12 476.348 756.893 476.7 756.727 477.098C756.562 477.491 756.479 477.905 756.479 478.341C756.479 478.919 756.614 479.458 756.884 479.96C757.158 480.462 757.532 480.867 758.006 481.175C758.484 481.482 759.026 481.636 759.632 481.636Z" fill="#B1B1B1"/>
<path d="M826.619 468.455V483H824.858V470.301H824.773L821.222 472.659V470.869L824.858 468.455H826.619ZM835.462 483.199C834.486 483.199 833.625 483.026 832.876 482.68C832.133 482.33 831.553 481.849 831.136 481.239C830.72 480.623 830.514 479.922 830.518 479.136C830.514 478.521 830.634 477.953 830.881 477.432C831.127 476.906 831.463 476.468 831.889 476.118C832.32 475.763 832.801 475.538 833.331 475.443V475.358C832.635 475.178 832.081 474.787 831.669 474.186C831.257 473.58 831.054 472.891 831.058 472.119C831.054 471.381 831.241 470.72 831.619 470.138C831.998 469.555 832.519 469.096 833.182 468.76C833.849 468.424 834.609 468.256 835.462 468.256C836.304 468.256 837.057 468.424 837.72 468.76C838.383 469.096 838.904 469.555 839.283 470.138C839.666 470.72 839.86 471.381 839.865 472.119C839.86 472.891 839.65 473.58 839.233 474.186C838.821 474.787 838.274 475.178 837.592 475.358V475.443C838.118 475.538 838.591 475.763 839.013 476.118C839.434 476.468 839.77 476.906 840.021 477.432C840.272 477.953 840.4 478.521 840.405 479.136C840.4 479.922 840.187 480.623 839.766 481.239C839.349 481.849 838.769 482.33 838.026 482.68C837.287 483.026 836.432 483.199 835.462 483.199ZM835.462 481.636C836.12 481.636 836.688 481.53 837.166 481.317C837.644 481.104 838.014 480.803 838.274 480.415C838.535 480.027 838.667 479.572 838.672 479.051C838.667 478.502 838.525 478.017 838.246 477.595C837.966 477.174 837.585 476.842 837.102 476.601C836.624 476.359 836.077 476.239 835.462 476.239C834.841 476.239 834.287 476.359 833.8 476.601C833.317 476.842 832.936 477.174 832.656 477.595C832.382 478.017 832.247 478.502 832.251 479.051C832.247 479.572 832.372 480.027 832.628 480.415C832.888 480.803 833.26 481.104 833.743 481.317C834.226 481.53 834.799 481.636 835.462 481.636ZM835.462 474.733C835.982 474.733 836.444 474.629 836.847 474.42C837.254 474.212 837.573 473.921 837.805 473.547C838.037 473.173 838.156 472.735 838.161 472.233C838.156 471.741 838.04 471.312 837.812 470.947C837.585 470.578 837.27 470.294 836.868 470.095C836.465 469.892 835.997 469.79 835.462 469.79C834.917 469.79 834.441 469.892 834.034 470.095C833.627 470.294 833.312 470.578 833.089 470.947C832.867 471.312 832.758 471.741 832.763 472.233C832.758 472.735 832.869 473.173 833.097 473.547C833.329 473.921 833.648 474.212 834.055 474.42C834.463 474.629 834.931 474.733 835.462 474.733Z" fill="#B1B1B1"/>
<path d="M878.506 483V481.722L883.307 476.466C883.87 475.85 884.334 475.315 884.699 474.861C885.063 474.402 885.333 473.971 885.509 473.568C885.688 473.161 885.778 472.735 885.778 472.29C885.778 471.778 885.655 471.336 885.409 470.962C885.168 470.588 884.836 470.299 884.415 470.095C883.993 469.892 883.52 469.79 882.994 469.79C882.436 469.79 881.948 469.906 881.531 470.138C881.119 470.365 880.8 470.685 880.572 471.097C880.35 471.509 880.239 471.991 880.239 472.545H878.562C878.562 471.693 878.759 470.945 879.152 470.301C879.545 469.657 880.08 469.155 880.757 468.795C881.439 468.436 882.204 468.256 883.051 468.256C883.903 468.256 884.659 468.436 885.317 468.795C885.975 469.155 886.491 469.641 886.865 470.251C887.239 470.862 887.426 471.542 887.426 472.29C887.426 472.825 887.329 473.348 887.135 473.859C886.946 474.366 886.614 474.932 886.141 475.557C885.672 476.177 885.021 476.935 884.188 477.83L880.92 481.324V481.438H887.682V483H878.506ZM895.359 483.199C894.289 483.199 893.378 482.908 892.625 482.325C891.872 481.738 891.297 480.888 890.899 479.776C890.501 478.658 890.303 477.309 890.303 475.727C890.303 474.155 890.501 472.813 890.899 471.7C891.302 470.583 891.879 469.731 892.632 469.143C893.39 468.552 894.299 468.256 895.359 468.256C896.42 468.256 897.327 468.552 898.08 469.143C898.837 469.731 899.415 470.583 899.812 471.7C900.215 472.813 900.416 474.155 900.416 475.727C900.416 477.309 900.217 478.658 899.82 479.776C899.422 480.888 898.847 481.738 898.094 482.325C897.341 482.908 896.429 483.199 895.359 483.199ZM895.359 481.636C896.42 481.636 897.244 481.125 897.831 480.102C898.418 479.08 898.712 477.621 898.712 475.727C898.712 474.468 898.577 473.395 898.307 472.51C898.042 471.625 897.658 470.95 897.156 470.486C896.659 470.022 896.06 469.79 895.359 469.79C894.308 469.79 893.487 470.308 892.895 471.345C892.303 472.377 892.007 473.838 892.007 475.727C892.007 476.987 892.14 478.057 892.405 478.938C892.67 479.818 893.051 480.488 893.548 480.947C894.05 481.407 894.654 481.636 895.359 481.636Z" fill="#B1B1B1"/>
<path d="M931.506 483V481.722L936.307 476.466C936.87 475.85 937.334 475.315 937.699 474.861C938.063 474.402 938.333 473.971 938.509 473.568C938.688 473.161 938.778 472.735 938.778 472.29C938.778 471.778 938.655 471.336 938.409 470.962C938.168 470.588 937.836 470.299 937.415 470.095C936.993 469.892 936.52 469.79 935.994 469.79C935.436 469.79 934.948 469.906 934.531 470.138C934.119 470.365 933.8 470.685 933.572 471.097C933.35 471.509 933.239 471.991 933.239 472.545H931.562C931.562 471.693 931.759 470.945 932.152 470.301C932.545 469.657 933.08 469.155 933.757 468.795C934.439 468.436 935.204 468.256 936.051 468.256C936.903 468.256 937.659 468.436 938.317 468.795C938.975 469.155 939.491 469.641 939.865 470.251C940.239 470.862 940.426 471.542 940.426 472.29C940.426 472.825 940.329 473.348 940.135 473.859C939.946 474.366 939.614 474.932 939.141 475.557C938.672 476.177 938.021 476.935 937.188 477.83L933.92 481.324V481.438H940.682V483H931.506ZM943.615 483V481.722L948.416 476.466C948.98 475.85 949.444 475.315 949.808 474.861C950.173 474.402 950.443 473.971 950.618 473.568C950.798 473.161 950.888 472.735 950.888 472.29C950.888 471.778 950.765 471.336 950.518 470.962C950.277 470.588 949.946 470.299 949.524 470.095C949.103 469.892 948.629 469.79 948.104 469.79C947.545 469.79 947.057 469.906 946.641 470.138C946.229 470.365 945.909 470.685 945.682 471.097C945.459 471.509 945.348 471.991 945.348 472.545H943.672C943.672 471.693 943.868 470.945 944.261 470.301C944.654 469.657 945.189 469.155 945.866 468.795C946.548 468.436 947.313 468.256 948.161 468.256C949.013 468.256 949.768 468.436 950.426 468.795C951.084 469.155 951.6 469.641 951.974 470.251C952.348 470.862 952.536 471.542 952.536 472.29C952.536 472.825 952.438 473.348 952.244 473.859C952.055 474.366 951.723 474.932 951.25 475.557C950.781 476.177 950.13 476.935 949.297 477.83L946.03 481.324V481.438H952.791V483H943.615Z" fill="#B1B1B1"/>
<path d="M989.506 482V480.722L994.307 475.466C994.87 474.85 995.334 474.315 995.699 473.861C996.063 473.402 996.333 472.971 996.509 472.568C996.688 472.161 996.778 471.735 996.778 471.29C996.778 470.778 996.655 470.336 996.409 469.962C996.168 469.588 995.836 469.299 995.415 469.095C994.993 468.892 994.52 468.79 993.994 468.79C993.436 468.79 992.948 468.906 992.531 469.138C992.119 469.365 991.8 469.685 991.572 470.097C991.35 470.509 991.239 470.991 991.239 471.545H989.562C989.562 470.693 989.759 469.945 990.152 469.301C990.545 468.657 991.08 468.155 991.757 467.795C992.439 467.436 993.204 467.256 994.051 467.256C994.903 467.256 995.659 467.436 996.317 467.795C996.975 468.155 997.491 468.641 997.865 469.251C998.239 469.862 998.426 470.542 998.426 471.29C998.426 471.825 998.329 472.348 998.135 472.859C997.946 473.366 997.614 473.932 997.141 474.557C996.672 475.177 996.021 475.935 995.188 476.83L991.92 480.324V480.438H998.682V482H989.506ZM1000.96 479.017V477.568L1007.35 467.455H1008.4V469.699H1007.69L1002.87 477.341V477.455H1011.47V479.017H1000.96ZM1007.81 482V478.577V477.902V467.455H1009.48V482H1007.81Z" fill="#B1B1B1"/>
<path d="M1049.51 483V481.722L1054.31 476.466C1054.87 475.85 1055.33 475.315 1055.7 474.861C1056.06 474.402 1056.33 473.971 1056.51 473.568C1056.69 473.161 1056.78 472.735 1056.78 472.29C1056.78 471.778 1056.66 471.336 1056.41 470.962C1056.17 470.588 1055.84 470.299 1055.41 470.095C1054.99 469.892 1054.52 469.79 1053.99 469.79C1053.44 469.79 1052.95 469.906 1052.53 470.138C1052.12 470.365 1051.8 470.685 1051.57 471.097C1051.35 471.509 1051.24 471.991 1051.24 472.545H1049.56C1049.56 471.693 1049.76 470.945 1050.15 470.301C1050.54 469.657 1051.08 469.155 1051.76 468.795C1052.44 468.436 1053.2 468.256 1054.05 468.256C1054.9 468.256 1055.66 468.436 1056.32 468.795C1056.97 469.155 1057.49 469.641 1057.87 470.251C1058.24 470.862 1058.43 471.542 1058.43 472.29C1058.43 472.825 1058.33 473.348 1058.13 473.859C1057.95 474.366 1057.61 474.932 1057.14 475.557C1056.67 476.177 1056.02 476.935 1055.19 477.83L1051.92 481.324V481.438H1058.68V483H1049.51ZM1066.44 483.199C1065.85 483.189 1065.25 483.076 1064.65 482.858C1064.06 482.64 1063.51 482.273 1063.02 481.757C1062.53 481.236 1062.13 480.533 1061.84 479.648C1061.54 478.758 1061.39 477.64 1061.39 476.295C1061.39 475.008 1061.51 473.866 1061.75 472.872C1061.99 471.873 1062.34 471.033 1062.8 470.351C1063.26 469.664 1063.81 469.143 1064.46 468.788C1065.12 468.433 1065.85 468.256 1066.67 468.256C1067.49 468.256 1068.21 468.419 1068.85 468.746C1069.48 469.068 1070.01 469.518 1070.41 470.095C1070.81 470.673 1071.07 471.338 1071.19 472.091H1069.46C1069.29 471.437 1068.98 470.895 1068.52 470.464C1068.05 470.034 1067.44 469.818 1066.67 469.818C1065.54 469.818 1064.66 470.308 1064.01 471.288C1063.36 472.268 1063.04 473.644 1063.04 475.415H1063.15C1063.41 475.012 1063.73 474.669 1064.09 474.385C1064.46 474.096 1064.87 473.874 1065.32 473.717C1065.76 473.561 1066.23 473.483 1066.73 473.483C1067.56 473.483 1068.32 473.691 1069.02 474.108C1069.71 474.52 1070.26 475.09 1070.68 475.82C1071.09 476.544 1071.3 477.375 1071.3 478.312C1071.3 479.212 1071.1 480.036 1070.7 480.784C1070.3 481.527 1069.73 482.119 1069 482.56C1068.28 482.995 1067.42 483.208 1066.44 483.199ZM1066.44 481.636C1067.04 481.636 1067.58 481.487 1068.05 481.189C1068.53 480.891 1068.9 480.491 1069.18 479.989C1069.46 479.487 1069.6 478.928 1069.6 478.312C1069.6 477.711 1069.46 477.164 1069.19 476.672C1068.93 476.175 1068.56 475.779 1068.09 475.486C1067.63 475.192 1067.1 475.045 1066.5 475.045C1066.05 475.045 1065.63 475.135 1065.24 475.315C1064.86 475.491 1064.52 475.732 1064.22 476.04C1063.93 476.348 1063.71 476.7 1063.54 477.098C1063.37 477.491 1063.29 477.905 1063.29 478.341C1063.29 478.919 1063.43 479.458 1063.7 479.96C1063.97 480.462 1064.34 480.867 1064.82 481.175C1065.3 481.482 1065.84 481.636 1066.44 481.636Z" fill="#B1B1B1"/>
<path d="M1115.51 484V482.722L1120.31 477.466C1120.87 476.85 1121.33 476.315 1121.7 475.861C1122.06 475.402 1122.33 474.971 1122.51 474.568C1122.69 474.161 1122.78 473.735 1122.78 473.29C1122.78 472.778 1122.66 472.336 1122.41 471.962C1122.17 471.588 1121.84 471.299 1121.41 471.095C1120.99 470.892 1120.52 470.79 1119.99 470.79C1119.44 470.79 1118.95 470.906 1118.53 471.138C1118.12 471.365 1117.8 471.685 1117.57 472.097C1117.35 472.509 1117.24 472.991 1117.24 473.545H1115.56C1115.56 472.693 1115.76 471.945 1116.15 471.301C1116.54 470.657 1117.08 470.155 1117.76 469.795C1118.44 469.436 1119.2 469.256 1120.05 469.256C1120.9 469.256 1121.66 469.436 1122.32 469.795C1122.97 470.155 1123.49 470.641 1123.87 471.251C1124.24 471.862 1124.43 472.542 1124.43 473.29C1124.43 473.825 1124.33 474.348 1124.13 474.859C1123.95 475.366 1123.61 475.932 1123.14 476.557C1122.67 477.177 1122.02 477.935 1121.19 478.83L1117.92 482.324V482.438H1124.68V484H1115.51ZM1132.27 484.199C1131.3 484.199 1130.44 484.026 1129.69 483.68C1128.95 483.33 1128.37 482.849 1127.95 482.239C1127.53 481.623 1127.33 480.922 1127.33 480.136C1127.33 479.521 1127.45 478.953 1127.69 478.432C1127.94 477.906 1128.28 477.468 1128.7 477.118C1129.13 476.763 1129.61 476.538 1130.14 476.443V476.358C1129.45 476.178 1128.89 475.787 1128.48 475.186C1128.07 474.58 1127.87 473.891 1127.87 473.119C1127.87 472.381 1128.05 471.72 1128.43 471.138C1128.81 470.555 1129.33 470.096 1129.99 469.76C1130.66 469.424 1131.42 469.256 1132.27 469.256C1133.12 469.256 1133.87 469.424 1134.53 469.76C1135.2 470.096 1135.72 470.555 1136.1 471.138C1136.48 471.72 1136.67 472.381 1136.68 473.119C1136.67 473.891 1136.46 474.58 1136.05 475.186C1135.63 475.787 1135.09 476.178 1134.4 476.358V476.443C1134.93 476.538 1135.4 476.763 1135.83 477.118C1136.25 477.468 1136.58 477.906 1136.83 478.432C1137.08 478.953 1137.21 479.521 1137.22 480.136C1137.21 480.922 1137 481.623 1136.58 482.239C1136.16 482.849 1135.58 483.33 1134.84 483.68C1134.1 484.026 1133.24 484.199 1132.27 484.199ZM1132.27 482.636C1132.93 482.636 1133.5 482.53 1133.98 482.317C1134.46 482.104 1134.83 481.803 1135.09 481.415C1135.35 481.027 1135.48 480.572 1135.48 480.051C1135.48 479.502 1135.34 479.017 1135.06 478.595C1134.78 478.174 1134.4 477.842 1133.91 477.601C1133.44 477.359 1132.89 477.239 1132.27 477.239C1131.65 477.239 1131.1 477.359 1130.61 477.601C1130.13 477.842 1129.75 478.174 1129.47 478.595C1129.19 479.017 1129.06 479.502 1129.06 480.051C1129.06 480.572 1129.18 481.027 1129.44 481.415C1129.7 481.803 1130.07 482.104 1130.56 482.317C1131.04 482.53 1131.61 482.636 1132.27 482.636ZM1132.27 475.733C1132.79 475.733 1133.26 475.629 1133.66 475.42C1134.07 475.212 1134.39 474.921 1134.62 474.547C1134.85 474.173 1134.97 473.735 1134.97 473.233C1134.97 472.741 1134.85 472.312 1134.62 471.947C1134.4 471.578 1134.08 471.294 1133.68 471.095C1133.28 470.892 1132.81 470.79 1132.27 470.79C1131.73 470.79 1131.25 470.892 1130.85 471.095C1130.44 471.294 1130.12 471.578 1129.9 471.947C1129.68 472.312 1129.57 472.741 1129.58 473.233C1129.57 473.735 1129.68 474.173 1129.91 474.547C1130.14 474.921 1130.46 475.212 1130.87 475.42C1131.28 475.629 1131.74 475.733 1132.27 475.733Z" fill="#B1B1B1"/>
<path d="M1181.42 483.199C1180.48 483.199 1179.65 483.038 1178.91 482.716C1178.18 482.394 1177.6 481.946 1177.17 481.374C1176.75 480.796 1176.52 480.126 1176.48 479.364H1178.27C1178.3 479.832 1178.47 480.237 1178.75 480.578C1179.03 480.914 1179.41 481.175 1179.87 481.359C1180.32 481.544 1180.83 481.636 1181.39 481.636C1182.02 481.636 1182.57 481.527 1183.05 481.31C1183.54 481.092 1183.92 480.789 1184.19 480.401C1184.46 480.012 1184.6 479.562 1184.6 479.051C1184.6 478.516 1184.47 478.045 1184.2 477.638C1183.94 477.226 1183.55 476.904 1183.04 476.672C1182.53 476.44 1181.9 476.324 1181.16 476.324H1180V474.761H1181.16C1181.74 474.761 1182.25 474.657 1182.68 474.449C1183.13 474.241 1183.47 473.947 1183.71 473.568C1183.97 473.189 1184.09 472.744 1184.09 472.233C1184.09 471.741 1183.98 471.312 1183.76 470.947C1183.55 470.583 1183.24 470.299 1182.84 470.095C1182.45 469.892 1181.98 469.79 1181.45 469.79C1180.95 469.79 1180.47 469.882 1180.03 470.067C1179.59 470.247 1179.23 470.509 1178.95 470.855C1178.67 471.196 1178.52 471.608 1178.49 472.091H1176.79C1176.82 471.329 1177.05 470.661 1177.48 470.088C1177.91 469.51 1178.47 469.061 1179.17 468.739C1179.87 468.417 1180.64 468.256 1181.48 468.256C1182.38 468.256 1183.15 468.438 1183.79 468.803C1184.44 469.162 1184.93 469.638 1185.28 470.23C1185.62 470.822 1185.8 471.461 1185.8 472.148C1185.8 472.967 1185.58 473.665 1185.15 474.243C1184.72 474.821 1184.14 475.221 1183.41 475.443V475.557C1184.33 475.708 1185.04 476.099 1185.56 476.729C1186.08 477.354 1186.34 478.128 1186.34 479.051C1186.34 479.842 1186.12 480.552 1185.69 481.182C1185.26 481.807 1184.68 482.299 1183.94 482.659C1183.2 483.019 1182.36 483.199 1181.42 483.199ZM1193.98 483.199C1192.91 483.199 1192 482.908 1191.25 482.325C1190.5 481.738 1189.92 480.888 1189.52 479.776C1189.13 478.658 1188.93 477.309 1188.93 475.727C1188.93 474.155 1189.13 472.813 1189.52 471.7C1189.93 470.583 1190.5 469.731 1191.26 469.143C1192.01 468.552 1192.92 468.256 1193.98 468.256C1195.04 468.256 1195.95 468.552 1196.7 469.143C1197.46 469.731 1198.04 470.583 1198.44 471.7C1198.84 472.813 1199.04 474.155 1199.04 475.727C1199.04 477.309 1198.84 478.658 1198.44 479.776C1198.05 480.888 1197.47 481.738 1196.72 482.325C1195.97 482.908 1195.05 483.199 1193.98 483.199ZM1193.98 481.636C1195.04 481.636 1195.87 481.125 1196.46 480.102C1197.04 479.08 1197.34 477.621 1197.34 475.727C1197.34 474.468 1197.2 473.395 1196.93 472.51C1196.67 471.625 1196.28 470.95 1195.78 470.486C1195.28 470.022 1194.69 469.79 1193.98 469.79C1192.93 469.79 1192.11 470.308 1191.52 471.345C1190.93 472.377 1190.63 473.838 1190.63 475.727C1190.63 476.987 1190.76 478.057 1191.03 478.938C1191.29 479.818 1191.68 480.488 1192.17 480.947C1192.68 481.407 1193.28 481.636 1193.98 481.636Z" fill="#B1B1B1"/>
<path d="M1236.42 483.199C1235.48 483.199 1234.65 483.038 1233.91 482.716C1233.18 482.394 1232.6 481.946 1232.17 481.374C1231.75 480.796 1231.52 480.126 1231.48 479.364H1233.27C1233.3 479.832 1233.47 480.237 1233.75 480.578C1234.03 480.914 1234.41 481.175 1234.87 481.359C1235.32 481.544 1235.83 481.636 1236.39 481.636C1237.02 481.636 1237.57 481.527 1238.05 481.31C1238.54 481.092 1238.92 480.789 1239.19 480.401C1239.46 480.012 1239.6 479.562 1239.6 479.051C1239.6 478.516 1239.47 478.045 1239.2 477.638C1238.94 477.226 1238.55 476.904 1238.04 476.672C1237.53 476.44 1236.9 476.324 1236.16 476.324H1235V474.761H1236.16C1236.74 474.761 1237.25 474.657 1237.68 474.449C1238.13 474.241 1238.47 473.947 1238.71 473.568C1238.97 473.189 1239.09 472.744 1239.09 472.233C1239.09 471.741 1238.98 471.312 1238.76 470.947C1238.55 470.583 1238.24 470.299 1237.84 470.095C1237.45 469.892 1236.98 469.79 1236.45 469.79C1235.95 469.79 1235.47 469.882 1235.03 470.067C1234.59 470.247 1234.23 470.509 1233.95 470.855C1233.67 471.196 1233.52 471.608 1233.49 472.091H1231.79C1231.82 471.329 1232.05 470.661 1232.48 470.088C1232.91 469.51 1233.47 469.061 1234.17 468.739C1234.87 468.417 1235.64 468.256 1236.48 468.256C1237.38 468.256 1238.15 468.438 1238.79 468.803C1239.44 469.162 1239.93 469.638 1240.28 470.23C1240.62 470.822 1240.8 471.461 1240.8 472.148C1240.8 472.967 1240.58 473.665 1240.15 474.243C1239.72 474.821 1239.14 475.221 1238.41 475.443V475.557C1239.33 475.708 1240.04 476.099 1240.56 476.729C1241.08 477.354 1241.34 478.128 1241.34 479.051C1241.34 479.842 1241.12 480.552 1240.69 481.182C1240.26 481.807 1239.68 482.299 1238.94 482.659C1238.2 483.019 1237.36 483.199 1236.42 483.199ZM1244.24 483V481.722L1249.04 476.466C1249.6 475.85 1250.07 475.315 1250.43 474.861C1250.8 474.402 1251.07 473.971 1251.24 473.568C1251.42 473.161 1251.51 472.735 1251.51 472.29C1251.51 471.778 1251.39 471.336 1251.14 470.962C1250.9 470.588 1250.57 470.299 1250.15 470.095C1249.73 469.892 1249.25 469.79 1248.73 469.79C1248.17 469.79 1247.68 469.906 1247.27 470.138C1246.85 470.365 1246.53 470.685 1246.31 471.097C1246.08 471.509 1245.97 471.991 1245.97 472.545H1244.3C1244.3 471.693 1244.49 470.945 1244.89 470.301C1245.28 469.657 1245.81 469.155 1246.49 468.795C1247.17 468.436 1247.94 468.256 1248.79 468.256C1249.64 468.256 1250.39 468.436 1251.05 468.795C1251.71 469.155 1252.23 469.641 1252.6 470.251C1252.97 470.862 1253.16 471.542 1253.16 472.29C1253.16 472.825 1253.06 473.348 1252.87 473.859C1252.68 474.366 1252.35 474.932 1251.88 475.557C1251.41 476.177 1250.76 476.935 1249.92 477.83L1246.65 481.324V481.438H1253.42V483H1244.24Z" fill="#B1B1B1"/>
<path d="M67.1648 418.017V416.568L73.5568 406.455H74.608V408.699H73.8977L69.0682 416.341V416.455H77.6761V418.017H67.1648ZM74.0114 421V417.577V416.902V406.455H75.6875V421H74.0114ZM87.7525 418.273V417.506C87.7525 416.975 87.8614 416.49 88.0792 416.05C88.3017 415.605 88.6237 415.25 89.0451 414.984C89.4712 414.714 89.9873 414.58 90.5934 414.58C91.2089 414.58 91.725 414.714 92.1417 414.984C92.5584 415.25 92.8732 415.605 93.0863 416.05C93.2994 416.49 93.4059 416.975 93.4059 417.506V418.273C93.4059 418.803 93.297 419.291 93.0792 419.736C92.8661 420.176 92.5489 420.531 92.1275 420.801C91.7108 421.066 91.1995 421.199 90.5934 421.199C89.9779 421.199 89.4594 421.066 89.038 420.801C88.6166 420.531 88.297 420.176 88.0792 419.736C87.8614 419.291 87.7525 418.803 87.7525 418.273ZM89.2013 417.506V418.273C89.2013 418.713 89.3055 419.108 89.5138 419.459C89.7222 419.804 90.082 419.977 90.5934 419.977C91.0906 419.977 91.4409 419.804 91.6445 419.459C91.8529 419.108 91.957 418.713 91.957 418.273V417.506C91.957 417.065 91.8576 416.672 91.6587 416.327C91.4599 415.976 91.1048 415.801 90.5934 415.801C90.0962 415.801 89.7388 415.976 89.521 416.327C89.3079 416.672 89.2013 417.065 89.2013 417.506ZM80.5082 409.949V409.182C80.5082 408.652 80.6171 408.166 80.8349 407.726C81.0574 407.281 81.3794 406.926 81.8008 406.661C82.2269 406.391 82.743 406.256 83.3491 406.256C83.9646 406.256 84.4807 406.391 84.8974 406.661C85.314 406.926 85.6289 407.281 85.842 407.726C86.055 408.166 86.1616 408.652 86.1616 409.182V409.949C86.1616 410.479 86.0527 410.967 85.8349 411.412C85.6218 411.852 85.3046 412.207 84.8832 412.477C84.4665 412.742 83.9551 412.875 83.3491 412.875C82.7335 412.875 82.2151 412.742 81.7937 412.477C81.3723 412.207 81.0527 411.852 80.8349 411.412C80.6171 410.967 80.5082 410.479 80.5082 409.949ZM81.957 409.182V409.949C81.957 410.389 82.0612 410.785 82.2695 411.135C82.4779 411.481 82.8377 411.653 83.3491 411.653C83.8462 411.653 84.1966 411.481 84.4002 411.135C84.6085 410.785 84.7127 410.389 84.7127 409.949V409.182C84.7127 408.741 84.6133 408.348 84.4144 408.003C84.2156 407.652 83.8604 407.477 83.3491 407.477C82.8519 407.477 82.4944 407.652 82.2766 408.003C82.0636 408.348 81.957 408.741 81.957 409.182ZM81.0479 421L91.0479 406.455H92.6673L82.6673 421H81.0479Z" fill="#B1B1B1"/>
<path d="M72.3352 385.199C71.7386 385.189 71.142 385.076 70.5455 384.858C69.9489 384.64 69.4044 384.273 68.9119 383.757C68.4195 383.236 68.0241 382.533 67.7259 381.648C67.4276 380.758 67.2784 379.64 67.2784 378.295C67.2784 377.008 67.3991 375.866 67.6406 374.872C67.8821 373.873 68.2325 373.033 68.6918 372.351C69.151 371.664 69.705 371.143 70.3537 370.788C71.0071 370.433 71.7434 370.256 72.5625 370.256C73.3769 370.256 74.1013 370.419 74.7358 370.746C75.375 371.068 75.8958 371.518 76.2983 372.095C76.7008 372.673 76.9612 373.338 77.0795 374.091H75.3466C75.1856 373.437 74.8731 372.895 74.4091 372.464C73.9451 372.034 73.3295 371.818 72.5625 371.818C71.4356 371.818 70.5478 372.308 69.8991 373.288C69.2552 374.268 68.9309 375.644 68.9261 377.415H69.0398C69.3049 377.012 69.6198 376.669 69.9844 376.385C70.3537 376.096 70.7609 375.874 71.206 375.717C71.651 375.561 72.1222 375.483 72.6193 375.483C73.4527 375.483 74.215 375.691 74.9062 376.108C75.5975 376.52 76.1515 377.09 76.5682 377.82C76.9848 378.544 77.1932 379.375 77.1932 380.312C77.1932 381.212 76.992 382.036 76.5895 382.784C76.187 383.527 75.6212 384.119 74.892 384.56C74.1676 384.995 73.3153 385.208 72.3352 385.199ZM72.3352 383.636C72.9318 383.636 73.4669 383.487 73.9403 383.189C74.4186 382.891 74.795 382.491 75.0696 381.989C75.349 381.487 75.4886 380.928 75.4886 380.312C75.4886 379.711 75.3537 379.164 75.0838 378.672C74.8187 378.175 74.4517 377.779 73.983 377.486C73.5189 377.192 72.9886 377.045 72.392 377.045C71.9422 377.045 71.5232 377.135 71.1349 377.315C70.7467 377.491 70.4058 377.732 70.1122 378.04C69.8234 378.348 69.5961 378.7 69.4304 379.098C69.2647 379.491 69.1818 379.905 69.1818 380.341C69.1818 380.919 69.3168 381.458 69.5866 381.96C69.8613 382.462 70.2353 382.867 70.7088 383.175C71.187 383.482 71.7292 383.636 72.3352 383.636ZM87.4009 382.273V381.506C87.4009 380.975 87.5098 380.49 87.7276 380.05C87.9502 379.605 88.2721 379.25 88.6935 378.984C89.1197 378.714 89.6358 378.58 90.2418 378.58C90.8574 378.58 91.3735 378.714 91.7901 378.984C92.2068 379.25 92.5217 379.605 92.7347 380.05C92.9478 380.49 93.0543 380.975 93.0543 381.506V382.273C93.0543 382.803 92.9454 383.291 92.7276 383.736C92.5146 384.176 92.1973 384.531 91.7759 384.801C91.3593 385.066 90.8479 385.199 90.2418 385.199C89.6263 385.199 89.1078 385.066 88.6864 384.801C88.265 384.531 87.9454 384.176 87.7276 383.736C87.5098 383.291 87.4009 382.803 87.4009 382.273ZM88.8498 381.506V382.273C88.8498 382.713 88.954 383.108 89.1623 383.459C89.3706 383.804 89.7305 383.977 90.2418 383.977C90.739 383.977 91.0894 383.804 91.293 383.459C91.5013 383.108 91.6055 382.713 91.6055 382.273V381.506C91.6055 381.065 91.506 380.672 91.3072 380.327C91.1083 379.976 90.7532 379.801 90.2418 379.801C89.7447 379.801 89.3872 379.976 89.1694 380.327C88.9563 380.672 88.8498 381.065 88.8498 381.506ZM80.1566 373.949V373.182C80.1566 372.652 80.2655 372.166 80.4833 371.726C80.7058 371.281 81.0278 370.926 81.4492 370.661C81.8754 370.391 82.3915 370.256 82.9975 370.256C83.613 370.256 84.1291 370.391 84.5458 370.661C84.9625 370.926 85.2773 371.281 85.4904 371.726C85.7035 372.166 85.81 372.652 85.81 373.182V373.949C85.81 374.479 85.7011 374.967 85.4833 375.412C85.2702 375.852 84.953 376.207 84.5316 376.477C84.1149 376.742 83.6036 376.875 82.9975 376.875C82.382 376.875 81.8635 376.742 81.4421 376.477C81.0207 376.207 80.7011 375.852 80.4833 375.412C80.2655 374.967 80.1566 374.479 80.1566 373.949ZM81.6055 373.182V373.949C81.6055 374.389 81.7096 374.785 81.918 375.135C82.1263 375.481 82.4862 375.653 82.9975 375.653C83.4947 375.653 83.8451 375.481 84.0487 375.135C84.257 374.785 84.3612 374.389 84.3612 373.949V373.182C84.3612 372.741 84.2617 372.348 84.0629 372.003C83.864 371.652 83.5089 371.477 82.9975 371.477C82.5004 371.477 82.1429 371.652 81.9251 372.003C81.712 372.348 81.6055 372.741 81.6055 373.182ZM80.6964 385L90.6964 370.455H92.3157L82.3157 385H80.6964Z" fill="#B1B1B1"/>
<path d="M72.1648 353.199C71.1894 353.199 70.3277 353.026 69.5795 352.68C68.8362 352.33 68.2562 351.849 67.8395 351.239C67.4228 350.623 67.2169 349.922 67.2216 349.136C67.2169 348.521 67.3376 347.953 67.5838 347.432C67.83 346.906 68.1662 346.468 68.5923 346.118C69.0232 345.763 69.5038 345.538 70.0341 345.443V345.358C69.3381 345.178 68.7841 344.787 68.3722 344.186C67.9602 343.58 67.7566 342.891 67.7614 342.119C67.7566 341.381 67.9437 340.72 68.3224 340.138C68.7012 339.555 69.2221 339.096 69.8849 338.76C70.5526 338.424 71.3125 338.256 72.1648 338.256C73.0076 338.256 73.7604 338.424 74.4233 338.76C75.0862 339.096 75.607 339.555 75.9858 340.138C76.3693 340.72 76.5634 341.381 76.5682 342.119C76.5634 342.891 76.3527 343.58 75.9361 344.186C75.5241 344.787 74.9773 345.178 74.2955 345.358V345.443C74.821 345.538 75.2945 345.763 75.7159 346.118C76.1373 346.468 76.4735 346.906 76.7244 347.432C76.9754 347.953 77.1032 348.521 77.108 349.136C77.1032 349.922 76.8902 350.623 76.4688 351.239C76.0521 351.849 75.4721 352.33 74.7287 352.68C73.9901 353.026 73.1354 353.199 72.1648 353.199ZM72.1648 351.636C72.8229 351.636 73.3911 351.53 73.8693 351.317C74.3475 351.104 74.7169 350.803 74.9773 350.415C75.2377 350.027 75.3703 349.572 75.375 349.051C75.3703 348.502 75.2282 348.017 74.9489 347.595C74.6695 347.174 74.2884 346.842 73.8054 346.601C73.3272 346.359 72.7803 346.239 72.1648 346.239C71.5445 346.239 70.9905 346.359 70.5028 346.601C70.0199 346.842 69.6387 347.174 69.3594 347.595C69.0848 348.017 68.9498 348.502 68.9545 349.051C68.9498 349.572 69.0753 350.027 69.331 350.415C69.5914 350.803 69.9631 351.104 70.446 351.317C70.929 351.53 71.5019 351.636 72.1648 351.636ZM72.1648 344.733C72.6856 344.733 73.1473 344.629 73.5497 344.42C73.9569 344.212 74.2765 343.921 74.5085 343.547C74.7405 343.173 74.8589 342.735 74.8636 342.233C74.8589 341.741 74.7429 341.312 74.5156 340.947C74.2884 340.578 73.9735 340.294 73.571 340.095C73.1686 339.892 72.6998 339.79 72.1648 339.79C71.6203 339.79 71.1444 339.892 70.7372 340.095C70.33 340.294 70.0152 340.578 69.7926 340.947C69.5701 341.312 69.4612 341.741 69.4659 342.233C69.4612 342.735 69.5724 343.173 69.7997 343.547C70.0317 343.921 70.3513 344.212 70.7585 344.42C71.1657 344.629 71.6345 344.733 72.1648 344.733ZM87.2447 350.273V349.506C87.2447 348.975 87.3536 348.49 87.5714 348.05C87.7939 347.605 88.1159 347.25 88.5373 346.984C88.9634 346.714 89.4795 346.58 90.0856 346.58C90.7011 346.58 91.2172 346.714 91.6339 346.984C92.0505 347.25 92.3654 347.605 92.5785 348.05C92.7915 348.49 92.8981 348.975 92.8981 349.506V350.273C92.8981 350.803 92.7892 351.291 92.5714 351.736C92.3583 352.176 92.0411 352.531 91.6197 352.801C91.203 353.066 90.6916 353.199 90.0856 353.199C89.4701 353.199 88.9516 353.066 88.5302 352.801C88.1088 352.531 87.7892 352.176 87.5714 351.736C87.3536 351.291 87.2447 350.803 87.2447 350.273ZM88.6935 349.506V350.273C88.6935 350.713 88.7977 351.108 89.006 351.459C89.2144 351.804 89.5742 351.977 90.0856 351.977C90.5827 351.977 90.9331 351.804 91.1367 351.459C91.3451 351.108 91.4492 350.713 91.4492 350.273V349.506C91.4492 349.065 91.3498 348.672 91.1509 348.327C90.9521 347.976 90.5969 347.801 90.0856 347.801C89.5884 347.801 89.2309 347.976 89.0131 348.327C88.8001 348.672 88.6935 349.065 88.6935 349.506ZM80.0004 341.949V341.182C80.0004 340.652 80.1093 340.166 80.3271 339.726C80.5496 339.281 80.8716 338.926 81.293 338.661C81.7191 338.391 82.2352 338.256 82.8413 338.256C83.4568 338.256 83.9729 338.391 84.3896 338.661C84.8062 338.926 85.1211 339.281 85.3342 339.726C85.5472 340.166 85.6538 340.652 85.6538 341.182V341.949C85.6538 342.479 85.5449 342.967 85.3271 343.412C85.114 343.852 84.7968 344.207 84.3754 344.477C83.9587 344.742 83.4473 344.875 82.8413 344.875C82.2257 344.875 81.7073 344.742 81.2859 344.477C80.8645 344.207 80.5449 343.852 80.3271 343.412C80.1093 342.967 80.0004 342.479 80.0004 341.949ZM81.4492 341.182V341.949C81.4492 342.389 81.5534 342.785 81.7617 343.135C81.9701 343.481 82.3299 343.653 82.8413 343.653C83.3384 343.653 83.6888 343.481 83.8924 343.135C84.1007 342.785 84.2049 342.389 84.2049 341.949V341.182C84.2049 340.741 84.1055 340.348 83.9066 340.003C83.7077 339.652 83.3526 339.477 82.8413 339.477C82.3441 339.477 81.9866 339.652 81.7688 340.003C81.5558 340.348 81.4492 340.741 81.4492 341.182ZM80.5401 353L90.5401 338.455H92.1594L82.1594 353H80.5401Z" fill="#B1B1B1"/>
<path d="M68.6193 308.455V323H66.858V310.301H66.7727L63.2216 312.659V310.869L66.858 308.455H68.6193ZM77.5469 323.199C76.4768 323.199 75.5653 322.908 74.8125 322.325C74.0597 321.738 73.4844 320.888 73.0866 319.776C72.6889 318.658 72.4901 317.309 72.4901 315.727C72.4901 314.155 72.6889 312.813 73.0866 311.7C73.4891 310.583 74.0668 309.731 74.8196 309.143C75.5772 308.552 76.4863 308.256 77.5469 308.256C78.6075 308.256 79.5142 308.552 80.267 309.143C81.0246 309.731 81.6023 310.583 82 311.7C82.4025 312.813 82.6037 314.155 82.6037 315.727C82.6037 317.309 82.4048 318.658 82.0071 319.776C81.6094 320.888 81.0341 321.738 80.2812 322.325C79.5284 322.908 78.617 323.199 77.5469 323.199ZM77.5469 321.636C78.6075 321.636 79.4313 321.125 80.0185 320.102C80.6056 319.08 80.8991 317.621 80.8991 315.727C80.8991 314.468 80.7642 313.395 80.4943 312.51C80.2292 311.625 79.8456 310.95 79.3438 310.486C78.8466 310.022 78.2476 309.79 77.5469 309.79C76.4957 309.79 75.6742 310.308 75.0824 311.345C74.4905 312.377 74.1946 313.838 74.1946 315.727C74.1946 316.987 74.3272 318.057 74.5923 318.938C74.8575 319.818 75.2386 320.488 75.7358 320.947C76.2377 321.407 76.8414 321.636 77.5469 321.636ZM92.7173 320.273V319.506C92.7173 318.975 92.8262 318.49 93.044 318.05C93.2666 317.605 93.5885 317.25 94.0099 316.984C94.4361 316.714 94.9522 316.58 95.5582 316.58C96.1738 316.58 96.6899 316.714 97.1065 316.984C97.5232 317.25 97.8381 317.605 98.0511 318.05C98.2642 318.49 98.3707 318.975 98.3707 319.506V320.273C98.3707 320.803 98.2618 321.291 98.044 321.736C97.831 322.176 97.5137 322.531 97.0923 322.801C96.6757 323.066 96.1643 323.199 95.5582 323.199C94.9427 323.199 94.4242 323.066 94.0028 322.801C93.5814 322.531 93.2618 322.176 93.044 321.736C92.8262 321.291 92.7173 320.803 92.7173 320.273ZM94.1662 319.506V320.273C94.1662 320.713 94.2704 321.108 94.4787 321.459C94.687 321.804 95.0469 321.977 95.5582 321.977C96.0554 321.977 96.4058 321.804 96.6094 321.459C96.8177 321.108 96.9219 320.713 96.9219 320.273V319.506C96.9219 319.065 96.8224 318.672 96.6236 318.327C96.4247 317.976 96.0696 317.801 95.5582 317.801C95.0611 317.801 94.7036 317.976 94.4858 318.327C94.2727 318.672 94.1662 319.065 94.1662 319.506ZM85.473 311.949V311.182C85.473 310.652 85.5819 310.166 85.7997 309.726C86.0223 309.281 86.3442 308.926 86.7656 308.661C87.1918 308.391 87.7079 308.256 88.3139 308.256C88.9295 308.256 89.4455 308.391 89.8622 308.661C90.2789 308.926 90.5938 309.281 90.8068 309.726C91.0199 310.166 91.1264 310.652 91.1264 311.182V311.949C91.1264 312.479 91.0175 312.967 90.7997 313.412C90.5866 313.852 90.2694 314.207 89.848 314.477C89.4313 314.742 88.92 314.875 88.3139 314.875C87.6984 314.875 87.1799 314.742 86.7585 314.477C86.3371 314.207 86.0175 313.852 85.7997 313.412C85.5819 312.967 85.473 312.479 85.473 311.949ZM86.9219 311.182V311.949C86.9219 312.389 87.026 312.785 87.2344 313.135C87.4427 313.481 87.8026 313.653 88.3139 313.653C88.8111 313.653 89.1615 313.481 89.3651 313.135C89.5734 312.785 89.6776 312.389 89.6776 311.949V311.182C89.6776 310.741 89.5781 310.348 89.3793 310.003C89.1804 309.652 88.8253 309.477 88.3139 309.477C87.8168 309.477 87.4593 309.652 87.2415 310.003C87.0284 310.348 86.9219 310.741 86.9219 311.182ZM86.0128 323L96.0128 308.455H97.6321L87.6321 323H86.0128Z" fill="#B1B1B1"/>
<path d="M68.6193 278.455V293H66.858V280.301H66.7727L63.2216 282.659V280.869L66.858 278.455H68.6193ZM72.8026 293V291.722L77.6037 286.466C78.1671 285.85 78.6312 285.315 78.9957 284.861C79.3603 284.402 79.6302 283.971 79.8054 283.568C79.9853 283.161 80.0753 282.735 80.0753 282.29C80.0753 281.778 79.9522 281.336 79.706 280.962C79.4645 280.588 79.133 280.299 78.7116 280.095C78.2902 279.892 77.8168 279.79 77.2912 279.79C76.7325 279.79 76.2448 279.906 75.8281 280.138C75.4162 280.365 75.0966 280.685 74.8693 281.097C74.6468 281.509 74.5355 281.991 74.5355 282.545H72.8594C72.8594 281.693 73.0559 280.945 73.4489 280.301C73.8419 279.657 74.3769 279.155 75.054 278.795C75.7358 278.436 76.5005 278.256 77.348 278.256C78.2003 278.256 78.9555 278.436 79.6136 278.795C80.2718 279.155 80.7879 279.641 81.1619 280.251C81.536 280.862 81.723 281.542 81.723 282.29C81.723 282.825 81.6259 283.348 81.4318 283.859C81.2424 284.366 80.911 284.932 80.4375 285.557C79.9688 286.177 79.3177 286.935 78.4844 287.83L75.2173 291.324V291.438H81.9787V293H72.8026ZM92.3267 290.273V289.506C92.3267 288.975 92.4356 288.49 92.6534 288.05C92.8759 287.605 93.1979 287.25 93.6193 286.984C94.0455 286.714 94.5616 286.58 95.1676 286.58C95.7831 286.58 96.2992 286.714 96.7159 286.984C97.1326 287.25 97.4474 287.605 97.6605 288.05C97.8736 288.49 97.9801 288.975 97.9801 289.506V290.273C97.9801 290.803 97.8712 291.291 97.6534 291.736C97.4403 292.176 97.1231 292.531 96.7017 292.801C96.285 293.066 95.7737 293.199 95.1676 293.199C94.5521 293.199 94.0336 293.066 93.6122 292.801C93.1908 292.531 92.8712 292.176 92.6534 291.736C92.4356 291.291 92.3267 290.803 92.3267 290.273ZM93.7756 289.506V290.273C93.7756 290.713 93.8797 291.108 94.0881 291.459C94.2964 291.804 94.6563 291.977 95.1676 291.977C95.6648 291.977 96.0152 291.804 96.2188 291.459C96.4271 291.108 96.5312 290.713 96.5312 290.273V289.506C96.5312 289.065 96.4318 288.672 96.233 288.327C96.0341 287.976 95.679 287.801 95.1676 287.801C94.6705 287.801 94.313 287.976 94.0952 288.327C93.8821 288.672 93.7756 289.065 93.7756 289.506ZM85.0824 281.949V281.182C85.0824 280.652 85.1913 280.166 85.4091 279.726C85.6316 279.281 85.9536 278.926 86.375 278.661C86.8011 278.391 87.3172 278.256 87.9233 278.256C88.5388 278.256 89.0549 278.391 89.4716 278.661C89.8883 278.926 90.2031 279.281 90.4162 279.726C90.6293 280.166 90.7358 280.652 90.7358 281.182V281.949C90.7358 282.479 90.6269 282.967 90.4091 283.412C90.196 283.852 89.8788 284.207 89.4574 284.477C89.0407 284.742 88.5294 284.875 87.9233 284.875C87.3078 284.875 86.7893 284.742 86.3679 284.477C85.9465 284.207 85.6269 283.852 85.4091 283.412C85.1913 282.967 85.0824 282.479 85.0824 281.949ZM86.5312 281.182V281.949C86.5312 282.389 86.6354 282.785 86.8438 283.135C87.0521 283.481 87.4119 283.653 87.9233 283.653C88.4205 283.653 88.7708 283.481 88.9744 283.135C89.1828 282.785 89.2869 282.389 89.2869 281.949V281.182C89.2869 280.741 89.1875 280.348 88.9886 280.003C88.7898 279.652 88.4347 279.477 87.9233 279.477C87.4261 279.477 87.0687 279.652 86.8509 280.003C86.6378 280.348 86.5312 280.741 86.5312 281.182ZM85.6222 293L95.6222 278.455H97.2415L87.2415 293H85.6222Z" fill="#B1B1B1"/>
<path d="M68.6193 246.455V261H66.858V248.301H66.7727L63.2216 250.659V248.869L66.858 246.455H68.6193ZM72.4616 258.017V256.568L78.8537 246.455H79.9048V248.699H79.1946L74.3651 256.341V256.455H82.973V258.017H72.4616ZM79.3082 261V257.577V256.902V246.455H80.9844V261H79.3082ZM93.0494 258.273V257.506C93.0494 256.975 93.1583 256.49 93.3761 256.05C93.5986 255.605 93.9206 255.25 94.342 254.984C94.7681 254.714 95.2842 254.58 95.8903 254.58C96.5058 254.58 97.0219 254.714 97.4386 254.984C97.8552 255.25 98.1701 255.605 98.3832 256.05C98.5962 256.49 98.7028 256.975 98.7028 257.506V258.273C98.7028 258.803 98.5939 259.291 98.3761 259.736C98.163 260.176 97.8458 260.531 97.4244 260.801C97.0077 261.066 96.4963 261.199 95.8903 261.199C95.2747 261.199 94.7563 261.066 94.3349 260.801C93.9135 260.531 93.5939 260.176 93.3761 259.736C93.1583 259.291 93.0494 258.803 93.0494 258.273ZM94.4982 257.506V258.273C94.4982 258.713 94.6024 259.108 94.8107 259.459C95.0191 259.804 95.3789 259.977 95.8903 259.977C96.3874 259.977 96.7378 259.804 96.9414 259.459C97.1497 259.108 97.2539 258.713 97.2539 258.273V257.506C97.2539 257.065 97.1545 256.672 96.9556 256.327C96.7567 255.976 96.4016 255.801 95.8903 255.801C95.3931 255.801 95.0356 255.976 94.8178 256.327C94.6048 256.672 94.4982 257.065 94.4982 257.506ZM85.805 249.949V249.182C85.805 248.652 85.9139 248.166 86.1317 247.726C86.3543 247.281 86.6763 246.926 87.0977 246.661C87.5238 246.391 88.0399 246.256 88.646 246.256C89.2615 246.256 89.7776 246.391 90.1942 246.661C90.6109 246.926 90.9258 247.281 91.1388 247.726C91.3519 248.166 91.4585 248.652 91.4585 249.182V249.949C91.4585 250.479 91.3496 250.967 91.1317 251.412C90.9187 251.852 90.6014 252.207 90.18 252.477C89.7634 252.742 89.252 252.875 88.646 252.875C88.0304 252.875 87.512 252.742 87.0906 252.477C86.6692 252.207 86.3496 251.852 86.1317 251.412C85.9139 250.967 85.805 250.479 85.805 249.949ZM87.2539 249.182V249.949C87.2539 250.389 87.3581 250.785 87.5664 251.135C87.7747 251.481 88.1346 251.653 88.646 251.653C89.1431 251.653 89.4935 251.481 89.6971 251.135C89.9054 250.785 90.0096 250.389 90.0096 249.949V249.182C90.0096 248.741 89.9102 248.348 89.7113 248.003C89.5124 247.652 89.1573 247.477 88.646 247.477C88.1488 247.477 87.7913 247.652 87.5735 248.003C87.3604 248.348 87.2539 248.741 87.2539 249.182ZM86.3448 261L96.3448 246.455H97.9641L87.9641 261H86.3448Z" fill="#B1B1B1"/>
<path d="M68.6193 212.455V227H66.858V214.301H66.7727L63.2216 216.659V214.869L66.858 212.455H68.6193ZM77.6321 227.199C77.0355 227.189 76.4389 227.076 75.8423 226.858C75.2457 226.64 74.7012 226.273 74.2088 225.757C73.7164 225.236 73.321 224.533 73.0227 223.648C72.7244 222.758 72.5753 221.64 72.5753 220.295C72.5753 219.008 72.696 217.866 72.9375 216.872C73.179 215.873 73.5294 215.033 73.9886 214.351C74.4479 213.664 75.0019 213.143 75.6506 212.788C76.304 212.433 77.0402 212.256 77.8594 212.256C78.6738 212.256 79.3982 212.419 80.0327 212.746C80.6719 213.068 81.1927 213.518 81.5952 214.095C81.9976 214.673 82.258 215.338 82.3764 216.091H80.6435C80.4825 215.437 80.17 214.895 79.706 214.464C79.242 214.034 78.6264 213.818 77.8594 213.818C76.7325 213.818 75.8447 214.308 75.196 215.288C74.5521 216.268 74.2277 217.644 74.223 219.415H74.3366C74.6018 219.012 74.9167 218.669 75.2812 218.385C75.6506 218.096 76.0578 217.874 76.5028 217.717C76.9479 217.561 77.419 217.483 77.9162 217.483C78.7495 217.483 79.5118 217.691 80.2031 218.108C80.8944 218.52 81.4484 219.09 81.8651 219.82C82.2817 220.544 82.4901 221.375 82.4901 222.312C82.4901 223.212 82.2888 224.036 81.8864 224.784C81.4839 225.527 80.9181 226.119 80.1889 226.56C79.4645 226.995 78.6122 227.208 77.6321 227.199ZM77.6321 225.636C78.2287 225.636 78.7637 225.487 79.2372 225.189C79.7154 224.891 80.0919 224.491 80.3665 223.989C80.6458 223.487 80.7855 222.928 80.7855 222.312C80.7855 221.711 80.6506 221.164 80.3807 220.672C80.1155 220.175 79.7486 219.779 79.2798 219.486C78.8158 219.192 78.2855 219.045 77.6889 219.045C77.2391 219.045 76.8201 219.135 76.4318 219.315C76.0436 219.491 75.7027 219.732 75.4091 220.04C75.1203 220.348 74.893 220.7 74.7273 221.098C74.5616 221.491 74.4787 221.905 74.4787 222.341C74.4787 222.919 74.6136 223.458 74.8835 223.96C75.1581 224.462 75.5322 224.867 76.0057 225.175C76.4839 225.482 77.026 225.636 77.6321 225.636ZM92.6978 224.273V223.506C92.6978 222.975 92.8067 222.49 93.0245 222.05C93.247 221.605 93.569 221.25 93.9904 220.984C94.4165 220.714 94.9326 220.58 95.5387 220.58C96.1542 220.58 96.6703 220.714 97.087 220.984C97.5037 221.25 97.8185 221.605 98.0316 222.05C98.2447 222.49 98.3512 222.975 98.3512 223.506V224.273C98.3512 224.803 98.2423 225.291 98.0245 225.736C97.8114 226.176 97.4942 226.531 97.0728 226.801C96.6561 227.066 96.1448 227.199 95.5387 227.199C94.9232 227.199 94.4047 227.066 93.9833 226.801C93.5619 226.531 93.2423 226.176 93.0245 225.736C92.8067 225.291 92.6978 224.803 92.6978 224.273ZM94.1467 223.506V224.273C94.1467 224.713 94.2508 225.108 94.4592 225.459C94.6675 225.804 95.0273 225.977 95.5387 225.977C96.0359 225.977 96.3862 225.804 96.5898 225.459C96.7982 225.108 96.9023 224.713 96.9023 224.273V223.506C96.9023 223.065 96.8029 222.672 96.604 222.327C96.4052 221.976 96.0501 221.801 95.5387 221.801C95.0415 221.801 94.6841 221.976 94.4663 222.327C94.2532 222.672 94.1467 223.065 94.1467 223.506ZM85.4535 215.949V215.182C85.4535 214.652 85.5624 214.166 85.7802 213.726C86.0027 213.281 86.3247 212.926 86.7461 212.661C87.1722 212.391 87.6883 212.256 88.2944 212.256C88.9099 212.256 89.426 212.391 89.8427 212.661C90.2594 212.926 90.5742 213.281 90.7873 213.726C91.0004 214.166 91.1069 214.652 91.1069 215.182V215.949C91.1069 216.479 90.998 216.967 90.7802 217.412C90.5671 217.852 90.2499 218.207 89.8285 218.477C89.4118 218.742 88.9004 218.875 88.2944 218.875C87.6789 218.875 87.1604 218.742 86.739 218.477C86.3176 218.207 85.998 217.852 85.7802 217.412C85.5624 216.967 85.4535 216.479 85.4535 215.949ZM86.9023 215.182V215.949C86.9023 216.389 87.0065 216.785 87.2148 217.135C87.4232 217.481 87.783 217.653 88.2944 217.653C88.7915 217.653 89.1419 217.481 89.3455 217.135C89.5539 216.785 89.658 216.389 89.658 215.949V215.182C89.658 214.741 89.5586 214.348 89.3597 214.003C89.1609 213.652 88.8058 213.477 88.2944 213.477C87.7972 213.477 87.4397 213.652 87.2219 214.003C87.0089 214.348 86.9023 214.741 86.9023 215.182ZM85.9933 227L95.9933 212.455H97.6126L87.6126 227H85.9933Z" fill="#B1B1B1"/>
<path d="M68.6193 177.455V192H66.858V179.301H66.7727L63.2216 181.659V179.869L66.858 177.455H68.6193ZM77.4616 192.199C76.4863 192.199 75.6245 192.026 74.8764 191.68C74.133 191.33 73.553 190.849 73.1364 190.239C72.7197 189.623 72.5137 188.922 72.5185 188.136C72.5137 187.521 72.6345 186.953 72.8807 186.432C73.1269 185.906 73.4631 185.468 73.8892 185.118C74.3201 184.763 74.8007 184.538 75.331 184.443V184.358C74.6349 184.178 74.081 183.787 73.669 183.186C73.2571 182.58 73.0535 181.891 73.0582 181.119C73.0535 180.381 73.2405 179.72 73.6193 179.138C73.9981 178.555 74.5189 178.096 75.1818 177.76C75.8494 177.424 76.6094 177.256 77.4616 177.256C78.3045 177.256 79.0573 177.424 79.7202 177.76C80.383 178.096 80.9039 178.555 81.2827 179.138C81.6662 179.72 81.8603 180.381 81.8651 181.119C81.8603 181.891 81.6496 182.58 81.233 183.186C80.821 183.787 80.2741 184.178 79.5923 184.358V184.443C80.1179 184.538 80.5914 184.763 81.0128 185.118C81.4342 185.468 81.7704 185.906 82.0213 186.432C82.2723 186.953 82.4001 187.521 82.4048 188.136C82.4001 188.922 82.187 189.623 81.7656 190.239C81.349 190.849 80.7689 191.33 80.0256 191.68C79.2869 192.026 78.4323 192.199 77.4616 192.199ZM77.4616 190.636C78.1198 190.636 78.688 190.53 79.1662 190.317C79.6444 190.104 80.0137 189.803 80.2741 189.415C80.5346 189.027 80.6671 188.572 80.6719 188.051C80.6671 187.502 80.5251 187.017 80.2457 186.595C79.9664 186.174 79.5852 185.842 79.1023 185.601C78.6241 185.359 78.0772 185.239 77.4616 185.239C76.8414 185.239 76.2874 185.359 75.7997 185.601C75.3168 185.842 74.9356 186.174 74.6562 186.595C74.3816 187.017 74.2467 187.502 74.2514 188.051C74.2467 188.572 74.3722 189.027 74.6278 189.415C74.8883 189.803 75.2599 190.104 75.7429 190.317C76.2259 190.53 76.7988 190.636 77.4616 190.636ZM77.4616 183.733C77.9825 183.733 78.4441 183.629 78.8466 183.42C79.2538 183.212 79.5734 182.921 79.8054 182.547C80.0374 182.173 80.1558 181.735 80.1605 181.233C80.1558 180.741 80.0398 180.312 79.8125 179.947C79.5852 179.578 79.2704 179.294 78.8679 179.095C78.4654 178.892 77.9967 178.79 77.4616 178.79C76.9171 178.79 76.4413 178.892 76.0341 179.095C75.6269 179.294 75.312 179.578 75.0895 179.947C74.867 180.312 74.758 180.741 74.7628 181.233C74.758 181.735 74.8693 182.173 75.0966 182.547C75.3286 182.921 75.6482 183.212 76.0554 183.42C76.4626 183.629 76.9313 183.733 77.4616 183.733ZM92.5415 189.273V188.506C92.5415 187.975 92.6505 187.49 92.8683 187.05C93.0908 186.605 93.4128 186.25 93.8342 185.984C94.2603 185.714 94.7764 185.58 95.3825 185.58C95.998 185.58 96.5141 185.714 96.9308 185.984C97.3474 186.25 97.6623 186.605 97.8754 187.05C98.0884 187.49 98.195 187.975 98.195 188.506V189.273C98.195 189.803 98.0861 190.291 97.8683 190.736C97.6552 191.176 97.338 191.531 96.9165 191.801C96.4999 192.066 95.9885 192.199 95.3825 192.199C94.7669 192.199 94.2485 192.066 93.8271 191.801C93.4057 191.531 93.0861 191.176 92.8683 190.736C92.6505 190.291 92.5415 189.803 92.5415 189.273ZM93.9904 188.506V189.273C93.9904 189.713 94.0946 190.108 94.3029 190.459C94.5112 190.804 94.8711 190.977 95.3825 190.977C95.8796 190.977 96.23 190.804 96.4336 190.459C96.6419 190.108 96.7461 189.713 96.7461 189.273V188.506C96.7461 188.065 96.6467 187.672 96.4478 187.327C96.2489 186.976 95.8938 186.801 95.3825 186.801C94.8853 186.801 94.5278 186.976 94.31 187.327C94.0969 187.672 93.9904 188.065 93.9904 188.506ZM85.2972 180.949V180.182C85.2972 179.652 85.4061 179.166 85.6239 178.726C85.8465 178.281 86.1684 177.926 86.5898 177.661C87.016 177.391 87.5321 177.256 88.1381 177.256C88.7537 177.256 89.2698 177.391 89.6864 177.661C90.1031 177.926 90.418 178.281 90.631 178.726C90.8441 179.166 90.9506 179.652 90.9506 180.182V180.949C90.9506 181.479 90.8417 181.967 90.6239 182.412C90.4109 182.852 90.0936 183.207 89.6722 183.477C89.2556 183.742 88.7442 183.875 88.1381 183.875C87.5226 183.875 87.0041 183.742 86.5827 183.477C86.1613 183.207 85.8417 182.852 85.6239 182.412C85.4061 181.967 85.2972 181.479 85.2972 180.949ZM86.7461 180.182V180.949C86.7461 181.389 86.8503 181.785 87.0586 182.135C87.2669 182.481 87.6268 182.653 88.1381 182.653C88.6353 182.653 88.9857 182.481 89.1893 182.135C89.3976 181.785 89.5018 181.389 89.5018 180.949V180.182C89.5018 179.741 89.4023 179.348 89.2035 179.003C89.0046 178.652 88.6495 178.477 88.1381 178.477C87.641 178.477 87.2835 178.652 87.0657 179.003C86.8526 179.348 86.7461 179.741 86.7461 180.182ZM85.837 192L95.837 177.455H97.4563L87.4563 192H85.837Z" fill="#B1B1B1"/>
<path d="M63.5057 158V156.722L68.3068 151.466C68.8703 150.85 69.3343 150.315 69.6989 149.861C70.0634 149.402 70.3333 148.971 70.5085 148.568C70.6884 148.161 70.7784 147.735 70.7784 147.29C70.7784 146.778 70.6553 146.336 70.4091 145.962C70.1676 145.588 69.8362 145.299 69.4148 145.095C68.9934 144.892 68.5199 144.79 67.9943 144.79C67.4356 144.79 66.9479 144.906 66.5312 145.138C66.1193 145.365 65.7997 145.685 65.5724 146.097C65.3499 146.509 65.2386 146.991 65.2386 147.545H63.5625C63.5625 146.693 63.759 145.945 64.152 145.301C64.545 144.657 65.08 144.155 65.7571 143.795C66.4389 143.436 67.2036 143.256 68.0511 143.256C68.9034 143.256 69.6586 143.436 70.3168 143.795C70.9749 144.155 71.491 144.641 71.8651 145.251C72.2391 145.862 72.4261 146.542 72.4261 147.29C72.4261 147.825 72.3291 148.348 72.1349 148.859C71.9455 149.366 71.6141 149.932 71.1406 150.557C70.6719 151.177 70.0208 151.935 69.1875 152.83L65.9205 156.324V156.438H72.6818V158H63.5057ZM80.3594 158.199C79.2893 158.199 78.3778 157.908 77.625 157.325C76.8722 156.738 76.2969 155.888 75.8991 154.776C75.5014 153.658 75.3026 152.309 75.3026 150.727C75.3026 149.155 75.5014 147.813 75.8991 146.7C76.3016 145.583 76.8793 144.731 77.6321 144.143C78.3897 143.552 79.2988 143.256 80.3594 143.256C81.42 143.256 82.3267 143.552 83.0795 144.143C83.8371 144.731 84.4148 145.583 84.8125 146.7C85.215 147.813 85.4162 149.155 85.4162 150.727C85.4162 152.309 85.2173 153.658 84.8196 154.776C84.4219 155.888 83.8466 156.738 83.0938 157.325C82.3409 157.908 81.4295 158.199 80.3594 158.199ZM80.3594 156.636C81.42 156.636 82.2438 156.125 82.831 155.102C83.4181 154.08 83.7116 152.621 83.7116 150.727C83.7116 149.468 83.5767 148.395 83.3068 147.51C83.0417 146.625 82.6581 145.95 82.1562 145.486C81.6591 145.022 81.0601 144.79 80.3594 144.79C79.3082 144.79 78.4867 145.308 77.8949 146.345C77.303 147.377 77.0071 148.838 77.0071 150.727C77.0071 151.987 77.1397 153.057 77.4048 153.938C77.67 154.818 78.0511 155.488 78.5483 155.947C79.0502 156.407 79.6539 156.636 80.3594 156.636ZM95.5298 155.273V154.506C95.5298 153.975 95.6387 153.49 95.8565 153.05C96.0791 152.605 96.401 152.25 96.8224 151.984C97.2486 151.714 97.7647 151.58 98.3707 151.58C98.9863 151.58 99.5024 151.714 99.919 151.984C100.336 152.25 100.651 152.605 100.864 153.05C101.077 153.49 101.183 153.975 101.183 154.506V155.273C101.183 155.803 101.074 156.291 100.857 156.736C100.643 157.176 100.326 157.531 99.9048 157.801C99.4882 158.066 98.9768 158.199 98.3707 158.199C97.7552 158.199 97.2367 158.066 96.8153 157.801C96.3939 157.531 96.0743 157.176 95.8565 156.736C95.6387 156.291 95.5298 155.803 95.5298 155.273ZM96.9787 154.506V155.273C96.9787 155.713 97.0829 156.108 97.2912 156.459C97.4995 156.804 97.8594 156.977 98.3707 156.977C98.8679 156.977 99.2183 156.804 99.4219 156.459C99.6302 156.108 99.7344 155.713 99.7344 155.273V154.506C99.7344 154.065 99.6349 153.672 99.4361 153.327C99.2372 152.976 98.8821 152.801 98.3707 152.801C97.8736 152.801 97.5161 152.976 97.2983 153.327C97.0852 153.672 96.9787 154.065 96.9787 154.506ZM88.2855 146.949V146.182C88.2855 145.652 88.3944 145.166 88.6122 144.726C88.8348 144.281 89.1567 143.926 89.5781 143.661C90.0043 143.391 90.5204 143.256 91.1264 143.256C91.742 143.256 92.258 143.391 92.6747 143.661C93.0914 143.926 93.4063 144.281 93.6193 144.726C93.8324 145.166 93.9389 145.652 93.9389 146.182V146.949C93.9389 147.479 93.83 147.967 93.6122 148.412C93.3991 148.852 93.0819 149.207 92.6605 149.477C92.2438 149.742 91.7325 149.875 91.1264 149.875C90.5109 149.875 89.9924 149.742 89.571 149.477C89.1496 149.207 88.83 148.852 88.6122 148.412C88.3944 147.967 88.2855 147.479 88.2855 146.949ZM89.7344 146.182V146.949C89.7344 147.389 89.8385 147.785 90.0469 148.135C90.2552 148.481 90.6151 148.653 91.1264 148.653C91.6236 148.653 91.974 148.481 92.1776 148.135C92.3859 147.785 92.4901 147.389 92.4901 146.949V146.182C92.4901 145.741 92.3906 145.348 92.1918 145.003C91.9929 144.652 91.6378 144.477 91.1264 144.477C90.6293 144.477 90.2718 144.652 90.054 145.003C89.8409 145.348 89.7344 145.741 89.7344 146.182ZM88.8253 158L98.8253 143.455H100.445L90.4446 158H88.8253Z" fill="#B1B1B1"/>
<path d="M63.5057 122V120.722L68.3068 115.466C68.8703 114.85 69.3343 114.315 69.6989 113.861C70.0634 113.402 70.3333 112.971 70.5085 112.568C70.6884 112.161 70.7784 111.735 70.7784 111.29C70.7784 110.778 70.6553 110.336 70.4091 109.962C70.1676 109.588 69.8362 109.299 69.4148 109.095C68.9934 108.892 68.5199 108.79 67.9943 108.79C67.4356 108.79 66.9479 108.906 66.5312 109.138C66.1193 109.365 65.7997 109.685 65.5724 110.097C65.3499 110.509 65.2386 110.991 65.2386 111.545H63.5625C63.5625 110.693 63.759 109.945 64.152 109.301C64.545 108.657 65.08 108.155 65.7571 107.795C66.4389 107.436 67.2036 107.256 68.0511 107.256C68.9034 107.256 69.6586 107.436 70.3168 107.795C70.9749 108.155 71.491 108.641 71.8651 109.251C72.2391 109.862 72.4261 110.542 72.4261 111.29C72.4261 111.825 72.3291 112.348 72.1349 112.859C71.9455 113.366 71.6141 113.932 71.1406 114.557C70.6719 115.177 70.0208 115.935 69.1875 116.83L65.9205 120.324V120.438H72.6818V122H63.5057ZM75.6151 122V120.722L80.4162 115.466C80.9796 114.85 81.4437 114.315 81.8082 113.861C82.1728 113.402 82.4427 112.971 82.6179 112.568C82.7978 112.161 82.8878 111.735 82.8878 111.29C82.8878 110.778 82.7647 110.336 82.5185 109.962C82.277 109.588 81.9455 109.299 81.5241 109.095C81.1027 108.892 80.6293 108.79 80.1037 108.79C79.545 108.79 79.0573 108.906 78.6406 109.138C78.2287 109.365 77.9091 109.685 77.6818 110.097C77.4593 110.509 77.348 110.991 77.348 111.545H75.6719C75.6719 110.693 75.8684 109.945 76.2614 109.301C76.6544 108.657 77.1894 108.155 77.8665 107.795C78.5483 107.436 79.313 107.256 80.1605 107.256C81.0128 107.256 81.768 107.436 82.4261 107.795C83.0843 108.155 83.6004 108.641 83.9744 109.251C84.3485 109.862 84.5355 110.542 84.5355 111.29C84.5355 111.825 84.4384 112.348 84.2443 112.859C84.0549 113.366 83.7235 113.932 83.25 114.557C82.7812 115.177 82.1302 115.935 81.2969 116.83L78.0298 120.324V120.438H84.7912V122H75.6151ZM95.1392 119.273V118.506C95.1392 117.975 95.2481 117.49 95.4659 117.05C95.6884 116.605 96.0104 116.25 96.4318 115.984C96.858 115.714 97.3741 115.58 97.9801 115.58C98.5956 115.58 99.1117 115.714 99.5284 115.984C99.9451 116.25 100.26 116.605 100.473 117.05C100.686 117.49 100.793 117.975 100.793 118.506V119.273C100.793 119.803 100.684 120.291 100.466 120.736C100.253 121.176 99.9356 121.531 99.5142 121.801C99.0975 122.066 98.5862 122.199 97.9801 122.199C97.3646 122.199 96.8461 122.066 96.4247 121.801C96.0033 121.531 95.6837 121.176 95.4659 120.736C95.2481 120.291 95.1392 119.803 95.1392 119.273ZM96.5881 118.506V119.273C96.5881 119.713 96.6922 120.108 96.9006 120.459C97.1089 120.804 97.4688 120.977 97.9801 120.977C98.4773 120.977 98.8277 120.804 99.0312 120.459C99.2396 120.108 99.3438 119.713 99.3438 119.273V118.506C99.3438 118.065 99.2443 117.672 99.0455 117.327C98.8466 116.976 98.4915 116.801 97.9801 116.801C97.483 116.801 97.1255 116.976 96.9077 117.327C96.6946 117.672 96.5881 118.065 96.5881 118.506ZM87.8949 110.949V110.182C87.8949 109.652 88.0038 109.166 88.2216 108.726C88.4441 108.281 88.7661 107.926 89.1875 107.661C89.6136 107.391 90.1297 107.256 90.7358 107.256C91.3513 107.256 91.8674 107.391 92.2841 107.661C92.7008 107.926 93.0156 108.281 93.2287 108.726C93.4418 109.166 93.5483 109.652 93.5483 110.182V110.949C93.5483 111.479 93.4394 111.967 93.2216 112.412C93.0085 112.852 92.6913 113.207 92.2699 113.477C91.8532 113.742 91.3419 113.875 90.7358 113.875C90.1203 113.875 89.6018 113.742 89.1804 113.477C88.759 113.207 88.4394 112.852 88.2216 112.412C88.0038 111.967 87.8949 111.479 87.8949 110.949ZM89.3438 110.182V110.949C89.3438 111.389 89.4479 111.785 89.6562 112.135C89.8646 112.481 90.2244 112.653 90.7358 112.653C91.233 112.653 91.5833 112.481 91.7869 112.135C91.9953 111.785 92.0994 111.389 92.0994 110.949V110.182C92.0994 109.741 92 109.348 91.8011 109.003C91.6023 108.652 91.2472 108.477 90.7358 108.477C90.2386 108.477 89.8812 108.652 89.6634 109.003C89.4503 109.348 89.3438 109.741 89.3438 110.182ZM88.4347 122L98.4347 107.455H100.054L90.054 122H88.4347Z" fill="#B1B1B1"/>
<path d="M63.5057 87V85.7216L68.3068 80.4659C68.8703 79.8504 69.3343 79.3153 69.6989 78.8608C70.0634 78.4015 70.3333 77.9706 70.5085 77.5682C70.6884 77.161 70.7784 76.7348 70.7784 76.2898C70.7784 75.7784 70.6553 75.3357 70.4091 74.9616C70.1676 74.5876 69.8362 74.2988 69.4148 74.0952C68.9934 73.8916 68.5199 73.7898 67.9943 73.7898C67.4356 73.7898 66.9479 73.9058 66.5312 74.1378C66.1193 74.3651 65.7997 74.6847 65.5724 75.0966C65.3499 75.5085 65.2386 75.9915 65.2386 76.5455H63.5625C63.5625 75.6932 63.759 74.9451 64.152 74.3011C64.545 73.6572 65.08 73.1553 65.7571 72.7955C66.4389 72.4356 67.2036 72.2557 68.0511 72.2557C68.9034 72.2557 69.6586 72.4356 70.3168 72.7955C70.9749 73.1553 71.491 73.6406 71.8651 74.2514C72.2391 74.8622 72.4261 75.5417 72.4261 76.2898C72.4261 76.8248 72.3291 77.348 72.1349 77.8594C71.9455 78.366 71.6141 78.9318 71.1406 79.5568C70.6719 80.1771 70.0208 80.9347 69.1875 81.8295L65.9205 85.3239V85.4375H72.6818V87H63.5057ZM74.9616 84.017V82.5682L81.3537 72.4545H82.4048V74.6989H81.6946L76.8651 82.3409V82.4545H85.473V84.017H74.9616ZM81.8082 87V83.5767V82.902V72.4545H83.4844V87H81.8082ZM95.5494 84.2727V83.5057C95.5494 82.9754 95.6583 82.4901 95.8761 82.0497C96.0986 81.6046 96.4206 81.2495 96.842 80.9844C97.2681 80.7145 97.7842 80.5795 98.3903 80.5795C99.0058 80.5795 99.5219 80.7145 99.9386 80.9844C100.355 81.2495 100.67 81.6046 100.883 82.0497C101.096 82.4901 101.203 82.9754 101.203 83.5057V84.2727C101.203 84.803 101.094 85.2907 100.876 85.7358C100.663 86.1761 100.346 86.5312 99.9244 86.8011C99.5077 87.0663 98.9963 87.1989 98.3903 87.1989C97.7747 87.1989 97.2563 87.0663 96.8349 86.8011C96.4135 86.5312 96.0939 86.1761 95.8761 85.7358C95.6583 85.2907 95.5494 84.803 95.5494 84.2727ZM96.9982 83.5057V84.2727C96.9982 84.7131 97.1024 85.1084 97.3107 85.4588C97.5191 85.8045 97.8789 85.9773 98.3903 85.9773C98.8874 85.9773 99.2378 85.8045 99.4414 85.4588C99.6497 85.1084 99.7539 84.7131 99.7539 84.2727V83.5057C99.7539 83.0653 99.6545 82.6723 99.4556 82.3267C99.2567 81.9763 98.9016 81.8011 98.3903 81.8011C97.8931 81.8011 97.5356 81.9763 97.3178 82.3267C97.1048 82.6723 96.9982 83.0653 96.9982 83.5057ZM88.305 75.9489V75.1818C88.305 74.6515 88.4139 74.1662 88.6317 73.7259C88.8543 73.2808 89.1763 72.9257 89.5977 72.6605C90.0238 72.3906 90.5399 72.2557 91.146 72.2557C91.7615 72.2557 92.2776 72.3906 92.6942 72.6605C93.1109 72.9257 93.4258 73.2808 93.6388 73.7259C93.8519 74.1662 93.9585 74.6515 93.9585 75.1818V75.9489C93.9585 76.4792 93.8496 76.9669 93.6317 77.4119C93.4187 77.8523 93.1014 78.2074 92.68 78.4773C92.2634 78.7424 91.752 78.875 91.146 78.875C90.5304 78.875 90.012 78.7424 89.5906 78.4773C89.1692 78.2074 88.8496 77.8523 88.6317 77.4119C88.4139 76.9669 88.305 76.4792 88.305 75.9489ZM89.7539 75.1818V75.9489C89.7539 76.3892 89.8581 76.7846 90.0664 77.1349C90.2747 77.4806 90.6346 77.6534 91.146 77.6534C91.6431 77.6534 91.9935 77.4806 92.1971 77.1349C92.4054 76.7846 92.5096 76.3892 92.5096 75.9489V75.1818C92.5096 74.7415 92.4102 74.3485 92.2113 74.0028C92.0124 73.6525 91.6573 73.4773 91.146 73.4773C90.6488 73.4773 90.2913 73.6525 90.0735 74.0028C89.8604 74.3485 89.7539 74.7415 89.7539 75.1818ZM88.8448 87L98.8448 72.4545H100.464L90.4641 87H88.8448Z" fill="#B1B1B1"/>
</svg>
