<svg width="1339" height="1708" viewBox="0 0 1339 1708" fill="none" xmlns="http://www.w3.org/2000/svg">
<path d="M832.181 21.5298C766.881 1.50979 733.601 32.7098 721.101 58.5898C717.411 66.2298 709.591 71.0098 701.101 71.0098C696.211 71.0098 691.481 69.2698 687.751 66.0998L687.291 65.7098C683.091 62.1398 679.131 58.2698 675.631 53.9998C659.201 33.9498 628.211 17.1998 613.771 10.9698C561.331 -12.2002 517.211 20.6198 501.701 39.9298C467.631 74.1998 494.781 120.24 507.241 136.63C519.111 152.63 535.131 156.58 549.631 162.11C563.481 167.39 578.421 169.06 593.181 167.62C597.811 167.17 602.871 166.92 607.921 166.9C620.691 166.83 632.001 175.01 636.141 187.09C636.371 187.75 636.601 188.4 636.831 189.03C642.111 203.31 638.181 219.4 627.101 229.83C612.571 243.51 590.871 257.8 572.661 268.43C562.711 274.24 552.141 278.9 541.151 282.38L488.401 299.08C435.011 312.37 444.041 420.33 452.801 443.86C455.191 450.53 457.951 456.55 461.001 462C490.091 514.02 554.531 469.24 601.261 432.26C632.951 407.18 659.691 367.82 674.851 335.36C677.441 329.82 683.941 327.33 689.541 329.77C694.011 331.71 695.801 337.09 693.421 341.35C653.991 411.72 717.84 501.26 732.5 525.5C797.02 617.94 847.59 571.46 864.81 536.66C887.78 497.09 824.231 403.46 807.981 362.5C804.401 353.47 808.751 343.25 817.711 339.51L819.771 338.65C826.901 335.68 835.161 337.75 839.981 343.79C908.051 429.13 1002.42 375.77 1029 347C1051.09 289.6 969.871 264.19 933.391 245.41C929.201 243.25 927.111 238.49 928.261 233.93C940.011 187.41 906.431 136.35 884.021 112.09C881.531 109.4 880.541 105.66 881.291 102.07C891.781 51.6698 853.451 27.4298 832.191 21.5198L832.181 21.5298Z" fill="white" stroke="black" stroke-width="5"/>
<path d="M678.622 248.121C678.622 248.121 733.202 309.671 819.142 279.471" stroke="black" stroke-width="5"/>
<path d="M518.969 377.038L407.5 685L78 903.001" stroke="white" stroke-width="4" stroke-dasharray="20 20"/>
<path d="M829.501 466.5L872 687L1235.5 770.5" stroke="white" stroke-width="4" stroke-dasharray="20 20"/>
<path d="M991.879 338.996L946 689.5L768 1177.5" stroke="white" stroke-width="4" stroke-dasharray="20 20"/>
<path d="M520.926 65L208.5 648.5L625.5 1022L567 1264" stroke="white" stroke-width="4" stroke-dasharray="20 20"/>
<path d="M700.609 210.496C699.521 210.496 698.017 210.432 696.097 210.304C694.241 210.24 692.161 209.76 689.857 208.864C687.553 208.032 685.153 206.528 682.657 204.352C681.441 203.264 680.417 201.824 679.585 200.032C678.753 198.24 678.081 196.32 677.569 194.272C677.121 192.16 676.833 190.176 676.705 188.32C676.577 186.4 676.545 184.832 676.609 183.616C676.737 181.952 676.961 180.16 677.281 178.24C677.601 176.256 677.985 174.368 678.433 172.576C678.881 170.784 679.297 169.312 679.681 168.16C681.281 163.872 683.041 160 684.961 156.544C686.945 153.024 688.833 150.016 690.625 147.52C692.417 145.024 693.793 143.136 694.753 141.856C695.201 141.344 695.809 140.64 696.577 139.744C697.409 138.848 698.209 137.92 698.977 136.96C699.745 136 700.225 135.2 700.417 134.56C702.657 135.008 704.737 135.808 706.657 136.96C708.641 138.112 710.209 139.36 711.361 140.704C712.577 141.984 713.185 143.136 713.185 144.16C713.185 145.696 712.897 146.88 712.321 147.712C711.745 148.544 711.201 149.312 710.689 150.016C710.369 150.464 709.793 151.072 708.961 151.84C708.193 152.544 707.393 153.28 706.561 154.048C705.793 154.752 705.217 155.392 704.833 155.968C704.321 156.8 703.937 157.472 703.681 157.984C703.489 158.432 703.457 159.008 703.585 159.712C703.777 160.288 704.449 160.672 705.601 160.864C706.817 160.992 707.649 161.088 708.097 161.152C712.065 161.6 715.009 162.4 716.929 163.552C718.913 164.704 720.385 165.728 721.345 166.624C723.393 168.416 724.897 170.016 725.857 171.424C726.881 172.768 727.553 174.176 727.873 175.648C728.513 178.464 728.641 181.056 728.257 183.424C727.873 185.728 727.137 188.48 726.049 191.68C725.025 194.432 723.457 197.024 721.345 199.456C719.297 201.888 716.897 204.224 714.145 206.464C712.033 208.128 709.793 209.184 707.425 209.632C705.121 210.08 702.849 210.368 700.609 210.496ZM698.113 192.832C699.969 193.344 701.793 193.056 703.585 191.968C705.441 190.88 707.265 189.344 709.057 187.36C710.465 185.696 711.457 183.968 712.033 182.176C712.609 180.384 712.801 179.072 712.609 178.24C712.289 176.832 711.553 175.712 710.401 174.88C709.313 174.048 708.097 173.504 706.753 173.248C705.473 172.992 704.353 173.088 703.393 173.536C701.985 174.176 700.769 174.88 699.745 175.648C698.721 176.416 697.729 177.632 696.769 179.296C695.809 181.024 695.265 182.624 695.137 184.096C695.009 185.568 694.977 186.816 695.041 187.84C695.169 189.696 695.553 190.944 696.193 191.584C696.833 192.224 697.473 192.64 698.113 192.832ZM764.226 206.944C761.026 207.008 757.794 206.592 754.53 205.696C751.266 204.8 748.706 203.648 746.85 202.24C745.058 200.896 743.138 198.944 741.09 196.384C739.042 193.824 737.506 190.4 736.482 186.112C735.394 181.44 734.946 177.088 735.138 173.056C735.394 168.96 736.002 165.312 736.962 162.112C737.922 158.848 738.978 156.128 740.13 153.952C741.794 150.688 744.066 147.488 746.946 144.352C749.89 141.216 753.762 138.88 758.562 137.344C761.634 136.32 764.674 135.936 767.682 136.192C770.754 136.448 773.442 137.024 775.746 137.92C778.114 138.816 779.746 139.712 780.642 140.608C783.65 143.296 785.89 146.592 787.362 150.496C788.898 154.4 789.794 158.624 790.05 163.168C790.306 167.712 789.986 172.352 789.09 177.088C787.682 184.512 785.314 190.624 781.986 195.424C778.658 200.16 774.882 203.392 770.658 205.12C768.866 205.888 767.618 206.368 766.914 206.56C766.21 206.688 765.314 206.816 764.226 206.944ZM760.002 187.84C762.818 188.096 765.122 187.552 766.914 186.208C768.706 184.8 770.146 182.816 771.234 180.256C772.322 177.632 773.218 174.72 773.922 171.52C774.626 168.256 774.754 165.184 774.306 162.304C773.858 159.424 772.77 157.088 771.042 155.296C769.378 153.44 767.01 152.512 763.938 152.512C760.93 152.576 758.53 153.856 756.738 156.352C754.946 158.848 753.666 162.688 752.898 167.872C752.642 169.792 752.482 171.872 752.418 174.112C752.418 176.288 752.642 178.4 753.09 180.448C753.538 182.496 754.306 184.192 755.394 185.536C756.546 186.88 758.082 187.648 760.002 187.84ZM873.752 140.32C873.688 141.152 872.824 142.752 871.16 145.12C869.56 147.424 867.416 150.24 864.728 153.568C862.104 156.832 859.224 160.352 856.088 164.128C852.952 167.904 849.784 171.648 846.584 175.36C843.448 179.072 840.504 182.496 837.752 185.632C835.064 188.768 832.824 191.392 831.032 193.504C829.304 195.552 828.28 196.8 827.96 197.248C826.744 199.168 826.04 200.288 825.848 200.608C825.656 200.928 825.56 201.088 825.56 201.088C825.624 202.88 825.176 204.768 824.216 206.752C823.32 208.736 822.2 210.176 820.856 211.072C820.856 211.072 820.664 211.04 820.28 210.976C819.96 210.976 818.776 210.944 816.728 210.88C815.448 210.816 814.136 210.432 812.792 209.728C811.448 209.088 810.392 208.096 809.624 206.752C808.856 205.408 808.728 203.712 809.24 201.664C809.432 200.768 810.392 199.008 812.12 196.384C813.848 193.76 816.056 190.592 818.744 186.88C821.432 183.168 824.408 179.2 827.672 174.976C830.936 170.688 834.232 166.464 837.56 162.304C840.952 158.08 844.12 154.208 847.064 150.688C850.072 147.104 852.664 144.128 854.84 141.76C857.016 139.392 858.52 137.952 859.352 137.44C860.824 136.48 862.424 135.84 864.152 135.52C865.88 135.2 867.48 135.168 868.952 135.424C870.488 135.616 871.704 136.128 872.6 136.96C873.56 137.792 873.944 138.912 873.752 140.32ZM819.992 174.4C818.776 174.784 817.208 174.88 815.288 174.688C813.432 174.432 811.448 173.92 809.336 173.152C807.224 172.32 805.24 171.232 803.384 169.888C801.528 168.48 799.992 166.816 798.776 164.896C797.56 162.912 796.92 160.64 796.856 158.08C796.792 154.816 797.144 151.68 797.912 148.672C798.68 145.664 800.184 143.104 802.424 140.992C804.664 138.88 807.96 137.6 812.312 137.152C816.728 136.64 820.6 137.024 823.928 138.304C827.256 139.52 829.848 141.504 831.704 144.256C833.56 147.008 834.488 150.432 834.488 154.528C834.488 158.624 833.688 162.048 832.088 164.8C830.552 167.488 828.664 169.632 826.424 171.232C824.184 172.768 822.04 173.824 819.992 174.4ZM810.872 156.064C811.384 156.96 812.216 157.696 813.368 158.272C814.584 158.784 815.768 159.008 816.92 158.944C818.072 158.816 818.776 158.272 819.032 157.312C819.416 155.84 819.224 154.56 818.456 153.472C817.688 152.32 816.376 151.68 814.52 151.552C813.176 151.424 812.024 151.808 811.064 152.704C810.168 153.536 810.104 154.656 810.872 156.064ZM867.128 169.696C869.944 169.76 872.408 170.4 874.52 171.616C876.696 172.832 878.488 174.4 879.896 176.32C881.368 178.24 882.488 180.32 883.256 182.56C884.024 184.8 884.44 186.976 884.504 189.088C884.568 191.2 884.088 193.376 883.064 195.616C882.104 197.792 880.728 199.84 878.936 201.76C877.144 203.68 875 205.248 872.504 206.464C870.008 207.616 867.256 208.192 864.248 208.192C861.24 208.192 858.584 207.424 856.28 205.888C853.976 204.288 852.088 202.272 850.616 199.84C849.144 197.344 848.088 194.752 847.448 192.064C846.872 189.312 846.776 186.784 847.16 184.48C847.544 182.176 848.44 180.096 849.848 178.24C851.32 176.384 853.08 174.816 855.128 173.536C857.176 172.256 859.256 171.296 861.368 170.656C863.48 169.952 865.4 169.632 867.128 169.696ZM868.088 192.928C869.368 192.736 870.232 192.192 870.68 191.296C871.128 190.4 871.288 189.472 871.16 188.512C871.032 187.488 870.712 186.72 870.2 186.208C869.432 185.44 868.44 184.896 867.224 184.576C866.072 184.192 865.08 184.064 864.248 184.192C863.288 184.32 862.488 184.768 861.848 185.536C861.272 186.24 860.92 187.04 860.792 187.936C860.728 188.768 860.952 189.472 861.464 190.048C862.232 190.944 863.032 191.712 863.864 192.352C864.76 192.992 866.168 193.184 868.088 192.928Z" fill="black"/>
<path d="M758.673 244.246C758.673 244.246 780.733 260.506 809.773 247.726" stroke="black" stroke-width="5"/>
<path d="M465.665 1646.83C453.865 1624.17 444.141 1657.43 450.372 1647.33C458.616 1633.93 493.357 1591 508.242 1614.41C523.126 1637.83 539.018 1697.18 525.77 1705.58C512.522 1713.98 478.442 1671.4 465.634 1646.83H465.665Z" fill="#FDC50C"/>
<path d="M211.013 1563.55C210.888 1538.01 187.022 1563.13 197.184 1557C210.649 1548.85 261.18 1526.58 263.702 1554.21C266.224 1581.84 253.198 1641.88 237.574 1643.29C221.949 1644.7 211.128 1591.25 210.985 1563.54L211.013 1563.55Z" fill="#FDC50C"/>
<path d="M291.208 1504.53C297.502 1513.97 303.827 1523.38 310.121 1532.82C316.225 1535.37 320.096 1531.15 323.683 1527.69C330.984 1520.7 337.183 1521.18 343.036 1529.23C353.704 1543.9 367.865 1554.19 384.165 1561.58C396.28 1567.09 405.312 1573.38 396.501 1588.39C395.148 1590.69 395.997 1593.46 397.728 1595.63C398.767 1596.13 399.836 1596.64 400.875 1597.14C414.91 1594.09 421.109 1582.73 419.441 1563.12C412.267 1554.06 400.969 1551.79 391.466 1546.63C378.942 1539.8 366.889 1532.6 357.858 1521.3C349.015 1512.27 345.176 1501.32 345.585 1488.79C340.047 1476.68 334.508 1464.6 328.97 1452.48C334.603 1446.5 324.218 1437.22 332.148 1432.78C338.285 1429.35 346.404 1431.24 353.452 1429.45C378.407 1423.12 401.253 1413.14 418.025 1392.44C418.434 1390.93 418.466 1389.39 418.214 1387.84C417.301 1384.82 415.382 1382.43 413.399 1380.07C403.801 1371.29 392.473 1364.37 384.417 1353.86C351.784 1327.27 323.683 1296.55 300.365 1261.44C298.634 1258.82 296.652 1256.37 293.411 1255.43C284.002 1257.79 282.995 1265.59 284.788 1272.51C288.439 1286.67 282.68 1292.12 269.432 1292.62C265.404 1296.65 266.757 1301.56 268.457 1305.59C272.17 1314.37 269.306 1319.87 260.778 1321.98C251.778 1324.18 247.751 1318.08 245.642 1310.5C244.698 1307.07 245.264 1303.29 243.534 1299.98C239.82 1294.04 233.432 1291.83 227.673 1288.85C220.782 1285.26 216.03 1287.02 214.52 1295.17C215.338 1311.16 219.177 1326.23 228.209 1339.7C230.663 1342.22 233.527 1344.01 236.925 1344.95C240.261 1345.68 243.596 1345.68 246.932 1344.89C255.806 1339.7 265.97 1337.37 274.907 1332.3C288.911 1321.13 304.55 1324.25 320.159 1327.17C326.861 1326.95 331.708 1329.28 334.666 1335.86C338.568 1344.64 344.169 1352.66 346.057 1362.29C353.704 1398.61 324.879 1427.71 287.086 1415.85C277.047 1415.76 268.016 1411.51 258.544 1409.02C253.069 1407.57 247.404 1406.41 241.803 1408.83C237.523 1412.07 238.845 1416.42 240.167 1420.23C250.52 1450.06 268.173 1475.83 285.858 1501.57C287.054 1503.3 289.163 1504.06 291.24 1504.5L291.208 1504.53Z" fill="black"/>
<path d="M472.617 1171.43C477.999 1162.81 484.449 1168.1 490.082 1170.55C507.862 1178.29 515.792 1193.84 520.323 1211.75C548.897 1194.5 557.487 1160.42 543.075 1123.95C534.83 1098.24 513.778 1087.38 490.712 1079.17C474.128 1073.29 455.467 1074.73 439.891 1065.13C434.982 1058.59 424.502 1062.52 420.254 1054.72C414.873 1051.7 409.492 1048.71 404.111 1045.69C386.489 1056.07 389.038 1073.6 390.643 1089.21C392.185 1104.31 391.115 1119.45 393.255 1134.43C397.408 1173.45 398.573 1174.71 438.6 1174.39C449.929 1174.3 461.666 1177.19 472.554 1171.43H472.617Z" fill="black"/>
<path d="M322.894 1322.58C311.22 1318.36 299.104 1320 287.115 1319.75C279.72 1319.59 275.944 1324.18 272.104 1329.15C267.825 1341.74 273.615 1346.75 285.573 1347.09C289.066 1346.46 290.576 1342.94 293.692 1341.4C293.125 1344.01 290.608 1344.7 289.286 1346.43C280.821 1353.04 272.388 1346.59 264.112 1345.99C250.455 1344.95 236.356 1346.05 223.297 1340.29C200.011 1339.7 177.102 1334.32 153.752 1335.1C134.431 1335.73 122.945 1343.85 117.595 1360.31C113.41 1372.39 115.55 1383.63 120.616 1395.14C133.896 1425.35 149.536 1454.05 170.462 1479.67C178.266 1482 184.78 1478.75 191.042 1474.73C197.147 1470.82 199.57 1466.04 195.762 1458.9C179.777 1429.03 168.48 1397.16 155.955 1365.78C168.008 1395.49 178.549 1425.89 193.497 1454.34C200.734 1468.09 204.731 1468.62 217.098 1458.62C217.79 1440.02 208.287 1425.98 196.581 1412.99C188.808 1410.37 191.672 1402.16 188.336 1397.22C184.623 1386.46 177.951 1377.02 173.798 1365.25C205.203 1372.61 236.42 1376.89 266.786 1385.11C280.475 1388.79 294.164 1390.86 308.324 1389.89C323.24 1387.37 335.954 1381.2 338.974 1365.12C342.121 1348.29 338.345 1332.93 322.894 1322.55V1322.58Z" fill="#1EF99A"/>
<path d="M472.621 1171.44C457.988 1165.14 442.632 1168.95 427.622 1168.57C403.045 1167.91 403.108 1168.39 400.748 1144.25C400.402 1140.69 398.891 1137.23 397.915 1133.74C391.999 1120.14 381.143 1115.33 367.014 1116.4C364.496 1116.15 361.979 1116.34 359.461 1116.71C343.664 1116.18 329.661 1120.43 314.745 1126.72C298.916 1133.42 279.815 1130.56 262.35 1125.46C255.396 1123.45 247.875 1114.39 241.298 1123.23C234.753 1132.07 244.665 1138.18 248.599 1145.07C256.466 1155.2 267.322 1159.83 279.595 1161.84C290.388 1158.66 298.161 1166.53 307.318 1169.46C332.556 1178.39 353.923 1194.5 377.272 1207C394.706 1216.31 411.384 1227.04 429.415 1235.26C435.268 1237.93 441.184 1242.93 448.17 1237.52C459.373 1235.03 470.261 1232.01 478.82 1223.55C496.38 1206.18 494.366 1188.62 472.621 1171.47V1171.44Z" fill="black"/>
<path d="M401.63 1039.52C406.319 1032.32 411.165 1025.2 415.665 1017.9C417.584 1014.79 421.99 1011.52 416.546 1007.65C390.144 992.005 367.864 970.229 340.896 955.597C308.798 938.195 276.04 934.922 243.533 955.345C238.687 958.397 233.778 961.45 231.481 967.114C222.041 978.348 214.016 990.306 209.485 1004.59C207.188 1011.8 208.1 1017.43 212.694 1022.94C212.128 1026.02 211.688 1029.14 212.852 1032.16C215.243 1038.36 216.471 1046.51 224.747 1046.7C232.583 1046.85 233.747 1038.99 235.415 1033.23C239.852 1017.81 249.26 1005.57 259.11 993.421C264.365 986.939 268.362 988.575 272.83 993.705C280.036 998.519 286.236 1004.37 291.649 1011.14C293.253 1012.71 295.11 1013.91 297.155 1014.79C304.078 1015.76 309.019 1021.18 315.533 1023.13C321.26 1024.86 327.207 1025.71 331.613 1020.92C336.113 1016.08 332.526 1011.2 329.757 1006.13C341.148 1014.35 347.788 1026.37 357.543 1035.43C365.63 1042.95 374.913 1046.76 385.738 1047.01C392.189 1047.17 398.357 1046.23 401.63 1039.49V1039.52Z" fill="black"/>
<path d="M276.198 992.321C273.334 987.443 270.439 982.566 267.198 977.027C249.009 996.947 230.411 1016.21 228.083 1045.91C216.88 1041.1 219.334 1028.98 212.663 1022.94C196.583 1022.81 186.23 1030.84 180.597 1045.57C178.426 1048.65 179.338 1050.95 182.422 1052.65C188.495 1051.76 190.195 1044.9 195.545 1043.02C208.761 1041.6 211.814 1046.13 209.768 1064.16C209.328 1069.61 209.202 1075.02 212.002 1079.99C214.772 1084.4 217.887 1088.58 220.593 1093.02C244.887 1132.98 293.285 1144.25 332.967 1119.3C335.578 1117.66 338.914 1117.28 341.085 1114.83C348.701 1105.76 354.396 1095.79 355.561 1083.7C358.078 1075.74 360.501 1067.72 361.949 1059.47C365.253 1040.72 361.162 1033.2 342.155 1029.01C325.666 1025.36 310.089 1020.23 295.897 1011.08C294.733 1011.14 294.009 1010.57 293.725 1009.44C288.061 998.52 278.495 1008.05 270.628 1004.88C271.635 1000.41 284.505 1000.38 276.198 992.321Z" fill="url(#paint0_linear_232_6674)"/>
<path d="M305.901 1165.21C298.16 1161.93 293.471 1146.23 281.702 1159.23C275.817 1163.03 274.149 1168.92 273.74 1175.4C271.569 1195.7 275.691 1215.37 279.751 1235.03C283.433 1242.18 283.779 1251.46 292.621 1255.33C313.799 1296.84 346.904 1327.83 382.149 1356.94C386.617 1359.87 391.117 1362.64 396.813 1361.88C404.585 1359.87 402.383 1349.42 409.526 1346.9C414.876 1348.04 420.194 1348.85 425.543 1349.96C427.683 1350.9 429.917 1351.47 432.246 1351.69C436.494 1351.75 440.585 1351.37 443.197 1347.34C442.19 1345.49 441.183 1343.6 440.207 1341.74C440.742 1340.3 440.868 1338.85 440.459 1337.34C425.355 1321.07 404.837 1311.85 388.222 1297.56C383.69 1294.01 378.907 1290.76 374.942 1286.48C337.999 1258.07 312.006 1223.58 312.446 1174.33C311.943 1170.08 309.205 1167.44 305.869 1165.27L305.901 1165.21Z" fill="#FDC50C"/>
<path d="M105.972 926.627C112.463 911.532 117.083 895.567 126.396 881.763C128.611 878.473 132.63 874.472 128.345 870.549C124.87 867.351 120.141 869.205 116.677 871.534C113.718 873.49 111.036 876.309 109.115 879.355C102.904 889.102 99.2365 887.31 94.5938 877.638C88.8947 865.794 81.6718 854.709 75.1359 843.313C70.2241 846.118 73.2227 854.305 66.901 856.154C65.3381 859.554 63.0522 861.688 59.8405 858.435C56.5249 855.035 53.9678 850.878 50.7295 847.393C47.4133 843.796 44.3645 836.124 38.8164 840.719C33.4592 845.116 39.7495 850.259 42.3639 854.457C46.9274 861.827 51.8834 868.936 54.1196 878.302C46.2704 872.539 38.4726 866.653 30.5359 861.039C27.4721 858.857 23.5558 857.023 20.7163 860.83C17.6809 864.865 21.3262 867.798 23.8581 870.315C32.2838 878.66 40.864 886.835 48.0334 897.258C41.942 894.666 36.02 891.613 29.7338 889.643C24.6645 888.041 17.733 882.922 14.2967 889.669C10.634 896.836 18.6286 899.289 23.3135 902.102C35.0672 909.174 45.4184 917.842 55.7092 927.088C74.4493 943.931 77.4891 966.445 81.7035 988.992C93.526 994.833 103.029 989.431 112.166 982.332C114.5 968.501 106.473 956.66 104.971 943.493C104.281 937.623 101.844 932.114 105.962 926.691L105.972 926.627Z" fill="url(#paint1_linear_232_6674)"/>
<path d="M94.9046 1028.07C90.6564 1052.42 97.422 1074.61 108.216 1095.97C123.604 1121.15 139.558 1145.95 155.733 1170.59C161.649 1179.62 166.935 1191.35 181.662 1188.15C191.292 1174.27 192.079 1156.27 202.715 1142.83C206.9 1135.56 211.652 1128.58 213.823 1120.3C210.393 1109 206.68 1097.96 192.645 1095.79C192.299 1096.16 191.795 1096.48 191.638 1096.95C183.016 1118.69 181.128 1119.76 159.887 1106.86C149.628 1100.63 135.75 1097.99 128.985 1089.78C116.051 1074.1 103.118 1056.61 106.076 1033.6C106.579 1029.7 108.687 1025.33 104.093 1022.21C99.1841 1021.27 96.2893 1023.41 94.9361 1028.03L94.9046 1028.07Z" fill="#FDC50C"/>
<path d="M483.621 1319.01C501.069 1320.9 518.494 1323.02 535.974 1324.58C560.522 1326.75 580.483 1314.85 600.209 1302.65C602.87 1301 604.66 1298.3 603.649 1294.96C602.055 1289.8 597.333 1289.26 593.212 1289.67C573.529 1291.67 578.71 1283.5 585.482 1272.84C592.622 1261.6 598.778 1249.63 604.56 1237.62C607.343 1231.79 608.245 1224.13 597.987 1226.04C588.889 1227.7 589.392 1222.99 589.482 1217.1C589.541 1214.09 588.848 1210.35 585.299 1210.1C580.832 1209.82 580.487 1214.94 578.047 1217.38C569.246 1223.99 564.733 1232.57 566.037 1243.82C568.291 1251.52 566.789 1257.72 559.16 1261.56C548.651 1261.29 540.091 1265.06 534.044 1273.84C529.641 1281.27 523.563 1284.05 514.59 1283.38C505.142 1282.7 495.435 1282.47 486.077 1285.29C484.515 1286.13 483.282 1287.31 482.304 1288.75C481.758 1298.86 478.366 1309.13 483.655 1319L483.621 1319.01Z" fill="url(#paint2_linear_232_6674)"/>
<path d="M397.759 1595.66C399.522 1592.51 401.158 1589.31 403.015 1586.22C409.56 1575.4 409.403 1567.53 395.745 1561.8C374.945 1553.09 355.875 1541.5 343.131 1521.74C337.655 1513.25 331.204 1512.93 324.061 1520.45C319.812 1524.95 314.809 1528.73 310.12 1532.82C322.897 1561.27 349.77 1572.56 374.945 1585.81C382.246 1589.65 390.144 1592.42 397.759 1595.66Z" fill="black"/>
<path d="M420.289 1054.72C417.991 1055.51 414.939 1055.41 418.369 1059.25C423.152 1064.6 431.208 1062.84 435.771 1068.09C451.19 1073.25 466.547 1079.23 482.722 1070.71C514.725 1065.04 543.581 1071.15 568.064 1095C568.756 1069.2 557.207 1055.32 525.991 1042.92C511.735 1033.76 496.882 1037.07 482.785 1042.23C467.334 1047.92 452.04 1053.74 435.488 1055.25C430.421 1055.07 425.324 1054.88 420.257 1054.69L420.289 1054.72Z" fill="black"/>
<path d="M295.892 1011.11C307.063 1022.66 320.406 1029.99 336.36 1032.76C359.962 1036.85 360.874 1038.11 356.437 1060.83C355.052 1067.94 352.724 1074.86 350.836 1081.88C351.276 1083.33 352.095 1084.49 353.353 1085.31C358.483 1087.1 362.227 1084.49 365.815 1081.34C369.968 1077.69 373.556 1072.75 380.384 1076.47C387.024 1080.09 387.276 1086.06 386.898 1092.42C386.804 1093.96 386.395 1095.44 385.891 1096.92C384.884 1109.6 368.615 1109.63 366.004 1120.93C379.346 1118.45 388.22 1127.19 397.944 1133.74C397.661 1118.76 398.353 1103.91 395.111 1088.93C391.807 1073.7 398.164 1059.51 404.206 1045.72C403.356 1043.68 402.507 1041.6 401.657 1039.55C378.905 1046.07 366.413 1041.79 351.78 1021.87C343.409 1010.51 334.252 1000.28 320.784 993.957C317.889 1001.38 322.986 1005.25 325.85 1009.85C327.612 1012.68 332.584 1014.91 329.311 1018.85C326.825 1021.87 322.42 1020.55 318.895 1019.76C310.871 1017.94 305.27 1009.6 295.955 1011.08L295.892 1011.11Z" fill="black"/>
<path d="M416.89 1388.79C395.082 1411.44 368.743 1424.5 337.149 1426.23C318.74 1427.24 318.74 1427.08 325.506 1443.76C326.67 1446.66 327.803 1449.55 328.967 1452.48C360.876 1449.46 391.495 1443.32 413.397 1416.67C418.841 1410.03 425.26 1403.83 424.537 1394.11C423.372 1390.36 421.893 1387.06 416.89 1388.79Z" fill="#C29500"/>
<path d="M474.034 1578.2C471.768 1579.05 469.534 1579.86 467.268 1580.71C458.551 1591.95 459.275 1605.01 460.125 1618.07C464.436 1630.94 476.929 1639.34 479.415 1653.28C482.278 1657.12 486.023 1659.98 490.177 1662.06C500.561 1667.19 512.236 1660.93 510.757 1650.39C507.547 1627.54 506.824 1604.22 498.359 1582.32C497.792 1580.84 496.565 1579.83 495.401 1578.79C488.352 1576.18 481.177 1577.54 474.065 1578.23L474.034 1578.2Z" fill="#FDC50C"/>
<path d="M249.862 1506.35C247.459 1506.07 245.097 1505.78 242.694 1505.5C229.803 1511.5 224.471 1523.44 219.251 1535.44C217.195 1548.86 224.459 1562.04 220.291 1575.58C221.08 1580.3 223.1 1584.56 225.843 1588.31C232.729 1597.62 245.976 1597.4 249.484 1587.35C257.084 1565.56 267.11 1544.5 269.605 1521.15C269.778 1519.58 269.147 1518.12 268.587 1516.66C263.515 1511.11 256.516 1509.03 249.876 1506.4L249.862 1506.35Z" fill="#FDC50C"/>
<path d="M231.446 967.145C275.659 937.596 312.445 939.169 357.665 971.959C376.263 985.459 392.311 1003.36 416.51 1007.64C410.343 992.665 394.986 987.19 383.878 977.686C359.616 956.917 332.427 939.704 299.386 937.092C273.456 935.047 250.138 942.851 231.414 961.858C229.778 963.526 229.306 965.382 231.414 967.145H231.446Z" fill="white"/>
<path d="M180.186 1187.45C170.872 1184.87 166.372 1177.07 161.525 1169.83C147.994 1149.63 134.589 1129.33 121.215 1109C117.753 1103.75 114.009 1098.9 108.218 1095.98C124.897 1138.21 144.313 1179.08 168.48 1217.6C173.421 1222.98 178.109 1219.3 179.4 1215.34C182.326 1206.37 187.613 1196.9 180.155 1187.45H180.186Z" fill="#FDC50C"/>
<path d="M233.619 1344.32C228.773 1329.28 220.182 1308.23 218.199 1292.43C216.783 1286.8 221.283 1279.03 212.315 1276.13C204.511 1275.6 200.797 1270.78 198.123 1263.89C192.962 1250.48 192.993 1236.61 192.616 1222.63C192.427 1215.37 194.693 1206.65 185.441 1202.34C174.27 1215.74 180.941 1230.5 182.168 1244.82C186.952 1275.56 192.679 1306.03 206.619 1334.28C213.322 1342.97 224.682 1349.45 233.65 1344.35L233.619 1344.32Z" fill="#FDC50C"/>
<path d="M94.9055 1028.07C98.304 1026.18 101.703 1024.29 105.07 1022.44C118.507 1022.59 127.821 1013.5 138.552 1007.55C140.22 1005.88 141.29 1004 140.786 1001.54C135.185 990.558 133.297 976.555 118.035 973.376C115.202 972.999 113.251 974.383 111.741 976.586C102.647 980.771 93.5836 984.988 84.4893 989.173C75.7096 996.569 81.5313 1003.93 84.8669 1010.95C87.699 1016.9 91.5069 1022.37 94.874 1028.07H94.9055Z" fill="black"/>
<path d="M231.039 1539.58C232.078 1531.84 233.62 1524.1 234.029 1516.33C234.343 1510.51 237.27 1507.93 242.273 1506.61C235.004 1500.66 226.256 1495.97 224.777 1485.3C210.617 1484.77 198.942 1491.97 192.837 1505.09C203.316 1515.13 207.438 1529.51 217.004 1540.15C221.85 1544.34 226.508 1543.45 231.008 1539.58H231.039Z" fill="url(#paint3_linear_232_6674)"/>
<path d="M416.89 1388.79C420.477 1390.08 422.302 1392.85 423.246 1396.37C422.743 1401.63 426.676 1402.92 430.421 1404.36C431.837 1405.37 433.222 1406.38 434.638 1407.42C449.491 1405.65 448.201 1390.96 454.683 1382.49C456.131 1369.03 454.4 1356.63 443.166 1347.34C438.855 1347.38 434.512 1347.44 430.201 1347.47C422.271 1359.99 416.732 1373.3 416.764 1388.47L416.89 1388.82V1388.79Z" fill="#FDC50C"/>
<path d="M462.929 1619.8C465.855 1606.93 467.177 1593.9 467.271 1580.71C456.415 1580.37 448.139 1568.79 436.118 1573.63C425.513 1578.79 420.95 1587.01 423.468 1598.81C434.01 1605.7 450.593 1603.97 454.527 1620.36C457.579 1624.14 460.286 1622.66 462.929 1619.8Z" fill="url(#paint4_linear_232_6674)"/>
<path d="M474.034 1578.2C480.453 1581.97 487.88 1578.86 494.488 1581.25C501.883 1591.7 503.016 1604.03 504.747 1616.11C505.565 1621.68 522.337 1695.41 528.599 1698.53C533.037 1698.37 530.551 1698.25 530.739 1692.65C531.306 1677.01 521.771 1593.02 516.862 1577.75C515.823 1574.55 513.306 1571.12 510.348 1572.09C498.484 1575.96 485.11 1570.52 474.002 1578.23L474.034 1578.2Z" fill="white"/>
<path d="M249.859 1506.35C253.839 1512.65 261.868 1513.27 266.65 1518.43C268.445 1531.1 263.807 1542.59 259.817 1554.12C257.996 1559.45 239.173 1632.68 243.316 1638.32C247.333 1640.21 245.18 1638.96 247.911 1634.06C255.571 1620.42 285.524 1541.37 288.142 1525.56C288.687 1522.23 288.018 1518.03 284.942 1517.54C272.622 1515.55 263.221 1504.59 249.816 1506.37L249.859 1506.35Z" fill="white"/>
<path d="M482.749 1070.71C467.173 1068.47 451.281 1071.93 435.799 1068.09C443.194 1076.24 453.547 1076.09 463.176 1077.66C495.714 1082.98 524.791 1094.12 543.137 1123.95C548.203 1114.73 541.028 1109.41 536.277 1103.75C522.147 1086.88 504.053 1076.15 482.781 1070.71H482.749Z" fill="white"/>
<path d="M353.637 1523.79C370.032 1543.99 392.028 1554.88 416.448 1561.74C420.192 1564.25 423.874 1564.69 427.524 1561.58C419.531 1552.14 407.385 1549.56 397.441 1543.33C381.958 1533.63 368.301 1522.12 357.035 1507.74C348.948 1511.61 351.529 1517.74 353.605 1523.82L353.637 1523.79Z" fill="black"/>
<path d="M462.927 1619.8C460.127 1619.99 457.326 1620.17 454.525 1620.36C448.326 1626.53 453.99 1636.19 448.043 1642.45C448.484 1648.15 454.872 1653.75 448.232 1659.51C450.718 1666.21 454.148 1668.54 460.504 1663.07C465.445 1658.82 471.078 1655.36 476.396 1651.55C477.749 1651.89 478.536 1651.45 478.662 1650.01C486.812 1640.76 486.875 1640.57 477.057 1638.43C474.382 1637.83 473.407 1636.85 473.91 1634.52C475.83 1625.37 468.938 1622.94 462.927 1619.8Z" fill="black"/>
<path d="M220.954 1538.26C218.377 1537.15 215.8 1536.04 213.224 1534.92C204.889 1537.57 205.505 1548.75 197.351 1551.6C195.137 1556.86 198.254 1564.77 189.715 1566.85C188.859 1573.95 190.843 1577.59 199.001 1575.63C205.337 1574.11 211.93 1573.61 218.401 1572.66C219.445 1573.58 220.347 1573.55 221.121 1572.32C232.601 1567.83 232.744 1567.69 224.993 1561.29C222.888 1559.54 222.467 1558.22 223.98 1556.38C229.877 1549.12 224.858 1543.81 220.954 1538.26Z" fill="black"/>
<path d="M478.695 1650.01C477.625 1649.98 476.87 1650.48 476.43 1651.55C472.15 1661.24 477.594 1666.21 484.895 1671.53C495.594 1679.3 497.041 1663.25 504.908 1664.7C509.943 1663.16 518.566 1665.11 514.663 1654.76C513.531 1646.77 512.398 1638.74 511.265 1630.75C507.08 1620.65 507.709 1609.6 505.286 1599.19C503.65 1592.14 503.807 1583.8 494.555 1581.22C498.646 1602.55 502.58 1623.95 506.922 1645.22C508.276 1651.86 508.779 1656.8 500.786 1660.14C491.377 1664.1 493.989 1656.99 492.227 1652.9C489.332 1646.2 482.377 1655.23 478.758 1649.98L478.695 1650.01Z" fill="#FDC50C"/>
<path d="M221.154 1572.34C220.217 1571.82 219.315 1571.92 218.433 1572.67C210.193 1579.33 212.759 1586.24 216.817 1594.31C222.774 1606.12 231.405 1592.51 237.737 1597.4C242.92 1598.33 249.694 1604.01 250.961 1593.02C253.611 1585.4 256.276 1577.74 258.926 1570.12C259.827 1559.22 265.44 1549.69 268.052 1539.32C269.822 1532.3 273.778 1524.96 266.732 1518.43C260.607 1539.27 254.313 1560.1 248.441 1581C246.606 1587.52 244.793 1592.15 236.16 1591.46C225.979 1590.68 231.556 1585.55 231.861 1581.1C232.353 1573.82 222.037 1578.67 221.224 1572.34L221.154 1572.34Z" fill="#FDC50C"/>
<path d="M182.135 1244.79C187.926 1231.07 180.562 1215.97 186.635 1202.28C197.87 1184.15 203.314 1164.23 205.39 1143.18C204.163 1140.73 202.59 1138.87 199.443 1139.72C189.153 1154.07 184.779 1170.78 180.153 1187.39C179.24 1194.98 178.265 1202.53 177.478 1210.11C176.912 1215.68 174.394 1218.61 168.478 1217.54C173.01 1226.6 177.572 1235.67 182.104 1244.76L182.135 1244.79Z" fill="#FDC50C"/>
<path d="M537.245 1275.63C543.19 1262.1 553.74 1268.61 563.081 1269.72C562.944 1260.89 572.626 1254.53 569.193 1244.89C572.148 1235.73 575.091 1226.54 578.046 1217.38C571.793 1216.33 572.016 1207.52 565.445 1206.87C562.54 1218.41 562.721 1230.72 557.496 1240.71C558.81 1232.19 566.871 1222.83 557.093 1213.43C543.368 1229.29 537.002 1248.06 535.396 1268.68C533.629 1271.64 534.498 1273.9 537.279 1275.62L537.245 1275.63Z" fill="url(#paint5_linear_232_6674)"/>
<path d="M427.524 1561.58C423.842 1561.64 420.129 1561.71 416.447 1561.74C415.566 1575.46 413.048 1588.42 400.902 1597.14C408.234 1600.54 415.471 1604.79 423.464 1598.81C427.681 1590.41 431.898 1582.03 436.114 1573.63C436.775 1567.09 432.653 1563.97 427.524 1561.58Z" fill="black"/>
<path d="M435.52 1055.29C446.723 1057.3 457.548 1055.38 467.649 1050.88C486.436 1042.51 505.883 1040.59 525.992 1042.95C529.673 1041.72 531.939 1040.24 526.747 1037.79C513.845 1031.68 500.377 1031.5 487.475 1036.59C470.324 1043.42 453.3 1050.41 435.457 1055.29H435.52Z" fill="white"/>
<path d="M514.631 1654.79C515.009 1661.65 508.432 1661.68 504.876 1664.73C518.344 1665.58 513.057 1676.72 515.071 1683.71C515.921 1686.6 515.197 1689.91 515.575 1692.99C516.173 1697.62 510.918 1703.47 518.061 1706.68C520.988 1708 524.418 1707.59 526.652 1705.01C530.743 1700.29 532.599 1691.98 529.389 1689.22C518.47 1679.81 521.869 1665.17 514.631 1654.85V1654.79Z" fill="#FDC50C"/>
<path d="M250.915 1593.03C248.112 1599.3 242.25 1596.32 237.691 1597.41C249.278 1604.33 239.48 1611.81 238.074 1618.95C237.505 1621.91 235.35 1624.52 234.274 1627.43C232.689 1631.82 225.338 1634.62 230.221 1640.74C232.219 1643.25 235.456 1644.46 238.623 1643.19C244.42 1640.86 249.873 1634.33 248.286 1630.39C242.882 1617.03 252.599 1605.58 250.887 1593.09L250.915 1593.03Z" fill="#FDC50C"/>
<path d="M110.134 978.085C112.387 977.351 114.61 976.613 116.863 975.879C113.083 958.603 109.272 941.322 105.461 924.041C97.9118 927.189 98.0328 933.225 99.8059 939.898C103.257 952.639 106.678 965.375 110.129 978.117L110.134 978.085Z" fill="url(#paint6_linear_232_6674)"/>
<path d="M537.243 1275.63C536.627 1273.31 535.976 1271.01 535.36 1268.69C521.04 1283.72 500.829 1273.94 484.547 1280.81C483.454 1283.79 484.226 1286.2 486.67 1288.17C498.171 1288.57 509.715 1288.17 521.122 1289.55C532.48 1290.91 533.371 1282 537.257 1275.67L537.243 1275.63Z" fill="url(#paint7_linear_232_6674)"/>
<path d="M66.8746 856.117C69.8198 858.442 71.0331 864.825 75.9923 862.322C80.0887 860.23 76.4859 855.833 76.1917 852.481C75.9189 849.395 75.4806 846.346 75.1406 843.281C70.895 838.515 69.8248 826.238 61.5823 831.133C54.4035 835.356 60.839 844.184 64.1631 850.529C65.1151 852.356 65.9898 854.268 66.9057 856.122L66.8746 856.117Z" fill="url(#paint8_linear_232_6674)"/>
<path d="M353.641 1523.79C353.641 1518.19 354.239 1512.71 357.071 1507.74C353.264 1501.41 349.424 1495.12 345.617 1488.79C335.201 1503.46 345.617 1513.34 353.641 1523.79Z" fill="black"/>
<path d="M448.233 1659.51C453.047 1655.07 459.31 1651.99 462.047 1645.73C458.24 1639.75 452.072 1646.26 448.044 1642.46C437.565 1648.25 442.663 1653.88 448.233 1659.51Z" fill="black"/>
<path d="M189.716 1566.85C196.027 1565.11 203.006 1565.23 208.306 1560.91C207.656 1553.86 199.191 1556.83 197.352 1551.6C185.385 1551.95 187.34 1559.29 189.716 1566.85Z" fill="black"/>
<path d="M454.684 1382.46C446.628 1389.67 445.055 1402.1 434.639 1407.39C441.027 1414.37 443.828 1406.79 446.377 1403.67C451.254 1397.66 454.149 1390.39 454.684 1382.43V1382.46Z" fill="#FDC50C"/>
<path d="M430.419 1404.36C428.028 1401.69 425.636 1399.01 423.244 1396.37C416.605 1401.5 417.612 1410.37 413.395 1416.7C419.059 1412.58 424.755 1408.49 430.419 1404.36Z" fill="#D49894"/>
<path d="M193.782 1413.14C193.782 1408.55 189.03 1404.87 191.705 1398.57C208.037 1402.82 224.495 1407.1 240.953 1411.38C256.341 1414.4 271.76 1417.42 287.148 1420.41C287.557 1419.72 287.967 1419 288.376 1418.31C277.11 1406.6 264.397 1396.4 249.072 1391.24C227.044 1383.82 205.174 1374.88 181.289 1374.88C174.335 1384.41 188.401 1391.56 184.279 1400.78C187.237 1405.06 185.632 1412.86 193.782 1413.14Z" fill="#1EF99A"/>
<path d="M292.623 1255.33C290.074 1249.13 287.525 1242.9 284.945 1236.7C280.288 1239.5 280.256 1244.38 279.312 1248.91C275.505 1266.56 272.798 1268.14 254.767 1263.54C245.735 1261.25 236.61 1258.54 227.862 1264.58C222.764 1275.19 231.952 1278.96 237.459 1284.34C242.305 1289.06 248.473 1291.74 254.641 1294.29C259.267 1295.64 263.861 1298.35 268.644 1294.73C293.253 1297.37 317.214 1312.29 313.06 1288.1C306.765 1278.65 300.471 1269.21 292.655 1255.3L292.623 1255.33Z" fill="#1EF99A"/>
<path d="M287.145 1420.41C334.757 1434.26 361.505 1394.61 350.113 1360.25C343.348 1352 340.201 1359.02 338.848 1363.9C335.009 1377.55 324.844 1383.53 312.792 1387.75C311.974 1389.04 311.722 1390.42 311.942 1391.93C316.033 1398.35 314.114 1403.01 308.512 1407.73C302.502 1412.77 294.289 1413.74 288.782 1419.37C288.278 1419.78 287.743 1420.13 287.177 1420.41H287.145Z" fill="#1EF99A"/>
<path d="M256.588 1292.21C247.588 1282.83 232.483 1279.97 228.172 1265.56C223.955 1247.68 220.085 1229.75 220.053 1211.21C220.053 1207.44 218.637 1202.81 213.067 1202.56C209.605 1204.51 207.717 1207.75 207.308 1211.37C205.2 1230.94 204.948 1250.55 207.497 1270.12C207.906 1273.2 209.795 1275.88 212.564 1277.64C214.42 1282.58 216.308 1287.52 218.165 1292.43C228.14 1288.94 232.546 1300.24 240.948 1300.96C248.154 1301.59 253.882 1299.61 256.588 1292.21Z" fill="#1EF99A"/>
<path d="M426.298 1345.27C420.193 1343.98 414.088 1342.69 407.984 1341.4C402.13 1346.09 403.389 1354.33 398.826 1359.68C393.256 1358.77 387.718 1357.86 382.148 1356.98C389.701 1367.39 400.179 1374.66 409.903 1382.75C417.487 1386.24 418.777 1379.6 420.791 1375.45C425.354 1365.98 427.116 1355.84 426.298 1345.3V1345.27Z" fill="#FDC50C"/>
<path d="M313.799 1389.01C326.921 1387.75 334.631 1379.5 340.768 1368.74C342.813 1365.19 341.617 1357.04 350.114 1360.28C348.477 1348.85 341.586 1339.67 336.929 1329.56C334.348 1323.93 329.124 1321.73 322.894 1322.58C325.222 1327.17 327.897 1331.64 329.848 1336.39C341.712 1365.31 336.456 1376.55 306.719 1386.21C307.537 1391.05 310.464 1390.55 313.799 1389.01Z" fill="#1EF99A"/>
<path d="M256.588 1292.21C250.704 1293.94 244.756 1295.52 240.949 1300.96C239.061 1311.53 241.641 1320.15 251.113 1326.32C258.382 1331.04 264.329 1327.17 269.427 1323.27C281.826 1313.77 272.133 1304.17 268.609 1294.7C264.613 1293.88 260.585 1293.03 256.588 1292.18V1292.21Z" fill="white"/>
<path d="M244.475 1344.73C257.786 1349.48 272.765 1349.99 286.642 1350.37C287.083 1349.11 288.562 1345.05 287.429 1344.42C276.321 1345.39 274.086 1337.4 272.104 1329.19C263.356 1332.3 250.58 1336.39 244.475 1344.76V1344.73Z" fill="#1EF99A"/>
<path d="M426.301 1345.27C424.224 1353.73 422.399 1362.26 420.007 1370.63C418.497 1375.98 417.332 1382.09 409.937 1382.71C412.234 1384.63 414.532 1386.52 416.829 1388.44C423.815 1375.6 429.982 1362.48 430.266 1347.44C428.975 1346.72 427.654 1345.99 426.332 1345.27H426.301Z" fill="#FDC50C"/>
<path d="M287.427 1344.38C287.931 1345.27 288.309 1346.21 288.529 1347.19C289.095 1347.41 289.661 1347.66 290.228 1347.91C294.256 1346.15 302.249 1351.09 301.745 1342.15C301.525 1338.15 302.312 1330.41 296.679 1330.54C289.567 1330.73 287.207 1337.43 287.459 1344.35L287.427 1344.38Z" fill="#1EF99A"/>
<path d="M197.967 1079.49C204.984 1092.51 212.001 1105.57 219.019 1118.6C220.183 1132.41 230.757 1141.41 236.484 1152.87C237.743 1153.69 239.095 1153.94 240.574 1153.69C245.641 1151.93 243.879 1141.54 252.47 1144.18C251.903 1136.47 238.309 1131.91 244.319 1124.61C249.04 1118.88 255.082 1129.77 261.753 1130.65C285.26 1133.77 309.175 1140.53 330.479 1123.98C340.14 1116.46 350.745 1127.57 359.997 1121.15C354.93 1113.06 347.755 1109.66 338.284 1111.27C308.326 1148.4 238.152 1129.14 224.432 1089.15C222.481 1083.45 220.404 1076.81 212.222 1076.68C206.463 1072.56 201.554 1072.72 197.935 1079.49H197.967Z" fill="black"/>
<path d="M338.313 1111.24C345.425 1114.79 351.781 1120.05 360.026 1121.12C362.009 1121.06 363.991 1120.96 365.974 1120.9C376.641 1116.4 387.498 1112.15 390.77 1099.18C389.166 1093.87 391.4 1086.35 382.778 1084.93C376.83 1086.22 371.512 1089.02 366.194 1091.88C360.655 1094.87 362.732 1089.4 361.568 1087.51C360.467 1084.17 356.596 1085.62 354.802 1083.51C353.481 1082.95 352.159 1082.41 350.806 1081.85C351.057 1093.52 344.229 1102.17 338.281 1111.21L338.313 1111.24Z" fill="url(#paint9_linear_232_6674)"/>
<path d="M252.468 1144.19C242.808 1138.36 241.549 1145.66 239.85 1152.27C232.517 1158.6 232.927 1165.84 238.371 1172.76C245.892 1182.32 256.213 1184.34 267.605 1181.63C272.294 1180.53 275.912 1177.67 278.178 1173.29C279.342 1168.6 280.475 1163.95 281.639 1159.26C272.356 1153.34 260.461 1152.52 252.405 1144.22L252.468 1144.19Z" fill="url(#paint10_linear_232_6674)"/>
<path d="M276.195 992.319C278.115 1003.58 269.429 995.434 266.188 997.511C262.915 999.651 257.377 999.619 257.125 1004.43C256.873 1009.34 262.412 1009.09 265.433 1009.47C272.482 1010.41 281.419 1018.34 285.73 1005.38C288.373 1006.73 291.048 1008.08 293.723 1009.44C290.23 1001.32 284.817 995.182 276.195 992.287V992.319Z" fill="black"/>
<path d="M272.515 1062.94C261.375 1060.95 251.305 1063.91 244.005 1072.09C237.239 1079.74 232.298 1088.9 243.596 1097.52C244.288 1097.33 242.903 1097.71 243.596 1097.52C254.421 1103.66 281.546 1114.89 282.616 1115.87C291.27 1119.64 300.018 1127.86 308.924 1117.06C317.766 1106.33 314.368 1094.69 309.616 1083.45C307.35 1078.07 303.165 1074.14 297.878 1071.46C290.42 1066.52 281.735 1063.97 272.515 1062.94Z" fill="black"/>
<path d="M197.962 1079.49C202.714 1078.54 207.497 1077.6 212.249 1076.69C215.49 1072.56 214.577 1068.38 212.438 1064.16C210.235 1052.64 207.497 1041.57 193.336 1039.21C185.123 1039.99 184.211 1046.19 183.487 1052.52C188.302 1061.49 193.116 1070.49 197.931 1079.45L197.962 1079.49Z" fill="url(#paint11_linear_232_6674)"/>
<path d="M257.345 1008.56C247.779 1029.64 249.478 1040.37 259.579 1043.86C267.447 1046.6 274.81 1040.18 279.31 1025.17C262.003 1038.67 257.723 1028.82 257.314 1008.56H257.345Z" fill="black"/>
<path d="M316.975 1042.76C313.986 1053.84 312.066 1061.55 318.266 1068.13C322.136 1072.25 327.297 1073 332.584 1071.21C338.437 1069.19 341.646 1064.35 343.283 1058.81C344.667 1054.09 340.954 1050.57 337.65 1053.56C325.252 1064.79 322.797 1052.42 317.007 1042.76H316.975Z" fill="black"/>
<path d="M193.37 1039.21C199.727 1047.52 206.115 1055.82 212.471 1064.16C221.188 1055.67 216.059 1047.67 210.709 1040.66C206.115 1034.61 199.727 1032.85 193.37 1039.21Z" fill="black"/>
<path d="M284.03 1111.27C282.802 1104.54 278.648 1100.19 272.89 1096.92C266.061 1093.02 262.065 1094.84 260.397 1102.4C266.942 1108.97 274.872 1111.74 284.061 1111.27H284.03Z" fill="#F187FF"/>
<path d="M298.849 1038.01C292.681 1044.87 286.451 1048.55 289.315 1056.36C290.101 1058.53 294.003 1059.22 296.206 1057.65C302.437 1053.21 300.454 1046.98 298.849 1038.01Z" fill="#89474C"/>
<path d="M278.242 1173.26C273.773 1174.49 269.368 1176 264.836 1176.91C245.735 1180.72 236.861 1171.88 239.882 1152.24C238.088 1153.09 236.263 1153.91 234.469 1154.76C219.113 1163.82 209.893 1186.13 215.053 1201.61C214.959 1210.87 215.179 1220.12 214.707 1229.37C213.983 1243.5 217.665 1255.77 228.207 1265.59C240.48 1266.6 252.406 1267.89 264.364 1272.39C276.637 1277.04 281.514 1266.31 284 1256.71C285.637 1250.39 284.756 1243.4 284.976 1236.7C281.703 1215.68 277.833 1194.69 278.242 1173.26Z" fill="#1EF99A"/>
<path d="M437.782 1337.43C447.096 1325.44 460.03 1316.06 464.813 1300.71C464.152 1299.89 463.271 1298.69 462.516 1298.82C438.694 1302.75 416.1 1294.98 393.065 1291.52C388.565 1292.97 385.67 1295.8 385.293 1300.74C401.625 1314.68 419.562 1326.26 437.813 1337.43H437.782Z" fill="#FDC50C"/>
<path d="M313.108 1176.09C312.447 1175.34 311.66 1174.71 310.748 1174.3C304.926 1186.23 308.765 1198.59 311.975 1209.51C322.139 1244.03 343.601 1270.91 373.496 1290.95C377.524 1293.56 381.08 1293.78 383.629 1288.97C384.573 1281.45 378.94 1277.8 374.345 1273.8C348.73 1251.36 328.779 1225.28 320.944 1191.35C319.622 1185.6 315.531 1181.32 313.14 1176.16L313.108 1176.09Z" fill="#FDC50C"/>
<path d="M382.245 1287.33C380.325 1290.95 376.99 1291.11 373.497 1290.92C377.431 1294.19 381.364 1297.47 385.297 1300.74C388.476 1299.07 390.678 1296.59 391.717 1293.12C390.899 1287.37 387.374 1286.04 382.245 1287.33Z" fill="#FDC50C"/>
<path d="M398.828 1359.65C405.751 1355.5 407.734 1348.89 407.986 1341.37C393.982 1341.97 402.825 1354.02 398.828 1359.65Z" fill="#FDC50C"/>
<path d="M193.651 1095.82C177.823 1064.07 160.421 1033.26 138.645 1005.13C125.365 1006.79 115.736 1015.61 105.1 1022.4C97.264 1039.71 98.6487 1055.92 110.323 1071.21C113.753 1075.71 117.278 1080.62 118.914 1085.94C121.746 1095.19 126.907 1098.12 136.568 1099.81C149.596 1102.11 158.659 1113.91 171.655 1118.6C192.015 1125.97 193.242 1126.09 193.462 1103.62C193.462 1101.01 193.588 1098.4 193.62 1095.82H193.651Z" fill="#FDC50C"/>
<path d="M199.473 1139.75C200.763 1141.01 202.053 1142.3 203.343 1143.56C215.112 1139.5 218.07 1131.91 212.437 1120.87L212.563 1120.96C203.752 1124.14 203.847 1133.52 199.473 1139.75Z" fill="#FDC50C"/>
<path d="M382.618 1086.32C388.219 1088.77 387.495 1095.25 390.768 1099.19C391.051 1094.59 391.775 1090 391.523 1085.44C391.114 1077.73 387.904 1071.02 380.258 1068.51C372.076 1065.8 366.506 1070.39 362.856 1077.44C361.094 1080.84 358.891 1083.36 354.8 1083.55C356.09 1086.38 358.859 1086.38 361.314 1086.98C368.583 1092.8 375.506 1086.35 382.586 1086.35L382.618 1086.32Z" fill="url(#paint12_linear_232_6674)"/>
<path d="M382.245 1287.33C385.391 1289.29 388.57 1291.2 391.717 1293.12C415.286 1303.26 439.171 1310.53 464.817 1300.71C470.891 1291.21 472.968 1280.63 473.282 1269.55C421.674 1242.55 372.836 1210.83 322.612 1181.47C319.466 1179.65 316.287 1177.89 313.14 1176.06C317.483 1220.24 341.997 1252.59 374.472 1280.16C377.178 1282.46 380.64 1283.84 382.245 1287.33Z" fill="#FDC50C"/>
<path d="M212.439 1120.87C213.131 1129.93 207.278 1136.35 203.344 1143.55C197.208 1162.97 187.799 1181.44 186.666 1202.27C188.586 1224.77 184.149 1247.93 193.558 1269.68C197.397 1278.58 201.614 1286.14 212.628 1277.64C212.596 1252.28 208.537 1226.79 215.082 1201.61C216.152 1183.74 226.411 1169.67 234.498 1154.73C237.582 1150.35 240.099 1146.29 235.599 1140.88C229.683 1133.77 224.522 1126.03 219.047 1118.57C216.844 1119.32 214.641 1120.11 212.47 1120.87H212.439Z" fill="#FDC50C"/>
<path d="M312.574 1391.4C276.008 1392.19 242.022 1378.47 206.683 1372.43C199.005 1371.1 191.547 1368.55 183.9 1366.92C181.163 1366.32 177.166 1364.59 175.939 1368.81C174.963 1372.11 178.047 1374.35 180.344 1376.42C205.645 1385.61 232.865 1388.44 257.284 1400.72C268.267 1406.25 275.19 1418.43 288.752 1419.41C302.252 1422.65 310.623 1413.33 318.553 1405.69C325.602 1398.89 323.839 1392.31 312.574 1391.43V1391.4Z" fill="#1EF99A"/>
<path d="M246.9 1309.64C248.411 1315.09 250.582 1320.88 257.285 1321.13C262.697 1321.32 267.481 1318.45 266.851 1311.72C266.285 1305.77 264.428 1300.39 256.939 1300.27C250.834 1300.17 247.246 1303.04 246.9 1309.64Z" fill="black"/>
<path d="M382.621 1086.32C375.289 1079.11 368.46 1088.05 361.348 1086.95C357.918 1092.01 353.985 1096.92 356.471 1105.42C365.596 1098.75 374.093 1092.55 382.621 1086.32Z" fill="black"/>
<path d="M267.1 1064.98C264.929 1065.01 262.16 1068.16 263.607 1069.67C265.873 1072.03 272.733 1074.77 275.188 1076.18C282.457 1080.37 290.041 1084.11 297.75 1087.45C301.778 1089.18 308.576 1091.95 308.072 1083.36C308.072 1083.36 294.352 1064.45 267.1 1065.01V1064.98Z" fill="#ECEEF2"/>
<path d="M350.091 1521.21C366.486 1541.41 388.482 1552.3 412.901 1559.16C416.646 1561.68 420.328 1562.12 423.978 1559C415.985 1549.56 403.838 1546.98 393.894 1540.75C378.412 1531.06 364.755 1519.54 353.489 1505.16C345.402 1509.03 347.982 1515.17 350.059 1521.24L350.091 1521.21Z" fill="black"/>
<path d="M423.977 1559.01C420.295 1559.07 416.582 1559.13 412.901 1559.16C412.019 1572.88 409.502 1585.85 397.355 1594.57C404.687 1597.96 411.925 1602.21 419.918 1596.23C424.135 1587.83 428.351 1579.46 432.568 1571.06C433.229 1564.51 429.107 1561.4 423.977 1559.01Z" fill="black"/>
<path d="M350.095 1521.21C350.095 1515.61 350.693 1510.14 353.525 1505.16C349.717 1498.84 345.878 1492.55 342.07 1486.22C331.654 1500.88 342.071 1510.77 350.095 1521.21Z" fill="black"/>
<path d="M310.253 1386.43C323.375 1385.18 331.085 1376.93 337.221 1366.17C339.267 1362.61 338.071 1354.46 346.567 1357.7C344.931 1346.28 338.04 1337.09 333.382 1326.99C330.802 1321.36 325.578 1319.15 319.347 1320C321.676 1324.6 324.351 1329.07 326.302 1333.82C338.166 1362.74 332.91 1373.97 303.173 1383.63C303.991 1388.48 306.917 1387.98 310.253 1386.43Z" fill="#1EF99A"/>
<path d="M192.837 1505.09C203.473 1498.49 214.141 1491.91 224.777 1485.3C226.099 1477.06 225.06 1469.47 218.672 1463.37C201.27 1465.6 187.015 1474.95 172.54 1483.79C177.763 1492.35 180.942 1502.86 192.805 1505.09H192.837Z" fill="#1EF99A"/>
<path d="M171.44 1485.11C188.634 1478.77 205.549 1471.83 220.283 1461.01C219.402 1459.11 218.488 1457.24 217.606 1455.33C205.147 1464.13 198.544 1459.93 191.903 1447.8C176.466 1419.55 160.13 1391.73 146.984 1361.68C143.132 1366.41 145.19 1370.53 146.853 1373.86C160.378 1400.76 171.076 1429.14 188.657 1453.91C197.068 1465.75 193.714 1469.68 182.046 1474.27C177.553 1476.05 171.796 1476.36 168.871 1481.06C169.749 1482.39 170.594 1483.75 171.472 1485.08L171.44 1485.11Z" fill="#1EF99A"/>
<path d="M313.803 1389.01C311.442 1388.07 309.082 1387.12 306.722 1386.21C258.072 1381.02 211.216 1366.73 163.101 1357.89C171.66 1371.29 178.206 1385.93 184.311 1400.78C190.164 1391.5 181.573 1384.54 180.346 1376.39C185.727 1369.44 192.02 1374.69 197.402 1375.86C227.045 1382.15 256.467 1389.51 286.205 1395.21C295.142 1396.91 304.866 1399.99 312.575 1391.4C312.796 1390.52 313.205 1389.73 313.803 1389.01Z" fill="#1EF99A"/>
<path d="M169.024 1481.22C185.136 1476.12 201.028 1470.42 215.157 1460.79C214.465 1458.87 213.741 1456.99 213.048 1455.07C201.122 1462.87 195.332 1458.34 189.982 1446.07C177.552 1417.46 164.273 1389.23 154.045 1359.03C150.238 1363.4 151.875 1367.55 153.196 1370.92C163.958 1398.08 172.046 1426.49 186.647 1451.83C193.633 1463.94 190.329 1467.56 179.378 1471.3C175.161 1472.75 169.874 1472.69 166.916 1477.09C167.64 1478.45 168.332 1479.83 169.056 1481.18L169.024 1481.22Z" fill="#1EF99A"/>
<path d="M310.256 1386.43C307.896 1385.49 305.536 1384.55 303.176 1383.63C254.526 1378.44 207.67 1364.16 159.555 1355.31C168.114 1368.72 174.66 1383.35 180.765 1398.2C186.618 1388.92 178.027 1381.97 176.8 1373.82C182.181 1366.86 188.474 1372.12 193.855 1373.28C223.498 1379.57 252.921 1386.94 282.659 1392.63C291.596 1394.33 301.319 1397.42 309.029 1388.83C309.249 1387.95 309.658 1387.16 310.256 1386.43Z" fill="#1EF99A"/>
<path d="M283.881 1341.81C284.384 1342.69 284.762 1343.64 284.983 1344.61C285.549 1344.83 286.115 1345.08 286.682 1345.33C290.71 1343.57 298.703 1348.51 298.199 1339.58C297.979 1335.58 298.766 1327.84 293.133 1327.96C286.021 1328.15 283.661 1334.86 283.912 1341.78L283.881 1341.81Z" fill="#1EF99A"/>
<path d="M485.993 1321.48C491.342 1314.46 495.449 1313.55 494.001 1303.83C494.033 1301 498.533 1298.29 500.295 1294.39C502.435 1289.64 496.881 1286.93 495.496 1281.48C488.196 1277.05 480.58 1274.06 473.279 1269.59C473.688 1269.15 473.499 1270.15 473.279 1269.59C465.381 1277.52 466.545 1289.41 460.755 1298.26C458.175 1307.57 450.78 1313.67 445.525 1321.2C442.063 1326.17 437.154 1330.51 437.815 1337.43C438.602 1338.85 439.42 1340.27 440.207 1341.68C457.168 1338.79 472.808 1332.9 486.024 1321.48H485.993Z" fill="black"/>
<path d="M972.221 1510.83C981.787 1516.05 991.328 1530.89 1000.89 1536.08C1006.31 1538.13 1010.52 1544.36 1013.48 1540.8C1017.27 1536.27 1019.08 1520.74 1019.23 1513.66C1010.23 1511.62 1001.24 1509.51 992.204 1507.56C985.155 1506.02 981.536 1501.86 981.599 1494.56C978.483 1499.97 975.368 1505.42 972.252 1510.83H972.221Z" fill="#F4A68A"/>
<path d="M1123.96 1117.89C1123.8 1116.82 1123.64 1115.75 1123.48 1114.68C1126.5 1091.48 1116.15 1070.97 1110.58 1049.47C1108.41 1041.1 1102.49 1033.52 1105.36 1024.14C1120.75 998.935 1130.82 970.897 1148.03 946.604C1153.73 938.579 1159.96 930.964 1165.43 922.814C1171.1 914.38 1175.69 905.349 1165.27 896.727C1153.32 896.349 1150.42 907.017 1145.42 914.16C1130.16 935.936 1116.06 958.499 1101.64 980.841C1098.21 986.159 1093.71 990.471 1090 995.505C1092.02 1017.75 1082.36 1036.48 1072.06 1055.04C1068.01 1068.48 1063.91 1081.73 1053.56 1092.27C1048.59 1097.37 1048.97 1105.05 1050.26 1111.72C1053.5 1128.55 1055.67 1145.51 1056.77 1162.63C1061.24 1186.2 1062.84 1210.15 1065.71 1233.94C1066.56 1236.93 1068.07 1239.7 1068.38 1242.81C1069.52 1254.3 1075.43 1256.06 1085.56 1252.41C1095.26 1248.92 1105.45 1247.09 1115.81 1246.28C1123.58 1245.65 1131.38 1244.58 1135.88 1236.77C1140.57 1219.43 1133.62 1202.72 1132.01 1185.89C1129.84 1163.23 1126.57 1140.57 1123.89 1117.92L1123.96 1117.89Z" fill="#1FD0EF"/>
<path d="M919.193 1316.39C924.039 1303.36 914.284 1294.39 910.13 1283.85C906.228 1280.74 904.088 1275.61 898.266 1274.66C890.462 1273.4 887.378 1267.17 885.427 1260.5C883.508 1253.86 881.84 1245.59 887.976 1241.65C895.371 1236.93 900.154 1244.61 903.899 1249.9C912.616 1262.23 925.707 1267.27 939.049 1271.74C958.528 1278.25 964.665 1273.15 963.532 1252.13C956.546 1241.05 950.787 1228.88 937.602 1223.37C909.123 1214.34 880.015 1207.51 851.347 1199.2C843.858 1197.03 834.889 1195.43 828.155 1202.82C817.645 1211.13 815.505 1221.83 820.666 1233.6C834.134 1264.18 848.358 1294.42 861.669 1325.07C864.47 1331.53 869.819 1332.44 874.634 1335.11C893.011 1337.28 906.668 1328.22 919.193 1316.39Z" fill="#1FD0EF"/>
<path d="M1050.95 832.471C1051.52 825.737 1052.05 818.971 1052.62 812.237C1052.97 802.544 1046.45 802.702 1039.84 803.677C1033.58 804.59 1027.98 807.611 1022.22 810.16C1005.04 817.775 987.732 824.855 969.26 829.167C946.037 834.611 929.61 851.572 911.611 865.67C904.876 865.009 904.278 873.82 901.572 872.341C896.411 872.184 892.572 873.726 892.069 879.61C882.376 894.463 892.352 894.212 889.425 890.435C886.436 886.596 887.6 895.093 889.771 897.358C890.999 904.533 892.226 911.708 893.485 918.883C906.513 923.855 919.163 923.76 931.372 916.428C936.061 911.33 940.184 905.666 946.005 901.638C951.292 891.379 959.914 887.855 971.148 886.502C993.711 883.796 1016.84 881.719 1035.12 865.575C1040.16 861.138 1045.7 857.142 1048.59 850.722C1047.52 844.397 1050.39 838.576 1050.95 832.439V832.471Z" fill="#FCC00E"/>
<path d="M959.853 1253.11C959.506 1272.9 958.94 1273.53 940.436 1266.86C926.905 1261.98 912.619 1258.39 905.601 1242.91C902.297 1235.61 893.36 1231.14 885.965 1232.43C878.413 1233.72 879.577 1243.51 878.601 1249.71C876.241 1264.78 885.43 1277.24 900.094 1279.1C904.437 1279.63 904.594 1287.16 910.101 1283.88C909.629 1276.68 913.783 1277.94 918.063 1279.6C951.922 1293.07 986.601 1304.49 1019.23 1321.2C1030.91 1327.18 1036.79 1332.85 1029.65 1345.72C1028.45 1347.89 1028.64 1350.78 1028.17 1353.36C1032.76 1362.3 1026.85 1370.51 1026.41 1379.11C1026.16 1383.7 1024.58 1389.65 1030.15 1391.22C1035.6 1392.79 1037.8 1387.04 1040.03 1383.04C1046.29 1371.9 1055.3 1368.43 1067.06 1372.62C1075.06 1375.49 1083.02 1378.79 1089.25 1369.44C1092.93 1362.02 1096.65 1354.62 1100.33 1347.2C1097.49 1337.91 1087.9 1338.89 1081.63 1334.83C1064.17 1326.68 1046.74 1318.43 1031.19 1306.85C1013 1294.74 997.709 1279.38 982.384 1263.99C977.034 1258.61 972.345 1251.91 963.755 1251.06C962.244 1251.31 960.954 1252.01 959.916 1253.14L959.853 1253.11Z" fill="#1FD0EF"/>
<path d="M1089.25 1369.41C1076.73 1376.37 1067 1366.99 1057.37 1362.52C1045.89 1357.2 1040.85 1359.78 1038.9 1371.17C1037.8 1377.53 1035.06 1382.88 1029.65 1387.63C1031.16 1381.12 1032.67 1374.64 1034.18 1368.12C1035.66 1361.77 1037.14 1355.41 1028.17 1353.3C1020.34 1372.02 1012.72 1390.84 1007.53 1410.51C1010.42 1419.6 1004.16 1426.28 1001.36 1433.86C999.41 1439.18 996.326 1444.18 1000.01 1450.13C1005.67 1459.29 1036.54 1472.41 1048 1470.17C1063.51 1437.32 1077.17 1403.68 1089.25 1369.41Z" fill="#1FD0EF"/>
<path d="M1047.99 1470.2C1033.77 1466.27 1021.59 1457.87 1008.37 1451.76C996.542 1446.29 1002.3 1437.7 1005.57 1430.62C1008.69 1423.85 1013.09 1417.87 1007.52 1410.54C998.524 1430.81 989.713 1451.14 980.367 1471.24C977.063 1478.32 972.595 1484.77 983.2 1489.46C983.388 1489.53 982.13 1492.8 981.563 1494.59C977.158 1506.33 984.773 1510.77 993.71 1513.69C1002.05 1516.43 1010.7 1518.98 1019.2 1513.69C1039.91 1506.55 1040.79 1486.29 1047.99 1470.2Z" fill="#1FD0EF"/>
<path d="M901.348 1454.27C906.069 1459.49 909.857 1448.79 914.357 1444.83C926.944 1433.81 945.825 1421.22 959.986 1408.64C963.982 1406.21 975.277 1401.57 972.571 1396.66C964.295 1381.69 950.218 1354.28 936.12 1343.45C934.61 1342.29 931.243 1343.58 928.726 1343.7C920.198 1345.43 915.037 1351.29 910.789 1358.24C910.411 1359.59 910.254 1360.98 910.285 1362.36C910.726 1366.77 913.81 1371.02 911.103 1375.68C908.68 1380.4 906.1 1385.27 907.988 1390.62C910.411 1397.45 906.1 1400.09 901.348 1402.74C899.995 1403.27 895.098 1382.68 893.903 1383.46C889.812 1386.55 857.242 1438.66 857.714 1444.83C861.05 1452.32 868.067 1473.59 876.595 1473.15L901.348 1454.27Z" fill="#FFD313"/>
<path d="M1060.74 1160.12C1062.88 1144.29 1057.72 1129.22 1055.67 1113.86C1054.29 1103.48 1053.85 1095.26 1063.32 1087.52C1073.86 1078.9 1072.41 1063.45 1079.12 1052.28C1071.38 1050.77 1066.88 1055.68 1062.41 1060.65C1059.64 1063.54 1059.29 1067.92 1056.33 1070.87C1055.04 1068.48 1055.83 1065.9 1055.26 1063.54C1049.76 1052.65 1062.53 1043.25 1057.81 1032.42C1047.99 1031.41 1041.57 1036.1 1037.33 1044.5C1040.03 1063.79 1032.89 1070.81 1014.17 1067.07C1010.11 1066.25 1006.24 1064.52 1001.99 1064.52C989.589 1063.32 977.222 1060.02 964.792 1063.38C955.383 1065.9 946.352 1069.18 948.492 1082.01C951.764 1087.24 947.642 1091.58 946.855 1096.33C945.282 1105.24 939.209 1114.02 945.817 1123.24C959.191 1125 952.866 1112.32 957.366 1107.53C958.152 1104.55 958.184 1101.4 958.813 1098.35C959.695 1093.94 959.002 1088.53 964.855 1086.83C970.142 1085.29 972.848 1089.88 976.782 1091.77C992.768 1099.45 1001.36 1112.79 1008.12 1128.05C1012.88 1127.14 1013.98 1123.43 1014.83 1119.49C1016.4 1112.82 1015.8 1105.99 1015.46 1099.26C1015.11 1092.34 1017.85 1089.25 1024.68 1087.36C1040.44 1083.08 1040.28 1082.64 1043.15 1099.35C1044.63 1108.1 1045.92 1116.85 1046.23 1125.75C1045.7 1141.74 1047.65 1157.29 1054.26 1172.01C1055.36 1173.59 1056.84 1174.59 1058.69 1175.1C1064.92 1170.85 1061.59 1165.34 1060.71 1160.15L1060.74 1160.12Z" fill="#1FD0EF"/>
<path d="M840.176 1161.61C839.302 1161.35 838.469 1160.96 837.687 1160.43C821.8 1154.27 805.635 1153.6 789.201 1158.1C780.068 1160.5 770.305 1156.47 761.337 1160.82C758.12 1167.8 758.151 1174.43 763.499 1180.48C764.148 1184.22 777.288 1181 768.634 1189.88C766.124 1196.84 763.525 1203.76 768.309 1210.79C788.155 1202.34 809.262 1198.37 830.194 1193.85C842.718 1183.76 845.144 1175.98 840.146 1161.6L840.176 1161.61Z" fill="#F9B0F3"/>
<path d="M1060.74 1160.12C1060.05 1164.9 1061.71 1170.15 1057.81 1174.28C1050.95 1179.69 1052.12 1187.18 1053.12 1194.29C1054.79 1206.09 1056.71 1217.8 1055.8 1229.79C1055.36 1232.68 1055.61 1235.51 1056.36 1238.31C1059.83 1247.82 1056.77 1257.6 1057.59 1267.23C1058.22 1274.38 1057.69 1281.71 1063.29 1287.37C1065.33 1298.01 1073.58 1299.43 1082.26 1300.02C1095.95 1300.97 1109.42 1298.76 1122.89 1296.84C1123.17 1295.68 1123.45 1294.52 1123.74 1293.35C1125.56 1288.16 1119.27 1284.07 1122.04 1279.73C1123.01 1283.6 1123.64 1288.85 1129.84 1290.14C1131.83 1289.29 1133.78 1288.44 1135.76 1287.62C1136.96 1281.46 1135.95 1275.23 1136.04 1269.03C1136.36 1251.59 1136.26 1251.59 1117.76 1251.81C1103.76 1256.09 1089.41 1254.87 1075.09 1254.3C1067.5 1248.89 1074.46 1240.08 1070.34 1233.88C1066.72 1209.36 1067.25 1184.31 1060.74 1160.18V1160.12Z" fill="#1FD0EF"/>
<path d="M868.408 1151.4L864.222 1152.6C858.275 1161.25 859.345 1170.54 861.768 1179.94C872.121 1195.9 898.963 1204.55 919.732 1198.35C925.145 1196.75 930.589 1194.92 935.404 1191.71C942.358 1181.61 940.753 1171.98 933.893 1162.61C927.82 1155.24 920.016 1149.64 913.25 1142.97C908.624 1138.09 906.327 1141.8 903.998 1145.45C901.481 1152.22 896.289 1150.43 891.096 1149.89C883.513 1149.11 875.771 1147.53 868.439 1151.34L868.408 1151.4Z" fill="#1FD0EF"/>
<path d="M1168.14 1030.59C1188.53 995.537 1207.63 959.821 1224.6 922.972C1223.49 918.346 1222.33 913.814 1217.01 912.146C1210.91 912.335 1207.85 916.741 1205.24 921.209C1184.69 956.171 1160.9 989.118 1141.99 1025.05C1139.38 1030.03 1135.7 1034.84 1137.71 1041.1C1144.01 1046.55 1148.63 1040.6 1153.89 1038.71C1159.11 1036.82 1162.41 1031.57 1168.14 1030.59Z" fill="#1FD0EF"/>
<path d="M931.815 912.934C919.637 918.787 905.822 914.287 893.455 918.913C897.609 933.671 905.224 946.857 911.959 960.482C925.805 966.902 937.699 979.961 955.416 973.038C962.276 960.797 955.637 950.003 951.735 938.926C944.623 930.65 945.976 915.829 931.815 912.934Z" fill="#FCC00E"/>
<path d="M865.822 1180.29C865.287 1171.07 864.752 1161.85 864.217 1152.63C851.976 1149.55 839.829 1153.38 827.619 1153.2C822.081 1153.1 821.672 1157.85 820.539 1161.69C820.885 1172.93 821.2 1184.19 821.546 1195.43L821.766 1196.28C833.976 1202.47 847.287 1198.26 859.937 1200.33C871.958 1196.62 868.308 1188.28 865.822 1180.29Z" fill="#1FD0EF"/>
<path d="M963.377 1517.25C945.188 1527.51 946.982 1544.94 947.454 1561.87C949.908 1567.5 950.097 1573.52 950.663 1579.49C951.45 1587.55 955.289 1592.68 963.88 1593.21C965.485 1593.15 967.027 1592.74 968.475 1592.08C969.796 1591.29 970.929 1590.29 971.81 1589.03C974.045 1584.59 974.705 1579.46 977.663 1575.31C978.167 1574.02 978.45 1572.67 978.607 1571.28C978.828 1567.98 978.167 1564.64 978.639 1561.34C978.828 1560.05 978.859 1558.73 978.922 1557.44C979.079 1553.38 980.558 1549.79 982.635 1546.36C984.209 1542.99 984.996 1539.59 983.579 1535.97C977.412 1529.15 971.968 1521.5 963.377 1517.25Z" fill="#FFD313"/>
<path d="M1098.85 1019.8C1097.75 1033.17 1104.48 1044.75 1107.63 1057.15C1112.51 1076.44 1118.17 1095.51 1123.49 1114.68C1132.2 1101.93 1140.35 1088.87 1145.96 1074.4C1145.89 1062.91 1135.98 1063.73 1129.06 1060.8C1120.62 1053.82 1119.49 1042.64 1113.67 1034.18C1109.7 1028.39 1107.91 1020.37 1098.85 1019.83V1019.8Z" fill="#1FD0EF"/>
<path d="M971.588 1396.95C943.833 1423.57 911.515 1443.77 880.802 1466.11C877.875 1468.22 870.826 1468.41 873.501 1473.86C876.27 1479.46 881.777 1476.18 885.742 1473.86C916.298 1455.67 943.612 1432.92 972.311 1412.11C980.021 1406.54 974.797 1401.6 971.556 1397.01L971.588 1396.95Z" fill="#F6F6DA"/>
<path d="M1217.45 912.934C1218.24 917.434 1220.12 921.116 1224.62 923.004C1230.38 913.5 1230.57 901.228 1239.35 893.203C1241.18 887.004 1241.3 881.12 1236.3 876.179C1233.22 864.819 1227.17 857.33 1213.99 859.249C1206.4 869.382 1202.44 880.994 1200.02 893.266C1202.41 902.833 1208.48 909.189 1217.48 912.965L1217.45 912.934Z" fill="#1FD0EF"/>
<path d="M906.766 1428.16C902.046 1424.29 897.326 1420.42 892.606 1416.55C889.176 1413.84 885.714 1413.5 882.158 1416.36C858.022 1418.88 850.658 1434.43 862.553 1457.87C868.155 1461.61 870.861 1456.61 874.071 1453.84C881.309 1447.58 890.245 1443.65 897.106 1436.91C900.315 1433.98 903.525 1431.09 906.766 1428.16Z" fill="#F6F5D8"/>
<path d="M1028.7 1621C1031.38 1596.39 1023.73 1572.76 1021.87 1548.56C1021.47 1543.15 1016.9 1540.98 1013.06 1538.37C1011.9 1538.99 1010.86 1539.81 1010.01 1540.82C1007.37 1544.85 1006.68 1549.32 1007.05 1554.01C1007.4 1557.21 1007.12 1560.39 1006.33 1563.57C1006.02 1564.96 1005.83 1566.31 1005.64 1567.69C1005.48 1572.82 1005.79 1577.95 1005.64 1583.08C1005.64 1586.13 1005.64 1589.22 1005.64 1592.27C1005.64 1594.63 1005.64 1596.99 1005.73 1599.38C1006.61 1611.31 1012.94 1618.89 1024.23 1622.48C1025.93 1622.64 1027.44 1622.13 1028.7 1620.97V1621Z" fill="#FFD313"/>
<path d="M906.105 993.339C915.892 1014.86 928.007 1021.22 948.399 1015.46C952.269 1011.91 958.248 1014.9 962.087 1011.12C965.643 1008.13 969.356 1005.14 964.353 1000.36C956.265 999.004 952.427 990.098 944.245 988.871C938.958 991.168 934.71 989.689 930.682 985.724C925.238 980.406 918.85 978.203 911.36 981.318C906.294 983.899 906.64 988.808 906.105 993.339Z" fill="#F9AFF3"/>
<path d="M1117.32 1256.32C1129.5 1254.08 1136.58 1256.69 1133.05 1271.39C1131.76 1276.74 1132.93 1282.5 1135.76 1287.6C1143.69 1276.77 1136.58 1264.12 1140.01 1252.76C1139.19 1247.06 1138.68 1241.21 1132.89 1237.91C1114.96 1241.9 1095.79 1240.17 1079.05 1249.77C1075.18 1251.97 1073.58 1249.39 1073.26 1245.65C1072.92 1241.59 1073.2 1237.31 1070.34 1233.85C1069.71 1241.65 1068.26 1249.55 1073.01 1256.72C1087.8 1258.11 1102.56 1259.02 1117.29 1256.32H1117.32Z" fill="#1FD0EF"/>
<path d="M947.738 1123.96C947.423 1114.74 947.14 1105.52 946.825 1096.3C936.346 1111.85 925.899 1127.39 915.452 1142.94C919.007 1151.28 926.34 1156.22 932.759 1161.98C948.43 1159.24 955.448 1141.36 947.769 1123.96H947.738Z" fill="#1FD0EF"/>
<path d="M913.404 1362.49L912.429 1359.34C908.275 1351.38 902.579 1348.08 894.083 1353.3C890.149 1354.65 886.184 1355.91 882.282 1357.33C875.894 1359.66 868.877 1361.7 868.279 1370.04C867.712 1377.91 872.716 1382.38 879.418 1385.27C897.355 1387.47 912.681 1377.22 913.404 1362.52V1362.49Z" fill="#F187FF"/>
<path d="M858.621 1197.03C846.349 1196.78 834.045 1196.53 821.772 1196.27C822.779 1199.58 825.297 1201.37 828.16 1202.85C845.751 1200.77 861.799 1207.29 878.226 1211.72C897.673 1216.98 917.121 1222.23 936.6 1227.49C943.68 1222.17 937.355 1218.96 934.397 1215.78C930.558 1211.69 925.051 1210.06 920.016 1207.82C899.782 1203.01 880.366 1193.47 858.621 1197.03Z" fill="#1FD0EF"/>
<path d="M1132.89 1237.87C1133.52 1243.66 1135.38 1248.86 1140.01 1252.73C1142.93 1249.14 1142.78 1244.8 1142.3 1240.74C1137.49 1199.58 1134.15 1158.23 1123.96 1117.88C1121.13 1148.98 1128.46 1179.22 1131.57 1209.8C1132.52 1219.18 1134.15 1228.43 1132.89 1237.87Z" fill="#1FD0EF"/>
<path d="M1125.69 1066.69C1134.06 1064.99 1140.48 1068.48 1145.92 1074.4C1154.89 1060.58 1162.03 1045.85 1168.11 1030.62C1155.17 1026.28 1148.97 1038.62 1139.25 1042.27C1125.97 1046.14 1123.33 1050.92 1125.66 1066.69H1125.69Z" fill="#1FD0EF"/>
<path d="M906.101 993.338C908.367 990.034 910.664 986.729 912.929 983.425C919.223 979.744 925.202 979.932 931.181 984.464C935.177 987.485 939.363 990.443 944.775 990.38C949.716 996.264 953.272 1004.26 963.247 1002.43C963.404 991.859 956.198 983.803 953.555 974.205C949.307 974.866 944.964 974.583 941.88 971.53C933.447 963.223 922.59 963.065 912.017 961.807C914.094 968.321 908.901 972.254 906.604 977.226C904.181 982.481 902.387 987.862 906.164 993.338H906.101Z" fill="#F9AFF3"/>
<path d="M919.192 1316.39C904.339 1322.62 889.486 1328.88 874.633 1335.11C876.805 1341.85 879.637 1347.86 888.164 1347.89C901.727 1348.61 913.905 1345.12 924.258 1336.09C922.559 1329.51 920.891 1322.93 919.192 1316.36V1316.39Z" fill="#F4A68A"/>
<path d="M734.125 1221.88C734.661 1220.8 735.156 1219.74 735.692 1218.66C738.167 1204.21 744.639 1193.05 759.534 1188.1C762.866 1187.01 765.554 1184.1 765.287 1179.82C763.961 1173.48 762.675 1167.13 761.349 1160.79C733.48 1172.18 722.723 1196.27 734.125 1221.88Z" fill="#F9B0F3"/>
<path d="M944.776 1622.1C949.15 1624.46 953.084 1623.3 956.765 1620.5C964.538 1615.34 969.258 1608.32 970.297 1598.91C970.422 1595.45 969.195 1592.55 966.772 1590.13C959.314 1590.13 955.412 1586.1 953.933 1579.02C952.674 1572.98 952.045 1566.66 947.419 1561.87C946.538 1581.95 945.657 1602.03 944.776 1622.1Z" fill="#E8B12C"/>
<path d="M963.374 1517.25C967.245 1525.9 972.059 1533.68 981.72 1536.92C991.475 1545.63 1001.73 1549.6 1013.38 1540.22C1013.35 1539.59 1013.22 1538.96 1013.06 1538.36C1009.92 1533.46 995.724 1539.91 1000.88 1526.47C996.007 1512.66 984.301 1511.4 972.217 1510.83C969.259 1512.97 966.332 1515.11 963.374 1517.25Z" fill="#FFD313"/>
<path d="M882.154 1416.36C885.647 1416.43 889.109 1416.49 892.602 1416.55C892.696 1411.39 899.871 1411.99 900.28 1407.08C898.801 1405.29 896.724 1404.63 894.553 1404.12C894.522 1404.12 894.899 1403.52 895.623 1403.3C899.368 1402.11 898.738 1405.73 899.997 1407.3C906.7 1407.27 910.948 1402.14 916.235 1399.24C918.973 1397.73 921.144 1393.89 916.832 1392.29C903.679 1387.41 914.787 1381.34 915.574 1375.8C912.332 1372.34 909.091 1373.69 905.85 1375.8C901.382 1385.68 887.567 1386.18 884.263 1397.29C881.683 1403.43 873.312 1408.94 882.154 1416.36Z" fill="#F187FF"/>
<path d="M924.258 1336.12C910.947 1336.18 899.965 1343.33 888.164 1347.92C890.115 1349.71 892.097 1351.51 894.048 1353.3C900.72 1353.62 906.51 1356.64 912.395 1359.34C918.342 1354.69 925.611 1351.41 928.727 1343.73C927.248 1341.19 925.737 1338.67 924.258 1336.12Z" fill="#F4A68A"/>
<path d="M776.574 1171.86C792.119 1167.36 807.664 1162.89 823.209 1158.39C823.147 1157.89 823.304 1157.1 823.02 1156.91C813.139 1149.77 781.42 1159.99 776.574 1171.86Z" fill="#FAF4EE"/>
<path d="M868.401 1151.4C878.125 1152.47 887.817 1153.79 897.541 1154.55C904.023 1155.05 909.877 1154.23 903.961 1145.52C886.307 1145.52 824.861 1154.55 804.218 1154.55C790.057 1163.19 799.246 1158.65 804.218 1163.19L868.401 1151.4Z" fill="#EFF6F7"/>
<path d="M1129.84 1290.11C1125.53 1283.6 1127.45 1276.17 1126.69 1269.15C1126.41 1266.54 1125.78 1263.9 1122.57 1263.62C1119.39 1263.33 1117.72 1265.63 1117.72 1268.3C1117.72 1277.08 1113.48 1287.03 1123.77 1293.35C1125.81 1292.28 1127.83 1291.21 1129.87 1290.14L1129.84 1290.11Z" fill="#1FD0EF"/>
<path d="M906.607 1378.35C909.061 1375.64 912.303 1375.64 915.544 1375.8C919.729 1370.55 916.299 1366.55 913.372 1362.49C907.834 1378.73 890.4 1377.22 879.387 1385.24C879.166 1387.26 878.946 1389.27 878.726 1391.28C891.093 1393.61 899.149 1386.63 906.575 1378.35H906.607Z" fill="#F187FF"/>
<path d="M897.105 1436.91C883.353 1440.19 876.406 1451.91 864.008 1457.41C862.151 1461.82 870.931 1464.05 875.022 1460.56C885.249 1451.88 890.622 1449.88 897.105 1436.95V1436.91Z" fill="#FFD313"/>
<path d="M906.607 1378.35C897.512 1383.07 889.425 1389.96 878.726 1391.28C880.582 1393.3 882.408 1395.28 884.233 1397.29C891.03 1390.21 905.474 1392.16 906.575 1378.35H906.607Z" fill="#F6F5D8"/>
<path d="M932.629 1159.17C929.357 1151.15 922.119 1147.34 915.416 1142.93C914.693 1143.12 913.969 1143.15 913.245 1143.03C913.245 1153.32 921.93 1157 928.067 1162.63C930.112 1162.16 931.748 1161.15 932.629 1159.14V1159.17Z" fill="#1FD0EF"/>
<path d="M769.026 1210.21C779.347 1160.53 737.684 1209.48 733.615 1221.39C739.467 1230.74 759.218 1221.69 769.026 1210.21Z" fill="#F9B0F3"/>
<path d="M1215.68 863.435C1225.06 866.681 1231.82 876.395 1239.89 882.809C1242.04 873.501 1247.93 869.194 1253.54 864.406C1273.85 846.969 1291.33 823.712 1316.08 815.392C1321.97 813.427 1329.74 809.518 1328.78 800.194C1327.76 790.271 1318.58 796.841 1313.17 791.195C1317.83 781.504 1329.54 773.985 1319.03 758.315C1300.19 756.907 1286.75 768.258 1276.47 787.162C1276.29 794.168 1277.9 799.458 1281.07 800.116C1272.2 786.87 1272.63 761.5 1251.56 756.215C1238.5 763.959 1227.58 767.338 1221.21 740.746C1219.01 731.588 1210.59 720.233 1200.82 731.003C1214.38 772.412 1210.87 813.474 1206.95 854.55C1208.03 860.909 1211.11 863.53 1215.68 863.435Z" fill="#F9B0F3"/>
<path d="M1047.93 846.977C1026.19 873.536 995.978 880.081 964.069 881.843C951.513 882.536 944.15 887.162 944.307 900.536C951.293 908.403 959.506 905.067 967.562 903.053C983.359 897.483 1000.89 903.934 1016.34 896.035C1026.79 888.452 1037.23 882.819 1050.39 891.032C1054.1 893.361 1060.74 894.462 1057.75 885.431C1055.8 879.2 1058.91 875.015 1062.69 870.389C1068.8 862.9 1074.99 855.095 1073.48 844.302C1065.3 837.095 1057.44 841.627 1049.57 844.994C1049.03 845.655 1048.5 846.347 1047.93 847.008V846.977Z" fill="#FCC00E"/>
<path d="M1057.75 886.694C1056.4 890.691 1054.6 890.754 1051.08 888.362C1038.65 879.897 1027.13 882.006 1016.68 892.359C1017.56 893.523 1018.73 894.341 1020.11 894.813C1024.96 896.418 1032.86 892.39 1033.33 902.051C1033.83 904.883 1034.81 907.526 1036.22 910.012C1040 917.691 1051.36 924.771 1037.95 933.676C1034.71 936.54 1029.71 936.76 1027.22 940.757C1025.97 943.746 1026.03 946.704 1027.66 949.568C1030.06 952.841 1033.9 953.785 1037.23 955.578C1046.58 956.711 1049.98 964.767 1055.04 970.935C1058.72 975.277 1062.41 981.319 1068.89 978.172C1077.1 974.207 1073.89 965.554 1074.71 958.631C1071.15 938.145 1071.37 916.589 1057.78 898.935C1058.54 894.845 1061.97 890.754 1057.72 886.663L1057.75 886.694Z" fill="#F9AFF3"/>
<path d="M1177.14 872.529C1177.04 874.197 1176.98 875.865 1176.89 877.533C1182.33 887.571 1187.52 897.987 1202.06 894.462C1207.66 883.354 1213.77 872.466 1215.03 859.722C1212.57 857.299 1210.12 854.875 1207.63 852.421C1195.77 846.945 1188.28 850.879 1184.28 862.994C1183.02 866.865 1181.1 870.547 1177.11 872.498L1177.14 872.529Z" fill="#1FD0EF"/>
<path d="M1200.46 731.483C1209.71 729.198 1217.51 735.126 1220.52 745.559C1228 771.602 1238.58 773.428 1252.92 759.099C1254.27 760.434 1255.74 760.93 1257.32 760.586C1267.71 748.87 1284.42 745.882 1287.19 723.616C1269.5 722.227 1259.37 739.242 1247.15 750.382C1236.81 759.795 1231.17 762.721 1224.85 742.417C1218.2 721.117 1208.04 718.021 1200.46 731.483Z" fill="#F9B0F3"/>
<path d="M1277.67 788.532C1290.42 776.147 1304.83 767.458 1319.16 758.692C1314.33 743.493 1306.46 756.091 1300.31 753.132C1289.54 760.504 1273.14 758.229 1271.79 781.617C1272.82 785.355 1272.5 791.187 1277.67 788.532Z" fill="#F9B0F3"/>
<path d="M1286.64 723.139C1275.96 734.975 1265.25 746.772 1254.57 758.609C1256.28 763.245 1259.03 765.796 1262.75 766.577C1273.94 766.353 1281.01 757.79 1286.79 746.746C1292.65 739.452 1296.18 731.899 1286.64 723.139Z" fill="#F9B0F3"/>
<path d="M1286.9 746.313C1279.11 751.509 1271.31 756.705 1263.48 761.905C1264.22 777.095 1266.44 780.762 1275.13 781.197C1279.61 764.947 1293.78 764.331 1301.21 752.81C1296.37 751.055 1290 757.173 1286.9 746.313Z" fill="#F9B0F3"/>
<path d="M1050.95 832.472C1049.29 837.161 1032.61 838.734 1047.96 846.979L1047.84 847.136C1054.86 842.636 1065.46 845.469 1070.12 836.154C1072.73 833.983 1077.55 832.881 1075.22 827.972C1073.55 824.416 1069.84 824.951 1066.94 825.958C1061.53 827.846 1056.27 830.269 1050.99 832.472H1050.95Z" fill="#FCC00E"/>
<path d="M1070.08 836.152C1063.41 841.345 1053.97 840.904 1047.8 847.135C1056.36 846.159 1064.92 845.215 1073.48 844.24C1074.36 840.684 1073.23 838.009 1070.08 836.152Z" fill="#FCC00E"/>
<path d="M1202.1 894.463C1191.11 892.669 1186.17 881.876 1176.92 877.564C1170.28 882.316 1166.47 889.019 1163.77 896.508C1168.99 904.627 1168.58 913.029 1162.13 919.606C1144.38 937.638 1134.16 960.452 1121.16 981.536C1117.38 987.672 1114.46 994.658 1112.66 1001.64C1110.52 1009.95 1105.05 1014.99 1098.88 1019.83C1110.96 1033.68 1114.11 1052.62 1125.75 1066.69C1128.65 1057.63 1131.48 1048.56 1139.35 1042.27C1147.97 1026.25 1155.87 1009.83 1165.34 994.343C1182.21 966.903 1200.05 940.029 1217.48 912.935C1215.47 904.187 1206.38 901.354 1202.13 894.463H1202.1Z" fill="#1FD0EF"/>
<path d="M1089.31 1176.79C1089.15 1183.47 1114.14 1221.73 1118.76 1223.84C1122.26 1225.44 1124.77 1224.19 1127.07 1221.73C1129.49 1219.12 1129.93 1216.04 1127.86 1213.2C1118.64 1200.58 1109.32 1188.03 1099.88 1175.6C1097.99 1173.11 1095.29 1170.78 1091.92 1173.08C1090.44 1174.09 1089.72 1176.26 1089.34 1176.83L1089.31 1176.79Z" fill="#1FD0EF"/>
<path d="M1092.68 1130.25C1091.71 1125.37 1094.22 1118.11 1085.35 1117.66C1078.77 1117.32 1075.75 1121 1076.47 1127.36C1077.23 1133.84 1076.73 1142.24 1086.01 1142.37C1093.12 1142.46 1092.37 1135.63 1092.68 1130.28V1130.25Z" fill="#1FD0EF"/>
<path d="M932.632 1159.18C931.122 1160.34 929.58 1161.5 928.069 1162.64C937.258 1170.06 937.038 1179.76 934.646 1189.95C928.573 1196.47 920.233 1201.44 919.573 1211.7C924.639 1217.58 934.898 1217.89 936.597 1227.43C948.051 1232.62 952.205 1244.45 959.884 1253.08C961.3 1252.89 962.716 1252.7 964.132 1252.51C968.254 1240.77 954.408 1236.27 953.779 1226.55C955.824 1225.16 958.216 1224.41 960.01 1222.71C962.684 1217.77 959.443 1209.62 968.128 1208.01C974.863 1203.64 979.898 1197.66 983.579 1190.67C986.474 1185.2 990.408 1178.78 984.051 1173.71C978.638 1169.4 973.258 1173.12 968.632 1176.89C966.618 1178.53 964.981 1180.64 960.953 1182.46C957.87 1172.86 959.632 1163.23 959.349 1153.89C959.002 1142.43 959.726 1130.95 958.971 1119.49C958.625 1114.02 959.254 1107.66 952.426 1104.92C948.492 1110.68 953.024 1118.55 947.737 1123.96C947.454 1135.1 944.433 1145.61 940.342 1155.81C938.989 1159.21 937.384 1163.08 932.632 1159.14V1159.18Z" fill="#1FD0EF"/>
<path d="M966.366 898.395C959.003 899.087 951.671 899.811 944.307 900.503C935.402 899.874 930.272 903.052 931.814 912.933C936.881 921.65 941.947 930.335 947.014 939.052C955.699 934.426 955.73 924.45 960.482 917.433C963.534 912.618 967.499 908.244 968.16 902.202C968.034 900.723 967.405 899.464 966.366 898.395Z" fill="#FCC00E"/>
<path d="M982.034 1244.73C983.072 1245.93 984.142 1247.13 985.181 1248.32C989.334 1247.25 993.488 1246.18 997.61 1245.14C1015.06 1237.14 1005.45 1245.14 1021.87 1231.33C1025.68 1227.33 1027.47 1222.52 1027.47 1217.01C1029.36 1203.6 1026.94 1190.51 1024.77 1177.42C1026.62 1159.11 1024.3 1141.36 1018 1124.08C1016.87 1120.34 1015.08 1117.29 1010.67 1116.94C1010.2 1120.62 1010.51 1124.62 1006.8 1127.07C998.68 1135.63 1002.68 1145.55 1003.65 1155.14C1004.22 1160.81 1004.34 1166.54 1005.45 1172.14C1008.56 1181.55 1008.06 1191.4 1009.03 1201.12C1011.02 1220.85 1000.38 1227.96 982.38 1227.87C979.264 1227.87 976.181 1228.02 973.38 1229.63C969.446 1238.57 979.548 1239.45 982.034 1244.7V1244.73Z" fill="#1FD0EF"/>
<path d="M1010.77 1174.28C1009.45 1158.54 1008.13 1142.84 1006.8 1127.11C1005.8 1120.53 1006.08 1113.89 1005.2 1107.25C1003.97 1098.06 1000.48 1095.95 992.359 1096.58C988.489 1096.87 981.881 1097.94 981.629 1093.03C980.811 1076.54 969.199 1080.22 960.356 1081.51C947.045 1083.46 955.006 1094.82 952.992 1101.87C952.709 1102.88 952.583 1103.92 952.395 1104.92C957.524 1134.72 950.475 1165.03 955.541 1196.27C964.825 1192.44 967.751 1184.19 973.258 1178.59C975.933 1175.88 980.024 1171.82 983.989 1175.63C987.545 1179.03 983.013 1182.24 981.157 1184.91C975.807 1192.5 971.59 1201.15 962.999 1205.97C955.006 1212.92 962.087 1216.35 966.838 1218.3C978.765 1223.18 991.321 1222.9 1003.56 1219.06C1009.04 1217.33 1011.87 1212.76 1011.71 1206.97C1011.43 1196.09 1012.97 1185.13 1010.74 1174.28H1010.77Z" fill="#1FD0EF"/>
<path d="M1058.19 1033.08C1070.21 1025.24 1070.37 1014.54 1065.59 1002.62C1050.89 1001.61 1041.29 1014.83 1027.42 1016.21C1017.38 1018.41 1007.03 1016.72 996.987 1018.89C987.641 1021.09 983.33 1027.57 982.008 1036.54C980.939 1043.81 985.564 1046.61 991.417 1048.4C994.47 1049.85 997.522 1051.33 1000.57 1052.78C1016.72 1061.75 1029.15 1059.2 1038.78 1044.94C1045.23 1040.98 1051.71 1037.04 1058.16 1033.08H1058.19Z" fill="black"/>
<path d="M1038.8 1044.94C1027.13 1052.68 1014.1 1053.94 1000.6 1052.78C1001.7 1056.68 1002.8 1060.58 1003.9 1064.42C1011.46 1077.26 1022.56 1074.84 1033.64 1070.9C1043.71 1067.32 1045.88 1059.42 1044.06 1049.7C1043.49 1046.61 1041.32 1045.64 1038.77 1044.94H1038.8Z" fill="#F9AFF3"/>
<path d="M997.927 1077.17C992.578 1076.88 989.242 1077.73 988.644 1082.33C987.795 1089.22 992.829 1089 997.455 1089.78C1001.99 1090.57 1004.32 1089.63 1004.09 1084.62C1003.87 1079.65 1001.39 1077.17 997.896 1077.17H997.927Z" fill="#1FD0EF"/>
<path d="M1064.08 1064.8C1059.83 1066.69 1055.58 1070.37 1051.3 1064.8C1051.43 1070.37 1050.51 1076.16 1054.7 1081.32C1060.62 1076.76 1061.97 1070.56 1064.08 1064.8Z" fill="#1FD0EF"/>
<path d="M765.281 1179.86C761.145 1182.03 757.241 1185.09 752.864 1186.22C734.878 1190.79 731.218 1202.47 735.695 1218.67C742.797 1215.11 747.32 1209.17 751.439 1202.56C756.223 1194.88 763.147 1189.9 772.39 1188.74C776.992 1186.85 782.516 1186.64 786.011 1181.08C779.158 1176.52 771.896 1181.62 765.301 1179.8L765.281 1179.86Z" fill="#F9B0F3"/>
<path d="M1088.71 1278C1089.94 1282.69 1087.05 1289.86 1094.35 1289.08C1100.67 1288.41 1098.47 1281.65 1098.28 1277.43C1098.09 1273.4 1100.33 1266.23 1093.15 1266.95C1086.67 1267.61 1090.51 1274.69 1088.71 1278Z" fill="#1FD0EF"/>
<path d="M1080.4 1262.99C1074.99 1273.65 1075.81 1279.85 1078.39 1287.85C1085.12 1280.64 1082.48 1274.09 1080.4 1262.99Z" fill="#1FD0EF"/>
<path d="M1117.32 1256.31C1102.56 1256.44 1087.8 1256.6 1073.04 1256.72C1087.84 1260.94 1102.63 1261.16 1117.32 1256.31Z" fill="#1FD0EF"/>
<path d="M1111.31 1264.21C1104.73 1274 1103.06 1279.88 1106.9 1286.34C1107.25 1286.9 1109.26 1287.28 1109.54 1286.93C1114.48 1281.08 1110.46 1274.85 1111.31 1264.21Z" fill="#1FD0EF"/>
<path d="M919.572 1211.72C928.257 1207 932.222 1199.04 934.645 1189.98C916.803 1194.83 899.055 1196.56 881.086 1190.14C875.107 1188 869.16 1186.36 865.856 1180.29C864.251 1186.2 869.034 1194.89 858.649 1197.03C879.072 1201.53 898.52 1209.99 919.572 1211.72Z" fill="#1FD0EF"/>
<path d="M997.929 1024.43C1008.44 1023.83 1019.17 1027.01 1029.4 1022.32C1034.75 1015.71 1036.41 1008.35 1033.8 1000.17C1029.55 994.284 1023.04 994.724 1016.9 994.221C1012.25 993.875 1007.4 994.221 1003.03 992.521C996.167 989.815 988.772 986.07 987.954 978.266C986.915 968.354 997.017 970.556 1002.49 967.756C1014.14 961.777 1029.84 965.081 1038.4 952.053C1035.91 948.969 1032.29 949.347 1028.93 948.969C1022.88 945.287 1023.7 938.144 1020.9 933.015C1023.14 935.438 1023.14 940.693 1028.58 939.749C1032.14 940.441 1036.29 944.815 1038.71 938.144C1035.6 928.2 1033.46 918.256 1038.55 908.249C1037.42 906.11 1036.29 903.97 1035.12 901.798C1031.44 895.977 1023.86 896.669 1019.3 892.326C1018.42 892.389 1017.57 892.358 1016.68 892.295C1000.73 900.414 982.384 892.075 966.366 899.627C966.366 900.697 966.366 901.735 966.335 902.805C967.468 906.267 973.762 908.596 969.828 912.97C966.807 916.337 962.244 918.288 957.713 914.354C953.307 922.662 947.958 930.56 947.014 940.316C949.342 951.55 955.73 962.029 953.528 974.144C946.321 987.14 957.555 993.811 963.22 1002.37C966.146 1006.49 960.702 1006.08 960.041 1008.22C967.09 1009.64 974.296 1010.74 978.199 1017.98C979.74 1019.08 981.283 1020.15 982.825 1021.25C986.79 1027.55 993.398 1020.87 997.929 1024.37V1024.43Z" fill="#F9AFF3"/>
<path d="M1078.96 1338.26C1085.06 1343.67 1093.31 1343.95 1100.33 1347.2C1110.02 1347.67 1115.18 1344.36 1116.06 1333.38C1117.04 1321.08 1120.5 1308.99 1122.89 1296.78C1115.9 1290.46 1108.01 1294.05 1100.42 1294.77C1088.18 1295.93 1076.35 1295.68 1066.72 1286.43C1049.06 1276.49 1029.81 1269.37 1013.85 1256.44C1007.34 1252.79 1003.88 1245.55 997.174 1242.09C992.202 1241.18 987.859 1242.31 984.24 1245.96C980.181 1256.35 987.324 1262.99 993.177 1269.09C1005.36 1281.84 1018.82 1293.29 1033.36 1303.39C1045.32 1310.6 1057.37 1317.87 1070.75 1321.96C1080.12 1324.82 1081.01 1330.45 1078.96 1338.29V1338.26Z" fill="#9B44FC"/>
<path d="M948.463 1081.21C956.959 1061.79 974.046 1068.43 988.773 1067.93C994.186 1067.74 1001.3 1073.66 1003.91 1063.62C1007.15 1058.21 1004.89 1053.64 1001.68 1049.21C998.907 1046.53 995.571 1044.96 991.92 1043.92C976.06 1040.62 975.872 1040.27 982.386 1025.79C983.456 1023.43 984.148 1021.04 983.644 1018.43C982.732 1016.04 981.001 1014.56 978.609 1013.74C968.319 1012.8 960.893 1016.64 957.274 1026.68C950.225 1035.9 945.41 1046.34 942.484 1057.42C940.218 1065.98 938.991 1075.17 948.463 1081.18V1081.21Z" fill="#9B44FC"/>
<path d="M1058.19 1032.31C1053.25 1042.32 1043.68 1051.32 1051.3 1064.03C1055.58 1075.86 1059.83 1068.31 1064.08 1064.03C1069.08 1059.88 1074.12 1055.69 1079.12 1051.51C1088.46 1035.14 1099.52 1019.2 1094.11 999.36C1093.28 996.317 1094.5 992.718 1092.88 990.015C1092.2 988.886 1091.08 987.887 1090.28 986.844C1088.47 984.503 1086.29 982.705 1083.62 981.639C1081.17 980.657 1078.34 980.472 1075.94 981.602C1075.16 981.974 1074.4 982.446 1073.67 982.999C1067.95 988.789 1062.63 994.862 1061.75 1003.48C1066.15 1013.77 1059.42 1022.68 1058.19 1032.28V1032.31Z" fill="#9B44FC"/>
<path d="M946.478 1221.83C940.341 1223.46 944.684 1226.04 946.1 1227.99C952.016 1236.24 958.089 1244.39 964.131 1252.57C984.68 1272.9 1003.91 1294.74 1028.74 1310.25C1033.77 1308.84 1037.45 1306.48 1035.41 1300.31C1018.7 1282.97 995.663 1271.73 985.184 1248.35C985.467 1245.93 981.888 1240.66 980.44 1238.71C969.772 1229.02 962.338 1221.95 946.478 1221.86V1221.83Z" fill="#9B44FC"/>
<path d="M1035.41 1300.28C1033.17 1303.58 1030.97 1306.92 1028.74 1310.22C1043.62 1322.9 1060.83 1331.43 1078.99 1338.26C1082.67 1334.76 1086.35 1331.27 1091.17 1326.74C1071.78 1317.55 1053.6 1308.9 1035.44 1300.28H1035.41Z" fill="#9B44FC"/>
<path d="M1063.29 1287.34C1063.13 1270.51 1065.46 1253.55 1061.24 1236.87C1046.73 1240.71 1033.01 1235.42 1019.01 1233.12C1010.86 1240.2 1005.73 1248.32 1010.01 1259.62C1025.74 1272.77 1043.24 1282.53 1063.29 1287.34Z" fill="#9B44FC"/>
<path d="M1019.61 1230.98C1012.28 1235.7 1004.94 1240.42 997.613 1245.15C999.753 1251.69 1004.25 1256.16 1009.98 1259.62C1013.38 1251.25 1016.78 1242.91 1020.18 1234.54C1020.9 1233.22 1020.65 1232.02 1019.58 1230.98H1019.61Z" fill="#9B44FC"/>
<path d="M1014.6 1124.89C1016.84 1142.01 1019.07 1159.16 1021.34 1176.28C1035.44 1185.06 1046.86 1183.04 1056.11 1170.14C1054.25 1154.69 1052.4 1139.21 1050.57 1123.75C1036.13 1114.25 1026.53 1114.57 1014.64 1124.89H1014.6Z" fill="#9B44FC"/>
<path d="M1014.61 1124.89C1026.5 1122.25 1038.52 1122.18 1050.54 1123.76C1053.03 1106.86 1045.64 1091.22 1044.79 1073.75C1038.96 1076.52 1033.84 1081.27 1029.21 1080.8C1002.81 1078.25 1009.67 1095.78 1010.67 1110.01C1010.83 1112.05 1010.67 1114.13 1010.67 1116.17C1012 1119.07 1013.32 1121.99 1014.64 1124.89H1014.61Z" fill="#9B44FC"/>
<path d="M1056.11 1170.14C1045.35 1176.94 1033.36 1176.75 1021.34 1176.28C1019.2 1190.15 1023.92 1203.69 1023.51 1217.47C1034.69 1217.53 1047.06 1221.73 1060.61 1230.06C1062.38 1211.05 1057.88 1192.39 1057.78 1173.48C1057.21 1172.34 1056.65 1171.24 1056.08 1170.11L1056.11 1170.14Z" fill="#9B44FC"/>
<path d="M1060.61 1230.09C1052.37 1208.97 1040.07 1204.78 1023.51 1217.5C1022.22 1221.75 1020.9 1225.99 1019.61 1230.21C1019.8 1231.41 1019.99 1232.57 1020.21 1233.77C1035.97 1245.76 1051.33 1246.64 1061.24 1236.1C1061.02 1234.11 1060.83 1232.1 1060.61 1230.12V1230.09Z" fill="#9B44FC"/>
<path d="M997.926 1022.36C993.332 1019.22 988.108 1019 982.821 1019.25C982.255 1020.1 981.751 1021.01 981.09 1021.8C976.622 1027.11 967.465 1031.43 970.297 1038.95C973.412 1047.25 983.01 1047.92 991.475 1047.63C983.105 1036.68 984.961 1029.51 997.926 1022.36Z" fill="#9B44FC"/>
<path d="M1009.48 1583.24L1009.54 1565.56C999.252 1555.8 986.79 1560.62 975.084 1560.36C972.032 1564.01 973.228 1567.44 975.588 1570.81C983.235 1576.41 992.99 1573.3 1001.14 1576.79C1003.09 1577.58 999.504 1578.62 1000.89 1577.04C992.203 1574.02 983.266 1573.58 974.203 1574.37C968.507 1577.23 970.018 1582.14 970.647 1586.83C978.797 1589.47 987.137 1587.49 995.413 1588.06C1000.64 1587.99 1005.86 1587.96 1009.48 1583.3V1583.24Z" fill="#F187FF"/>
<path d="M1013.38 1540.22C1002.43 1542.87 992.262 1538.18 981.72 1536.92C980.65 1540.13 979.612 1543.34 978.542 1546.55C986.189 1557.66 997.612 1560.14 1010.23 1553.47C1011.27 1549.06 1012.34 1544.63 1013.38 1540.22Z" fill="#F187FF"/>
<path d="M966.804 1590.13C966.93 1593.25 967.088 1596.39 967.213 1599.51C981.122 1607.94 995.031 1608.13 1008.85 1599.32C1009.03 1597.15 1009.26 1594.98 1009.44 1592.77C1004.47 1586.67 996.825 1588.81 990.563 1586.7C983.766 1586.64 976.874 1585.57 970.423 1588.65C969.227 1589.12 968 1589.63 966.804 1590.1V1590.13Z" fill="#F187FF"/>
<path d="M1010.23 1553.47C999.407 1552.43 988.078 1553.66 978.575 1546.55C973.54 1549.79 972.47 1554.04 975.428 1559.26C987.04 1561.46 998.557 1565.27 1010.51 1561.31C1013.35 1558.57 1013.82 1555.93 1010.23 1553.44V1553.47Z" fill="#F187FF"/>
<path d="M970.425 1588.68C977.317 1589.25 984.208 1589.82 991.068 1590.38C996.512 1591.17 1002.02 1592.78 1008.06 1588.59C1004.35 1582.99 998.4 1586.1 994.246 1584.28C986.348 1584.88 977.883 1579.91 970.645 1586.77C970.456 1587.39 970.362 1588.02 970.394 1588.68H970.425Z" fill="#F6F6DA"/>
<path d="M1010.51 1561.34C998.713 1562.25 987.29 1556.96 975.426 1559.29L975.08 1560.36C985.685 1567.82 998.115 1563.45 1009.54 1565.55C1009.85 1564.17 1010.2 1562.75 1010.51 1561.37V1561.34Z" fill="#F6F6DA"/>
<path d="M974.2 1574.3C984.491 1578.9 995.127 1576.79 1005.61 1577.95C1005.73 1576.66 1005.86 1575.34 1005.98 1574.05C995.851 1572.95 985.718 1571.88 975.585 1570.78C975.113 1571.94 974.672 1573.14 974.2 1574.3Z" fill="#F6F6DA"/>
<path d="M1008.84 1599.32C994.967 1599.38 981.089 1599.44 967.18 1599.51C964.348 1606.81 957.425 1612.09 956.765 1620.46C979.799 1623.74 1002.83 1628.08 1026.03 1621.38C1018.79 1615.21 1009.69 1610.49 1008.84 1599.32Z" fill="#F6F6DA"/>
<path d="M994.244 1584.28C997.863 1585.47 1001.51 1586.64 1009.1 1589.12C1000.41 1589.75 995.723 1590.07 991.066 1590.42C996.824 1594.07 1003.24 1592.68 1009.44 1592.84C1009.44 1589.63 1009.44 1586.45 1009.47 1583.24C1004.41 1583.59 999.31 1583.93 994.244 1584.28Z" fill="#F6F6DA"/>
<path d="M944.75 989.054C932.225 974.925 924.799 973.289 912.935 982.131C919.827 982.603 925.617 984.019 929.834 990.911C935.026 999.344 941.005 999.628 944.75 989.086V989.054Z" fill="#F9AFF3"/>
<path d="M899.966 1407.3C902.798 1403.81 905.631 1400.32 910.036 1394.87C898.298 1398.05 888.763 1400.03 882.281 1408.97C889.172 1413.09 894.207 1405.73 900.249 1407.08L899.966 1407.3Z" fill="#F6F5D8"/>
<path d="M1283.22 786.802C1275.83 783.707 1277.13 773.563 1274.44 766.685C1271.84 765.138 1269.2 763.547 1266.6 762C1265.75 762 1264.92 762.086 1264.13 762.344C1270.51 778.076 1275.8 794.84 1283.51 809.24C1290.58 822.436 1314.34 804.146 1321.13 802.856C1314.37 801.739 1286.81 813.065 1285.38 794.797C1284.65 792.132 1283.95 789.467 1283.26 786.802H1283.22Z" fill="#F9B0F3"/>
<path d="M1245.52 802.133C1249.14 814.531 1251.87 826.363 1237.59 838.07C1259.33 828.094 1260.21 822.493 1245.52 802.133Z" fill="#F9B0F3"/>
<path d="M1032.29 1000.04C1027.79 1007 1029.33 1014.77 1029.37 1022.32C1043.68 1020.65 1054.6 1012.25 1065.55 1003.94C1068.61 998.438 1071.63 992.962 1074.65 987.487C1074.27 986.731 1073.7 986.291 1072.85 986.134C1066.22 977.165 1060.02 983.459 1054.13 987.015C1048.06 990.696 1043.43 996.99 1035.44 997.116C1034.05 997.745 1032.98 998.721 1032.26 1000.04H1032.29Z" fill="#F9AFF3"/>
<path d="M1038.55 907.018C1024.7 913.846 1024.77 926.024 1038.71 936.912C1044.59 936.346 1050.23 934.993 1051.11 927.944C1052.37 917.874 1046.39 911.832 1038.55 907.018Z" fill="black"/>
<path d="M1056.49 963.851C1057.65 980.435 1048.75 990.756 1035.12 998.089C1041.29 1002.24 1045.35 999.001 1050.13 994.847C1056.52 989.309 1062.31 981.221 1072.89 984.777C1072.54 975.431 1074.96 965.833 1070.34 956.896C1070.31 957.4 1070.34 957.903 1070.21 958.407C1069.01 963.568 1072.89 971.278 1067.28 973.638C1060.05 976.69 1062.09 965.141 1056.49 963.851Z" fill="#F9AFF3"/>
<path d="M1028.58 938.518C1023.23 931.437 1021.65 921.305 1011.11 916.805C1011.99 927.819 1022.57 934.867 1018.79 946.7C1017.56 950.539 1025.37 946.7 1028.89 947.707C1028.8 944.654 1028.67 941.57 1028.58 938.518Z" fill="#C13726"/>
<path d="M1019.3 891.095C1017.25 906.515 1028.71 899.371 1035.13 900.567C1037.27 898.176 1043.02 898.333 1040.95 893.015C1039.53 889.459 1036.6 887.256 1032.55 887.13C1027.7 887.004 1023.32 888.515 1019.3 891.095Z" fill="black"/>
<path d="M1010.77 1174.28C1010.77 1183.56 1010.36 1192.91 1010.83 1202.16C1011.33 1211.57 1007.06 1215.47 998.055 1215.28C989.275 1215.09 980.433 1215.47 971.716 1214.62C967.311 1214.21 960.01 1214.68 962.999 1205.97C948.713 1209.02 956.863 1215.85 960.325 1221.89C962.653 1226.67 965.328 1231.05 971.685 1230.54C1002.4 1239.16 1014.04 1230.51 1013.47 1198.85C1013.32 1190.64 1015.3 1182.05 1010.74 1174.28H1010.77Z" fill="#1FD0EF"/>
<path d="M971.748 1230.51C967.94 1227.62 964.164 1224.75 960.357 1221.86C955.731 1221.86 951.105 1221.83 946.479 1221.79C960.294 1226.39 973.203 1237.51 985.161 1245C981.73 1240.28 977.577 1232.45 974.147 1227.7L971.748 1230.51Z" fill="#1FD0EF"/>
<path d="M957.709 913.09C957.331 918.251 958.275 923.663 964.758 920.579C970.327 917.936 979.736 917.779 980.114 909.943C980.492 901.887 972.404 902.107 966.331 901.541C963.467 905.38 960.572 909.219 957.709 913.09Z" fill="black"/>
<path d="M972.595 1133.5C973.225 1138.72 973.508 1145.74 981.941 1146.24C988.235 1146.62 992.074 1142.94 990.437 1136.3C988.958 1130.22 990.469 1121.38 980.368 1121.29C973.067 1121.22 972.532 1126.79 972.595 1133.46V1133.5Z" fill="#1FD0EF"/>
<path d="M965.954 939.525C966.111 946.007 970.832 952.521 979.454 953.087C987.038 953.591 989.524 946.794 989.209 939.871C988.8 930.997 984.269 924.451 975.301 923.822C966.741 923.224 966.08 930.399 965.954 939.556V939.525Z" fill="black"/>
<path d="M946.068 1632.33C945.375 1631.13 944.809 1629.72 944.4 1627.99C945.658 1625 946.602 1622.79 947.861 1619.81C951.7 1617.51 956.074 1616.82 960.606 1616.6C960.795 1616.6 960.952 1616.6 961.141 1616.6C982.697 1619.18 1004.63 1616.41 1026.03 1621.38C1026.91 1621.19 1027.79 1621.06 1028.7 1620.97C1028.42 1626.67 1029.8 1630.35 1033.01 1632.3H946.036L946.068 1632.33Z" fill="#F6F6DA"/>
<path d="M1007.18 949.564L1005.58 950.446L1003.75 950.225C979.425 956.016 971.118 968.477 976.75 990.693C980.936 999.977 987.009 1006.84 998.118 1007.12C1015.87 1001.08 1033.99 996.641 1052.49 993.84C1066.84 991.669 1071.5 983.361 1064.96 970.271C1058.13 956.676 1046.33 950.603 1031.51 950.037C1023.39 949.722 1015.27 949.722 1007.18 949.564Z" fill="black"/>
<path d="M1017.06 964.101C1017.06 964.101 1044.03 962.874 1039.75 955.006C1039.53 954.597 1039.12 954.346 1038.65 954.283C1033.58 953.527 1002.43 949.405 989.496 959.506C988.899 959.978 988.741 960.86 989.15 961.489C990.66 963.818 997.489 965.233 1017.25 964.069" fill="#E6E9EE"/>
<path d="M1021.81 977.601C1021.81 977.601 995.03 981.408 1000.16 994.216C1000.41 994.876 1000.88 995.254 1001.32 995.348C1006.45 996.261 1038.02 1001.14 1049.82 983.422C1050.35 982.604 1050.41 981.125 1049.94 980.086C1048.18 976.31 1041.23 974.359 1021.62 977.601" fill="#F187FF"/>
<defs>
<linearGradient id="paint0_linear_232_6674" x1="179.407" y1="1006.33" x2="367.869" y2="1092.53" gradientUnits="userSpaceOnUse">
<stop stop-color="#F3A6A2"/>
<stop offset="1" stop-color="#F187FF"/>
</linearGradient>
<linearGradient id="paint1_linear_232_6674" x1="18.3719" y1="861.241" x2="138.849" y2="919.988" gradientUnits="userSpaceOnUse">
<stop stop-color="#FFBCF9"/>
<stop offset="1" stop-color="#F1A0EB"/>
</linearGradient>
<linearGradient id="paint2_linear_232_6674" x1="528.496" y1="1231.53" x2="563.208" y2="1321.6" gradientUnits="userSpaceOnUse">
<stop stop-color="#F187FF"/>
<stop offset="1" stop-color="#F3A6A2"/>
</linearGradient>
<linearGradient id="paint3_linear_232_6674" x1="217.555" y1="1485.27" x2="217.555" y2="1542.91" gradientUnits="userSpaceOnUse">
<stop stop-color="#F3A6A2"/>
<stop offset="1" stop-color="#F187FF"/>
</linearGradient>
<linearGradient id="paint4_linear_232_6674" x1="445.031" y1="1572.45" x2="445.031" y2="1622.63" gradientUnits="userSpaceOnUse">
<stop stop-color="#F3A6A2"/>
<stop offset="1" stop-color="#F187FF"/>
</linearGradient>
<linearGradient id="paint5_linear_232_6674" x1="544.737" y1="1214.85" x2="565.522" y2="1268.78" gradientUnits="userSpaceOnUse">
<stop stop-color="#F187FF"/>
<stop offset="1" stop-color="#F3A6A2"/>
</linearGradient>
<linearGradient id="paint6_linear_232_6674" x1="98.729" y1="932.955" x2="127.193" y2="942.972" gradientUnits="userSpaceOnUse">
<stop stop-color="#FFBCF9"/>
<stop offset="1" stop-color="#F1A0EB"/>
</linearGradient>
<linearGradient id="paint7_linear_232_6674" x1="507.895" y1="1271.8" x2="516.203" y2="1293.35" gradientUnits="userSpaceOnUse">
<stop stop-color="#F187FF"/>
<stop offset="1" stop-color="#F3A6A2"/>
</linearGradient>
<linearGradient id="paint8_linear_232_6674" x1="58.517" y1="834.785" x2="83.5092" y2="846.525" gradientUnits="userSpaceOnUse">
<stop stop-color="#FFBCF9"/>
<stop offset="1" stop-color="#F1A0EB"/>
</linearGradient>
<linearGradient id="paint9_linear_232_6674" x1="338.281" y1="1089.25" x2="389.664" y2="1115.85" gradientUnits="userSpaceOnUse">
<stop stop-color="#F3A6A2"/>
<stop offset="1" stop-color="#F187FF"/>
</linearGradient>
<linearGradient id="paint10_linear_232_6674" x1="234.311" y1="1149.73" x2="283.141" y2="1171.74" gradientUnits="userSpaceOnUse">
<stop stop-color="#F3A6A2"/>
<stop offset="1" stop-color="#EFC71D"/>
</linearGradient>
<linearGradient id="paint11_linear_232_6674" x1="183.487" y1="1046.8" x2="218.717" y2="1057.26" gradientUnits="userSpaceOnUse">
<stop stop-color="#F3A6A2"/>
<stop offset="1" stop-color="#F187FF"/>
</linearGradient>
<linearGradient id="paint12_linear_232_6674" x1="354.8" y1="1073.65" x2="392.687" y2="1090.8" gradientUnits="userSpaceOnUse">
<stop stop-color="#F3A6A2"/>
<stop offset="1" stop-color="#F187FF"/>
</linearGradient>
</defs>
</svg>
