<svg width="1560" height="1648" viewBox="0 0 1560 1648" fill="none" xmlns="http://www.w3.org/2000/svg">
<path d="M955.182 21.5298C889.882 1.50979 856.602 32.7098 844.102 58.5898C840.412 66.2298 832.592 71.0098 824.102 71.0098C819.212 71.0098 814.482 69.2698 810.752 66.0998L810.292 65.7098C806.092 62.1398 802.132 58.2698 798.632 53.9998C782.202 33.9498 751.212 17.1998 736.772 10.9698C684.332 -12.2002 640.212 20.6198 624.702 39.9298C590.632 74.1998 617.782 120.24 630.242 136.63C642.112 152.63 658.132 156.58 672.632 162.11C686.482 167.39 701.422 169.06 716.182 167.62C720.812 167.17 725.872 166.92 730.922 166.9C743.692 166.83 755.002 175.01 759.142 187.09C759.372 187.75 759.602 188.4 759.832 189.03C765.112 203.31 761.182 219.4 750.102 229.83C735.572 243.51 713.872 257.8 695.662 268.43C685.712 274.24 675.142 278.9 664.152 282.38L611.402 299.08C558.012 312.37 562.182 362.75 570.942 386.28C573.332 392.95 576.092 398.97 579.142 404.42C608.232 456.44 677.532 469.24 724.262 432.26C755.952 407.18 782.692 367.82 797.852 335.36C800.442 329.82 806.942 327.33 812.542 329.77C817.012 331.71 818.802 337.09 816.422 341.35C776.992 411.72 795.222 476.38 809.882 500.62C874.402 593.06 924.972 546.58 942.192 511.78C965.162 472.21 947.232 403.46 930.982 362.5C927.402 353.47 931.752 343.25 940.712 339.51L942.772 338.65C949.902 335.68 958.162 337.75 962.982 343.79C1031.05 429.13 1099.58 395.43 1126.16 366.66C1148.25 309.26 1092.87 264.19 1056.39 245.41C1052.2 243.25 1050.11 238.49 1051.26 233.93C1063.01 187.41 1029.43 136.35 1007.02 112.09C1004.53 109.4 1003.54 105.66 1004.29 102.07C1014.78 51.6698 976.452 27.4298 955.192 21.5198L955.182 21.5298Z" fill="white" stroke="black" stroke-width="5"/>
<path d="M801.622 248.121C801.622 248.121 856.202 309.671 942.142 279.471" stroke="black" stroke-width="5"/>
<path d="M677.124 372L678.732 893.439" stroke="white" stroke-width="4" stroke-dasharray="20 20"/>
<path d="M870.196 224L911.001 805" stroke="white" stroke-width="4" stroke-dasharray="20 20"/>
<path d="M1121.88 356L1346.66 761.5L1421.16 1211.5" stroke="white" stroke-width="4" stroke-dasharray="20 20"/>
<path d="M631.598 101L202.507 599" stroke="white" stroke-width="4" stroke-dasharray="20 20"/>
<path d="M197.684 612L176.673 1216.25" stroke="white" stroke-width="4" stroke-dasharray="20 20"/>
<path d="M823.608 210.496C822.52 210.496 821.016 210.432 819.096 210.304C817.24 210.24 815.16 209.76 812.856 208.864C810.552 208.032 808.152 206.528 805.656 204.352C804.44 203.264 803.416 201.824 802.584 200.032C801.752 198.24 801.08 196.32 800.568 194.272C800.12 192.16 799.832 190.176 799.704 188.32C799.576 186.4 799.544 184.832 799.608 183.616C799.736 181.952 799.96 180.16 800.28 178.24C800.6 176.256 800.984 174.368 801.432 172.576C801.88 170.784 802.296 169.312 802.68 168.16C804.28 163.872 806.04 160 807.96 156.544C809.944 153.024 811.832 150.016 813.624 147.52C815.416 145.024 816.792 143.136 817.752 141.856C818.2 141.344 818.808 140.64 819.576 139.744C820.408 138.848 821.208 137.92 821.976 136.96C822.744 136 823.224 135.2 823.416 134.56C825.656 135.008 827.736 135.808 829.656 136.96C831.64 138.112 833.208 139.36 834.36 140.704C835.576 141.984 836.184 143.136 836.184 144.16C836.184 145.696 835.896 146.88 835.32 147.712C834.744 148.544 834.2 149.312 833.688 150.016C833.368 150.464 832.792 151.072 831.96 151.84C831.192 152.544 830.392 153.28 829.56 154.048C828.792 154.752 828.216 155.392 827.832 155.968C827.32 156.8 826.936 157.472 826.68 157.984C826.488 158.432 826.456 159.008 826.584 159.712C826.776 160.288 827.448 160.672 828.6 160.864C829.816 160.992 830.648 161.088 831.096 161.152C835.064 161.6 838.008 162.4 839.928 163.552C841.912 164.704 843.384 165.728 844.344 166.624C846.392 168.416 847.896 170.016 848.856 171.424C849.88 172.768 850.552 174.176 850.872 175.648C851.512 178.464 851.64 181.056 851.256 183.424C850.872 185.728 850.136 188.48 849.048 191.68C848.024 194.432 846.456 197.024 844.344 199.456C842.296 201.888 839.896 204.224 837.144 206.464C835.032 208.128 832.792 209.184 830.424 209.632C828.12 210.08 825.848 210.368 823.608 210.496ZM821.112 192.832C822.968 193.344 824.792 193.056 826.584 191.968C828.44 190.88 830.264 189.344 832.056 187.36C833.464 185.696 834.456 183.968 835.032 182.176C835.608 180.384 835.8 179.072 835.608 178.24C835.288 176.832 834.552 175.712 833.4 174.88C832.312 174.048 831.096 173.504 829.752 173.248C828.472 172.992 827.352 173.088 826.392 173.536C824.984 174.176 823.768 174.88 822.744 175.648C821.72 176.416 820.728 177.632 819.768 179.296C818.808 181.024 818.264 182.624 818.136 184.096C818.008 185.568 817.976 186.816 818.04 187.84C818.168 189.696 818.552 190.944 819.192 191.584C819.832 192.224 820.472 192.64 821.112 192.832ZM887.225 206.944C884.025 207.008 880.793 206.592 877.529 205.696C874.265 204.8 871.705 203.648 869.849 202.24C868.057 200.896 866.137 198.944 864.089 196.384C862.041 193.824 860.505 190.4 859.481 186.112C858.393 181.44 857.945 177.088 858.137 173.056C858.393 168.96 859.001 165.312 859.961 162.112C860.921 158.848 861.977 156.128 863.129 153.952C864.793 150.688 867.065 147.488 869.945 144.352C872.889 141.216 876.761 138.88 881.561 137.344C884.633 136.32 887.673 135.936 890.681 136.192C893.753 136.448 896.441 137.024 898.745 137.92C901.113 138.816 902.745 139.712 903.641 140.608C906.649 143.296 908.889 146.592 910.361 150.496C911.897 154.4 912.793 158.624 913.049 163.168C913.305 167.712 912.985 172.352 912.089 177.088C910.681 184.512 908.313 190.624 904.985 195.424C901.657 200.16 897.881 203.392 893.657 205.12C891.865 205.888 890.617 206.368 889.913 206.56C889.209 206.688 888.313 206.816 887.225 206.944ZM883.001 187.84C885.817 188.096 888.121 187.552 889.913 186.208C891.705 184.8 893.145 182.816 894.233 180.256C895.321 177.632 896.217 174.72 896.921 171.52C897.625 168.256 897.753 165.184 897.305 162.304C896.857 159.424 895.769 157.088 894.041 155.296C892.377 153.44 890.009 152.512 886.937 152.512C883.929 152.576 881.529 153.856 879.737 156.352C877.945 158.848 876.665 162.688 875.897 167.872C875.641 169.792 875.481 171.872 875.417 174.112C875.417 176.288 875.641 178.4 876.089 180.448C876.537 182.496 877.305 184.192 878.393 185.536C879.545 186.88 881.081 187.648 883.001 187.84ZM996.752 140.32C996.688 141.152 995.824 142.752 994.16 145.12C992.56 147.424 990.416 150.24 987.728 153.568C985.104 156.832 982.224 160.352 979.088 164.128C975.952 167.904 972.784 171.648 969.584 175.36C966.448 179.072 963.504 182.496 960.752 185.632C958.064 188.768 955.824 191.392 954.032 193.504C952.304 195.552 951.28 196.8 950.96 197.248C949.744 199.168 949.04 200.288 948.848 200.608C948.656 200.928 948.56 201.088 948.56 201.088C948.624 202.88 948.176 204.768 947.216 206.752C946.32 208.736 945.2 210.176 943.856 211.072C943.856 211.072 943.664 211.04 943.28 210.976C942.96 210.976 941.776 210.944 939.728 210.88C938.448 210.816 937.136 210.432 935.792 209.728C934.448 209.088 933.392 208.096 932.624 206.752C931.856 205.408 931.728 203.712 932.24 201.664C932.432 200.768 933.392 199.008 935.12 196.384C936.848 193.76 939.056 190.592 941.744 186.88C944.432 183.168 947.408 179.2 950.672 174.976C953.936 170.688 957.232 166.464 960.56 162.304C963.952 158.08 967.12 154.208 970.064 150.688C973.072 147.104 975.664 144.128 977.84 141.76C980.016 139.392 981.52 137.952 982.352 137.44C983.824 136.48 985.424 135.84 987.152 135.52C988.88 135.2 990.48 135.168 991.952 135.424C993.488 135.616 994.704 136.128 995.6 136.96C996.56 137.792 996.944 138.912 996.752 140.32ZM942.992 174.4C941.776 174.784 940.208 174.88 938.288 174.688C936.432 174.432 934.448 173.92 932.336 173.152C930.224 172.32 928.24 171.232 926.384 169.888C924.528 168.48 922.992 166.816 921.776 164.896C920.56 162.912 919.92 160.64 919.856 158.08C919.792 154.816 920.144 151.68 920.912 148.672C921.68 145.664 923.184 143.104 925.424 140.992C927.664 138.88 930.96 137.6 935.312 137.152C939.728 136.64 943.6 137.024 946.928 138.304C950.256 139.52 952.848 141.504 954.704 144.256C956.56 147.008 957.488 150.432 957.488 154.528C957.488 158.624 956.688 162.048 955.088 164.8C953.552 167.488 951.664 169.632 949.424 171.232C947.184 172.768 945.04 173.824 942.992 174.4ZM933.872 156.064C934.384 156.96 935.216 157.696 936.368 158.272C937.584 158.784 938.768 159.008 939.92 158.944C941.072 158.816 941.776 158.272 942.032 157.312C942.416 155.84 942.224 154.56 941.456 153.472C940.688 152.32 939.376 151.68 937.52 151.552C936.176 151.424 935.024 151.808 934.064 152.704C933.168 153.536 933.104 154.656 933.872 156.064ZM990.128 169.696C992.944 169.76 995.408 170.4 997.52 171.616C999.696 172.832 1001.49 174.4 1002.9 176.32C1004.37 178.24 1005.49 180.32 1006.26 182.56C1007.02 184.8 1007.44 186.976 1007.5 189.088C1007.57 191.2 1007.09 193.376 1006.06 195.616C1005.1 197.792 1003.73 199.84 1001.94 201.76C1000.14 203.68 998 205.248 995.504 206.464C993.008 207.616 990.256 208.192 987.248 208.192C984.24 208.192 981.584 207.424 979.28 205.888C976.976 204.288 975.088 202.272 973.616 199.84C972.144 197.344 971.088 194.752 970.448 192.064C969.872 189.312 969.776 186.784 970.16 184.48C970.544 182.176 971.44 180.096 972.848 178.24C974.32 176.384 976.08 174.816 978.128 173.536C980.176 172.256 982.256 171.296 984.368 170.656C986.48 169.952 988.4 169.632 990.128 169.696ZM991.088 192.928C992.368 192.736 993.232 192.192 993.68 191.296C994.128 190.4 994.288 189.472 994.16 188.512C994.032 187.488 993.712 186.72 993.2 186.208C992.432 185.44 991.44 184.896 990.224 184.576C989.072 184.192 988.08 184.064 987.248 184.192C986.288 184.32 985.488 184.768 984.848 185.536C984.272 186.24 983.92 187.04 983.792 187.936C983.728 188.768 983.952 189.472 984.464 190.048C985.232 190.944 986.032 191.712 986.864 192.352C987.76 192.992 989.168 193.184 991.088 192.928Z" fill="black"/>
<path d="M881.672 244.246C881.672 244.246 903.732 260.506 932.772 247.726" stroke="black" stroke-width="5"/>
<path d="M299.014 1586.83C310.815 1564.17 320.539 1597.43 314.308 1587.33C306.063 1573.93 271.322 1531 256.438 1554.41C241.553 1577.83 225.662 1637.18 238.91 1645.58C252.158 1653.98 286.238 1611.4 299.046 1586.83H299.014Z" fill="#FDC50C"/>
<path d="M553.666 1503.55C553.792 1478.01 577.657 1503.13 567.495 1497C554.03 1488.85 503.499 1466.58 500.977 1494.21C498.455 1521.84 511.481 1581.88 527.106 1583.29C542.73 1584.7 553.552 1531.25 553.694 1503.54L553.666 1503.55Z" fill="#FDC50C"/>
<path d="M473.472 1444.53C467.178 1453.97 460.853 1463.38 454.559 1472.82C448.454 1475.37 444.584 1471.15 440.996 1467.69C433.696 1460.7 427.496 1461.18 421.643 1469.23C410.976 1483.9 396.815 1494.19 380.515 1501.58C368.399 1507.09 359.368 1513.38 368.179 1528.39C369.532 1530.69 368.682 1533.46 366.952 1535.63C365.913 1536.13 364.843 1536.64 363.805 1537.14C349.77 1534.09 343.571 1522.73 345.238 1503.12C352.413 1494.06 363.71 1491.79 373.214 1486.63C385.738 1479.8 397.791 1472.6 406.822 1461.3C415.665 1452.27 419.503 1441.32 419.094 1428.79C424.633 1416.68 430.171 1404.6 435.71 1392.48C430.077 1386.5 440.461 1377.22 432.531 1372.78C426.395 1369.35 418.276 1371.24 411.227 1369.45C386.273 1363.12 363.427 1353.14 346.654 1332.44C346.245 1330.93 346.214 1329.39 346.466 1327.84C347.378 1324.82 349.298 1322.43 351.28 1320.07C360.878 1311.29 372.207 1304.37 380.263 1293.86C412.895 1267.27 440.997 1236.55 464.315 1201.44C466.045 1198.82 468.028 1196.37 471.269 1195.43C480.678 1197.79 481.685 1205.59 479.891 1212.51C476.241 1226.67 482 1232.12 495.248 1232.62C499.276 1236.65 497.922 1241.56 496.223 1245.59C492.51 1254.37 495.374 1259.87 503.901 1261.98C512.901 1264.18 516.929 1258.08 519.037 1250.5C519.982 1247.07 519.415 1243.29 521.146 1239.98C524.859 1234.04 531.247 1231.83 537.006 1228.85C543.898 1225.26 548.649 1227.02 550.16 1235.17C549.341 1251.16 545.502 1266.23 536.471 1279.7C534.017 1282.22 531.153 1284.01 527.754 1284.95C524.419 1285.68 521.083 1285.68 517.748 1284.89C508.874 1279.7 498.709 1277.37 489.772 1272.3C475.769 1261.13 460.129 1264.25 444.521 1267.17C437.818 1266.95 432.972 1269.28 430.014 1275.86C426.112 1284.64 420.511 1292.66 418.623 1302.29C410.976 1338.61 439.801 1367.71 477.594 1355.85C487.632 1355.76 496.664 1351.51 506.136 1349.02C511.611 1347.57 517.276 1346.41 522.877 1348.83C527.157 1352.07 525.835 1356.42 524.513 1360.23C514.16 1390.06 496.507 1415.83 478.821 1441.57C477.626 1443.3 475.517 1444.06 473.44 1444.5L473.472 1444.53Z" fill="black"/>
<path d="M292.062 1111.43C286.681 1102.81 280.23 1108.1 274.597 1110.55C256.818 1118.29 248.888 1133.84 244.356 1151.75C215.783 1134.5 207.192 1100.42 221.605 1063.95C229.849 1038.24 250.902 1027.38 273.968 1019.17C290.552 1013.29 309.212 1014.73 324.789 1005.13C329.698 998.589 340.177 1002.52 344.425 994.719C349.806 991.698 355.188 988.708 360.569 985.688C378.191 996.072 375.642 1013.6 374.037 1029.21C372.495 1044.31 373.565 1059.45 371.425 1074.43C367.271 1113.45 366.107 1114.71 326.079 1114.39C314.751 1114.3 303.013 1117.19 292.125 1111.43H292.062Z" fill="black"/>
<path d="M441.785 1262.58C453.46 1258.36 465.575 1260 477.565 1259.75C484.96 1259.59 488.736 1264.18 492.575 1269.15C496.855 1281.74 491.065 1286.75 479.107 1287.09C475.614 1286.46 474.103 1282.94 470.988 1281.4C471.554 1284.01 474.072 1284.7 475.393 1286.43C483.858 1293.04 492.292 1286.59 500.568 1285.99C514.225 1284.95 528.323 1286.05 541.383 1280.29C564.669 1279.7 587.578 1274.32 610.927 1275.1C630.249 1275.73 641.735 1283.85 647.084 1300.31C651.27 1312.39 649.13 1323.63 644.063 1335.14C630.784 1365.35 615.144 1394.05 594.217 1419.67C586.413 1422 579.9 1418.75 573.637 1414.73C567.533 1410.82 565.11 1406.04 568.917 1398.9C584.903 1369.03 596.2 1337.16 608.724 1305.78C596.672 1335.49 586.13 1365.89 571.183 1394.34C563.945 1408.09 559.949 1408.62 547.582 1398.62C546.889 1380.02 556.393 1365.98 568.099 1352.99C575.872 1350.37 573.008 1342.16 576.344 1337.22C580.057 1326.46 586.728 1317.02 590.882 1305.25C559.477 1312.61 528.26 1316.89 497.893 1325.11C484.204 1328.79 470.516 1330.86 456.355 1329.89C441.439 1327.37 428.726 1321.2 425.705 1305.12C422.558 1288.29 426.334 1272.93 441.785 1262.55V1262.58Z" fill="#1EF99A"/>
<path d="M292.059 1111.44C306.691 1105.14 322.048 1108.95 337.058 1108.57C361.635 1107.91 361.572 1108.39 363.932 1084.25C364.278 1080.69 365.789 1077.23 366.764 1073.74C372.68 1060.14 383.537 1055.33 397.666 1056.4C400.183 1056.15 402.701 1056.34 405.218 1056.71C421.016 1056.18 435.019 1060.43 449.935 1066.72C465.763 1073.42 484.865 1070.56 502.329 1065.46C509.284 1063.45 516.805 1054.39 523.382 1063.23C529.927 1072.07 520.015 1078.18 516.081 1085.07C508.214 1095.2 497.358 1099.83 485.085 1101.84C474.291 1098.66 466.518 1106.53 457.361 1109.46C432.124 1118.39 410.757 1134.5 387.407 1147C369.974 1156.31 353.296 1167.04 335.264 1175.26C329.411 1177.93 323.495 1182.93 316.509 1177.52C305.307 1175.03 294.419 1172.01 285.859 1163.55C268.3 1146.18 270.314 1128.62 292.059 1111.47V1111.44Z" fill="black"/>
<path d="M363.05 979.523C358.361 972.316 353.515 965.204 349.015 957.904C347.095 954.789 342.69 951.516 348.134 947.645C374.536 932.005 396.815 910.229 423.784 895.597C455.881 878.195 488.64 874.922 521.146 895.345C525.992 898.397 530.901 901.45 533.198 907.114C542.639 918.348 550.663 930.306 555.195 944.593C557.492 951.799 556.58 957.432 551.985 962.939C552.552 966.023 552.992 969.138 551.828 972.159C549.436 978.358 548.209 986.509 539.933 986.697C532.097 986.855 530.933 978.988 529.265 973.229C524.828 957.809 515.419 945.568 505.57 933.421C500.314 926.939 496.318 928.575 491.85 933.705C484.643 938.519 478.444 944.372 473.031 951.138C471.426 952.712 469.57 953.907 467.524 954.789C460.601 955.764 455.661 961.176 449.147 963.128C443.42 964.858 437.472 965.708 433.067 960.925C428.567 956.079 432.154 951.201 434.923 946.135C423.532 954.348 416.892 966.369 407.137 975.432C399.049 982.953 389.766 986.76 378.941 987.012C372.49 987.169 366.322 986.225 363.05 979.491V979.523Z" fill="black"/>
<path d="M488.482 932.321C491.346 927.443 494.241 922.566 497.482 917.027C515.671 936.947 534.268 956.205 536.597 985.911C547.8 981.097 545.345 968.981 552.017 962.939C568.097 962.814 578.45 970.838 584.083 985.565C586.254 988.649 585.341 990.946 582.258 992.645C576.184 991.764 574.485 984.904 569.135 983.016C555.919 981.6 552.866 986.132 554.911 1004.16C555.352 1009.61 555.478 1015.02 552.677 1019.99C549.908 1024.4 546.793 1028.58 544.087 1033.02C519.793 1072.98 471.395 1084.25 431.713 1059.3C429.101 1057.66 425.766 1057.28 423.594 1054.83C415.979 1045.76 410.283 1035.79 409.119 1023.7C406.602 1015.74 404.179 1007.72 402.731 999.474C399.427 980.719 403.518 973.198 422.525 969.013C439.014 965.362 454.591 960.233 468.783 951.076C469.947 951.139 470.671 950.572 470.954 949.44C476.619 938.52 486.185 948.055 494.052 944.877C493.045 940.408 480.174 940.377 488.482 932.321Z" fill="url(#paint0_linear_232_6675)"/>
<path d="M458.779 1105.21C466.52 1101.93 471.209 1086.23 482.978 1099.23C488.862 1103.03 490.53 1108.92 490.939 1115.4C493.111 1135.7 488.988 1155.37 484.929 1175.03C481.247 1182.18 480.901 1191.46 472.058 1195.33C450.88 1236.84 417.775 1267.83 382.531 1296.94C378.062 1299.87 373.563 1302.64 367.867 1301.88C360.094 1299.87 362.297 1289.42 355.154 1286.9C349.804 1288.04 344.486 1288.85 339.137 1289.96C336.997 1290.9 334.762 1291.47 332.434 1291.69C328.186 1291.75 324.095 1291.37 321.483 1287.34C322.49 1285.49 323.497 1283.6 324.472 1281.74C323.937 1280.3 323.811 1278.85 324.22 1277.34C339.325 1261.07 359.843 1251.85 376.458 1237.56C380.989 1234.01 385.772 1230.76 389.737 1226.48C426.681 1198.07 452.674 1163.58 452.233 1114.33C452.737 1110.08 455.475 1107.44 458.81 1105.27L458.779 1105.21Z" fill="#FDC50C"/>
<path d="M665.118 867.696C661.09 852.119 659.045 836.007 652.027 821.217C650.359 817.692 647.024 813.193 651.87 810.109C655.803 807.591 660.178 810.14 663.23 812.941C665.842 815.301 668.045 818.448 669.461 821.689C674.055 832.073 677.957 830.941 684.062 822.381C691.552 811.902 700.425 802.399 708.67 792.486C713.076 795.979 708.827 803.374 714.775 806.175C715.782 809.7 717.702 812.123 721.383 809.511C725.191 806.773 728.369 803.186 732.114 800.353C735.953 797.427 740.17 790.535 744.922 795.853C749.516 800.951 742.498 804.885 739.257 808.504C733.593 814.86 727.582 820.902 723.901 829.556C732.554 825.276 741.177 820.871 749.893 816.748C753.261 815.144 757.414 814.011 759.617 818.133C761.977 822.507 757.918 824.741 755.023 826.755C745.393 833.427 735.639 839.909 726.922 848.783C733.341 847.273 739.666 845.29 746.18 844.409C751.436 843.685 759.082 839.877 761.411 846.926C763.897 854.416 755.621 855.486 750.555 857.437C737.841 862.346 726.261 869.017 714.649 876.255C693.502 889.44 686.957 910.618 679.247 931.639C666.66 935.352 658.132 928.618 650.234 920.31C650.108 906.622 659.894 896.52 663.45 884.09C665.055 878.552 668.328 873.643 665.118 867.759V867.696Z" fill="url(#paint1_linear_232_6675)"/>
<path d="M669.775 968.066C674.023 992.423 667.258 1014.61 656.464 1035.97C641.076 1061.15 625.122 1085.95 608.947 1110.59C603.031 1119.62 597.744 1131.35 583.017 1128.15C573.388 1114.27 572.601 1096.27 561.965 1082.83C557.779 1075.56 553.028 1068.58 550.857 1060.3C554.287 1049 558 1037.96 572.035 1035.79C572.381 1036.16 572.884 1036.48 573.042 1036.95C581.664 1058.69 583.552 1059.76 604.793 1046.86C615.052 1040.63 628.929 1037.99 635.695 1029.78C648.628 1014.1 661.562 996.608 658.604 973.605C658.1 969.703 655.992 965.328 660.586 962.213C665.496 961.269 668.39 963.409 669.743 968.035L669.775 968.066Z" fill="#FDC50C"/>
<path d="M278.685 1261.48C265.28 1268.37 251.969 1275.45 238.438 1282.09C219.431 1291.4 199.763 1288.04 180.19 1284.35C177.546 1283.85 175.281 1282.25 175.06 1279.26C174.746 1274.63 178.365 1272.74 181.795 1271.8C198.19 1267.33 191.518 1262.39 182.801 1255.94C173.613 1249.14 164.99 1241.46 156.651 1233.63C152.623 1229.82 149.54 1223.97 158.351 1222.33C166.155 1220.85 164.298 1217.23 162.41 1212.54C161.435 1210.15 160.837 1206.94 163.606 1205.65C167.099 1204.05 168.955 1208.04 171.662 1209.24C180.756 1211.82 187.018 1217.3 189.441 1226.7C190.008 1233.56 193.123 1238.06 200.424 1238.79C208.763 1235.33 216.787 1235.7 224.34 1240.87C230.161 1245.46 235.888 1245.81 242.874 1242.5C250.238 1239.04 257.948 1235.86 266.318 1235.23C267.829 1235.42 269.182 1235.99 270.409 1236.84C273.965 1244.77 279.85 1251.94 278.654 1261.48H278.685Z" fill="url(#paint2_linear_232_6675)"/>
<path d="M366.92 1535.66C365.158 1532.51 363.522 1529.31 361.665 1526.22C355.12 1515.4 355.277 1507.53 368.934 1501.8C389.735 1493.09 408.804 1481.5 421.549 1461.74C427.025 1453.25 433.476 1452.93 440.619 1460.45C444.867 1464.95 449.87 1468.73 454.559 1472.82C441.783 1501.27 414.909 1512.56 389.735 1525.81C382.434 1529.65 374.535 1532.42 366.92 1535.66Z" fill="black"/>
<path d="M344.391 994.72C346.688 995.507 349.741 995.412 346.311 999.251C341.527 1004.6 333.472 1002.84 328.909 1008.09C313.489 1013.25 298.133 1019.23 281.958 1010.71C249.955 1005.04 221.098 1011.15 196.616 1035C195.924 1009.2 207.473 995.318 238.689 982.919C252.944 973.762 267.797 977.066 281.895 982.227C297.346 987.923 312.639 993.744 329.192 995.255C334.258 995.066 339.356 994.877 344.423 994.688L344.391 994.72Z" fill="black"/>
<path d="M468.787 951.107C457.616 962.656 444.274 969.988 428.319 972.757C404.718 976.848 403.806 978.107 408.243 1000.83C409.627 1007.94 411.956 1014.86 413.844 1021.88C413.403 1023.33 412.585 1024.49 411.326 1025.31C406.197 1027.1 402.452 1024.49 398.865 1021.34C394.711 1017.69 391.124 1012.75 384.295 1016.47C377.655 1020.09 377.404 1026.06 377.781 1032.42C377.876 1033.96 378.285 1035.44 378.788 1036.92C379.795 1049.6 396.064 1049.63 398.676 1060.93C385.334 1058.45 376.46 1067.19 366.736 1073.74C367.019 1058.76 366.327 1043.91 369.568 1028.93C372.872 1013.7 366.516 999.505 360.474 985.722C361.323 983.677 362.173 981.6 363.023 979.555C385.774 986.068 398.267 981.789 412.9 961.869C421.27 950.509 430.428 940.282 443.896 933.957C446.791 941.384 441.693 945.254 438.83 949.848C437.067 952.681 432.095 954.915 435.368 958.848C437.854 961.869 442.26 960.548 445.784 959.761C453.809 957.936 459.41 949.597 468.724 951.076L468.787 951.107Z" fill="black"/>
<path d="M347.79 1328.79C369.598 1351.44 395.936 1364.5 427.531 1366.23C445.939 1367.24 445.939 1367.08 439.174 1383.76C438.009 1386.66 436.877 1389.55 435.712 1392.48C403.803 1389.46 373.185 1383.32 351.283 1356.67C345.839 1350.03 339.419 1343.83 340.143 1334.11C341.307 1330.36 342.787 1327.06 347.79 1328.79Z" fill="#C29500"/>
<path d="M290.646 1518.2C292.912 1519.05 295.146 1519.86 297.412 1520.71C306.128 1531.95 305.405 1545.01 304.555 1558.07C300.244 1570.94 287.751 1579.34 285.265 1593.28C282.401 1597.12 278.657 1599.98 274.503 1602.06C264.118 1607.19 252.444 1600.93 253.923 1590.39C257.132 1567.54 257.856 1544.22 266.321 1522.32C266.888 1520.84 268.115 1519.83 269.279 1518.79C276.328 1516.18 283.503 1517.54 290.614 1518.23L290.646 1518.2Z" fill="#FDC50C"/>
<path d="M514.818 1446.35C517.221 1446.07 519.582 1445.78 521.986 1445.5C534.877 1451.5 540.209 1463.44 545.429 1475.44C547.484 1488.86 540.221 1502.04 544.389 1515.58C543.599 1520.3 541.58 1524.56 538.837 1528.31C531.95 1537.62 518.704 1537.4 515.196 1527.35C507.596 1505.56 497.57 1484.5 495.075 1461.15C494.902 1459.58 495.532 1458.12 496.092 1456.66C501.165 1451.11 508.164 1449.03 514.804 1446.4L514.818 1446.35Z" fill="#FDC50C"/>
<path d="M533.234 907.145C489.021 877.596 452.235 879.169 407.015 911.959C388.417 925.459 372.368 943.365 348.169 947.644C354.337 932.665 369.693 927.19 380.802 917.686C405.064 896.917 432.252 879.704 465.294 877.092C491.224 875.047 514.542 882.851 533.265 901.858C534.902 903.526 535.374 905.382 533.265 907.145H533.234Z" fill="white"/>
<path d="M584.493 1127.45C593.808 1124.87 598.308 1117.07 603.154 1109.83C616.686 1089.63 630.091 1069.33 643.465 1049C646.926 1043.75 650.671 1038.9 656.461 1035.98C639.783 1078.21 620.367 1119.08 596.2 1157.6C591.259 1162.98 586.57 1159.3 585.28 1155.34C582.354 1146.37 577.067 1136.9 584.525 1127.45H584.493Z" fill="#FDC50C"/>
<path d="M531.061 1284.32C535.907 1269.28 544.498 1248.23 546.48 1232.43C547.896 1226.8 543.396 1219.03 552.365 1216.13C560.169 1215.6 563.882 1210.78 566.557 1203.89C571.718 1190.48 571.686 1176.61 572.064 1162.63C572.253 1155.37 569.987 1146.65 579.238 1142.34C590.41 1155.74 583.739 1170.5 582.511 1184.82C577.728 1215.56 572.001 1246.03 558.06 1274.28C551.358 1282.97 539.998 1289.45 531.029 1284.35L531.061 1284.32Z" fill="#FDC50C"/>
<path d="M669.774 968.068C666.376 966.18 662.977 964.292 659.61 962.435C646.173 962.593 636.858 953.499 626.128 947.551C624.46 945.883 623.39 943.995 623.894 941.54C629.495 930.558 631.383 916.555 646.645 913.376C649.477 912.999 651.428 914.383 652.939 916.586C662.033 920.771 671.096 924.988 680.19 929.173C688.97 936.569 683.148 943.932 679.813 950.949C676.981 956.897 673.173 962.372 669.806 968.068H669.774Z" fill="black"/>
<path d="M533.64 1479.58C532.602 1471.84 531.06 1464.1 530.651 1456.33C530.336 1450.51 527.41 1447.93 522.406 1446.61C529.675 1440.66 538.423 1435.97 539.902 1425.3C554.063 1424.77 565.738 1431.97 571.843 1445.09C561.364 1455.13 557.242 1469.51 547.675 1480.15C542.829 1484.34 538.172 1483.45 533.672 1479.58H533.64Z" fill="url(#paint3_linear_232_6675)"/>
<path d="M347.79 1328.79C344.203 1330.08 342.377 1332.85 341.433 1336.37C341.937 1341.63 338.003 1342.92 334.259 1344.36C332.842 1345.37 331.458 1346.38 330.042 1347.42C315.189 1345.65 316.479 1330.96 309.997 1322.49C308.549 1309.03 310.28 1296.63 321.514 1287.34C325.825 1287.38 330.168 1287.44 334.479 1287.47C342.409 1299.99 347.947 1313.3 347.916 1328.47L347.79 1328.82V1328.79Z" fill="#FDC50C"/>
<path d="M301.751 1559.8C298.824 1546.93 297.503 1533.9 297.408 1520.71C308.265 1520.37 316.541 1508.79 328.562 1513.63C339.166 1518.79 343.729 1527.01 341.212 1538.81C330.67 1545.7 314.086 1543.97 310.153 1560.36C307.1 1564.14 304.394 1562.66 301.751 1559.8Z" fill="url(#paint4_linear_232_6675)"/>
<path d="M290.646 1518.2C284.227 1521.97 276.8 1518.86 270.192 1521.25C262.797 1531.7 261.664 1544.03 259.933 1556.11C259.115 1561.68 242.342 1635.41 236.08 1638.53C231.643 1638.37 234.129 1638.25 233.94 1632.65C233.374 1617.01 242.909 1533.02 247.818 1517.75C248.856 1514.55 251.374 1511.12 254.332 1512.09C266.195 1515.96 279.569 1510.52 290.678 1518.23L290.646 1518.2Z" fill="white"/>
<path d="M514.821 1446.35C510.841 1452.65 502.812 1453.27 498.03 1458.43C496.235 1471.1 500.872 1482.59 504.862 1494.12C506.684 1499.45 525.507 1572.68 521.364 1578.32C517.347 1580.21 519.499 1578.96 516.769 1574.06C509.109 1560.42 479.156 1481.37 476.538 1465.56C475.992 1462.23 476.661 1458.03 479.738 1457.54C492.058 1455.55 501.458 1444.59 514.863 1446.37L514.821 1446.35Z" fill="white"/>
<path d="M281.93 1010.71C297.507 1008.47 313.399 1011.93 328.881 1008.09C321.486 1016.24 311.133 1016.09 301.504 1017.66C268.965 1022.98 239.889 1034.12 221.543 1063.95C216.476 1054.73 223.651 1049.41 228.403 1043.75C242.532 1026.88 260.626 1016.15 281.899 1010.71H281.93Z" fill="white"/>
<path d="M411.043 1463.79C394.648 1483.99 372.651 1494.88 348.232 1501.74C344.487 1504.25 340.806 1504.69 337.155 1501.58C345.148 1492.14 357.295 1489.56 367.239 1483.33C382.721 1473.63 396.379 1462.12 407.644 1447.74C415.732 1451.61 413.151 1457.74 411.074 1463.82L411.043 1463.79Z" fill="black"/>
<path d="M301.752 1559.8C304.553 1559.99 307.353 1560.17 310.154 1560.36C316.353 1566.53 310.689 1576.19 316.637 1582.45C316.196 1588.15 309.808 1593.75 316.448 1599.51C313.962 1606.21 310.532 1608.54 304.175 1603.07C299.235 1598.82 293.602 1595.36 288.284 1591.55C286.931 1591.89 286.144 1591.45 286.018 1590.01C277.868 1580.76 277.805 1580.57 287.623 1578.43C290.298 1577.83 291.273 1576.85 290.77 1574.52C288.85 1565.37 295.742 1562.94 301.752 1559.8Z" fill="black"/>
<path d="M543.726 1478.26C546.303 1477.15 548.88 1476.04 551.456 1474.92C559.791 1477.57 559.175 1488.75 567.328 1491.6C569.543 1496.86 566.426 1504.77 574.965 1506.85C575.821 1513.95 573.837 1517.59 565.679 1515.63C559.342 1514.11 552.75 1513.61 546.279 1512.66C545.234 1513.58 544.333 1513.55 543.559 1512.32C532.079 1507.83 531.936 1507.69 539.687 1501.29C541.792 1499.54 542.213 1498.22 540.699 1496.38C534.803 1489.12 539.822 1483.81 543.726 1478.26Z" fill="black"/>
<path d="M285.984 1590.01C287.054 1589.98 287.809 1590.48 288.25 1591.55C292.53 1601.24 287.086 1606.21 279.785 1611.53C269.086 1619.3 267.638 1603.25 259.771 1604.7C254.736 1603.16 246.114 1605.11 250.016 1594.76C251.149 1586.77 252.282 1578.74 253.415 1570.75C257.6 1560.65 256.971 1549.6 259.394 1539.19C261.03 1532.14 260.873 1523.8 270.124 1521.22C266.033 1542.55 262.1 1563.95 257.757 1585.22C256.404 1591.86 255.901 1596.8 263.894 1600.14C273.303 1604.1 270.691 1596.99 272.453 1592.9C275.348 1586.2 282.302 1595.23 285.921 1589.98L285.984 1590.01Z" fill="#FDC50C"/>
<path d="M543.526 1512.34C544.463 1511.82 545.365 1511.92 546.246 1512.67C554.486 1519.33 551.921 1526.24 547.863 1534.31C541.906 1546.12 533.275 1532.51 526.942 1537.4C521.76 1538.33 514.986 1544.01 513.718 1533.02C511.068 1525.39 508.404 1517.74 505.754 1510.11C504.853 1499.22 499.239 1489.68 496.628 1479.31C494.858 1472.3 490.902 1464.95 497.947 1458.43C504.072 1479.27 510.366 1500.1 516.239 1521C518.074 1527.52 519.887 1532.15 528.52 1531.45C538.7 1530.67 533.124 1525.55 532.819 1521.1C532.326 1513.82 542.642 1518.67 543.456 1512.34L543.526 1512.34Z" fill="#FDC50C"/>
<path d="M582.544 1184.79C576.754 1171.07 584.118 1155.97 578.044 1142.28C566.81 1124.15 561.366 1104.23 559.289 1083.18C560.516 1080.73 562.09 1078.87 565.237 1079.72C575.527 1094.07 579.901 1110.78 584.527 1127.39C585.439 1134.98 586.415 1142.53 587.202 1150.11C587.768 1155.68 590.285 1158.61 596.201 1157.54C591.67 1166.6 587.107 1175.67 582.576 1184.76L582.544 1184.79Z" fill="#FDC50C"/>
<path d="M222.328 1243.29C213.391 1234.29 206.94 1242.76 199.797 1246.53C197.185 1239.42 187.461 1237.31 187.241 1228.53C182.049 1222.11 176.856 1215.66 171.664 1209.24C176.353 1206.47 173.458 1199.49 178.524 1196.94C184.409 1205.28 188.059 1215.19 195.328 1221.58C191.647 1215.16 182.3 1210.15 187.241 1199.61C203.132 1208.08 214.021 1221.14 221.667 1237.15C223.996 1238.98 223.996 1241.06 222.297 1243.29H222.328Z" fill="url(#paint5_linear_232_6675)"/>
<path d="M337.156 1501.58C340.838 1501.64 344.551 1501.71 348.233 1501.74C349.114 1515.46 351.631 1528.42 363.778 1537.14C356.446 1540.54 349.208 1544.79 341.215 1538.81C336.999 1530.41 332.782 1522.03 328.565 1513.63C327.904 1507.09 332.027 1503.97 337.156 1501.58Z" fill="black"/>
<path d="M329.159 995.286C317.956 997.3 307.131 995.38 297.03 990.88C278.244 982.51 258.796 980.59 238.688 982.95C235.006 981.723 232.74 980.244 237.933 977.79C250.835 971.685 264.303 971.496 277.205 976.594C294.355 983.422 311.38 990.408 329.222 995.286H329.159Z" fill="white"/>
<path d="M250.049 1594.79C249.671 1601.65 256.248 1601.68 259.804 1604.73C246.335 1605.58 251.622 1616.72 249.608 1623.71C248.759 1626.6 249.482 1629.91 249.105 1632.99C248.507 1637.62 253.762 1643.47 246.619 1646.68C243.692 1648 240.262 1647.59 238.028 1645.01C233.937 1640.29 232.08 1631.98 235.29 1629.22C246.21 1619.81 242.811 1605.17 250.049 1594.85V1594.79Z" fill="#FDC50C"/>
<path d="M513.764 1533.03C516.567 1539.3 522.43 1536.32 526.988 1537.41C515.402 1544.33 525.2 1551.81 526.605 1558.95C527.175 1561.91 529.33 1564.52 530.405 1567.43C531.99 1571.82 539.341 1574.62 534.458 1580.74C532.461 1583.25 529.224 1584.46 526.057 1583.19C520.259 1580.86 514.807 1574.33 516.394 1570.39C521.798 1557.03 512.08 1545.58 513.793 1533.09L513.764 1533.03Z" fill="#FDC50C"/>
<path d="M652.907 916.553C650.799 915.483 648.722 914.413 646.614 913.343C653.065 897.326 659.547 881.308 666.03 865.291C672.984 869.539 671.914 875.329 669.114 881.466C663.701 893.172 658.32 904.878 652.907 916.584V916.553Z" fill="url(#paint6_linear_232_6675)"/>
<path d="M222.329 1243.29C222.109 1241.24 221.92 1239.2 221.7 1237.15C237.812 1244.77 250.997 1230.7 266.165 1231.17C267.958 1233.22 268.084 1235.39 266.731 1237.72C257.637 1241.59 248.259 1244.83 239.542 1249.46C230.857 1254.05 227.396 1247.19 222.329 1243.32V1243.29Z" fill="url(#paint7_linear_232_6675)"/>
<path d="M714.806 806.145C711.533 807.907 709.33 813.854 704.831 810.644C701.117 807.97 705.365 804.319 706.183 801.141C706.939 798.214 707.851 795.351 708.67 792.456C713.61 788.554 716.6 776.911 723.963 782.952C730.383 788.176 722.641 795.634 718.362 801.204C717.134 802.809 715.97 804.508 714.774 806.145H714.806Z" fill="url(#paint8_linear_232_6675)"/>
<path d="M411.038 1463.79C411.038 1458.19 410.441 1452.71 407.609 1447.74C411.416 1441.41 415.255 1435.12 419.063 1428.79C429.479 1443.46 419.063 1453.34 411.038 1463.79Z" fill="black"/>
<path d="M316.447 1599.51C311.632 1595.07 305.37 1591.99 302.632 1585.73C306.44 1579.75 312.608 1586.26 316.636 1582.46C327.115 1588.25 322.017 1593.88 316.447 1599.51Z" fill="black"/>
<path d="M574.964 1506.85C568.653 1505.11 561.673 1505.23 556.374 1500.91C557.023 1493.86 565.488 1496.83 567.328 1491.6C579.295 1491.95 577.339 1499.29 574.964 1506.85Z" fill="black"/>
<path d="M309.995 1322.46C318.051 1329.67 319.625 1342.1 330.041 1347.39C323.653 1354.37 320.852 1346.79 318.303 1343.67C313.425 1337.66 310.53 1330.39 309.995 1322.43V1322.46Z" fill="#FDC50C"/>
<path d="M334.26 1344.36C336.652 1341.69 339.044 1339.01 341.435 1336.37C348.075 1341.5 347.068 1350.37 351.285 1356.7C345.621 1352.58 339.925 1348.49 334.26 1344.36Z" fill="#D49894"/>
<path d="M570.898 1353.14C570.898 1348.55 575.649 1344.87 572.974 1338.57C556.642 1342.82 540.184 1347.1 523.726 1351.38C508.338 1354.4 492.919 1357.42 477.531 1360.41C477.122 1359.72 476.713 1359 476.304 1358.31C487.57 1346.6 500.283 1336.4 515.608 1331.24C537.636 1323.82 559.506 1314.88 583.391 1314.88C590.345 1324.41 576.278 1331.56 580.401 1340.78C577.443 1345.06 579.048 1352.86 570.898 1353.14Z" fill="#1EF99A"/>
<path d="M472.057 1195.33C474.605 1189.13 477.154 1182.9 479.735 1176.7C484.392 1179.5 484.423 1184.38 485.368 1188.91C489.175 1206.56 491.882 1208.14 509.913 1203.54C518.944 1201.25 528.07 1198.54 536.818 1204.58C541.916 1215.19 532.727 1218.96 527.22 1224.34C522.374 1229.06 516.206 1231.74 510.039 1234.29C505.413 1235.64 500.818 1238.35 496.035 1234.73C471.427 1237.37 447.466 1252.29 451.62 1228.1C457.915 1218.65 464.208 1209.21 472.025 1195.3L472.057 1195.33Z" fill="#1EF99A"/>
<path d="M477.534 1360.41C429.923 1374.26 403.175 1334.61 414.566 1300.25C421.332 1292 424.479 1299.02 425.832 1303.9C429.671 1317.55 439.835 1323.53 451.888 1327.75C452.706 1329.04 452.958 1330.42 452.737 1331.93C448.646 1338.35 450.566 1343.01 456.167 1347.73C462.178 1352.77 470.391 1353.74 475.898 1359.37C476.401 1359.78 476.936 1360.13 477.503 1360.41H477.534Z" fill="#1EF99A"/>
<path d="M508.092 1232.21C517.092 1222.83 532.197 1219.97 536.508 1205.56C540.724 1187.68 544.595 1169.75 544.626 1151.21C544.626 1147.44 546.043 1142.81 551.613 1142.56C555.074 1144.51 556.962 1147.75 557.371 1151.37C559.48 1170.94 559.731 1190.55 557.182 1210.12C556.773 1213.2 554.885 1215.88 552.116 1217.64C550.259 1222.58 548.371 1227.52 546.515 1232.43C536.539 1228.94 532.133 1240.24 523.731 1240.96C516.525 1241.59 510.798 1239.61 508.092 1232.21Z" fill="#1EF99A"/>
<path d="M338.382 1285.27C344.486 1283.98 350.591 1282.69 356.696 1281.4C362.549 1286.09 361.291 1294.33 365.853 1299.68C371.423 1298.77 376.962 1297.86 382.531 1296.98C374.979 1307.39 364.5 1314.66 354.777 1322.75C347.193 1326.24 345.902 1319.6 343.889 1315.45C339.326 1305.98 337.563 1295.84 338.382 1285.3V1285.27Z" fill="#FDC50C"/>
<path d="M450.88 1329.01C437.758 1327.75 430.048 1319.5 423.912 1308.74C421.866 1305.19 423.062 1297.04 414.566 1300.28C416.202 1288.85 423.094 1279.67 427.751 1269.56C430.331 1263.93 435.555 1261.73 441.786 1262.58C439.457 1267.17 436.782 1271.64 434.831 1276.39C422.968 1305.31 428.223 1316.55 457.961 1326.21C457.143 1331.05 454.216 1330.55 450.88 1329.01Z" fill="#1EF99A"/>
<path d="M508.091 1232.21C513.976 1233.94 519.923 1235.52 523.731 1240.96C525.619 1251.53 523.039 1260.15 513.567 1266.32C506.298 1271.04 500.35 1267.17 495.252 1263.27C482.854 1253.77 492.546 1244.17 496.071 1234.7C500.067 1233.88 504.095 1233.03 508.091 1232.18V1232.21Z" fill="white"/>
<path d="M520.205 1284.73C506.894 1289.48 491.915 1289.99 478.038 1290.37C477.597 1289.11 476.118 1285.05 477.251 1284.42C488.359 1285.39 490.593 1277.4 492.576 1269.19C501.324 1272.3 514.1 1276.39 520.205 1284.76V1284.73Z" fill="#1EF99A"/>
<path d="M338.379 1285.27C340.456 1293.73 342.281 1302.26 344.673 1310.63C346.183 1315.98 347.347 1322.09 354.742 1322.71C352.445 1324.63 350.148 1326.52 347.851 1328.44C340.865 1315.6 334.697 1302.48 334.414 1287.44C335.704 1286.72 337.026 1285.99 338.348 1285.27H338.379Z" fill="#FDC50C"/>
<path d="M477.252 1284.38C476.749 1285.27 476.371 1286.21 476.151 1287.19C475.584 1287.41 475.018 1287.66 474.452 1287.91C470.424 1286.15 462.431 1291.09 462.934 1282.15C463.154 1278.15 462.368 1270.41 468.001 1270.54C475.112 1270.73 477.473 1277.43 477.221 1284.35L477.252 1284.38Z" fill="#1EF99A"/>
<path d="M566.713 1019.49C559.696 1032.51 552.678 1045.57 545.661 1058.6C544.497 1072.41 533.923 1081.41 528.196 1092.87C526.937 1093.69 525.584 1093.94 524.105 1093.69C519.039 1091.93 520.801 1081.54 512.21 1084.18C512.777 1076.47 526.371 1071.91 520.36 1064.61C515.64 1058.88 509.598 1069.77 502.927 1070.65C479.42 1073.77 455.504 1080.53 434.2 1063.98C424.539 1056.46 413.935 1067.57 404.683 1061.15C409.749 1053.06 416.924 1049.66 426.396 1051.27C456.354 1088.4 526.528 1069.14 540.248 1029.15C542.199 1023.45 544.276 1016.81 552.458 1016.68C558.217 1012.56 563.126 1012.72 566.745 1019.49H566.713Z" fill="black"/>
<path d="M426.367 1051.24C419.255 1054.79 412.898 1060.05 404.654 1061.12C402.671 1061.06 400.688 1060.96 398.706 1060.9C388.038 1056.4 377.182 1052.15 373.909 1039.18C375.514 1033.87 373.28 1026.35 381.902 1024.93C387.85 1026.22 393.168 1029.02 398.486 1031.88C404.024 1034.87 401.947 1029.4 403.112 1027.51C404.213 1024.17 408.084 1025.62 409.877 1023.51C411.199 1022.95 412.521 1022.41 413.874 1021.85C413.622 1033.52 420.451 1042.17 426.398 1051.21L426.367 1051.24Z" fill="url(#paint9_linear_232_6675)"/>
<path d="M512.211 1084.19C521.872 1078.36 523.131 1085.66 524.83 1092.27C532.162 1098.6 531.753 1105.84 526.309 1112.76C518.788 1122.32 508.466 1124.34 497.075 1121.63C492.386 1120.53 488.767 1117.67 486.502 1113.29C485.337 1108.6 484.204 1103.95 483.04 1099.26C492.323 1093.34 504.218 1092.52 512.274 1084.22L512.211 1084.19Z" fill="url(#paint10_linear_232_6675)"/>
<path d="M488.484 932.319C486.565 943.584 495.25 935.434 498.492 937.511C501.764 939.651 507.303 939.619 507.554 944.434C507.806 949.343 502.268 949.091 499.247 949.469C492.198 950.413 483.261 958.343 478.949 945.378C476.306 946.731 473.632 948.084 470.957 949.437C474.45 941.319 479.862 935.182 488.484 932.287V932.319Z" fill="black"/>
<path d="M492.165 1002.94C503.305 1000.95 513.374 1003.91 520.675 1012.09C527.441 1019.74 532.381 1028.9 521.084 1037.52C520.392 1037.33 521.776 1037.71 521.084 1037.52C510.259 1043.66 483.133 1054.89 482.063 1055.87C473.41 1059.64 464.661 1067.86 455.756 1057.06C446.913 1046.33 450.312 1034.69 455.064 1023.45C457.329 1018.07 461.515 1014.14 466.801 1011.46C474.259 1006.52 482.945 1003.97 492.165 1002.94Z" fill="black"/>
<path d="M566.717 1019.49C561.966 1018.54 557.183 1017.6 552.431 1016.69C549.19 1012.56 550.102 1008.38 552.242 1004.16C554.445 992.644 557.182 981.567 571.343 979.207C579.556 979.994 580.469 986.193 581.193 992.518C576.378 1001.49 571.564 1010.49 566.749 1019.45L566.717 1019.49Z" fill="url(#paint11_linear_232_6675)"/>
<path d="M507.334 948.557C516.901 969.64 515.201 980.371 505.1 983.864C497.233 986.602 489.869 980.182 485.37 965.172C502.677 978.672 506.957 968.822 507.366 948.557H507.334Z" fill="black"/>
<path d="M447.704 982.762C450.694 993.839 452.613 1001.55 446.414 1008.13C442.544 1012.25 437.383 1013 432.096 1011.21C426.243 1009.19 423.033 1004.35 421.397 998.81C420.012 994.09 423.725 990.566 427.03 993.555C439.428 1004.79 441.883 992.422 447.673 982.762H447.704Z" fill="black"/>
<path d="M571.31 979.208C564.953 987.515 558.565 995.823 552.208 1004.16C543.491 995.666 548.621 987.673 553.971 980.655C558.565 974.613 564.953 972.851 571.31 979.208Z" fill="black"/>
<path d="M480.65 1051.27C481.877 1044.54 486.031 1040.19 491.79 1036.92C498.619 1033.02 502.615 1034.84 504.283 1042.4C497.737 1048.97 489.807 1051.74 480.619 1051.27H480.65Z" fill="#F187FF"/>
<path d="M465.83 978.012C471.998 984.872 478.229 988.553 475.365 996.358C474.578 998.529 470.676 999.221 468.474 997.648C462.243 993.211 464.226 986.98 465.83 978.012Z" fill="#89474C"/>
<path d="M486.438 1113.26C490.906 1114.49 495.312 1116 499.843 1116.91C518.945 1120.72 527.819 1111.88 524.798 1092.24C526.592 1093.09 528.417 1093.91 530.21 1094.76C545.567 1103.82 554.787 1126.13 549.626 1141.61C549.721 1150.87 549.5 1160.12 549.972 1169.37C550.696 1183.5 547.014 1195.77 536.472 1205.59C524.2 1206.6 512.273 1207.89 500.315 1212.39C488.043 1217.04 483.165 1206.31 480.679 1196.71C479.043 1190.39 479.924 1183.4 479.704 1176.7C482.976 1155.68 486.847 1134.69 486.438 1113.26Z" fill="#1EF99A"/>
<path d="M326.898 1277.43C317.583 1265.44 304.65 1256.06 299.867 1240.71C300.527 1239.89 301.409 1238.69 302.164 1238.82C325.985 1242.75 348.579 1234.98 371.614 1231.52C376.114 1232.97 379.009 1235.8 379.387 1240.74C363.055 1254.68 345.118 1266.26 326.866 1277.43H326.898Z" fill="#FDC50C"/>
<path d="M451.572 1116.09C452.232 1115.34 453.019 1114.71 453.932 1114.3C459.753 1126.23 455.914 1138.59 452.704 1149.51C442.54 1184.03 421.079 1210.91 391.184 1230.95C387.156 1233.56 383.6 1233.78 381.051 1228.97C380.107 1221.45 385.74 1217.8 390.335 1213.8C415.95 1191.36 435.9 1165.28 443.736 1131.35C445.058 1125.6 449.149 1121.32 451.54 1116.16L451.572 1116.09Z" fill="#FDC50C"/>
<path d="M382.435 1227.33C384.354 1230.95 387.69 1231.11 391.183 1230.92C387.249 1234.19 383.316 1237.47 379.382 1240.74C376.204 1239.07 374.001 1236.59 372.963 1233.12C373.781 1227.37 377.305 1226.04 382.435 1227.33Z" fill="#FDC50C"/>
<path d="M365.851 1299.65C358.928 1295.5 356.946 1288.89 356.694 1281.37C370.697 1281.97 361.855 1294.02 365.851 1299.65Z" fill="#FDC50C"/>
<path d="M571.028 1035.82C586.857 1004.07 604.259 973.26 626.035 945.127C639.314 946.795 648.944 955.606 659.58 962.403C667.416 979.711 666.031 995.917 654.356 1011.21C650.926 1015.71 647.402 1020.62 645.765 1025.94C642.933 1035.19 637.773 1038.12 628.112 1039.81C615.084 1042.11 606.021 1053.91 593.025 1058.6C572.665 1065.97 571.438 1066.09 571.217 1043.62C571.217 1041.01 571.091 1038.4 571.06 1035.82H571.028Z" fill="#FDC50C"/>
<path d="M565.207 1079.75C563.917 1081.01 562.627 1082.3 561.337 1083.56C549.567 1079.5 546.609 1071.91 552.242 1060.87L552.116 1060.96C560.927 1064.14 560.833 1073.52 565.207 1079.75Z" fill="#FDC50C"/>
<path d="M382.062 1026.32C376.461 1028.77 377.184 1035.25 373.912 1039.19C373.628 1034.59 372.905 1030 373.156 1025.44C373.566 1017.73 376.775 1011.02 384.422 1008.51C392.604 1005.8 398.173 1010.39 401.824 1017.44C403.586 1020.84 405.789 1023.36 409.88 1023.55C408.59 1026.38 405.82 1026.38 403.366 1026.98C396.097 1032.8 389.174 1026.35 382.093 1026.35L382.062 1026.32Z" fill="url(#paint12_linear_232_6675)"/>
<path d="M382.435 1227.33C379.288 1229.29 376.11 1231.2 372.963 1233.12C349.393 1243.26 325.509 1250.53 299.862 1240.71C293.789 1231.21 291.712 1220.63 291.397 1209.55C343.005 1182.55 391.844 1150.83 442.067 1121.47C445.214 1119.65 448.392 1117.89 451.539 1116.06C447.197 1160.24 422.683 1192.59 390.208 1220.16C387.501 1222.46 384.04 1223.84 382.435 1227.33Z" fill="#FDC50C"/>
<path d="M552.241 1060.87C551.549 1069.93 557.402 1076.35 561.335 1083.55C567.472 1102.97 576.88 1121.44 578.013 1142.27C576.094 1164.77 580.531 1187.93 571.122 1209.68C567.283 1218.58 563.066 1226.14 552.052 1217.64C552.083 1192.28 556.143 1166.79 549.598 1141.61C548.528 1123.74 538.269 1109.67 530.182 1094.73C527.098 1090.35 524.58 1086.29 529.08 1080.88C534.996 1073.77 540.157 1066.03 545.633 1058.57C547.835 1059.32 550.038 1060.11 552.209 1060.87H552.241Z" fill="#FDC50C"/>
<path d="M452.106 1331.4C488.672 1332.19 522.658 1318.47 557.996 1312.43C565.675 1311.1 573.133 1308.55 580.779 1306.92C583.517 1306.32 587.514 1304.59 588.741 1308.81C589.716 1312.11 586.632 1314.35 584.335 1316.42C559.035 1325.61 531.815 1328.44 507.396 1340.72C496.413 1346.25 489.49 1358.43 475.927 1359.41C462.427 1362.65 454.057 1353.33 446.127 1345.69C439.078 1338.89 440.84 1332.31 452.106 1331.43V1331.4Z" fill="#1EF99A"/>
<path d="M517.779 1249.64C516.269 1255.09 514.098 1260.88 507.395 1261.13C501.982 1261.32 497.199 1258.45 497.828 1251.72C498.395 1245.77 500.251 1240.39 507.741 1240.27C513.846 1240.17 517.433 1243.04 517.779 1249.64Z" fill="black"/>
<path d="M382.059 1026.32C389.391 1019.11 396.22 1028.05 403.332 1026.95C406.762 1032.01 410.695 1036.92 408.209 1045.42C399.083 1038.75 390.587 1032.55 382.059 1026.32Z" fill="black"/>
<path d="M497.579 1004.98C499.751 1005.01 502.52 1008.16 501.072 1009.67C498.806 1012.03 491.947 1014.77 489.492 1016.18C482.223 1020.37 474.639 1024.11 466.929 1027.45C462.901 1029.18 456.104 1031.95 456.608 1023.36C456.608 1023.36 470.328 1004.45 497.579 1005.01V1004.98Z" fill="#ECEEF2"/>
<path d="M414.589 1461.21C398.194 1481.41 376.198 1492.3 351.778 1499.16C348.034 1501.68 344.352 1502.12 340.702 1499C348.695 1489.56 360.841 1486.98 370.785 1480.75C386.268 1471.06 399.925 1459.54 411.191 1445.16C419.278 1449.03 416.697 1455.17 414.621 1461.24L414.589 1461.21Z" fill="black"/>
<path d="M340.702 1499.01C344.384 1499.07 348.097 1499.13 351.779 1499.16C352.66 1512.88 355.178 1525.85 367.324 1534.57C359.992 1537.96 352.755 1542.21 344.762 1536.23C340.545 1527.83 336.328 1519.46 332.111 1511.06C331.451 1504.51 335.573 1501.4 340.702 1499.01Z" fill="black"/>
<path d="M414.585 1461.21C414.585 1455.61 413.987 1450.14 411.155 1445.16C414.963 1438.84 418.802 1432.55 422.609 1426.22C433.025 1440.88 422.609 1450.77 414.585 1461.21Z" fill="black"/>
<path d="M454.427 1326.43C441.305 1325.18 433.595 1316.93 427.458 1306.17C425.413 1302.61 426.609 1294.46 418.112 1297.7C419.749 1286.28 426.64 1277.09 431.297 1266.99C433.878 1261.36 439.102 1259.15 445.332 1260C443.004 1264.6 440.329 1269.07 438.378 1273.82C426.514 1302.74 431.77 1313.97 461.507 1323.63C460.689 1328.48 457.762 1327.98 454.427 1326.43Z" fill="#1EF99A"/>
<path d="M571.843 1445.09C561.207 1438.49 550.539 1431.91 539.903 1425.3C538.581 1417.06 539.619 1409.47 546.008 1403.37C563.409 1405.6 577.665 1414.95 592.14 1423.79C586.916 1432.35 583.738 1442.86 571.874 1445.09H571.843Z" fill="#1EF99A"/>
<path d="M593.24 1425.11C576.045 1418.77 559.131 1411.83 544.396 1401.01C545.278 1399.11 546.192 1397.24 547.073 1395.33C559.532 1404.13 566.136 1399.93 572.777 1387.8C588.213 1359.55 604.55 1331.73 617.696 1301.68C621.548 1306.41 619.49 1310.53 617.827 1313.86C604.302 1340.76 593.604 1369.14 576.023 1393.91C567.611 1405.75 570.966 1409.68 582.634 1414.27C587.126 1416.05 592.884 1416.36 595.809 1421.06C594.931 1422.39 594.086 1423.75 593.208 1425.08L593.24 1425.11Z" fill="#1EF99A"/>
<path d="M450.877 1329.01C453.237 1328.07 455.597 1327.12 457.957 1326.21C506.607 1321.02 553.464 1306.73 601.579 1297.89C593.019 1311.29 586.473 1325.93 580.369 1340.78C574.516 1331.5 583.106 1324.54 584.334 1316.39C578.953 1309.44 572.659 1314.69 567.278 1315.86C537.635 1322.15 508.212 1329.51 478.475 1335.21C469.538 1336.91 459.814 1339.99 452.104 1331.4C451.884 1330.52 451.475 1329.73 450.877 1329.01Z" fill="#1EF99A"/>
<path d="M595.655 1421.22C579.544 1416.12 563.652 1410.42 549.523 1400.79C550.215 1398.87 550.939 1396.99 551.631 1395.07C563.558 1402.87 569.348 1398.34 574.697 1386.07C587.127 1357.46 600.407 1329.23 610.634 1299.03C614.442 1303.4 612.805 1307.55 611.484 1310.92C600.721 1338.08 592.634 1366.49 578.033 1391.83C571.047 1403.94 574.351 1407.56 585.302 1411.3C589.519 1412.75 594.805 1412.69 597.763 1417.09C597.04 1418.45 596.348 1419.83 595.624 1421.18L595.655 1421.22Z" fill="#1EF99A"/>
<path d="M454.423 1326.43C456.783 1325.49 459.144 1324.55 461.504 1323.63C510.154 1318.44 557.01 1304.16 605.125 1295.31C596.566 1308.72 590.02 1323.35 583.915 1338.2C578.062 1328.92 586.653 1321.97 587.88 1313.82C582.499 1306.86 576.205 1312.12 570.824 1313.28C541.181 1319.57 511.759 1326.94 482.021 1332.63C473.084 1334.33 463.36 1337.42 455.651 1328.83C455.43 1327.95 455.021 1327.16 454.423 1326.43Z" fill="#1EF99A"/>
<path d="M480.799 1281.81C480.295 1282.69 479.917 1283.64 479.697 1284.61C479.131 1284.83 478.565 1285.08 477.998 1285.33C473.97 1283.57 465.977 1288.51 466.481 1279.58C466.701 1275.58 465.914 1267.84 471.547 1267.96C478.659 1268.15 481.019 1274.86 480.767 1281.78L480.799 1281.81Z" fill="#1EF99A"/>
<path d="M278.687 1261.48C273.337 1254.46 269.231 1253.55 270.679 1243.83C270.647 1241 266.146 1238.29 264.384 1234.39C262.244 1229.64 267.799 1226.93 269.183 1221.48C276.484 1217.05 284.1 1214.06 291.401 1209.59C290.991 1209.15 291.18 1210.15 291.401 1209.59C299.299 1217.52 298.134 1229.41 303.924 1238.26C306.505 1247.57 313.9 1253.67 319.155 1261.2C322.616 1266.17 327.526 1270.51 326.865 1277.43C326.078 1278.85 325.26 1280.27 324.473 1281.68C307.512 1278.79 291.872 1272.9 278.655 1261.48H278.687Z" fill="black"/>
<path d="M1210.91 1510.83C1201.34 1516.06 1191.8 1530.89 1182.24 1536.09C1176.82 1538.13 1172.61 1544.36 1169.65 1540.81C1165.86 1536.27 1164.05 1520.74 1163.9 1513.66C1172.9 1511.62 1181.9 1509.51 1190.93 1507.56C1197.98 1506.02 1201.59 1501.86 1201.53 1494.56C1204.65 1499.98 1207.76 1505.42 1210.88 1510.83H1210.91Z" fill="#F4A68A"/>
<path d="M1059.17 1117.89C1059.33 1116.82 1059.49 1115.75 1059.65 1114.68C1056.63 1091.48 1066.98 1070.97 1072.55 1049.47C1074.72 1041.1 1080.64 1033.52 1077.77 1024.14C1062.38 998.935 1052.31 970.897 1035.1 946.604C1029.41 938.579 1023.18 930.964 1017.7 922.814C1012.04 914.38 1007.44 905.349 1017.86 896.727C1029.81 896.349 1032.71 907.017 1037.71 914.16C1052.98 935.936 1067.07 958.499 1081.49 980.841C1084.92 986.159 1089.42 990.471 1093.13 995.505C1091.12 1017.75 1100.78 1036.48 1111.07 1055.04C1115.13 1068.48 1119.22 1081.73 1129.57 1092.27C1134.54 1097.37 1134.16 1105.05 1132.87 1111.72C1129.63 1128.55 1127.46 1145.51 1126.36 1162.63C1121.89 1186.2 1120.29 1210.15 1117.42 1233.94C1116.57 1236.93 1115.06 1239.7 1114.75 1242.81C1113.61 1254.3 1107.7 1256.06 1097.57 1252.41C1087.87 1248.92 1077.68 1247.09 1067.33 1246.28C1059.55 1245.65 1051.75 1244.58 1047.25 1236.77C1042.56 1219.43 1049.51 1202.72 1051.12 1185.89C1053.29 1163.23 1056.56 1140.57 1059.24 1117.92L1059.17 1117.89Z" fill="#1FD0EF"/>
<path d="M1263.94 1316.39C1259.09 1303.36 1268.85 1294.39 1273 1283.85C1276.9 1280.74 1279.04 1275.61 1284.86 1274.66C1292.67 1273.4 1295.75 1267.17 1297.7 1260.5C1299.62 1253.86 1301.29 1245.59 1295.15 1241.65C1287.76 1236.93 1282.98 1244.61 1279.23 1249.9C1270.51 1262.23 1257.42 1267.27 1244.08 1271.74C1224.6 1278.25 1218.47 1273.15 1219.6 1252.13C1226.58 1241.05 1232.34 1228.88 1245.53 1223.37C1274.01 1214.34 1303.12 1207.51 1331.78 1199.2C1339.27 1197.03 1348.24 1195.43 1354.98 1202.82C1365.49 1211.13 1367.63 1221.83 1362.46 1233.6C1349 1264.18 1334.77 1294.42 1321.46 1325.07C1318.66 1331.53 1313.31 1332.44 1308.5 1335.11C1290.12 1337.28 1276.46 1328.22 1263.94 1316.39Z" fill="#1FD0EF"/>
<path d="M1132.18 832.471C1131.61 825.737 1131.08 818.971 1130.51 812.237C1130.16 802.544 1136.68 802.702 1143.29 803.677C1149.55 804.59 1155.15 807.611 1160.91 810.16C1178.09 817.775 1195.4 824.855 1213.87 829.167C1237.09 834.611 1253.52 851.572 1271.52 865.67C1278.25 865.009 1278.85 873.82 1281.56 872.341C1286.72 872.184 1290.56 873.726 1291.06 879.61C1300.75 894.463 1290.78 894.212 1293.71 890.435C1296.69 886.596 1295.53 895.093 1293.36 897.358C1292.13 904.533 1290.9 911.708 1289.65 918.883C1276.62 923.855 1263.97 923.76 1251.76 916.428C1247.07 911.33 1242.95 905.666 1237.13 901.638C1231.84 891.379 1223.22 887.855 1211.98 886.502C1189.42 883.796 1166.29 881.719 1148.01 865.575C1142.97 861.138 1137.43 857.142 1134.54 850.722C1135.61 844.397 1132.75 838.576 1132.18 832.439V832.471Z" fill="#FCC00E"/>
<path d="M1223.28 1253.11C1223.62 1272.9 1224.19 1273.53 1242.69 1266.86C1256.23 1261.98 1270.51 1258.39 1277.53 1242.91C1280.83 1235.61 1289.77 1231.14 1297.17 1232.43C1304.72 1233.72 1303.55 1243.51 1304.53 1249.71C1306.89 1264.78 1297.7 1277.24 1283.04 1279.1C1278.69 1279.63 1278.54 1287.16 1273.03 1283.88C1273.5 1276.68 1269.35 1277.94 1265.07 1279.6C1231.21 1293.07 1196.53 1304.49 1163.9 1321.2C1152.22 1327.18 1146.34 1332.85 1153.48 1345.72C1154.68 1347.89 1154.49 1350.78 1154.96 1353.36C1150.37 1362.3 1156.28 1370.51 1156.72 1379.11C1156.97 1383.7 1158.55 1389.65 1152.98 1391.22C1147.53 1392.79 1145.33 1387.04 1143.1 1383.04C1136.85 1371.9 1127.84 1368.43 1116.07 1372.62C1108.07 1375.49 1100.11 1378.79 1093.88 1369.44C1090.2 1362.02 1086.49 1354.62 1082.8 1347.2C1085.64 1337.91 1095.23 1338.89 1101.5 1334.83C1118.96 1326.68 1136.39 1318.43 1151.94 1306.85C1170.13 1294.74 1185.42 1279.38 1200.75 1263.99C1206.1 1258.61 1210.79 1251.91 1219.38 1251.06C1220.89 1251.31 1222.18 1252.01 1223.22 1253.14L1223.28 1253.11Z" fill="#1FD0EF"/>
<path d="M1093.88 1369.41C1106.4 1376.37 1116.13 1366.99 1125.76 1362.52C1137.24 1357.2 1142.28 1359.79 1144.23 1371.18C1145.33 1377.53 1148.07 1382.88 1153.48 1387.63C1151.97 1381.12 1150.46 1374.64 1148.95 1368.12C1147.47 1361.77 1145.99 1355.41 1154.96 1353.3C1162.79 1372.03 1170.41 1390.84 1175.6 1410.51C1172.71 1419.61 1178.97 1426.28 1181.77 1433.86C1183.72 1439.18 1186.8 1444.18 1183.12 1450.13C1177.46 1459.29 1146.59 1472.41 1135.13 1470.18C1119.62 1437.32 1105.96 1403.68 1093.88 1369.41Z" fill="#1FD0EF"/>
<path d="M1135.14 1470.2C1149.36 1466.27 1161.54 1457.87 1174.76 1451.76C1186.59 1446.29 1180.83 1437.7 1177.56 1430.62C1174.44 1423.85 1170.04 1417.87 1175.61 1410.54C1184.61 1430.81 1193.42 1451.14 1202.76 1471.24C1206.07 1478.32 1210.54 1484.77 1199.93 1489.46C1199.74 1489.53 1201 1492.8 1201.57 1494.59C1205.97 1506.33 1198.36 1510.77 1189.42 1513.69C1181.08 1516.43 1172.43 1518.98 1163.93 1513.69C1143.23 1506.55 1142.34 1486.29 1135.14 1470.2Z" fill="#1FD0EF"/>
<path d="M1281.78 1454.27C1277.06 1459.49 1273.27 1448.79 1268.77 1444.83C1256.19 1433.81 1237.31 1421.23 1223.14 1408.64C1219.15 1406.22 1207.85 1401.58 1210.56 1396.67C1218.84 1381.69 1232.91 1354.28 1247.01 1343.45C1248.52 1342.29 1251.89 1343.58 1254.41 1343.71C1262.93 1345.44 1268.09 1351.29 1272.34 1358.24C1272.72 1359.6 1272.88 1360.98 1272.85 1362.37C1272.4 1366.77 1269.32 1371.02 1272.03 1375.68C1274.45 1380.4 1277.03 1385.28 1275.14 1390.62C1272.72 1397.45 1277.03 1400.1 1281.78 1402.74C1283.14 1403.27 1288.03 1382.68 1289.23 1383.46C1293.32 1386.55 1325.89 1438.66 1325.42 1444.83C1322.08 1452.32 1315.06 1473.59 1306.54 1473.15L1281.78 1454.27Z" fill="#FFD313"/>
<path d="M1122.39 1160.12C1120.25 1144.29 1125.41 1129.22 1127.46 1113.86C1128.84 1103.48 1129.28 1095.26 1119.81 1087.52C1109.27 1078.9 1110.72 1063.45 1104.01 1052.28C1111.76 1050.77 1116.26 1055.68 1120.72 1060.65C1123.49 1063.54 1123.84 1067.92 1126.8 1070.87C1128.09 1068.48 1127.3 1065.9 1127.87 1063.54C1133.37 1052.65 1120.6 1043.25 1125.32 1032.42C1135.14 1031.41 1141.56 1036.1 1145.8 1044.5C1143.1 1063.79 1150.24 1070.81 1168.96 1067.07C1173.02 1066.25 1176.89 1064.52 1181.14 1064.52C1193.54 1063.32 1205.91 1060.02 1218.34 1063.38C1227.75 1065.9 1236.78 1069.18 1234.64 1082.01C1231.37 1087.24 1235.49 1091.58 1236.28 1096.33C1237.85 1105.24 1243.92 1114.02 1237.31 1123.24C1223.94 1125 1230.26 1112.32 1225.76 1107.53C1224.98 1104.55 1224.95 1101.4 1224.32 1098.35C1223.44 1093.94 1224.13 1088.53 1218.28 1086.83C1212.99 1085.29 1210.28 1089.88 1206.35 1091.77C1190.36 1099.45 1181.77 1112.79 1175.01 1128.05C1170.25 1127.14 1169.15 1123.43 1168.3 1119.49C1166.73 1112.82 1167.33 1105.99 1167.67 1099.26C1168.02 1092.34 1165.28 1089.25 1158.45 1087.36C1142.69 1083.08 1142.85 1082.64 1139.98 1099.35C1138.5 1108.1 1137.21 1116.85 1136.9 1125.75C1137.43 1141.74 1135.48 1157.29 1128.87 1172.01C1127.77 1173.59 1126.29 1174.59 1124.44 1175.1C1118.21 1170.85 1121.54 1165.34 1122.42 1160.15L1122.39 1160.12Z" fill="#1FD0EF"/>
<path d="M1357.19 1158.71C1358.1 1158.74 1359.01 1158.64 1359.93 1158.39C1376.95 1157.7 1392.46 1162.29 1406.56 1171.86C1414.43 1177.08 1424.97 1176.42 1432.05 1183.44C1432.84 1191.09 1430.67 1197.35 1423.65 1201.34C1421.82 1204.68 1410.43 1197.38 1415.75 1208.58C1415.88 1215.98 1416.1 1223.37 1409.3 1228.47C1393.25 1214.06 1374.56 1203.48 1356.21 1192.44C1347.62 1178.84 1347.84 1170.69 1357.22 1158.71H1357.19Z" fill="#F9B0F3"/>
<path d="M1122.39 1160.12C1123.08 1164.9 1121.42 1170.16 1125.32 1174.28C1132.18 1179.69 1131.01 1187.18 1130.01 1194.29C1128.34 1206.09 1126.42 1217.8 1127.33 1229.79C1127.77 1232.68 1127.52 1235.52 1126.77 1238.32C1123.3 1247.82 1126.36 1257.61 1125.54 1267.24C1124.91 1274.38 1125.44 1281.71 1119.84 1287.37C1117.8 1298.01 1109.55 1299.43 1100.87 1300.02C1087.18 1300.97 1073.71 1298.77 1060.24 1296.85C1059.96 1295.68 1059.68 1294.52 1059.39 1293.35C1057.57 1288.16 1063.86 1284.07 1061.09 1279.73C1060.12 1283.6 1059.49 1288.85 1053.29 1290.14C1051.3 1289.29 1049.35 1288.44 1047.37 1287.63C1046.18 1281.46 1047.18 1275.23 1047.09 1269.03C1046.77 1251.6 1046.87 1251.6 1065.37 1251.82C1079.37 1256.1 1093.72 1254.87 1108.04 1254.3C1115.63 1248.89 1108.67 1240.08 1112.79 1233.88C1116.41 1209.37 1115.88 1184.32 1122.39 1160.18V1160.12Z" fill="#1FD0EF"/>
<path d="M1314.72 1151.4L1318.91 1152.6C1324.86 1161.25 1323.79 1170.54 1321.36 1179.94C1311.01 1195.9 1284.17 1204.55 1263.4 1198.35C1257.99 1196.75 1252.54 1194.92 1247.73 1191.71C1240.77 1181.61 1242.38 1171.98 1249.24 1162.61C1255.31 1155.24 1263.12 1149.64 1269.88 1142.97C1274.51 1138.09 1276.8 1141.8 1279.13 1145.45C1281.65 1152.22 1286.84 1150.43 1292.03 1149.89C1299.62 1149.11 1307.36 1147.53 1314.69 1151.34L1314.72 1151.4Z" fill="#1FD0EF"/>
<path d="M1014.99 1030.59C994.598 995.537 975.496 959.821 958.535 922.972C959.636 918.346 960.801 913.814 966.119 912.146C972.224 912.335 975.276 916.741 977.888 921.209C998.437 956.171 1022.23 989.118 1041.14 1025.05C1043.75 1030.03 1047.43 1034.84 1045.42 1041.1C1039.12 1046.55 1034.5 1040.6 1029.24 1038.71C1024.02 1036.82 1020.72 1031.57 1014.99 1030.59Z" fill="#1FD0EF"/>
<path d="M1251.32 912.934C1263.49 918.787 1277.31 914.287 1289.68 918.913C1285.52 933.671 1277.91 946.857 1271.17 960.482C1257.33 966.902 1245.43 979.961 1227.71 973.038C1220.85 960.797 1227.49 950.003 1231.4 938.926C1238.51 930.65 1237.16 915.829 1251.32 912.934Z" fill="#FCC00E"/>
<path d="M1317.31 1180.29C1317.84 1171.07 1318.38 1161.85 1318.91 1152.63C1331.15 1149.55 1343.3 1153.38 1355.51 1153.2C1361.05 1153.1 1361.46 1157.85 1362.59 1161.69C1362.25 1172.93 1361.93 1184.19 1361.58 1195.43L1361.36 1196.28C1349.15 1202.47 1335.84 1198.26 1323.19 1200.33C1311.17 1196.62 1314.82 1188.28 1317.31 1180.29Z" fill="#1FD0EF"/>
<path d="M1219.75 1517.25C1237.94 1527.51 1236.15 1544.94 1235.68 1561.87C1233.22 1567.5 1233.03 1573.52 1232.47 1579.49C1231.68 1587.55 1227.84 1592.68 1219.25 1593.21C1217.65 1593.15 1216.1 1592.74 1214.66 1592.08C1213.33 1591.29 1212.2 1590.29 1211.32 1589.03C1209.09 1584.59 1208.43 1579.46 1205.47 1575.31C1204.96 1574.02 1204.68 1572.67 1204.52 1571.28C1204.3 1567.98 1204.96 1564.64 1204.49 1561.34C1204.3 1560.05 1204.27 1558.73 1204.21 1557.44C1204.05 1553.38 1202.57 1549.79 1200.5 1546.36C1198.92 1542.99 1198.14 1539.59 1199.55 1535.97C1205.72 1529.15 1211.16 1521.5 1219.75 1517.25Z" fill="#FFD313"/>
<path d="M1084.28 1019.8C1085.38 1033.17 1078.65 1044.76 1075.5 1057.15C1070.63 1076.44 1064.96 1095.51 1059.64 1114.68C1050.93 1101.93 1042.78 1088.87 1037.17 1074.4C1037.24 1062.91 1047.15 1063.73 1054.07 1060.8C1062.51 1053.82 1063.64 1042.65 1069.46 1034.18C1073.43 1028.39 1075.22 1020.37 1084.28 1019.83V1019.8Z" fill="#1FD0EF"/>
<path d="M1211.54 1396.95C1239.3 1423.57 1271.62 1443.77 1302.33 1466.12C1305.26 1468.22 1312.3 1468.41 1309.63 1473.86C1306.86 1479.46 1301.35 1476.19 1297.39 1473.86C1266.83 1455.67 1239.52 1432.92 1210.82 1412.12C1203.11 1406.55 1208.33 1401.61 1211.57 1397.01L1211.54 1396.95Z" fill="#F6F6DA"/>
<path d="M965.681 912.934C964.894 917.434 963.006 921.116 958.506 923.004C952.747 913.5 952.559 901.228 943.779 893.203C941.954 887.004 941.828 881.12 946.832 876.179C949.915 864.819 955.957 857.33 969.142 859.249C976.726 869.382 980.691 880.994 983.114 893.266C980.723 902.833 974.649 909.189 965.649 912.965L965.681 912.934Z" fill="#1FD0EF"/>
<path d="M1276.36 1428.16C1281.08 1424.29 1285.8 1420.42 1290.52 1416.55C1293.96 1413.84 1297.42 1413.5 1300.97 1416.36C1325.11 1418.88 1332.47 1434.43 1320.58 1457.87C1314.98 1461.61 1312.27 1456.61 1309.06 1453.84C1301.82 1447.58 1292.89 1443.65 1286.03 1436.91C1282.82 1433.98 1279.61 1431.09 1276.36 1428.16Z" fill="#F6F5D8"/>
<path d="M1154.43 1621C1151.75 1596.39 1159.4 1572.76 1161.26 1548.56C1161.66 1543.15 1166.23 1540.98 1170.07 1538.37C1171.23 1538.99 1172.27 1539.81 1173.12 1540.82C1175.76 1544.85 1176.45 1549.32 1176.08 1554.01C1175.73 1557.21 1176.01 1560.39 1176.8 1563.57C1177.12 1564.96 1177.3 1566.31 1177.49 1567.69C1177.65 1572.82 1177.34 1577.95 1177.49 1583.08C1177.49 1586.13 1177.49 1589.22 1177.49 1592.27C1177.49 1594.63 1177.49 1596.99 1177.4 1599.38C1176.52 1611.31 1170.19 1618.89 1158.9 1622.48C1157.2 1622.64 1155.69 1622.13 1154.43 1620.97V1621Z" fill="#FFD313"/>
<path d="M1277.03 993.341C1267.24 1014.87 1255.12 1021.22 1234.73 1015.46C1230.86 1011.91 1224.88 1014.9 1221.04 1011.12C1217.49 1008.13 1213.77 1005.14 1218.78 1000.36C1226.87 999.006 1230.7 990.1 1238.89 988.873C1244.17 991.17 1248.42 989.691 1252.45 985.726C1257.89 980.408 1264.28 978.205 1271.77 981.32C1276.84 983.901 1276.49 988.81 1277.03 993.341Z" fill="#F9AFF3"/>
<path d="M1065.81 1256.32C1053.63 1254.08 1046.55 1256.7 1050.08 1271.39C1051.37 1276.74 1050.2 1282.5 1047.37 1287.6C1039.44 1276.77 1046.55 1264.12 1043.12 1252.76C1043.94 1247.07 1044.45 1241.21 1050.24 1237.91C1068.17 1241.91 1087.34 1240.17 1104.08 1249.77C1107.95 1251.98 1109.55 1249.39 1109.87 1245.65C1110.21 1241.59 1109.93 1237.31 1112.79 1233.85C1113.42 1241.65 1114.87 1249.55 1110.12 1256.73C1095.33 1258.11 1080.57 1259.02 1065.84 1256.32H1065.81Z" fill="#1FD0EF"/>
<path d="M1235.39 1123.96C1235.71 1114.74 1235.99 1105.52 1236.31 1096.3C1246.78 1111.85 1257.23 1127.39 1267.68 1142.94C1264.12 1151.28 1256.79 1156.22 1250.37 1161.98C1234.7 1159.24 1227.68 1141.36 1235.36 1123.96H1235.39Z" fill="#1FD0EF"/>
<path d="M1269.73 1362.49L1270.7 1359.34C1274.86 1351.38 1280.55 1348.08 1289.05 1353.3C1292.98 1354.65 1296.95 1355.91 1300.85 1357.33C1307.24 1359.66 1314.25 1361.7 1314.85 1370.04C1315.42 1377.91 1310.41 1382.38 1303.71 1385.27C1285.78 1387.47 1270.45 1377.22 1269.73 1362.52V1362.49Z" fill="#F187FF"/>
<path d="M1324.51 1197.03C1336.78 1196.78 1349.09 1196.53 1361.36 1196.27C1360.35 1199.58 1357.83 1201.37 1354.97 1202.85C1337.38 1200.77 1321.33 1207.29 1304.9 1211.72C1285.46 1216.98 1266.01 1222.23 1246.53 1227.49C1239.45 1222.17 1245.78 1218.96 1248.73 1215.78C1252.57 1211.69 1258.08 1210.06 1263.11 1207.82C1283.35 1203.01 1302.76 1193.47 1324.51 1197.03Z" fill="#1FD0EF"/>
<path d="M1050.24 1237.88C1049.61 1243.67 1047.75 1248.86 1043.12 1252.73C1040.2 1249.14 1040.36 1244.8 1040.83 1240.74C1045.64 1199.58 1048.98 1158.23 1059.17 1117.89C1062.01 1148.98 1054.67 1179.22 1051.56 1209.81C1050.61 1219.18 1048.98 1228.43 1050.24 1237.88Z" fill="#1FD0EF"/>
<path d="M1057.44 1066.69C1049.07 1064.99 1042.65 1068.48 1037.21 1074.4C1028.24 1060.58 1021.1 1045.86 1015.02 1030.63C1027.96 1026.28 1034.16 1038.62 1043.88 1042.27C1057.16 1046.14 1059.8 1050.92 1057.47 1066.69H1057.44Z" fill="#1FD0EF"/>
<path d="M1277.03 993.34C1274.76 990.035 1272.47 986.731 1270.2 983.427C1263.91 979.745 1257.93 979.934 1251.95 984.466C1247.95 987.487 1243.77 990.445 1238.36 990.382C1233.42 996.266 1229.86 1004.26 1219.88 1002.43C1219.73 991.861 1226.93 983.805 1229.58 974.207C1233.82 974.868 1238.17 974.585 1241.25 971.532C1249.68 963.225 1260.54 963.067 1271.11 961.809C1269.04 968.323 1274.23 972.256 1276.53 977.228C1278.95 982.483 1280.74 987.864 1276.97 993.34H1277.03Z" fill="#F9AFF3"/>
<path d="M1263.94 1316.39C1278.79 1322.62 1293.64 1328.88 1308.5 1335.11C1306.33 1341.85 1303.49 1347.86 1294.97 1347.89C1281.4 1348.61 1269.23 1345.12 1258.87 1336.09C1260.57 1329.51 1262.24 1322.93 1263.94 1316.36V1316.39Z" fill="#F4A68A"/>
<path d="M1438.06 1250.03C1437.9 1248.83 1437.78 1247.67 1437.62 1246.47C1439.95 1232 1437.43 1219.35 1424.94 1209.84C1422.14 1207.73 1420.53 1204.11 1422.17 1200.15C1425.47 1194.58 1428.75 1188.98 1432.05 1183.41C1454.74 1203.2 1457.13 1229.48 1438.06 1250.03Z" fill="#F9B0F3"/>
<path d="M1238.35 1622.11C1233.98 1624.47 1230.05 1623.3 1226.37 1620.5C1218.59 1615.34 1213.87 1608.32 1212.83 1598.91C1212.71 1595.45 1213.94 1592.56 1216.36 1590.13C1223.82 1590.13 1227.72 1586.11 1229.2 1579.03C1230.46 1572.98 1231.09 1566.66 1235.71 1561.88C1236.59 1581.95 1237.47 1602.03 1238.35 1622.11Z" fill="#E8B12C"/>
<path d="M1219.76 1517.25C1215.89 1525.9 1211.07 1533.68 1201.41 1536.92C1191.66 1545.63 1181.4 1549.6 1169.75 1540.22C1169.78 1539.59 1169.91 1538.96 1170.07 1538.36C1173.21 1533.46 1187.41 1539.91 1182.25 1526.47C1187.12 1512.66 1198.83 1511.4 1210.91 1510.83C1213.87 1512.97 1216.8 1515.11 1219.76 1517.25Z" fill="#FFD313"/>
<path d="M1300.98 1416.36C1297.48 1416.43 1294.02 1416.49 1290.53 1416.55C1290.43 1411.39 1283.26 1411.99 1282.85 1407.08C1284.33 1405.29 1286.41 1404.63 1288.58 1404.12C1288.61 1404.12 1288.23 1403.53 1287.51 1403.31C1283.76 1402.11 1284.39 1405.73 1283.13 1407.3C1276.43 1407.27 1272.18 1402.14 1266.9 1399.25C1264.16 1397.74 1261.99 1393.9 1266.3 1392.29C1279.45 1387.41 1268.34 1381.34 1267.56 1375.8C1270.8 1372.34 1274.04 1373.69 1277.28 1375.8C1281.75 1385.68 1295.56 1386.19 1298.87 1397.3C1301.45 1403.43 1309.82 1408.94 1300.98 1416.36Z" fill="#F187FF"/>
<path d="M1258.87 1336.12C1272.18 1336.18 1283.17 1343.33 1294.97 1347.92C1293.02 1349.72 1291.03 1351.51 1289.08 1353.3C1282.41 1353.62 1276.62 1356.64 1270.74 1359.34C1264.79 1354.69 1257.52 1351.41 1254.4 1343.74C1255.88 1341.19 1257.39 1338.67 1258.87 1336.12Z" fill="#F4A68A"/>
<path d="M1406.56 1171.86C1391.01 1167.36 1375.47 1162.89 1359.92 1158.39C1359.98 1157.89 1359.83 1157.1 1360.11 1156.91C1369.99 1149.77 1401.71 1160 1406.56 1171.86Z" fill="#FAF4EE"/>
<path d="M1314.73 1151.4C1305.01 1152.47 1295.31 1153.79 1285.59 1154.55C1279.11 1155.05 1273.25 1154.23 1279.17 1145.52C1296.82 1145.52 1358.27 1154.55 1378.91 1154.55C1393.07 1163.19 1383.88 1158.65 1378.91 1163.19L1314.73 1151.4Z" fill="#EFF6F7"/>
<path d="M1053.29 1290.11C1057.6 1283.6 1055.68 1276.17 1056.44 1269.16C1056.72 1266.54 1057.35 1263.9 1060.56 1263.62C1063.74 1263.33 1065.41 1265.63 1065.41 1268.31C1065.41 1277.09 1069.65 1287.03 1059.36 1293.35C1057.32 1292.29 1055.3 1291.22 1053.26 1290.15L1053.29 1290.11Z" fill="#1FD0EF"/>
<path d="M1276.52 1378.35C1274.07 1375.64 1270.83 1375.64 1267.59 1375.8C1263.4 1370.55 1266.83 1366.55 1269.76 1362.49C1275.3 1378.73 1292.73 1377.22 1303.74 1385.24C1303.96 1387.26 1304.18 1389.27 1304.4 1391.28C1292.04 1393.61 1283.98 1386.63 1276.56 1378.35H1276.52Z" fill="#F187FF"/>
<path d="M1286.03 1436.91C1299.78 1440.19 1306.72 1451.91 1319.12 1457.41C1320.98 1461.82 1312.2 1464.05 1308.11 1460.56C1297.88 1451.88 1292.51 1449.88 1286.03 1436.95V1436.91Z" fill="#FFD313"/>
<path d="M1276.52 1378.35C1285.62 1383.07 1293.71 1389.96 1304.4 1391.28C1302.55 1393.3 1300.72 1395.28 1298.9 1397.3C1292.1 1390.22 1277.66 1392.17 1276.56 1378.35H1276.52Z" fill="#F6F5D8"/>
<path d="M1250.5 1159.17C1253.77 1151.15 1261.01 1147.34 1267.71 1142.94C1268.44 1143.12 1269.16 1143.16 1269.89 1143.03C1269.89 1153.32 1261.2 1157 1255.06 1162.63C1253.02 1162.16 1251.38 1161.16 1250.5 1159.14V1159.17Z" fill="#1FD0EF"/>
<path d="M1408.81 1227.7C1415.1 1177.35 1438.7 1237.14 1438.7 1249.73C1430.14 1256.68 1414.38 1241.73 1408.81 1227.7Z" fill="#F9B0F3"/>
<path d="M968.071 859.754C959.291 863.027 953.941 870.736 946.861 876.181C943.525 869.635 937.169 867.086 931.032 864.16C908.784 853.492 888.55 838.324 863.156 834.705C857.114 833.856 848.963 831.779 848.68 824.919C848.365 817.618 858.246 821.489 862.809 816.863C856.956 810.286 844.463 805.975 852.708 793.576C871.022 790.713 885.718 797.636 898.305 810.349C899.407 815.415 898.526 819.412 895.505 820.199C902.459 809.72 905.197 793.608 918.665 785.458C932.511 789.8 943.683 791.185 946.42 771.265C947.364 764.405 954.13 755.342 965.144 762.203C957.308 793.576 966.182 823.031 975.466 852.453C975.245 857.174 972.571 859.377 968.071 859.754Z" fill="#F9B0F3"/>
<path d="M1135.2 846.977C1156.94 873.536 1187.15 880.081 1219.06 881.843C1231.62 882.536 1238.98 887.162 1238.82 900.536C1231.84 908.403 1223.62 905.067 1215.57 903.053C1199.77 897.483 1182.24 903.934 1166.79 896.035C1156.35 888.452 1145.9 882.819 1132.74 891.032C1129.03 893.361 1122.39 894.462 1125.38 885.431C1127.33 879.2 1124.22 875.015 1120.44 870.389C1114.34 862.9 1108.14 855.095 1109.65 844.302C1117.83 837.095 1125.7 841.627 1133.56 844.994C1134.1 845.655 1134.63 846.347 1135.2 847.008V846.977Z" fill="#FCC00E"/>
<path d="M1125.38 886.694C1126.74 890.691 1128.53 890.754 1132.05 888.362C1144.48 879.897 1156 882.006 1166.45 892.359C1165.57 893.523 1164.4 894.341 1163.02 894.813C1158.17 896.418 1150.27 892.39 1149.8 902.051C1149.3 904.883 1148.32 907.526 1146.91 910.012C1143.13 917.691 1131.77 924.771 1145.18 933.676C1148.42 936.54 1153.42 936.76 1155.91 940.757C1157.17 943.746 1157.1 946.704 1155.47 949.568C1153.07 952.841 1149.24 953.785 1145.9 955.578C1136.55 956.711 1133.15 964.767 1128.09 970.935C1124.41 975.277 1120.72 981.319 1114.24 978.172C1106.03 974.207 1109.24 965.554 1108.42 958.631C1111.98 938.145 1111.76 916.589 1125.35 898.935C1124.6 894.845 1121.17 890.754 1125.41 886.663L1125.38 886.694Z" fill="#F9AFF3"/>
<path d="M1005.99 872.529C1006.09 874.197 1006.15 875.865 1006.24 877.533C1000.8 887.571 995.608 897.987 981.069 894.462C975.468 883.354 969.363 872.466 968.104 859.722C970.559 857.299 973.013 854.875 975.499 852.421C987.363 846.945 994.852 850.879 998.849 862.994C1000.11 866.865 1002.03 870.547 1006.02 872.498L1005.99 872.529Z" fill="#1FD0EF"/>
<path d="M965.173 762.201C955.953 761.446 949.188 766.513 947.646 774.38C943.807 794.016 933.831 796.376 918.129 787.376C916.996 788.477 915.642 788.981 914.069 788.886C902.52 781.397 886 780.862 880.43 764.971C897.328 762.233 909.318 773.593 922.566 780.484C933.768 786.306 939.59 787.879 943.051 772.523C946.701 756.411 956.111 753.17 965.173 762.201Z" fill="#F9B0F3"/>
<path d="M897.048 811.104C883.014 803.394 867.846 798.516 852.741 793.576C855.447 782.121 864.762 790.46 870.363 787.723C881.818 792.002 897.489 788.761 901.863 805.534C901.36 808.334 902.429 812.52 897.048 811.104Z" fill="#F9B0F3"/>
<path d="M880.434 764.973C892.171 772.368 903.94 779.731 915.678 787.126C914.64 790.588 912.342 792.665 908.881 793.577C898.15 794.49 890.283 789.077 883.329 781.777C876.783 777.151 872.441 772.116 880.434 764.973Z" fill="#F9B0F3"/>
<path d="M883.326 781.775C891.508 784.702 899.69 787.629 907.903 790.555C909.162 801.349 907.494 804.149 899.186 805.282C892.767 794.237 879.047 795.149 870.393 787.723C874.83 786.024 881.753 789.737 883.326 781.775Z" fill="#F9B0F3"/>
<path d="M1132.18 832.472C1133.84 837.161 1150.52 838.734 1135.17 846.979L1135.29 847.136C1128.27 842.636 1117.67 845.469 1113.01 836.154C1110.4 833.983 1105.59 832.881 1107.91 827.972C1109.58 824.416 1113.3 824.951 1116.19 825.958C1121.6 827.846 1126.86 830.269 1132.15 832.472H1132.18Z" fill="#FCC00E"/>
<path d="M1113.05 836.154C1119.72 841.347 1129.16 840.906 1135.33 847.137C1126.77 846.161 1118.21 845.217 1109.65 844.242C1108.77 840.686 1109.9 838.011 1113.05 836.154Z" fill="#FCC00E"/>
<path d="M981.034 894.465C992.016 892.671 996.957 881.878 1006.21 877.566C1012.85 882.318 1016.66 889.021 1019.36 896.51C1014.14 904.629 1014.55 913.031 1021 919.608C1038.75 937.639 1048.97 960.454 1061.97 981.538C1065.75 987.674 1068.67 994.66 1070.47 1001.65C1072.61 1009.95 1078.08 1014.99 1084.25 1019.83C1072.17 1033.68 1069.02 1052.62 1057.38 1066.69C1054.48 1057.63 1051.65 1048.57 1043.78 1042.27C1035.16 1026.25 1027.26 1009.83 1017.79 994.345C1000.92 966.905 983.079 940.031 965.646 912.937C967.66 904.189 976.754 901.356 981.002 894.465H981.034Z" fill="#1FD0EF"/>
<path d="M1093.82 1176.79C1093.98 1183.47 1068.99 1221.73 1064.37 1223.84C1060.87 1225.44 1058.36 1224.19 1056.06 1221.73C1053.64 1219.12 1053.2 1216.04 1055.27 1213.2C1064.49 1200.58 1073.81 1188.03 1083.25 1175.6C1085.14 1173.11 1087.84 1170.78 1091.21 1173.08C1092.69 1174.09 1093.41 1176.26 1093.79 1176.83L1093.82 1176.79Z" fill="#1FD0EF"/>
<path d="M1090.45 1130.25C1091.43 1125.38 1088.91 1118.11 1097.78 1117.67C1104.36 1117.32 1107.38 1121 1106.66 1127.36C1105.9 1133.84 1106.4 1142.24 1097.12 1142.37C1090.01 1142.46 1090.76 1135.64 1090.45 1130.29V1130.25Z" fill="#1FD0EF"/>
<path d="M1250.5 1159.18C1252.01 1160.34 1253.55 1161.5 1255.06 1162.64C1245.87 1170.06 1246.09 1179.76 1248.48 1189.95C1254.56 1196.47 1262.9 1201.44 1263.56 1211.7C1258.49 1217.58 1248.23 1217.89 1246.53 1227.43C1235.08 1232.62 1230.93 1244.45 1223.25 1253.08C1221.83 1252.89 1220.41 1252.7 1219 1252.51C1214.88 1240.77 1228.72 1236.27 1229.35 1226.55C1227.31 1225.16 1224.91 1224.41 1223.12 1222.71C1220.45 1217.77 1223.69 1209.62 1215 1208.01C1208.27 1203.64 1203.23 1197.66 1199.55 1190.67C1196.66 1185.2 1192.72 1178.78 1199.08 1173.71C1204.49 1169.4 1209.87 1173.12 1214.5 1176.89C1216.51 1178.53 1218.15 1180.64 1222.18 1182.46C1225.26 1172.86 1223.5 1163.23 1223.78 1153.89C1224.13 1142.43 1223.4 1130.95 1224.16 1119.49C1224.51 1114.02 1223.88 1107.66 1230.71 1104.92C1234.64 1110.68 1230.11 1118.55 1235.39 1123.96C1235.68 1135.1 1238.7 1145.61 1242.79 1155.81C1244.14 1159.21 1245.75 1163.08 1250.5 1159.14V1159.18Z" fill="#1FD0EF"/>
<path d="M1216.76 898.395C1224.13 899.087 1231.46 899.811 1238.82 900.503C1247.73 899.874 1252.86 903.052 1251.32 912.933C1246.25 921.65 1241.18 930.335 1236.12 939.052C1227.43 934.426 1227.4 924.45 1222.65 917.433C1219.6 912.618 1215.63 908.244 1214.97 902.202C1215.1 900.723 1215.73 899.464 1216.76 898.395Z" fill="#FCC00E"/>
<path d="M1201.1 1244.74C1200.06 1245.93 1198.99 1247.13 1197.95 1248.32C1193.8 1247.25 1189.64 1246.18 1185.52 1245.15C1168.08 1237.14 1177.68 1245.15 1161.26 1231.33C1157.45 1227.33 1155.66 1222.52 1155.66 1217.01C1153.77 1203.61 1156.19 1190.52 1158.36 1177.43C1156.51 1159.11 1158.84 1141.36 1165.13 1124.09C1166.26 1120.34 1168.06 1117.29 1172.46 1116.94C1172.93 1120.63 1172.62 1124.62 1176.33 1127.08C1184.45 1135.64 1180.45 1145.55 1179.48 1155.15C1178.91 1160.81 1178.79 1166.54 1177.68 1172.14C1174.57 1181.55 1175.07 1191.4 1174.1 1201.12C1172.11 1220.85 1182.75 1227.96 1200.75 1227.87C1203.87 1227.87 1206.95 1228.03 1209.75 1229.63C1213.68 1238.57 1203.58 1239.45 1201.1 1244.7V1244.74Z" fill="#1FD0EF"/>
<path d="M1172.36 1174.28C1173.68 1158.54 1175.01 1142.84 1176.33 1127.11C1177.33 1120.53 1177.05 1113.89 1177.93 1107.25C1179.16 1098.06 1182.65 1095.95 1190.77 1096.58C1194.64 1096.87 1201.25 1097.94 1201.5 1093.03C1202.32 1076.54 1213.93 1080.22 1222.77 1081.51C1236.09 1083.46 1228.12 1094.82 1230.14 1101.87C1230.42 1102.88 1230.55 1103.92 1230.74 1104.92C1225.61 1134.72 1232.66 1165.03 1227.59 1196.27C1218.31 1192.44 1215.38 1184.19 1209.87 1178.59C1207.2 1175.88 1203.11 1171.82 1199.14 1175.63C1195.59 1179.03 1200.12 1182.24 1201.97 1184.91C1207.32 1192.5 1211.54 1201.15 1220.13 1205.97C1228.12 1212.92 1221.04 1216.35 1216.29 1218.3C1204.37 1223.18 1191.81 1222.9 1179.57 1219.06C1174.09 1217.33 1171.26 1212.76 1171.42 1206.97C1171.7 1196.09 1170.16 1185.13 1172.39 1174.28H1172.36Z" fill="#1FD0EF"/>
<path d="M1124.94 1033.08C1112.92 1025.24 1112.76 1014.54 1117.54 1002.62C1132.24 1001.61 1141.84 1014.83 1155.71 1016.21C1165.75 1018.41 1176.11 1016.72 1186.14 1018.89C1195.49 1021.09 1199.8 1027.57 1201.12 1036.54C1202.19 1043.81 1197.57 1046.61 1191.71 1048.4C1188.66 1049.85 1185.61 1051.33 1182.56 1052.78C1166.41 1061.75 1153.98 1059.2 1144.35 1044.94C1137.9 1040.98 1131.42 1037.04 1124.97 1033.08H1124.94Z" fill="black"/>
<path d="M1144.33 1044.94C1156 1052.68 1169.03 1053.94 1182.53 1052.78C1181.43 1056.68 1180.33 1060.58 1179.23 1064.42C1171.67 1077.26 1160.57 1074.84 1149.49 1070.9C1139.42 1067.32 1137.25 1059.42 1139.07 1049.7C1139.64 1046.61 1141.81 1045.64 1144.36 1044.94H1144.33Z" fill="#F9AFF3"/>
<path d="M1185.2 1077.17C1190.55 1076.88 1193.89 1077.73 1194.49 1082.33C1195.34 1089.22 1190.3 1089 1185.68 1089.79C1181.14 1090.57 1178.82 1089.63 1179.04 1084.63C1179.26 1079.65 1181.74 1077.17 1185.24 1077.17H1185.2Z" fill="#1FD0EF"/>
<path d="M1119.05 1064.8C1123.3 1066.69 1127.55 1070.37 1131.83 1064.8C1131.7 1070.37 1132.62 1076.16 1128.43 1081.32C1122.52 1076.76 1121.16 1070.56 1119.05 1064.8Z" fill="#1FD0EF"/>
<path d="M1422.16 1200.18C1425.37 1203.58 1428.08 1207.73 1431.86 1210.22C1447.4 1220.35 1447.09 1232.59 1437.62 1246.47C1432.05 1240.81 1429.69 1233.73 1427.92 1226.14C1425.88 1217.33 1420.94 1210.38 1412.57 1206.29C1408.82 1203.01 1403.66 1201.03 1402.15 1194.64C1410.11 1192.53 1415.34 1199.71 1422.16 1200.12V1200.18Z" fill="#F9B0F3"/>
<path d="M1094.42 1278C1093.19 1282.69 1096.08 1289.86 1088.78 1289.08C1082.46 1288.41 1084.66 1281.65 1084.85 1277.43C1085.04 1273.4 1082.81 1266.23 1089.98 1266.95C1096.46 1267.61 1092.62 1274.69 1094.42 1278Z" fill="#1FD0EF"/>
<path d="M1102.73 1262.99C1108.14 1273.66 1107.32 1279.86 1104.74 1287.85C1098.01 1280.64 1100.65 1274.1 1102.73 1262.99Z" fill="#1FD0EF"/>
<path d="M1065.81 1256.32C1080.57 1256.44 1095.33 1256.6 1110.09 1256.73C1095.3 1260.94 1080.51 1261.16 1065.81 1256.32Z" fill="#1FD0EF"/>
<path d="M1071.82 1264.21C1078.4 1274 1080.07 1279.89 1076.23 1286.34C1075.88 1286.9 1073.87 1287.28 1073.59 1286.94C1068.65 1281.08 1072.67 1274.85 1071.82 1264.21Z" fill="#1FD0EF"/>
<path d="M1263.56 1211.73C1254.87 1207.01 1250.91 1199.04 1248.49 1189.98C1266.33 1194.83 1284.08 1196.56 1302.04 1190.14C1308.02 1188 1313.97 1186.36 1317.27 1180.29C1318.88 1186.21 1314.1 1194.89 1324.48 1197.03C1304.06 1201.53 1284.61 1210 1263.56 1211.73Z" fill="#1FD0EF"/>
<path d="M1185.2 1024.43C1174.69 1023.83 1163.96 1027.01 1153.73 1022.32C1148.38 1015.71 1146.72 1008.35 1149.33 1000.17C1153.58 994.284 1160.09 994.724 1166.23 994.221C1170.88 993.875 1175.73 994.221 1180.1 992.521C1186.96 989.815 1194.36 986.07 1195.18 978.266C1196.22 968.354 1186.11 970.556 1180.64 967.756C1169 961.777 1153.29 965.081 1144.73 952.053C1147.22 948.969 1150.84 949.347 1154.21 948.969C1160.25 945.287 1159.43 938.144 1162.23 933.015C1160 935.438 1160 940.693 1154.55 939.749C1151 940.441 1146.84 944.815 1144.42 938.144C1147.53 928.2 1149.67 918.256 1144.58 908.249C1145.71 906.11 1146.84 903.97 1148.01 901.798C1151.69 895.977 1159.27 896.669 1163.83 892.326C1164.72 892.389 1165.57 892.358 1166.45 892.295C1182.4 900.414 1200.75 892.075 1216.76 899.627C1216.76 900.697 1216.76 901.735 1216.8 902.805C1215.66 906.267 1209.37 908.596 1213.3 912.97C1216.32 916.337 1220.89 918.288 1225.42 914.354C1229.82 922.662 1235.17 930.56 1236.12 940.316C1233.79 951.55 1227.4 962.029 1229.6 974.144C1236.81 987.14 1225.58 993.811 1219.91 1002.37C1216.98 1006.49 1222.43 1006.08 1223.09 1008.22C1216.04 1009.64 1208.83 1010.74 1204.93 1017.98C1203.39 1019.08 1201.85 1020.15 1200.31 1021.25C1196.34 1027.55 1189.73 1020.87 1185.2 1024.37V1024.43Z" fill="#F9AFF3"/>
<path d="M1104.17 1338.26C1098.07 1343.67 1089.82 1343.95 1082.8 1347.2C1073.11 1347.67 1067.95 1344.36 1067.07 1333.38C1066.09 1321.08 1062.63 1308.99 1060.24 1296.78C1067.23 1290.46 1075.13 1294.05 1082.71 1294.77C1094.95 1295.93 1106.78 1295.68 1116.41 1286.43C1134.07 1276.49 1153.32 1269.37 1169.28 1256.44C1175.79 1252.79 1179.25 1245.55 1185.96 1242.09C1190.93 1241.18 1195.27 1242.31 1198.89 1245.96C1202.95 1256.35 1195.81 1262.99 1189.95 1269.09C1177.78 1281.84 1164.31 1293.29 1149.77 1303.39C1137.81 1310.6 1125.76 1317.87 1112.38 1321.96C1103.01 1324.82 1102.13 1330.45 1104.17 1338.29V1338.26Z" fill="#9B44FC"/>
<path d="M1234.67 1081.21C1226.17 1061.79 1209.08 1068.43 1194.36 1067.93C1188.94 1067.74 1181.83 1073.66 1179.22 1063.62C1175.98 1058.21 1178.25 1053.64 1181.45 1049.21C1184.22 1046.53 1187.56 1044.96 1191.21 1043.92C1207.07 1040.62 1207.26 1040.27 1200.74 1025.79C1199.67 1023.43 1198.98 1021.04 1199.49 1018.43C1200.4 1016.04 1202.13 1014.56 1204.52 1013.74C1214.81 1012.8 1222.24 1016.64 1225.86 1026.68C1232.91 1035.9 1237.72 1046.34 1240.65 1057.42C1242.91 1065.98 1244.14 1075.17 1234.67 1081.18V1081.21Z" fill="#9B44FC"/>
<path d="M1124.94 1032.31C1129.88 1042.32 1139.45 1051.32 1131.83 1064.03C1127.55 1075.86 1123.3 1068.31 1119.05 1064.03C1114.05 1059.88 1109.02 1055.69 1104.01 1051.51C1094.68 1035.14 1083.61 1019.2 1089.02 999.36C1089.85 996.317 1088.63 992.718 1090.25 990.015C1090.93 988.886 1092.05 987.887 1092.85 986.844C1094.66 984.503 1096.84 982.705 1099.51 981.639C1101.96 980.657 1104.79 980.472 1107.19 981.602C1107.98 981.974 1108.73 982.446 1109.46 982.999C1115.18 988.789 1120.5 994.862 1121.38 1003.48C1116.98 1013.77 1123.71 1022.68 1124.94 1032.28V1032.31Z" fill="#9B44FC"/>
<path d="M1236.65 1221.83C1242.79 1223.46 1238.45 1226.04 1237.03 1227.99C1231.11 1236.24 1225.04 1244.39 1219 1252.57C1198.45 1272.9 1179.22 1294.74 1154.39 1310.25C1149.36 1308.84 1145.68 1306.48 1147.72 1300.31C1164.43 1282.97 1187.47 1271.73 1197.95 1248.35C1197.66 1245.93 1201.24 1240.66 1202.69 1238.71C1213.36 1229.02 1220.79 1221.95 1236.65 1221.86V1221.83Z" fill="#9B44FC"/>
<path d="M1147.72 1300.28C1149.96 1303.58 1152.16 1306.92 1154.39 1310.22C1139.51 1322.9 1122.3 1331.43 1104.14 1338.26C1100.46 1334.76 1096.78 1331.27 1091.96 1326.74C1111.35 1317.55 1129.53 1308.9 1147.69 1300.28H1147.72Z" fill="#9B44FC"/>
<path d="M1119.84 1287.34C1120 1270.51 1117.67 1253.55 1121.89 1236.87C1136.4 1240.71 1150.12 1235.42 1164.12 1233.12C1172.27 1240.2 1177.4 1248.32 1173.12 1259.62C1157.39 1272.77 1139.89 1282.53 1119.84 1287.34Z" fill="#9B44FC"/>
<path d="M1163.52 1230.98C1170.85 1235.7 1178.19 1240.42 1185.52 1245.15C1183.38 1251.69 1178.88 1256.16 1173.15 1259.62C1169.75 1251.25 1166.35 1242.91 1162.95 1234.54C1162.23 1233.22 1162.48 1232.02 1163.55 1230.98H1163.52Z" fill="#9B44FC"/>
<path d="M1168.53 1124.89C1166.29 1142.01 1164.06 1159.16 1161.79 1176.28C1147.69 1185.06 1136.27 1183.04 1127.02 1170.14C1128.88 1154.69 1130.73 1139.21 1132.56 1123.75C1147 1114.25 1156.6 1114.57 1168.49 1124.89H1168.53Z" fill="#9B44FC"/>
<path d="M1168.52 1124.89C1156.63 1122.25 1144.61 1122.18 1132.59 1123.76C1130.1 1106.86 1137.49 1091.22 1138.34 1073.75C1144.17 1076.52 1149.3 1081.27 1153.92 1080.8C1180.32 1078.25 1173.46 1095.78 1172.46 1110.01C1172.3 1112.05 1172.46 1114.13 1172.46 1116.17C1171.13 1119.07 1169.81 1121.99 1168.49 1124.89H1168.52Z" fill="#9B44FC"/>
<path d="M1127.02 1170.14C1137.78 1176.94 1149.77 1176.75 1161.79 1176.28C1163.93 1190.15 1159.21 1203.69 1159.62 1217.47C1148.44 1217.53 1136.07 1221.73 1122.52 1230.06C1120.75 1211.05 1125.25 1192.39 1125.35 1173.48C1125.92 1172.34 1126.48 1171.24 1127.05 1170.11L1127.02 1170.14Z" fill="#9B44FC"/>
<path d="M1122.52 1230.09C1130.76 1208.97 1143.07 1204.78 1159.62 1217.5C1160.91 1221.75 1162.23 1225.99 1163.52 1230.21C1163.33 1231.41 1163.14 1232.57 1162.92 1233.77C1147.16 1245.76 1131.8 1246.64 1121.89 1236.1C1122.11 1234.11 1122.3 1232.1 1122.52 1230.12V1230.09Z" fill="#9B44FC"/>
<path d="M1185.2 1022.36C1189.8 1019.22 1195.02 1019 1200.31 1019.25C1200.88 1020.1 1201.38 1021.01 1202.04 1021.8C1206.51 1027.11 1215.67 1031.43 1212.83 1038.95C1209.72 1047.25 1200.12 1047.92 1191.66 1047.63C1200.03 1036.68 1198.17 1029.51 1185.2 1022.36Z" fill="#9B44FC"/>
<path d="M1173.65 1583.24L1173.59 1565.56C1183.88 1555.8 1196.34 1560.62 1208.05 1560.36C1211.1 1564.01 1209.9 1567.44 1207.54 1570.81C1199.9 1576.41 1190.14 1573.3 1181.99 1576.79C1180.04 1577.58 1183.63 1578.62 1182.24 1577.04C1190.93 1574.02 1199.86 1573.58 1208.93 1574.37C1214.62 1577.23 1213.11 1582.14 1212.48 1586.83C1204.33 1589.47 1195.99 1587.49 1187.72 1588.06C1182.49 1587.99 1177.27 1587.96 1173.65 1583.3V1583.24Z" fill="#F187FF"/>
<path d="M1169.75 1540.22C1180.7 1542.87 1190.87 1538.18 1201.41 1536.92C1202.48 1540.13 1203.52 1543.34 1204.59 1546.55C1196.94 1557.66 1185.52 1560.14 1172.9 1553.47C1171.86 1549.06 1170.79 1544.63 1169.75 1540.22Z" fill="#F187FF"/>
<path d="M1216.33 1590.13C1216.2 1593.25 1216.04 1596.39 1215.92 1599.51C1202.01 1607.94 1188.1 1608.13 1174.28 1599.32C1174.1 1597.15 1173.88 1594.98 1173.69 1592.77C1178.66 1586.67 1186.31 1588.81 1192.57 1586.7C1199.36 1586.64 1206.26 1585.57 1212.71 1588.65C1213.9 1589.12 1215.13 1589.63 1216.33 1590.1V1590.13Z" fill="#F187FF"/>
<path d="M1172.9 1553.47C1183.72 1552.43 1195.05 1553.66 1204.56 1546.55C1209.59 1549.79 1210.66 1554.04 1207.7 1559.26C1196.09 1561.46 1184.57 1565.27 1172.62 1561.31C1169.78 1558.57 1169.31 1555.93 1172.9 1553.44V1553.47Z" fill="#F187FF"/>
<path d="M1212.71 1588.68C1205.81 1589.25 1198.92 1589.82 1192.06 1590.38C1186.62 1591.17 1181.11 1592.78 1175.07 1588.59C1178.78 1582.99 1184.73 1586.1 1188.88 1584.28C1196.78 1584.88 1205.25 1579.91 1212.49 1586.77C1212.67 1587.39 1212.77 1588.02 1212.74 1588.68H1212.71Z" fill="#F6F6DA"/>
<path d="M1172.62 1561.34C1184.42 1562.25 1195.84 1556.96 1207.7 1559.29L1208.05 1560.36C1197.45 1567.82 1185.02 1563.45 1173.59 1565.55C1173.28 1564.17 1172.93 1562.75 1172.62 1561.37V1561.34Z" fill="#F6F6DA"/>
<path d="M1208.93 1574.3C1198.64 1578.9 1188 1576.79 1177.52 1577.95C1177.4 1576.66 1177.27 1575.34 1177.15 1574.05C1187.28 1572.95 1197.41 1571.88 1207.55 1570.78C1208.02 1571.94 1208.46 1573.14 1208.93 1574.3Z" fill="#F6F6DA"/>
<path d="M1174.29 1599.32C1188.16 1599.38 1202.04 1599.45 1215.95 1599.51C1218.78 1606.81 1225.71 1612.1 1226.37 1620.47C1203.33 1623.74 1180.3 1628.08 1157.1 1621.38C1164.34 1615.21 1173.44 1610.49 1174.29 1599.32Z" fill="#F6F6DA"/>
<path d="M1188.89 1584.28C1185.27 1585.48 1181.62 1586.64 1174.03 1589.13C1182.72 1589.76 1187.41 1590.07 1192.06 1590.42C1186.31 1594.07 1179.89 1592.68 1173.69 1592.84C1173.69 1589.63 1173.69 1586.45 1173.66 1583.24C1178.72 1583.59 1183.82 1583.93 1188.89 1584.28Z" fill="#F6F6DA"/>
<path d="M1238.38 989.056C1250.91 974.927 1258.33 973.291 1270.2 982.133C1263.3 982.605 1257.51 984.021 1253.3 990.913C1248.1 999.346 1242.13 999.63 1238.38 989.088V989.056Z" fill="#F9AFF3"/>
<path d="M1283.16 1407.3C1280.33 1403.81 1277.5 1400.32 1273.09 1394.87C1284.83 1398.05 1294.37 1400.03 1300.85 1408.97C1293.96 1413.09 1288.92 1405.73 1282.88 1407.08L1283.16 1407.3Z" fill="#F6F5D8"/>
<path d="M899.158 805.282C906.491 803.017 905.2 795.59 907.875 790.555C910.456 789.422 913.067 788.258 915.648 787.125C916.497 787.125 917.316 787.188 918.102 787.377C911.777 798.894 906.522 811.167 898.875 821.709C891.858 831.369 868.283 817.979 861.549 817.035C868.251 816.217 895.603 824.509 897.019 811.135C897.743 809.184 898.435 807.233 899.127 805.282H899.158Z" fill="#F9B0F3"/>
<path d="M937.613 802.135C933.994 814.533 931.256 826.365 945.543 838.071C923.798 828.096 922.917 822.495 937.613 802.135Z" fill="#F9B0F3"/>
<path d="M1150.84 1000.04C1155.34 1007 1153.8 1014.77 1153.77 1022.32C1139.45 1020.66 1128.53 1012.25 1117.58 1003.95C1114.52 998.439 1111.5 992.964 1108.48 987.489C1108.86 986.733 1109.43 986.293 1110.28 986.135C1116.92 977.167 1123.12 983.461 1129 987.016C1135.07 990.698 1139.7 996.992 1147.69 997.118C1149.08 997.747 1150.15 998.723 1150.87 1000.04H1150.84Z" fill="#F9AFF3"/>
<path d="M1144.58 907.018C1158.43 913.846 1158.36 926.024 1144.42 936.912C1138.54 936.346 1132.91 934.993 1132.02 927.944C1130.77 917.874 1136.74 911.832 1144.58 907.018Z" fill="black"/>
<path d="M1126.64 963.851C1125.48 980.435 1134.38 990.756 1148.01 998.089C1141.84 1002.24 1137.78 999.001 1133 994.847C1126.61 989.309 1120.82 981.221 1110.24 984.777C1110.59 975.431 1108.17 965.833 1112.79 956.896C1112.83 957.4 1112.79 957.903 1112.92 958.407C1114.12 963.568 1110.25 971.278 1115.85 973.638C1123.08 976.69 1121.04 965.141 1126.64 963.851Z" fill="#F9AFF3"/>
<path d="M1154.55 938.52C1159.9 931.439 1161.48 921.307 1172.02 916.807C1171.14 927.821 1160.57 934.869 1164.34 946.701C1165.57 950.541 1157.76 946.702 1154.24 947.708C1154.33 944.656 1154.46 941.572 1154.55 938.52Z" fill="#C13726"/>
<path d="M1163.83 891.095C1165.88 906.515 1154.42 899.371 1148.01 900.567C1145.87 898.176 1140.11 898.333 1142.18 893.015C1143.6 889.459 1146.53 887.256 1150.59 887.13C1155.43 887.004 1159.81 888.515 1163.83 891.095Z" fill="black"/>
<path d="M1172.36 1174.28C1172.36 1183.56 1172.77 1192.91 1172.3 1202.16C1171.8 1211.57 1176.08 1215.47 1185.08 1215.28C1193.86 1215.09 1202.7 1215.47 1211.41 1214.62C1215.82 1214.21 1223.12 1214.68 1220.13 1205.97C1234.42 1209.02 1226.27 1215.85 1222.81 1221.89C1220.48 1226.67 1217.8 1231.05 1211.45 1230.54C1180.73 1239.16 1169.09 1230.51 1169.66 1198.85C1169.81 1190.64 1167.83 1182.05 1172.39 1174.28H1172.36Z" fill="#1FD0EF"/>
<path d="M1211.38 1230.51C1215.19 1227.62 1218.97 1224.75 1222.77 1221.86C1227.4 1221.86 1232.03 1221.83 1236.65 1221.8C1222.84 1226.39 1209.93 1237.52 1197.97 1245C1201.4 1240.28 1205.55 1232.45 1208.98 1227.7L1211.38 1230.51Z" fill="#1FD0EF"/>
<path d="M1225.42 913.092C1225.8 918.253 1224.86 923.665 1218.37 920.581C1212.8 917.938 1203.39 917.781 1203.02 909.945C1202.64 901.889 1210.73 902.109 1216.8 901.543C1219.66 905.382 1222.56 909.221 1225.42 913.092Z" fill="black"/>
<path d="M1210.54 1133.5C1209.91 1138.72 1209.62 1145.74 1201.19 1146.24C1194.9 1146.62 1191.06 1142.94 1192.69 1136.3C1194.17 1130.22 1192.66 1121.38 1202.76 1121.29C1210.06 1121.22 1210.6 1126.79 1210.54 1133.46V1133.5Z" fill="#1FD0EF"/>
<path d="M1217.18 939.527C1217.02 946.009 1212.3 952.523 1203.68 953.089C1196.09 953.593 1193.61 946.796 1193.92 939.873C1194.33 930.999 1198.86 924.453 1207.83 923.824C1216.39 923.226 1217.05 930.401 1217.18 939.558V939.527Z" fill="black"/>
<path d="M1237.06 1632.33C1237.76 1631.14 1238.32 1629.72 1238.73 1627.99C1237.47 1625 1236.53 1622.8 1235.27 1619.81C1231.43 1617.51 1227.06 1616.82 1222.52 1616.6C1222.34 1616.6 1222.18 1616.6 1221.99 1616.6C1200.43 1619.18 1178.5 1616.41 1157.1 1621.38C1156.22 1621.19 1155.34 1621.07 1154.43 1620.97C1154.71 1626.67 1153.33 1630.35 1150.12 1632.3H1237.09L1237.06 1632.33Z" fill="#F6F6DA"/>
<path d="M1175.95 949.564L1177.56 950.446L1179.38 950.225C1203.71 956.016 1212.01 968.477 1206.38 990.693C1202.19 999.977 1196.12 1006.84 1185.01 1007.12C1167.27 1001.08 1149.14 996.641 1130.64 993.84C1116.29 991.669 1111.63 983.361 1118.17 970.271C1125 956.676 1136.8 950.603 1151.63 950.037C1159.74 949.722 1167.86 949.722 1175.95 949.564Z" fill="black"/>
<path d="M1166.07 964.101C1166.07 964.101 1139.1 962.874 1143.38 955.006C1143.6 954.597 1144.01 954.346 1144.48 954.283C1149.55 953.527 1180.7 949.405 1193.63 959.506C1194.23 959.978 1194.39 960.86 1193.98 961.489C1192.47 963.818 1185.64 965.233 1165.88 964.069" fill="#E6E9EE"/>
<path d="M1161.32 977.602C1161.32 977.602 1188.1 981.41 1182.97 994.218C1182.72 994.878 1182.25 995.256 1181.81 995.35C1176.68 996.263 1145.11 1001.14 1133.31 983.424C1132.78 982.606 1132.72 981.127 1133.19 980.088C1134.95 976.312 1141.9 974.361 1161.51 977.602" fill="#F187FF"/>
<defs>
<linearGradient id="paint0_linear_232_6675" x1="585.273" y1="946.329" x2="396.811" y2="1032.53" gradientUnits="userSpaceOnUse">
<stop stop-color="#F3A6A2"/>
<stop offset="1" stop-color="#F187FF"/>
</linearGradient>
<linearGradient id="paint1_linear_232_6675" x1="761.866" y1="818.907" x2="634.5" y2="858.509" gradientUnits="userSpaceOnUse">
<stop stop-color="#FFBCF9"/>
<stop offset="1" stop-color="#F1A0EB"/>
</linearGradient>
<linearGradient id="paint2_linear_232_6675" x1="215.742" y1="1205.28" x2="215.742" y2="1288.1" gradientUnits="userSpaceOnUse">
<stop stop-color="#F187FF"/>
<stop offset="1" stop-color="#F3A6A2"/>
</linearGradient>
<linearGradient id="paint3_linear_232_6675" x1="547.125" y1="1425.27" x2="547.125" y2="1482.91" gradientUnits="userSpaceOnUse">
<stop stop-color="#F3A6A2"/>
<stop offset="1" stop-color="#F187FF"/>
</linearGradient>
<linearGradient id="paint4_linear_232_6675" x1="319.649" y1="1512.45" x2="319.649" y2="1562.63" gradientUnits="userSpaceOnUse">
<stop stop-color="#F3A6A2"/>
<stop offset="1" stop-color="#F187FF"/>
</linearGradient>
<linearGradient id="paint5_linear_232_6675" x1="197.583" y1="1196.94" x2="197.583" y2="1246.53" gradientUnits="userSpaceOnUse">
<stop stop-color="#F187FF"/>
<stop offset="1" stop-color="#F3A6A2"/>
</linearGradient>
<linearGradient id="paint6_linear_232_6675" x1="671.27" y1="874.957" x2="641.688" y2="880.466" gradientUnits="userSpaceOnUse">
<stop stop-color="#FFBCF9"/>
<stop offset="1" stop-color="#F1A0EB"/>
</linearGradient>
<linearGradient id="paint7_linear_232_6675" x1="244.671" y1="1231.16" x2="244.671" y2="1250.99" gradientUnits="userSpaceOnUse">
<stop stop-color="#F187FF"/>
<stop offset="1" stop-color="#F3A6A2"/>
</linearGradient>
<linearGradient id="paint8_linear_232_6675" x1="726.413" y1="786.962" x2="700.05" y2="794.735" gradientUnits="userSpaceOnUse">
<stop stop-color="#FFBCF9"/>
<stop offset="1" stop-color="#F1A0EB"/>
</linearGradient>
<linearGradient id="paint9_linear_232_6675" x1="426.398" y1="1029.25" x2="375.015" y2="1055.85" gradientUnits="userSpaceOnUse">
<stop stop-color="#F3A6A2"/>
<stop offset="1" stop-color="#F187FF"/>
</linearGradient>
<linearGradient id="paint10_linear_232_6675" x1="530.369" y1="1089.73" x2="481.539" y2="1111.74" gradientUnits="userSpaceOnUse">
<stop stop-color="#F3A6A2"/>
<stop offset="1" stop-color="#EFC71D"/>
</linearGradient>
<linearGradient id="paint11_linear_232_6675" x1="581.193" y1="986.798" x2="545.963" y2="997.263" gradientUnits="userSpaceOnUse">
<stop stop-color="#F3A6A2"/>
<stop offset="1" stop-color="#F187FF"/>
</linearGradient>
<linearGradient id="paint12_linear_232_6675" x1="409.88" y1="1013.65" x2="371.993" y2="1030.8" gradientUnits="userSpaceOnUse">
<stop stop-color="#F3A6A2"/>
<stop offset="1" stop-color="#F187FF"/>
</linearGradient>
</defs>
</svg>
