<svg width="618" height="538" viewBox="0 0 618 538" fill="none" xmlns="http://www.w3.org/2000/svg">
<path d="M139.912 309.79C139.912 309.79 289.375 238.155 395.486 45.3672L560.365 505.141C529.64 490.379 492.507 475.844 449.356 465.193C341.55 438.578 248.105 449.003 189.431 461.015L139.912 309.79Z" fill="#1EF99A" stroke="black" stroke-miterlimit="10"/>
<path d="M395.502 45.3659L560.381 505.14C560.381 505.14 575.317 525.868 602.732 514.964C602.732 514.964 616.88 507.596 617.174 483.424L452.682 21.7813C452.682 21.7813 443.539 -8.58382 410.825 4.0961C410.825 4.0961 385.185 11.4638 395.502 45.3659Z" fill="#1FD0EF" stroke="black" stroke-miterlimit="10"/>
<path d="M509.996 182.616H534.048C534.048 182.616 556.645 180.387 560.382 205.44L583.873 272.951C583.873 272.951 593.016 289.168 576.212 302.435L557.446 315.782L509.996 182.616Z" fill="#1EF99A" stroke="black" stroke-miterlimit="10"/>
<path d="M4.90592 381.13C7.89571 373.522 12.1401 367.263 16.6916 362.191C24.5531 353.421 34.6704 346.988 45.7753 343.064L139.927 309.789L189.446 461.014L161.149 472.506L172.494 511.854C173.576 515.577 171.547 519.502 167.89 520.796L121.948 537.013C117.744 538.495 113.152 536.212 111.791 531.968L99.2445 492.847C94.6931 495.023 65.3424 508.543 40.4898 494.515C23.9125 485.172 18.5068 468.769 10.4184 444.21C2.97056 421.626 -3.38274 402.312 4.91927 381.13H4.90592Z" fill="#1FD0EF" stroke="black" stroke-miterlimit="10"/>
<path d="M14.9567 457.05C17.7596 457.85 21.0297 496.438 61.9659 499.988C67.5584 500.468 71.7895 499.841 78.5699 499.107C92.9049 495.223 93.0784 494.956 99.5919 492.126C161.497 471.785 99.0713 492.22 160.976 471.879C177.607 465.125 176.819 465.805 188.592 460.653C183.867 446.212 179.435 432.718 174.71 418.276L59.8703 462.349C59.8703 462.349 29.4385 474.241 14.9434 457.05H14.9567Z" fill="#44AFCD"/>
<path d="M176.031 417.81C176.031 417.81 324.159 393.251 445.219 428.621C460.862 433.119 476.986 438.085 493.55 443.597C511.088 449.43 527.866 455.449 543.896 461.563L559.178 503.807C534.967 492.381 512.917 483.959 494.324 477.713C459.02 465.874 430.804 460.094 419.232 457.892C407.86 455.716 383.849 451.499 352.763 449.27C328.884 447.561 307.649 447.508 289.83 448.162C274.014 448.709 256.876 449.964 238.617 452.219C221.145 454.382 204.888 457.185 189.979 460.321L176.045 417.797L176.031 417.81Z" fill="#61A574"/>
</svg>
