<svg width="698" height="215" viewBox="0 0 698 215" fill="none" xmlns="http://www.w3.org/2000/svg">
<path d="M169.771 35.0097C141.977 27.78 156.885 33.4231 135.792 17.78C127.226 13.9658 106.794 6.16924 93.6012 5.49607C77.11 4.65462 79.9675 17.1605 92.7585 25.55C105.549 33.9395 103.757 38.2122 88.4972 42.2445C73.2373 46.2768 88.1465 48.7529 99.1453 61.4151C110.144 74.0774 147.874 67.6896 167.178 74.9373C186.483 82.185 171.387 80.6464 207.205 93.369C243.022 106.092 234.468 85.8753 244.169 79.7637C253.87 73.652 258.267 72.0896 265.875 63.8566C273.484 55.6235 249.85 60.6713 239.871 58.6881C229.893 56.7048 223.518 63.4776 215.077 53.76C206.636 44.0425 197.565 42.2395 169.771 35.0097Z" fill="#2C2C2C" fill-opacity="0.8" stroke="black"/>
<path d="M279.41 138.388C233.451 137.785 258.694 139.826 220.412 129.483C205.716 127.754 171.1 124.894 150.209 127.293C124.096 130.291 132.762 141.801 155.608 147.006C178.455 152.211 177.079 156.784 154.527 164.241C131.975 171.697 156.158 170.656 177.629 180.435C199.1 190.213 256.06 175.263 288.726 177.849C321.393 180.435 297.232 182.432 357.599 186.524C417.966 190.617 397.793 172.921 410.941 164.727C424.089 156.533 430.453 153.995 439.612 144.221C448.771 134.447 413.442 144.83 397.148 145.209C380.854 145.588 373.137 153.656 356.659 146.151C340.182 138.647 325.369 138.992 279.41 138.388Z" fill="#2C2C2C" fill-opacity="0.8" stroke="black"/>
<path d="M350.429 8.67691C336.706 8.56349 344.246 9.13246 332.803 6.12273C328.413 5.63127 318.074 4.83341 311.84 5.57366C304.047 6.49897 306.649 9.89664 313.477 11.4061C320.305 12.9155 319.901 14.2724 313.177 16.5135C306.454 18.7546 313.672 18.4118 320.096 21.2781C326.519 24.1444 343.506 19.6344 353.262 20.3541C363.018 21.0737 355.807 21.6996 373.836 22.8261C391.865 23.9527 385.819 18.7388 389.734 16.2927C393.648 13.8466 395.545 13.0855 398.267 10.1769C400.989 7.26827 390.454 10.3946 385.59 10.5301C380.726 10.6656 378.432 13.0666 373.503 10.8668C368.573 8.66712 364.151 8.79033 350.429 8.67691Z" fill="#2C2C2C" fill-opacity="0.8" stroke="black"/>
<path d="M524.208 20.5178C511.147 24.7261 518.482 22.8949 506.673 23.6369C502.352 24.5512 492.287 27.0455 486.602 29.709C479.495 33.0383 483.034 35.445 489.991 34.7303C496.947 34.0156 496.989 35.431 491.312 39.673C485.634 43.915 492.379 41.3192 499.378 42.0198C506.377 42.7204 521.083 33.0967 530.57 30.7113C540.058 28.3259 533.41 31.1879 550.878 26.5869C568.346 21.9859 560.967 18.9383 563.914 15.385C566.861 11.8317 568.422 10.5128 570.09 6.89568C571.759 3.27859 562.743 9.55946 558.168 11.218C553.593 12.8766 552.171 15.8771 546.8 15.3394C541.429 14.8017 537.27 16.3095 524.208 20.5178Z" fill="#2C2C2C" fill-opacity="0.8" stroke="black"/>
<path d="M642.208 40.5178C629.147 44.7261 636.482 42.8949 624.673 43.6369C620.352 44.5512 610.287 47.0455 604.602 49.709C597.495 53.0383 601.034 55.445 607.991 54.7303C614.947 54.0156 614.989 55.431 609.312 59.673C603.634 63.915 610.379 61.3192 617.378 62.0198C624.377 62.7204 639.083 53.0967 648.57 50.7113C658.058 48.3259 651.41 51.1879 668.878 46.5869C686.346 41.9859 678.967 38.9383 681.914 35.385C684.861 31.8317 686.422 30.5128 688.09 26.8957C689.759 23.2786 680.743 29.5595 676.168 31.218C671.593 32.8766 670.171 35.8771 664.8 35.3394C659.429 34.8017 655.27 36.3095 642.208 40.5178Z" fill="#2C2C2C" fill-opacity="0.8" stroke="black"/>
<path d="M43.2383 105.497C32.8527 96.5272 38.2307 101.842 31.4576 92.1399C28.4296 88.9233 21.0661 81.6223 15.8354 78.1507C9.29695 73.8113 9.08093 78.0856 13.3079 83.6563C17.5349 89.2269 16.348 89.999 9.77265 87.3546C3.19735 84.7102 8.92136 89.1222 11.9615 95.465C15.0016 101.808 30.8681 109.367 37.8383 116.231C44.8085 123.096 38.9073 118.905 51.9192 131.434C64.9311 143.964 63.6982 136.076 68.2655 136.746C72.8329 137.416 74.7711 138.064 78.7286 137.609C82.686 137.154 72.6331 132.717 68.8379 129.672C65.0426 126.626 61.7403 126.971 59.4072 122.103C57.0741 117.236 53.6239 114.467 43.2383 105.497Z" fill="#2C2C2C" fill-opacity="0.8" stroke="black"/>
<path d="M221.587 14.5232C207.986 12.6977 215.396 14.2034 204.418 9.7888C200.124 8.75318 189.965 6.67102 183.688 6.6273C175.84 6.57264 177.998 10.2686 184.584 12.6185C191.171 14.9685 190.599 16.2642 183.649 17.6485C176.698 19.0328 183.903 19.5938 189.919 23.2395C195.934 26.8851 213.351 24.5308 222.941 26.4627C232.531 28.3945 225.298 28.1154 243.045 31.4836C260.792 34.8518 255.445 28.924 259.634 26.9857C263.824 25.0473 265.8 24.529 268.864 21.9829C271.928 19.4368 261.086 21.2236 256.242 20.7509C251.399 20.2782 248.824 22.3741 244.208 19.5762C239.591 16.7784 235.188 16.3486 221.587 14.5232Z" fill="#2C2C2C" fill-opacity="0.8" stroke="black"/>
<path d="M571.606 101.973C544.21 110.857 560.343 108.547 531.279 101.161C521.544 101.693 499.384 104.772 488.627 112.826C475.182 122.894 487.58 138.344 504.311 141.297C521.042 144.251 523.135 151.416 514.612 167.425C506.089 183.434 519.642 176.718 538.467 186.837C557.292 196.955 581.283 162.356 602.123 159.283C622.964 156.209 610.03 164.356 648.108 157.645C686.186 150.934 663.099 128.641 665.627 113.527C668.156 98.4141 670.285 93.2443 669.466 76.6062C668.646 59.9682 654.471 83.0967 645.135 87.138C635.798 91.1792 636.382 104.945 621.936 97.1799C607.489 89.4143 599.001 93.0882 571.606 101.973Z" fill="#2C2C2C" fill-opacity="0.8" stroke="black"/>
<path d="M375.941 65.4288C354.475 68.0364 366.636 68.4627 346.623 59.9414C339.426 59.1055 322.737 58.4563 313.559 62.546C302.086 67.6581 308.604 79.5508 320.338 83.5844C332.072 87.6181 332.425 92.6856 323.572 102.39C314.719 112.094 325.72 109.246 337.806 118.347C349.893 127.448 373.094 107.158 388.819 107.648C404.544 108.139 393.76 112.024 422.671 112.185C451.581 112.346 438.381 94.548 442.709 84.7105C447.036 74.8729 449.44 71.6628 451.573 60.3912C453.707 49.1196 439.557 62.9113 432.075 64.4804C424.593 66.0495 422.76 75.364 413.484 68.3794C404.208 61.3948 397.407 62.8212 375.941 65.4288Z" fill="#2C2C2C" fill-opacity="0.8" stroke="black"/>
</svg>
